ISO-10303-21;
HEADER;
FILE_DESCRIPTION (( 'STEP AP214' ),
    '1' );
FILE_NAME ('11-A-6004-01-(16gacr ANSI-61) - K48 - V3-R0.STEP',
    '2026-07-10T16:40:07',
    ( '' ),
    ( '' ),
    'SwSTEP 2.0',
    'SolidWorks 2024',
    '' );
FILE_SCHEMA (( 'AUTOMOTIVE_DESIGN' ));
ENDSEC;

DATA;
#1 = EDGE_CURVE ( 'NONE', #1189, #1249, #653, .T. ) ;
#2 = CARTESIAN_POINT ( 'NONE',  ( 8.619999999999995666, -1.114999999999999769, 0.06000000000000010186 ) ) ;
#3 = VERTEX_POINT ( 'NONE', #440 ) ;
#4 = CARTESIAN_POINT ( 'NONE',  ( -8.619999999999999218, 1.114999999999999991, -0.06000000000000021289 ) ) ;
#5 = CARTESIAN_POINT ( 'NONE',  ( -8.619999999999999218, 1.115000000000000435, 0.05999999999999983125 ) ) ;
#6 = ORIENTED_EDGE ( 'NONE', *, *, #451, .F. ) ;
#7 = LINE ( 'NONE', #895, #567 ) ;
#8 = CIRCLE ( 'NONE', #402, 0.1549999999999998601 ) ;
#9 = LINE ( 'NONE', #996, #670 ) ;
#10 = VERTEX_POINT ( 'NONE', #50 ) ;
#11 = VECTOR ( 'NONE', #721, 39.37007874015748143 ) ;
#12 = EDGE_CURVE ( 'NONE', #1036, #948, #56, .T. ) ;
#13 = CIRCLE ( 'NONE', #1123, 0.1560000000000001941 ) ;
#14 = PLANE ( 'NONE',  #74 ) ;
#15 = LINE ( 'NONE', #690, #693 ) ;
#16 = VECTOR ( 'NONE', #1132, 39.37007874015748143 ) ;
#17 = ORIENTED_EDGE ( 'NONE', *, *, #444, .F. ) ;
#18 = DIRECTION ( 'NONE',  ( -2.692277583148431035E-31, 1.000000000000000000, -3.469013325287950532E-15 ) ) ;
#19 = PLANE ( 'NONE',  #57 ) ;
#20 = ORIENTED_EDGE ( 'NONE', *, *, #1062, .T. ) ;
#21 = DIRECTION ( 'NONE',  ( 1.000000000000000000, 0.000000000000000000, 0.000000000000000000 ) ) ;
#22 = ADVANCED_FACE ( 'NONE', ( #559 ), #1229, .F. ) ;
#23 = DIRECTION ( 'NONE',  ( -0.000000000000000000, -0.000000000000000000, 1.000000000000000000 ) ) ;
#24 = ORIENTED_EDGE ( 'NONE', *, *, #144, .T. ) ;
#25 =( NAMED_UNIT ( * ) PLANE_ANGLE_UNIT ( ) SI_UNIT ( $, .RADIAN. ) );
#26 = FACE_OUTER_BOUND ( 'NONE', #420, .T. ) ;
#27 = ORIENTED_EDGE ( 'NONE', *, *, #179, .F. ) ;
#28 = DIRECTION ( 'NONE',  ( -1.000000000000000000, 0.000000000000000000, 0.000000000000000000 ) ) ;
#29 = LINE ( 'NONE', #930, #78 ) ;
#30 = ORIENTED_EDGE ( 'NONE', *, *, #934, .F. ) ;
#31 = CARTESIAN_POINT ( 'NONE',  ( -8.312407037970781181E-32, -1.114999999999999769, -3.881643331348517380E-15 ) ) ;
#32 = LINE ( 'NONE', #416, #1236 ) ;
#33 = EDGE_LOOP ( 'NONE', ( #197, #1031 ) ) ;
#34 = CARTESIAN_POINT ( 'NONE',  ( 8.619999999999995666, 1.114999999999999991, -0.06000000000000020595 ) ) ;
#35 = CIRCLE ( 'NONE', #530, 0.06000000000000005329 ) ;
#36 = DIRECTION ( 'NONE',  ( -0.000000000000000000, 0.000000000000000000, 1.000000000000000000 ) ) ;
#37 = CARTESIAN_POINT ( 'NONE',  ( 0.000000000000000000, 0.000000000000000000, 0.000000000000000000 ) ) ;
#38 = CIRCLE ( 'NONE', #773, 0.1560000000000001941 ) ;
#39 = LINE ( 'NONE', #1038, #118 ) ;
#40 = ADVANCED_FACE ( 'NONE', ( #360, #1213, #748, #1139, #1113, #263, #1045 ), #166, .T. ) ;
#41 = ORIENTED_EDGE ( 'NONE', *, *, #1173, .F. ) ;
#42 = DIRECTION ( 'NONE',  ( 0.000000000000000000, 3.469013325287949743E-15, 1.000000000000000000 ) ) ;
#43 = DIRECTION ( 'NONE',  ( 0.000000000000000000, -1.000000000000000000, -3.414809992080326361E-15 ) ) ;
#44 = ORIENTED_EDGE ( 'NONE', *, *, #1219, .F. ) ;
#45 = CARTESIAN_POINT ( 'NONE',  ( -8.974000000000003752, 0.6449999999999983524, -0.05999999999999990757 ) ) ;
#46 = EDGE_CURVE ( 'NONE', #279, #745, #300, .T. ) ;
#47 = VERTEX_POINT ( 'NONE', #69 ) ;
#48 = EDGE_CURVE ( 'NONE', #557, #837, #8, .T. ) ;
#49 = DIRECTION ( 'NONE',  ( -0.000000000000000000, -0.000000000000000000, 1.000000000000000000 ) ) ;
#50 = CARTESIAN_POINT ( 'NONE',  ( 8.619999999999995666, -1.175000000000001599, 0.5700000000000001732 ) ) ;
#51 = FACE_OUTER_BOUND ( 'NONE', #549, .T. ) ;
#52 = ORIENTED_EDGE ( 'NONE', *, *, #427, .T. ) ;
#53 = CLOSED_SHELL ( 'NONE', ( #22, #1094, #250, #318, #603, #1050, #541, #780, #471, #543, #1190, #40, #356, #500, #135, #125, #390, #573, #803, #171, #1076, #656, #676, #216, #260, #84, #832, #1014, #857, #351, #594, #714, #1087, #1150, #586, #476, #519, #943, #381, #1130 ) ) ;
#54 = CIRCLE ( 'NONE', #242, 0.1200000000000000511 ) ;
#55 = DIRECTION ( 'NONE',  ( -0.000000000000000000, -0.000000000000000000, 1.000000000000000000 ) ) ;
#56 = LINE ( 'NONE', #821, #94 ) ;
#57 = AXIS2_PLACEMENT_3D ( 'NONE', #422, #716, #1191 ) ;
#58 = LINE ( 'NONE', #1227, #569 ) ;
#59 = VECTOR ( 'NONE', #1243, 39.37007874015748143 ) ;
#60 = VECTOR ( 'NONE', #349, 39.37007874015748143 ) ;
#61 = ORIENTED_EDGE ( 'NONE', *, *, #806, .F. ) ;
#62 = CARTESIAN_POINT ( 'NONE',  ( -9.286000000000003141, 0.6449999999999983524, -2.290000000000000480 ) ) ;
#63 = ORIENTED_EDGE ( 'NONE', *, *, #682, .T. ) ;
#64 = EDGE_CURVE ( 'NONE', #323, #134, #760, .T. ) ;
#65 = DIRECTION ( 'NONE',  ( -0.000000000000000000, -0.000000000000000000, 1.000000000000000000 ) ) ;
#66 = EDGE_LOOP ( 'NONE', ( #683, #905, #595, #777 ) ) ;
#67 = ORIENTED_EDGE ( 'NONE', *, *, #1128, .F. ) ;
#68 = FACE_BOUND ( 'NONE', #489, .T. ) ;
#69 = CARTESIAN_POINT ( 'NONE',  ( 9.275999999999996248, 0.6449999999999983524, 0.000000000000000000 ) ) ;
#70 = FACE_OUTER_BOUND ( 'NONE', #729, .T. ) ;
#71 = EDGE_CURVE ( 'NONE', #1092, #436, #346, .T. ) ;
#72 = CARTESIAN_POINT ( 'NONE',  ( 9.499999999999994671, 1.175000000000000488, 0.05999999999999976880 ) ) ;
#73 = DIRECTION ( 'NONE',  ( -1.000000000000000000, -0.000000000000000000, -0.000000000000000000 ) ) ;
#74 = AXIS2_PLACEMENT_3D ( 'NONE', #418, #198, #1187 ) ;
#75 = CARTESIAN_POINT ( 'NONE',  ( -9.130000000000002558, 0.6449999999999983524, 0.000000000000000000 ) ) ;
#76 = VECTOR ( 'NONE', #297, 39.37007874015748143 ) ;
#77 = AXIS2_PLACEMENT_3D ( 'NONE', #911, #311, #602 ) ;
#78 = VECTOR ( 'NONE', #644, 39.37007874015748143 ) ;
#79 = EDGE_CURVE ( 'NONE', #108, #828, #273, .T. ) ;
#80 = CARTESIAN_POINT ( 'NONE',  ( -8.620000000000004547, -1.174999999999999822, -4.143302790390797341E-15 ) ) ;
#81 = CARTESIAN_POINT ( 'NONE',  ( 0.000000000000000000, 1.235000000000002318, 0.5699999999999999512 ) ) ;
#82 = CARTESIAN_POINT ( 'NONE',  ( 9.119999999999995666, -0.6050000000000017586, -2.290000000000000480 ) ) ;
#83 = EDGE_CURVE ( 'NONE', #948, #745, #563, .T. ) ;
#84 = ADVANCED_FACE ( 'NONE', ( #865 ), #662, .F. ) ;
#85 =( NAMED_UNIT ( * ) SI_UNIT ( $, .STERADIAN. ) SOLID_ANGLE_UNIT ( ) );
#86 = DIRECTION ( 'NONE',  ( -1.000000000000000000, 0.000000000000000000, 0.000000000000000000 ) ) ;
#87 = CARTESIAN_POINT ( 'NONE',  ( 8.619999999999995666, -1.235000000000001652, 0.5699999999999999512 ) ) ;
#88 = EDGE_LOOP ( 'NONE', ( #401, #156 ) ) ;
#89 = ORIENTED_EDGE ( 'NONE', *, *, #641, .F. ) ;
#90 = CYLINDRICAL_SURFACE ( 'NONE', #466, 0.06000000000000004635 ) ;
#91 = EDGE_CURVE ( 'NONE', #974, #945, #1242, .T. ) ;
#92 = CARTESIAN_POINT ( 'NONE',  ( -9.255475097130867468, 1.115000000000000213, 0.000000000000000000 ) ) ;
#93 = VERTEX_POINT ( 'NONE', #186 ) ;
#94 = VECTOR ( 'NONE', #1226, 39.37007874015748143 ) ;
#95 = AXIS2_PLACEMENT_3D ( 'NONE', #1141, #275, #1051 ) ;
#96 = EDGE_LOOP ( 'NONE', ( #1215, #1061, #89, #678 ) ) ;
#97 = CARTESIAN_POINT ( 'NONE',  ( 9.499999999999992895, -1.114999999999999769, -0.05999999999999993533 ) ) ;
#98 = DIRECTION ( 'NONE',  ( 1.000000000000000000, 0.000000000000000000, 0.000000000000000000 ) ) ;
#99 = EDGE_CURVE ( 'NONE', #700, #917, #574, .T. ) ;
#100 = EDGE_LOOP ( 'NONE', ( #737, #234 ) ) ;
#101 = DIRECTION ( 'NONE',  ( -0.000000000000000000, -0.000000000000000000, 1.000000000000000000 ) ) ;
#102 = ORIENTED_EDGE ( 'NONE', *, *, #324, .T. ) ;
#103 = DIRECTION ( 'NONE',  ( 1.000000000000000000, 0.000000000000000000, 0.000000000000000000 ) ) ;
#104 = CARTESIAN_POINT ( 'NONE',  ( 8.619999999999995666, -1.235000000000001652, 0.5699999999999999512 ) ) ;
#105 = VERTEX_POINT ( 'NONE', #173 ) ;
#106 = EDGE_CURVE ( 'NONE', #867, #556, #1161, .T. ) ;
#107 = CARTESIAN_POINT ( 'NONE',  ( 8.619999999999995666, 1.175000000000000266, -4.143302790390798919E-15 ) ) ;
#108 = VERTEX_POINT ( 'NONE', #763 ) ;
#109 = CYLINDRICAL_SURFACE ( 'NONE', #1056, 0.1199999999999999539 ) ;
#110 = CARTESIAN_POINT ( 'NONE',  ( -8.619999999999999218, 1.115000000000000213, -2.048885995248197414E-16 ) ) ;
#111 = ORIENTED_EDGE ( 'NONE', *, *, #71, .T. ) ;
#112 = LINE ( 'NONE', #421, #1256 ) ;
#113 = AXIS2_PLACEMENT_3D ( 'NONE', #936, #434, #841 ) ;
#114 = VECTOR ( 'NONE', #292, 39.37007874015748143 ) ;
#115 = DIRECTION ( 'NONE',  ( 0.000000000000000000, 0.000000000000000000, -1.000000000000000000 ) ) ;
#116 = EDGE_CURVE ( 'NONE', #299, #747, #54, .T. ) ;
#117 = ORIENTED_EDGE ( 'NONE', *, *, #48, .F. ) ;
#118 = VECTOR ( 'NONE', #528, 39.37007874015748143 ) ;
#119 = CIRCLE ( 'NONE', #95, 0.1560000000000001941 ) ;
#120 = CARTESIAN_POINT ( 'NONE',  ( 9.499999999999992895, -1.114999999999999769, 0.06000000000000010186 ) ) ;
#121 = CARTESIAN_POINT ( 'NONE',  ( -8.974000000000003752, 0.6449999999999983524, 0.000000000000000000 ) ) ;
#122 = EDGE_LOOP ( 'NONE', ( #142, #456, #1168, #685 ) ) ;
#123 = FACE_OUTER_BOUND ( 'NONE', #96, .T. ) ;
#124 = VERTEX_POINT ( 'NONE', #1156 ) ;
#125 = ADVANCED_FACE ( 'NONE', ( #1251 ), #90, .F. ) ;
#126 = DIRECTION ( 'NONE',  ( -1.000000000000000000, 0.000000000000000000, -0.000000000000000000 ) ) ;
#127 = LINE ( 'NONE', #551, #717 ) ;
#128 = EDGE_LOOP ( 'NONE', ( #893, #495, #1218, #52, #808, #1118, #180, #1106, #705, #697, #310, #1070 ) ) ;
#129 = DIRECTION ( 'NONE',  ( 1.000000000000000000, 0.000000000000000000, -0.000000000000000000 ) ) ;
#130 = LINE ( 'NONE', #793, #264 ) ;
#131 = ORIENTED_EDGE ( 'NONE', *, *, #276, .F. ) ;
#132 = DIRECTION ( 'NONE',  ( -0.000000000000000000, -0.000000000000000000, 1.000000000000000000 ) ) ;
#133 = FACE_OUTER_BOUND ( 'NONE', #767, .T. ) ;
#134 = VERTEX_POINT ( 'NONE', #672 ) ;
#135 = ADVANCED_FACE ( 'NONE', ( #1068 ), #679, .T. ) ;
#136 = DIRECTION ( 'NONE',  ( -1.000000000000000000, 0.000000000000000000, 0.000000000000000000 ) ) ;
#137 = ORIENTED_EDGE ( 'NONE', *, *, #614, .F. ) ;
#138 = VECTOR ( 'NONE', #477, 39.37007874015748143 ) ;
#139 = LINE ( 'NONE', #725, #791 ) ;
#140 =( GEOMETRIC_REPRESENTATION_CONTEXT ( 3 ) GLOBAL_UNCERTAINTY_ASSIGNED_CONTEXT ( ( #1231 ) ) GLOBAL_UNIT_ASSIGNED_CONTEXT ( ( #903, #25, #983 ) ) REPRESENTATION_CONTEXT ( 'NONE', 'WORKASPACE' ) );
#141 = CARTESIAN_POINT ( 'NONE',  ( 8.619999999999995666, -1.114999999999999769, 0.06000000000000010186 ) ) ;
#142 = ORIENTED_EDGE ( 'NONE', *, *, #1244, .F. ) ;
#143 = AXIS2_PLACEMENT_3D ( 'NONE', #182, #575, #1054 ) ;
#144 = EDGE_CURVE ( 'NONE', #3, #414, #1172, .T. ) ;
#145 = CARTESIAN_POINT ( 'NONE',  ( 0.000000000000000000, -1.174999999999999822, -4.143302790390797341E-15 ) ) ;
#146 = VERTEX_POINT ( 'NONE', #1146 ) ;
#147 = DIRECTION ( 'NONE',  ( 1.000000000000000000, 0.000000000000000000, -0.000000000000000000 ) ) ;
#148 = CYLINDRICAL_SURFACE ( 'NONE', #163, 0.1560000000000001941 ) ;
#149 = EDGE_LOOP ( 'NONE', ( #391, #358, #506, #24 ) ) ;
#150 = LINE ( 'NONE', #1121, #1198 ) ;
#151 = DIRECTION ( 'NONE',  ( 0.000000000000000000, 3.354901044850848446E-15, 1.000000000000000000 ) ) ;
#152 = VERTEX_POINT ( 'NONE', #329 ) ;
#153 = FACE_OUTER_BOUND ( 'NONE', #768, .T. ) ;
#154 = ORIENTED_EDGE ( 'NONE', *, *, #464, .T. ) ;
#155 = CARTESIAN_POINT ( 'NONE',  ( -9.500000000000001776, -1.174999999999999822, 0.05999999999999976880 ) ) ;
#156 = ORIENTED_EDGE ( 'NONE', *, *, #179, .T. ) ;
#157 = EDGE_CURVE ( 'NONE', #461, #727, #212, .T. ) ;
#158 = VECTOR ( 'NONE', #169, 39.37007874015748143 ) ;
#159 = ORIENTED_EDGE ( 'NONE', *, *, #951, .F. ) ;
#160 = AXIS2_PLACEMENT_3D ( 'NONE', #816, #1201, #722 ) ;
#161 = LINE ( 'NONE', #155, #280 ) ;
#162 = VECTOR ( 'NONE', #1114, 39.37007874015748143 ) ;
#163 = AXIS2_PLACEMENT_3D ( 'NONE', #1205, #726, #533 ) ;
#164 = ORIENTED_EDGE ( 'NONE', *, *, #1144, .T. ) ;
#165 = LINE ( 'NONE', #62, #874 ) ;
#166 = PLANE ( 'NONE',  #584 ) ;
#167 = PRODUCT_DEFINITION ( 'UNKNOWN', '', #432, #267 ) ;
#168 = CARTESIAN_POINT ( 'NONE',  ( 9.499999999999994671, 1.235000000000002318, 0.5699999999999999512 ) ) ;
#169 = DIRECTION ( 'NONE',  ( -1.000000000000000000, -0.000000000000000000, -0.000000000000000000 ) ) ;
#170 = LINE ( 'NONE', #87, #550 ) ;
#171 = ADVANCED_FACE ( 'NONE', ( #1166 ), #109, .T. ) ;
#172 = APPLICATION_CONTEXT ( 'automotive_design' ) ;
#173 = CARTESIAN_POINT ( 'NONE',  ( -8.620000000000004547, -1.174999999999999822, 0.05999999999999976880 ) ) ;
#174 = AXIS2_PLACEMENT_3D ( 'NONE', #512, #1174, #21 ) ;
#175 = CARTESIAN_POINT ( 'NONE',  ( 9.119999999999995666, 0.01499999999999833758, -0.05999999999999990757 ) ) ;
#176 = VECTOR ( 'NONE', #728, 39.37007874015748143 ) ;
#177 = EDGE_CURVE ( 'NONE', #990, #557, #222, .T. ) ;
#178 = VECTOR ( 'NONE', #979, 39.37007874015748143 ) ;
#179 = EDGE_CURVE ( 'NONE', #458, #1177, #788, .T. ) ;
#180 = ORIENTED_EDGE ( 'NONE', *, *, #83, .F. ) ;
#181 = DIRECTION ( 'NONE',  ( -1.000000000000000000, -0.000000000000000000, -0.000000000000000000 ) ) ;
#182 = CARTESIAN_POINT ( 'NONE',  ( -9.130000000000002558, 1.206000000000000405, -0.05999999999999999778 ) ) ;
#183 = EDGE_LOOP ( 'NONE', ( #251, #1228 ) ) ;
#184 = PLANE ( 'NONE',  #365 ) ;
#185 = ORIENTED_EDGE ( 'NONE', *, *, #464, .F. ) ;
#186 = CARTESIAN_POINT ( 'NONE',  ( 8.619999999999995666, -1.235000000000000098, 0.05999999999999956757 ) ) ;
#187 = CARTESIAN_POINT ( 'NONE',  ( -8.619999999999999218, 1.235000000000002318, 0.5699999999999999512 ) ) ;
#188 = ORIENTED_EDGE ( 'NONE', *, *, #451, .T. ) ;
#189 = CARTESIAN_POINT ( 'NONE',  ( -3.324962815188313348E-31, 1.115000000000000213, -3.881643331348518169E-15 ) ) ;
#190 = ORIENTED_EDGE ( 'NONE', *, *, #1164, .T. ) ;
#191 = EDGE_CURVE ( 'NONE', #485, #869, #999, .T. ) ;
#192 = CARTESIAN_POINT ( 'NONE',  ( 9.499999999999992895, -1.114999999999999769, 6.829619984160658046E-17 ) ) ;
#193 = CARTESIAN_POINT ( 'NONE',  ( -9.130000000000002558, -0.6050000000000017586, -0.05999999999999990757 ) ) ;
#194 = VERTEX_POINT ( 'NONE', #518 ) ;
#195 = SURFACE_SIDE_STYLE ('',( #596 ) ) ;
#196 = CIRCLE ( 'NONE', #978, 0.1560000000000001941 ) ;
#197 = ORIENTED_EDGE ( 'NONE', *, *, #988, .F. ) ;
#198 = DIRECTION ( 'NONE',  ( 0.000000000000000000, 3.491481338843133750E-15, -1.000000000000000000 ) ) ;
#199 = CARTESIAN_POINT ( 'NONE',  ( 8.619999999999995666, -1.235000000000000098, 0.05999999999999956757 ) ) ;
#200 = EDGE_CURVE ( 'NONE', #650, #539, #205, .T. ) ;
#201 = ORIENTED_EDGE ( 'NONE', *, *, #144, .F. ) ;
#202 = DIRECTION ( 'NONE',  ( 0.000000000000000000, 3.469013325287950532E-15, 1.000000000000000000 ) ) ;
#203 = LINE ( 'NONE', #1185, #610 ) ;
#204 = ORIENTED_EDGE ( 'NONE', *, *, #751, .F. ) ;
#205 = LINE ( 'NONE', #616, #889 ) ;
#206 = DIRECTION ( 'NONE',  ( -0.000000000000000000, 0.000000000000000000, 1.000000000000000000 ) ) ;
#207 = ORIENTED_EDGE ( 'NONE', *, *, #1219, .T. ) ;
#208 = EDGE_CURVE ( 'NONE', #323, #1224, #424, .T. ) ;
#209 = DIRECTION ( 'NONE',  ( -6.730693957871078681E-32, -1.000000000000000000, -3.469013325287951321E-15 ) ) ;
#210 = CARTESIAN_POINT ( 'NONE',  ( 9.499999999999992895, -1.114999999999999769, -0.05999999999999993533 ) ) ;
#211 = ORIENTED_EDGE ( 'NONE', *, *, #900, .T. ) ;
#212 = LINE ( 'NONE', #1181, #769 ) ;
#213 = DIRECTION ( 'NONE',  ( 0.000000000000000000, 0.000000000000000000, 1.000000000000000000 ) ) ;
#214 = VERTEX_POINT ( 'NONE', #585 ) ;
#215 = CARTESIAN_POINT ( 'NONE',  ( 8.619999999999995666, 1.235000000000002318, 0.5699999999999999512 ) ) ;
#216 = ADVANCED_FACE ( 'NONE', ( #899 ), #14, .F. ) ;
#217 = AXIS2_PLACEMENT_3D ( 'NONE', #481, #1260, #387 ) ;
#218 = CARTESIAN_POINT ( 'NONE',  ( -9.499999999999998224, 1.115000000000000435, -0.06000000000000020595 ) ) ;
#219 = VERTEX_POINT ( 'NONE', #399 ) ;
#220 = VECTOR ( 'NONE', #333, 39.37007874015748143 ) ;
#221 = AXIS2_PLACEMENT_3D ( 'NONE', #168, #366, #968 ) ;
#222 = LINE ( 'NONE', #1104, #76 ) ;
#223 = AXIS2_PLACEMENT_3D ( 'NONE', #1126, #337, #1112 ) ;
#224 = DIRECTION ( 'NONE',  ( 1.000000000000000000, 0.000000000000000000, 0.000000000000000000 ) ) ;
#225 = ORIENTED_EDGE ( 'NONE', *, *, #157, .F. ) ;
#226 = LINE ( 'NONE', #886, #220 ) ;
#227 = ORIENTED_EDGE ( 'NONE', *, *, #200, .T. ) ;
#228 = EDGE_CURVE ( 'NONE', #917, #743, #392, .T. ) ;
#229 = CARTESIAN_POINT ( 'NONE',  ( -9.130000000000002558, 0.01499999999999833758, -2.290000000000000480 ) ) ;
#230 = DIRECTION ( 'NONE',  ( 1.000000000000000000, -0.000000000000000000, -0.000000000000000000 ) ) ;
#231 = ORIENTED_EDGE ( 'NONE', *, *, #397, .F. ) ;
#232 = PLANE ( 'NONE',  #836 ) ;
#233 = CARTESIAN_POINT ( 'NONE',  ( -9.500000000000003553, -1.114999999999999547, -0.05999999999999992145 ) ) ;
#234 = ORIENTED_EDGE ( 'NONE', *, *, #766, .F. ) ;
#235 = DIRECTION ( 'NONE',  ( 1.000000000000000000, 0.000000000000000000, 0.000000000000000000 ) ) ;
#236 = EDGE_CURVE ( 'NONE', #134, #146, #1082, .T. ) ;
#237 = DIRECTION ( 'NONE',  ( 0.000000000000000000, 1.000000000000000000, -3.469013325287949743E-15 ) ) ;
#238 = VERTEX_POINT ( 'NONE', #977 ) ;
#239 = DIRECTION ( 'NONE',  ( 0.000000000000000000, 3.354901044850848446E-15, -1.000000000000000000 ) ) ;
#240 = DIRECTION ( 'NONE',  ( -1.000000000000000000, 0.000000000000000000, 0.000000000000000000 ) ) ;
#241 = EDGE_LOOP ( 'NONE', ( #426, #718, #529, #1063 ) ) ;
#242 = AXIS2_PLACEMENT_3D ( 'NONE', #848, #277, #871 ) ;
#243 = COLOUR_RGB ( '',0.7921568627450980005, 0.8196078431372548767, 0.9333333333333333481 ) ;
#244 = LINE ( 'NONE', #34, #589 ) ;
#245 = AXIS2_PLACEMENT_3D ( 'NONE', #1013, #730, #438 ) ;
#246 = CARTESIAN_POINT ( 'NONE',  ( 9.499999999999992895, -1.114999999999999769, 0.06000000000000010186 ) ) ;
#247 = EDGE_LOOP ( 'NONE', ( #326, #335, #524, #1163 ) ) ;
#248 = CIRCLE ( 'NONE', #385, 0.1560000000000001941 ) ;
#249 = DIRECTION ( 'NONE',  ( -0.000000000000000000, -0.000000000000000000, 1.000000000000000000 ) ) ;
#250 = ADVANCED_FACE ( 'NONE', ( #782 ), #497, .F. ) ;
#251 = ORIENTED_EDGE ( 'NONE', *, *, #1, .T. ) ;
#252 = DIRECTION ( 'NONE',  ( 1.000000000000000000, 0.000000000000000000, 0.000000000000000000 ) ) ;
#253 = ORIENTED_EDGE ( 'NONE', *, *, #630, .T. ) ;
#254 = DIRECTION ( 'NONE',  ( 0.000000000000000000, -1.000000000000000000, -3.354901044850848446E-15 ) ) ;
#255 = ORIENTED_EDGE ( 'NONE', *, *, #796, .T. ) ;
#256 = DIRECTION ( 'NONE',  ( 1.000000000000000000, 0.000000000000000000, 0.000000000000000000 ) ) ;
#257 = EDGE_LOOP ( 'NONE', ( #207, #834 ) ) ;
#258 = DIRECTION ( 'NONE',  ( 1.000000000000000000, 4.823726151746282950E-32, 1.437814733507507817E-17 ) ) ;
#259 = ORIENTED_EDGE ( 'NONE', *, *, #1230, .T. ) ;
#260 = ADVANCED_FACE ( 'NONE', ( #504 ), #1090, .F. ) ;
#261 = VECTOR ( 'NONE', #181, 39.37007874015748143 ) ;
#262 = FACE_BOUND ( 'NONE', #88, .T. ) ;
#263 = FACE_BOUND ( 'NONE', #552, .T. ) ;
#264 = VECTOR ( 'NONE', #800, 39.37007874015748143 ) ;
#265 = FACE_OUTER_BOUND ( 'NONE', #733, .T. ) ;
#266 = AXIS2_PLACEMENT_3D ( 'NONE', #873, #206, #600 ) ;
#267 = PRODUCT_DEFINITION_CONTEXT ( 'detailed design', #1204, 'design' ) ;
#268 = EDGE_CURVE ( 'NONE', #837, #745, #1265, .T. ) ;
#269 = CARTESIAN_POINT ( 'NONE',  ( -8.620000000000004547, -1.114999999999999547, -0.05999999999999992145 ) ) ;
#270 = DIRECTION ( 'NONE',  ( -0.000000000000000000, -0.000000000000000000, 1.000000000000000000 ) ) ;
#271 = CARTESIAN_POINT ( 'NONE',  ( 9.245475097130855247, 1.115000000000000435, -2.048885995248197414E-16 ) ) ;
#272 = DIRECTION ( 'NONE',  ( 0.000000000000000000, -1.000000000000000000, -3.469013325287951321E-15 ) ) ;
#273 = LINE ( 'NONE', #580, #138 ) ;
#274 = EDGE_CURVE ( 'NONE', #1258, #219, #482, .T. ) ;
#275 = DIRECTION ( 'NONE',  ( 0.000000000000000000, 0.000000000000000000, 1.000000000000000000 ) ) ;
#276 = EDGE_CURVE ( 'NONE', #1224, #146, #411, .T. ) ;
#277 = DIRECTION ( 'NONE',  ( 1.000000000000000000, -0.000000000000000000, -0.000000000000000000 ) ) ;
#278 = DIRECTION ( 'NONE',  ( 1.000000000000000000, 0.000000000000000000, 0.000000000000000000 ) ) ;
#279 = VERTEX_POINT ( 'NONE', #1194 ) ;
#280 = VECTOR ( 'NONE', #624, 39.37007874015748143 ) ;
#281 = CIRCLE ( 'NONE', #266, 0.1560000000000001941 ) ;
#282 = PLANE ( 'NONE',  #1040 ) ;
#283 = VECTOR ( 'NONE', #1145, 39.37007874015748143 ) ;
#284 = ORIENTED_EDGE ( 'NONE', *, *, #1216, .F. ) ;
#285 = LINE ( 'NONE', #754, #571 ) ;
#286 = DIRECTION ( 'NONE',  ( 0.000000000000000000, 1.000000000000000000, -3.414809992080326361E-15 ) ) ;
#287 = DIRECTION ( 'NONE',  ( -1.000000000000000000, -0.000000000000000000, 0.000000000000000000 ) ) ;
#288 = ORIENTED_EDGE ( 'NONE', *, *, #956, .F. ) ;
#289 = EDGE_CURVE ( 'NONE', #888, #448, #490, .T. ) ;
#290 = VERTEX_POINT ( 'NONE', #1211 ) ;
#291 = APPLICATION_PROTOCOL_DEFINITION ( 'draft international standard', 'automotive_design', 1998, #1204 ) ;
#292 = DIRECTION ( 'NONE',  ( 1.000000000000000000, 0.000000000000000000, 0.000000000000000000 ) ) ;
#293 = DIRECTION ( 'NONE',  ( -0.000000000000000000, -0.000000000000000000, 1.000000000000000000 ) ) ;
#294 = ORIENTED_EDGE ( 'NONE', *, *, #444, .T. ) ;
#295 = FACE_OUTER_BOUND ( 'NONE', #457, .T. ) ;
#296 = ORIENTED_EDGE ( 'NONE', *, *, #79, .F. ) ;
#297 = DIRECTION ( 'NONE',  ( 1.000000000000000000, 0.000000000000000000, 0.000000000000000000 ) ) ;
#298 = DIRECTION ( 'NONE',  ( 0.000000000000000000, 0.000000000000000000, -1.000000000000000000 ) ) ;
#299 = VERTEX_POINT ( 'NONE', #627 ) ;
#300 = CIRCLE ( 'NONE', #955, 0.1549999999999998601 ) ;
#301 = FILL_AREA_STYLE_COLOUR ( '', #243 ) ;
#302 = CIRCLE ( 'NONE', #160, 0.06000000000000004635 ) ;
#303 = CARTESIAN_POINT ( 'NONE',  ( 9.275999999999996248, -0.6050000000000017586, -2.290000000000000480 ) ) ;
#304 = AXIS2_PLACEMENT_3D ( 'NONE', #483, #684, #98 ) ;
#305 = ORIENTED_EDGE ( 'NONE', *, *, #887, .F. ) ;
#306 = CIRCLE ( 'NONE', #1238, 0.1560000000000001941 ) ;
#307 = DIRECTION ( 'NONE',  ( 0.000000000000000000, 0.000000000000000000, 1.000000000000000000 ) ) ;
#308 = EDGE_CURVE ( 'NONE', #1249, #485, #336, .T. ) ;
#309 = CARTESIAN_POINT ( 'NONE',  ( -9.130000000000002558, 0.6449999999999983524, -0.05999999999999990757 ) ) ;
#310 = ORIENTED_EDGE ( 'NONE', *, *, #630, .F. ) ;
#311 = DIRECTION ( 'NONE',  ( -2.692277583148431035E-31, 1.000000000000000000, -3.469013325287950532E-15 ) ) ;
#312 = DIRECTION ( 'NONE',  ( 1.000000000000000000, -0.000000000000000000, -0.000000000000000000 ) ) ;
#313 = EDGE_LOOP ( 'NONE', ( #185, #843, #702, #940 ) ) ;
#314 = CARTESIAN_POINT ( 'NONE',  ( 8.619999999999995666, -1.115000000000001767, 0.5700000000000003952 ) ) ;
#315 = EDGE_CURVE ( 'NONE', #974, #93, #139, .T. ) ;
#316 = ORIENTED_EDGE ( 'NONE', *, *, #79, .T. ) ;
#317 = FACE_OUTER_BOUND ( 'NONE', #313, .T. ) ;
#318 = ADVANCED_FACE ( 'NONE', ( #1110 ), #819, .F. ) ;
#319 = DIRECTION ( 'NONE',  ( 0.000000000000000000, -1.000000000000000000, 3.354901044850848446E-15 ) ) ;
#320 = ORIENTED_EDGE ( 'NONE', *, *, #731, .T. ) ;
#321 = CARTESIAN_POINT ( 'NONE',  ( -9.130000000000002558, 0.6449999999999983524, -2.290000000000000480 ) ) ;
#322 = CARTESIAN_POINT ( 'NONE',  ( -9.286000000000003141, -0.6050000000000017586, -2.290000000000000480 ) ) ;
#323 = VERTEX_POINT ( 'NONE', #532 ) ;
#324 = EDGE_CURVE ( 'NONE', #323, #1036, #621, .T. ) ;
#325 = FACE_OUTER_BOUND ( 'NONE', #645, .T. ) ;
#326 = ORIENTED_EDGE ( 'NONE', *, *, #995, .F. ) ;
#327 = VECTOR ( 'NONE', #826, 39.37007874015748143 ) ;
#328 = CIRCLE ( 'NONE', #872, 0.1560000000000001941 ) ;
#329 = CARTESIAN_POINT ( 'NONE',  ( -9.255475097130867468, 1.115000000000000435, -0.05999999999999999778 ) ) ;
#330 = LINE ( 'NONE', #628, #775 ) ;
#331 = ORIENTED_EDGE ( 'NONE', *, *, #308, .T. ) ;
#332 = CARTESIAN_POINT ( 'NONE',  ( 8.619999999999995666, 1.235000000000000542, 0.05999999999999929695 ) ) ;
#333 = DIRECTION ( 'NONE',  ( 0.000000000000000000, 3.354901044850848446E-15, 1.000000000000000000 ) ) ;
#334 = EDGE_CURVE ( 'NONE', #299, #990, #244, .T. ) ;
#335 = ORIENTED_EDGE ( 'NONE', *, *, #1137, .T. ) ;
#336 = LINE ( 'NONE', #1019, #507 ) ;
#337 = DIRECTION ( 'NONE',  ( -0.000000000000000000, 0.000000000000000000, 1.000000000000000000 ) ) ;
#338 = ORIENTED_EDGE ( 'NONE', *, *, #614, .T. ) ;
#339 = DIRECTION ( 'NONE',  ( 0.000000000000000000, 0.000000000000000000, 1.000000000000000000 ) ) ;
#340 = ORIENTED_EDGE ( 'NONE', *, *, #639, .T. ) ;
#341 = FACE_OUTER_BOUND ( 'NONE', #1131, .T. ) ;
#342 = CARTESIAN_POINT ( 'NONE',  ( -8.620000000000000995, 1.175000000000002265, 0.5700000000000001732 ) ) ;
#343 = ORIENTED_EDGE ( 'NONE', *, *, #12, .F. ) ;
#344 = DIRECTION ( 'NONE',  ( 1.000000000000000000, 0.000000000000000000, 0.000000000000000000 ) ) ;
#345 = ORIENTED_EDGE ( 'NONE', *, *, #1183, .F. ) ;
#346 = CIRCLE ( 'NONE', #957, 0.1560000000000001941 ) ;
#347 = AXIS2_PLACEMENT_3D ( 'NONE', #946, #339, #822 ) ;
#348 = CIRCLE ( 'NONE', #894, 0.1560000000000001941 ) ;
#349 = DIRECTION ( 'NONE',  ( -0.000000000000000000, -0.000000000000000000, 1.000000000000000000 ) ) ;
#350 = DIRECTION ( 'NONE',  ( -0.000000000000000000, -0.000000000000000000, 1.000000000000000000 ) ) ;
#351 = ADVANCED_FACE ( 'NONE', ( #341 ), #431, .F. ) ;
#352 = CARTESIAN_POINT ( 'NONE',  ( 8.619999999999995666, 1.235000000000000320, -4.352791670721387236E-15 ) ) ;
#353 = ORIENTED_EDGE ( 'NONE', *, *, #64, .F. ) ;
#354 = LINE ( 'NONE', #744, #16 ) ;
#355 = ORIENTED_EDGE ( 'NONE', *, *, #484, .F. ) ;
#356 = ADVANCED_FACE ( 'NONE', ( #925 ), #636, .T. ) ;
#357 = DIRECTION ( 'NONE',  ( -1.000000000000000000, -0.000000000000000000, -0.000000000000000000 ) ) ;
#358 = ORIENTED_EDGE ( 'NONE', *, *, #1055, .F. ) ;
#359 = CARTESIAN_POINT ( 'NONE',  ( -9.130000000000002558, 0.01499999999999833758, -0.05999999999999990757 ) ) ;
#360 = FACE_OUTER_BOUND ( 'NONE', #876, .T. ) ;
#361 = FACE_OUTER_BOUND ( 'NONE', #122, .T. ) ;
#362 = EDGE_CURVE ( 'NONE', #880, #867, #226, .T. ) ;
#363 = DIRECTION ( 'NONE',  ( 1.000000000000000000, 0.000000000000000000, 0.000000000000000000 ) ) ;
#364 = DIRECTION ( 'NONE',  ( 0.000000000000000000, 0.000000000000000000, 1.000000000000000000 ) ) ;
#365 = AXIS2_PLACEMENT_3D ( 'NONE', #863, #272, #668 ) ;
#366 = DIRECTION ( 'NONE',  ( 0.000000000000000000, -3.491481338843133750E-15, -1.000000000000000000 ) ) ;
#367 = CIRCLE ( 'NONE', #304, 0.1560000000000001941 ) ;
#368 = EDGE_CURVE ( 'NONE', #1206, #134, #35, .T. ) ;
#369 = APPLICATION_PROTOCOL_DEFINITION ( 'draft international standard', 'automotive_design', 1998, #172 ) ;
#370 = CARTESIAN_POINT ( 'NONE',  ( -9.286000000000003141, 0.01499999999999835666, -0.05999999999999990757 ) ) ;
#371 = CARTESIAN_POINT ( 'NONE',  ( 9.275999999999996248, -0.6050000000000017586, -0.05999999999999990757 ) ) ;
#372 = CARTESIAN_POINT ( 'NONE',  ( -9.499999999999998224, 1.115000000000000435, -2.048885995248197414E-16 ) ) ;
#373 = PRODUCT_RELATED_PRODUCT_CATEGORY ( 'part', '', ( #1001 ) ) ;
#374 = CARTESIAN_POINT ( 'NONE',  ( -9.500000000000000000, 1.114999999999999991, -0.06000000000000021289 ) ) ;
#375 = ORIENTED_EDGE ( 'NONE', *, *, #796, .F. ) ;
#376 = ORIENTED_EDGE ( 'NONE', *, *, #1210, .T. ) ;
#377 = FACE_BOUND ( 'NONE', #183, .T. ) ;
#378 = CARTESIAN_POINT ( 'NONE',  ( 9.119999999999995666, 0.6449999999999983524, -0.05999999999999990757 ) ) ;
#379 = VECTOR ( 'NONE', #599, 39.37007874015748143 ) ;
#380 = CYLINDRICAL_SURFACE ( 'NONE', #1222, 0.1560000000000001941 ) ;
#381 = ADVANCED_FACE ( 'NONE', ( #406 ), #396, .F. ) ;
#382 = ORIENTED_EDGE ( 'NONE', *, *, #995, .T. ) ;
#383 = VECTOR ( 'NONE', #1011, 39.37007874015748143 ) ;
#384 = AXIS2_PLACEMENT_3D ( 'NONE', #1157, #287, #561 ) ;
#385 = AXIS2_PLACEMENT_3D ( 'NONE', #359, #864, #961 ) ;
#386 = ORIENTED_EDGE ( 'NONE', *, *, #706, .T. ) ;
#387 = DIRECTION ( 'NONE',  ( 0.000000000000000000, 1.000000000000000000, -3.343668117245323456E-15 ) ) ;
#388 = CYLINDRICAL_SURFACE ( 'NONE', #1175, 0.1560000000000001941 ) ;
#389 = ORIENTED_EDGE ( 'NONE', *, *, #493, .T. ) ;
#390 = ADVANCED_FACE ( 'NONE', ( #123 ), #515, .F. ) ;
#391 = ORIENTED_EDGE ( 'NONE', *, *, #1043, .F. ) ;
#392 = LINE ( 'NONE', #4, #565 ) ;
#393 = DIRECTION ( 'NONE',  ( 1.000000000000000000, 0.000000000000000000, 0.000000000000000000 ) ) ;
#394 = ORIENTED_EDGE ( 'NONE', *, *, #1084, .F. ) ;
#395 = CARTESIAN_POINT ( 'NONE',  ( -8.619999999999999218, 1.114999999999999991, -0.06000000000000021289 ) ) ;
#396 = CYLINDRICAL_SURFACE ( 'NONE', #813, 0.1549999999999998601 ) ;
#397 = EDGE_CURVE ( 'NONE', #1189, #869, #1170, .T. ) ;
#398 = ORIENTED_EDGE ( 'NONE', *, *, #998, .T. ) ;
#399 = CARTESIAN_POINT ( 'NONE',  ( -8.620000000000004547, -1.235000000000000098, 0.05999999999999956757 ) ) ;
#400 = DIRECTION ( 'NONE',  ( -1.000000000000000000, -0.000000000000000000, 0.000000000000000000 ) ) ;
#401 = ORIENTED_EDGE ( 'NONE', *, *, #1055, .T. ) ;
#402 = AXIS2_PLACEMENT_3D ( 'NONE', #468, #1064, #473 ) ;
#403 = FACE_OUTER_BOUND ( 'NONE', #781, .T. ) ;
#404 = AXIS2_PLACEMENT_3D ( 'NONE', #1207, #65, #928 ) ;
#405 = AXIS2_PLACEMENT_3D ( 'NONE', #593, #789, #298 ) ;
#406 = FACE_OUTER_BOUND ( 'NONE', #757, .T. ) ;
#407 = AXIS2_PLACEMENT_3D ( 'NONE', #246, #230, #43 ) ;
#408 = VERTEX_POINT ( 'NONE', #708 ) ;
#409 = CIRCLE ( 'NONE', #1101, 0.1549999999999998601 ) ;
#410 = EDGE_CURVE ( 'NONE', #1258, #461, #130, .T. ) ;
#411 = LINE ( 'NONE', #97, #655 ) ;
#412 = EDGE_CURVE ( 'NONE', #1092, #47, #1179, .T. ) ;
#413 = CARTESIAN_POINT ( 'NONE',  ( 9.119999999999995666, 0.6449999999999983524, 0.000000000000000000 ) ) ;
#414 = VERTEX_POINT ( 'NONE', #1088 ) ;
#415 =( LENGTH_UNIT ( ) NAMED_UNIT ( * ) SI_UNIT ( $, .METRE. ) );
#416 = CARTESIAN_POINT ( 'NONE',  ( -9.499999999999998224, 1.115000000000000435, -0.06000000000000020595 ) ) ;
#417 = EDGE_LOOP ( 'NONE', ( #164, #654 ) ) ;
#418 = CARTESIAN_POINT ( 'NONE',  ( 9.499999999999991118, -1.235000000000001652, 0.5699999999999999512 ) ) ;
#419 = CARTESIAN_POINT ( 'NONE',  ( -9.499999999999998224, 1.115000000000000435, -2.048885995248197414E-16 ) ) ;
#420 = EDGE_LOOP ( 'NONE', ( #723, #1028, #1192, #877 ) ) ;
#421 = CARTESIAN_POINT ( 'NONE',  ( 9.499999999999992895, -1.114999999999999769, 6.829619984160658046E-17 ) ) ;
#422 = CARTESIAN_POINT ( 'NONE',  ( 8.619999999999995666, -1.115000000000001767, 0.5700000000000003952 ) ) ;
#423 = ORIENTED_EDGE ( 'NONE', *, *, #64, .T. ) ;
#424 = LINE ( 'NONE', #689, #449 ) ;
#425 = CARTESIAN_POINT ( 'NONE',  ( 8.619999999999995666, 1.175000000000002265, 0.5700000000000001732 ) ) ;
#426 = ORIENTED_EDGE ( 'NONE', *, *, #362, .F. ) ;
#427 = EDGE_CURVE ( 'NONE', #743, #299, #701, .T. ) ;
#428 = PLANE ( 'NONE',  #976 ) ;
#429 = ORIENTED_EDGE ( 'NONE', *, *, #274, .T. ) ;
#430 = VECTOR ( 'NONE', #357, 39.37007874015748143 ) ;
#431 = CYLINDRICAL_SURFACE ( 'NONE', #245, 0.1560000000000001941 ) ;
#432 = PRODUCT_DEFINITION_FORMATION_WITH_SPECIFIED_SOURCE ( 'ANY', '', #1001, .NOT_KNOWN. ) ;
#433 = CARTESIAN_POINT ( 'NONE',  ( 8.619999999999995666, 1.114999999999999991, -0.06000000000000020595 ) ) ;
#434 = DIRECTION ( 'NONE',  ( -0.000000000000000000, 0.000000000000000000, 1.000000000000000000 ) ) ;
#435 = DIRECTION ( 'NONE',  ( 0.000000000000000000, 3.354901044850848446E-15, -1.000000000000000000 ) ) ;
#436 = VERTEX_POINT ( 'NONE', #807 ) ;
#437 = EDGE_CURVE ( 'NONE', #146, #1258, #989, .T. ) ;
#438 = DIRECTION ( 'NONE',  ( 1.000000000000000000, 0.000000000000000000, 0.000000000000000000 ) ) ;
#439 = CARTESIAN_POINT ( 'NONE',  ( -8.974000000000003752, -0.6050000000000017586, -2.290000000000000480 ) ) ;
#440 = CARTESIAN_POINT ( 'NONE',  ( -8.974000000000003752, -0.6050000000000017586, 0.000000000000000000 ) ) ;
#441 = PLANE ( 'NONE',  #590 ) ;
#442 = DIRECTION ( 'NONE',  ( 1.000000000000000000, -4.823726151746280213E-32, 1.437814733507507200E-17 ) ) ;
#443 = ORIENTED_EDGE ( 'NONE', *, *, #91, .F. ) ;
#444 = EDGE_CURVE ( 'NONE', #152, #828, #203, .T. ) ;
#445 = CARTESIAN_POINT ( 'NONE',  ( 8.963999999999995083, 0.6449999999999983524, -2.290000000000000480 ) ) ;
#446 = ORIENTED_EDGE ( 'NONE', *, *, #824, .T. ) ;
#447 = PLANE ( 'NONE',  #450 ) ;
#448 = VERTEX_POINT ( 'NONE', #233 ) ;
#449 = VECTOR ( 'NONE', #698, 39.37007874015748143 ) ;
#450 = AXIS2_PLACEMENT_3D ( 'NONE', #145, #842, #1034 ) ;
#451 = EDGE_CURVE ( 'NONE', #1067, #521, #904, .T. ) ;
#452 = AXIS2_PLACEMENT_3D ( 'NONE', #505, #23, #879 ) ;
#453 = DIRECTION ( 'NONE',  ( 1.000000000000000000, -0.000000000000000000, -0.000000000000000000 ) ) ;
#454 = CARTESIAN_POINT ( 'NONE',  ( 9.119999999999995666, 0.01499999999999833758, -2.290000000000000480 ) ) ;
#455 = CARTESIAN_POINT ( 'NONE',  ( 8.963999999999995083, 0.01499999999999835666, 0.000000000000000000 ) ) ;
#456 = ORIENTED_EDGE ( 'NONE', *, *, #724, .T. ) ;
#457 = EDGE_LOOP ( 'NONE', ( #27, #582, #338, #67 ) ) ;
#458 = VERTEX_POINT ( 'NONE', #509 ) ;
#459 = LINE ( 'NONE', #546, #162 ) ;
#460 = EDGE_CURVE ( 'NONE', #888, #152, #32, .T. ) ;
#461 = VERTEX_POINT ( 'NONE', #604 ) ;
#462 = DIRECTION ( 'NONE',  ( 1.000000000000000000, 0.000000000000000000, 0.000000000000000000 ) ) ;
#463 = CARTESIAN_POINT ( 'NONE',  ( -9.286000000000003141, 0.6449999999999983524, 0.000000000000000000 ) ) ;
#464 = EDGE_CURVE ( 'NONE', #700, #290, #9, .T. ) ;
#465 = ORIENTED_EDGE ( 'NONE', *, *, #688, .T. ) ;
#466 = AXIS2_PLACEMENT_3D ( 'NONE', #772, #73, #286 ) ;
#467 = CARTESIAN_POINT ( 'NONE',  ( -8.620000000000004547, -1.235000000000001652, 0.5699999999999999512 ) ) ;
#468 = CARTESIAN_POINT ( 'NONE',  ( 9.119999999999995666, 1.206000000000000405, 0.000000000000000000 ) ) ;
#469 = DIRECTION ( 'NONE',  ( 1.000000000000000000, 0.000000000000000000, 0.000000000000000000 ) ) ;
#470 = CIRCLE ( 'NONE', #635, 0.1560000000000001941 ) ;
#471 = ADVANCED_FACE ( 'NONE', ( #26 ), #19, .F. ) ;
#472 = DIRECTION ( 'NONE',  ( 0.000000000000000000, 0.000000000000000000, 1.000000000000000000 ) ) ;
#473 = DIRECTION ( 'NONE',  ( 1.000000000000000000, 0.000000000000000000, 0.000000000000000000 ) ) ;
#474 = CARTESIAN_POINT ( 'NONE',  ( -8.974000000000003752, 0.6449999999999983524, -2.290000000000000480 ) ) ;
#475 = ORIENTED_EDGE ( 'NONE', *, *, #99, .F. ) ;
#476 = ADVANCED_FACE ( 'NONE', ( #325 ), #428, .F. ) ;
#477 = DIRECTION ( 'NONE',  ( 1.000000000000000000, 0.000000000000000000, 0.000000000000000000 ) ) ;
#478 = CYLINDRICAL_SURFACE ( 'NONE', #738, 0.1560000000000001941 ) ;
#479 = ORIENTED_EDGE ( 'NONE', *, *, #850, .F. ) ;
#480 = ORIENTED_EDGE ( 'NONE', *, *, #1, .F. ) ;
#481 = CARTESIAN_POINT ( 'NONE',  ( -9.499999999999998224, 1.115000000000000435, 0.05999999999999983125 ) ) ;
#482 = CIRCLE ( 'NONE', #1193, 0.1200000000000000511 ) ;
#483 = CARTESIAN_POINT ( 'NONE',  ( -9.130000000000002558, 0.01499999999999833758, 0.000000000000000000 ) ) ;
#484 = EDGE_CURVE ( 'NONE', #461, #105, #302, .T. ) ;
#485 = VERTEX_POINT ( 'NONE', #1135 ) ;
#486 = AXIS2_PLACEMENT_3D ( 'NONE', #395, #129, #881 ) ;
#487 = CIRCLE ( 'NONE', #384, 0.06000000000000004635 ) ;
#488 = AXIS2_PLACEMENT_3D ( 'NONE', #953, #823, #913 ) ;
#489 = EDGE_LOOP ( 'NONE', ( #111, #382 ) ) ;
#490 = LINE ( 'NONE', #592, #692 ) ;
#491 = DIRECTION ( 'NONE',  ( 1.000000000000000000, 0.000000000000000000, 0.000000000000000000 ) ) ;
#492 = ORIENTED_EDGE ( 'NONE', *, *, #1164, .F. ) ;
#493 = EDGE_CURVE ( 'NONE', #219, #93, #750, .T. ) ;
#494 = DIRECTION ( 'NONE',  ( -0.000000000000000000, -0.000000000000000000, 1.000000000000000000 ) ) ;
#495 = ORIENTED_EDGE ( 'NONE', *, *, #815, .T. ) ;
#496 = DIMENSIONAL_EXPONENTS ( 1.000000000000000000, 0.000000000000000000, 0.000000000000000000, 0.000000000000000000, 0.000000000000000000, 0.000000000000000000, 0.000000000000000000 ) ;
#497 = CYLINDRICAL_SURFACE ( 'NONE', #1039, 0.1560000000000001941 ) ;
#498 = CARTESIAN_POINT ( 'NONE',  ( -9.130000000000002558, 0.01499999999999833758, 0.000000000000000000 ) ) ;
#499 = ORIENTED_EDGE ( 'NONE', *, *, #639, .F. ) ;
#500 = ADVANCED_FACE ( 'NONE', ( #652 ), #642, .T. ) ;
#501 = DIRECTION ( 'NONE',  ( 0.000000000000000000, -3.354901044850848446E-15, -1.000000000000000000 ) ) ;
#502 = ORIENTED_EDGE ( 'NONE', *, *, #412, .T. ) ;
#503 = EDGE_CURVE ( 'NONE', #238, #1099, #1030, .T. ) ;
#504 = FACE_OUTER_BOUND ( 'NONE', #675, .T. ) ;
#505 = CARTESIAN_POINT ( 'NONE',  ( -9.130000000000002558, 0.6449999999999983524, -2.290000000000000480 ) ) ;
#506 = ORIENTED_EDGE ( 'NONE', *, *, #1128, .T. ) ;
#507 = VECTOR ( 'NONE', #1203, 39.37007874015748143 ) ;
#508 = VECTOR ( 'NONE', #797, 39.37007874015748143 ) ;
#509 = CARTESIAN_POINT ( 'NONE',  ( -9.286000000000003141, -0.6050000000000017586, -0.05999999999999990757 ) ) ;
#510 = AXIS2_PLACEMENT_3D ( 'NONE', #1212, #935, #1020 ) ;
#511 = ORIENTED_EDGE ( 'NONE', *, *, #324, .F. ) ;
#512 = CARTESIAN_POINT ( 'NONE',  ( -9.130000000000002558, -0.6050000000000017586, -0.05999999999999990757 ) ) ;
#513 = DIRECTION ( 'NONE',  ( 0.000000000000000000, 1.024442997624098303E-14, -1.000000000000000000 ) ) ;
#514 = EDGE_LOOP ( 'NONE', ( #929, #1160 ) ) ;
#515 = PLANE ( 'NONE',  #870 ) ;
#516 = SHAPE_DEFINITION_REPRESENTATION ( #611, #1079 ) ;
#517 = ORIENTED_EDGE ( 'NONE', *, *, #875, .F. ) ;
#518 = CARTESIAN_POINT ( 'NONE',  ( -8.620000000000004547, -1.175000000000001599, 0.5700000000000001732 ) ) ;
#519 = ADVANCED_FACE ( 'NONE', ( #1223 ), #184, .T. ) ;
#520 = DIRECTION ( 'NONE',  ( 0.000000000000000000, 0.000000000000000000, 1.000000000000000000 ) ) ;
#521 = VERTEX_POINT ( 'NONE', #577 ) ;
#522 = CARTESIAN_POINT ( 'NONE',  ( 0.000000000000000000, 1.175000000000000266, -4.143302790390798919E-15 ) ) ;
#523 = DIRECTION ( 'NONE',  ( -1.000000000000000000, 0.000000000000000000, 0.000000000000000000 ) ) ;
#524 = ORIENTED_EDGE ( 'NONE', *, *, #1159, .T. ) ;
#525 = DIRECTION ( 'NONE',  ( -0.000000000000000000, 0.000000000000000000, -1.000000000000000000 ) ) ;
#526 = LINE ( 'NONE', #445, #60 ) ;
#527 = ORIENTED_EDGE ( 'NONE', *, *, #268, .F. ) ;
#528 = DIRECTION ( 'NONE',  ( 0.000000000000000000, -1.000000000000000000, 0.000000000000000000 ) ) ;
#529 = ORIENTED_EDGE ( 'NONE', *, *, #503, .T. ) ;
#530 = AXIS2_PLACEMENT_3D ( 'NONE', #2, #312, #619 ) ;
#531 = CIRCLE ( 'NONE', #838, 0.1560000000000001941 ) ;
#532 = CARTESIAN_POINT ( 'NONE',  ( 9.499999999999994671, -1.114999999999999769, 6.829619984160658046E-17 ) ) ;
#533 = DIRECTION ( 'NONE',  ( 1.000000000000000000, 0.000000000000000000, 0.000000000000000000 ) ) ;
#534 = ORIENTED_EDGE ( 'NONE', *, *, #1210, .F. ) ;
#535 = FACE_OUTER_BOUND ( 'NONE', #1127, .T. ) ;
#536 = UNCERTAINTY_MEASURE_WITH_UNIT (LENGTH_MEASURE( 1.000000000000000082E-05 ), #1245, 'distance_accuracy_value', 'NONE');
#537 = ORIENTED_EDGE ( 'NONE', *, *, #956, .T. ) ;
#538 = FACE_OUTER_BOUND ( 'NONE', #660, .T. ) ;
#539 = VERTEX_POINT ( 'NONE', #856 ) ;
#540 = CARTESIAN_POINT ( 'NONE',  ( 9.119999999999995666, 0.01499999999999833758, 0.000000000000000000 ) ) ;
#541 = ADVANCED_FACE ( 'NONE', ( #868 ), #282, .T. ) ;
#542 = EDGE_LOOP ( 'NONE', ( #933, #1158 ) ) ;
#543 = ADVANCED_FACE ( 'NONE', ( #785 ), #1093, .F. ) ;
#544 = CARTESIAN_POINT ( 'NONE',  ( -9.130000000000002558, 1.206000000000000405, 0.000000000000000000 ) ) ;
#545 = ORIENTED_EDGE ( 'NONE', *, *, #268, .T. ) ;
#546 = CARTESIAN_POINT ( 'NONE',  ( 9.499999999999998224, 1.235000000000000320, -0.05999999999999999778 ) ) ;
#547 = ORIENTED_EDGE ( 'NONE', *, *, #83, .T. ) ;
#548 = VECTOR ( 'NONE', #1095, 39.37007874015748143 ) ;
#549 = EDGE_LOOP ( 'NONE', ( #30, #389, #1085, #818 ) ) ;
#550 = VECTOR ( 'NONE', #674, 39.37007874015748143 ) ;
#551 = CARTESIAN_POINT ( 'NONE',  ( 9.275999999999996248, 0.01499999999999833758, -2.290000000000000480 ) ) ;
#552 = EDGE_LOOP ( 'NONE', ( #201, #137 ) ) ;
#553 = VECTOR ( 'NONE', #49, 39.37007874015748143 ) ;
#554 = LINE ( 'NONE', #352, #176 ) ;
#555 = CARTESIAN_POINT ( 'NONE',  ( -9.500000000000001776, 1.235000000000000320, -0.05999999999999999778 ) ) ;
#556 = VERTEX_POINT ( 'NONE', #215 ) ;
#557 = VERTEX_POINT ( 'NONE', #609 ) ;
#558 = CARTESIAN_POINT ( 'NONE',  ( 8.994524902869130756, 1.114999999999999769, -0.1100000000000000422 ) ) ;
#559 = FACE_OUTER_BOUND ( 'NONE', #620, .T. ) ;
#560 = EDGE_CURVE ( 'NONE', #134, #461, #112, .T. ) ;
#561 = DIRECTION ( 'NONE',  ( 0.000000000000000000, 9.106159978880870295E-15, -1.000000000000000000 ) ) ;
#562 = ORIENTED_EDGE ( 'NONE', *, *, #236, .F. ) ;
#563 = LINE ( 'NONE', #1053, #158 ) ;
#564 = PLANE ( 'NONE',  #1122 ) ;
#565 = VECTOR ( 'NONE', #787, 39.37007874015748143 ) ;
#566 = MANIFOLD_SOLID_BREP ( 'Cortar-Extruir4', #53 ) ;
#567 = VECTOR ( 'NONE', #792, 39.37007874015748143 ) ;
#568 = CARTESIAN_POINT ( 'NONE',  ( 9.499999999999994671, -1.114999999999999547, -0.05999999999999994227 ) ) ;
#569 = VECTOR ( 'NONE', #239, 39.37007874015748143 ) ;
#570 = DIRECTION ( 'NONE',  ( -0.000000000000000000, 0.000000000000000000, 1.000000000000000000 ) ) ;
#571 = VECTOR ( 'NONE', #1233, 39.37007874015748143 ) ;
#572 = AXIS2_PLACEMENT_3D ( 'NONE', #844, #1044, #462 ) ;
#573 = ADVANCED_FACE ( 'NONE', ( #403 ), #1010, .T. ) ;
#574 = LINE ( 'NONE', #372, #1142 ) ;
#575 = DIRECTION ( 'NONE',  ( -0.000000000000000000, 0.000000000000000000, 1.000000000000000000 ) ) ;
#576 = EDGE_LOOP ( 'NONE', ( #1016, #44, #227, #851 ) ) ;
#577 = CARTESIAN_POINT ( 'NONE',  ( 8.619999999999995666, 1.175000000000000488, 0.05999999999999949818 ) ) ;
#578 = EDGE_CURVE ( 'NONE', #214, #669, #7, .T. ) ;
#579 = ORIENTED_EDGE ( 'NONE', *, *, #1159, .F. ) ;
#580 = CARTESIAN_POINT ( 'NONE',  ( -9.499999999999998224, 1.115000000000000435, -2.048885995248197414E-16 ) ) ;
#581 = DIRECTION ( 'NONE',  ( 1.000000000000000000, 0.000000000000000000, 0.000000000000000000 ) ) ;
#582 = ORIENTED_EDGE ( 'NONE', *, *, #1043, .T. ) ;
#583 = ORIENTED_EDGE ( 'NONE', *, *, #1153, .F. ) ;
#584 = AXIS2_PLACEMENT_3D ( 'NONE', #37, #1021, #962 ) ;
#585 = CARTESIAN_POINT ( 'NONE',  ( 8.963999999999995083, 0.01499999999999835666, -0.05999999999999990757 ) ) ;
#586 = ADVANCED_FACE ( 'NONE', ( #799 ), #707, .T. ) ;
#587 = DIRECTION ( 'NONE',  ( -0.000000000000000000, 0.000000000000000000, 1.000000000000000000 ) ) ;
#588 = ORIENTED_EDGE ( 'NONE', *, *, #918, .F. ) ;
#589 = VECTOR ( 'NONE', #42, 39.37007874015748143 ) ;
#590 = AXIS2_PLACEMENT_3D ( 'NONE', #640, #1200, #829 ) ;
#591 = ORIENTED_EDGE ( 'NONE', *, *, #48, .T. ) ;
#592 = CARTESIAN_POINT ( 'NONE',  ( -9.500000000000001776, 1.235000000000000320, -0.05999999999999999778 ) ) ;
#593 = CARTESIAN_POINT ( 'NONE',  ( -8.620000000000004547, -1.115000000000001767, 0.5700000000000003952 ) ) ;
#594 = ADVANCED_FACE ( 'NONE', ( #317 ), #812, .T. ) ;
#595 = ORIENTED_EDGE ( 'NONE', *, *, #910, .F. ) ;
#596 = SURFACE_STYLE_FILL_AREA ( #694 ) ;
#597 = DIRECTION ( 'NONE',  ( 0.000000000000000000, -3.354901044850848446E-15, -1.000000000000000000 ) ) ;
#598 = ORIENTED_EDGE ( 'NONE', *, *, #368, .T. ) ;
#599 = DIRECTION ( 'NONE',  ( 0.000000000000000000, 3.469013325287951321E-15, -1.000000000000000000 ) ) ;
#600 = DIRECTION ( 'NONE',  ( 1.000000000000000000, 0.000000000000000000, 0.000000000000000000 ) ) ;
#601 = ORIENTED_EDGE ( 'NONE', *, *, #998, .F. ) ;
#602 = DIRECTION ( 'NONE',  ( 0.000000000000000000, 3.469013325287950532E-15, 1.000000000000000000 ) ) ;
#603 = ADVANCED_FACE ( 'NONE', ( #295 ), #994, .F. ) ;
#604 = CARTESIAN_POINT ( 'NONE',  ( -8.620000000000004547, -1.114999999999999769, 6.829619984160658046E-17 ) ) ;
#605 = ORIENTED_EDGE ( 'NONE', *, *, #228, .F. ) ;
#606 = CARTESIAN_POINT ( 'NONE',  ( 9.119999999999995666, 0.6449999999999983524, -2.290000000000000480 ) ) ;
#607 = FACE_OUTER_BOUND ( 'NONE', #882, .T. ) ;
#608 = ORIENTED_EDGE ( 'NONE', *, *, #1173, .T. ) ;
#609 = CARTESIAN_POINT ( 'NONE',  ( 8.994524902869130756, 1.115000000000000213, 0.000000000000000000 ) ) ;
#610 = VECTOR ( 'NONE', #101, 39.37007874015748143 ) ;
#611 = PRODUCT_DEFINITION_SHAPE ( 'NONE', 'NONE',  #167 ) ;
#612 = VECTOR ( 'NONE', #892, 39.37007874015748143 ) ;
#613 = DIRECTION ( 'NONE',  ( 1.000000000000000000, 0.000000000000000000, 0.000000000000000000 ) ) ;
#614 = EDGE_CURVE ( 'NONE', #414, #3, #958, .T. ) ;
#615 = ORIENTED_EDGE ( 'NONE', *, *, #208, .F. ) ;
#616 = CARTESIAN_POINT ( 'NONE',  ( -8.974000000000003752, 0.01499999999999833758, -2.290000000000000480 ) ) ;
#617 = CYLINDRICAL_SURFACE ( 'NONE', #452, 0.1560000000000001941 ) ;
#618 = ORIENTED_EDGE ( 'NONE', *, *, #981, .F. ) ;
#619 = DIRECTION ( 'NONE',  ( 0.000000000000000000, 0.000000000000000000, 1.000000000000000000 ) ) ;
#620 = EDGE_LOOP ( 'NONE', ( #305, #1254, #626, #345 ) ) ;
#621 = LINE ( 'NONE', #915, #327 ) ;
#622 = CYLINDRICAL_SURFACE ( 'NONE', #407, 0.06000000000000004635 ) ;
#623 = ORIENTED_EDGE ( 'NONE', *, *, #677, .F. ) ;
#624 = DIRECTION ( 'NONE',  ( 1.000000000000000000, -4.823726151746280213E-32, 1.437814733507507200E-17 ) ) ;
#625 = CARTESIAN_POINT ( 'NONE',  ( 9.275999999999996248, 0.6449999999999983524, -2.290000000000000480 ) ) ;
#626 = ORIENTED_EDGE ( 'NONE', *, *, #758, .T. ) ;
#627 = CARTESIAN_POINT ( 'NONE',  ( 8.619999999999995666, 1.114999999999999991, -0.06000000000000020595 ) ) ;
#628 = CARTESIAN_POINT ( 'NONE',  ( -8.620000000000000995, 1.235000000000002318, 0.5699999999999999512 ) ) ;
#629 = EDGE_LOOP ( 'NONE', ( #1003, #1202, #492, #897 ) ) ;
#630 = EDGE_CURVE ( 'NONE', #448, #1258, #1129, .T. ) ;
#631 = LINE ( 'NONE', #1221, #11 ) ;
#632 = AXIS2_PLACEMENT_3D ( 'NONE', #1234, #364, #755 ) ;
#633 = ORIENTED_EDGE ( 'NONE', *, *, #951, .T. ) ;
#634 = AXIS2_PLACEMENT_3D ( 'NONE', #31, #209, #686 ) ;
#635 = AXIS2_PLACEMENT_3D ( 'NONE', #193, #587, #393 ) ;
#636 = PLANE ( 'NONE',  #939 ) ;
#637 = DIRECTION ( 'NONE',  ( 0.000000000000000000, -1.000000000000000000, 3.491481338843133750E-15 ) ) ;
#638 = ORIENTED_EDGE ( 'NONE', *, *, #900, .F. ) ;
#639 = EDGE_CURVE ( 'NONE', #1099, #1067, #631, .T. ) ;
#640 = CARTESIAN_POINT ( 'NONE',  ( -8.619999999999999218, 1.114999999999999991, -0.06000000000000021289 ) ) ;
#641 = EDGE_CURVE ( 'NONE', #880, #747, #742, .T. ) ;
#642 = PLANE ( 'NONE',  #1195 ) ;
#643 = ORIENTED_EDGE ( 'NONE', *, *, #1119, .T. ) ;
#644 = DIRECTION ( 'NONE',  ( -7.284927983104697498E-14, 0.000000000000000000, -1.000000000000000000 ) ) ;
#645 = EDGE_LOOP ( 'NONE', ( #588, #190, #562, #1267 ) ) ;
#646 = FACE_OUTER_BOUND ( 'NONE', #709, .T. ) ;
#647 = CARTESIAN_POINT ( 'NONE',  ( -8.619999999999999218, 1.175000000000000266, -4.143302790390798919E-15 ) ) ;
#648 = VERTEX_POINT ( 'NONE', #45 ) ;
#649 = CARTESIAN_POINT ( 'NONE',  ( -8.974000000000003752, -0.6050000000000017586, -0.05999999999999990757 ) ) ;
#650 = VERTEX_POINT ( 'NONE', #932 ) ;
#651 = CARTESIAN_POINT ( 'NONE',  ( 9.245475097130860576, 1.114999999999999769, -0.06000000000000020595 ) ) ;
#652 = FACE_OUTER_BOUND ( 'NONE', #776, .T. ) ;
#653 = CIRCLE ( 'NONE', #113, 0.1560000000000001941 ) ;
#654 = ORIENTED_EDGE ( 'NONE', *, *, #981, .T. ) ;
#655 = VECTOR ( 'NONE', #28, 39.37007874015748143 ) ;
#656 = ADVANCED_FACE ( 'NONE', ( #51 ), #232, .T. ) ;
#657 = PRESENTATION_LAYER_ASSIGNMENT (  '', '', ( #752 ) ) ;
#658 = CIRCLE ( 'NONE', #1100, 0.06000000000000005329 ) ;
#659 = FACE_OUTER_BOUND ( 'NONE', #128, .T. ) ;
#660 = EDGE_LOOP ( 'NONE', ( #1184, #1006, #41, #188, #61, #798 ) ) ;
#661 = CARTESIAN_POINT ( 'NONE',  ( 9.119999999999995666, 0.01499999999999833758, -0.05999999999999990757 ) ) ;
#662 = CYLINDRICAL_SURFACE ( 'NONE', #975, 0.1560000000000001941 ) ;
#663 = EDGE_CURVE ( 'NONE', #556, #747, #554, .T. ) ;
#664 = PLANE ( 'NONE',  #221 ) ;
#665 = CARTESIAN_POINT ( 'NONE',  ( -9.130000000000002558, 0.6449999999999983524, 0.000000000000000000 ) ) ;
#666 = DIRECTION ( 'NONE',  ( 1.000000000000000000, 0.000000000000000000, 0.000000000000000000 ) ) ;
#667 = DIRECTION ( 'NONE',  ( 1.000000000000000000, 0.000000000000000000, 0.000000000000000000 ) ) ;
#668 = DIRECTION ( 'NONE',  ( 0.000000000000000000, 3.469013325287951321E-15, -1.000000000000000000 ) ) ;
#669 = VERTEX_POINT ( 'NONE', #455 ) ;
#670 = VECTOR ( 'NONE', #115, 39.37007874015748143 ) ;
#671 = DIRECTION ( 'NONE',  ( -0.000000000000000000, -0.000000000000000000, 1.000000000000000000 ) ) ;
#672 = CARTESIAN_POINT ( 'NONE',  ( 8.619999999999995666, -1.114999999999999769, 6.829619984160658046E-17 ) ) ;
#673 = CIRCLE ( 'NONE', #814, 0.1200000000000000511 ) ;
#674 = DIRECTION ( 'NONE',  ( 0.000000000000000000, 1.000000000000000000, 3.491481338843134539E-15 ) ) ;
#675 = EDGE_LOOP ( 'NONE', ( #1041, #804, #502, #398 ) ) ;
#676 = ADVANCED_FACE ( 'NONE', ( #646 ), #447, .F. ) ;
#677 = EDGE_CURVE ( 'NONE', #108, #727, #39, .T. ) ;
#678 = ORIENTED_EDGE ( 'NONE', *, *, #362, .T. ) ;
#679 = CYLINDRICAL_SURFACE ( 'NONE', #217, 0.1199999999999999539 ) ;
#680 = FACE_OUTER_BOUND ( 'NONE', #576, .T. ) ;
#681 = EDGE_LOOP ( 'NONE', ( #618, #259, #784, #375 ) ) ;
#682 = EDGE_CURVE ( 'NONE', #105, #1206, #161, .T. ) ;
#683 = ORIENTED_EDGE ( 'NONE', *, *, #116, .F. ) ;
#684 = DIRECTION ( 'NONE',  ( 0.000000000000000000, 0.000000000000000000, 1.000000000000000000 ) ) ;
#685 = ORIENTED_EDGE ( 'NONE', *, *, #177, .T. ) ;
#686 = DIRECTION ( 'NONE',  ( 0.000000000000000000, 3.469013325287951321E-15, -1.000000000000000000 ) ) ;
#687 = ORIENTED_EDGE ( 'NONE', *, *, #1263, .T. ) ;
#688 = EDGE_CURVE ( 'NONE', #1224, #948, #459, .T. ) ;
#689 = CARTESIAN_POINT ( 'NONE',  ( 9.499999999999994671, -1.114999999999999769, 6.829619984160658046E-17 ) ) ;
#690 = CARTESIAN_POINT ( 'NONE',  ( -8.620000000000004547, -1.235000000000001652, 0.5699999999999999512 ) ) ;
#691 = ORIENTED_EDGE ( 'NONE', *, *, #503, .F. ) ;
#692 = VECTOR ( 'NONE', #985, 39.37007874015748143 ) ;
#693 = VECTOR ( 'NONE', #1182, 39.37007874015748143 ) ;
#694 = FILL_AREA_STYLE ('',( #301 ) ) ;
#695 = VECTOR ( 'NONE', #1155, 39.37007874015748143 ) ;
#696 = CARTESIAN_POINT ( 'NONE',  ( 9.119999999999995666, 1.206000000000000405, -0.1100000000000003475 ) ) ;
#697 = ORIENTED_EDGE ( 'NONE', *, *, #437, .T. ) ;
#698 = DIRECTION ( 'NONE',  ( 8.087894779578938540E-30, 0.000000000000000000, -1.000000000000000000 ) ) ;
#699 = CARTESIAN_POINT ( 'NONE',  ( 9.275999999999996248, 0.01499999999999833758, 0.000000000000000000 ) ) ;
#700 = VERTEX_POINT ( 'NONE', #937 ) ;
#701 = LINE ( 'NONE', #218, #1057 ) ;
#702 = ORIENTED_EDGE ( 'NONE', *, *, #228, .T. ) ;
#703 = DIRECTION ( 'NONE',  ( -0.000000000000000000, -0.000000000000000000, 1.000000000000000000 ) ) ;
#704 = LINE ( 'NONE', #419, #508 ) ;
#705 = ORIENTED_EDGE ( 'NONE', *, *, #276, .T. ) ;
#706 = EDGE_CURVE ( 'NONE', #10, #1206, #58, .T. ) ;
#707 = PLANE ( 'NONE',  #634 ) ;
#708 = CARTESIAN_POINT ( 'NONE',  ( -9.286000000000003141, 0.01499999999999835666, 0.000000000000000000 ) ) ;
#709 = EDGE_LOOP ( 'NONE', ( #1180, #845, #204, #386 ) ) ;
#710 = DIRECTION ( 'NONE',  ( 1.000000000000000000, 0.000000000000000000, 0.000000000000000000 ) ) ;
#711 = FACE_OUTER_BOUND ( 'NONE', #247, .T. ) ;
#712 = ORIENTED_EDGE ( 'NONE', *, *, #410, .F. ) ;
#713 = MECHANICAL_DESIGN_GEOMETRIC_PRESENTATION_REPRESENTATION (  '', ( #752 ), #140 ) ;
#714 = ADVANCED_FACE ( 'NONE', ( #535 ), #441, .F. ) ;
#715 = AXIS2_PLACEMENT_3D ( 'NONE', #901, #213, #491 ) ;
#716 = DIRECTION ( 'NONE',  ( -1.000000000000000000, 0.000000000000000000, 0.000000000000000000 ) ) ;
#717 = VECTOR ( 'NONE', #671, 39.37007874015748143 ) ;
#718 = ORIENTED_EDGE ( 'NONE', *, *, #1084, .T. ) ;
#719 = FACE_OUTER_BOUND ( 'NONE', #1025, .T. ) ;
#720 = ORIENTED_EDGE ( 'NONE', *, *, #560, .T. ) ;
#721 = DIRECTION ( 'NONE',  ( 1.000000000000000000, -0.000000000000000000, -0.000000000000000000 ) ) ;
#722 = DIRECTION ( 'NONE',  ( 0.000000000000000000, 0.000000000000000000, -1.000000000000000000 ) ) ;
#723 = ORIENTED_EDGE ( 'NONE', *, *, #315, .T. ) ;
#724 = EDGE_CURVE ( 'NONE', #279, #299, #1214, .T. ) ;
#725 = CARTESIAN_POINT ( 'NONE',  ( 8.619999999999995666, -1.235000000000001652, 0.5699999999999999512 ) ) ;
#726 = DIRECTION ( 'NONE',  ( -0.000000000000000000, -0.000000000000000000, 1.000000000000000000 ) ) ;
#727 = VERTEX_POINT ( 'NONE', #746 ) ;
#728 = DIRECTION ( 'NONE',  ( 0.000000000000000000, -3.354901044850848446E-15, -1.000000000000000000 ) ) ;
#729 = EDGE_LOOP ( 'NONE', ( #340, #608, #1186, #643 ) ) ;
#730 = DIRECTION ( 'NONE',  ( -0.000000000000000000, -0.000000000000000000, 1.000000000000000000 ) ) ;
#731 = EDGE_CURVE ( 'NONE', #790, #408, #150, .T. ) ;
#732 = CARTESIAN_POINT ( 'NONE',  ( 0.000000000000000000, 1.115000000000000213, -3.881643331348517380E-15 ) ) ;
#733 = EDGE_LOOP ( 'NONE', ( #1033, #480, #973, #1197 ) ) ;
#734 = CARTESIAN_POINT ( 'NONE',  ( 8.619999999999995666, 1.114999999999999991, -0.06000000000000020595 ) ) ;
#735 = VECTOR ( 'NONE', #1000, 39.37007874015748143 ) ;
#736 = VECTOR ( 'NONE', #258, 39.37007874015748143 ) ;
#737 = ORIENTED_EDGE ( 'NONE', *, *, #1263, .F. ) ;
#738 = AXIS2_PLACEMENT_3D ( 'NONE', #756, #866, #761 ) ;
#739 = AXIS2_PLACEMENT_3D ( 'NONE', #141, #453, #520 ) ;
#740 = PLANE ( 'NONE',  #1199 ) ;
#741 = DIRECTION ( 'NONE',  ( 1.000000000000000000, 0.000000000000000000, 0.000000000000000000 ) ) ;
#742 = LINE ( 'NONE', #1023, #736 ) ;
#743 = VERTEX_POINT ( 'NONE', #1134 ) ;
#744 = CARTESIAN_POINT ( 'NONE',  ( 8.619999999999995666, 1.235000000000002318, 0.5699999999999999512 ) ) ;
#745 = VERTEX_POINT ( 'NONE', #651 ) ;
#746 = CARTESIAN_POINT ( 'NONE',  ( -9.500000000000003553, -1.114999999999999769, 6.829619984160658046E-17 ) ) ;
#747 = VERTEX_POINT ( 'NONE', #332 ) ;
#748 = FACE_BOUND ( 'NONE', #33, .T. ) ;
#749 = CARTESIAN_POINT ( 'NONE',  ( 0.000000000000000000, 1.115000000000000213, -3.881643331348517380E-15 ) ) ;
#750 = LINE ( 'NONE', #922, #891 ) ;
#751 = EDGE_CURVE ( 'NONE', #10, #194, #1107, .T. ) ;
#752 = STYLED_ITEM ( 'NONE', ( #805 ), #566 ) ;
#753 = AXIS2_PLACEMENT_3D ( 'NONE', #661, #846, #1247 ) ;
#754 = CARTESIAN_POINT ( 'NONE',  ( -9.499999999999998224, 1.115000000000000435, -0.06000000000000020595 ) ) ;
#755 = DIRECTION ( 'NONE',  ( 1.000000000000000000, 0.000000000000000000, 0.000000000000000000 ) ) ;
#756 = CARTESIAN_POINT ( 'NONE',  ( -9.130000000000002558, 0.01499999999999833758, -2.290000000000000480 ) ) ;
#757 = EDGE_LOOP ( 'NONE', ( #1154, #591, #545, #1018 ) ) ;
#758 = EDGE_CURVE ( 'NONE', #669, #984, #348, .T. ) ;
#759 = PLANE ( 'NONE',  #572 ) ;
#760 = LINE ( 'NONE', #192, #1022 ) ;
#761 = DIRECTION ( 'NONE',  ( 1.000000000000000000, 0.000000000000000000, 0.000000000000000000 ) ) ;
#762 =( NAMED_UNIT ( * ) PLANE_ANGLE_UNIT ( ) SI_UNIT ( $, .RADIAN. ) );
#763 = CARTESIAN_POINT ( 'NONE',  ( -9.500000000000000000, 1.115000000000000213, -2.048885995248197414E-16 ) ) ;
#764 = EDGE_CURVE ( 'NONE', #974, #10, #170, .T. ) ;
#765 = LINE ( 'NONE', #474, #59 ) ;
#766 = EDGE_CURVE ( 'NONE', #779, #987, #328, .T. ) ;
#767 = EDGE_LOOP ( 'NONE', ( #527, #633, #1072, #547 ) ) ;
#768 = EDGE_LOOP ( 'NONE', ( #720, #931, #63, #598 ) ) ;
#769 = VECTOR ( 'NONE', #878, 39.37007874015748143 ) ;
#770 = VECTOR ( 'NONE', #151, 39.37007874015748143 ) ;
#771 = DIRECTION ( 'NONE',  ( -1.000000000000000000, -4.823726151746282950E-32, -1.437814733507507817E-17 ) ) ;
#772 = CARTESIAN_POINT ( 'NONE',  ( -9.499999999999998224, 1.115000000000000435, 0.05999999999999983125 ) ) ;
#773 = AXIS2_PLACEMENT_3D ( 'NONE', #175, #570, #861 ) ;
#774 = DIRECTION ( 'NONE',  ( 0.000000000000000000, 3.469013325287949743E-15, 1.000000000000000000 ) ) ;
#775 = VECTOR ( 'NONE', #637, 39.37007874015748143 ) ;
#776 = EDGE_LOOP ( 'NONE', ( #997, #623, #537, #909 ) ) ;
#777 = ORIENTED_EDGE ( 'NONE', *, *, #641, .T. ) ;
#778 = CARTESIAN_POINT ( 'NONE',  ( 9.119999999999995666, 0.6449999999999983524, -2.290000000000000480 ) ) ;
#779 = VERTEX_POINT ( 'NONE', #463 ) ;
#780 = ADVANCED_FACE ( 'NONE', ( #361 ), #564, .T. ) ;
#781 = EDGE_LOOP ( 'NONE', ( #6, #499, #691, #284 ) ) ;
#782 = FACE_OUTER_BOUND ( 'NONE', #681, .T. ) ;
#783 = FACE_OUTER_BOUND ( 'NONE', #993, .T. ) ;
#784 = ORIENTED_EDGE ( 'NONE', *, *, #766, .T. ) ;
#785 = FACE_OUTER_BOUND ( 'NONE', #241, .T. ) ;
#786 = EDGE_LOOP ( 'NONE', ( #927, #20, #253, #1262 ) ) ;
#787 = DIRECTION ( 'NONE',  ( -0.000000000000000000, -3.469013325287950532E-15, -1.000000000000000000 ) ) ;
#788 = CIRCLE ( 'NONE', #174, 0.1560000000000001941 ) ;
#789 = DIRECTION ( 'NONE',  ( 1.000000000000000000, -0.000000000000000000, 0.000000000000000000 ) ) ;
#790 = VERTEX_POINT ( 'NONE', #370 ) ;
#791 = VECTOR ( 'NONE', #1116, 39.37007874015748143 ) ;
#792 = DIRECTION ( 'NONE',  ( -0.000000000000000000, -0.000000000000000000, 1.000000000000000000 ) ) ;
#793 = CARTESIAN_POINT ( 'NONE',  ( -8.620000000000004547, -1.115000000000001767, 0.5700000000000003952 ) ) ;
#794 = ORIENTED_EDGE ( 'NONE', *, *, #1216, .T. ) ;
#795 = DIRECTION ( 'NONE',  ( 0.000000000000000000, -1.000000000000000000, -3.343668117245323456E-15 ) ) ;
#796 = EDGE_CURVE ( 'NONE', #648, #987, #765, .T. ) ;
#797 = DIRECTION ( 'NONE',  ( 1.000000000000000000, 0.000000000000000000, 0.000000000000000000 ) ) ;
#798 = ORIENTED_EDGE ( 'NONE', *, *, #334, .F. ) ;
#799 = FACE_OUTER_BOUND ( 'NONE', #1136, .T. ) ;
#800 = DIRECTION ( 'NONE',  ( -0.000000000000000000, -3.469013325287951321E-15, 1.000000000000000000 ) ) ;
#801 = ORIENTED_EDGE ( 'NONE', *, *, #1239, .F. ) ;
#802 = LINE ( 'NONE', #322, #612 ) ;
#803 = ADVANCED_FACE ( 'NONE', ( #70 ), #664, .F. ) ;
#804 = ORIENTED_EDGE ( 'NONE', *, *, #71, .F. ) ;
#805 = PRESENTATION_STYLE_ASSIGNMENT (( #1004 ) ) ;
#806 = EDGE_CURVE ( 'NONE', #990, #521, #658, .T. ) ;
#807 = CARTESIAN_POINT ( 'NONE',  ( 8.963999999999995083, 0.6449999999999983524, -0.05999999999999990757 ) ) ;
#808 = ORIENTED_EDGE ( 'NONE', *, *, #724, .F. ) ;
#809 = CARTESIAN_POINT ( 'NONE',  ( 9.119999999999995666, -0.6050000000000017586, 0.000000000000000000 ) ) ;
#810 = LINE ( 'NONE', #908, #960 ) ;
#811 = ORIENTED_EDGE ( 'NONE', *, *, #560, .F. ) ;
#812 = PLANE ( 'NONE',  #77 ) ;
#813 = AXIS2_PLACEMENT_3D ( 'NONE', #696, #494, #1005 ) ;
#814 = AXIS2_PLACEMENT_3D ( 'NONE', #5, #400, #513 ) ;
#815 = EDGE_CURVE ( 'NONE', #152, #290, #941, .T. ) ;
#816 = CARTESIAN_POINT ( 'NONE',  ( -8.620000000000002771, -1.114999999999999769, 0.06000000000000010186 ) ) ;
#817 = AXIS2_PLACEMENT_3D ( 'NONE', #732, #237, #1027 ) ;
#818 = ORIENTED_EDGE ( 'NONE', *, *, #91, .T. ) ;
#819 = CYLINDRICAL_SURFACE ( 'NONE', #959, 0.1560000000000001941 ) ;
#820 = DIRECTION ( 'NONE',  ( 0.000000000000000000, 0.000000000000000000, 1.000000000000000000 ) ) ;
#821 = CARTESIAN_POINT ( 'NONE',  ( 9.499999999999991118, 1.115000000000000435, -2.048885995248197414E-16 ) ) ;
#822 = DIRECTION ( 'NONE',  ( 1.000000000000000000, 0.000000000000000000, 0.000000000000000000 ) ) ;
#823 = DIRECTION ( 'NONE',  ( 0.000000000000000000, 0.000000000000000000, 1.000000000000000000 ) ) ;
#824 = EDGE_CURVE ( 'NONE', #984, #669, #119, .T. ) ;
#825 = ORIENTED_EDGE ( 'NONE', *, *, #858, .T. ) ;
#826 = DIRECTION ( 'NONE',  ( -0.000000000000000000, 1.000000000000000000, -0.000000000000000000 ) ) ;
#827 = CARTESIAN_POINT ( 'NONE',  ( -9.130000000000002558, 1.206000000000000405, -0.1100000000000003475 ) ) ;
#828 = VERTEX_POINT ( 'NONE', #92 ) ;
#829 = DIRECTION ( 'NONE',  ( -0.000000000000000000, 0.000000000000000000, -1.000000000000000000 ) ) ;
#830 = DIRECTION ( 'NONE',  ( 0.000000000000000000, 0.000000000000000000, 1.000000000000000000 ) ) ;
#831 = ORIENTED_EDGE ( 'NONE', *, *, #764, .T. ) ;
#832 = ADVANCED_FACE ( 'NONE', ( #680 ), #478, .F. ) ;
#833 = CARTESIAN_POINT ( 'NONE',  ( -9.130000000000002558, 0.6449999999999983524, -0.05999999999999990757 ) ) ;
#834 = ORIENTED_EDGE ( 'NONE', *, *, #1153, .T. ) ;
#835 = CARTESIAN_POINT ( 'NONE',  ( -9.500000000000003553, -1.114999999999999547, -0.05999999999999992145 ) ) ;
#836 = AXIS2_PLACEMENT_3D ( 'NONE', #1029, #254, #435 ) ;
#837 = VERTEX_POINT ( 'NONE', #271 ) ;
#838 = AXIS2_PLACEMENT_3D ( 'NONE', #309, #1167, #224 ) ;
#839 = AXIS2_PLACEMENT_3D ( 'NONE', #827, #55, #252 ) ;
#840 = CARTESIAN_POINT ( 'NONE',  ( -9.286000000000003141, 0.6449999999999983524, -0.05999999999999990757 ) ) ;
#841 = DIRECTION ( 'NONE',  ( 1.000000000000000000, 0.000000000000000000, 0.000000000000000000 ) ) ;
#842 = DIRECTION ( 'NONE',  ( 0.000000000000000000, -1.000000000000000000, -3.354901044850848446E-15 ) ) ;
#843 = ORIENTED_EDGE ( 'NONE', *, *, #99, .T. ) ;
#844 = CARTESIAN_POINT ( 'NONE',  ( 0.000000000000000000, 0.000000000000000000, -0.05999999999999999778 ) ) ;
#845 = ORIENTED_EDGE ( 'NONE', *, *, #1239, .T. ) ;
#846 = DIRECTION ( 'NONE',  ( -0.000000000000000000, 0.000000000000000000, 1.000000000000000000 ) ) ;
#847 = LINE ( 'NONE', #558, #283 ) ;
#848 = CARTESIAN_POINT ( 'NONE',  ( 8.619999999999993889, 1.115000000000000435, 0.05999999999999983125 ) ) ;
#849 = CARTESIAN_POINT ( 'NONE',  ( 8.619999999999993889, 1.115000000000000435, 0.05999999999999983125 ) ) ;
#850 = EDGE_CURVE ( 'NONE', #917, #990, #1253, .T. ) ;
#851 = ORIENTED_EDGE ( 'NONE', *, *, #1035, .T. ) ;
#852 = AXIS2_PLACEMENT_3D ( 'NONE', #413, #1002, #1098 ) ;
#853 = DIRECTION ( 'NONE',  ( -0.000000000000000000, -0.000000000000000000, 1.000000000000000000 ) ) ;
#854 = DIRECTION ( 'NONE',  ( 1.000000000000000000, 0.000000000000000000, 0.000000000000000000 ) ) ;
#855 = CARTESIAN_POINT ( 'NONE',  ( 9.275999999999996248, -0.6050000000000017586, 0.000000000000000000 ) ) ;
#856 = CARTESIAN_POINT ( 'NONE',  ( -8.974000000000003752, 0.01499999999999833758, 0.000000000000000000 ) ) ;
#857 = ADVANCED_FACE ( 'NONE', ( #265 ), #380, .F. ) ;
#858 = EDGE_CURVE ( 'NONE', #238, #917, #487, .T. ) ;
#859 =( LENGTH_UNIT ( ) NAMED_UNIT ( * ) SI_UNIT ( $, .METRE. ) );
#860 = CARTESIAN_POINT ( 'NONE',  ( 9.119999999999995666, 1.206000000000000405, -0.05999999999999999778 ) ) ;
#861 = DIRECTION ( 'NONE',  ( 1.000000000000000000, 0.000000000000000000, 0.000000000000000000 ) ) ;
#862 = ORIENTED_EDGE ( 'NONE', *, *, #898, .F. ) ;
#863 = CARTESIAN_POINT ( 'NONE',  ( 0.000000000000000000, -1.114999999999999769, -3.881643331348517380E-15 ) ) ;
#864 = DIRECTION ( 'NONE',  ( -0.000000000000000000, 0.000000000000000000, 1.000000000000000000 ) ) ;
#865 = FACE_OUTER_BOUND ( 'NONE', #149, .T. ) ;
#866 = DIRECTION ( 'NONE',  ( -0.000000000000000000, -0.000000000000000000, 1.000000000000000000 ) ) ;
#867 = VERTEX_POINT ( 'NONE', #187 ) ;
#868 = FACE_OUTER_BOUND ( 'NONE', #885, .T. ) ;
#869 = VERTEX_POINT ( 'NONE', #855 ) ;
#870 = AXIS2_PLACEMENT_3D ( 'NONE', #896, #319, #597 ) ;
#871 = DIRECTION ( 'NONE',  ( 0.000000000000000000, 0.000000000000000000, 1.000000000000000000 ) ) ;
#872 = AXIS2_PLACEMENT_3D ( 'NONE', #75, #1060, #1147 ) ;
#873 = CARTESIAN_POINT ( 'NONE',  ( 9.119999999999995666, 0.6449999999999983524, -0.05999999999999990757 ) ) ;
#874 = VECTOR ( 'NONE', #853, 39.37007874015748143 ) ;
#875 = EDGE_CURVE ( 'NONE', #124, #214, #38, .T. ) ;
#876 = EDGE_LOOP ( 'NONE', ( #1133, #296, #1264, #225, #811, #353, #102, #159, #117, #1081, #479, #475 ) ) ;
#877 = ORIENTED_EDGE ( 'NONE', *, *, #764, .F. ) ;
#878 = DIRECTION ( 'NONE',  ( -1.000000000000000000, 0.000000000000000000, 0.000000000000000000 ) ) ;
#879 = DIRECTION ( 'NONE',  ( 1.000000000000000000, 0.000000000000000000, 0.000000000000000000 ) ) ;
#880 = VERTEX_POINT ( 'NONE', #1235 ) ;
#881 = DIRECTION ( 'NONE',  ( -0.000000000000000000, 0.000000000000000000, -1.000000000000000000 ) ) ;
#882 = EDGE_LOOP ( 'NONE', ( #947, #982, #255, #687 ) ) ;
#883 = DIRECTION ( 'NONE',  ( 1.000000000000000000, -0.000000000000000000, -0.000000000000000000 ) ) ;
#884 = DIRECTION ( 'NONE',  ( 0.000000000000000000, 0.000000000000000000, 1.000000000000000000 ) ) ;
#885 = EDGE_LOOP ( 'NONE', ( #17, #1125, #288, #316 ) ) ;
#886 = CARTESIAN_POINT ( 'NONE',  ( -8.619999999999999218, 1.235000000000000320, -4.352791670721387236E-15 ) ) ;
#887 = EDGE_CURVE ( 'NONE', #214, #124, #1237, .T. ) ;
#888 = VERTEX_POINT ( 'NONE', #374 ) ;
#889 = VECTOR ( 'NONE', #907, 39.37007874015748143 ) ;
#890 = CARTESIAN_POINT ( 'NONE',  ( -8.620000000000002771, -1.114999999999999769, 0.06000000000000010186 ) ) ;
#891 = VECTOR ( 'NONE', #442, 39.37007874015748143 ) ;
#892 = DIRECTION ( 'NONE',  ( -0.000000000000000000, -0.000000000000000000, 1.000000000000000000 ) ) ;
#893 = ORIENTED_EDGE ( 'NONE', *, *, #460, .T. ) ;
#894 = AXIS2_PLACEMENT_3D ( 'NONE', #540, #919, #278 ) ;
#895 = CARTESIAN_POINT ( 'NONE',  ( 8.963999999999995083, 0.01499999999999835666, -2.290000000000000480 ) ) ;
#896 = CARTESIAN_POINT ( 'NONE',  ( 0.000000000000000000, 1.235000000000000320, -4.352791670721387236E-15 ) ) ;
#897 = ORIENTED_EDGE ( 'NONE', *, *, #493, .F. ) ;
#898 = EDGE_CURVE ( 'NONE', #1249, #1189, #13, .T. ) ;
#899 = FACE_OUTER_BOUND ( 'NONE', #902, .T. ) ;
#900 = EDGE_CURVE ( 'NONE', #408, #539, #196, .T. ) ;
#901 = CARTESIAN_POINT ( 'NONE',  ( 9.119999999999995666, -0.6050000000000017586, 0.000000000000000000 ) ) ;
#902 = EDGE_LOOP ( 'NONE', ( #914, #376, #443, #831 ) ) ;
#903 =( CONVERSION_BASED_UNIT ( 'INCH', #1086 ) LENGTH_UNIT ( ) NAMED_UNIT ( #906 ) );
#904 = LINE ( 'NONE', #107, #1220 ) ;
#905 = ORIENTED_EDGE ( 'NONE', *, *, #427, .F. ) ;
#906 = DIMENSIONAL_EXPONENTS ( 1.000000000000000000, 0.000000000000000000, 0.000000000000000000, 0.000000000000000000, 0.000000000000000000, 0.000000000000000000, 0.000000000000000000 ) ;
#907 = DIRECTION ( 'NONE',  ( -0.000000000000000000, -0.000000000000000000, 1.000000000000000000 ) ) ;
#908 = CARTESIAN_POINT ( 'NONE',  ( -8.619999999999999218, 1.235000000000000542, 0.05999999999999929695 ) ) ;
#909 = ORIENTED_EDGE ( 'NONE', *, *, #289, .T. ) ;
#910 = EDGE_CURVE ( 'NONE', #880, #743, #673, .T. ) ;
#911 = CARTESIAN_POINT ( 'NONE',  ( -3.324962815188313348E-31, 1.115000000000000213, -3.881643331348518169E-15 ) ) ;
#912 = DIRECTION ( 'NONE',  ( 0.000000000000000000, 0.000000000000000000, 1.000000000000000000 ) ) ;
#913 = DIRECTION ( 'NONE',  ( 1.000000000000000000, 0.000000000000000000, 0.000000000000000000 ) ) ;
#914 = ORIENTED_EDGE ( 'NONE', *, *, #751, .T. ) ;
#915 = CARTESIAN_POINT ( 'NONE',  ( 9.499999999999998224, 1.235000000000000320, 0.000000000000000000 ) ) ;
#916 = PLANE ( 'NONE',  #817 ) ;
#917 = VERTEX_POINT ( 'NONE', #110 ) ;
#918 = EDGE_CURVE ( 'NONE', #93, #1206, #1188, .T. ) ;
#919 = DIRECTION ( 'NONE',  ( 0.000000000000000000, 0.000000000000000000, 1.000000000000000000 ) ) ;
#920 = VECTOR ( 'NONE', #1080, 39.37007874015748143 ) ;
#921 = CIRCLE ( 'NONE', #852, 0.1560000000000001941 ) ;
#922 = CARTESIAN_POINT ( 'NONE',  ( -8.626888401045627722E-19, -1.235000000000000098, 0.05999999999999971328 ) ) ;
#923 = CIRCLE ( 'NONE', #510, 0.1560000000000001941 ) ;
#924 = EDGE_LOOP ( 'NONE', ( #965, #1009, #794, #825 ) ) ;
#925 = FACE_OUTER_BOUND ( 'NONE', #1171, .T. ) ;
#926 = DIRECTION ( 'NONE',  ( 1.000000000000000000, 0.000000000000000000, 0.000000000000000000 ) ) ;
#927 = ORIENTED_EDGE ( 'NONE', *, *, #157, .T. ) ;
#928 = DIRECTION ( 'NONE',  ( 1.000000000000000000, 0.000000000000000000, 0.000000000000000000 ) ) ;
#929 = ORIENTED_EDGE ( 'NONE', *, *, #824, .F. ) ;
#930 = CARTESIAN_POINT ( 'NONE',  ( -9.499999999999994671, -1.114999999999999769, 6.829619984160658046E-17 ) ) ;
#931 = ORIENTED_EDGE ( 'NONE', *, *, #484, .T. ) ;
#932 = CARTESIAN_POINT ( 'NONE',  ( -8.974000000000003752, 0.01499999999999833758, -0.05999999999999990757 ) ) ;
#933 = ORIENTED_EDGE ( 'NONE', *, *, #875, .T. ) ;
#934 = EDGE_CURVE ( 'NONE', #219, #945, #15, .T. ) ;
#935 = DIRECTION ( 'NONE',  ( 0.000000000000000000, 0.000000000000000000, 1.000000000000000000 ) ) ;
#936 = CARTESIAN_POINT ( 'NONE',  ( 9.119999999999995666, -0.6050000000000017586, -0.05999999999999990757 ) ) ;
#937 = CARTESIAN_POINT ( 'NONE',  ( -9.004524902869139424, 1.115000000000000435, -2.048885995248197414E-16 ) ) ;
#938 = AXIS2_PLACEMENT_3D ( 'NONE', #809, #307, #710 ) ;
#939 = AXIS2_PLACEMENT_3D ( 'NONE', #1026, #147, #525 ) ;
#940 = ORIENTED_EDGE ( 'NONE', *, *, #1252, .F. ) ;
#941 = CIRCLE ( 'NONE', #143, 0.1549999999999998601 ) ;
#942 = CIRCLE ( 'NONE', #223, 0.1560000000000001941 ) ;
#943 = ADVANCED_FACE ( 'NONE', ( #783 ), #1266, .F. ) ;
#944 = FACE_BOUND ( 'NONE', #542, .T. ) ;
#945 = VERTEX_POINT ( 'NONE', #1008 ) ;
#946 = CARTESIAN_POINT ( 'NONE',  ( -9.130000000000002558, -0.6050000000000017586, 0.000000000000000000 ) ) ;
#947 = ORIENTED_EDGE ( 'NONE', *, *, #1230, .F. ) ;
#948 = VERTEX_POINT ( 'NONE', #1176 ) ;
#949 = CARTESIAN_POINT ( 'NONE',  ( 8.963999999999995083, -0.6050000000000017586, -0.05999999999999990757 ) ) ;
#950 = DIRECTION ( 'NONE',  ( 0.000000000000000000, 0.000000000000000000, 1.000000000000000000 ) ) ;
#951 = EDGE_CURVE ( 'NONE', #837, #1036, #704, .T. ) ;
#952 = ORIENTED_EDGE ( 'NONE', *, *, #191, .T. ) ;
#953 = CARTESIAN_POINT ( 'NONE',  ( 0.000000000000000000, 0.000000000000000000, 0.000000000000000000 ) ) ;
#954 = CARTESIAN_POINT ( 'NONE',  ( 0.000000000000000000, -1.235000000000001652, 0.5699999999999999512 ) ) ;
#955 = AXIS2_PLACEMENT_3D ( 'NONE', #860, #971, #1049 ) ;
#956 = EDGE_CURVE ( 'NONE', #108, #888, #1077, .T. ) ;
#957 = AXIS2_PLACEMENT_3D ( 'NONE', #378, #967, #1246 ) ;
#958 = CIRCLE ( 'NONE', #347, 0.1560000000000001941 ) ;
#959 = AXIS2_PLACEMENT_3D ( 'NONE', #229, #132, #235 ) ;
#960 = VECTOR ( 'NONE', #1032, 39.37007874015748143 ) ;
#961 = DIRECTION ( 'NONE',  ( 1.000000000000000000, 0.000000000000000000, 0.000000000000000000 ) ) ;
#962 = DIRECTION ( 'NONE',  ( 1.000000000000000000, 0.000000000000000000, 0.000000000000000000 ) ) ;
#963 = AXIS2_PLACEMENT_3D ( 'NONE', #665, #472, #363 ) ;
#964 = DIRECTION ( 'NONE',  ( 1.000000000000000000, -0.000000000000000000, -0.000000000000000000 ) ) ;
#965 = ORIENTED_EDGE ( 'NONE', *, *, #850, .T. ) ;
#966 = LINE ( 'NONE', #72, #1024 ) ;
#967 = DIRECTION ( 'NONE',  ( -0.000000000000000000, 0.000000000000000000, 1.000000000000000000 ) ) ;
#968 = DIRECTION ( 'NONE',  ( 0.000000000000000000, 1.000000000000000000, -3.491481338843133750E-15 ) ) ;
#969 = ORIENTED_EDGE ( 'NONE', *, *, #934, .T. ) ;
#970 = EDGE_LOOP ( 'NONE', ( #862, #331, #952, #231 ) ) ;
#971 = DIRECTION ( 'NONE',  ( -0.000000000000000000, 0.000000000000000000, 1.000000000000000000 ) ) ;
#972 = CARTESIAN_POINT ( 'NONE',  ( -9.499999999999998224, 1.115000000000000435, -2.048885995248197414E-16 ) ) ;
#973 = ORIENTED_EDGE ( 'NONE', *, *, #397, .T. ) ;
#974 = VERTEX_POINT ( 'NONE', #104 ) ;
#975 = AXIS2_PLACEMENT_3D ( 'NONE', #1149, #270, #854 ) ;
#976 = AXIS2_PLACEMENT_3D ( 'NONE', #1102, #523, #912 ) ;
#977 = CARTESIAN_POINT ( 'NONE',  ( -8.619999999999999218, 1.175000000000000488, 0.05999999999999949818 ) ) ;
#978 = AXIS2_PLACEMENT_3D ( 'NONE', #498, #884, #1162 ) ;
#979 = DIRECTION ( 'NONE',  ( 0.000000000000000000, 1.000000000000000000, 3.414809992080318472E-15 ) ) ;
#980 = CIRCLE ( 'NONE', #963, 0.1560000000000001941 ) ;
#981 = EDGE_CURVE ( 'NONE', #1165, #648, #531, .T. ) ;
#982 = ORIENTED_EDGE ( 'NONE', *, *, #1144, .F. ) ;
#983 =( NAMED_UNIT ( * ) SI_UNIT ( $, .STERADIAN. ) SOLID_ANGLE_UNIT ( ) );
#984 = VERTEX_POINT ( 'NONE', #699 ) ;
#985 = DIRECTION ( 'NONE',  ( 0.000000000000000000, -1.000000000000000000, 0.000000000000000000 ) ) ;
#986 = CARTESIAN_POINT ( 'NONE',  ( -9.500000000000000000, 1.115000000000000435, -2.048885995248197414E-16 ) ) ;
#987 = VERTEX_POINT ( 'NONE', #121 ) ;
#988 = EDGE_CURVE ( 'NONE', #869, #485, #1257, .T. ) ;
#989 = LINE ( 'NONE', #210, #548 ) ;
#990 = VERTEX_POINT ( 'NONE', #1083 ) ;
#991 = DIRECTION ( 'NONE',  ( 1.000000000000000000, 0.000000000000000000, 0.000000000000000000 ) ) ;
#992 = CARTESIAN_POINT ( 'NONE',  ( 8.963999999999995083, 0.6449999999999983524, 0.000000000000000000 ) ) ;
#993 = EDGE_LOOP ( 'NONE', ( #429, #969, #534, #801, #355, #712 ) ) ;
#994 = CYLINDRICAL_SURFACE ( 'NONE', #404, 0.1560000000000001941 ) ;
#995 = EDGE_CURVE ( 'NONE', #436, #1092, #281, .T. ) ;
#996 = CARTESIAN_POINT ( 'NONE',  ( -9.004524902869139424, 1.114999999999999769, -0.1100000000000000422 ) ) ;
#997 = ORIENTED_EDGE ( 'NONE', *, *, #1062, .F. ) ;
#998 = EDGE_CURVE ( 'NONE', #47, #1012, #921, .T. ) ;
#999 = CIRCLE ( 'NONE', #938, 0.1560000000000001941 ) ;
#1000 = DIRECTION ( 'NONE',  ( 0.000000000000000000, 0.000000000000000000, -1.000000000000000000 ) ) ;
#1001 = PRODUCT ( '11-A-6004-01-(16gacr ANSI-61) - K48 - V3-R0', '11-A-6004-01-(16gacr ANSI-61) - K48 - V3-R0', '', ( #1208 ) ) ;
#1002 = DIRECTION ( 'NONE',  ( 0.000000000000000000, 0.000000000000000000, 1.000000000000000000 ) ) ;
#1003 = ORIENTED_EDGE ( 'NONE', *, *, #274, .F. ) ;
#1004 = SURFACE_STYLE_USAGE ( .BOTH. , #195 ) ;
#1005 = DIRECTION ( 'NONE',  ( 1.000000000000000000, 0.000000000000000000, 0.000000000000000000 ) ) ;
#1006 = ORIENTED_EDGE ( 'NONE', *, *, #663, .F. ) ;
#1007 = CARTESIAN_POINT ( 'NONE',  ( 9.245475097130860576, 1.114999999999999769, -0.1100000000000000422 ) ) ;
#1008 = CARTESIAN_POINT ( 'NONE',  ( -8.620000000000002771, -1.235000000000001652, 0.5699999999999999512 ) ) ;
#1009 = ORIENTED_EDGE ( 'NONE', *, *, #806, .T. ) ;
#1010 = PLANE ( 'NONE',  #1073 ) ;
#1011 = DIRECTION ( 'NONE',  ( -0.000000000000000000, -0.000000000000000000, 1.000000000000000000 ) ) ;
#1012 = VERTEX_POINT ( 'NONE', #992 ) ;
#1013 = CARTESIAN_POINT ( 'NONE',  ( 9.119999999999995666, 0.01499999999999833758, -2.290000000000000480 ) ) ;
#1014 = ADVANCED_FACE ( 'NONE', ( #607 ), #617, .F. ) ;
#1015 = DIRECTION ( 'NONE',  ( 0.000000000000000000, 0.000000000000000000, 1.000000000000000000 ) ) ;
#1016 = ORIENTED_EDGE ( 'NONE', *, *, #731, .F. ) ;
#1017 = CARTESIAN_POINT ( 'NONE',  ( 9.499999999999991118, -1.175000000000001599, 0.5700000000000001732 ) ) ;
#1018 = ORIENTED_EDGE ( 'NONE', *, *, #46, .F. ) ;
#1019 = CARTESIAN_POINT ( 'NONE',  ( 8.963999999999995083, -0.6050000000000017586, -2.290000000000000480 ) ) ;
#1020 = DIRECTION ( 'NONE',  ( 1.000000000000000000, 0.000000000000000000, 0.000000000000000000 ) ) ;
#1021 = DIRECTION ( 'NONE',  ( -0.000000000000000000, 0.000000000000000000, 1.000000000000000000 ) ) ;
#1022 = VECTOR ( 'NONE', #86, 39.37007874015748143 ) ;
#1023 = CARTESIAN_POINT ( 'NONE',  ( 9.499999999999994671, 1.235000000000000542, 0.05999999999999957451 ) ) ;
#1024 = VECTOR ( 'NONE', #771, 39.37007874015748143 ) ;
#1025 = EDGE_LOOP ( 'NONE', ( #294, #1240, #154, #1066 ) ) ;
#1026 = CARTESIAN_POINT ( 'NONE',  ( 9.499999999999998224, 1.235000000000000320, -0.05999999999999999778 ) ) ;
#1027 = DIRECTION ( 'NONE',  ( 0.000000000000000000, 3.469013325287949743E-15, 1.000000000000000000 ) ) ;
#1028 = ORIENTED_EDGE ( 'NONE', *, *, #918, .T. ) ;
#1029 = CARTESIAN_POINT ( 'NONE',  ( 0.000000000000000000, -1.234999999999999876, -4.352791670721384869E-15 ) ) ;
#1030 = LINE ( 'NONE', #647, #770 ) ;
#1031 = ORIENTED_EDGE ( 'NONE', *, *, #191, .F. ) ;
#1032 = DIRECTION ( 'NONE',  ( 0.000000000000000000, -1.000000000000000000, 3.272526242410305564E-15 ) ) ;
#1033 = ORIENTED_EDGE ( 'NONE', *, *, #308, .F. ) ;
#1034 = DIRECTION ( 'NONE',  ( 0.000000000000000000, 3.354901044850848446E-15, -1.000000000000000000 ) ) ;
#1035 = EDGE_CURVE ( 'NONE', #539, #408, #367, .T. ) ;
#1036 = VERTEX_POINT ( 'NONE', #1261 ) ;
#1037 = ORIENTED_EDGE ( 'NONE', *, *, #236, .T. ) ;
#1038 = CARTESIAN_POINT ( 'NONE',  ( -9.500000000000001776, 1.235000000000000320, 0.000000000000000000 ) ) ;
#1039 = AXIS2_PLACEMENT_3D ( 'NONE', #321, #703, #991 ) ;
#1040 = AXIS2_PLACEMENT_3D ( 'NONE', #189, #18, #202 ) ;
#1041 = ORIENTED_EDGE ( 'NONE', *, *, #1137, .F. ) ;
#1042 =( GEOMETRIC_REPRESENTATION_CONTEXT ( 3 ) GLOBAL_UNCERTAINTY_ASSIGNED_CONTEXT ( ( #536 ) ) GLOBAL_UNIT_ASSIGNED_CONTEXT ( ( #1245, #762, #85 ) ) REPRESENTATION_CONTEXT ( 'NONE', 'WORKASPACE' ) );
#1043 = EDGE_CURVE ( 'NONE', #458, #414, #802, .T. ) ;
#1044 = DIRECTION ( 'NONE',  ( -0.000000000000000000, 0.000000000000000000, 1.000000000000000000 ) ) ;
#1045 = FACE_BOUND ( 'NONE', #1078, .T. ) ;
#1046 = CARTESIAN_POINT ( 'NONE',  ( 9.119999999999995666, -0.6050000000000017586, -0.05999999999999990757 ) ) ;
#1047 = ORIENTED_EDGE ( 'NONE', *, *, #910, .T. ) ;
#1048 = LENGTH_MEASURE_WITH_UNIT ( LENGTH_MEASURE( 0.02539999999999999897 ), #859 );
#1049 = DIRECTION ( 'NONE',  ( 1.000000000000000000, 0.000000000000000000, 0.000000000000000000 ) ) ;
#1050 = ADVANCED_FACE ( 'NONE', ( #711 ), #388, .F. ) ;
#1051 = DIRECTION ( 'NONE',  ( 1.000000000000000000, 0.000000000000000000, 0.000000000000000000 ) ) ;
#1052 = LINE ( 'NONE', #467, #1259 ) ;
#1053 = CARTESIAN_POINT ( 'NONE',  ( 8.619999999999995666, 1.114999999999999991, -0.06000000000000020595 ) ) ;
#1054 = DIRECTION ( 'NONE',  ( 1.000000000000000000, 0.000000000000000000, 0.000000000000000000 ) ) ;
#1055 = EDGE_CURVE ( 'NONE', #1177, #458, #470, .T. ) ;
#1056 = AXIS2_PLACEMENT_3D ( 'NONE', #120, #883, #795 ) ;
#1057 = VECTOR ( 'NONE', #613, 39.37007874015748143 ) ;
#1058 = VECTOR ( 'NONE', #667, 39.37007874015748143 ) ;
#1059 = FACE_BOUND ( 'NONE', #417, .T. ) ;
#1060 = DIRECTION ( 'NONE',  ( 0.000000000000000000, 0.000000000000000000, 1.000000000000000000 ) ) ;
#1061 = ORIENTED_EDGE ( 'NONE', *, *, #663, .T. ) ;
#1062 = EDGE_CURVE ( 'NONE', #727, #448, #29, .T. ) ;
#1063 = ORIENTED_EDGE ( 'NONE', *, *, #1119, .F. ) ;
#1064 = DIRECTION ( 'NONE',  ( 0.000000000000000000, 0.000000000000000000, 1.000000000000000000 ) ) ;
#1065 = DIRECTION ( 'NONE',  ( -0.000000000000000000, -0.000000000000000000, 1.000000000000000000 ) ) ;
#1066 = ORIENTED_EDGE ( 'NONE', *, *, #815, .F. ) ;
#1067 = VERTEX_POINT ( 'NONE', #425 ) ;
#1068 = FACE_OUTER_BOUND ( 'NONE', #66, .T. ) ;
#1069 = DIRECTION ( 'NONE',  ( 1.000000000000000000, 0.000000000000000000, 0.000000000000000000 ) ) ;
#1070 = ORIENTED_EDGE ( 'NONE', *, *, #289, .F. ) ;
#1071 = DIRECTION ( 'NONE',  ( 0.000000000000000000, -1.000000000000000000, 3.354901044850848446E-15 ) ) ;
#1072 = ORIENTED_EDGE ( 'NONE', *, *, #12, .T. ) ;
#1073 = AXIS2_PLACEMENT_3D ( 'NONE', #522, #1071, #1178 ) ;
#1074 = DIRECTION ( 'NONE',  ( 0.000000000000000000, 0.000000000000000000, -1.000000000000000000 ) ) ;
#1075 = VECTOR ( 'NONE', #1091, 39.37007874015748143 ) ;
#1076 = ADVANCED_FACE ( 'NONE', ( #153 ), #622, .F. ) ;
#1077 = LINE ( 'NONE', #986, #1075 ) ;
#1078 = EDGE_LOOP ( 'NONE', ( #601, #579 ) ) ;
#1079 = ADVANCED_BREP_SHAPE_REPRESENTATION ( '11-A-6004-01-(16gacr ANSI-61) - K48 - V3-R0', ( #566, #488 ), #1042 ) ;
#1080 = DIRECTION ( 'NONE',  ( -0.000000000000000000, -0.000000000000000000, 1.000000000000000000 ) ) ;
#1081 = ORIENTED_EDGE ( 'NONE', *, *, #177, .F. ) ;
#1082 = LINE ( 'NONE', #314, #379 ) ;
#1083 = CARTESIAN_POINT ( 'NONE',  ( 8.619999999999995666, 1.115000000000000213, -2.048885995248197414E-16 ) ) ;
#1084 = EDGE_CURVE ( 'NONE', #880, #238, #810, .T. ) ;
#1085 = ORIENTED_EDGE ( 'NONE', *, *, #315, .F. ) ;
#1086 = LENGTH_MEASURE_WITH_UNIT ( LENGTH_MEASURE( 0.02539999999999999897 ), #415 );
#1087 = ADVANCED_FACE ( 'NONE', ( #133 ), #916, .T. ) ;
#1088 = CARTESIAN_POINT ( 'NONE',  ( -9.286000000000003141, -0.6050000000000017586, 0.000000000000000000 ) ) ;
#1089 = ORIENTED_EDGE ( 'NONE', *, *, #1035, .F. ) ;
#1090 = CYLINDRICAL_SURFACE ( 'NONE', #1255, 0.1560000000000001941 ) ;
#1091 = DIRECTION ( 'NONE',  ( -8.087894779578938540E-30, 0.000000000000000000, -1.000000000000000000 ) ) ;
#1092 = VERTEX_POINT ( 'NONE', #1117 ) ;
#1093 = PLANE ( 'NONE',  #486 ) ;
#1094 = ADVANCED_FACE ( 'NONE', ( #1196 ), #148, .F. ) ;
#1095 = DIRECTION ( 'NONE',  ( -1.000000000000000000, 0.000000000000000000, 0.000000000000000000 ) ) ;
#1096 = EDGE_LOOP ( 'NONE', ( #1089, #638 ) ) ;
#1097 = DIRECTION ( 'NONE',  ( -0.000000000000000000, -0.000000000000000000, 1.000000000000000000 ) ) ;
#1098 = DIRECTION ( 'NONE',  ( 1.000000000000000000, 0.000000000000000000, 0.000000000000000000 ) ) ;
#1099 = VERTEX_POINT ( 'NONE', #342 ) ;
#1100 = AXIS2_PLACEMENT_3D ( 'NONE', #849, #964, #950 ) ;
#1101 = AXIS2_PLACEMENT_3D ( 'NONE', #544, #1015, #926 ) ;
#1102 = CARTESIAN_POINT ( 'NONE',  ( 8.619999999999995666, -1.115000000000001767, 0.5700000000000003952 ) ) ;
#1103 = ORIENTED_EDGE ( 'NONE', *, *, #208, .T. ) ;
#1104 = CARTESIAN_POINT ( 'NONE',  ( -9.499999999999998224, 1.115000000000000435, -2.048885995248197414E-16 ) ) ;
#1105 = CYLINDRICAL_SURFACE ( 'NONE', #839, 0.1549999999999998601 ) ;
#1106 = ORIENTED_EDGE ( 'NONE', *, *, #688, .F. ) ;
#1107 = LINE ( 'NONE', #1017, #1143 ) ;
#1108 = DIRECTION ( 'NONE',  ( 1.000000000000000000, 0.000000000000000000, 0.000000000000000000 ) ) ;
#1109 = ORIENTED_EDGE ( 'NONE', *, *, #578, .F. ) ;
#1110 = FACE_OUTER_BOUND ( 'NONE', #1209, .T. ) ;
#1111 = EDGE_CURVE ( 'NONE', #828, #700, #409, .T. ) ;
#1112 = DIRECTION ( 'NONE',  ( 1.000000000000000000, 0.000000000000000000, 0.000000000000000000 ) ) ;
#1113 = FACE_BOUND ( 'NONE', #1096, .T. ) ;
#1114 = DIRECTION ( 'NONE',  ( -0.000000000000000000, 1.000000000000000000, -0.000000000000000000 ) ) ;
#1115 = ORIENTED_EDGE ( 'NONE', *, *, #200, .F. ) ;
#1116 = DIRECTION ( 'NONE',  ( 0.000000000000000000, 3.469013325287951321E-15, -1.000000000000000000 ) ) ;
#1117 = CARTESIAN_POINT ( 'NONE',  ( 9.275999999999996248, 0.6449999999999983524, -0.05999999999999990757 ) ) ;
#1118 = ORIENTED_EDGE ( 'NONE', *, *, #46, .T. ) ;
#1119 = EDGE_CURVE ( 'NONE', #867, #1099, #330, .T. ) ;
#1120 = VECTOR ( 'NONE', #344, 39.37007874015748143 ) ;
#1121 = CARTESIAN_POINT ( 'NONE',  ( -9.286000000000003141, 0.01499999999999835666, -2.290000000000000480 ) ) ;
#1122 = AXIS2_PLACEMENT_3D ( 'NONE', #749, #1151, #774 ) ;
#1123 = AXIS2_PLACEMENT_3D ( 'NONE', #1046, #1152, #581 ) ;
#1124 = CIRCLE ( 'NONE', #739, 0.1200000000000000511 ) ;
#1125 = ORIENTED_EDGE ( 'NONE', *, *, #460, .F. ) ;
#1126 = CARTESIAN_POINT ( 'NONE',  ( -9.130000000000002558, 0.01499999999999833758, -0.05999999999999990757 ) ) ;
#1127 = EDGE_LOOP ( 'NONE', ( #394, #1047, #605, #1232 ) ) ;
#1128 = EDGE_CURVE ( 'NONE', #1177, #3, #1217, .T. ) ;
#1129 = LINE ( 'NONE', #835, #1120 ) ;
#1130 = ADVANCED_FACE ( 'NONE', ( #719 ), #1105, .F. ) ;
#1131 = EDGE_LOOP ( 'NONE', ( #1109, #517, #1248, #446 ) ) ;
#1132 = DIRECTION ( 'NONE',  ( 0.000000000000000000, 1.000000000000000000, -3.491481338843133750E-15 ) ) ;
#1133 = ORIENTED_EDGE ( 'NONE', *, *, #1111, .F. ) ;
#1134 = CARTESIAN_POINT ( 'NONE',  ( -8.619999999999999218, 1.114999999999999991, -0.06000000000000021289 ) ) ;
#1135 = CARTESIAN_POINT ( 'NONE',  ( 8.963999999999995083, -0.6050000000000017586, 0.000000000000000000 ) ) ;
#1136 = EDGE_LOOP ( 'NONE', ( #423, #1037, #131, #615 ) ) ;
#1137 = EDGE_CURVE ( 'NONE', #436, #1012, #526, .T. ) ;
#1138 = FACE_BOUND ( 'NONE', #257, .T. ) ;
#1139 = FACE_BOUND ( 'NONE', #100, .T. ) ;
#1140 = AXIS2_PLACEMENT_3D ( 'NONE', #454, #350, #741 ) ;
#1141 = CARTESIAN_POINT ( 'NONE',  ( 9.119999999999995666, 0.01499999999999833758, 0.000000000000000000 ) ) ;
#1142 = VECTOR ( 'NONE', #666, 39.37007874015748143 ) ;
#1143 = VECTOR ( 'NONE', #136, 39.37007874015748143 ) ;
#1144 = EDGE_CURVE ( 'NONE', #648, #1165, #306, .T. ) ;
#1145 = DIRECTION ( 'NONE',  ( -0.000000000000000000, -0.000000000000000000, 1.000000000000000000 ) ) ;
#1146 = CARTESIAN_POINT ( 'NONE',  ( 8.619999999999995666, -1.114999999999999547, -0.05999999999999992145 ) ) ;
#1147 = DIRECTION ( 'NONE',  ( 1.000000000000000000, 0.000000000000000000, 0.000000000000000000 ) ) ;
#1148 = CARTESIAN_POINT ( 'NONE',  ( 8.619999999999995666, -1.174999999999999822, 0.05999999999999976880 ) ) ;
#1149 = CARTESIAN_POINT ( 'NONE',  ( -9.130000000000002558, -0.6050000000000017586, -2.290000000000000480 ) ) ;
#1150 = ADVANCED_FACE ( 'NONE', ( #538 ), #740, .F. ) ;
#1151 = DIRECTION ( 'NONE',  ( 0.000000000000000000, 1.000000000000000000, -3.469013325287949743E-15 ) ) ;
#1152 = DIRECTION ( 'NONE',  ( -0.000000000000000000, 0.000000000000000000, 1.000000000000000000 ) ) ;
#1153 = EDGE_CURVE ( 'NONE', #790, #650, #942, .T. ) ;
#1154 = ORIENTED_EDGE ( 'NONE', *, *, #1244, .T. ) ;
#1155 = DIRECTION ( 'NONE',  ( -0.000000000000000000, -3.354901044850848446E-15, 1.000000000000000000 ) ) ;
#1156 = CARTESIAN_POINT ( 'NONE',  ( 9.275999999999996248, 0.01499999999999833758, -0.05999999999999990757 ) ) ;
#1157 = CARTESIAN_POINT ( 'NONE',  ( -8.619999999999999218, 1.115000000000000435, 0.05999999999999983125 ) ) ;
#1158 = ORIENTED_EDGE ( 'NONE', *, *, #887, .T. ) ;
#1159 = EDGE_CURVE ( 'NONE', #1012, #47, #923, .T. ) ;
#1160 = ORIENTED_EDGE ( 'NONE', *, *, #758, .F. ) ;
#1161 = LINE ( 'NONE', #81, #114 ) ;
#1162 = DIRECTION ( 'NONE',  ( 1.000000000000000000, 0.000000000000000000, 0.000000000000000000 ) ) ;
#1163 = ORIENTED_EDGE ( 'NONE', *, *, #412, .F. ) ;
#1164 = EDGE_CURVE ( 'NONE', #93, #146, #1124, .T. ) ;
#1165 = VERTEX_POINT ( 'NONE', #840 ) ;
#1166 = FACE_OUTER_BOUND ( 'NONE', #629, .T. ) ;
#1167 = DIRECTION ( 'NONE',  ( -0.000000000000000000, 0.000000000000000000, 1.000000000000000000 ) ) ;
#1168 = ORIENTED_EDGE ( 'NONE', *, *, #334, .T. ) ;
#1169 = DIRECTION ( 'NONE',  ( -1.000000000000000000, 0.000000000000000000, 0.000000000000000000 ) ) ;
#1170 = LINE ( 'NONE', #303, #383 ) ;
#1171 = EDGE_LOOP ( 'NONE', ( #511, #1103, #465, #343 ) ) ;
#1172 = CIRCLE ( 'NONE', #632, 0.1560000000000001941 ) ;
#1173 = EDGE_CURVE ( 'NONE', #1067, #556, #354, .T. ) ;
#1174 = DIRECTION ( 'NONE',  ( -0.000000000000000000, 0.000000000000000000, 1.000000000000000000 ) ) ;
#1175 = AXIS2_PLACEMENT_3D ( 'NONE', #778, #293, #1069 ) ;
#1176 = CARTESIAN_POINT ( 'NONE',  ( 9.499999999999994671, 1.114999999999999991, -0.06000000000000020595 ) ) ;
#1177 = VERTEX_POINT ( 'NONE', #649 ) ;
#1178 = DIRECTION ( 'NONE',  ( 0.000000000000000000, -3.354901044850848446E-15, -1.000000000000000000 ) ) ;
#1179 = LINE ( 'NONE', #625, #920 ) ;
#1180 = ORIENTED_EDGE ( 'NONE', *, *, #682, .F. ) ;
#1181 = CARTESIAN_POINT ( 'NONE',  ( 9.499999999999992895, -1.114999999999999769, 6.829619984160658046E-17 ) ) ;
#1182 = DIRECTION ( 'NONE',  ( -0.000000000000000000, -3.469013325287951321E-15, 1.000000000000000000 ) ) ;
#1183 = EDGE_CURVE ( 'NONE', #124, #984, #127, .T. ) ;
#1184 = ORIENTED_EDGE ( 'NONE', *, *, #116, .T. ) ;
#1185 = CARTESIAN_POINT ( 'NONE',  ( -9.255475097130867468, 1.114999999999999769, -0.1100000000000000422 ) ) ;
#1186 = ORIENTED_EDGE ( 'NONE', *, *, #106, .F. ) ;
#1187 = DIRECTION ( 'NONE',  ( 0.000000000000000000, 1.000000000000000000, 3.491481338843133750E-15 ) ) ;
#1188 = LINE ( 'NONE', #199, #178 ) ;
#1189 = VERTEX_POINT ( 'NONE', #371 ) ;
#1190 = ADVANCED_FACE ( 'NONE', ( #944, #377, #1059, #1138, #262, #68, #659 ), #759, .F. ) ;
#1191 = DIRECTION ( 'NONE',  ( 0.000000000000000000, 0.000000000000000000, 1.000000000000000000 ) ) ;
#1192 = ORIENTED_EDGE ( 'NONE', *, *, #706, .F. ) ;
#1193 = AXIS2_PLACEMENT_3D ( 'NONE', #890, #126, #1074 ) ;
#1194 = CARTESIAN_POINT ( 'NONE',  ( 8.994524902869130756, 1.114999999999999991, -0.05999999999999999778 ) ) ;
#1195 = AXIS2_PLACEMENT_3D ( 'NONE', #555, #240, #830 ) ;
#1196 = FACE_OUTER_BOUND ( 'NONE', #970, .T. ) ;
#1197 = ORIENTED_EDGE ( 'NONE', *, *, #988, .T. ) ;
#1198 = VECTOR ( 'NONE', #249, 39.37007874015748143 ) ;
#1199 = AXIS2_PLACEMENT_3D ( 'NONE', #433, #1225, #820 ) ;
#1200 = DIRECTION ( 'NONE',  ( 1.000000000000000000, 0.000000000000000000, -0.000000000000000000 ) ) ;
#1201 = DIRECTION ( 'NONE',  ( -1.000000000000000000, 0.000000000000000000, -0.000000000000000000 ) ) ;
#1202 = ORIENTED_EDGE ( 'NONE', *, *, #437, .F. ) ;
#1203 = DIRECTION ( 'NONE',  ( -0.000000000000000000, -0.000000000000000000, 1.000000000000000000 ) ) ;
#1204 = APPLICATION_CONTEXT ( 'automotive_design' ) ;
#1205 = CARTESIAN_POINT ( 'NONE',  ( 9.119999999999995666, -0.6050000000000017586, -2.290000000000000480 ) ) ;
#1206 = VERTEX_POINT ( 'NONE', #1148 ) ;
#1207 = CARTESIAN_POINT ( 'NONE',  ( -9.130000000000002558, -0.6050000000000017586, -2.290000000000000480 ) ) ;
#1208 = PRODUCT_CONTEXT ( 'NONE', #172, 'mechanical' ) ;
#1209 = EDGE_LOOP ( 'NONE', ( #583, #320, #211, #1115 ) ) ;
#1210 = EDGE_CURVE ( 'NONE', #194, #945, #1052, .T. ) ;
#1211 = CARTESIAN_POINT ( 'NONE',  ( -9.004524902869139424, 1.114999999999999769, -0.06000000000000021289 ) ) ;
#1212 = CARTESIAN_POINT ( 'NONE',  ( 9.119999999999995666, 0.6449999999999983524, 0.000000000000000000 ) ) ;
#1213 = FACE_BOUND ( 'NONE', #514, .T. ) ;
#1214 = LINE ( 'NONE', #734, #430 ) ;
#1215 = ORIENTED_EDGE ( 'NONE', *, *, #106, .T. ) ;
#1216 = EDGE_CURVE ( 'NONE', #521, #238, #966, .T. ) ;
#1217 = LINE ( 'NONE', #439, #553 ) ;
#1218 = ORIENTED_EDGE ( 'NONE', *, *, #1252, .T. ) ;
#1219 = EDGE_CURVE ( 'NONE', #650, #790, #248, .T. ) ;
#1220 = VECTOR ( 'NONE', #501, 39.37007874015748143 ) ;
#1221 = CARTESIAN_POINT ( 'NONE',  ( 9.499999999999994671, 1.175000000000002265, 0.5700000000000001732 ) ) ;
#1222 = AXIS2_PLACEMENT_3D ( 'NONE', #82, #1065, #469 ) ;
#1223 = FACE_OUTER_BOUND ( 'NONE', #786, .T. ) ;
#1224 = VERTEX_POINT ( 'NONE', #568 ) ;
#1225 = DIRECTION ( 'NONE',  ( -1.000000000000000000, 0.000000000000000000, 0.000000000000000000 ) ) ;
#1226 = DIRECTION ( 'NONE',  ( 7.284927983104697498E-14, 0.000000000000000000, -1.000000000000000000 ) ) ;
#1227 = CARTESIAN_POINT ( 'NONE',  ( 8.619999999999995666, -1.174999999999999822, -4.143302790390797341E-15 ) ) ;
#1228 = ORIENTED_EDGE ( 'NONE', *, *, #898, .T. ) ;
#1229 = CYLINDRICAL_SURFACE ( 'NONE', #1140, 0.1560000000000001941 ) ;
#1230 = EDGE_CURVE ( 'NONE', #1165, #779, #165, .T. ) ;
#1231 = UNCERTAINTY_MEASURE_WITH_UNIT (LENGTH_MEASURE( 1.000000000000000082E-05 ), #903, 'distance_accuracy_value', 'NONE');
#1232 = ORIENTED_EDGE ( 'NONE', *, *, #858, .F. ) ;
#1233 = DIRECTION ( 'NONE',  ( 1.000000000000000000, 0.000000000000000000, 0.000000000000000000 ) ) ;
#1234 = CARTESIAN_POINT ( 'NONE',  ( -9.130000000000002558, -0.6050000000000017586, 0.000000000000000000 ) ) ;
#1235 = CARTESIAN_POINT ( 'NONE',  ( -8.619999999999999218, 1.235000000000000542, 0.05999999999999929695 ) ) ;
#1236 = VECTOR ( 'NONE', #1108, 39.37007874015748143 ) ;
#1237 = CIRCLE ( 'NONE', #753, 0.1560000000000001941 ) ;
#1238 = AXIS2_PLACEMENT_3D ( 'NONE', #833, #36, #256 ) ;
#1239 = EDGE_CURVE ( 'NONE', #105, #194, #1250, .T. ) ;
#1240 = ORIENTED_EDGE ( 'NONE', *, *, #1111, .T. ) ;
#1241 = DIRECTION ( 'NONE',  ( 0.000000000000000000, -1.000000000000000000, -3.491481338843134539E-15 ) ) ;
#1242 = LINE ( 'NONE', #954, #261 ) ;
#1243 = DIRECTION ( 'NONE',  ( -0.000000000000000000, -0.000000000000000000, 1.000000000000000000 ) ) ;
#1244 = EDGE_CURVE ( 'NONE', #279, #557, #847, .T. ) ;
#1245 =( CONVERSION_BASED_UNIT ( 'INCH', #1048 ) LENGTH_UNIT ( ) NAMED_UNIT ( #496 ) );
#1246 = DIRECTION ( 'NONE',  ( 1.000000000000000000, 0.000000000000000000, 0.000000000000000000 ) ) ;
#1247 = DIRECTION ( 'NONE',  ( 1.000000000000000000, 0.000000000000000000, 0.000000000000000000 ) ) ;
#1248 = ORIENTED_EDGE ( 'NONE', *, *, #1183, .T. ) ;
#1249 = VERTEX_POINT ( 'NONE', #949 ) ;
#1250 = LINE ( 'NONE', #80, #695 ) ;
#1251 = FACE_OUTER_BOUND ( 'NONE', #924, .T. ) ;
#1252 = EDGE_CURVE ( 'NONE', #290, #743, #285, .T. ) ;
#1253 = LINE ( 'NONE', #972, #1058 ) ;
#1254 = ORIENTED_EDGE ( 'NONE', *, *, #578, .T. ) ;
#1255 = AXIS2_PLACEMENT_3D ( 'NONE', #606, #1097, #103 ) ;
#1256 = VECTOR ( 'NONE', #1169, 39.37007874015748143 ) ;
#1257 = CIRCLE ( 'NONE', #715, 0.1560000000000001941 ) ;
#1258 = VERTEX_POINT ( 'NONE', #269 ) ;
#1259 = VECTOR ( 'NONE', #1241, 39.37007874015748143 ) ;
#1260 = DIRECTION ( 'NONE',  ( -1.000000000000000000, -0.000000000000000000, -0.000000000000000000 ) ) ;
#1261 = CARTESIAN_POINT ( 'NONE',  ( 9.499999999999994671, 1.115000000000000213, -2.048885995248197414E-16 ) ) ;
#1262 = ORIENTED_EDGE ( 'NONE', *, *, #410, .T. ) ;
#1263 = EDGE_CURVE ( 'NONE', #987, #779, #980, .T. ) ;
#1264 = ORIENTED_EDGE ( 'NONE', *, *, #677, .T. ) ;
#1265 = LINE ( 'NONE', #1007, #735 ) ;
#1266 = PLANE ( 'NONE',  #405 ) ;
#1267 = ORIENTED_EDGE ( 'NONE', *, *, #368, .F. ) ;
ENDSEC;
END-ISO-10303-21;
