ISO-10303-21;
HEADER;
FILE_DESCRIPTION (( 'STEP AP214' ),
    '1' );
FILE_NAME ('12-6355-03-(16gacr ANSI-61) - K48 - V2-R0.STEP',
    '2026-08-03T18:40:22',
    ( '' ),
    ( '' ),
    'SwSTEP 2.0',
    'SolidWorks 2024',
    '' );
FILE_SCHEMA (( 'AUTOMOTIVE_DESIGN' ));
ENDSEC;

DATA;
#1 = CARTESIAN_POINT ( 'NONE',  ( 8.269999999999994245, 5.999999999999999112, -0.6300393700787404461 ) ) ;
#2 = ORIENTED_EDGE ( 'NONE', *, *, #1309, .F. ) ;
#3 = DIMENSIONAL_EXPONENTS ( 1.000000000000000000, 0.000000000000000000, 0.000000000000000000, 0.000000000000000000, 0.000000000000000000, 0.000000000000000000, 0.000000000000000000 ) ;
#4 = DIRECTION ( 'NONE',  ( -0.000000000000000000, 1.000000000000000000, -0.000000000000000000 ) ) ;
#5 = ORIENTED_EDGE ( 'NONE', *, *, #1347, .T. ) ;
#6 = CARTESIAN_POINT ( 'NONE',  ( -8.425000000000006040, 7.309999999999996945, -0.6300000000000002265 ) ) ;
#7 = VERTEX_POINT ( 'NONE', #132 ) ;
#8 = ADVANCED_FACE ( 'NONE', ( #553 ), #578, .F. ) ;
#9 = DIRECTION ( 'NONE',  ( -1.000000000000000000, 0.000000000000000000, 0.000000000000000000 ) ) ;
#10 = ORIENTED_EDGE ( 'NONE', *, *, #838, .T. ) ;
#11 = PLANE ( 'NONE',  #1090 ) ;
#12 = DIRECTION ( 'NONE',  ( 0.000000000000000000, 0.000000000000000000, -1.000000000000000000 ) ) ;
#13 = AXIS2_PLACEMENT_3D ( 'NONE', #810, #1166, #423 ) ;
#14 = VERTEX_POINT ( 'NONE', #884 ) ;
#15 = EDGE_CURVE ( 'NONE', #14, #955, #1217, .T. ) ;
#16 = VECTOR ( 'NONE', #1307, 39.37007874015748143 ) ;
#17 = CARTESIAN_POINT ( 'NONE',  ( -8.294999999999999929, -7.500000000000003553, -0.6300000000000000044 ) ) ;
#18 = VECTOR ( 'NONE', #669, 39.37007874015748143 ) ;
#19 = ORIENTED_EDGE ( 'NONE', *, *, #512, .T. ) ;
#20 = CARTESIAN_POINT ( 'NONE',  ( -8.365000000000003766, 7.309999999999996056, -0.06000000000000012962 ) ) ;
#21 = PLANE ( 'NONE',  #1287 ) ;
#22 = EDGE_LOOP ( 'NONE', ( #239, #426, #1221, #345 ) ) ;
#23 = CYLINDRICAL_SURFACE ( 'NONE', #904, 0.05999999999999990757 ) ;
#24 = EDGE_CURVE ( 'NONE', #303, #909, #499, .T. ) ;
#25 = ORIENTED_EDGE ( 'NONE', *, *, #92, .F. ) ;
#26 = PRODUCT_CONTEXT ( 'NONE', #1001, 'mechanical' ) ;
#27 = EDGE_CURVE ( 'NONE', #729, #369, #124, .T. ) ;
#28 = CARTESIAN_POINT ( 'NONE',  ( -8.295000000000003482, 7.309999999999999609, -0.06003937007874015491 ) ) ;
#29 = DIRECTION ( 'NONE',  ( 1.000000000000000000, 0.000000000000000000, -3.834172622686683600E-15 ) ) ;
#30 = ORIENTED_EDGE ( 'NONE', *, *, #1104, .F. ) ;
#31 = DIRECTION ( 'NONE',  ( 1.000000000000000000, 0.000000000000000000, 0.000000000000000000 ) ) ;
#32 = VERTEX_POINT ( 'NONE', #682 ) ;
#33 = EDGE_CURVE ( 'NONE', #581, #369, #791, .T. ) ;
#34 = CARTESIAN_POINT ( 'NONE',  ( 8.269999999999994245, -6.000000000000001776, -0.05999999999999997696 ) ) ;
#35 = DIRECTION ( 'NONE',  ( -1.000000000000000000, 0.000000000000000000, 0.000000000000000000 ) ) ;
#36 = LINE ( 'NONE', #356, #302 ) ;
#37 = CIRCLE ( 'NONE', #476, 0.09499999999999994560 ) ;
#38 = AXIS2_PLACEMENT_3D ( 'NONE', #93, #1149, #908 ) ;
#39 = DIRECTION ( 'NONE',  ( -0.000000000000000000, 1.000000000000000000, -0.000000000000000000 ) ) ;
#40 = EDGE_LOOP ( 'NONE', ( #262, #19 ) ) ;
#41 = VECTOR ( 'NONE', #787, 39.37007874015748143 ) ;
#42 = CIRCLE ( 'NONE', #411, 0.09499999999999994560 ) ;
#43 = PLANE ( 'NONE',  #592 ) ;
#44 = DIRECTION ( 'NONE',  ( 1.000000000000000000, 0.000000000000000000, -3.834172622686683600E-15 ) ) ;
#45 = CARTESIAN_POINT ( 'NONE',  ( 8.484999999999995879, 7.379999999999999005, -0.1200000000000000372 ) ) ;
#46 = LINE ( 'NONE', #588, #284 ) ;
#47 = ORIENTED_EDGE ( 'NONE', *, *, #572, .T. ) ;
#48 = DIRECTION ( 'NONE',  ( -0.000000000000000000, 0.000000000000000000, 1.000000000000000000 ) ) ;
#49 = LINE ( 'NONE', #378, #147 ) ;
#50 = CARTESIAN_POINT ( 'NONE',  ( -8.425000000000006040, -7.309999999999999609, -0.6300000000000002265 ) ) ;
#51 = EDGE_CURVE ( 'NONE', #947, #933, #693, .T. ) ;
#52 = CARTESIAN_POINT ( 'NONE',  ( 8.079999999999994742, 5.999999999999999112, -0.6300393700787404461 ) ) ;
#53 = VERTEX_POINT ( 'NONE', #475 ) ;
#54 = EDGE_LOOP ( 'NONE', ( #394, #69, #285, #561 ) ) ;
#55 = DIRECTION ( 'NONE',  ( 0.000000000000000000, -1.000000000000000000, -3.491481338843133750E-15 ) ) ;
#56 = DIRECTION ( 'NONE',  ( 1.000000000000000000, -0.000000000000000000, -0.000000000000000000 ) ) ;
#57 = LINE ( 'NONE', #1112, #948 ) ;
#58 = ADVANCED_FACE ( 'NONE', ( #1097 ), #1315, .F. ) ;
#59 = AXIS2_PLACEMENT_3D ( 'NONE', #786, #56, #485 ) ;
#60 = ORIENTED_EDGE ( 'NONE', *, *, #1148, .F. ) ;
#61 = CIRCLE ( 'NONE', #821, 0.09499999999999994560 ) ;
#62 = ORIENTED_EDGE ( 'NONE', *, *, #462, .T. ) ;
#63 = DIRECTION ( 'NONE',  ( -0.000000000000000000, -0.000000000000000000, 1.000000000000000000 ) ) ;
#64 = DIRECTION ( 'NONE',  ( -1.000000000000000000, -0.000000000000000000, -0.000000000000000000 ) ) ;
#65 = FACE_OUTER_BOUND ( 'NONE', #1150, .T. ) ;
#66 = EDGE_CURVE ( 'NONE', #268, #575, #36, .T. ) ;
#67 = ORIENTED_EDGE ( 'NONE', *, *, #272, .T. ) ;
#68 = EDGE_CURVE ( 'NONE', #1114, #1286, #1294, .T. ) ;
#69 = ORIENTED_EDGE ( 'NONE', *, *, #806, .T. ) ;
#70 = DIRECTION ( 'NONE',  ( 1.000000000000000000, 0.000000000000000000, -3.491481338843134539E-15 ) ) ;
#71 = CYLINDRICAL_SURFACE ( 'NONE', #211, 0.1139999999999999347 ) ;
#72 = FACE_OUTER_BOUND ( 'NONE', #760, .T. ) ;
#73 = EDGE_LOOP ( 'NONE', ( #438, #1076 ) ) ;
#74 = DIRECTION ( 'NONE',  ( -1.000000000000000000, -0.000000000000000000, -0.000000000000000000 ) ) ;
#75 = EDGE_CURVE ( 'NONE', #1348, #985, #1190, .T. ) ;
#76 = CARTESIAN_POINT ( 'NONE',  ( 8.484999999999995879, 7.500000000000001776, -0.6300000000000000044 ) ) ;
#77 = CARTESIAN_POINT ( 'NONE',  ( 8.484999999999995879, 7.379999999999999005, -1.195183497228115035E-16 ) ) ;
#78 = CARTESIAN_POINT ( 'NONE',  ( -8.485000000000006537, 7.309999999999996945, -0.6300000000000000044 ) ) ;
#79 = VECTOR ( 'NONE', #179, 39.37007874015748143 ) ;
#80 = ORIENTED_EDGE ( 'NONE', *, *, #1104, .T. ) ;
#81 = DIRECTION ( 'NONE',  ( 1.000000000000000000, 0.000000000000000000, 0.000000000000000000 ) ) ;
#82 = CIRCLE ( 'NONE', #1130, 0.09499999999999994560 ) ;
#83 = AXIS2_PLACEMENT_3D ( 'NONE', #1299, #253, #950 ) ;
#84 = DIRECTION ( 'NONE',  ( -1.000000000000000000, -0.000000000000000000, -0.000000000000000000 ) ) ;
#85 = ADVANCED_FACE ( 'NONE', ( #687 ), #380, .T. ) ;
#86 = DIRECTION ( 'NONE',  ( 0.000000000000000000, -0.000000000000000000, 1.000000000000000000 ) ) ;
#87 = CARTESIAN_POINT ( 'NONE',  ( 8.079999999999994742, 5.999999999999999112, -0.05999999999999997696 ) ) ;
#88 = ORIENTED_EDGE ( 'NONE', *, *, #66, .T. ) ;
#89 = LINE ( 'NONE', #1232, #168 ) ;
#90 = DIRECTION ( 'NONE',  ( -1.000000000000000000, 0.000000000000000000, -0.000000000000000000 ) ) ;
#91 = ORIENTED_EDGE ( 'NONE', *, *, #75, .T. ) ;
#92 = EDGE_CURVE ( 'NONE', #222, #575, #996, .T. ) ;
#93 = CARTESIAN_POINT ( 'NONE',  ( 8.174999999999995381, 0.000000000000000000, -0.6300393700787404461 ) ) ;
#94 = ORIENTED_EDGE ( 'NONE', *, *, #15, .T. ) ;
#95 = CARTESIAN_POINT ( 'NONE',  ( -8.295000000000003482, 7.500000000000001776, -0.6300000000000000044 ) ) ;
#96 = PLANE ( 'NONE',  #1175 ) ;
#97 = DIRECTION ( 'NONE',  ( 0.000000000000000000, 0.000000000000000000, -1.000000000000000000 ) ) ;
#98 = ORIENTED_EDGE ( 'NONE', *, *, #279, .F. ) ;
#99 = CARTESIAN_POINT ( 'NONE',  ( 0.000000000000000000, 0.000000000000000000, 0.000000000000000000 ) ) ;
#100 = EDGE_CURVE ( 'NONE', #1034, #947, #564, .T. ) ;
#101 = VERTEX_POINT ( 'NONE', #1081 ) ;
#102 = DIRECTION ( 'NONE',  ( 0.000000000000000000, -3.491481338843134539E-15, 1.000000000000000000 ) ) ;
#103 = VECTOR ( 'NONE', #951, 39.37007874015748143 ) ;
#104 = CARTESIAN_POINT ( 'NONE',  ( -8.365000000000003766, 7.309999999999996056, -0.06000000000000012962 ) ) ;
#105 = VECTOR ( 'NONE', #530, 39.37007874015748143 ) ;
#106 = VECTOR ( 'NONE', #574, 39.37007874015748143 ) ;
#107 = ORIENTED_EDGE ( 'NONE', *, *, #439, .T. ) ;
#108 = DIRECTION ( 'NONE',  ( 0.000000000000000000, 0.000000000000000000, -1.000000000000000000 ) ) ;
#109 = EDGE_CURVE ( 'NONE', #7, #1355, #37, .T. ) ;
#110 = ORIENTED_EDGE ( 'NONE', *, *, #305, .F. ) ;
#111 = EDGE_CURVE ( 'NONE', #360, #446, #670, .T. ) ;
#112 = CARTESIAN_POINT ( 'NONE',  ( 8.484999999999992326, -7.440000000000001279, -0.1199999999999998151 ) ) ;
#113 = VERTEX_POINT ( 'NONE', #870 ) ;
#114 = LINE ( 'NONE', #532, #149 ) ;
#115 = ORIENTED_EDGE ( 'NONE', *, *, #398, .F. ) ;
#116 = CARTESIAN_POINT ( 'NONE',  ( -8.295000000000003482, 7.499999999999999112, 0.000000000000000000 ) ) ;
#117 = DIRECTION ( 'NONE',  ( 1.000000000000000000, 0.000000000000000000, 0.000000000000000000 ) ) ;
#118 = EDGE_CURVE ( 'NONE', #1115, #101, #1083, .T. ) ;
#119 = ORIENTED_EDGE ( 'NONE', *, *, #589, .T. ) ;
#120 = DIRECTION ( 'NONE',  ( -1.000000000000000000, 0.000000000000000000, 3.699377491420362432E-15 ) ) ;
#121 = ORIENTED_EDGE ( 'NONE', *, *, #434, .F. ) ;
#122 = CARTESIAN_POINT ( 'NONE',  ( -8.485000000000006537, -7.309999999999999609, -0.6300000000000000044 ) ) ;
#123 = DIRECTION ( 'NONE',  ( 1.000000000000000000, 0.000000000000000000, 0.000000000000000000 ) ) ;
#124 = CIRCLE ( 'NONE', #59, 0.05999999999999990757 ) ;
#125 = ORIENTED_EDGE ( 'NONE', *, *, #1252, .F. ) ;
#126 = AXIS2_PLACEMENT_3D ( 'NONE', #558, #994, #474 ) ;
#127 = VECTOR ( 'NONE', #696, 39.37007874015748143 ) ;
#128 = DIRECTION ( 'NONE',  ( 0.000000000000000000, -1.000000000000000000, 3.699377491420362432E-15 ) ) ;
#129 = ORIENTED_EDGE ( 'NONE', *, *, #270, .T. ) ;
#130 = CARTESIAN_POINT ( 'NONE',  ( 8.174999999999995381, 5.999999999999999112, 0.000000000000000000 ) ) ;
#131 = DIRECTION ( 'NONE',  ( 1.000000000000000000, -0.000000000000000000, -0.000000000000000000 ) ) ;
#132 = CARTESIAN_POINT ( 'NONE',  ( 8.269999999999994245, 5.999999999999999112, 0.000000000000000000 ) ) ;
#133 = DIRECTION ( 'NONE',  ( 1.000000000000000000, 0.000000000000000000, 0.000000000000000000 ) ) ;
#134 = EDGE_CURVE ( 'NONE', #135, #654, #981, .T. ) ;
#135 = VERTEX_POINT ( 'NONE', #1306 ) ;
#136 = EDGE_LOOP ( 'NONE', ( #1345, #901, #1106, #857 ) ) ;
#137 = LINE ( 'NONE', #963, #974 ) ;
#138 = DIRECTION ( 'NONE',  ( -0.000000000000000000, -0.000000000000000000, 1.000000000000000000 ) ) ;
#139 = VERTEX_POINT ( 'NONE', #363 ) ;
#140 = PLANE ( 'NONE',  #1310 ) ;
#141 = ORIENTED_EDGE ( 'NONE', *, *, #111, .F. ) ;
#142 = ORIENTED_EDGE ( 'NONE', *, *, #604, .T. ) ;
#143 = FACE_OUTER_BOUND ( 'NONE', #472, .T. ) ;
#144 = CARTESIAN_POINT ( 'NONE',  ( -8.485000000000004761, 0.000000000000000000, 3.274244358382711111E-14 ) ) ;
#145 = CARTESIAN_POINT ( 'NONE',  ( 8.174999999999995381, 5.999999999999999112, 0.000000000000000000 ) ) ;
#146 = VECTOR ( 'NONE', #1005, 39.37007874015748143 ) ;
#147 = VECTOR ( 'NONE', #971, 39.37007874015748143 ) ;
#148 = CARTESIAN_POINT ( 'NONE',  ( -8.365000000000003766, 7.309999999999996945, -1.195183497228115035E-16 ) ) ;
#149 = VECTOR ( 'NONE', #1266, 39.37007874015748143 ) ;
#150 = ORIENTED_EDGE ( 'NONE', *, *, #296, .F. ) ;
#151 = DIRECTION ( 'NONE',  ( -1.000000000000000000, 0.000000000000000000, 0.000000000000000000 ) ) ;
#152 = FACE_OUTER_BOUND ( 'NONE', #559, .T. ) ;
#153 = EDGE_CURVE ( 'NONE', #955, #940, #779, .T. ) ;
#154 = CARTESIAN_POINT ( 'NONE',  ( -6.605000000000003091, 2.380000000000000338, 0.000000000000000000 ) ) ;
#155 = CARTESIAN_POINT ( 'NONE',  ( 8.269999999999994245, 0.000000000000000000, 0.000000000000000000 ) ) ;
#156 = ORIENTED_EDGE ( 'NONE', *, *, #589, .F. ) ;
#157 = CARTESIAN_POINT ( 'NONE',  ( 8.079999999999994742, -6.000000000000001776, -0.05999999999999997696 ) ) ;
#158 = CARTESIAN_POINT ( 'NONE',  ( -8.485000000000004761, 7.309999999999999609, -0.06003937007874015491 ) ) ;
#159 = DIRECTION ( 'NONE',  ( 1.000000000000000000, 0.000000000000000000, -0.000000000000000000 ) ) ;
#160 = ADVANCED_FACE ( 'NONE', ( #205 ), #903, .F. ) ;
#161 = DIRECTION ( 'NONE',  ( 0.000000000000000000, -1.000000000000000000, 0.000000000000000000 ) ) ;
#162 = ORIENTED_EDGE ( 'NONE', *, *, #290, .F. ) ;
#163 = CARTESIAN_POINT ( 'NONE',  ( 8.079999999999994742, -6.000000000000001776, -0.6300393700787404461 ) ) ;
#164 = CYLINDRICAL_SURFACE ( 'NONE', #752, 0.09499999999999994560 ) ;
#165 = DIRECTION ( 'NONE',  ( -0.000000000000000000, 0.000000000000000000, -1.000000000000000000 ) ) ;
#166 = LINE ( 'NONE', #52, #1311 ) ;
#167 = EDGE_CURVE ( 'NONE', #53, #599, #492, .T. ) ;
#168 = VECTOR ( 'NONE', #1242, 39.37007874015748143 ) ;
#169 = ORIENTED_EDGE ( 'NONE', *, *, #758, .T. ) ;
#170 = VECTOR ( 'NONE', #361, 39.37007874015748143 ) ;
#171 = ORIENTED_EDGE ( 'NONE', *, *, #193, .F. ) ;
#172 = CARTESIAN_POINT ( 'NONE',  ( -8.485000000000006537, -7.309999999999999609, -0.6300000000000000044 ) ) ;
#173 = CIRCLE ( 'NONE', #781, 0.09499999999999994560 ) ;
#174 = DIRECTION ( 'NONE',  ( -0.000000000000000000, 3.834172622686683600E-15, 1.000000000000000000 ) ) ;
#175 = DIRECTION ( 'NONE',  ( 0.000000000000000000, 3.834172622686683600E-15, 1.000000000000000000 ) ) ;
#176 = ORIENTED_EDGE ( 'NONE', *, *, #290, .T. ) ;
#177 = EDGE_CURVE ( 'NONE', #313, #745, #1009, .T. ) ;
#178 = EDGE_LOOP ( 'NONE', ( #1003, #196, #80, #110 ) ) ;
#179 = DIRECTION ( 'NONE',  ( -1.000000000000000000, -0.000000000000000000, 3.835990623682900600E-15 ) ) ;
#180 = DIRECTION ( 'NONE',  ( 0.000000000000000000, 0.000000000000000000, 1.000000000000000000 ) ) ;
#181 = LINE ( 'NONE', #1011, #428 ) ;
#182 = EDGE_CURVE ( 'NONE', #1178, #738, #899, .T. ) ;
#183 = ORIENTED_EDGE ( 'NONE', *, *, #1141, .F. ) ;
#184 = CARTESIAN_POINT ( 'NONE',  ( -8.485000000000004761, -7.309999999999999609, -0.1199999999999995792 ) ) ;
#185 = PLANE ( 'NONE',  #653 ) ;
#186 = DIRECTION ( 'NONE',  ( -1.000000000000000000, -0.000000000000000000, 0.000000000000000000 ) ) ;
#187 = CIRCLE ( 'NONE', #364, 0.1139999999999999347 ) ;
#188 = EDGE_LOOP ( 'NONE', ( #402, #848 ) ) ;
#189 = DIRECTION ( 'NONE',  ( 1.000000000000000000, 0.000000000000000000, -3.491481338843134539E-15 ) ) ;
#190 = CIRCLE ( 'NONE', #1224, 0.1199999999999999262 ) ;
#191 = CARTESIAN_POINT ( 'NONE',  ( 8.269999999999994245, -6.000000000000001776, -0.6300393700787404461 ) ) ;
#192 = CIRCLE ( 'NONE', #391, 0.09499999999999994560 ) ;
#193 = EDGE_CURVE ( 'NONE', #260, #1027, #89, .T. ) ;
#194 = DIRECTION ( 'NONE',  ( -1.000000000000000000, 0.000000000000000000, 0.000000000000000000 ) ) ;
#195 = DIRECTION ( 'NONE',  ( 1.000000000000000000, 0.000000000000000000, 0.000000000000000000 ) ) ;
#196 = ORIENTED_EDGE ( 'NONE', *, *, #296, .T. ) ;
#197 =( NAMED_UNIT ( * ) SI_UNIT ( $, .STERADIAN. ) SOLID_ANGLE_UNIT ( ) );
#198 = DIRECTION ( 'NONE',  ( -0.000000000000000000, -1.000000000000000000, -0.000000000000000000 ) ) ;
#199 = ADVANCED_FACE ( 'NONE', ( #293 ), #71, .F. ) ;
#200 = SURFACE_STYLE_USAGE ( .BOTH. , #386 ) ;
#201 = ORIENTED_EDGE ( 'NONE', *, *, #1229, .F. ) ;
#202 = PLANE ( 'NONE',  #1061 ) ;
#203 = EDGE_LOOP ( 'NONE', ( #10, #520 ) ) ;
#204 = LINE ( 'NONE', #941, #886 ) ;
#205 = FACE_OUTER_BOUND ( 'NONE', #1259, .T. ) ;
#206 = ORIENTED_EDGE ( 'NONE', *, *, #109, .F. ) ;
#207 = DIRECTION ( 'NONE',  ( 0.000000000000000000, -1.000000000000000000, 0.000000000000000000 ) ) ;
#208 = ADVANCED_FACE ( 'NONE', ( #914 ), #1022, .F. ) ;
#209 = ORIENTED_EDGE ( 'NONE', *, *, #270, .F. ) ;
#210 =( LENGTH_UNIT ( ) NAMED_UNIT ( * ) SI_UNIT ( $, .METRE. ) );
#211 = AXIS2_PLACEMENT_3D ( 'NONE', #611, #600, #705 ) ;
#212 = AXIS2_PLACEMENT_3D ( 'NONE', #1248, #1234, #620 ) ;
#213 = DIRECTION ( 'NONE',  ( -0.000000000000000000, -0.000000000000000000, 1.000000000000000000 ) ) ;
#214 = CIRCLE ( 'NONE', #326, 0.1139999999999999347 ) ;
#215 = AXIS2_PLACEMENT_3D ( 'NONE', #966, #39, #120 ) ;
#216 = ORIENTED_EDGE ( 'NONE', *, *, #982, .F. ) ;
#217 = CARTESIAN_POINT ( 'NONE',  ( 8.174999999999995381, -6.000000000000001776, -0.05999999999999997696 ) ) ;
#218 = ADVANCED_FACE ( 'NONE', ( #1238 ), #96, .F. ) ;
#219 = ORIENTED_EDGE ( 'NONE', *, *, #1185, .T. ) ;
#220 = DIRECTION ( 'NONE',  ( 0.000000000000000000, 0.000000000000000000, 1.000000000000000000 ) ) ;
#221 = CARTESIAN_POINT ( 'NONE',  ( 8.484999999999995879, 7.439999999999999503, -0.1199999999999998151 ) ) ;
#222 = VERTEX_POINT ( 'NONE', #385 ) ;
#223 = DIRECTION ( 'NONE',  ( 1.000000000000000000, 0.000000000000000000, 0.000000000000000000 ) ) ;
#224 = ORIENTED_EDGE ( 'NONE', *, *, #927, .T. ) ;
#225 = EDGE_CURVE ( 'NONE', #1027, #581, #1122, .T. ) ;
#226 = CARTESIAN_POINT ( 'NONE',  ( -8.141000000000001791, 1.910449006669872628E-17, -0.05999999999999997696 ) ) ;
#227 = DIRECTION ( 'NONE',  ( 1.000000000000000000, 0.000000000000000000, 0.000000000000000000 ) ) ;
#228 = ORIENTED_EDGE ( 'NONE', *, *, #546, .F. ) ;
#229 = ORIENTED_EDGE ( 'NONE', *, *, #973, .F. ) ;
#230 = DIRECTION ( 'NONE',  ( 0.000000000000000000, 0.000000000000000000, 1.000000000000000000 ) ) ;
#231 = CYLINDRICAL_SURFACE ( 'NONE', #540, 0.1139999999999999347 ) ;
#232 = ORIENTED_EDGE ( 'NONE', *, *, #341, .F. ) ;
#233 = EDGE_CURVE ( 'NONE', #303, #1115, #1251, .T. ) ;
#234 = CIRCLE ( 'NONE', #453, 0.09499999999999994560 ) ;
#235 = VECTOR ( 'NONE', #1132, 39.37007874015748143 ) ;
#236 = PLANE ( 'NONE',  #672 ) ;
#237 = VECTOR ( 'NONE', #74, 39.37007874015748143 ) ;
#238 = VERTEX_POINT ( 'NONE', #392 ) ;
#239 = ORIENTED_EDGE ( 'NONE', *, *, #717, .T. ) ;
#240 = CARTESIAN_POINT ( 'NONE',  ( -8.365000000000003766, 7.309999999999996945, -0.06000000000000012962 ) ) ;
#241 = CARTESIAN_POINT ( 'NONE',  ( -8.295000000000003482, 7.500000000000001776, -0.6300000000000000044 ) ) ;
#242 = ORIENTED_EDGE ( 'NONE', *, *, #519, .F. ) ;
#243 = EDGE_CURVE ( 'NONE', #139, #990, #586, .T. ) ;
#244 = DIRECTION ( 'NONE',  ( 0.000000000000000000, 3.491481338843134539E-15, 1.000000000000000000 ) ) ;
#245 = ORIENTED_EDGE ( 'NONE', *, *, #1173, .T. ) ;
#246 = EDGE_LOOP ( 'NONE', ( #338, #895, #766, #591 ) ) ;
#247 = PLANE ( 'NONE',  #83 ) ;
#248 = CARTESIAN_POINT ( 'NONE',  ( 8.484999999999995879, 7.379999999999999005, -0.05999999999999999778 ) ) ;
#249 = DIRECTION ( 'NONE',  ( -0.000000000000000000, -0.000000000000000000, 1.000000000000000000 ) ) ;
#250 = PLANE ( 'NONE',  #997 ) ;
#251 = EDGE_LOOP ( 'NONE', ( #228, #458, #593, #376 ) ) ;
#252 = EDGE_CURVE ( 'NONE', #1297, #113, #797, .T. ) ;
#253 = DIRECTION ( 'NONE',  ( 0.000000000000000000, -1.000000000000000000, -3.834172622686683600E-15 ) ) ;
#254 = LINE ( 'NONE', #1300, #819 ) ;
#255 = DIRECTION ( 'NONE',  ( -1.000000000000000000, 0.000000000000000000, 0.000000000000000000 ) ) ;
#256 = CIRCLE ( 'NONE', #1107, 0.1199999999999999262 ) ;
#257 = VECTOR ( 'NONE', #1324, 39.37007874015748143 ) ;
#258 = DIRECTION ( 'NONE',  ( 1.000000000000000000, 0.000000000000000000, 0.000000000000000000 ) ) ;
#259 = VECTOR ( 'NONE', #850, 39.37007874015748143 ) ;
#260 = VERTEX_POINT ( 'NONE', #815 ) ;
#261 = ADVANCED_FACE ( 'NONE', ( #804 ), #306, .F. ) ;
#262 = ORIENTED_EDGE ( 'NONE', *, *, #24, .T. ) ;
#263 = DIRECTION ( 'NONE',  ( 1.000000000000000000, 0.000000000000000000, -3.491481338843134539E-15 ) ) ;
#264 = CARTESIAN_POINT ( 'NONE',  ( 8.174999999999995381, 5.999999999999999112, -0.6300393700787404461 ) ) ;
#265 = DIRECTION ( 'NONE',  ( 1.000000000000000000, 0.000000000000000000, 0.000000000000000000 ) ) ;
#266 = DIRECTION ( 'NONE',  ( 0.000000000000000000, 1.000000000000000000, 3.699377491420362432E-15 ) ) ;
#267 = VERTEX_POINT ( 'NONE', #288 ) ;
#268 = VERTEX_POINT ( 'NONE', #701 ) ;
#269 = LINE ( 'NONE', #686, #1038 ) ;
#270 = EDGE_CURVE ( 'NONE', #685, #745, #1117, .T. ) ;
#271 = CARTESIAN_POINT ( 'NONE',  ( -8.295000000000001705, -7.500000000000003553, -0.6300000000000000044 ) ) ;
#272 = EDGE_CURVE ( 'NONE', #415, #316, #256, .T. ) ;
#273 = CARTESIAN_POINT ( 'NONE',  ( 8.484999999999994102, -7.500000000000003553, -0.6300000000000000044 ) ) ;
#274 = ORIENTED_EDGE ( 'NONE', *, *, #911, .T. ) ;
#275 = EDGE_LOOP ( 'NONE', ( #480, #1269, #938, #510 ) ) ;
#276 = CARTESIAN_POINT ( 'NONE',  ( -6.491000000000003212, -2.379999999999999893, -0.6300393700787404461 ) ) ;
#277 = CARTESIAN_POINT ( 'NONE',  ( 8.484999999999994102, -7.440000000000003944, -0.6300000000000002265 ) ) ;
#278 = CARTESIAN_POINT ( 'NONE',  ( 8.484999999999994102, -7.440000000000001279, -0.06000000000000001860 ) ) ;
#279 = EDGE_CURVE ( 'NONE', #575, #745, #1199, .T. ) ;
#280 = CARTESIAN_POINT ( 'NONE',  ( -8.295000000000003482, -7.500000000000001776, 0.000000000000000000 ) ) ;
#281 = VECTOR ( 'NONE', #876, 39.37007874015748143 ) ;
#282 = ORIENTED_EDGE ( 'NONE', *, *, #252, .T. ) ;
#283 = AXIS2_PLACEMENT_3D ( 'NONE', #882, #1313, #1209 ) ;
#284 = VECTOR ( 'NONE', #689, 39.37007874015748143 ) ;
#285 = ORIENTED_EDGE ( 'NONE', *, *, #1339, .F. ) ;
#286 = DIRECTION ( 'NONE',  ( 1.000000000000000000, 0.000000000000000000, 0.000000000000000000 ) ) ;
#287 = VECTOR ( 'NONE', #1250, 39.37007874015748143 ) ;
#288 = CARTESIAN_POINT ( 'NONE',  ( 8.269999999999994245, 5.999999999999999112, -0.05999999999999997696 ) ) ;
#289 = FILL_AREA_STYLE_COLOUR ( '', #1063 ) ;
#290 = EDGE_CURVE ( 'NONE', #399, #1220, #187, .T. ) ;
#291 = ORIENTED_EDGE ( 'NONE', *, *, #434, .T. ) ;
#292 = DIRECTION ( 'NONE',  ( 0.000000000000000000, -0.000000000000000000, 1.000000000000000000 ) ) ;
#293 = FACE_OUTER_BOUND ( 'NONE', #1255, .T. ) ;
#294 = DIRECTION ( 'NONE',  ( -0.000000000000000000, -0.000000000000000000, 1.000000000000000000 ) ) ;
#295 = DIRECTION ( 'NONE',  ( -1.000000000000000000, 0.000000000000000000, 3.841661241090376129E-15 ) ) ;
#296 = EDGE_CURVE ( 'NONE', #1012, #313, #633, .T. ) ;
#297 = VERTEX_POINT ( 'NONE', #936 ) ;
#298 = CARTESIAN_POINT ( 'NONE',  ( -8.485000000000001208, -7.310000000000001386, -0.05999999999999999778 ) ) ;
#299 = CARTESIAN_POINT ( 'NONE',  ( -6.491000000000003212, 2.380000000000000338, -0.6300393700787404461 ) ) ;
#300 = CARTESIAN_POINT ( 'NONE',  ( -8.295000000000001705, -7.440000000000003944, -0.6300000000000002265 ) ) ;
#301 = DIRECTION ( 'NONE',  ( 0.000000000000000000, -1.000000000000000000, 0.000000000000000000 ) ) ;
#302 = VECTOR ( 'NONE', #892, 39.37007874015748143 ) ;
#303 = VERTEX_POINT ( 'NONE', #845 ) ;
#304 = AXIS2_PLACEMENT_3D ( 'NONE', #362, #372, #785 ) ;
#305 = EDGE_CURVE ( 'NONE', #1099, #1348, #535, .T. ) ;
#306 = CYLINDRICAL_SURFACE ( 'NONE', #839, 0.1139999999999999347 ) ;
#307 = AXIS2_PLACEMENT_3D ( 'NONE', #490, #896, #286 ) ;
#308 = ORIENTED_EDGE ( 'NONE', *, *, #1356, .T. ) ;
#309 = ORIENTED_EDGE ( 'NONE', *, *, #655, .T. ) ;
#310 = DIRECTION ( 'NONE',  ( 1.000000000000000000, 0.000000000000000000, 0.000000000000000000 ) ) ;
#311 = ADVANCED_FACE ( 'NONE', ( #1277 ), #21, .T. ) ;
#312 = SURFACE_STYLE_FILL_AREA ( #509 ) ;
#313 = VERTEX_POINT ( 'NONE', #747 ) ;
#314 = ADVANCED_FACE ( 'NONE', ( #318 ), #231, .F. ) ;
#315 = FACE_BOUND ( 'NONE', #1352, .T. ) ;
#316 = VERTEX_POINT ( 'NONE', #958 ) ;
#317 = DIRECTION ( 'NONE',  ( 0.000000000000000000, 0.000000000000000000, 1.000000000000000000 ) ) ;
#318 = FACE_OUTER_BOUND ( 'NONE', #621, .T. ) ;
#319 = ORIENTED_EDGE ( 'NONE', *, *, #537, .T. ) ;
#320 = EDGE_CURVE ( 'NONE', #1012, #135, #437, .T. ) ;
#321 = DIRECTION ( 'NONE',  ( 0.000000000000000000, -0.000000000000000000, -1.000000000000000000 ) ) ;
#322 = ORIENTED_EDGE ( 'NONE', *, *, #898, .T. ) ;
#323 = AXIS2_PLACEMENT_3D ( 'NONE', #400, #410, #1332 ) ;
#324 = VECTOR ( 'NONE', #547, 39.37007874015748143 ) ;
#325 = CARTESIAN_POINT ( 'NONE',  ( 8.174999999999995381, -6.000000000000001776, -0.6300393700787404461 ) ) ;
#326 = AXIS2_PLACEMENT_3D ( 'NONE', #463, #374, #782 ) ;
#327 = ORIENTED_EDGE ( 'NONE', *, *, #931, .F. ) ;
#328 = CARTESIAN_POINT ( 'NONE',  ( -7.985000000000002096, 0.000000000000000000, 0.000000000000000000 ) ) ;
#329 = ORIENTED_EDGE ( 'NONE', *, *, #824, .F. ) ;
#330 = PLANE ( 'NONE',  #798 ) ;
#331 = ORIENTED_EDGE ( 'NONE', *, *, #1119, .T. ) ;
#332 = DIRECTION ( 'NONE',  ( -1.000000000000000000, 0.000000000000000000, 0.000000000000000000 ) ) ;
#333 = ORIENTED_EDGE ( 'NONE', *, *, #918, .F. ) ;
#334 = ADVANCED_FACE ( 'NONE', ( #623 ), #856, .F. ) ;
#335 = CYLINDRICAL_SURFACE ( 'NONE', #1109, 0.09499999999999994560 ) ;
#336 = ORIENTED_EDGE ( 'NONE', *, *, #1042, .F. ) ;
#337 = DIRECTION ( 'NONE',  ( 0.000000000000000000, 0.000000000000000000, 1.000000000000000000 ) ) ;
#338 = ORIENTED_EDGE ( 'NONE', *, *, #512, .F. ) ;
#339 = CARTESIAN_POINT ( 'NONE',  ( 8.484999999999995879, 7.499999999999999112, 2.896578355048071176E-14 ) ) ;
#340 = CARTESIAN_POINT ( 'NONE',  ( -6.605000000000003091, -2.379999999999999893, -0.6300393700787404461 ) ) ;
#341 = EDGE_CURVE ( 'NONE', #1099, #1143, #1051, .T. ) ;
#342 = VERTEX_POINT ( 'NONE', #644 ) ;
#343 = CIRCLE ( 'NONE', #969, 0.05999999999999990757 ) ;
#344 = CARTESIAN_POINT ( 'NONE',  ( -8.295000000000001705, -7.500000000000001776, -0.1199999999999995931 ) ) ;
#345 = ORIENTED_EDGE ( 'NONE', *, *, #439, .F. ) ;
#346 = DIRECTION ( 'NONE',  ( 1.000000000000000000, 0.000000000000000000, 0.000000000000000000 ) ) ;
#347 = CARTESIAN_POINT ( 'NONE',  ( -8.485000000000004761, 7.309999999999996945, 3.274244358382711111E-14 ) ) ;
#348 = ADVANCED_FACE ( 'NONE', ( #1182 ), #552, .T. ) ;
#349 = DIRECTION ( 'NONE',  ( 1.000000000000000000, 0.000000000000000000, -0.000000000000000000 ) ) ;
#350 = EDGE_CURVE ( 'NONE', #700, #940, #524, .T. ) ;
#351 = CARTESIAN_POINT ( 'NONE',  ( -8.425000000000004263, -7.309999999999999609, -0.06000000000000001860 ) ) ;
#352 = ORIENTED_EDGE ( 'NONE', *, *, #153, .T. ) ;
#353 = ORIENTED_EDGE ( 'NONE', *, *, #1235, .F. ) ;
#354 = CARTESIAN_POINT ( 'NONE',  ( 8.484999999999995879, 7.379999999999999005, -0.1200000000000000372 ) ) ;
#355 = LINE ( 'NONE', #1305, #1330 ) ;
#356 = CARTESIAN_POINT ( 'NONE',  ( -8.365000000000003766, -7.309999999999999609, -0.06000000000000012962 ) ) ;
#357 = CARTESIAN_POINT ( 'NONE',  ( -7.829000000000002402, 0.000000000000000000, -0.05999999999999997696 ) ) ;
#358 = EDGE_CURVE ( 'NONE', #267, #7, #932, .T. ) ;
#359 = ORIENTED_EDGE ( 'NONE', *, *, #1042, .T. ) ;
#360 = VERTEX_POINT ( 'NONE', #221 ) ;
#361 = DIRECTION ( 'NONE',  ( -0.000000000000000000, -1.000000000000000000, 3.835990623682900600E-15 ) ) ;
#362 = CARTESIAN_POINT ( 'NONE',  ( -6.605000000000003091, 2.380000000000000338, -0.05999999999999997696 ) ) ;
#363 = CARTESIAN_POINT ( 'NONE',  ( -8.295000000000003482, 7.379999999999999005, -0.05999999999999999778 ) ) ;
#364 = AXIS2_PLACEMENT_3D ( 'NONE', #754, #1284, #123 ) ;
#365 = VECTOR ( 'NONE', #577, 39.37007874015748143 ) ;
#366 = LINE ( 'NONE', #148, #780 ) ;
#367 = VECTOR ( 'NONE', #1018, 39.37007874015748143 ) ;
#368 = ADVANCED_FACE ( 'NONE', ( #1152 ), #335, .F. ) ;
#369 = VERTEX_POINT ( 'NONE', #112 ) ;
#370 = VECTOR ( 'NONE', #583, 39.37007874015748143 ) ;
#371 = DIRECTION ( 'NONE',  ( 1.000000000000000000, 0.000000000000000000, 0.000000000000000000 ) ) ;
#372 = DIRECTION ( 'NONE',  ( -0.000000000000000000, -0.000000000000000000, 1.000000000000000000 ) ) ;
#373 = CARTESIAN_POINT ( 'NONE',  ( 0.000000000000000000, -7.500000000000003553, -0.6300000000000000044 ) ) ;
#374 = DIRECTION ( 'NONE',  ( 0.000000000000000000, 0.000000000000000000, 1.000000000000000000 ) ) ;
#375 = EDGE_LOOP ( 'NONE', ( #690, #724, #274, #1125 ) ) ;
#376 = ORIENTED_EDGE ( 'NONE', *, *, #1058, .F. ) ;
#377 = CARTESIAN_POINT ( 'NONE',  ( 8.174999999999995381, 0.000000000000000000, 0.000000000000000000 ) ) ;
#378 = CARTESIAN_POINT ( 'NONE',  ( -8.295000000000003482, -7.500000000000001776, -0.05999999999999999778 ) ) ;
#379 = ADVANCED_FACE ( 'NONE', ( #830 ), #330, .F. ) ;
#380 = PLANE ( 'NONE',  #649 ) ;
#381 = FACE_OUTER_BOUND ( 'NONE', #1036, .T. ) ;
#382 = ORIENTED_EDGE ( 'NONE', *, *, #1173, .F. ) ;
#383 = DIRECTION ( 'NONE',  ( -1.000000000000000000, 0.000000000000000000, 0.000000000000000000 ) ) ;
#384 = CARTESIAN_POINT ( 'NONE',  ( 8.174999999999995381, -6.000000000000001776, -0.05999999999999997696 ) ) ;
#385 = CARTESIAN_POINT ( 'NONE',  ( -8.295000000000001705, -7.310000000000001386, 0.000000000000000000 ) ) ;
#386 = SURFACE_SIDE_STYLE ('',( #312 ) ) ;
#387 = AXIS2_PLACEMENT_3D ( 'NONE', #1197, #988, #255 ) ;
#388 = VECTOR ( 'NONE', #1205, 39.37007874015748143 ) ;
#389 = ORIENTED_EDGE ( 'NONE', *, *, #722, .T. ) ;
#390 = FACE_OUTER_BOUND ( 'NONE', #513, .T. ) ;
#391 = AXIS2_PLACEMENT_3D ( 'NONE', #704, #576, #383 ) ;
#392 = CARTESIAN_POINT ( 'NONE',  ( 8.484999999999995879, 7.499999999999999112, -0.1199999999999995931 ) ) ;
#393 = PLANE ( 'NONE',  #541 ) ;
#394 = ORIENTED_EDGE ( 'NONE', *, *, #405, .F. ) ;
#395 = LINE ( 'NONE', #276, #1133 ) ;
#396 = DIRECTION ( 'NONE',  ( 1.000000000000000000, 0.000000000000000000, -0.000000000000000000 ) ) ;
#397 = DIRECTION ( 'NONE',  ( 0.000000000000000000, -0.000000000000000000, -1.000000000000000000 ) ) ;
#398 = EDGE_CURVE ( 'NONE', #1286, #990, #728, .T. ) ;
#399 = VERTEX_POINT ( 'NONE', #742 ) ;
#400 = CARTESIAN_POINT ( 'NONE',  ( -8.295000000000003482, 7.379999999999999005, -0.1200000000000000372 ) ) ;
#401 =( NAMED_UNIT ( * ) SI_UNIT ( $, .STERADIAN. ) SOLID_ANGLE_UNIT ( ) );
#402 = ORIENTED_EDGE ( 'NONE', *, *, #1281, .F. ) ;
#403 = PLANE ( 'NONE',  #631 ) ;
#404 = AXIS2_PLACEMENT_3D ( 'NONE', #154, #770, #573 ) ;
#405 = EDGE_CURVE ( 'NONE', #360, #238, #355, .T. ) ;
#406 = ORIENTED_EDGE ( 'NONE', *, *, #1068, .T. ) ;
#407 = LINE ( 'NONE', #116, #287 ) ;
#408 = VECTOR ( 'NONE', #501, 39.37007874015748143 ) ;
#409 = ADVANCED_FACE ( 'NONE', ( #763 ), #1095, .F. ) ;
#410 = DIRECTION ( 'NONE',  ( -1.000000000000000000, -0.000000000000000000, -0.000000000000000000 ) ) ;
#411 = AXIS2_PLACEMENT_3D ( 'NONE', #130, #230, #861 ) ;
#412 = CARTESIAN_POINT ( 'NONE',  ( -8.485000000000004761, -7.309999999999999609, -0.05999999999999978961 ) ) ;
#413 = ORIENTED_EDGE ( 'NONE', *, *, #51, .F. ) ;
#414 = CYLINDRICAL_SURFACE ( 'NONE', #566, 0.1199999999999998151 ) ;
#415 = VERTEX_POINT ( 'NONE', #584 ) ;
#416 = CARTESIAN_POINT ( 'NONE',  ( -8.295000000000001705, -7.380000000000001670, -0.1200000000000000372 ) ) ;
#417 = DIRECTION ( 'NONE',  ( -0.000000000000000000, -0.000000000000000000, 1.000000000000000000 ) ) ;
#418 = EDGE_CURVE ( 'NONE', #446, #139, #254, .T. ) ;
#419 = ORIENTED_EDGE ( 'NONE', *, *, #92, .T. ) ;
#420 = FACE_OUTER_BOUND ( 'NONE', #251, .T. ) ;
#421 = ORIENTED_EDGE ( 'NONE', *, *, #66, .F. ) ;
#422 = CARTESIAN_POINT ( 'NONE',  ( -6.491000000000003212, -2.379999999999999893, -0.05999999999999997696 ) ) ;
#423 = DIRECTION ( 'NONE',  ( 0.000000000000000000, 0.000000000000000000, 1.000000000000000000 ) ) ;
#424 = ORIENTED_EDGE ( 'NONE', *, *, #717, .F. ) ;
#425 = DIRECTION ( 'NONE',  ( 0.000000000000000000, -1.000000000000000000, -3.834172622686683600E-15 ) ) ;
#426 = ORIENTED_EDGE ( 'NONE', *, *, #863, .T. ) ;
#427 = CARTESIAN_POINT ( 'NONE',  ( 8.269999999999994245, 0.000000000000000000, -0.05999999999999997696 ) ) ;
#428 = VECTOR ( 'NONE', #707, 39.37007874015748143 ) ;
#429 = CARTESIAN_POINT ( 'NONE',  ( -8.295000000000003482, 7.439999999999999503, -0.06000000000000001860 ) ) ;
#430 = AXIS2_PLACEMENT_3D ( 'NONE', #486, #683, #175 ) ;
#431 = CIRCLE ( 'NONE', #714, 0.05999999999999990757 ) ;
#432 = EDGE_LOOP ( 'NONE', ( #1246, #156, #646, #984 ) ) ;
#433 = CARTESIAN_POINT ( 'NONE',  ( 8.484999999999995879, 7.440000000000001279, -0.6300000000000002265 ) ) ;
#434 = EDGE_CURVE ( 'NONE', #823, #729, #891, .T. ) ;
#435 = ORIENTED_EDGE ( 'NONE', *, *, #1333, .F. ) ;
#436 = LINE ( 'NONE', #339, #259 ) ;
#437 = LINE ( 'NONE', #6, #103 ) ;
#438 = ORIENTED_EDGE ( 'NONE', *, *, #556, .T. ) ;
#439 = EDGE_CURVE ( 'NONE', #823, #32, #49, .T. ) ;
#440 = ORIENTED_EDGE ( 'NONE', *, *, #68, .F. ) ;
#441 = DIRECTION ( 'NONE',  ( -0.000000000000000000, -0.000000000000000000, 1.000000000000000000 ) ) ;
#442 = DIRECTION ( 'NONE',  ( -0.000000000000000000, -0.000000000000000000, 1.000000000000000000 ) ) ;
#443 = EDGE_LOOP ( 'NONE', ( #456, #1275, #753, #1236 ) ) ;
#444 = DIRECTION ( 'NONE',  ( 0.000000000000000000, 0.000000000000000000, 1.000000000000000000 ) ) ;
#445 = EDGE_LOOP ( 'NONE', ( #846, #699, #245, #1174 ) ) ;
#446 = VERTEX_POINT ( 'NONE', #248 ) ;
#447 = CARTESIAN_POINT ( 'NONE',  ( -7.985000000000002096, 0.000000000000000000, 0.000000000000000000 ) ) ;
#448 = AXIS2_PLACEMENT_3D ( 'NONE', #325, #1045, #652 ) ;
#449 = FACE_OUTER_BOUND ( 'NONE', #136, .T. ) ;
#450 = EDGE_CURVE ( 'NONE', #1290, #743, #995, .T. ) ;
#451 = VECTOR ( 'NONE', #198, 39.37007874015748143 ) ;
#452 = CARTESIAN_POINT ( 'NONE',  ( -7.829000000000002402, 0.000000000000000000, -0.6300393700787404461 ) ) ;
#453 = AXIS2_PLACEMENT_3D ( 'NONE', #659, #138, #35 ) ;
#454 = AXIS2_PLACEMENT_3D ( 'NONE', #217, #1047, #9 ) ;
#455 = CYLINDRICAL_SURFACE ( 'NONE', #712, 0.09499999999999994560 ) ;
#456 = ORIENTED_EDGE ( 'NONE', *, *, #481, .F. ) ;
#457 = APPLICATION_PROTOCOL_DEFINITION ( 'draft international standard', 'automotive_design', 1998, #465 ) ;
#458 = ORIENTED_EDGE ( 'NONE', *, *, #1356, .F. ) ;
#459 = DIRECTION ( 'NONE',  ( -1.000000000000000000, 0.000000000000000000, -0.000000000000000000 ) ) ;
#460 = DIRECTION ( 'NONE',  ( 1.000000000000000000, 0.000000000000000000, 0.000000000000000000 ) ) ;
#461 = DIRECTION ( 'NONE',  ( 1.000000000000000000, 0.000000000000000000, 0.000000000000000000 ) ) ;
#462 = EDGE_CURVE ( 'NONE', #313, #1297, #1293, .T. ) ;
#463 = CARTESIAN_POINT ( 'NONE',  ( -6.605000000000003091, 2.380000000000000338, 0.000000000000000000 ) ) ;
#464 = UNCERTAINTY_MEASURE_WITH_UNIT (LENGTH_MEASURE( 1.000000000000000082E-05 ), #637, 'distance_accuracy_value', 'NONE');
#465 = APPLICATION_CONTEXT ( 'automotive_design' ) ;
#466 = ORIENTED_EDGE ( 'NONE', *, *, #698, .F. ) ;
#467 = DIRECTION ( 'NONE',  ( -1.000000000000000000, 0.000000000000000000, -0.000000000000000000 ) ) ;
#468 = LINE ( 'NONE', #875, #365 ) ;
#469 = DIRECTION ( 'NONE',  ( -0.000000000000000000, -0.000000000000000000, 1.000000000000000000 ) ) ;
#470 = ADVANCED_FACE ( 'NONE', ( #152 ), #164, .F. ) ;
#471 = DIRECTION ( 'NONE',  ( -0.000000000000000000, -0.000000000000000000, 1.000000000000000000 ) ) ;
#472 = EDGE_LOOP ( 'NONE', ( #789, #382, #115, #440 ) ) ;
#473 = ORIENTED_EDGE ( 'NONE', *, *, #863, .F. ) ;
#474 = DIRECTION ( 'NONE',  ( -1.000000000000000000, 0.000000000000000000, 0.000000000000000000 ) ) ;
#475 = CARTESIAN_POINT ( 'NONE',  ( 8.484999999999995879, 7.500000000000001776, -0.6300000000000000044 ) ) ;
#476 = AXIS2_PLACEMENT_3D ( 'NONE', #145, #567, #975 ) ;
#477 = VECTOR ( 'NONE', #131, 39.37007874015748143 ) ;
#478 = CARTESIAN_POINT ( 'NONE',  ( -7.985000000000002096, 0.000000000000000000, -0.05999999999999997696 ) ) ;
#479 =( GEOMETRIC_REPRESENTATION_CONTEXT ( 3 ) GLOBAL_UNCERTAINTY_ASSIGNED_CONTEXT ( ( #548 ) ) GLOBAL_UNIT_ASSIGNED_CONTEXT ( ( #922, #718, #401 ) ) REPRESENTATION_CONTEXT ( 'NONE', 'WORKASPACE' ) );
#480 = ORIENTED_EDGE ( 'NONE', *, *, #1068, .F. ) ;
#481 = EDGE_CURVE ( 'NONE', #909, #101, #1189, .T. ) ;
#482 = ORIENTED_EDGE ( 'NONE', *, *, #878, .F. ) ;
#483 = CYLINDRICAL_SURFACE ( 'NONE', #307, 0.1560000000000001941 ) ;
#484 = DIRECTION ( 'NONE',  ( -1.000000000000000000, -0.000000000000000000, -0.000000000000000000 ) ) ;
#485 = DIRECTION ( 'NONE',  ( 0.000000000000000000, 0.000000000000000000, 1.000000000000000000 ) ) ;
#486 = CARTESIAN_POINT ( 'NONE',  ( 0.000000000000000000, -7.500000000000001776, 2.896578355048072439E-14 ) ) ;
#487 = EDGE_LOOP ( 'NONE', ( #309, #991, #748, #525 ) ) ;
#488 = ADVANCED_FACE ( 'NONE', ( #769 ), #1073, .F. ) ;
#489 = EDGE_LOOP ( 'NONE', ( #171, #630, #1154, #531 ) ) ;
#490 = CARTESIAN_POINT ( 'NONE',  ( -7.985000000000002096, 0.000000000000000000, -0.6300393700787404461 ) ) ;
#491 = DIRECTION ( 'NONE',  ( 3.491481338843134539E-15, -0.000000000000000000, 1.000000000000000000 ) ) ;
#492 = LINE ( 'NONE', #1137, #944 ) ;
#493 = DIRECTION ( 'NONE',  ( 1.000000000000000000, 0.000000000000000000, 0.000000000000000000 ) ) ;
#494 = ORIENTED_EDGE ( 'NONE', *, *, #100, .F. ) ;
#495 = DIRECTION ( 'NONE',  ( -0.000000000000000000, -0.000000000000000000, 1.000000000000000000 ) ) ;
#496 = DIRECTION ( 'NONE',  ( -0.000000000000000000, -0.000000000000000000, 1.000000000000000000 ) ) ;
#497 = EDGE_CURVE ( 'NONE', #32, #222, #665, .T. ) ;
#498 = PRESENTATION_STYLE_ASSIGNMENT (( #200 ) ) ;
#499 = CIRCLE ( 'NONE', #387, 0.1139999999999999347 ) ;
#500 = CIRCLE ( 'NONE', #1264, 0.1560000000000001941 ) ;
#501 = DIRECTION ( 'NONE',  ( 0.000000000000000000, 1.000000000000000000, -3.491481338843134539E-15 ) ) ;
#502 = ORIENTED_EDGE ( 'NONE', *, *, #75, .F. ) ;
#503 = CARTESIAN_POINT ( 'NONE',  ( -8.295000000000003482, 7.499999999999999112, -0.1199999999999995931 ) ) ;
#504 = DIRECTION ( 'NONE',  ( 0.000000000000000000, 0.000000000000000000, -1.000000000000000000 ) ) ;
#505 = EDGE_CURVE ( 'NONE', #113, #745, #964, .T. ) ;
#506 = DIRECTION ( 'NONE',  ( -1.000000000000000000, 0.000000000000000000, 0.000000000000000000 ) ) ;
#507 = ORIENTED_EDGE ( 'NONE', *, *, #1326, .F. ) ;
#508 = CARTESIAN_POINT ( 'NONE',  ( -8.485000000000004761, -7.309999999999999609, -0.1199999999999995931 ) ) ;
#509 = FILL_AREA_STYLE ('',( #289 ) ) ;
#510 = ORIENTED_EDGE ( 'NONE', *, *, #1058, .T. ) ;
#511 = CARTESIAN_POINT ( 'NONE',  ( -8.425000000000006040, -7.309999999999999609, -0.6300000000000002265 ) ) ;
#512 = EDGE_CURVE ( 'NONE', #909, #303, #522, .T. ) ;
#513 = EDGE_LOOP ( 'NONE', ( #421, #201, #888, #419 ) ) ;
#514 = DIRECTION ( 'NONE',  ( -0.000000000000000000, -0.000000000000000000, 1.000000000000000000 ) ) ;
#515 = LINE ( 'NONE', #606, #367 ) ;
#516 = EDGE_LOOP ( 'NONE', ( #331, #1317, #772, #1214 ) ) ;
#517 = CARTESIAN_POINT ( 'NONE',  ( -8.295000000000003482, 7.499999999999999112, -0.1199999999999995792 ) ) ;
#518 = VECTOR ( 'NONE', #1271, 39.37007874015748143 ) ;
#519 = EDGE_CURVE ( 'NONE', #685, #1012, #468, .T. ) ;
#520 = ORIENTED_EDGE ( 'NONE', *, *, #100, .T. ) ;
#521 = DIRECTION ( 'NONE',  ( 0.000000000000000000, -1.000000000000000000, -3.491481338843134539E-15 ) ) ;
#522 = CIRCLE ( 'NONE', #304, 0.1139999999999999347 ) ;
#523 = AXIS2_PLACEMENT_3D ( 'NONE', #1304, #970, #775 ) ;
#524 = LINE ( 'NONE', #1161, #477 ) ;
#525 = ORIENTED_EDGE ( 'NONE', *, *, #398, .T. ) ;
#526 = FACE_BOUND ( 'NONE', #873, .T. ) ;
#527 = EDGE_LOOP ( 'NONE', ( #1201, #708 ) ) ;
#528 = DIRECTION ( 'NONE',  ( -0.000000000000000000, -0.000000000000000000, 1.000000000000000000 ) ) ;
#529 = EDGE_CURVE ( 'NONE', #599, #1286, #987, .T. ) ;
#530 = DIRECTION ( 'NONE',  ( -0.000000000000000000, -3.834172622686683600E-15, 1.000000000000000000 ) ) ;
#531 = ORIENTED_EDGE ( 'NONE', *, *, #225, .F. ) ;
#532 = CARTESIAN_POINT ( 'NONE',  ( 8.484999999999995879, -7.500000000000001776, -0.05999999999999999778 ) ) ;
#533 = EDGE_LOOP ( 'NONE', ( #859, #715 ) ) ;
#534 = FACE_OUTER_BOUND ( 'NONE', #761, .T. ) ;
#535 = LINE ( 'NONE', #104, #518 ) ;
#536 = ORIENTED_EDGE ( 'NONE', *, *, #15, .F. ) ;
#537 = EDGE_CURVE ( 'NONE', #1054, #841, #650, .T. ) ;
#538 = CARTESIAN_POINT ( 'NONE',  ( 8.484999999999995879, -7.500000000000001776, -0.05999999999999999778 ) ) ;
#539 = EDGE_LOOP ( 'NONE', ( #482, #1164, #640, #557 ) ) ;
#540 = AXIS2_PLACEMENT_3D ( 'NONE', #340, #442, #737 ) ;
#541 = AXIS2_PLACEMENT_3D ( 'NONE', #1124, #186, #1020 ) ;
#542 = CARTESIAN_POINT ( 'NONE',  ( -8.425000000000004263, 7.309999999999995168, -0.1199999999999998151 ) ) ;
#543 = CIRCLE ( 'NONE', #1244, 0.09499999999999994560 ) ;
#544 = VECTOR ( 'NONE', #1342, 39.37007874015748143 ) ;
#545 = ORIENTED_EDGE ( 'NONE', *, *, #177, .F. ) ;
#546 = EDGE_CURVE ( 'NONE', #297, #1162, #269, .T. ) ;
#547 = DIRECTION ( 'NONE',  ( -0.000000000000000000, 1.000000000000000000, -3.491481338843134539E-15 ) ) ;
#548 = UNCERTAINTY_MEASURE_WITH_UNIT (LENGTH_MEASURE( 1.000000000000000082E-05 ), #922, 'distance_accuracy_value', 'NONE');
#549 = ORIENTED_EDGE ( 'NONE', *, *, #167, .F. ) ;
#550 = CARTESIAN_POINT ( 'NONE',  ( 0.000000000000000000, 0.000000000000000000, 0.000000000000000000 ) ) ;
#551 = CARTESIAN_POINT ( 'NONE',  ( 8.484999999999995879, -7.380000000000001670, 0.000000000000000000 ) ) ;
#552 = CYLINDRICAL_SURFACE ( 'NONE', #587, 0.1199999999999998151 ) ;
#553 = FACE_OUTER_BOUND ( 'NONE', #246, .T. ) ;
#554 = CARTESIAN_POINT ( 'NONE',  ( -6.719000000000002970, -2.379999999999999893, -0.05999999999999997696 ) ) ;
#555 = ORIENTED_EDGE ( 'NONE', *, *, #898, .F. ) ;
#556 = EDGE_CURVE ( 'NONE', #267, #691, #234, .T. ) ;
#557 = ORIENTED_EDGE ( 'NONE', *, *, #109, .T. ) ;
#558 = CARTESIAN_POINT ( 'NONE',  ( -6.605000000000003091, -2.379999999999999893, -0.05999999999999997696 ) ) ;
#559 = EDGE_LOOP ( 'NONE', ( #719, #1257, #1282, #625 ) ) ;
#560 = CYLINDRICAL_SURFACE ( 'NONE', #215, 0.05999999999999990757 ) ;
#561 = ORIENTED_EDGE ( 'NONE', *, *, #1127, .F. ) ;
#562 = ADVANCED_FACE ( 'NONE', ( #449 ), #862, .F. ) ;
#563 = DIRECTION ( 'NONE',  ( 0.000000000000000000, 0.000000000000000000, 1.000000000000000000 ) ) ;
#564 = CIRCLE ( 'NONE', #730, 0.1560000000000001941 ) ;
#565 = DIRECTION ( 'NONE',  ( 1.000000000000000000, -0.000000000000000000, -0.000000000000000000 ) ) ;
#566 = AXIS2_PLACEMENT_3D ( 'NONE', #828, #4, #295 ) ;
#567 = DIRECTION ( 'NONE',  ( 0.000000000000000000, 0.000000000000000000, 1.000000000000000000 ) ) ;
#568 = CARTESIAN_POINT ( 'NONE',  ( -8.295000000000003482, 7.499999999999999112, -0.05999999999999999778 ) ) ;
#569 = ORIENTED_EDGE ( 'NONE', *, *, #243, .F. ) ;
#570 = FACE_OUTER_BOUND ( 'NONE', #660, .T. ) ;
#571 = DIRECTION ( 'NONE',  ( -0.000000000000000000, -0.000000000000000000, 1.000000000000000000 ) ) ;
#572 = EDGE_CURVE ( 'NONE', #599, #316, #1216, .T. ) ;
#573 = DIRECTION ( 'NONE',  ( 1.000000000000000000, 0.000000000000000000, 0.000000000000000000 ) ) ;
#574 = DIRECTION ( 'NONE',  ( 5.751258934030031316E-15, 1.000000000000000000, 0.000000000000000000 ) ) ;
#575 = VERTEX_POINT ( 'NONE', #692 ) ;
#576 = DIRECTION ( 'NONE',  ( -0.000000000000000000, -0.000000000000000000, 1.000000000000000000 ) ) ;
#577 = DIRECTION ( 'NONE',  ( 0.000000000000000000, 1.000000000000000000, 0.000000000000000000 ) ) ;
#578 = CYLINDRICAL_SURFACE ( 'NONE', #818, 0.1139999999999999347 ) ;
#579 = EDGE_CURVE ( 'NONE', #1178, #1074, #82, .T. ) ;
#580 = CARTESIAN_POINT ( 'NONE',  ( 8.484999999999995879, 7.379999999999999005, -0.1200000000000000372 ) ) ;
#581 = VERTEX_POINT ( 'NONE', #277 ) ;
#582 = ORIENTED_EDGE ( 'NONE', *, *, #1200, .T. ) ;
#583 = DIRECTION ( 'NONE',  ( -0.000000000000000000, -0.000000000000000000, 1.000000000000000000 ) ) ;
#584 = CARTESIAN_POINT ( 'NONE',  ( -8.295000000000003482, 7.379999999999999005, 0.000000000000000000 ) ) ;
#585 = DIRECTION ( 'NONE',  ( -0.000000000000000000, 0.000000000000000000, -1.000000000000000000 ) ) ;
#586 = CIRCLE ( 'NONE', #323, 0.05999999999999988676 ) ;
#587 = AXIS2_PLACEMENT_3D ( 'NONE', #1056, #1035, #1066 ) ;
#588 = CARTESIAN_POINT ( 'NONE',  ( 8.269999999999994245, 0.000000000000000000, -0.6300393700787404461 ) ) ;
#589 = EDGE_CURVE ( 'NONE', #238, #1025, #190, .T. ) ;
#590 = PRESENTATION_LAYER_ASSIGNMENT (  '', '', ( #1156 ) ) ;
#591 = ORIENTED_EDGE ( 'NONE', *, *, #233, .F. ) ;
#592 = AXIS2_PLACEMENT_3D ( 'NONE', #354, #459, #48 ) ;
#593 = ORIENTED_EDGE ( 'NONE', *, *, #350, .T. ) ;
#594 = DIRECTION ( 'NONE',  ( -1.000000000000000000, 0.000000000000000000, 0.000000000000000000 ) ) ;
#595 = CARTESIAN_POINT ( 'NONE',  ( -8.485000000000001208, -7.310000000000001386, 0.000000000000000000 ) ) ;
#596 = PLANE ( 'NONE',  #1087 ) ;
#597 = ADVANCED_FACE ( 'NONE', ( #1118, #315, #615, #526, #1254, #820, #720 ), #403, .F. ) ;
#598 = EDGE_CURVE ( 'NONE', #342, #1054, #181, .T. ) ;
#599 = VERTEX_POINT ( 'NONE', #833 ) ;
#600 = DIRECTION ( 'NONE',  ( -0.000000000000000000, -0.000000000000000000, 1.000000000000000000 ) ) ;
#601 = FACE_BOUND ( 'NONE', #721, .T. ) ;
#602 = CYLINDRICAL_SURFACE ( 'NONE', #212, 0.1199999999999998151 ) ;
#603 = ORIENTED_EDGE ( 'NONE', *, *, #911, .F. ) ;
#604 = EDGE_CURVE ( 'NONE', #955, #581, #1142, .T. ) ;
#605 = CARTESIAN_POINT ( 'NONE',  ( -8.295000000000001705, -7.380000000000001670, -0.1200000000000000372 ) ) ;
#606 = CARTESIAN_POINT ( 'NONE',  ( 8.484999999999995879, 7.379999999999999005, -0.06000000000000012962 ) ) ;
#607 = VECTOR ( 'NONE', #921, 39.37007874015748143 ) ;
#608 = CIRCLE ( 'NONE', #1040, 0.1139999999999999347 ) ;
#609 = VECTOR ( 'NONE', #189, 39.37007874015748143 ) ;
#610 = ORIENTED_EDGE ( 'NONE', *, *, #68, .T. ) ;
#611 = CARTESIAN_POINT ( 'NONE',  ( -6.605000000000003091, -2.379999999999999893, -0.6300393700787404461 ) ) ;
#612 = PRODUCT ( '12-6355-03-(16gacr ANSI-61) - K48 - V2-R0', '12-6355-03-(16gacr ANSI-61) - K48 - V2-R0', '', ( #26 ) ) ;
#613 = LINE ( 'NONE', #122, #674 ) ;
#614 = EDGE_LOOP ( 'NONE', ( #150, #1280, #2, #703 ) ) ;
#615 = FACE_BOUND ( 'NONE', #923, .T. ) ;
#616 = ORIENTED_EDGE ( 'NONE', *, *, #871, .T. ) ;
#617 = DIRECTION ( 'NONE',  ( 1.000000000000000000, -0.000000000000000000, -0.000000000000000000 ) ) ;
#618 = ORIENTED_EDGE ( 'NONE', *, *, #305, .T. ) ;
#619 = ADVANCED_FACE ( 'NONE', ( #420 ), #602, .T. ) ;
#620 = DIRECTION ( 'NONE',  ( 0.000000000000000000, -1.000000000000000000, 3.841661241090376129E-15 ) ) ;
#621 = EDGE_LOOP ( 'NONE', ( #1100, #894, #1187, #169 ) ) ;
#622 = DIRECTION ( 'NONE',  ( 0.000000000000000000, -1.000000000000000000, -3.491481338843133750E-15 ) ) ;
#623 = FACE_OUTER_BOUND ( 'NONE', #1071, .T. ) ;
#624 = DIMENSIONAL_EXPONENTS ( 1.000000000000000000, 0.000000000000000000, 0.000000000000000000, 0.000000000000000000, 0.000000000000000000, 0.000000000000000000, 0.000000000000000000 ) ;
#625 = ORIENTED_EDGE ( 'NONE', *, *, #358, .F. ) ;
#626 = VECTOR ( 'NONE', #1211, 39.37007874015748143 ) ;
#627 = CARTESIAN_POINT ( 'NONE',  ( -8.425000000000004263, -7.309999999999999609, -0.1199999999999998151 ) ) ;
#628 = ADVANCED_FACE ( 'NONE', ( #1239 ), #202, .F. ) ;
#629 = AXIS2_PLACEMENT_3D ( 'NONE', #172, #491, #70 ) ;
#630 = ORIENTED_EDGE ( 'NONE', *, *, #1185, .F. ) ;
#631 = AXIS2_PLACEMENT_3D ( 'NONE', #99, #925, #1258 ) ;
#632 = AXIS2_PLACEMENT_3D ( 'NONE', #580, #258, #266 ) ;
#633 = LINE ( 'NONE', #542, #1223 ) ;
#634 = EDGE_LOOP ( 'NONE', ( #1213, #952, #1084, #1169, #795, #741, #121, #107 ) ) ;
#635 = FACE_OUTER_BOUND ( 'NONE', #657, .T. ) ;
#636 = ORIENTED_EDGE ( 'NONE', *, *, #824, .T. ) ;
#637 =( CONVERSION_BASED_UNIT ( 'INCH', #1044 ) LENGTH_UNIT ( ) NAMED_UNIT ( #624 ) );
#638 = ADVANCED_FACE ( 'NONE', ( #812 ), #713, .T. ) ;
#639 = CARTESIAN_POINT ( 'NONE',  ( 8.174999999999995381, 0.000000000000000000, -0.6300393700787404461 ) ) ;
#640 = ORIENTED_EDGE ( 'NONE', *, *, #358, .T. ) ;
#641 = DIRECTION ( 'NONE',  ( -0.000000000000000000, 3.834172622686683600E-15, -1.000000000000000000 ) ) ;
#642 = ORIENTED_EDGE ( 'NONE', *, *, #579, .T. ) ;
#643 =( LENGTH_UNIT ( ) NAMED_UNIT ( * ) SI_UNIT ( $, .METRE. ) );
#644 = CARTESIAN_POINT ( 'NONE',  ( 8.079999999999994742, 1.163414459189982046E-17, -0.05999999999999997696 ) ) ;
#645 = ADVANCED_FACE ( 'NONE', ( #1026 ), #912, .F. ) ;
#646 = ORIENTED_EDGE ( 'NONE', *, *, #1235, .T. ) ;
#647 = CARTESIAN_POINT ( 'NONE',  ( -8.295000000000001705, -7.380000000000001670, -0.06000000000000012962 ) ) ;
#648 = EDGE_LOOP ( 'NONE', ( #677, #582 ) ) ;
#649 = AXIS2_PLACEMENT_3D ( 'NONE', #1103, #349, #585 ) ;
#650 = CIRCLE ( 'NONE', #283, 0.09499999999999994560 ) ;
#651 = DIRECTION ( 'NONE',  ( 0.000000000000000000, 0.000000000000000000, 1.000000000000000000 ) ) ;
#652 = DIRECTION ( 'NONE',  ( 1.000000000000000000, 0.000000000000000000, 0.000000000000000000 ) ) ;
#653 = AXIS2_PLACEMENT_3D ( 'NONE', #412, #1024, #86 ) ;
#654 = VERTEX_POINT ( 'NONE', #511 ) ;
#655 = EDGE_CURVE ( 'NONE', #990, #316, #1346, .T. ) ;
#656 = CARTESIAN_POINT ( 'NONE',  ( 8.174999999999995381, 5.999999999999999112, -0.6300393700787404461 ) ) ;
#657 = EDGE_LOOP ( 'NONE', ( #333, #837, #919, #1007 ) ) ;
#658 = DIRECTION ( 'NONE',  ( 0.000000000000000000, -1.000000000000000000, 0.000000000000000000 ) ) ;
#659 = CARTESIAN_POINT ( 'NONE',  ( 8.174999999999995381, 5.999999999999999112, -0.05999999999999997696 ) ) ;
#660 = EDGE_LOOP ( 'NONE', ( #767, #1184, #1048, #1308 ) ) ;
#661 = LINE ( 'NONE', #731, #1085 ) ;
#662 = ADVANCED_FACE ( 'NONE', ( #1354 ), #414, .T. ) ;
#663 = ORIENTED_EDGE ( 'NONE', *, *, #182, .T. ) ;
#664 = FACE_OUTER_BOUND ( 'NONE', #1067, .T. ) ;
#665 = LINE ( 'NONE', #671, #733 ) ;
#666 = DIRECTION ( 'NONE',  ( -1.000000000000000000, 0.000000000000000000, 0.000000000000000000 ) ) ;
#667 = FACE_OUTER_BOUND ( 'NONE', #22, .T. ) ;
#668 = ORIENTED_EDGE ( 'NONE', *, *, #193, .T. ) ;
#669 = DIRECTION ( 'NONE',  ( 0.000000000000000000, -1.000000000000000000, 3.835990623682900600E-15 ) ) ;
#670 = CIRCLE ( 'NONE', #1241, 0.05999999999999988676 ) ;
#671 = CARTESIAN_POINT ( 'NONE',  ( -8.295000000000001705, -7.310000000000001386, -0.06003937007874015491 ) ) ;
#672 = AXIS2_PLACEMENT_3D ( 'NONE', #866, #425, #1157 ) ;
#673 = DIRECTION ( 'NONE',  ( -0.000000000000000000, -0.000000000000000000, 1.000000000000000000 ) ) ;
#674 = VECTOR ( 'NONE', #263, 39.37007874015748143 ) ;
#675 = AXIS2_PLACEMENT_3D ( 'NONE', #709, #1329, #1126 ) ;
#676 = LINE ( 'NONE', #568, #800 ) ;
#677 = ORIENTED_EDGE ( 'NONE', *, *, #1033, .T. ) ;
#678 = ORIENTED_EDGE ( 'NONE', *, *, #1200, .F. ) ;
#679 = CARTESIAN_POINT ( 'NONE',  ( 8.079999999999994742, 1.163414459189982046E-17, 0.000000000000000000 ) ) ;
#680 = DIRECTION ( 'NONE',  ( 0.000000000000000000, -0.000000000000000000, -1.000000000000000000 ) ) ;
#681 = ADVANCED_FACE ( 'NONE', ( #1039 ), #725, .F. ) ;
#682 = CARTESIAN_POINT ( 'NONE',  ( -8.295000000000001705, -7.310000000000001386, -0.05999999999999999778 ) ) ;
#683 = DIRECTION ( 'NONE',  ( 0.000000000000000000, 1.000000000000000000, -3.834172622686683600E-15 ) ) ;
#684 = ADVANCED_BREP_SHAPE_REPRESENTATION ( '12-6355-03-(16gacr ANSI-61) - K48 - V2-R0', ( #1010, #1247 ), #1227 ) ;
#685 = VERTEX_POINT ( 'NONE', #627 ) ;
#686 = CARTESIAN_POINT ( 'NONE',  ( -8.295000000000001705, -7.380000000000001670, -1.195183497228115035E-16 ) ) ;
#687 = FACE_OUTER_BOUND ( 'NONE', #275, .T. ) ;
#688 = ADVANCED_FACE ( 'NONE', ( #1335 ), #393, .F. ) ;
#689 = DIRECTION ( 'NONE',  ( -0.000000000000000000, -0.000000000000000000, 1.000000000000000000 ) ) ;
#690 = ORIENTED_EDGE ( 'NONE', *, *, #598, .F. ) ;
#691 = VERTEX_POINT ( 'NONE', #87 ) ;
#692 = CARTESIAN_POINT ( 'NONE',  ( -8.365000000000003766, -7.310000000000001386, 0.000000000000000000 ) ) ;
#693 = LINE ( 'NONE', #452, #881 ) ;
#694 = ADVANCED_FACE ( 'NONE', ( #1288 ), #23, .F. ) ;
#695 = VECTOR ( 'NONE', #55, 39.37007874015748143 ) ;
#696 = DIRECTION ( 'NONE',  ( 3.834172622686683600E-15, -0.000000000000000000, 1.000000000000000000 ) ) ;
#697 = AXIS2_PLACEMENT_3D ( 'NONE', #746, #467, #1171 ) ;
#698 = EDGE_CURVE ( 'NONE', #14, #1027, #759, .T. ) ;
#699 = ORIENTED_EDGE ( 'NONE', *, *, #243, .T. ) ;
#700 = VERTEX_POINT ( 'NONE', #344 ) ;
#701 = CARTESIAN_POINT ( 'NONE',  ( -8.365000000000003766, -7.310000000000001386, -0.05999999999999999778 ) ) ;
#702 = ADVANCED_FACE ( 'NONE', ( #635 ), #140, .T. ) ;
#703 = ORIENTED_EDGE ( 'NONE', *, *, #462, .F. ) ;
#704 = CARTESIAN_POINT ( 'NONE',  ( 8.174999999999995381, 0.000000000000000000, -0.05999999999999997696 ) ) ;
#705 = DIRECTION ( 'NONE',  ( 1.000000000000000000, 0.000000000000000000, 0.000000000000000000 ) ) ;
#706 = LINE ( 'NONE', #711, #235 ) ;
#707 = DIRECTION ( 'NONE',  ( -0.000000000000000000, -0.000000000000000000, 1.000000000000000000 ) ) ;
#708 = ORIENTED_EDGE ( 'NONE', *, *, #537, .F. ) ;
#709 = CARTESIAN_POINT ( 'NONE',  ( 8.174999999999995381, -6.000000000000001776, -0.6300393700787404461 ) ) ;
#710 = DIRECTION ( 'NONE',  ( 0.000000000000000000, 0.000000000000000000, -1.000000000000000000 ) ) ;
#711 = CARTESIAN_POINT ( 'NONE',  ( -8.295000000000003482, 7.379999999999999005, -0.06000000000000012962 ) ) ;
#712 = AXIS2_PLACEMENT_3D ( 'NONE', #656, #1069, #133 ) ;
#713 = PLANE ( 'NONE',  #883 ) ;
#714 = AXIS2_PLACEMENT_3D ( 'NONE', #1121, #796, #1215 ) ;
#715 = ORIENTED_EDGE ( 'NONE', *, *, #813, .T. ) ;
#716 = CARTESIAN_POINT ( 'NONE',  ( -8.485000000000006537, 0.000000000000000000, -0.6300000000000000044 ) ) ;
#717 = EDGE_CURVE ( 'NONE', #823, #297, #661, .T. ) ;
#718 =( NAMED_UNIT ( * ) PLANE_ANGLE_UNIT ( ) SI_UNIT ( $, .RADIAN. ) );
#719 = ORIENTED_EDGE ( 'NONE', *, *, #1086, .F. ) ;
#720 = FACE_OUTER_BOUND ( 'NONE', #1057, .T. ) ;
#721 = EDGE_LOOP ( 'NONE', ( #642, #852 ) ) ;
#722 = EDGE_CURVE ( 'NONE', #817, #933, #500, .T. ) ;
#723 = FACE_OUTER_BOUND ( 'NONE', #634, .T. ) ;
#724 = ORIENTED_EDGE ( 'NONE', *, *, #1033, .F. ) ;
#725 = PLANE ( 'NONE',  #1155 ) ;
#726 = ORIENTED_EDGE ( 'NONE', *, *, #1031, .T. ) ;
#727 = CARTESIAN_POINT ( 'NONE',  ( -8.365000000000003766, -7.309999999999999609, -0.1200000000000000372 ) ) ;
#728 = LINE ( 'NONE', #429, #105 ) ;
#729 = VERTEX_POINT ( 'NONE', #1176 ) ;
#730 = AXIS2_PLACEMENT_3D ( 'NONE', #764, #249, #666 ) ;
#731 = CARTESIAN_POINT ( 'NONE',  ( -8.295000000000001705, -7.380000000000001670, -0.06000000000000012962 ) ) ;
#732 = ADVANCED_FACE ( 'NONE', ( #853 ), #236, .F. ) ;
#733 = VECTOR ( 'NONE', #1080, 39.37007874015748143 ) ;
#734 = ORIENTED_EDGE ( 'NONE', *, *, #579, .F. ) ;
#735 = DIRECTION ( 'NONE',  ( 0.000000000000000000, -1.000000000000000000, 0.000000000000000000 ) ) ;
#736 = CIRCLE ( 'NONE', #1179, 0.1560000000000001941 ) ;
#737 = DIRECTION ( 'NONE',  ( 1.000000000000000000, 0.000000000000000000, 0.000000000000000000 ) ) ;
#738 = VERTEX_POINT ( 'NONE', #749 ) ;
#739 = DIRECTION ( 'NONE',  ( 0.000000000000000000, -1.000000000000000000, 3.491481338843134539E-15 ) ) ;
#740 = ADVANCED_FACE ( 'NONE', ( #1163 ), #455, .F. ) ;
#741 = ORIENTED_EDGE ( 'NONE', *, *, #799, .F. ) ;
#742 = CARTESIAN_POINT ( 'NONE',  ( -6.719000000000002970, -2.379999999999999893, 0.000000000000000000 ) ) ;
#743 = VERTEX_POINT ( 'NONE', #554 ) ;
#744 = CARTESIAN_POINT ( 'NONE',  ( -8.141000000000001791, 1.910449006669872628E-17, 0.000000000000000000 ) ) ;
#745 = VERTEX_POINT ( 'NONE', #960 ) ;
#746 = CARTESIAN_POINT ( 'NONE',  ( -8.295000000000003482, 7.379999999999999005, -0.1200000000000000372 ) ) ;
#747 = CARTESIAN_POINT ( 'NONE',  ( -8.485000000000004761, 7.309999999999996056, -0.1199999999999995931 ) ) ;
#748 = ORIENTED_EDGE ( 'NONE', *, *, #529, .T. ) ;
#749 = CARTESIAN_POINT ( 'NONE',  ( 8.269999999999994245, -6.000000000000001776, 0.000000000000000000 ) ) ;
#750 = ORIENTED_EDGE ( 'NONE', *, *, #505, .T. ) ;
#751 = AXIS2_PLACEMENT_3D ( 'NONE', #271, #159, #165 ) ;
#752 = AXIS2_PLACEMENT_3D ( 'NONE', #264, #63, #460 ) ;
#753 = ORIENTED_EDGE ( 'NONE', *, *, #233, .T. ) ;
#754 = CARTESIAN_POINT ( 'NONE',  ( -6.605000000000003091, -2.379999999999999893, 0.000000000000000000 ) ) ;
#755 = CIRCLE ( 'NONE', #1331, 0.1199999999999999123 ) ;
#756 = VECTOR ( 'NONE', #992, 39.37007874015748143 ) ;
#757 = ORIENTED_EDGE ( 'NONE', *, *, #134, .F. ) ;
#758 = EDGE_CURVE ( 'NONE', #1220, #399, #608, .T. ) ;
#759 = LINE ( 'NONE', #17, #324 ) ;
#760 = EDGE_LOOP ( 'NONE', ( #494, #224, #389, #413 ) ) ;
#761 = EDGE_LOOP ( 'NONE', ( #610, #834, #549, #916 ) ) ;
#762 = LINE ( 'NONE', #1188, #1019 ) ;
#763 = FACE_OUTER_BOUND ( 'NONE', #968, .T. ) ;
#764 = CARTESIAN_POINT ( 'NONE',  ( -7.985000000000002096, 0.000000000000000000, -0.05999999999999997696 ) ) ;
#765 = FACE_OUTER_BOUND ( 'NONE', #445, .T. ) ;
#766 = ORIENTED_EDGE ( 'NONE', *, *, #931, .T. ) ;
#767 = ORIENTED_EDGE ( 'NONE', *, *, #927, .F. ) ;
#768 = CARTESIAN_POINT ( 'NONE',  ( 8.484999999999992326, -7.380000000000001670, -0.1200000000000000372 ) ) ;
#769 = FACE_OUTER_BOUND ( 'NONE', #1253, .T. ) ;
#770 = DIRECTION ( 'NONE',  ( 0.000000000000000000, 0.000000000000000000, 1.000000000000000000 ) ) ;
#771 = CARTESIAN_POINT ( 'NONE',  ( -7.985000000000002096, 0.000000000000000000, -0.6300393700787404461 ) ) ;
#772 = ORIENTED_EDGE ( 'NONE', *, *, #519, .T. ) ;
#773 = ADVANCED_FACE ( 'NONE', ( #858 ), #840, .F. ) ;
#774 = ORIENTED_EDGE ( 'NONE', *, *, #698, .T. ) ;
#775 = DIRECTION ( 'NONE',  ( -1.000000000000000000, 0.000000000000000000, 0.000000000000000000 ) ) ;
#776 = VECTOR ( 'NONE', #1225, 39.37007874015748143 ) ;
#777 = DIRECTION ( 'NONE',  ( -3.834172622686683600E-15, 0.000000000000000000, -1.000000000000000000 ) ) ;
#778 = AXIS2_PLACEMENT_3D ( 'NONE', #144, #44, #777 ) ;
#779 = LINE ( 'NONE', #1145, #607 ) ;
#780 = VECTOR ( 'NONE', #1322, 39.37007874015748143 ) ;
#781 = AXIS2_PLACEMENT_3D ( 'NONE', #986, #1312, #371 ) ;
#782 = DIRECTION ( 'NONE',  ( 1.000000000000000000, 0.000000000000000000, 0.000000000000000000 ) ) ;
#783 = EDGE_LOOP ( 'NONE', ( #1120, #734, #663, #1062 ) ) ;
#784 = ADVANCED_FACE ( 'NONE', ( #1075 ), #560, .F. ) ;
#785 = DIRECTION ( 'NONE',  ( -1.000000000000000000, 0.000000000000000000, 0.000000000000000000 ) ) ;
#786 = CARTESIAN_POINT ( 'NONE',  ( 8.484999999999992326, -7.380000000000001670, -0.1200000000000000372 ) ) ;
#787 = DIRECTION ( 'NONE',  ( 0.000000000000000000, 0.000000000000000000, 1.000000000000000000 ) ) ;
#788 = ORIENTED_EDGE ( 'NONE', *, *, #505, .F. ) ;
#789 = ORIENTED_EDGE ( 'NONE', *, *, #806, .F. ) ;
#790 = DIRECTION ( 'NONE',  ( 0.000000000000000000, -1.000000000000000000, 0.000000000000000000 ) ) ;
#791 = LINE ( 'NONE', #278, #1013 ) ;
#792 = EDGE_CURVE ( 'NONE', #1074, #1178, #1017, .T. ) ;
#793 = DIRECTION ( 'NONE',  ( -0.000000000000000000, -0.000000000000000000, 1.000000000000000000 ) ) ;
#794 = ORIENTED_EDGE ( 'NONE', *, *, #1333, .T. ) ;
#795 = ORIENTED_EDGE ( 'NONE', *, *, #418, .F. ) ;
#796 = DIRECTION ( 'NONE',  ( -0.000000000000000000, 1.000000000000000000, -0.000000000000000000 ) ) ;
#797 = LINE ( 'NONE', #716, #776 ) ;
#798 = AXIS2_PLACEMENT_3D ( 'NONE', #1256, #942, #12 ) ;
#799 = EDGE_CURVE ( 'NONE', #729, #446, #114, .T. ) ;
#800 = VECTOR ( 'NONE', #887, 39.37007874015748143 ) ;
#801 = CARTESIAN_POINT ( 'NONE',  ( -8.295000000000003482, 7.309999999999999609, 0.000000000000000000 ) ) ;
#802 = CIRCLE ( 'NONE', #1111, 0.1139999999999999347 ) ;
#803 = CARTESIAN_POINT ( 'NONE',  ( -8.485000000000001208, -7.310000000000001386, -0.06003937007874015491 ) ) ;
#804 = FACE_OUTER_BOUND ( 'NONE', #443, .T. ) ;
#805 = DIRECTION ( 'NONE',  ( 1.000000000000000000, 0.000000000000000000, 0.000000000000000000 ) ) ;
#806 = EDGE_CURVE ( 'NONE', #360, #1114, #939, .T. ) ;
#807 = CARTESIAN_POINT ( 'NONE',  ( 8.484999999999994102, -7.500000000000003553, -0.6300000000000000044 ) ) ;
#808 = ORIENTED_EDGE ( 'NONE', *, *, #758, .F. ) ;
#809 = CYLINDRICAL_SURFACE ( 'NONE', #675, 0.09499999999999994560 ) ;
#810 = CARTESIAN_POINT ( 'NONE',  ( -8.365000000000003766, -7.309999999999999609, -0.1200000000000000372 ) ) ;
#811 = PLANE ( 'NONE',  #1131 ) ;
#812 = FACE_OUTER_BOUND ( 'NONE', #489, .T. ) ;
#813 = EDGE_CURVE ( 'NONE', #743, #1290, #802, .T. ) ;
#814 = ORIENTED_EDGE ( 'NONE', *, *, #598, .T. ) ;
#815 = CARTESIAN_POINT ( 'NONE',  ( -8.295000000000001705, -7.440000000000001279, -0.1199999999999998151 ) ) ;
#816 = LENGTH_MEASURE_WITH_UNIT ( LENGTH_MEASURE( 0.02539999999999999897 ), #643 );
#817 = VERTEX_POINT ( 'NONE', #744 ) ;
#818 = AXIS2_PLACEMENT_3D ( 'NONE', #1206, #469, #265 ) ;
#819 = VECTOR ( 'NONE', #484, 39.37007874015748143 ) ;
#820 = FACE_BOUND ( 'NONE', #188, .T. ) ;
#821 = AXIS2_PLACEMENT_3D ( 'NONE', #1344, #294, #194 ) ;
#822 = AXIS2_PLACEMENT_3D ( 'NONE', #447, #1292, #346 ) ;
#823 = VERTEX_POINT ( 'NONE', #647 ) ;
#824 = EDGE_CURVE ( 'NONE', #654, #685, #1060, .T. ) ;
#825 = DIRECTION ( 'NONE',  ( -1.000000000000000000, 0.000000000000000000, 0.000000000000000000 ) ) ;
#826 = FACE_BOUND ( 'NONE', #533, .T. ) ;
#827 = ORIENTED_EDGE ( 'NONE', *, *, #320, .F. ) ;
#828 = CARTESIAN_POINT ( 'NONE',  ( -8.365000000000003766, 7.309999999999996945, -0.1200000000000000372 ) ) ;
#829 = ORIENTED_EDGE ( 'NONE', *, *, #1165, .F. ) ;
#830 = FACE_OUTER_BOUND ( 'NONE', #487, .T. ) ;
#831 = EDGE_LOOP ( 'NONE', ( #555, #30, #1303, #98 ) ) ;
#832 = ADVANCED_FACE ( 'NONE', ( #765 ), #1006, .F. ) ;
#833 = CARTESIAN_POINT ( 'NONE',  ( -8.295000000000003482, 7.500000000000001776, -0.6300000000000000044 ) ) ;
#834 = ORIENTED_EDGE ( 'NONE', *, *, #529, .F. ) ;
#835 = CARTESIAN_POINT ( 'NONE',  ( -8.485000000000006537, 7.309999999999996056, -0.6300000000000000044 ) ) ;
#836 = DIRECTION ( 'NONE',  ( -3.834172622686683600E-15, 0.000000000000000000, -1.000000000000000000 ) ) ;
#837 = ORIENTED_EDGE ( 'NONE', *, *, #799, .T. ) ;
#838 = EDGE_CURVE ( 'NONE', #947, #1034, #736, .T. ) ;
#839 = AXIS2_PLACEMENT_3D ( 'NONE', #1028, #514, #310 ) ;
#840 = PLANE ( 'NONE',  #905 ) ;
#841 = VERTEX_POINT ( 'NONE', #155 ) ;
#842 = CARTESIAN_POINT ( 'NONE',  ( -8.365000000000003766, 7.309999999999996056, -1.195183497228115035E-16 ) ) ;
#843 = AXIS2_PLACEMENT_3D ( 'NONE', #1204, #1283, #563 ) ;
#844 = AXIS2_PLACEMENT_3D ( 'NONE', #377, #880, #81 ) ;
#845 = CARTESIAN_POINT ( 'NONE',  ( -6.491000000000003212, 2.380000000000000338, -0.05999999999999997696 ) ) ;
#846 = ORIENTED_EDGE ( 'NONE', *, *, #418, .T. ) ;
#847 = DIRECTION ( 'NONE',  ( -0.000000000000000000, -0.000000000000000000, 1.000000000000000000 ) ) ;
#848 = ORIENTED_EDGE ( 'NONE', *, *, #1031, .F. ) ;
#849 = APPLICATION_PROTOCOL_DEFINITION ( 'draft international standard', 'automotive_design', 1998, #1001 ) ;
#850 = DIRECTION ( 'NONE',  ( 0.000000000000000000, 3.834172622686683600E-15, -1.000000000000000000 ) ) ;
#851 = CARTESIAN_POINT ( 'NONE',  ( -8.485000000000004761, 7.309999999999999609, -0.05999999999999999778 ) ) ;
#852 = ORIENTED_EDGE ( 'NONE', *, *, #792, .T. ) ;
#853 = FACE_OUTER_BOUND ( 'NONE', #1052, .T. ) ;
#854 = EDGE_CURVE ( 'NONE', #1143, #139, #676, .T. ) ;
#855 = FACE_OUTER_BOUND ( 'NONE', #1147, .T. ) ;
#856 = CYLINDRICAL_SURFACE ( 'NONE', #448, 0.09499999999999994560 ) ;
#857 = ORIENTED_EDGE ( 'NONE', *, *, #1309, .T. ) ;
#858 = FACE_OUTER_BOUND ( 'NONE', #978, .T. ) ;
#859 = ORIENTED_EDGE ( 'NONE', *, *, #450, .T. ) ;
#860 = ORIENTED_EDGE ( 'NONE', *, *, #1002, .T. ) ;
#861 = DIRECTION ( 'NONE',  ( 1.000000000000000000, 0.000000000000000000, 0.000000000000000000 ) ) ;
#862 = PLANE ( 'NONE',  #629 ) ;
#863 = EDGE_CURVE ( 'NONE', #297, #222, #1092, .T. ) ;
#864 = VECTOR ( 'NONE', #658, 39.37007874015748143 ) ;
#865 = DIRECTION ( 'NONE',  ( 1.000000000000000000, -0.000000000000000000, 0.000000000000000000 ) ) ;
#866 = CARTESIAN_POINT ( 'NONE',  ( 0.000000000000000000, 7.499999999999999112, 2.896578355048071176E-14 ) ) ;
#867 = EDGE_LOOP ( 'NONE', ( #129, #788, #1203, #636 ) ) ;
#868 = CARTESIAN_POINT ( 'NONE',  ( -8.294999999999999929, -7.440000000000001279, -0.1199999999999998151 ) ) ;
#869 = CARTESIAN_POINT ( 'NONE',  ( -6.719000000000002970, 2.380000000000000338, -0.6300393700787404461 ) ) ;
#870 = CARTESIAN_POINT ( 'NONE',  ( -8.485000000000006537, -7.309999999999999609, -0.6300000000000000044 ) ) ;
#871 = EDGE_CURVE ( 'NONE', #1025, #415, #983, .T. ) ;
#872 = CARTESIAN_POINT ( 'NONE',  ( -7.829000000000002402, 0.000000000000000000, 0.000000000000000000 ) ) ;
#873 = EDGE_LOOP ( 'NONE', ( #206, #60 ) ) ;
#874 = LINE ( 'NONE', #1195, #170 ) ;
#875 = CARTESIAN_POINT ( 'NONE',  ( -8.425000000000004263, -7.309999999999999609, -0.1199999999999998151 ) ) ;
#876 = DIRECTION ( 'NONE',  ( -0.000000000000000000, -1.000000000000000000, -0.000000000000000000 ) ) ;
#877 = CARTESIAN_POINT ( 'NONE',  ( -8.295000000000003482, -7.500000000000001776, -0.06003937007874015491 ) ) ;
#878 = EDGE_CURVE ( 'NONE', #691, #1355, #166, .T. ) ;
#879 = ORIENTED_EDGE ( 'NONE', *, *, #279, .T. ) ;
#880 = DIRECTION ( 'NONE',  ( 0.000000000000000000, 0.000000000000000000, 1.000000000000000000 ) ) ;
#881 = VECTOR ( 'NONE', #673, 39.37007874015748143 ) ;
#882 = CARTESIAN_POINT ( 'NONE',  ( 8.174999999999995381, 0.000000000000000000, 0.000000000000000000 ) ) ;
#883 = AXIS2_PLACEMENT_3D ( 'NONE', #1134, #1032, #917 ) ;
#884 = CARTESIAN_POINT ( 'NONE',  ( -8.295000000000001705, -7.500000000000003553, -0.6300000000000000044 ) ) ;
#885 = VECTOR ( 'NONE', #1228, 39.37007874015748143 ) ;
#886 = VECTOR ( 'NONE', #622, 39.37007874015748143 ) ;
#887 = DIRECTION ( 'NONE',  ( -0.000000000000000000, 1.000000000000000000, 0.000000000000000000 ) ) ;
#888 = ORIENTED_EDGE ( 'NONE', *, *, #497, .T. ) ;
#889 = ADVANCED_FACE ( 'NONE', ( #667 ), #250, .F. ) ;
#890 = CARTESIAN_POINT ( 'NONE',  ( -8.295000000000003482, 7.440000000000001279, -0.6300000000000002265 ) ) ;
#891 = LINE ( 'NONE', #1320, #1177 ) ;
#892 = DIRECTION ( 'NONE',  ( 0.000000000000000000, 0.000000000000000000, 1.000000000000000000 ) ) ;
#893 = CARTESIAN_POINT ( 'NONE',  ( 8.484999999999992326, -7.500000000000001776, -0.1199999999999995792 ) ) ;
#894 = ORIENTED_EDGE ( 'NONE', *, *, #450, .F. ) ;
#895 = ORIENTED_EDGE ( 'NONE', *, *, #481, .T. ) ;
#896 = DIRECTION ( 'NONE',  ( -0.000000000000000000, -0.000000000000000000, 1.000000000000000000 ) ) ;
#897 = CARTESIAN_POINT ( 'NONE',  ( -8.295000000000003482, 7.499999999999999112, 2.896578355048071176E-14 ) ) ;
#898 = EDGE_CURVE ( 'NONE', #1348, #575, #366, .T. ) ;
#899 = LINE ( 'NONE', #191, #146 ) ;
#900 = CARTESIAN_POINT ( 'NONE',  ( 8.484999999999992326, -7.380000000000001670, -0.06000000000000012962 ) ) ;
#901 = ORIENTED_EDGE ( 'NONE', *, *, #1050, .F. ) ;
#902 = FACE_OUTER_BOUND ( 'NONE', #783, .T. ) ;
#903 = PLANE ( 'NONE',  #1128 ) ;
#904 = AXIS2_PLACEMENT_3D ( 'NONE', #1279, #332, #128 ) ;
#905 = AXIS2_PLACEMENT_3D ( 'NONE', #1186, #244, #739 ) ;
#906 = DIRECTION ( 'NONE',  ( 0.000000000000000000, 0.000000000000000000, 1.000000000000000000 ) ) ;
#907 = VECTOR ( 'NONE', #528, 39.37007874015748143 ) ;
#908 = DIRECTION ( 'NONE',  ( 1.000000000000000000, 0.000000000000000000, 0.000000000000000000 ) ) ;
#909 = VERTEX_POINT ( 'NONE', #989 ) ;
#910 = CARTESIAN_POINT ( 'NONE',  ( -8.295000000000003482, 7.499999999999999112, -0.06003937007874015491 ) ) ;
#911 = EDGE_CURVE ( 'NONE', #1341, #841, #46, .T. ) ;
#912 = CYLINDRICAL_SURFACE ( 'NONE', #38, 0.09499999999999994560 ) ;
#913 = ORIENTED_EDGE ( 'NONE', *, *, #1165, .T. ) ;
#914 = FACE_OUTER_BOUND ( 'NONE', #943, .T. ) ;
#915 = CARTESIAN_POINT ( 'NONE',  ( -8.295000000000003482, 7.439999999999999503, -0.1199999999999998151 ) ) ;
#916 = ORIENTED_EDGE ( 'NONE', *, *, #1339, .T. ) ;
#917 = DIRECTION ( 'NONE',  ( 0.000000000000000000, 3.834172622686683600E-15, 1.000000000000000000 ) ) ;
#918 = EDGE_CURVE ( 'NONE', #729, #1162, #999, .T. ) ;
#919 = ORIENTED_EDGE ( 'NONE', *, *, #982, .T. ) ;
#920 = CARTESIAN_POINT ( 'NONE',  ( -8.485000000000006537, 7.309999999999995168, -0.6300000000000000044 ) ) ;
#921 = DIRECTION ( 'NONE',  ( 0.000000000000000000, 3.834172622686683600E-15, 1.000000000000000000 ) ) ;
#922 =( CONVERSION_BASED_UNIT ( 'INCH', #816 ) LENGTH_UNIT ( ) NAMED_UNIT ( #3 ) );
#923 = EDGE_LOOP ( 'NONE', ( #808, #162 ) ) ;
#924 = VECTOR ( 'NONE', #213, 39.37007874015748143 ) ;
#925 = DIRECTION ( 'NONE',  ( 0.000000000000000000, 0.000000000000000000, -1.000000000000000000 ) ) ;
#926 = CIRCLE ( 'NONE', #523, 0.09499999999999994560 ) ;
#927 = EDGE_CURVE ( 'NONE', #1034, #817, #57, .T. ) ;
#928 = CIRCLE ( 'NONE', #1314, 0.05999999999999990757 ) ;
#929 = ORIENTED_EDGE ( 'NONE', *, *, #1183, .F. ) ;
#930 = LINE ( 'NONE', #1260, #544 ) ;
#931 = EDGE_CURVE ( 'NONE', #101, #1115, #214, .T. ) ;
#932 = LINE ( 'NONE', #1, #924 ) ;
#933 = VERTEX_POINT ( 'NONE', #872 ) ;
#934 = DIRECTION ( 'NONE',  ( -0.000000000000000000, 1.000000000000000000, 3.835990623682899812E-15 ) ) ;
#935 = ORIENTED_EDGE ( 'NONE', *, *, #182, .F. ) ;
#936 = CARTESIAN_POINT ( 'NONE',  ( -8.295000000000001705, -7.380000000000001670, -1.195183497228115035E-16 ) ) ;
#937 = ADVANCED_FACE ( 'NONE', ( #65 ), #1207, .F. ) ;
#938 = ORIENTED_EDGE ( 'NONE', *, *, #918, .T. ) ;
#939 = LINE ( 'NONE', #433, #1226 ) ;
#940 = VERTEX_POINT ( 'NONE', #893 ) ;
#941 = CARTESIAN_POINT ( 'NONE',  ( 8.484999999999995879, 7.500000000000001776, -0.6300000000000000044 ) ) ;
#942 = DIRECTION ( 'NONE',  ( 1.000000000000000000, -0.000000000000000000, 0.000000000000000000 ) ) ;
#943 = EDGE_LOOP ( 'NONE', ( #229, #1093, #308, #424 ) ) ;
#944 = VECTOR ( 'NONE', #1350, 39.37007874015748143 ) ;
#945 = DIRECTION ( 'NONE',  ( 0.000000000000000000, 0.000000000000000000, -1.000000000000000000 ) ) ;
#946 = VECTOR ( 'NONE', #934, 39.37007874015748143 ) ;
#947 = VERTEX_POINT ( 'NONE', #357 ) ;
#948 = VECTOR ( 'NONE', #1316, 39.37007874015748143 ) ;
#949 = AXIS2_PLACEMENT_3D ( 'NONE', #803, #1231, #292 ) ;
#950 = DIRECTION ( 'NONE',  ( 0.000000000000000000, 3.834172622686683600E-15, -1.000000000000000000 ) ) ;
#951 = DIRECTION ( 'NONE',  ( -3.834172622686683600E-15, -0.000000000000000000, -1.000000000000000000 ) ) ;
#952 = ORIENTED_EDGE ( 'NONE', *, *, #1119, .F. ) ;
#953 = CARTESIAN_POINT ( 'NONE',  ( -6.605000000000003091, -2.379999999999999893, 0.000000000000000000 ) ) ;
#954 = ADVANCED_FACE ( 'NONE', ( #381 ), #596, .T. ) ;
#955 = VERTEX_POINT ( 'NONE', #273 ) ;
#956 = DIRECTION ( 'NONE',  ( 0.000000000000000000, 0.000000000000000000, 1.000000000000000000 ) ) ;
#957 = LINE ( 'NONE', #28, #1267 ) ;
#958 = CARTESIAN_POINT ( 'NONE',  ( -8.295000000000003482, 7.499999999999999112, -0.1199999999999995792 ) ) ;
#959 = EDGE_LOOP ( 'NONE', ( #678, #814, #319, #603 ) ) ;
#960 = CARTESIAN_POINT ( 'NONE',  ( -8.485000000000004761, -7.309999999999999609, -0.1199999999999995792 ) ) ;
#961 = ADVANCED_FACE ( 'NONE', ( #72 ), #1219, .F. ) ;
#962 = ORIENTED_EDGE ( 'NONE', *, *, #546, .T. ) ;
#963 = CARTESIAN_POINT ( 'NONE',  ( -8.295000000000003482, 7.439999999999999503, -0.1199999999999998151 ) ) ;
#964 = LINE ( 'NONE', #1089, #1243 ) ;
#965 = ORIENTED_EDGE ( 'NONE', *, *, #1318, .F. ) ;
#966 = CARTESIAN_POINT ( 'NONE',  ( -8.365000000000003766, 7.309999999999996945, -0.1200000000000000372 ) ) ;
#967 = VECTOR ( 'NONE', #617, 39.37007874015748143 ) ;
#968 = EDGE_LOOP ( 'NONE', ( #545, #62, #282, #750 ) ) ;
#969 = AXIS2_PLACEMENT_3D ( 'NONE', #1198, #506, #180 ) ;
#970 = DIRECTION ( 'NONE',  ( -0.000000000000000000, -0.000000000000000000, 1.000000000000000000 ) ) ;
#971 = DIRECTION ( 'NONE',  ( 5.751258934030031316E-15, 1.000000000000000000, 0.000000000000000000 ) ) ;
#972 = CIRCLE ( 'NONE', #1064, 0.1199999999999999123 ) ;
#973 = EDGE_CURVE ( 'NONE', #260, #823, #343, .T. ) ;
#974 = VECTOR ( 'NONE', #1088, 39.37007874015748143 ) ;
#975 = DIRECTION ( 'NONE',  ( 1.000000000000000000, 0.000000000000000000, 0.000000000000000000 ) ) ;
#976 = DIRECTION ( 'NONE',  ( 1.000000000000000000, -5.751258934030031316E-15, 0.000000000000000000 ) ) ;
#977 = PRODUCT_DEFINITION_CONTEXT ( 'detailed design', #465, 'design' ) ;
#978 = EDGE_LOOP ( 'NONE', ( #1208, #1319, #536, #774 ) ) ;
#979 = LINE ( 'NONE', #868, #18 ) ;
#980 = DIRECTION ( 'NONE',  ( 3.834172622686683600E-15, -0.000000000000000000, 1.000000000000000000 ) ) ;
#981 = LINE ( 'NONE', #50, #281 ) ;
#982 = EDGE_CURVE ( 'NONE', #446, #1025, #515, .T. ) ;
#983 = LINE ( 'NONE', #1302, #16 ) ;
#984 = ORIENTED_EDGE ( 'NONE', *, *, #272, .F. ) ;
#985 = VERTEX_POINT ( 'NONE', #801 ) ;
#986 = CARTESIAN_POINT ( 'NONE',  ( 8.174999999999995381, -6.000000000000001776, 0.000000000000000000 ) ) ;
#987 = LINE ( 'NONE', #241, #695 ) ;
#988 = DIRECTION ( 'NONE',  ( -0.000000000000000000, -0.000000000000000000, 1.000000000000000000 ) ) ;
#989 = CARTESIAN_POINT ( 'NONE',  ( -6.719000000000002970, 2.380000000000000338, -0.05999999999999997696 ) ) ;
#990 = VERTEX_POINT ( 'NONE', #915 ) ;
#991 = ORIENTED_EDGE ( 'NONE', *, *, #572, .F. ) ;
#992 = DIRECTION ( 'NONE',  ( -1.000000000000000000, 0.000000000000000000, 0.000000000000000000 ) ) ;
#993 = VECTOR ( 'NONE', #865, 39.37007874015748143 ) ;
#994 = DIRECTION ( 'NONE',  ( -0.000000000000000000, -0.000000000000000000, 1.000000000000000000 ) ) ;
#995 = CIRCLE ( 'NONE', #126, 0.1139999999999999347 ) ;
#996 = LINE ( 'NONE', #595, #1153 ) ;
#997 = AXIS2_PLACEMENT_3D ( 'NONE', #877, #976, #1082 ) ;
#998 = PRODUCT_DEFINITION_FORMATION_WITH_SPECIFIED_SOURCE ( 'ANY', '', #612, .NOT_KNOWN. ) ;
#999 = LINE ( 'NONE', #900, #41 ) ;
#1000 = ORIENTED_EDGE ( 'NONE', *, *, #813, .F. ) ;
#1001 = APPLICATION_CONTEXT ( 'automotive_design' ) ;
#1002 = EDGE_CURVE ( 'NONE', #1162, #1025, #1139, .T. ) ;
#1003 = ORIENTED_EDGE ( 'NONE', *, *, #1210, .F. ) ;
#1004 = DIRECTION ( 'NONE',  ( -0.000000000000000000, -0.000000000000000000, 1.000000000000000000 ) ) ;
#1005 = DIRECTION ( 'NONE',  ( -0.000000000000000000, -0.000000000000000000, 1.000000000000000000 ) ) ;
#1006 = CYLINDRICAL_SURFACE ( 'NONE', #632, 0.05999999999999990757 ) ;
#1007 = ORIENTED_EDGE ( 'NONE', *, *, #1002, .F. ) ;
#1008 = LINE ( 'NONE', #298, #756 ) ;
#1009 = LINE ( 'NONE', #508, #451 ) ;
#1010 = MANIFOLD_SOLID_BREP ( 'Cortar-Extruir2', #1349 ) ;
#1011 = CARTESIAN_POINT ( 'NONE',  ( 8.079999999999994742, 1.163414459189983279E-17, -0.6300393700787404461 ) ) ;
#1012 = VERTEX_POINT ( 'NONE', #1123 ) ;
#1013 = VECTOR ( 'NONE', #174, 39.37007874015748143 ) ;
#1014 = CARTESIAN_POINT ( 'NONE',  ( -8.295000000000003482, 7.379999999999999005, -0.1200000000000000372 ) ) ;
#1015 = ADVANCED_FACE ( 'NONE', ( #1351 ), #185, .F. ) ;
#1016 = VECTOR ( 'NONE', #571, 39.37007874015748143 ) ;
#1017 = CIRCLE ( 'NONE', #454, 0.09499999999999994560 ) ;
#1018 = DIRECTION ( 'NONE',  ( 0.000000000000000000, 0.000000000000000000, 1.000000000000000000 ) ) ;
#1019 = VECTOR ( 'NONE', #151, 39.37007874015748143 ) ;
#1020 = DIRECTION ( 'NONE',  ( 0.000000000000000000, 0.000000000000000000, 1.000000000000000000 ) ) ;
#1021 = EDGE_LOOP ( 'NONE', ( #406, #1046, #142, #1167 ) ) ;
#1022 = PLANE ( 'NONE',  #1262 ) ;
#1023 = ADVANCED_FACE ( 'NONE', ( #1327, #1338, #826, #1245, #1334, #601, #723 ), #811, .T. ) ;
#1024 = DIRECTION ( 'NONE',  ( 0.000000000000000000, 1.000000000000000000, 0.000000000000000000 ) ) ;
#1025 = VERTEX_POINT ( 'NONE', #77 ) ;
#1026 = FACE_OUTER_BOUND ( 'NONE', #959, .T. ) ;
#1027 = VERTEX_POINT ( 'NONE', #300 ) ;
#1028 = CARTESIAN_POINT ( 'NONE',  ( -6.605000000000003091, 2.380000000000000338, -0.6300393700787404461 ) ) ;
#1029 = CARTESIAN_POINT ( 'NONE',  ( 0.000000000000000000, 0.000000000000000000, -0.05999999999999999778 ) ) ;
#1030 = VERTEX_POINT ( 'NONE', #1055 ) ;
#1031 = EDGE_CURVE ( 'NONE', #1030, #738, #543, .T. ) ;
#1032 = DIRECTION ( 'NONE',  ( 0.000000000000000000, 1.000000000000000000, -3.834172622686683600E-15 ) ) ;
#1033 = EDGE_CURVE ( 'NONE', #1341, #342, #61, .T. ) ;
#1034 = VERTEX_POINT ( 'NONE', #226 ) ;
#1035 = DIRECTION ( 'NONE',  ( 1.000000000000000000, 0.000000000000000000, 0.000000000000000000 ) ) ;
#1036 = EDGE_LOOP ( 'NONE', ( #209, #507, #88, #879 ) ) ;
#1037 = VECTOR ( 'NONE', #227, 39.37007874015748143 ) ;
#1038 = VECTOR ( 'NONE', #1102, 39.37007874015748143 ) ;
#1039 = FACE_OUTER_BOUND ( 'NONE', #614, .T. ) ;
#1040 = AXIS2_PLACEMENT_3D ( 'NONE', #953, #1296, #31 ) ;
#1041 = CIRCLE ( 'NONE', #822, 0.1560000000000001941 ) ;
#1042 = EDGE_CURVE ( 'NONE', #139, #415, #706, .T. ) ;
#1043 = ORIENTED_EDGE ( 'NONE', *, *, #27, .T. ) ;
#1044 = LENGTH_MEASURE_WITH_UNIT ( LENGTH_MEASURE( 0.02539999999999999897 ), #210 );
#1045 = DIRECTION ( 'NONE',  ( -0.000000000000000000, -0.000000000000000000, 1.000000000000000000 ) ) ;
#1046 = ORIENTED_EDGE ( 'NONE', *, *, #153, .F. ) ;
#1047 = DIRECTION ( 'NONE',  ( -0.000000000000000000, -0.000000000000000000, 1.000000000000000000 ) ) ;
#1048 = ORIENTED_EDGE ( 'NONE', *, *, #51, .T. ) ;
#1049 = CARTESIAN_POINT ( 'NONE',  ( -6.719000000000002970, -2.379999999999999893, -0.6300393700787404461 ) ) ;
#1050 = EDGE_CURVE ( 'NONE', #113, #654, #613, .T. ) ;
#1051 = LINE ( 'NONE', #851, #1037 ) ;
#1052 = EDGE_LOOP ( 'NONE', ( #353, #1140, #1263, #47 ) ) ;
#1053 = CARTESIAN_POINT ( 'NONE',  ( -6.605000000000003091, -2.379999999999999893, -0.05999999999999997696 ) ) ;
#1054 = VERTEX_POINT ( 'NONE', #679 ) ;
#1055 = CARTESIAN_POINT ( 'NONE',  ( 8.079999999999994742, -6.000000000000001776, 0.000000000000000000 ) ) ;
#1056 = CARTESIAN_POINT ( 'NONE',  ( 8.484999999999995879, 7.379999999999999005, -0.1200000000000000372 ) ) ;
#1057 = EDGE_LOOP ( 'NONE', ( #322, #25, #473, #962, #860, #616, #435, #502 ) ) ;
#1058 = EDGE_CURVE ( 'NONE', #1162, #940, #755, .T. ) ;
#1059 = VECTOR ( 'NONE', #1110, 39.37007874015748143 ) ;
#1060 = LINE ( 'NONE', #351, #127 ) ;
#1061 = AXIS2_PLACEMENT_3D ( 'NONE', #1340, #301, #397 ) ;
#1062 = ORIENTED_EDGE ( 'NONE', *, *, #1281, .T. ) ;
#1063 = COLOUR_RGB ( '',0.7921568627450980005, 0.8196078431372548767, 0.9333333333333333481 ) ;
#1064 = AXIS2_PLACEMENT_3D ( 'NONE', #416, #1270, #220 ) ;
#1065 = PLANE ( 'NONE',  #697 ) ;
#1066 = DIRECTION ( 'NONE',  ( 0.000000000000000000, 1.000000000000000000, 3.841661241090376129E-15 ) ) ;
#1067 = EDGE_LOOP ( 'NONE', ( #141, #1159, #119, #216 ) ) ;
#1068 = EDGE_CURVE ( 'NONE', #369, #940, #874, .T. ) ;
#1069 = DIRECTION ( 'NONE',  ( -0.000000000000000000, -0.000000000000000000, 1.000000000000000000 ) ) ;
#1070 = ORIENTED_EDGE ( 'NONE', *, *, #973, .T. ) ;
#1071 = EDGE_LOOP ( 'NONE', ( #1298, #1323, #726, #935 ) ) ;
#1072 = CARTESIAN_POINT ( 'NONE',  ( -6.491000000000003212, 2.380000000000000338, 0.000000000000000000 ) ) ;
#1073 = PLANE ( 'NONE',  #1289 ) ;
#1074 = VERTEX_POINT ( 'NONE', #157 ) ;
#1075 = FACE_OUTER_BOUND ( 'NONE', #516, .T. ) ;
#1076 = ORIENTED_EDGE ( 'NONE', *, *, #1086, .T. ) ;
#1077 = ADVANCED_FACE ( 'NONE', ( #143 ), #247, .T. ) ;
#1078 = ORIENTED_EDGE ( 'NONE', *, *, #1318, .T. ) ;
#1079 = CARTESIAN_POINT ( 'NONE',  ( 8.484999999999995879, 7.440000000000001279, -0.6300000000000002265 ) ) ;
#1080 = DIRECTION ( 'NONE',  ( -0.000000000000000000, -0.000000000000000000, 1.000000000000000000 ) ) ;
#1081 = CARTESIAN_POINT ( 'NONE',  ( -6.719000000000002970, 2.380000000000000338, 0.000000000000000000 ) ) ;
#1082 = DIRECTION ( 'NONE',  ( 5.751258934030031316E-15, 1.000000000000000000, 0.000000000000000000 ) ) ;
#1083 = CIRCLE ( 'NONE', #404, 0.1139999999999999347 ) ;
#1084 = ORIENTED_EDGE ( 'NONE', *, *, #341, .T. ) ;
#1085 = VECTOR ( 'NONE', #337, 39.37007874015748143 ) ;
#1086 = EDGE_CURVE ( 'NONE', #691, #267, #926, .T. ) ;
#1087 = AXIS2_PLACEMENT_3D ( 'NONE', #1098, #161, #1212 ) ;
#1088 = DIRECTION ( 'NONE',  ( 1.000000000000000000, 0.000000000000000000, 0.000000000000000000 ) ) ;
#1089 = CARTESIAN_POINT ( 'NONE',  ( -8.485000000000004761, -7.309999999999999609, 3.274244358382711111E-14 ) ) ;
#1090 = AXIS2_PLACEMENT_3D ( 'NONE', #95, #102, #521 ) ;
#1091 = CARTESIAN_POINT ( 'NONE',  ( -8.485000000000004761, 7.309999999999999609, 0.000000000000000000 ) ) ;
#1092 = LINE ( 'NONE', #280, #106 ) ;
#1093 = ORIENTED_EDGE ( 'NONE', *, *, #1141, .T. ) ;
#1094 = DIRECTION ( 'NONE',  ( 1.000000000000000000, -0.000000000000000000, -0.000000000000000000 ) ) ;
#1095 = PLANE ( 'NONE',  #778 ) ;
#1096 = PRODUCT_DEFINITION ( 'UNKNOWN', '', #998, #977 ) ;
#1097 = FACE_OUTER_BOUND ( 'NONE', #1249, .T. ) ;
#1098 = CARTESIAN_POINT ( 'NONE',  ( -8.365000000000003766, -7.309999999999999609, -0.1200000000000000372 ) ) ;
#1099 = VERTEX_POINT ( 'NONE', #20 ) ;
#1100 = ORIENTED_EDGE ( 'NONE', *, *, #1347, .F. ) ;
#1101 = LINE ( 'NONE', #163, #370 ) ;
#1102 = DIRECTION ( 'NONE',  ( 1.000000000000000000, -0.000000000000000000, -0.000000000000000000 ) ) ;
#1103 = CARTESIAN_POINT ( 'NONE',  ( 8.484999999999992326, -7.380000000000001670, -0.1200000000000000372 ) ) ;
#1104 = EDGE_CURVE ( 'NONE', #313, #1348, #1291, .T. ) ;
#1105 = DIRECTION ( 'NONE',  ( -1.000000000000000000, 0.000000000000000000, 0.000000000000000000 ) ) ;
#1106 = ORIENTED_EDGE ( 'NONE', *, *, #252, .F. ) ;
#1107 = AXIS2_PLACEMENT_3D ( 'NONE', #1014, #84, #504 ) ;
#1108 = CARTESIAN_POINT ( 'NONE',  ( 8.484999999999995879, 7.379999999999999005, -0.1200000000000000372 ) ) ;
#1109 = AXIS2_PLACEMENT_3D ( 'NONE', #639, #417, #117 ) ;
#1110 = DIRECTION ( 'NONE',  ( -1.000000000000000000, -0.000000000000000000, -0.000000000000000000 ) ) ;
#1111 = AXIS2_PLACEMENT_3D ( 'NONE', #1053, #847, #1273 ) ;
#1112 = CARTESIAN_POINT ( 'NONE',  ( -8.141000000000001791, 1.910449006669872936E-17, -0.6300393700787404461 ) ) ;
#1113 = ADVANCED_FACE ( 'NONE', ( #855 ), #1065, .T. ) ;
#1114 = VERTEX_POINT ( 'NONE', #1079 ) ;
#1115 = VERTEX_POINT ( 'NONE', #1072 ) ;
#1116 = LINE ( 'NONE', #503, #237 ) ;
#1117 = LINE ( 'NONE', #184, #79 ) ;
#1118 = FACE_BOUND ( 'NONE', #1272, .T. ) ;
#1119 = EDGE_CURVE ( 'NONE', #1099, #268, #1181, .T. ) ;
#1120 = ORIENTED_EDGE ( 'NONE', *, *, #1285, .F. ) ;
#1121 = CARTESIAN_POINT ( 'NONE',  ( -8.365000000000003766, 7.309999999999996056, -0.1200000000000000372 ) ) ;
#1122 = LINE ( 'NONE', #1343, #967 ) ;
#1123 = CARTESIAN_POINT ( 'NONE',  ( -8.425000000000004263, 7.309999999999996056, -0.1199999999999998151 ) ) ;
#1124 = CARTESIAN_POINT ( 'NONE',  ( 8.484999999999994102, -7.500000000000001776, -0.05999999999999978961 ) ) ;
#1125 = ORIENTED_EDGE ( 'NONE', *, *, #1218, .T. ) ;
#1126 = DIRECTION ( 'NONE',  ( 1.000000000000000000, 0.000000000000000000, 0.000000000000000000 ) ) ;
#1127 = EDGE_CURVE ( 'NONE', #238, #53, #436, .T. ) ;
#1128 = AXIS2_PLACEMENT_3D ( 'NONE', #910, #1337, #710 ) ;
#1129 = DIRECTION ( 'NONE',  ( -0.000000000000000000, 0.000000000000000000, -1.000000000000000000 ) ) ;
#1130 = AXIS2_PLACEMENT_3D ( 'NONE', #384, #1004, #594 ) ;
#1131 = AXIS2_PLACEMENT_3D ( 'NONE', #1029, #97, #90 ) ;
#1132 = DIRECTION ( 'NONE',  ( 0.000000000000000000, 0.000000000000000000, 1.000000000000000000 ) ) ;
#1133 = VECTOR ( 'NONE', #495, 39.37007874015748143 ) ;
#1134 = CARTESIAN_POINT ( 'NONE',  ( 0.000000000000000000, -7.440000000000001279, 2.875629467015013134E-14 ) ) ;
#1135 = EDGE_LOOP ( 'NONE', ( #291, #1043, #219, #1070 ) ) ;
#1136 =( NAMED_UNIT ( * ) PLANE_ANGLE_UNIT ( ) SI_UNIT ( $, .RADIAN. ) );
#1137 = CARTESIAN_POINT ( 'NONE',  ( 0.000000000000000000, 7.500000000000001776, -0.6300000000000000044 ) ) ;
#1138 = ADVANCED_FACE ( 'NONE', ( #664 ), #43, .F. ) ;
#1139 = LINE ( 'NONE', #1233, #885 ) ;
#1140 = ORIENTED_EDGE ( 'NONE', *, *, #1127, .T. ) ;
#1141 = EDGE_CURVE ( 'NONE', #260, #700, #979, .T. ) ;
#1142 = LINE ( 'NONE', #807, #408 ) ;
#1143 = VERTEX_POINT ( 'NONE', #1276 ) ;
#1144 = LINE ( 'NONE', #920, #609 ) ;
#1145 = CARTESIAN_POINT ( 'NONE',  ( 8.484999999999994102, -7.500000000000001776, 2.896578355048072439E-14 ) ) ;
#1146 = CARTESIAN_POINT ( 'NONE',  ( 8.174999999999995381, -6.000000000000001776, 0.000000000000000000 ) ) ;
#1147 = EDGE_LOOP ( 'NONE', ( #1278, #569, #359, #67 ) ) ;
#1148 = EDGE_CURVE ( 'NONE', #1355, #7, #42, .T. ) ;
#1149 = DIRECTION ( 'NONE',  ( -0.000000000000000000, -0.000000000000000000, 1.000000000000000000 ) ) ;
#1150 = EDGE_LOOP ( 'NONE', ( #1336, #1078, #94, #352 ) ) ;
#1151 = LINE ( 'NONE', #1049, #907 ) ;
#1152 = FACE_OUTER_BOUND ( 'NONE', #375, .T. ) ;
#1153 = VECTOR ( 'NONE', #64, 39.37007874015748143 ) ;
#1154 = ORIENTED_EDGE ( 'NONE', *, *, #33, .F. ) ;
#1155 = AXIS2_PLACEMENT_3D ( 'NONE', #78, #207, #321 ) ;
#1156 = STYLED_ITEM ( 'NONE', ( #498 ), #1010 ) ;
#1157 = DIRECTION ( 'NONE',  ( 0.000000000000000000, 3.834172622686683600E-15, -1.000000000000000000 ) ) ;
#1158 = PRODUCT_RELATED_PRODUCT_CATEGORY ( 'part', '', ( #612 ) ) ;
#1159 = ORIENTED_EDGE ( 'NONE', *, *, #405, .T. ) ;
#1160 = CARTESIAN_POINT ( 'NONE',  ( 8.079999999999994742, 5.999999999999999112, 0.000000000000000000 ) ) ;
#1161 = CARTESIAN_POINT ( 'NONE',  ( 8.484999999999994102, -7.500000000000001776, -0.1199999999999995931 ) ) ;
#1162 = VERTEX_POINT ( 'NONE', #551 ) ;
#1163 = FACE_OUTER_BOUND ( 'NONE', #539, .T. ) ;
#1164 = ORIENTED_EDGE ( 'NONE', *, *, #556, .F. ) ;
#1165 = EDGE_CURVE ( 'NONE', #1143, #985, #957, .T. ) ;
#1166 = DIRECTION ( 'NONE',  ( 0.000000000000000000, -1.000000000000000000, 0.000000000000000000 ) ) ;
#1167 = ORIENTED_EDGE ( 'NONE', *, *, #33, .T. ) ;
#1168 = DIRECTION ( 'NONE',  ( 1.000000000000000000, 0.000000000000000000, 0.000000000000000000 ) ) ;
#1169 = ORIENTED_EDGE ( 'NONE', *, *, #854, .T. ) ;
#1170 = SHAPE_DEFINITION_REPRESENTATION ( #1357, #684 ) ;
#1171 = DIRECTION ( 'NONE',  ( -0.000000000000000000, 0.000000000000000000, 1.000000000000000000 ) ) ;
#1172 = DIRECTION ( 'NONE',  ( -1.000000000000000000, -0.000000000000000000, 3.835990623682900600E-15 ) ) ;
#1173 = EDGE_CURVE ( 'NONE', #990, #360, #137, .T. ) ;
#1174 = ORIENTED_EDGE ( 'NONE', *, *, #111, .T. ) ;
#1175 = AXIS2_PLACEMENT_3D ( 'NONE', #76, #825, #1325 ) ;
#1176 = CARTESIAN_POINT ( 'NONE',  ( 8.484999999999995879, -7.380000000000001670, -0.05999999999999999778 ) ) ;
#1177 = VECTOR ( 'NONE', #565, 39.37007874015748143 ) ;
#1178 = VERTEX_POINT ( 'NONE', #34 ) ;
#1179 = AXIS2_PLACEMENT_3D ( 'NONE', #478, #471, #1105 ) ;
#1180 = ORIENTED_EDGE ( 'NONE', *, *, #854, .F. ) ;
#1181 = LINE ( 'NONE', #240, #864 ) ;
#1182 = FACE_OUTER_BOUND ( 'NONE', #432, .T. ) ;
#1183 = EDGE_CURVE ( 'NONE', #933, #817, #1041, .T. ) ;
#1184 = ORIENTED_EDGE ( 'NONE', *, *, #838, .F. ) ;
#1185 = EDGE_CURVE ( 'NONE', #369, #260, #762, .T. ) ;
#1186 = CARTESIAN_POINT ( 'NONE',  ( 8.484999999999994102, -7.500000000000003553, -0.6300000000000000044 ) ) ;
#1187 = ORIENTED_EDGE ( 'NONE', *, *, #1252, .T. ) ;
#1188 = CARTESIAN_POINT ( 'NONE',  ( 8.484999999999994102, -7.440000000000001279, -0.1199999999999998151 ) ) ;
#1189 = LINE ( 'NONE', #869, #1016 ) ;
#1190 = LINE ( 'NONE', #1091, #626 ) ;
#1191 = DIRECTION ( 'NONE',  ( -0.000000000000000000, -0.000000000000000000, 1.000000000000000000 ) ) ;
#1192 = ADVANCED_FACE ( 'NONE', ( #570 ), #483, .F. ) ;
#1193 = ORIENTED_EDGE ( 'NONE', *, *, #722, .F. ) ;
#1194 = DIRECTION ( 'NONE',  ( 1.000000000000000000, 0.000000000000000000, 0.000000000000000000 ) ) ;
#1195 = CARTESIAN_POINT ( 'NONE',  ( 8.484999999999994102, -7.500000000000001776, -0.1199999999999995792 ) ) ;
#1196 = DIRECTION ( 'NONE',  ( -0.000000000000000000, 1.000000000000000000, 3.835990623682899812E-15 ) ) ;
#1197 = CARTESIAN_POINT ( 'NONE',  ( -6.605000000000003091, 2.380000000000000338, -0.05999999999999997696 ) ) ;
#1198 = CARTESIAN_POINT ( 'NONE',  ( -8.295000000000001705, -7.380000000000001670, -0.1200000000000000372 ) ) ;
#1199 = CIRCLE ( 'NONE', #13, 0.1199999999999999123 ) ;
#1200 = EDGE_CURVE ( 'NONE', #342, #1341, #192, .T. ) ;
#1201 = ORIENTED_EDGE ( 'NONE', *, *, #1218, .F. ) ;
#1202 = MECHANICAL_DESIGN_GEOMETRIC_PRESENTATION_REPRESENTATION (  '', ( #1156 ), #479 ) ;
#1203 = ORIENTED_EDGE ( 'NONE', *, *, #1050, .T. ) ;
#1204 = CARTESIAN_POINT ( 'NONE',  ( -8.365000000000003766, 7.309999999999996056, -0.1200000000000000372 ) ) ;
#1205 = DIRECTION ( 'NONE',  ( -3.834172622686683600E-15, 0.000000000000000000, -1.000000000000000000 ) ) ;
#1206 = CARTESIAN_POINT ( 'NONE',  ( -6.605000000000003091, 2.380000000000000338, -0.6300393700787404461 ) ) ;
#1207 = PLANE ( 'NONE',  #430 ) ;
#1208 = ORIENTED_EDGE ( 'NONE', *, *, #225, .T. ) ;
#1209 = DIRECTION ( 'NONE',  ( 1.000000000000000000, 0.000000000000000000, 0.000000000000000000 ) ) ;
#1210 = EDGE_CURVE ( 'NONE', #1012, #1099, #431, .T. ) ;
#1211 = DIRECTION ( 'NONE',  ( 1.000000000000000000, 0.000000000000000000, 0.000000000000000000 ) ) ;
#1212 = DIRECTION ( 'NONE',  ( 0.000000000000000000, -0.000000000000000000, -1.000000000000000000 ) ) ;
#1213 = ORIENTED_EDGE ( 'NONE', *, *, #1229, .T. ) ;
#1214 = ORIENTED_EDGE ( 'NONE', *, *, #1210, .T. ) ;
#1215 = DIRECTION ( 'NONE',  ( 0.000000000000000000, 0.000000000000000000, 1.000000000000000000 ) ) ;
#1216 = LINE ( 'NONE', #897, #257 ) ;
#1217 = LINE ( 'NONE', #373, #993 ) ;
#1218 = EDGE_CURVE ( 'NONE', #841, #1054, #1353, .T. ) ;
#1219 = CYLINDRICAL_SURFACE ( 'NONE', #1265, 0.1560000000000001941 ) ;
#1220 = VERTEX_POINT ( 'NONE', #1222 ) ;
#1221 = ORIENTED_EDGE ( 'NONE', *, *, #497, .F. ) ;
#1222 = CARTESIAN_POINT ( 'NONE',  ( -6.491000000000003212, -2.379999999999999893, 0.000000000000000000 ) ) ;
#1223 = VECTOR ( 'NONE', #1172, 39.37007874015748143 ) ;
#1224 = AXIS2_PLACEMENT_3D ( 'NONE', #1108, #195, #108 ) ;
#1225 = DIRECTION ( 'NONE',  ( 0.000000000000000000, -1.000000000000000000, 0.000000000000000000 ) ) ;
#1226 = VECTOR ( 'NONE', #641, 39.37007874015748143 ) ;
#1227 =( GEOMETRIC_REPRESENTATION_CONTEXT ( 3 ) GLOBAL_UNCERTAINTY_ASSIGNED_CONTEXT ( ( #464 ) ) GLOBAL_UNIT_ASSIGNED_CONTEXT ( ( #637, #1136, #197 ) ) REPRESENTATION_CONTEXT ( 'NONE', 'WORKASPACE' ) );
#1228 = DIRECTION ( 'NONE',  ( 0.000000000000000000, 1.000000000000000000, 0.000000000000000000 ) ) ;
#1229 = EDGE_CURVE ( 'NONE', #32, #268, #1008, .T. ) ;
#1230 = ORIENTED_EDGE ( 'NONE', *, *, #118, .F. ) ;
#1231 = DIRECTION ( 'NONE',  ( -0.000000000000000000, 1.000000000000000000, 0.000000000000000000 ) ) ;
#1232 = CARTESIAN_POINT ( 'NONE',  ( -8.295000000000001705, -7.440000000000003944, -0.6300000000000002265 ) ) ;
#1233 = CARTESIAN_POINT ( 'NONE',  ( 8.484999999999995879, -7.500000000000001776, 0.000000000000000000 ) ) ;
#1234 = DIRECTION ( 'NONE',  ( -1.000000000000000000, 0.000000000000000000, 0.000000000000000000 ) ) ;
#1235 = EDGE_CURVE ( 'NONE', #238, #316, #1116, .T. ) ;
#1236 = ORIENTED_EDGE ( 'NONE', *, *, #118, .T. ) ;
#1237 = PLANE ( 'NONE',  #949 ) ;
#1238 = FACE_OUTER_BOUND ( 'NONE', #54, .T. ) ;
#1239 = FACE_OUTER_BOUND ( 'NONE', #178, .T. ) ;
#1240 = EDGE_LOOP ( 'NONE', ( #827, #242, #329, #757 ) ) ;
#1241 = AXIS2_PLACEMENT_3D ( 'NONE', #45, #461, #1301 ) ;
#1242 = DIRECTION ( 'NONE',  ( -0.000000000000000000, -3.834172622686683600E-15, -1.000000000000000000 ) ) ;
#1243 = VECTOR ( 'NONE', #980, 39.37007874015748143 ) ;
#1244 = AXIS2_PLACEMENT_3D ( 'NONE', #1146, #906, #805 ) ;
#1245 = FACE_BOUND ( 'NONE', #73, .T. ) ;
#1246 = ORIENTED_EDGE ( 'NONE', *, *, #871, .F. ) ;
#1247 = AXIS2_PLACEMENT_3D ( 'NONE', #550, #956, #1194 ) ;
#1248 = CARTESIAN_POINT ( 'NONE',  ( -8.295000000000001705, -7.380000000000001670, -0.1200000000000000372 ) ) ;
#1249 = EDGE_LOOP ( 'NONE', ( #183, #668, #466, #965 ) ) ;
#1250 = DIRECTION ( 'NONE',  ( -0.000000000000000000, 1.000000000000000000, -0.000000000000000000 ) ) ;
#1251 = LINE ( 'NONE', #299, #1328 ) ;
#1252 = EDGE_CURVE ( 'NONE', #1290, #1220, #395, .T. ) ;
#1253 = EDGE_LOOP ( 'NONE', ( #618, #91, #829, #232 ) ) ;
#1254 = FACE_BOUND ( 'NONE', #527, .T. ) ;
#1255 = EDGE_LOOP ( 'NONE', ( #1000, #5, #176, #125 ) ) ;
#1256 = CARTESIAN_POINT ( 'NONE',  ( -8.295000000000003482, 7.499999999999999112, -0.05999999999999978961 ) ) ;
#1257 = ORIENTED_EDGE ( 'NONE', *, *, #878, .T. ) ;
#1258 = DIRECTION ( 'NONE',  ( -1.000000000000000000, 0.000000000000000000, -0.000000000000000000 ) ) ;
#1259 = EDGE_LOOP ( 'NONE', ( #336, #1180, #913, #794 ) ) ;
#1260 = CARTESIAN_POINT ( 'NONE',  ( -8.295000000000001705, -7.500000000000001776, 2.896578355048072439E-14 ) ) ;
#1261 = CARTESIAN_POINT ( 'NONE',  ( -8.425000000000004263, 0.000000000000000000, 3.253295470349652437E-14 ) ) ;
#1262 = AXIS2_PLACEMENT_3D ( 'NONE', #605, #396, #1129 ) ;
#1263 = ORIENTED_EDGE ( 'NONE', *, *, #167, .T. ) ;
#1264 = AXIS2_PLACEMENT_3D ( 'NONE', #328, #444, #1168 ) ;
#1265 = AXIS2_PLACEMENT_3D ( 'NONE', #771, #793, #493 ) ;
#1266 = DIRECTION ( 'NONE',  ( 0.000000000000000000, 1.000000000000000000, 0.000000000000000000 ) ) ;
#1267 = VECTOR ( 'NONE', #441, 39.37007874015748143 ) ;
#1268 = ADVANCED_FACE ( 'NONE', ( #902 ), #809, .F. ) ;
#1269 = ORIENTED_EDGE ( 'NONE', *, *, #27, .F. ) ;
#1270 = DIRECTION ( 'NONE',  ( -1.000000000000000000, 0.000000000000000000, 0.000000000000000000 ) ) ;
#1271 = DIRECTION ( 'NONE',  ( 0.000000000000000000, 0.000000000000000000, 1.000000000000000000 ) ) ;
#1272 = EDGE_LOOP ( 'NONE', ( #929, #1193 ) ) ;
#1273 = DIRECTION ( 'NONE',  ( -1.000000000000000000, 0.000000000000000000, 0.000000000000000000 ) ) ;
#1274 = ADVANCED_FACE ( 'NONE', ( #390 ), #1237, .F. ) ;
#1275 = ORIENTED_EDGE ( 'NONE', *, *, #24, .F. ) ;
#1276 = CARTESIAN_POINT ( 'NONE',  ( -8.295000000000003482, 7.309999999999999609, -0.05999999999999999778 ) ) ;
#1277 = FACE_OUTER_BOUND ( 'NONE', #1240, .T. ) ;
#1278 = ORIENTED_EDGE ( 'NONE', *, *, #655, .F. ) ;
#1279 = CARTESIAN_POINT ( 'NONE',  ( -8.295000000000001705, -7.380000000000001670, -0.1200000000000000372 ) ) ;
#1280 = ORIENTED_EDGE ( 'NONE', *, *, #320, .T. ) ;
#1281 = EDGE_CURVE ( 'NONE', #738, #1030, #173, .T. ) ;
#1282 = ORIENTED_EDGE ( 'NONE', *, *, #1148, .T. ) ;
#1283 = DIRECTION ( 'NONE',  ( -0.000000000000000000, 1.000000000000000000, -0.000000000000000000 ) ) ;
#1284 = DIRECTION ( 'NONE',  ( 0.000000000000000000, 0.000000000000000000, 1.000000000000000000 ) ) ;
#1285 = EDGE_CURVE ( 'NONE', #1074, #1030, #1101, .T. ) ;
#1286 = VERTEX_POINT ( 'NONE', #890 ) ;
#1287 = AXIS2_PLACEMENT_3D ( 'NONE', #1261, #29, #836 ) ;
#1288 = FACE_OUTER_BOUND ( 'NONE', #1135, .T. ) ;
#1289 = AXIS2_PLACEMENT_3D ( 'NONE', #158, #790, #680 ) ;
#1290 = VERTEX_POINT ( 'NONE', #422 ) ;
#1291 = CIRCLE ( 'NONE', #843, 0.1199999999999999123 ) ;
#1292 = DIRECTION ( 'NONE',  ( 0.000000000000000000, 0.000000000000000000, 1.000000000000000000 ) ) ;
#1293 = LINE ( 'NONE', #347, #388 ) ;
#1294 = LINE ( 'NONE', #1321, #1059 ) ;
#1295 = ADVANCED_FACE ( 'NONE', ( #534 ), #11, .F. ) ;
#1296 = DIRECTION ( 'NONE',  ( 0.000000000000000000, 0.000000000000000000, 1.000000000000000000 ) ) ;
#1297 = VERTEX_POINT ( 'NONE', #835 ) ;
#1298 = ORIENTED_EDGE ( 'NONE', *, *, #792, .F. ) ;
#1299 = CARTESIAN_POINT ( 'NONE',  ( 0.000000000000000000, 7.439999999999999503, 2.875629467015012503E-14 ) ) ;
#1300 = CARTESIAN_POINT ( 'NONE',  ( 8.484999999999995879, 7.379999999999999005, -0.06000000000000012962 ) ) ;
#1301 = DIRECTION ( 'NONE',  ( 0.000000000000000000, 0.000000000000000000, -1.000000000000000000 ) ) ;
#1302 = CARTESIAN_POINT ( 'NONE',  ( 8.484999999999995879, 7.379999999999999005, -1.195183497228115035E-16 ) ) ;
#1303 = ORIENTED_EDGE ( 'NONE', *, *, #177, .T. ) ;
#1304 = CARTESIAN_POINT ( 'NONE',  ( 8.174999999999995381, 5.999999999999999112, -0.05999999999999997696 ) ) ;
#1305 = CARTESIAN_POINT ( 'NONE',  ( 8.484999999999995879, 7.439999999999999503, -0.1199999999999998151 ) ) ;
#1306 = CARTESIAN_POINT ( 'NONE',  ( -8.425000000000006040, 7.309999999999996056, -0.6300000000000002265 ) ) ;
#1307 = DIRECTION ( 'NONE',  ( -1.000000000000000000, -0.000000000000000000, -0.000000000000000000 ) ) ;
#1308 = ORIENTED_EDGE ( 'NONE', *, *, #1183, .T. ) ;
#1309 = EDGE_CURVE ( 'NONE', #1297, #135, #1144, .T. ) ;
#1310 = AXIS2_PLACEMENT_3D ( 'NONE', #538, #223, #945 ) ;
#1311 = VECTOR ( 'NONE', #1191, 39.37007874015748143 ) ;
#1312 = DIRECTION ( 'NONE',  ( 0.000000000000000000, 0.000000000000000000, 1.000000000000000000 ) ) ;
#1313 = DIRECTION ( 'NONE',  ( 0.000000000000000000, 0.000000000000000000, 1.000000000000000000 ) ) ;
#1314 = AXIS2_PLACEMENT_3D ( 'NONE', #727, #735, #317 ) ;
#1315 = PLANE ( 'NONE',  #751 ) ;
#1316 = DIRECTION ( 'NONE',  ( -0.000000000000000000, -0.000000000000000000, 1.000000000000000000 ) ) ;
#1317 = ORIENTED_EDGE ( 'NONE', *, *, #1326, .T. ) ;
#1318 = EDGE_CURVE ( 'NONE', #700, #14, #930, .T. ) ;
#1319 = ORIENTED_EDGE ( 'NONE', *, *, #604, .F. ) ;
#1320 = CARTESIAN_POINT ( 'NONE',  ( -8.295000000000001705, -7.380000000000001670, -0.06000000000000012962 ) ) ;
#1321 = CARTESIAN_POINT ( 'NONE',  ( -8.295000000000003482, 7.440000000000001279, -0.6300000000000002265 ) ) ;
#1322 = DIRECTION ( 'NONE',  ( 0.000000000000000000, -1.000000000000000000, 0.000000000000000000 ) ) ;
#1323 = ORIENTED_EDGE ( 'NONE', *, *, #1285, .T. ) ;
#1324 = DIRECTION ( 'NONE',  ( 0.000000000000000000, -3.834172622686683600E-15, 1.000000000000000000 ) ) ;
#1325 = DIRECTION ( 'NONE',  ( 0.000000000000000000, 0.000000000000000000, 1.000000000000000000 ) ) ;
#1326 = EDGE_CURVE ( 'NONE', #268, #685, #928, .T. ) ;
#1327 = FACE_BOUND ( 'NONE', #203, .T. ) ;
#1328 = VECTOR ( 'NONE', #496, 39.37007874015748143 ) ;
#1329 = DIRECTION ( 'NONE',  ( -0.000000000000000000, -0.000000000000000000, 1.000000000000000000 ) ) ;
#1330 = VECTOR ( 'NONE', #1196, 39.37007874015748143 ) ;
#1331 = AXIS2_PLACEMENT_3D ( 'NONE', #768, #1094, #651 ) ;
#1332 = DIRECTION ( 'NONE',  ( 0.000000000000000000, 0.000000000000000000, -1.000000000000000000 ) ) ;
#1333 = EDGE_CURVE ( 'NONE', #985, #415, #407, .T. ) ;
#1334 = FACE_BOUND ( 'NONE', #648, .T. ) ;
#1335 = FACE_OUTER_BOUND ( 'NONE', #1021, .T. ) ;
#1336 = ORIENTED_EDGE ( 'NONE', *, *, #350, .F. ) ;
#1337 = DIRECTION ( 'NONE',  ( 1.000000000000000000, 0.000000000000000000, 0.000000000000000000 ) ) ;
#1338 = FACE_BOUND ( 'NONE', #40, .T. ) ;
#1339 = EDGE_CURVE ( 'NONE', #53, #1114, #204, .T. ) ;
#1340 = CARTESIAN_POINT ( 'NONE',  ( -8.365000000000003766, 7.309999999999996056, -0.1200000000000000372 ) ) ;
#1341 = VERTEX_POINT ( 'NONE', #427 ) ;
#1342 = DIRECTION ( 'NONE',  ( 0.000000000000000000, -3.834172622686683600E-15, -1.000000000000000000 ) ) ;
#1343 = CARTESIAN_POINT ( 'NONE',  ( 8.484999999999994102, -7.440000000000003944, -0.6300000000000002265 ) ) ;
#1344 = CARTESIAN_POINT ( 'NONE',  ( 8.174999999999995381, 0.000000000000000000, -0.05999999999999997696 ) ) ;
#1345 = ORIENTED_EDGE ( 'NONE', *, *, #134, .T. ) ;
#1346 = LINE ( 'NONE', #517, #946 ) ;
#1347 = EDGE_CURVE ( 'NONE', #743, #399, #1151, .T. ) ;
#1348 = VERTEX_POINT ( 'NONE', #842 ) ;
#1349 = CLOSED_SHELL ( 'NONE', ( #961, #8, #199, #470, #645, #334, #1023, #597, #1274, #488, #889, #702, #160, #1113, #1138, #348, #832, #218, #379, #732, #1077, #1295, #85, #208, #619, #694, #58, #688, #937, #638, #773, #954, #628, #662, #784, #681, #1015, #409, #311, #562, #1268, #368, #740, #314, #261, #1192 ) ) ;
#1350 = DIRECTION ( 'NONE',  ( -1.000000000000000000, 0.000000000000000000, 0.000000000000000000 ) ) ;
#1351 = FACE_OUTER_BOUND ( 'NONE', #867, .T. ) ;
#1352 = EDGE_LOOP ( 'NONE', ( #1230, #327 ) ) ;
#1353 = CIRCLE ( 'NONE', #844, 0.09499999999999994560 ) ;
#1354 = FACE_OUTER_BOUND ( 'NONE', #831, .T. ) ;
#1355 = VERTEX_POINT ( 'NONE', #1160 ) ;
#1356 = EDGE_CURVE ( 'NONE', #700, #297, #972, .T. ) ;
#1357 = PRODUCT_DEFINITION_SHAPE ( 'NONE', 'NONE',  #1096 ) ;
ENDSEC;
END-ISO-10303-21;
