ISO-10303-21;
HEADER;
FILE_DESCRIPTION (( 'STEP AP214' ),
    '1' );
FILE_NAME ('11-D-3385-01-(16gacr ANSI-61) - K48 - V0-R0.STEP',
    '2026-08-04T17:07:16',
    ( '' ),
    ( '' ),
    'SwSTEP 2.0',
    'SolidWorks 2024',
    '' );
FILE_SCHEMA (( 'AUTOMOTIVE_DESIGN' ));
ENDSEC;

DATA;
#1 = PLANE ( 'NONE',  #413 ) ;
#2 = EDGE_CURVE ( 'NONE', #645, #920, #83, .T. ) ;
#3 = ORIENTED_EDGE ( 'NONE', *, *, #182, .F. ) ;
#4 = FACE_BOUND ( 'NONE', #806, .T. ) ;
#5 = PRODUCT_DEFINITION_SHAPE ( 'NONE', 'NONE',  #280 ) ;
#6 = CARTESIAN_POINT ( 'NONE',  ( -0.8150000000000030553, 0.8800000000000026690, 0.6950000000000053912 ) ) ;
#7 = CARTESIAN_POINT ( 'NONE',  ( -0.8750000000000043299, 1.250000000000000000, 1.069999999999999840 ) ) ;
#8 = ORIENTED_EDGE ( 'NONE', *, *, #125, .T. ) ;
#9 = DIRECTION ( 'NONE',  ( 1.000000000000000000, 1.092739197465705411E-16, -3.446724104155846036E-15 ) ) ;
#10 = EDGE_CURVE ( 'NONE', #20, #59, #801, .T. ) ;
#11 = CIRCLE ( 'NONE', #136, 0.1250000000000000278 ) ;
#12 = AXIS2_PLACEMENT_3D ( 'NONE', #865, #270, #426 ) ;
#13 = DIRECTION ( 'NONE',  ( -4.370956789862820361E-15, 0.000000000000000000, -1.000000000000000000 ) ) ;
#14 = LINE ( 'NONE', #627, #858 ) ;
#15 = ORIENTED_EDGE ( 'NONE', *, *, #408, .T. ) ;
#16 = DIRECTION ( 'NONE',  ( 1.000000000000000000, 1.092739197465705411E-16, -3.446724104155846036E-15 ) ) ;
#17 = CARTESIAN_POINT ( 'NONE',  ( -0.8150000000000034994, 0.8800000000000026690, 0.8200000000000055023 ) ) ;
#18 = VERTEX_POINT ( 'NONE', #327 ) ;
#19 = CARTESIAN_POINT ( 'NONE',  ( -0.8750000000000043299, 1.151223822347783976, 1.069999999999999840 ) ) ;
#20 = VERTEX_POINT ( 'NONE', #1035 ) ;
#21 = DIRECTION ( 'NONE',  ( -0.000000000000000000, 1.000000000000000000, -7.114187483500681151E-17 ) ) ;
#22 = ADVANCED_FACE ( 'NONE', ( #1115 ), #221, .F. ) ;
#23 = DIRECTION ( 'NONE',  ( 1.092739197465705287E-16, -1.000000000000000000, 9.415926328652531301E-32 ) ) ;
#24 = EDGE_LOOP ( 'NONE', ( #404, #552, #151, #272 ) ) ;
#25 = LINE ( 'NONE', #1008, #739 ) ;
#26 = ORIENTED_EDGE ( 'NONE', *, *, #148, .F. ) ;
#27 = CARTESIAN_POINT ( 'NONE',  ( 0.8750000000000021094, 0.8800000000000027800, 0.8199999999999997291 ) ) ;
#28 = AXIS2_PLACEMENT_3D ( 'NONE', #239, #592, #332 ) ;
#29 = CIRCLE ( 'NONE', #524, 0.1405000000000000138 ) ;
#30 = ADVANCED_FACE ( 'NONE', ( #156 ), #61, .F. ) ;
#31 = ADVANCED_FACE ( 'NONE', ( #837 ), #50, .F. ) ;
#32 = EDGE_LOOP ( 'NONE', ( #647, #641 ) ) ;
#33 = DIRECTION ( 'NONE',  ( 1.092739197465701590E-16, -1.000000000000000000, -1.084066664152488979E-16 ) ) ;
#34 = VECTOR ( 'NONE', #992, 39.37007874015748143 ) ;
#35 = PLANE ( 'NONE',  #244 ) ;
#36 = FILL_AREA_STYLE_COLOUR ( '', #816 ) ;
#37 = VERTEX_POINT ( 'NONE', #860 ) ;
#38 = CARTESIAN_POINT ( 'NONE',  ( 0.8750000000000032196, -1.250000000000000000, 1.069999999999999840 ) ) ;
#39 = EDGE_CURVE ( 'NONE', #1095, #862, #266, .T. ) ;
#40 = CARTESIAN_POINT ( 'NONE',  ( -0.8750000000000005551, 0.2500000000000027200, -3.198270804863142153E-15 ) ) ;
#41 = CARTESIAN_POINT ( 'NONE',  ( -0.8750000000000006661, 1.250000000000000000, -2.094888803305880210E-16 ) ) ;
#42 = APPLICATION_CONTEXT ( 'automotive_design' ) ;
#43 = ORIENTED_EDGE ( 'NONE', *, *, #732, .T. ) ;
#44 = CARTESIAN_POINT ( 'NONE',  ( 0.8749999999999997780, -1.249999999999997335, 0.05999999999999961614 ) ) ;
#45 = ADVANCED_FACE ( 'NONE', ( #333, #67, #1057 ), #92, .F. ) ;
#46 = DIRECTION ( 'NONE',  ( -0.000000000000000000, -0.000000000000000000, -1.000000000000000000 ) ) ;
#47 = CIRCLE ( 'NONE', #28, 0.1250000000000000278 ) ;
#48 = LINE ( 'NONE', #942, #284 ) ;
#49 = AXIS2_PLACEMENT_3D ( 'NONE', #795, #882, #700 ) ;
#50 = PLANE ( 'NONE',  #545 ) ;
#51 = VERTEX_POINT ( 'NONE', #340 ) ;
#52 = DIRECTION ( 'NONE',  ( 3.446724104155846036E-15, 0.000000000000000000, 1.000000000000000000 ) ) ;
#53 = ORIENTED_EDGE ( 'NONE', *, *, #1080, .T. ) ;
#54 = DIRECTION ( 'NONE',  ( 1.092739197465705287E-16, -1.000000000000000000, 9.415926328652531301E-32 ) ) ;
#55 = EDGE_LOOP ( 'NONE', ( #88, #854, #240, #110 ) ) ;
#56 = PLANE ( 'NONE',  #583 ) ;
#57 = EDGE_CURVE ( 'NONE', #1143, #1030, #255, .T. ) ;
#58 = ORIENTED_EDGE ( 'NONE', *, *, #1033, .F. ) ;
#59 = VERTEX_POINT ( 'NONE', #510 ) ;
#60 = CARTESIAN_POINT ( 'NONE',  ( -0.7550000000000006706, 0.2500000000000024980, 0.06000000000000002554 ) ) ;
#61 = CYLINDRICAL_SURFACE ( 'NONE', #157, 0.1250000000000000278 ) ;
#62 = DIRECTION ( 'NONE',  ( 1.000000000000000000, 1.092739197465705411E-16, -3.446724104155846430E-15 ) ) ;
#63 = EDGE_CURVE ( 'NONE', #920, #645, #29, .T. ) ;
#64 = ORIENTED_EDGE ( 'NONE', *, *, #1080, .F. ) ;
#65 = CARTESIAN_POINT ( 'NONE',  ( -0.8750000000000006661, 1.250000000000000000, -2.094888803305880210E-16 ) ) ;
#66 = DIRECTION ( 'NONE',  ( 1.000000000000000000, 1.092739197465705411E-16, -3.446724104155846036E-15 ) ) ;
#67 = FACE_BOUND ( 'NONE', #1112, .T. ) ;
#68 = LINE ( 'NONE', #1129, #482 ) ;
#69 = VERTEX_POINT ( 'NONE', #785 ) ;
#70 = DIRECTION ( 'NONE',  ( 1.365923996832135307E-16, -1.000000000000000000, 0.000000000000000000 ) ) ;
#71 = EDGE_CURVE ( 'NONE', #914, #128, #396, .T. ) ;
#72 = CARTESIAN_POINT ( 'NONE',  ( -0.8150000000000041656, -8.905824459345543649E-17, 1.070000000000000062 ) ) ;
#73 = DIRECTION ( 'NONE',  ( 0.000000000000000000, 0.000000000000000000, -1.000000000000000000 ) ) ;
#74 = VECTOR ( 'NONE', #698, 39.37007874015748854 ) ;
#75 = ORIENTED_EDGE ( 'NONE', *, *, #236, .F. ) ;
#76 = CARTESIAN_POINT ( 'NONE',  ( -1.595000000000001528, 0.2500000000000026090, -0.05999999999999186540 ) ) ;
#77 = AXIS2_PLACEMENT_3D ( 'NONE', #372, #921, #901 ) ;
#78 = PLANE ( 'NONE',  #672 ) ;
#79 = FACE_OUTER_BOUND ( 'NONE', #1083, .T. ) ;
#80 = VERTEX_POINT ( 'NONE', #438 ) ;
#81 = VECTOR ( 'NONE', #469, 39.37007874015748854 ) ;
#82 = DIRECTION ( 'NONE',  ( 2.514470316587347053E-15, -0.7071067811865519026, 0.7071067811865432429 ) ) ;
#83 = CIRCLE ( 'NONE', #673, 0.1405000000000000138 ) ;
#84 = CARTESIAN_POINT ( 'NONE',  ( 0.1405000000000000693, -0.1199999999999996902, 2.410000000000000586 ) ) ;
#85 = VECTOR ( 'NONE', #217, 39.37007874015748143 ) ;
#86 = CARTESIAN_POINT ( 'NONE',  ( 0.7549999999999995604, 0.2500000000000029421, 0.06000000000000013656 ) ) ;
#87 = CIRCLE ( 'NONE', #418, 0.1200000000000002176 ) ;
#88 = ORIENTED_EDGE ( 'NONE', *, *, #1117, .F. ) ;
#89 = CARTESIAN_POINT ( 'NONE',  ( -0.1404999999999999305, -0.1199999999999997041, 2.410000000000000586 ) ) ;
#90 = CARTESIAN_POINT ( 'NONE',  ( -0.8750000000000043299, 1.250000000000000000, 1.069999999999999840 ) ) ;
#91 = ADVANCED_FACE ( 'NONE', ( #616 ), #791, .F. ) ;
#92 = PLANE ( 'NONE',  #504 ) ;
#93 = VERTEX_POINT ( 'NONE', #976 ) ;
#94 = CARTESIAN_POINT ( 'NONE',  ( 0.8150000000000030553, 8.905824459345531323E-17, 1.070000000000000062 ) ) ;
#95 = FACE_OUTER_BOUND ( 'NONE', #473, .T. ) ;
#96 = ORIENTED_EDGE ( 'NONE', *, *, #535, .T. ) ;
#97 = LINE ( 'NONE', #261, #843 ) ;
#98 = EDGE_CURVE ( 'NONE', #955, #1069, #612, .T. ) ;
#99 = CIRCLE ( 'NONE', #952, 0.1405000000000000138 ) ;
#100 = DIRECTION ( 'NONE',  ( 2.514470316587375847E-15, -0.7071067811865431318, -0.7071067811865517916 ) ) ;
#101 = PLANE ( 'NONE',  #359 ) ;
#102 = AXIS2_PLACEMENT_3D ( 'NONE', #185, #610, #960 ) ;
#103 = ORIENTED_EDGE ( 'NONE', *, *, #1012, .F. ) ;
#104 = DIRECTION ( 'NONE',  ( 3.446724104155846036E-15, -0.000000000000000000, -1.000000000000000000 ) ) ;
#105 = ADVANCED_FACE ( 'NONE', ( #1042, #705 ), #1, .T. ) ;
#106 = CARTESIAN_POINT ( 'NONE',  ( -1.594999999999997531, 1.151223822347778203, 1.070000000000008278 ) ) ;
#107 = LENGTH_MEASURE_WITH_UNIT ( LENGTH_MEASURE( 0.02539999999999999897 ), #376 );
#108 = EDGE_LOOP ( 'NONE', ( #500, #246 ) ) ;
#109 = CARTESIAN_POINT ( 'NONE',  ( 0.8750000000000029976, 1.250000000000000000, 1.069999999999999840 ) ) ;
#110 = ORIENTED_EDGE ( 'NONE', *, *, #408, .F. ) ;
#111 = DIRECTION ( 'NONE',  ( -2.359933657268107437E-15, -0.7071067811865431318, -0.7071067811865517916 ) ) ;
#112 = LINE ( 'NONE', #800, #214 ) ;
#113 = ORIENTED_EDGE ( 'NONE', *, *, #759, .T. ) ;
#114 = FACE_OUTER_BOUND ( 'NONE', #454, .T. ) ;
#115 = CYLINDRICAL_SURFACE ( 'NONE', #528, 0.1250000000000000278 ) ;
#116 = AXIS2_PLACEMENT_3D ( 'NONE', #1011, #220, #574 ) ;
#117 =( GEOMETRIC_REPRESENTATION_CONTEXT ( 3 ) GLOBAL_UNCERTAINTY_ASSIGNED_CONTEXT ( ( #1102 ) ) GLOBAL_UNIT_ASSIGNED_CONTEXT ( ( #1087, #555, #810 ) ) REPRESENTATION_CONTEXT ( 'NONE', 'WORKASPACE' ) );
#118 = EDGE_CURVE ( 'NONE', #862, #1095, #99, .T. ) ;
#119 = EDGE_LOOP ( 'NONE', ( #198, #493, #628, #234, #851, #817, #988, #775 ) ) ;
#120 = LINE ( 'NONE', #557, #288 ) ;
#121 = VERTEX_POINT ( 'NONE', #1048 ) ;
#122 = VECTOR ( 'NONE', #636, 39.37007874015748143 ) ;
#123 = LINE ( 'NONE', #677, #1121 ) ;
#124 = DIRECTION ( 'NONE',  ( 1.000000000000000000, 1.092739197465701590E-16, 0.000000000000000000 ) ) ;
#125 = EDGE_CURVE ( 'NONE', #955, #716, #530, .T. ) ;
#126 = ORIENTED_EDGE ( 'NONE', *, *, #338, .T. ) ;
#127 = FACE_OUTER_BOUND ( 'NONE', #542, .T. ) ;
#128 = VERTEX_POINT ( 'NONE', #963 ) ;
#129 = AXIS2_PLACEMENT_3D ( 'NONE', #423, #254, #1032 ) ;
#130 = CARTESIAN_POINT ( 'NONE',  ( 6.409496415746635770E-17, -0.1199999999999997041, 0.000000000000000000 ) ) ;
#131 = CARTESIAN_POINT ( 'NONE',  ( -2.731847993664285097E-17, 0.2500000000000027756, 0.000000000000000000 ) ) ;
#132 = VECTOR ( 'NONE', #233, 39.37007874015748143 ) ;
#133 = DIRECTION ( 'NONE',  ( -4.370956789862820361E-15, 0.000000000000000000, -1.000000000000000000 ) ) ;
#134 = CARTESIAN_POINT ( 'NONE',  ( -0.8150000000000007239, 0.2500000000000027200, 0.05999999999999976880 ) ) ;
#135 = ORIENTED_EDGE ( 'NONE', *, *, #57, .F. ) ;
#136 = AXIS2_PLACEMENT_3D ( 'NONE', #631, #993, #910 ) ;
#137 = CARTESIAN_POINT ( 'NONE',  ( 0.8150000000000020561, 0.8800000000000027800, 0.8199999999999998401 ) ) ;
#138 = VERTEX_POINT ( 'NONE', #877 ) ;
#139 = LINE ( 'NONE', #321, #334 ) ;
#140 = ORIENTED_EDGE ( 'NONE', *, *, #771, .F. ) ;
#141 = ADVANCED_FACE ( 'NONE', ( #176 ), #420, .T. ) ;
#142 = AXIS2_PLACEMENT_3D ( 'NONE', #965, #82, #348 ) ;
#143 = DIRECTION ( 'NONE',  ( -3.278217592397115073E-15, 0.000000000000000000, -1.000000000000000000 ) ) ;
#144 = ORIENTED_EDGE ( 'NONE', *, *, #478, .T. ) ;
#145 = ORIENTED_EDGE ( 'NONE', *, *, #1117, .T. ) ;
#146 = EDGE_CURVE ( 'NONE', #681, #589, #252, .T. ) ;
#147 = DIRECTION ( 'NONE',  ( -3.446724104155846036E-15, 0.000000000000000000, -1.000000000000000000 ) ) ;
#148 = EDGE_CURVE ( 'NONE', #378, #797, #515, .T. ) ;
#149 = CARTESIAN_POINT ( 'NONE',  ( -1.594999999999998641, 0.8800000000000024469, 0.8200000000000081668 ) ) ;
#150 = PRODUCT_CONTEXT ( 'NONE', #42, 'mechanical' ) ;
#151 = ORIENTED_EDGE ( 'NONE', *, *, #796, .T. ) ;
#152 = CARTESIAN_POINT ( 'NONE',  ( -0.8150000000000034994, 0.8800000000000026690, 0.8200000000000055023 ) ) ;
#153 = CARTESIAN_POINT ( 'NONE',  ( -1.594999999999998197, 1.249999999999999778, 0.9712238223477884791 ) ) ;
#154 = CIRCLE ( 'NONE', #229, 0.06000000000000017819 ) ;
#155 = ADVANCED_FACE ( 'NONE', ( #79 ), #432, .F. ) ;
#156 = FACE_OUTER_BOUND ( 'NONE', #347, .T. ) ;
#157 = AXIS2_PLACEMENT_3D ( 'NONE', #149, #414, #133 ) ;
#158 = VERTEX_POINT ( 'NONE', #195 ) ;
#159 = DIRECTION ( 'NONE',  ( 1.000000000000000000, 1.092739197465705287E-16, 3.491481338843133750E-15 ) ) ;
#160 = CARTESIAN_POINT ( 'NONE',  ( -0.8750000000000025535, 0.2500000000000026090, 0.5700000000000058353 ) ) ;
#161 = CARTESIAN_POINT ( 'NONE',  ( 6.409496415746635770E-17, -0.1199999999999997041, -0.05999999999999999778 ) ) ;
#162 = EDGE_CURVE ( 'NONE', #710, #944, #746, .T. ) ;
#163 = VERTEX_POINT ( 'NONE', #275 ) ;
#164 = FACE_OUTER_BOUND ( 'NONE', #562, .T. ) ;
#165 = CARTESIAN_POINT ( 'NONE',  ( 0.1404999999999995974, -0.8699999999999997735, -0.05999999999999999778 ) ) ;
#166 = DIRECTION ( 'NONE',  ( 1.092739197465705411E-16, -1.000000000000000000, 4.379057701015054319E-47 ) ) ;
#167 = ORIENTED_EDGE ( 'NONE', *, *, #1140, .F. ) ;
#168 = DIRECTION ( 'NONE',  ( -1.000000000000000000, -1.092739197465705287E-16, -3.491481338843133750E-15 ) ) ;
#169 = DIRECTION ( 'NONE',  ( 1.092739197465701590E-16, -1.000000000000000000, -1.084066664152488979E-16 ) ) ;
#170 = DIRECTION ( 'NONE',  ( 1.000000000000000000, -6.828931523252544546E-15, 3.491481338843134539E-15 ) ) ;
#171 = ORIENTED_EDGE ( 'NONE', *, *, #619, .T. ) ;
#172 = AXIS2_PLACEMENT_3D ( 'NONE', #794, #258, #876 ) ;
#173 = LINE ( 'NONE', #89, #897 ) ;
#174 = ADVANCED_FACE ( 'NONE', ( #904 ), #101, .T. ) ;
#175 = DIRECTION ( 'NONE',  ( -2.933462734747868660E-15, -0.7071067811865430208, -0.7071067811865517916 ) ) ;
#176 = FACE_OUTER_BOUND ( 'NONE', #316, .T. ) ;
#177 = CIRCLE ( 'NONE', #590, 0.1250000000000000278 ) ;
#178 = ORIENTED_EDGE ( 'NONE', *, *, #10, .F. ) ;
#179 = PLANE ( 'NONE',  #436 ) ;
#180 = DIRECTION ( 'NONE',  ( -2.359933657268116509E-15, -0.7071067811865408004, -0.7071067811865543451 ) ) ;
#181 = FILL_AREA_STYLE ('',( #36 ) ) ;
#182 = EDGE_CURVE ( 'NONE', #939, #501, #362, .T. ) ;
#183 = CIRCLE ( 'NONE', #424, 0.1250000000000000278 ) ;
#184 = ORIENTED_EDGE ( 'NONE', *, *, #63, .F. ) ;
#185 = CARTESIAN_POINT ( 'NONE',  ( 0.7549999999999995604, -1.249999999999997335, 0.06000000000000002554 ) ) ;
#186 = CIRCLE ( 'NONE', #247, 0.1250000000000000278 ) ;
#187 = LINE ( 'NONE', #719, #122 ) ;
#188 = DIRECTION ( 'NONE',  ( -1.955641823165279957E-15, 0.7071067811865542341, -0.7071067811865405783 ) ) ;
#189 = EDGE_CURVE ( 'NONE', #996, #1030, #814, .T. ) ;
#190 = ORIENTED_EDGE ( 'NONE', *, *, #513, .T. ) ;
#191 = CYLINDRICAL_SURFACE ( 'NONE', #197, 0.06000000000000017819 ) ;
#192 = AXIS2_PLACEMENT_3D ( 'NONE', #1079, #637, #650 ) ;
#193 = ORIENTED_EDGE ( 'NONE', *, *, #57, .T. ) ;
#194 = DIRECTION ( 'NONE',  ( -0.000000000000000000, -1.000000000000000000, -7.114187483500681151E-17 ) ) ;
#195 = CARTESIAN_POINT ( 'NONE',  ( 0.7549999999999992273, 0.2500000000000029421, -0.05999999999999994921 ) ) ;
#196 = MANIFOLD_SOLID_BREP ( 'Cortar-Extruir3', #655 ) ;
#197 = AXIS2_PLACEMENT_3D ( 'NONE', #781, #873, #879 ) ;
#198 = ORIENTED_EDGE ( 'NONE', *, *, #684, .F. ) ;
#199 = CARTESIAN_POINT ( 'NONE',  ( 0.8149999999999992806, 1.250000000000000000, -3.015883591136362569E-15 ) ) ;
#200 = EDGE_CURVE ( 'NONE', #264, #638, #112, .T. ) ;
#201 = VERTEX_POINT ( 'NONE', #981 ) ;
#202 = CARTESIAN_POINT ( 'NONE',  ( -1.594999999999999529, 1.151223822347777981, 0.5700000000000082778 ) ) ;
#203 = DIRECTION ( 'NONE',  ( -3.446724104155846036E-15, 0.000000000000000000, -1.000000000000000000 ) ) ;
#204 = ORIENTED_EDGE ( 'NONE', *, *, #330, .T. ) ;
#205 = CYLINDRICAL_SURFACE ( 'NONE', #938, 0.1200000000000002176 ) ;
#206 = ORIENTED_EDGE ( 'NONE', *, *, #889, .F. ) ;
#207 = EDGE_CURVE ( 'NONE', #289, #264, #14, .T. ) ;
#208 = CARTESIAN_POINT ( 'NONE',  ( -0.8150000000000041656, 1.249999999999999778, 0.9712238223477858146 ) ) ;
#209 = EDGE_LOOP ( 'NONE', ( #26, #763, #556, #883 ) ) ;
#210 = CARTESIAN_POINT ( 'NONE',  ( -1.595000000000001528, 0.2500000000000026090, -0.05999999999999186540 ) ) ;
#211 = ORIENTED_EDGE ( 'NONE', *, *, #162, .F. ) ;
#212 = DIRECTION ( 'NONE',  ( 2.514470316587375847E-15, -0.7071067811865431318, -0.7071067811865517916 ) ) ;
#213 = EDGE_CURVE ( 'NONE', #260, #264, #298, .T. ) ;
#214 = VECTOR ( 'NONE', #203, 39.37007874015748143 ) ;
#215 = CARTESIAN_POINT ( 'NONE',  ( -0.8150000000000002798, -1.250000000000000000, -3.015883591136366514E-15 ) ) ;
#216 = ORIENTED_EDGE ( 'NONE', *, *, #935, .T. ) ;
#217 = DIRECTION ( 'NONE',  ( -3.446724104155846036E-15, 1.084066664152485158E-16, -1.000000000000000000 ) ) ;
#218 = ORIENTED_EDGE ( 'NONE', *, *, #274, .F. ) ;
#219 = FACE_OUTER_BOUND ( 'NONE', #470, .T. ) ;
#220 = DIRECTION ( 'NONE',  ( -0.000000000000000000, -0.000000000000000000, -1.000000000000000000 ) ) ;
#221 = PLANE ( 'NONE',  #722 ) ;
#222 = DIRECTION ( 'NONE',  ( 3.278217592397115073E-15, 0.000000000000000000, -1.000000000000000000 ) ) ;
#223 = ORIENTED_EDGE ( 'NONE', *, *, #1053, .F. ) ;
#224 = VECTOR ( 'NONE', #159, 39.37007874015748143 ) ;
#225 = CARTESIAN_POINT ( 'NONE',  ( 0.8749999999999996669, -1.250000000000000000, 0.05999999999999949818 ) ) ;
#226 = ORIENTED_EDGE ( 'NONE', *, *, #262, .F. ) ;
#227 = EDGE_CURVE ( 'NONE', #955, #866, #293, .T. ) ;
#228 = ORIENTED_EDGE ( 'NONE', *, *, #415, .T. ) ;
#229 = AXIS2_PLACEMENT_3D ( 'NONE', #540, #999, #893 ) ;
#230 = PLANE ( 'NONE',  #431 ) ;
#231 = VECTOR ( 'NONE', #166, 39.37007874015748143 ) ;
#232 = ORIENTED_EDGE ( 'NONE', *, *, #889, .T. ) ;
#233 = DIRECTION ( 'NONE',  ( 1.000000000000000000, 1.092739197465705411E-16, -3.446724104155846036E-15 ) ) ;
#234 = ORIENTED_EDGE ( 'NONE', *, *, #394, .T. ) ;
#235 = EDGE_CURVE ( 'NONE', #328, #680, #154, .T. ) ;
#236 = EDGE_CURVE ( 'NONE', #1009, #201, #11, .T. ) ;
#237 = DIMENSIONAL_EXPONENTS ( 1.000000000000000000, 0.000000000000000000, 0.000000000000000000, 0.000000000000000000, 0.000000000000000000, 0.000000000000000000, 0.000000000000000000 ) ;
#238 = AXIS2_PLACEMENT_3D ( 'NONE', #106, #180, #708 ) ;
#239 = CARTESIAN_POINT ( 'NONE',  ( -0.8750000000000035527, 0.8800000000000026690, 0.8200000000000057243 ) ) ;
#240 = ORIENTED_EDGE ( 'NONE', *, *, #740, .T. ) ;
#241 = EDGE_LOOP ( 'NONE', ( #1124, #940, #723, #466 ) ) ;
#242 = DIRECTION ( 'NONE',  ( -1.000000000000000000, 0.000000000000000000, 0.000000000000000000 ) ) ;
#243 = ADVANCED_FACE ( 'NONE', ( #453, #366, #987 ), #370, .T. ) ;
#244 = AXIS2_PLACEMENT_3D ( 'NONE', #566, #656, #573 ) ;
#245 = LINE ( 'NONE', #962, #764 ) ;
#246 = ORIENTED_EDGE ( 'NONE', *, *, #657, .F. ) ;
#247 = AXIS2_PLACEMENT_3D ( 'NONE', #850, #421, #222 ) ;
#248 = ORIENTED_EDGE ( 'NONE', *, *, #518, .T. ) ;
#249 = DIRECTION ( 'NONE',  ( 1.000000000000000000, 1.092739197465701590E-16, 0.000000000000000000 ) ) ;
#250 = DIRECTION ( 'NONE',  ( 3.446724104155846036E-15, 0.000000000000000000, -1.000000000000000000 ) ) ;
#251 = VECTOR ( 'NONE', #1114, 39.37007874015748143 ) ;
#252 = LINE ( 'NONE', #954, #319 ) ;
#253 = ORIENTED_EDGE ( 'NONE', *, *, #696, .F. ) ;
#254 = DIRECTION ( 'NONE',  ( 0.000000000000000000, 0.000000000000000000, -1.000000000000000000 ) ) ;
#255 = LINE ( 'NONE', #259, #894 ) ;
#256 = ORIENTED_EDGE ( 'NONE', *, *, #1047, .F. ) ;
#257 = DIRECTION ( 'NONE',  ( 1.092739197465701590E-16, -1.000000000000000000, -1.084066664152488979E-16 ) ) ;
#258 = DIRECTION ( 'NONE',  ( -0.000000000000000000, 1.000000000000000000, -7.114187483500681151E-17 ) ) ;
#259 = CARTESIAN_POINT ( 'NONE',  ( 0.8749999999999991118, 0.2500000000000028866, -0.06000000000000037248 ) ) ;
#260 = VERTEX_POINT ( 'NONE', #658 ) ;
#261 = CARTESIAN_POINT ( 'NONE',  ( 0.8150000000000030553, 1.110611911173879696, 1.110611911173897681 ) ) ;
#262 = EDGE_CURVE ( 'NONE', #69, #128, #389, .T. ) ;
#263 = DIRECTION ( 'NONE',  ( 1.000000000000000000, 1.092739197465705287E-16, 3.446724104155846036E-15 ) ) ;
#264 = VERTEX_POINT ( 'NONE', #308 ) ;
#265 = DIRECTION ( 'NONE',  ( -0.000000000000000000, -0.000000000000000000, -1.000000000000000000 ) ) ;
#266 = CIRCLE ( 'NONE', #49, 0.1405000000000000138 ) ;
#267 = ADVANCED_FACE ( 'NONE', ( #483 ), #56, .T. ) ;
#268 = ADVANCED_FACE ( 'NONE', ( #766 ), #742, .F. ) ;
#269 = LINE ( 'NONE', #809, #1116 ) ;
#270 = DIRECTION ( 'NONE',  ( 0.000000000000000000, -1.000000000000000000, 7.114187483500681151E-17 ) ) ;
#271 = CIRCLE ( 'NONE', #821, 0.06000000000000017819 ) ;
#272 = ORIENTED_EDGE ( 'NONE', *, *, #875, .F. ) ;
#273 = DIRECTION ( 'NONE',  ( -0.000000000000000000, -1.000000000000000000, -7.114187483500681151E-17 ) ) ;
#274 = EDGE_CURVE ( 'NONE', #501, #681, #48, .T. ) ;
#275 = CARTESIAN_POINT ( 'NONE',  ( -0.8750000000000031086, 0.8800000000000026690, 0.6950000000000057243 ) ) ;
#276 = VECTOR ( 'NONE', #538, 39.37007874015748143 ) ;
#277 = EDGE_LOOP ( 'NONE', ( #363, #392 ) ) ;
#278 = CARTESIAN_POINT ( 'NONE',  ( -1.594999999999999307, 0.8800000000000024469, 0.6950000000000081668 ) ) ;
#279 = DIRECTION ( 'NONE',  ( 1.000000000000000000, 0.000000000000000000, -3.446724104155846036E-15 ) ) ;
#280 = PRODUCT_DEFINITION ( 'UNKNOWN', '', #1031, #484 ) ;
#281 = CARTESIAN_POINT ( 'NONE',  ( -0.7550000000000006706, 0.2500000000000024980, 0.06000000000000002554 ) ) ;
#282 = ORIENTED_EDGE ( 'NONE', *, *, #670, .F. ) ;
#283 = CARTESIAN_POINT ( 'NONE',  ( -0.7550000000000006706, -1.249999999999999556, 0.06000000000000013656 ) ) ;
#284 = VECTOR ( 'NONE', #852, 39.37007874015748143 ) ;
#285 = ORIENTED_EDGE ( 'NONE', *, *, #162, .T. ) ;
#286 = CARTESIAN_POINT ( 'NONE',  ( -0.8150000000000007239, 0.2500000000000027200, 0.05999999999999976880 ) ) ;
#287 = DIRECTION ( 'NONE',  ( -1.092739197465701590E-16, 1.000000000000000000, 1.092739197465705411E-16 ) ) ;
#288 = VECTOR ( 'NONE', #825, 39.37007874015748143 ) ;
#289 = VERTEX_POINT ( 'NONE', #662 ) ;
#290 = DIRECTION ( 'NONE',  ( -0.000000000000000000, -0.000000000000000000, -1.000000000000000000 ) ) ;
#291 = EDGE_LOOP ( 'NONE', ( #697, #593 ) ) ;
#292 = CARTESIAN_POINT ( 'NONE',  ( -1.594999999999998197, 0.8800000000000024469, 0.9450000000000082778 ) ) ;
#293 = LINE ( 'NONE', #561, #81 ) ;
#294 = ORIENTED_EDGE ( 'NONE', *, *, #1092, .T. ) ;
#295 = DIRECTION ( 'NONE',  ( 3.491481338843134539E-15, 3.815278516173931870E-31, 1.000000000000000000 ) ) ;
#296 = EDGE_CURVE ( 'NONE', #378, #996, #1101, .T. ) ;
#297 = CARTESIAN_POINT ( 'NONE',  ( -0.8150000000000025002, 1.151223822347778203, 0.5700000000000056133 ) ) ;
#298 = LINE ( 'NONE', #721, #1006 ) ;
#299 = ORIENTED_EDGE ( 'NONE', *, *, #330, .F. ) ;
#300 = LINE ( 'NONE', #1014, #400 ) ;
#301 = ORIENTED_EDGE ( 'NONE', *, *, #834, .F. ) ;
#302 = VECTOR ( 'NONE', #842, 39.37007874015748143 ) ;
#303 = FACE_OUTER_BOUND ( 'NONE', #460, .T. ) ;
#304 = LINE ( 'NONE', #828, #933 ) ;
#305 = DIRECTION ( 'NONE',  ( 3.446724104155846036E-15, 4.707963164326214853E-31, 1.000000000000000000 ) ) ;
#306 = FACE_OUTER_BOUND ( 'NONE', #1043, .T. ) ;
#307 = ORIENTED_EDGE ( 'NONE', *, *, #394, .F. ) ;
#308 = CARTESIAN_POINT ( 'NONE',  ( 0.8750000000000026645, 1.250000000000000000, 0.9712238223477800414 ) ) ;
#309 = EDGE_CURVE ( 'NONE', #69, #589, #839, .T. ) ;
#310 = EDGE_LOOP ( 'NONE', ( #668, #745, #1037, #651 ) ) ;
#311 = DIRECTION ( 'NONE',  ( 1.000000000000000000, 0.000000000000000000, 0.000000000000000000 ) ) ;
#312 = ORIENTED_EDGE ( 'NONE', *, *, #235, .T. ) ;
#313 = CARTESIAN_POINT ( 'NONE',  ( 0.8149999999999997247, -1.249999999999998446, 0.05999999999999982431 ) ) ;
#314 = EDGE_CURVE ( 'NONE', #996, #1019, #304, .T. ) ;
#315 = ORIENTED_EDGE ( 'NONE', *, *, #762, .T. ) ;
#316 = EDGE_LOOP ( 'NONE', ( #167, #256, #808, #550 ) ) ;
#317 = VECTOR ( 'NONE', #685, 39.37007874015748143 ) ;
#318 = DIRECTION ( 'NONE',  ( 1.000000000000000000, 1.092739197465700480E-16, -3.446724104155846036E-15 ) ) ;
#319 = VECTOR ( 'NONE', #690, 39.37007874015748143 ) ;
#320 = CARTESIAN_POINT ( 'NONE',  ( -1.594999999999999529, 1.249999999999999778, 0.5700000000000082778 ) ) ;
#321 = CARTESIAN_POINT ( 'NONE',  ( -1.594999999999999307, 1.249999999999999778, 0.6687761776522312962 ) ) ;
#322 = ORIENTED_EDGE ( 'NONE', *, *, #657, .T. ) ;
#323 = DIRECTION ( 'NONE',  ( 1.000000000000000000, 1.092739197465705411E-16, 0.000000000000000000 ) ) ;
#324 = ADVANCED_FACE ( 'NONE', ( #924 ), #1120, .F. ) ;
#325 = CIRCLE ( 'NONE', #678, 0.1250000000000000278 ) ;
#326 = LINE ( 'NONE', #754, #373 ) ;
#327 = CARTESIAN_POINT ( 'NONE',  ( -0.8150000000000040545, -1.249999999999999778, 1.070000000000000062 ) ) ;
#328 = VERTEX_POINT ( 'NONE', #397 ) ;
#329 = FACE_OUTER_BOUND ( 'NONE', #1136, .T. ) ;
#330 = EDGE_CURVE ( 'NONE', #939, #701, #326, .T. ) ;
#331 = CIRCLE ( 'NONE', #129, 0.1405000000000000138 ) ;
#332 = DIRECTION ( 'NONE',  ( 3.278217592397115073E-15, 0.000000000000000000, -1.000000000000000000 ) ) ;
#333 = FACE_BOUND ( 'NONE', #291, .T. ) ;
#334 = VECTOR ( 'NONE', #928, 39.37007874015748143 ) ;
#335 = ORIENTED_EDGE ( 'NONE', *, *, #377, .T. ) ;
#336 = PLANE ( 'NONE',  #829 ) ;
#337 = LINE ( 'NONE', #84, #1100 ) ;
#338 = EDGE_CURVE ( 'NONE', #862, #458, #579, .T. ) ;
#339 = AXIS2_PLACEMENT_3D ( 'NONE', #137, #489, #143 ) ;
#340 = CARTESIAN_POINT ( 'NONE',  ( -0.8150000000000026112, 1.249999999999999778, 0.6687761776522285206 ) ) ;
#341 = ORIENTED_EDGE ( 'NONE', *, *, #975, .T. ) ;
#342 = CARTESIAN_POINT ( 'NONE',  ( -0.8750000000000007772, 0.2500000000000027200, 0.05999999999999955369 ) ) ;
#343 = VECTOR ( 'NONE', #978, 39.37007874015748143 ) ;
#344 = CARTESIAN_POINT ( 'NONE',  ( 0.7549999999999993383, 1.249999999999999556, -0.05999999999999996309 ) ) ;
#345 = ADVANCED_FACE ( 'NONE', ( #749, #1107 ), #230, .F. ) ;
#346 = DIRECTION ( 'NONE',  ( 1.000000000000000000, 1.092739197465705411E-16, -3.446724104155846430E-15 ) ) ;
#347 = EDGE_LOOP ( 'NONE', ( #856, #1118, #577, #113 ) ) ;
#348 = DIRECTION ( 'NONE',  ( 0.000000000000000000, -0.7071067811865431318, -0.7071067811865517916 ) ) ;
#349 = PLANE ( 'NONE',  #541 ) ;
#350 = DIRECTION ( 'NONE',  ( -1.092739197465701713E-16, 1.000000000000000000, 1.084066664152488979E-16 ) ) ;
#351 = EDGE_CURVE ( 'NONE', #201, #1009, #986, .T. ) ;
#352 = ORIENTED_EDGE ( 'NONE', *, *, #296, .F. ) ;
#353 = FACE_OUTER_BOUND ( 'NONE', #558, .T. ) ;
#354 = EDGE_CURVE ( 'NONE', #18, #328, #494, .T. ) ;
#355 = DIRECTION ( 'NONE',  ( 1.000000000000000000, 1.092739197465705411E-16, -3.446724104155846036E-15 ) ) ;
#356 = DIRECTION ( 'NONE',  ( -3.469013325287952504E-15, 1.084066664152485158E-16, -1.000000000000000000 ) ) ;
#357 = ORIENTED_EDGE ( 'NONE', *, *, #684, .T. ) ;
#358 = CARTESIAN_POINT ( 'NONE',  ( -1.594999999999999307, 0.8800000000000024469, 0.6950000000000081668 ) ) ;
#359 = AXIS2_PLACEMENT_3D ( 'NONE', #715, #888, #822 ) ;
#360 = ADVANCED_FACE ( 'NONE', ( #1005 ), #667, .F. ) ;
#361 = LINE ( 'NONE', #726, #571 ) ;
#362 = LINE ( 'NONE', #549, #1024 ) ;
#363 = ORIENTED_EDGE ( 'NONE', *, *, #975, .F. ) ;
#364 = DIRECTION ( 'NONE',  ( 1.000000000000000000, 1.092739197465705287E-16, -3.446724104155846036E-15 ) ) ;
#365 = FACE_OUTER_BOUND ( 'NONE', #24, .T. ) ;
#366 = FACE_BOUND ( 'NONE', #277, .T. ) ;
#367 = ORIENTED_EDGE ( 'NONE', *, *, #10, .T. ) ;
#368 = CARTESIAN_POINT ( 'NONE',  ( 0.7549999999999995604, 1.249999999999999556, 0.06000000000000020595 ) ) ;
#369 = CARTESIAN_POINT ( 'NONE',  ( 0.8150000000000012790, 1.151223822347778203, 0.5699999999999999512 ) ) ;
#370 = PLANE ( 'NONE',  #192 ) ;
#371 = VERTEX_POINT ( 'NONE', #407 ) ;
#372 = CARTESIAN_POINT ( 'NONE',  ( -4.097771990496394828E-16, -0.8699999999999997735, 2.410000000000000586 ) ) ;
#373 = VECTOR ( 'NONE', #318, 39.37007874015748143 ) ;
#374 = EDGE_LOOP ( 'NONE', ( #753, #780, #367, #223 ) ) ;
#375 = CARTESIAN_POINT ( 'NONE',  ( 0.7549999999999994493, -1.249999999999998446, -1.451294246634139896E-16 ) ) ;
#376 =( LENGTH_UNIT ( ) NAMED_UNIT ( * ) SI_UNIT ( $, .METRE. ) );
#377 = EDGE_CURVE ( 'NONE', #490, #51, #567, .T. ) ;
#378 = VERTEX_POINT ( 'NONE', #313 ) ;
#379 = DIRECTION ( 'NONE',  ( -0.000000000000000000, 0.000000000000000000, 1.000000000000000000 ) ) ;
#380 = VECTOR ( 'NONE', #1067, 39.37007874015748143 ) ;
#381 = ORIENTED_EDGE ( 'NONE', *, *, #207, .F. ) ;
#382 = LINE ( 'NONE', #734, #973 ) ;
#383 = ORIENTED_EDGE ( 'NONE', *, *, #338, .F. ) ;
#384 = CARTESIAN_POINT ( 'NONE',  ( -0.8750000000000041078, -1.250000000000000000, 1.069999999999999840 ) ) ;
#385 = EDGE_CURVE ( 'NONE', #1028, #163, #47, .T. ) ;
#386 = AXIS2_PLACEMENT_3D ( 'NONE', #1131, #417, #688 ) ;
#387 = ORIENTED_EDGE ( 'NONE', *, *, #1111, .F. ) ;
#388 = DIRECTION ( 'NONE',  ( 1.000000000000000000, 1.092739197465705287E-16, 3.446724104155846036E-15 ) ) ;
#389 = LINE ( 'NONE', #131, #874 ) ;
#390 = DIRECTION ( 'NONE',  ( 0.000000000000000000, 0.000000000000000000, -1.000000000000000000 ) ) ;
#391 = CARTESIAN_POINT ( 'NONE',  ( 0.8150000000000017231, 0.8800000000000027800, 0.6949999999999998401 ) ) ;
#392 = ORIENTED_EDGE ( 'NONE', *, *, #790, .F. ) ;
#393 = VECTOR ( 'NONE', #674, 39.37007874015748143 ) ;
#394 = EDGE_CURVE ( 'NONE', #1069, #18, #772, .T. ) ;
#395 = CARTESIAN_POINT ( 'NONE',  ( -0.8750000000000041078, -1.249999999999999778, 1.069999999999999840 ) ) ;
#396 = CIRCLE ( 'NONE', #433, 0.06000000000000017819 ) ;
#397 = CARTESIAN_POINT ( 'NONE',  ( -0.8150000000000008349, -1.249999999999999778, 0.05999999999999993533 ) ) ;
#398 = CARTESIAN_POINT ( 'NONE',  ( -1.594999999999997531, 1.151223822347778203, 1.070000000000008278 ) ) ;
#399 = CARTESIAN_POINT ( 'NONE',  ( -1.594999999999998197, 0.8800000000000024469, 0.9450000000000082778 ) ) ;
#400 = VECTOR ( 'NONE', #652, 39.37007874015748143 ) ;
#401 = ORIENTED_EDGE ( 'NONE', *, *, #415, .F. ) ;
#402 = ADVANCED_FACE ( 'NONE', ( #509 ), #78, .T. ) ;
#403 = DIRECTION ( 'NONE',  ( 2.514470316587347053E-15, -0.7071067811865519026, 0.7071067811865432429 ) ) ;
#404 = ORIENTED_EDGE ( 'NONE', *, *, #351, .F. ) ;
#405 =( NAMED_UNIT ( * ) PLANE_ANGLE_UNIT ( ) SI_UNIT ( $, .RADIAN. ) );
#406 = ORIENTED_EDGE ( 'NONE', *, *, #182, .T. ) ;
#407 = CARTESIAN_POINT ( 'NONE',  ( 0.1405000000000000693, -0.1199999999999996902, 0.000000000000000000 ) ) ;
#408 = EDGE_CURVE ( 'NONE', #121, #1143, #778, .T. ) ;
#409 = CARTESIAN_POINT ( 'NONE',  ( -0.7550000000000006706, -1.249999999999999778, 0.06000000000000013656 ) ) ;
#410 = LINE ( 'NONE', #134, #887 ) ;
#411 = EDGE_LOOP ( 'NONE', ( #572, #228, #1025, #1081 ) ) ;
#412 = DIRECTION ( 'NONE',  ( -1.092739197465701713E-16, 1.000000000000000000, 1.084066664152488979E-16 ) ) ;
#413 = AXIS2_PLACEMENT_3D ( 'NONE', #622, #263, #1063 ) ;
#414 = DIRECTION ( 'NONE',  ( 1.000000000000000000, 1.092739197465705411E-16, -3.446724104155846430E-15 ) ) ;
#415 = EDGE_CURVE ( 'NONE', #638, #138, #245, .T. ) ;
#416 = VERTEX_POINT ( 'NONE', #6 ) ;
#417 = DIRECTION ( 'NONE',  ( 1.000000000000000000, 1.092739197465705287E-16, -3.446724104155846036E-15 ) ) ;
#418 = AXIS2_PLACEMENT_3D ( 'NONE', #799, #554, #898 ) ;
#419 = LINE ( 'NONE', #1127, #1137 ) ;
#420 = PLANE ( 'NONE',  #1078 ) ;
#421 = DIRECTION ( 'NONE',  ( 1.000000000000000000, 1.092739197465705287E-16, 3.446724104155846036E-15 ) ) ;
#422 = EDGE_LOOP ( 'NONE', ( #878, #905, #582, #1049 ) ) ;
#423 = CARTESIAN_POINT ( 'NONE',  ( -4.097771990496394828E-16, -0.8699999999999997735, -0.05999999999999999778 ) ) ;
#424 = AXIS2_PLACEMENT_3D ( 'NONE', #152, #388, #1119 ) ;
#425 = CARTESIAN_POINT ( 'NONE',  ( 0.7549999999999994493, 0.2500000000000028866, 0.000000000000000000 ) ) ;
#426 = DIRECTION ( 'NONE',  ( -1.000000000000000000, 0.000000000000000000, -3.414809992080318866E-15 ) ) ;
#427 = ORIENTED_EDGE ( 'NONE', *, *, #148, .T. ) ;
#428 = DIRECTION ( 'NONE',  ( -2.514470316587338770E-15, 0.7071067811865542341, -0.7071067811865406894 ) ) ;
#429 = ADVANCED_FACE ( 'NONE', ( #870, #503 ), #521, .F. ) ;
#430 = FACE_OUTER_BOUND ( 'NONE', #768, .T. ) ;
#431 = AXIS2_PLACEMENT_3D ( 'NONE', #1016, #931, #147 ) ;
#432 = CYLINDRICAL_SURFACE ( 'NONE', #1061, 0.1250000000000000278 ) ;
#433 = AXIS2_PLACEMENT_3D ( 'NONE', #86, #350, #604 ) ;
#434 = EDGE_LOOP ( 'NONE', ( #487, #846, #1054, #671 ) ) ;
#435 = LINE ( 'NONE', #278, #750 ) ;
#436 = AXIS2_PLACEMENT_3D ( 'NONE', #983, #364, #702 ) ;
#437 = DIRECTION ( 'NONE',  ( -0.000000000000000000, -0.000000000000000000, -1.000000000000000000 ) ) ;
#438 = CARTESIAN_POINT ( 'NONE',  ( 0.7549999999999994493, -1.249999999999997780, -0.05999999999999999778 ) ) ;
#439 = ADVANCED_FACE ( 'NONE', ( #699 ), #442, .F. ) ;
#440 = ORIENTED_EDGE ( 'NONE', *, *, #1004, .T. ) ;
#441 = LINE ( 'NONE', #798, #276 ) ;
#442 = PLANE ( 'NONE',  #172 ) ;
#443 = CARTESIAN_POINT ( 'NONE',  ( 0.000000000000000000, 0.000000000000000000, -0.05999999999999999778 ) ) ;
#444 = ADVANCED_FACE ( 'NONE', ( #430 ), #881, .F. ) ;
#445 = EDGE_LOOP ( 'NONE', ( #1075, #964, #507, #959 ) ) ;
#446 = DIRECTION ( 'NONE',  ( -1.092739197465705411E-16, 1.000000000000000000, 4.379057701015054319E-47 ) ) ;
#447 = FACE_OUTER_BOUND ( 'NONE', #767, .T. ) ;
#448 = VECTOR ( 'NONE', #611, 39.37007874015748143 ) ;
#449 = EDGE_LOOP ( 'NONE', ( #341, #248, #1091, #760 ) ) ;
#450 = CARTESIAN_POINT ( 'NONE',  ( 0.7549999999999994493, -1.249999999999998446, -1.451294246634139896E-16 ) ) ;
#451 = VECTOR ( 'NONE', #871, 39.37007874015748143 ) ;
#452 = LINE ( 'NONE', #1072, #1085 ) ;
#453 = FACE_BOUND ( 'NONE', #32, .T. ) ;
#454 = EDGE_LOOP ( 'NONE', ( #943, #75, #1007, #599 ) ) ;
#455 = CARTESIAN_POINT ( 'NONE',  ( -0.8150000000000040545, 1.151223822347778203, 1.070000000000005613 ) ) ;
#456 = ORIENTED_EDGE ( 'NONE', *, *, #796, .F. ) ;
#457 = CARTESIAN_POINT ( 'NONE',  ( -1.594999999999999529, 1.249999999999999778, 0.5700000000000082778 ) ) ;
#458 = VERTEX_POINT ( 'NONE', #165 ) ;
#459 = LINE ( 'NONE', #384, #588 ) ;
#460 = EDGE_LOOP ( 'NONE', ( #387, #912, #1002, #285 ) ) ;
#461 = DIRECTION ( 'NONE',  ( -1.000000000000000000, 0.000000000000000000, 0.000000000000000000 ) ) ;
#462 = EDGE_CURVE ( 'NONE', #59, #710, #615, .T. ) ;
#463 = ORIENTED_EDGE ( 'NONE', *, *, #98, .F. ) ;
#464 = PLANE ( 'NONE',  #788 ) ;
#465 = VECTOR ( 'NONE', #355, 39.37007874015748143 ) ;
#466 = ORIENTED_EDGE ( 'NONE', *, *, #468, .F. ) ;
#467 = PLANE ( 'NONE',  #238 ) ;
#468 = EDGE_CURVE ( 'NONE', #59, #80, #1034, .T. ) ;
#469 = DIRECTION ( 'NONE',  ( 2.359933657268067994E-15, 0.7071067811865542341, -0.7071067811865406894 ) ) ;
#470 = EDGE_LOOP ( 'NONE', ( #440, #1088, #706, #497 ) ) ;
#471 = DIRECTION ( 'NONE',  ( 1.000000000000000000, 0.000000000000000000, -3.491481338843134539E-15 ) ) ;
#472 = VECTOR ( 'NONE', #600, 39.37007874015748143 ) ;
#473 = EDGE_LOOP ( 'NONE', ( #546, #1000, #381, #206 ) ) ;
#474 = CARTESIAN_POINT ( 'NONE',  ( -0.8150000000000023892, 0.2500000000000026090, 0.5700000000000056133 ) ) ;
#475 = DIRECTION ( 'NONE',  ( -0.000000000000000000, -0.000000000000000000, -1.000000000000000000 ) ) ;
#476 = ORIENTED_EDGE ( 'NONE', *, *, #236, .T. ) ;
#477 = DIRECTION ( 'NONE',  ( 1.000000000000000000, 1.092739197465701590E-16, 0.000000000000000000 ) ) ;
#478 = EDGE_CURVE ( 'NONE', #866, #659, #859, .T. ) ;
#479 = VECTOR ( 'NONE', #70, 39.37007874015748143 ) ;
#480 = ORIENTED_EDGE ( 'NONE', *, *, #71, .F. ) ;
#481 = FACE_OUTER_BOUND ( 'NONE', #209, .T. ) ;
#482 = VECTOR ( 'NONE', #54, 39.37007874015748143 ) ;
#483 = FACE_OUTER_BOUND ( 'NONE', #830, .T. ) ;
#484 = PRODUCT_DEFINITION_CONTEXT ( 'detailed design', #496, 'design' ) ;
#485 = ORIENTED_EDGE ( 'NONE', *, *, #633, .T. ) ;
#486 = LINE ( 'NONE', #399, #132 ) ;
#487 = ORIENTED_EDGE ( 'NONE', *, *, #596, .F. ) ;
#488 = AXIS2_PLACEMENT_3D ( 'NONE', #1041, #527, #250 ) ;
#489 = DIRECTION ( 'NONE',  ( 1.000000000000000000, 1.092739197465705287E-16, -3.446724104155846036E-15 ) ) ;
#490 = VERTEX_POINT ( 'NONE', #1056 ) ;
#491 =( LENGTH_UNIT ( ) NAMED_UNIT ( * ) SI_UNIT ( $, .METRE. ) );
#492 = CIRCLE ( 'NONE', #548, 0.1405000000000000138 ) ;
#493 = ORIENTED_EDGE ( 'NONE', *, *, #1060, .T. ) ;
#494 = LINE ( 'NONE', #215, #1023 ) ;
#495 = ORIENTED_EDGE ( 'NONE', *, *, #596, .T. ) ;
#496 = APPLICATION_CONTEXT ( 'automotive_design' ) ;
#497 = ORIENTED_EDGE ( 'NONE', *, *, #732, .F. ) ;
#498 = CARTESIAN_POINT ( 'NONE',  ( 0.1404999999999995974, -0.8699999999999997735, 2.410000000000000586 ) ) ;
#499 = EDGE_CURVE ( 'NONE', #710, #158, #419, .T. ) ;
#500 = ORIENTED_EDGE ( 'NONE', *, *, #759, .F. ) ;
#501 = VERTEX_POINT ( 'NONE', #160 ) ;
#502 = CARTESIAN_POINT ( 'NONE',  ( -0.8750000000000041078, -1.250000000000000000, 1.069999999999999840 ) ) ;
#503 = FACE_OUTER_BOUND ( 'NONE', #1013, .T. ) ;
#504 = AXIS2_PLACEMENT_3D ( 'NONE', #443, #1052, #1135 ) ;
#505 = DIRECTION ( 'NONE',  ( 1.000000000000000000, 0.000000000000000000, 0.000000000000000000 ) ) ;
#506 = EDGE_CURVE ( 'NONE', #158, #80, #514, .T. ) ;
#507 = ORIENTED_EDGE ( 'NONE', *, *, #478, .F. ) ;
#508 = CARTESIAN_POINT ( 'NONE',  ( 0.8750000000000012212, 1.250000000000000000, 0.5699999999999998401 ) ) ;
#509 = FACE_OUTER_BOUND ( 'NONE', #1021, .T. ) ;
#510 = CARTESIAN_POINT ( 'NONE',  ( -0.7550000000000004485, -1.249999999999999778, -0.06000000000000003247 ) ) ;
#511 = EDGE_LOOP ( 'NONE', ( #401, #826, #634, #301, #580, #994, #135, #1015 ) ) ;
#512 = CARTESIAN_POINT ( 'NONE',  ( 6.409496415746635770E-17, -0.1199999999999997041, 2.410000000000000586 ) ) ;
#513 = EDGE_CURVE ( 'NONE', #128, #158, #607, .T. ) ;
#514 = LINE ( 'NONE', #344, #653 ) ;
#515 = LINE ( 'NONE', #958, #451 ) ;
#516 = ORIENTED_EDGE ( 'NONE', *, *, #591, .T. ) ;
#517 = FACE_OUTER_BOUND ( 'NONE', #730, .T. ) ;
#518 = EDGE_CURVE ( 'NONE', #371, #645, #337, .T. ) ;
#519 = DIMENSIONAL_EXPONENTS ( 1.000000000000000000, 0.000000000000000000, 0.000000000000000000, 0.000000000000000000, 0.000000000000000000, 0.000000000000000000, 0.000000000000000000 ) ;
#520 = ADVANCED_FACE ( 'NONE', ( #789 ), #349, .T. ) ;
#521 = PLANE ( 'NONE',  #488 ) ;
#522 = AXIS2_PLACEMENT_3D ( 'NONE', #848, #403, #1026 ) ;
#523 = CARTESIAN_POINT ( 'NONE',  ( -0.8750000000000049960, 1.151223822347784198, 1.069999999999999840 ) ) ;
#524 = AXIS2_PLACEMENT_3D ( 'NONE', #161, #73, #686 ) ;
#525 = VERTEX_POINT ( 'NONE', #1145 ) ;
#526 = CARTESIAN_POINT ( 'NONE',  ( 0.1404999999999995974, -0.8699999999999997735, 0.000000000000000000 ) ) ;
#527 = DIRECTION ( 'NONE',  ( 1.000000000000000000, 1.092739197465705287E-16, 3.446724104155846036E-15 ) ) ;
#528 = AXIS2_PLACEMENT_3D ( 'NONE', #620, #1086, #13 ) ;
#529 = EDGE_CURVE ( 'NONE', #564, #138, #1076, .T. ) ;
#530 = LINE ( 'NONE', #7, #231 ) ;
#531 = ORIENTED_EDGE ( 'NONE', *, *, #648, .T. ) ;
#532 = CARTESIAN_POINT ( 'NONE',  ( 0.8149999999999997247, 0.2500000000000029421, 0.06000000000000013656 ) ) ;
#533 = LINE ( 'NONE', #292, #34 ) ;
#534 = VECTOR ( 'NONE', #707, 39.37007874015748143 ) ;
#535 = EDGE_CURVE ( 'NONE', #680, #69, #269, .T. ) ;
#536 = CARTESIAN_POINT ( 'NONE',  ( 0.8749999999999996669, 8.905824459345462298E-17, 0.05999999999999969247 ) ) ;
#537 = ORIENTED_EDGE ( 'NONE', *, *, #696, .T. ) ;
#538 = DIRECTION ( 'NONE',  ( -1.092739197465705411E-16, 1.000000000000000000, 4.379057701015054319E-47 ) ) ;
#539 = CARTESIAN_POINT ( 'NONE',  ( -4.097771990496394828E-16, -0.8699999999999997735, -0.05999999999999999778 ) ) ;
#540 = CARTESIAN_POINT ( 'NONE',  ( -0.7550000000000006706, -1.249999999999999778, 0.06000000000000013656 ) ) ;
#541 = AXIS2_PLACEMENT_3D ( 'NONE', #689, #694, #1051 ) ;
#542 = EDGE_LOOP ( 'NONE', ( #193, #824, #58, #15 ) ) ;
#543 = CARTESIAN_POINT ( 'NONE',  ( 0.8150000000000029443, 1.151223822347778425, 1.070000000000000062 ) ) ;
#544 = ADVANCED_FACE ( 'NONE', ( #365 ), #115, .F. ) ;
#545 = AXIS2_PLACEMENT_3D ( 'NONE', #398, #751, #1108 ) ;
#546 = ORIENTED_EDGE ( 'NONE', *, *, #553, .T. ) ;
#547 = DIRECTION ( 'NONE',  ( 1.000000000000000000, 1.092739197465705287E-16, -3.446724104155846036E-15 ) ) ;
#548 = AXIS2_PLACEMENT_3D ( 'NONE', #1074, #379, #1105 ) ;
#549 = CARTESIAN_POINT ( 'NONE',  ( -0.8750000000000024425, -9.561467977824943451E-17, 0.5700000000000058353 ) ) ;
#550 = ORIENTED_EDGE ( 'NONE', *, *, #200, .T. ) ;
#551 = CARTESIAN_POINT ( 'NONE',  ( -0.7550000000000011147, 0.2500000000000024980, -0.05999999999999476585 ) ) ;
#552 = ORIENTED_EDGE ( 'NONE', *, *, #1125, .T. ) ;
#553 = EDGE_CURVE ( 'NONE', #982, #260, #704, .T. ) ;
#554 = DIRECTION ( 'NONE',  ( -1.092739197465701713E-16, 1.000000000000000000, 1.084066664152488979E-16 ) ) ;
#555 =( NAMED_UNIT ( * ) PLANE_ANGLE_UNIT ( ) SI_UNIT ( $, .RADIAN. ) );
#556 = ORIENTED_EDGE ( 'NONE', *, *, #314, .T. ) ;
#557 = CARTESIAN_POINT ( 'NONE',  ( -0.8750000000000008882, 1.250000000000000000, 0.05999999999999955369 ) ) ;
#558 = EDGE_LOOP ( 'NONE', ( #335, #357, #299, #922 ) ) ;
#559 = ADVANCED_FACE ( 'NONE', ( #447 ), #625, .F. ) ;
#560 = DIRECTION ( 'NONE',  ( 0.000000000000000000, 0.000000000000000000, 1.000000000000000000 ) ) ;
#561 = CARTESIAN_POINT ( 'NONE',  ( -0.8750000000000044409, 1.110611911173882360, 1.110611911173900568 ) ) ;
#562 = EDGE_LOOP ( 'NONE', ( #661, #675, #216, #676 ) ) ;
#563 = FACE_OUTER_BOUND ( 'NONE', #666, .T. ) ;
#564 = VERTEX_POINT ( 'NONE', #369 ) ;
#565 = STYLED_ITEM ( 'NONE', ( #1068 ), #196 ) ;
#566 = CARTESIAN_POINT ( 'NONE',  ( -1.595000000000001528, 0.2500000000000026090, -0.05999999999999186540 ) ) ;
#567 = LINE ( 'NONE', #758, #251 ) ;
#568 = EDGE_CURVE ( 'NONE', #1030, #158, #87, .T. ) ;
#569 = EDGE_LOOP ( 'NONE', ( #226, #613, #495, #1113 ) ) ;
#570 = DIRECTION ( 'NONE',  ( -3.446724104155846036E-15, 0.000000000000000000, 1.000000000000000000 ) ) ;
#571 = VECTOR ( 'NONE', #100, 39.37007874015748854 ) ;
#572 = ORIENTED_EDGE ( 'NONE', *, *, #1140, .T. ) ;
#573 = DIRECTION ( 'NONE',  ( 1.000000000000000000, 1.092739197465701590E-16, 0.000000000000000000 ) ) ;
#574 = DIRECTION ( 'NONE',  ( -1.000000000000000000, 0.000000000000000000, 0.000000000000000000 ) ) ;
#575 = ORIENTED_EDGE ( 'NONE', *, *, #377, .F. ) ;
#576 = VECTOR ( 'NONE', #273, 39.37007874015748143 ) ;
#577 = ORIENTED_EDGE ( 'NONE', *, *, #919, .T. ) ;
#578 = AXIS2_PLACEMENT_3D ( 'NONE', #669, #1029, #311 ) ;
#579 = LINE ( 'NONE', #498, #393 ) ;
#580 = ORIENTED_EDGE ( 'NONE', *, *, #314, .F. ) ;
#581 = APPLICATION_PROTOCOL_DEFINITION ( 'draft international standard', 'automotive_design', 1998, #496 ) ;
#582 = ORIENTED_EDGE ( 'NONE', *, *, #869, .F. ) ;
#583 = AXIS2_PLACEMENT_3D ( 'NONE', #41, #937, #836 ) ;
#584 = VECTOR ( 'NONE', #287, 39.37007874015748143 ) ;
#585 = CARTESIAN_POINT ( 'NONE',  ( -4.097771990496394828E-16, -0.8699999999999997735, 2.410000000000000586 ) ) ;
#586 = ORIENTED_EDGE ( 'NONE', *, *, #499, .F. ) ;
#587 =( CONVERSION_BASED_UNIT ( 'INCH', #1018 ) LENGTH_UNIT ( ) NAMED_UNIT ( #519 ) );
#588 = VECTOR ( 'NONE', #104, 39.37007874015748143 ) ;
#589 = VERTEX_POINT ( 'NONE', #286 ) ;
#590 = AXIS2_PLACEMENT_3D ( 'NONE', #17, #820, #630 ) ;
#591 = EDGE_CURVE ( 'NONE', #490, #939, #361, .T. ) ;
#592 = DIRECTION ( 'NONE',  ( 1.000000000000000000, 1.092739197465705287E-16, 3.446724104155846036E-15 ) ) ;
#593 = ORIENTED_EDGE ( 'NONE', *, *, #762, .F. ) ;
#594 = EDGE_LOOP ( 'NONE', ( #476, #733 ) ) ;
#595 = LINE ( 'NONE', #692, #626 ) ;
#596 = EDGE_CURVE ( 'NONE', #680, #890, #974, .T. ) ;
#597 = DIRECTION ( 'NONE',  ( 1.000000000000000000, 0.000000000000000000, 0.000000000000000000 ) ) ;
#598 = DIRECTION ( 'NONE',  ( -1.000000000000000000, 0.000000000000000000, 0.000000000000000000 ) ) ;
#599 = ORIENTED_EDGE ( 'NONE', *, *, #670, .T. ) ;
#600 = DIRECTION ( 'NONE',  ( 3.446724104155846036E-15, 1.084066664152492800E-16, -1.000000000000000000 ) ) ;
#601 = DIRECTION ( 'NONE',  ( -3.491481338843134539E-15, -3.815278516173931870E-31, 1.000000000000000000 ) ) ;
#602 = PRESENTATION_LAYER_ASSIGNMENT (  '', '', ( #565 ) ) ;
#603 = ADVANCED_FACE ( 'NONE', ( #95 ), #467, .F. ) ;
#604 = DIRECTION ( 'NONE',  ( 1.000000000000000000, 0.000000000000000000, 0.000000000000000000 ) ) ;
#605 = ORIENTED_EDGE ( 'NONE', *, *, #663, .F. ) ;
#606 = DIRECTION ( 'NONE',  ( 1.000000000000000000, 1.092739197465705411E-16, 0.000000000000000000 ) ) ;
#607 = LINE ( 'NONE', #425, #1077 ) ;
#608 = CARTESIAN_POINT ( 'NONE',  ( -4.097771990496394828E-16, -0.8699999999999997735, 0.000000000000000000 ) ) ;
#609 = ORIENTED_EDGE ( 'NONE', *, *, #513, .F. ) ;
#610 = DIRECTION ( 'NONE',  ( -0.000000000000000000, -1.000000000000000000, -7.114187483500681151E-17 ) ) ;
#611 = DIRECTION ( 'NONE',  ( 1.092739197465705411E-16, -1.000000000000000000, 4.379057701015054319E-47 ) ) ;
#612 = LINE ( 'NONE', #523, #911 ) ;
#613 = ORIENTED_EDGE ( 'NONE', *, *, #535, .F. ) ;
#614 = LINE ( 'NONE', #1055, #576 ) ;
#615 = LINE ( 'NONE', #783, #967 ) ;
#616 = FACE_OUTER_BOUND ( 'NONE', #819, .T. ) ;
#617 = ORIENTED_EDGE ( 'NONE', *, *, #1111, .T. ) ;
#618 = LINE ( 'NONE', #1065, #534 ) ;
#619 = EDGE_CURVE ( 'NONE', #701, #681, #187, .T. ) ;
#620 = CARTESIAN_POINT ( 'NONE',  ( -1.594999999999998641, 0.8800000000000024469, 0.8200000000000081668 ) ) ;
#621 = AXIS2_PLACEMENT_3D ( 'NONE', #457, #1062, #279 ) ;
#622 = CARTESIAN_POINT ( 'NONE',  ( -0.8150000000000005018, -8.905824459345502973E-17, -3.015883591136366908E-15 ) ) ;
#623 = ORIENTED_EDGE ( 'NONE', *, *, #861, .T. ) ;
#624 = LINE ( 'NONE', #884, #343 ) ;
#625 = PLANE ( 'NONE',  #621 ) ;
#626 = VECTOR ( 'NONE', #168, 39.37007874015748143 ) ;
#627 = CARTESIAN_POINT ( 'NONE',  ( -1.594999999999998197, 1.249999999999999778, 0.9712238223477884791 ) ) ;
#628 = ORIENTED_EDGE ( 'NONE', *, *, #853, .F. ) ;
#629 = FACE_OUTER_BOUND ( 'NONE', #511, .T. ) ;
#630 = DIRECTION ( 'NONE',  ( 3.278217592397115073E-15, 0.000000000000000000, -1.000000000000000000 ) ) ;
#631 = CARTESIAN_POINT ( 'NONE',  ( 0.8150000000000020561, 0.8800000000000027800, 0.8199999999999998401 ) ) ;
#632 = VECTOR ( 'NONE', #597, 39.37007874015748143 ) ;
#633 = EDGE_CURVE ( 'NONE', #1028, #525, #533, .T. ) ;
#634 = ORIENTED_EDGE ( 'NONE', *, *, #213, .F. ) ;
#635 = DIRECTION ( 'NONE',  ( -1.000000000000000000, 0.000000000000000000, -3.414809992080322811E-15 ) ) ;
#636 = DIRECTION ( 'NONE',  ( 1.092739197465705287E-16, -1.000000000000000000, 9.415926328652531301E-32 ) ) ;
#637 = DIRECTION ( 'NONE',  ( -0.000000000000000000, 0.000000000000000000, 1.000000000000000000 ) ) ;
#638 = VERTEX_POINT ( 'NONE', #903 ) ;
#639 = CARTESIAN_POINT ( 'NONE',  ( -0.1405000000000004301, -0.8699999999999997735, 0.000000000000000000 ) ) ;
#640 = EDGE_CURVE ( 'NONE', #890, #80, #712, .T. ) ;
#641 = ORIENTED_EDGE ( 'NONE', *, *, #118, .F. ) ;
#642 = EDGE_CURVE ( 'NONE', #93, #564, #452, .T. ) ;
#643 = DIRECTION ( 'NONE',  ( -3.278217592397115073E-15, 0.000000000000000000, -1.000000000000000000 ) ) ;
#644 = SURFACE_STYLE_FILL_AREA ( #181 ) ;
#645 = VERTEX_POINT ( 'NONE', #980 ) ;
#646 = FACE_OUTER_BOUND ( 'NONE', #422, .T. ) ;
#647 = ORIENTED_EDGE ( 'NONE', *, *, #39, .F. ) ;
#648 = EDGE_CURVE ( 'NONE', #934, #458, #770, .T. ) ;
#649 = LINE ( 'NONE', #863, #1036 ) ;
#650 = DIRECTION ( 'NONE',  ( 1.000000000000000000, 0.000000000000000000, 0.000000000000000000 ) ) ;
#651 = ORIENTED_EDGE ( 'NONE', *, *, #834, .T. ) ;
#652 = DIRECTION ( 'NONE',  ( 2.276539994720212841E-15, -7.114187483500766200E-17, -1.000000000000000000 ) ) ;
#653 = VECTOR ( 'NONE', #864, 39.37007874015748143 ) ;
#654 = ORIENTED_EDGE ( 'NONE', *, *, #1060, .F. ) ;
#655 = CLOSED_SHELL ( 'NONE', ( #268, #324, #544, #155, #847, #444, #748, #947, #45, #243, #520, #174, #966, #909, #141, #713, #936, #345, #961, #439, #997, #91, #267, #784, #429, #105, #402, #30, #720, #22, #559, #1098, #804, #1066, #916, #360, #31, #603 ) ) ;
#656 = DIRECTION ( 'NONE',  ( 1.092739197465701590E-16, -1.000000000000000000, -1.084066664152488979E-16 ) ) ;
#657 = EDGE_CURVE ( 'NONE', #525, #416, #177, .T. ) ;
#658 = CARTESIAN_POINT ( 'NONE',  ( 0.8750000000000029976, 1.151223822347778425, 1.069999999999999840 ) ) ;
#659 = VERTEX_POINT ( 'NONE', #208 ) ;
#660 = CARTESIAN_POINT ( 'NONE',  ( -0.1404999999999999305, -0.1199999999999997041, 0.000000000000000000 ) ) ;
#661 = ORIENTED_EDGE ( 'NONE', *, *, #518, .F. ) ;
#662 = CARTESIAN_POINT ( 'NONE',  ( 0.8150000000000026112, 1.250000000000000000, 0.9712238223477801524 ) ) ;
#663 = EDGE_CURVE ( 'NONE', #890, #378, #271, .T. ) ;
#664 = ORIENTED_EDGE ( 'NONE', *, *, #227, .T. ) ;
#665 = CARTESIAN_POINT ( 'NONE',  ( -1.594999999999998641, 0.8800000000000024469, 0.8200000000000081668 ) ) ;
#666 = EDGE_LOOP ( 'NONE', ( #211, #971, #178, #930 ) ) ;
#667 = PLANE ( 'NONE',  #522 ) ;
#668 = ORIENTED_EDGE ( 'NONE', *, *, #553, .F. ) ;
#669 = CARTESIAN_POINT ( 'NONE',  ( 0.000000000000000000, 0.000000000000000000, 0.000000000000000000 ) ) ;
#670 = EDGE_CURVE ( 'NONE', #37, #1097, #325, .T. ) ;
#671 = ORIENTED_EDGE ( 'NONE', *, *, #640, .F. ) ;
#672 = AXIS2_PLACEMENT_3D ( 'NONE', #90, #601, #969 ) ;
#673 = AXIS2_PLACEMENT_3D ( 'NONE', #743, #390, #598 ) ;
#674 = DIRECTION ( 'NONE',  ( -0.000000000000000000, -0.000000000000000000, -1.000000000000000000 ) ) ;
#675 = ORIENTED_EDGE ( 'NONE', *, *, #790, .T. ) ;
#676 = ORIENTED_EDGE ( 'NONE', *, *, #63, .T. ) ;
#677 = CARTESIAN_POINT ( 'NONE',  ( 0.8750000000000032196, -1.250000000000000000, 1.069999999999999840 ) ) ;
#678 = AXIS2_PLACEMENT_3D ( 'NONE', #27, #547, #643 ) ;
#679 = DIRECTION ( 'NONE',  ( 1.000000000000000000, 1.092739197465701590E-16, 0.000000000000000000 ) ) ;
#680 = VERTEX_POINT ( 'NONE', #998 ) ;
#681 = VERTEX_POINT ( 'NONE', #474 ) ;
#682 = DIRECTION ( 'NONE',  ( 1.092739197465701590E-16, -1.000000000000000000, -1.084066664152488979E-16 ) ) ;
#683 = AXIS2_PLACEMENT_3D ( 'NONE', #130, #956, #835 ) ;
#684 = EDGE_CURVE ( 'NONE', #51, #701, #382, .T. ) ;
#685 = DIRECTION ( 'NONE',  ( 1.000000000000000000, 1.092739197465705411E-16, -3.446724104155846036E-15 ) ) ;
#686 = DIRECTION ( 'NONE',  ( -1.000000000000000000, 0.000000000000000000, 0.000000000000000000 ) ) ;
#687 = ORIENTED_EDGE ( 'NONE', *, *, #309, .T. ) ;
#688 = DIRECTION ( 'NONE',  ( -3.278217592397115073E-15, 0.000000000000000000, -1.000000000000000000 ) ) ;
#689 = CARTESIAN_POINT ( 'NONE',  ( -0.8750000000000003331, -1.250000000000000000, -0.05999999999999999778 ) ) ;
#690 = DIRECTION ( 'NONE',  ( 3.446724104155846036E-15, 1.084066664152492800E-16, -1.000000000000000000 ) ) ;
#691 = ORIENTED_EDGE ( 'NONE', *, *, #663, .T. ) ;
#692 = CARTESIAN_POINT ( 'NONE',  ( -0.8150000000000005018, -1.249999999999999556, 0.05999999999999990757 ) ) ;
#693 = AXIS2_PLACEMENT_3D ( 'NONE', #368, #1001, #717 ) ;
#694 = DIRECTION ( 'NONE',  ( 0.000000000000000000, -1.000000000000000000, 0.000000000000000000 ) ) ;
#695 = DIRECTION ( 'NONE',  ( -4.370956789862820361E-15, 0.000000000000000000, -1.000000000000000000 ) ) ;
#696 = EDGE_CURVE ( 'NONE', #501, #944, #1099, .T. ) ;
#697 = ORIENTED_EDGE ( 'NONE', *, *, #648, .F. ) ;
#698 = DIRECTION ( 'NONE',  ( 2.359933657268067994E-15, 0.7071067811865542341, -0.7071067811865406894 ) ) ;
#699 = FACE_OUTER_BOUND ( 'NONE', #374, .T. ) ;
#700 = DIRECTION ( 'NONE',  ( 1.000000000000000000, 0.000000000000000000, 0.000000000000000000 ) ) ;
#701 = VERTEX_POINT ( 'NONE', #297 ) ;
#702 = DIRECTION ( 'NONE',  ( -3.446724104155846036E-15, 0.000000000000000000, -1.000000000000000000 ) ) ;
#703 = EDGE_CURVE ( 'NONE', #1019, #797, #123, .T. ) ;
#704 = LINE ( 'NONE', #892, #880 ) ;
#705 = FACE_BOUND ( 'NONE', #108, .T. ) ;
#706 = ORIENTED_EDGE ( 'NONE', *, *, #354, .F. ) ;
#707 = DIRECTION ( 'NONE',  ( -1.092739197465701590E-16, 1.000000000000000000, 1.092739197465705411E-16 ) ) ;
#708 = DIRECTION ( 'NONE',  ( 0.000000000000000000, 0.7071067811865542341, -0.7071067811865406894 ) ) ;
#709 = SURFACE_STYLE_USAGE ( .BOTH. , #1094 ) ;
#710 = VERTEX_POINT ( 'NONE', #1003 ) ;
#711 = PLANE ( 'NONE',  #142 ) ;
#712 = LINE ( 'NONE', #375, #380 ) ;
#713 = ADVANCED_FACE ( 'NONE', ( #481 ), #857, .T. ) ;
#714 = CIRCLE ( 'NONE', #102, 0.1200000000000001760 ) ;
#715 = CARTESIAN_POINT ( 'NONE',  ( 0.7549999999999995604, -1.249999999999998890, 0.06000000000000002554 ) ) ;
#716 = VERTEX_POINT ( 'NONE', #395 ) ;
#717 = DIRECTION ( 'NONE',  ( 1.000000000000000000, 0.000000000000000000, -3.414809992080322811E-15 ) ) ;
#718 = AXIS2_PLACEMENT_3D ( 'NONE', #665, #62, #761 ) ;
#719 = CARTESIAN_POINT ( 'NONE',  ( -0.8150000000000023892, -8.905824459345520230E-17, 0.5700000000000056133 ) ) ;
#720 = ADVANCED_FACE ( 'NONE', ( #329 ), #915, .F. ) ;
#721 = CARTESIAN_POINT ( 'NONE',  ( 0.8750000000000029976, 1.151223822347778425, 1.069999999999999840 ) ) ;
#722 = AXIS2_PLACEMENT_3D ( 'NONE', #320, #305, #948 ) ;
#723 = ORIENTED_EDGE ( 'NONE', *, *, #506, .T. ) ;
#724 = CARTESIAN_POINT ( 'NONE',  ( -0.1405000000000004301, -0.8699999999999997735, 2.410000000000000586 ) ) ;
#725 = EDGE_LOOP ( 'NONE', ( #1106, #1064, #145, #984, #1109, #427, #840, #232 ) ) ;
#726 = CARTESIAN_POINT ( 'NONE',  ( -0.8749999999999995559, 0.2906119111738915128, -0.2906119111738912353 ) ) ;
#727 = VECTOR ( 'NONE', #1096, 39.37007874015748143 ) ;
#728 = VECTOR ( 'NONE', #886, 39.37007874015748143 ) ;
#729 = DIRECTION ( 'NONE',  ( 1.000000000000000000, 0.000000000000000000, 0.000000000000000000 ) ) ;
#730 = EDGE_LOOP ( 'NONE', ( #902, #1123, #623, #691 ) ) ;
#731 = LINE ( 'NONE', #1089, #85 ) ;
#732 = EDGE_CURVE ( 'NONE', #716, #18, #1093, .T. ) ;
#733 = ORIENTED_EDGE ( 'NONE', *, *, #351, .T. ) ;
#734 = CARTESIAN_POINT ( 'NONE',  ( -0.8149999999999995026, 0.2906119111738916794, -0.2906119111738912353 ) ) ;
#735 = DIRECTION ( 'NONE',  ( 1.000000000000000000, 1.092739197465705411E-16, -3.446724104155846036E-15 ) ) ;
#736 = ORIENTED_EDGE ( 'NONE', *, *, #640, .T. ) ;
#737 = CARTESIAN_POINT ( 'NONE',  ( 0.8749999999999995559, 0.2500000000000028866, 0.05999999999999950512 ) ) ;
#738 = ORIENTED_EDGE ( 'NONE', *, *, #118, .T. ) ;
#739 = VECTOR ( 'NONE', #570, 39.37007874015748143 ) ;
#740 = EDGE_CURVE ( 'NONE', #138, #1143, #951, .T. ) ;
#741 = CARTESIAN_POINT ( 'NONE',  ( 0.8150000000000031664, -1.250000000000000000, 1.070000000000000062 ) ) ;
#742 = CYLINDRICAL_SURFACE ( 'NONE', #1044, 0.1405000000000000138 ) ;
#743 = CARTESIAN_POINT ( 'NONE',  ( 6.409496415746635770E-17, -0.1199999999999997041, -0.05999999999999999778 ) ) ;
#744 = LINE ( 'NONE', #724, #833 ) ;
#745 = ORIENTED_EDGE ( 'NONE', *, *, #941, .F. ) ;
#746 = CIRCLE ( 'NONE', #1103, 0.1200000000000002176 ) ;
#747 = LINE ( 'NONE', #65, #1071 ) ;
#748 = ADVANCED_FACE ( 'NONE', ( #303 ), #35, .F. ) ;
#749 = FACE_BOUND ( 'NONE', #594, .T. ) ;
#750 = VECTOR ( 'NONE', #9, 39.37007874015748143 ) ;
#751 = DIRECTION ( 'NONE',  ( -2.359933657268116509E-15, -0.7071067811865408004, -0.7071067811865543451 ) ) ;
#752 = CARTESIAN_POINT ( 'NONE',  ( 0.8750000000000013323, 0.2500000000000028311, 0.5699999999999998401 ) ) ;
#753 = ORIENTED_EDGE ( 'NONE', *, *, #235, .F. ) ;
#754 = CARTESIAN_POINT ( 'NONE',  ( -1.594999999999999529, 1.151223822347777981, 0.5700000000000082778 ) ) ;
#755 = EDGE_CURVE ( 'NONE', #589, #328, #649, .T. ) ;
#756 = ORIENTED_EDGE ( 'NONE', *, *, #755, .T. ) ;
#757 = ORIENTED_EDGE ( 'NONE', *, *, #919, .F. ) ;
#758 = CARTESIAN_POINT ( 'NONE',  ( -1.594999999999999307, 1.249999999999999778, 0.6687761776522312962 ) ) ;
#759 = EDGE_CURVE ( 'NONE', #416, #525, #183, .T. ) ;
#760 = ORIENTED_EDGE ( 'NONE', *, *, #935, .F. ) ;
#761 = DIRECTION ( 'NONE',  ( -4.370956789862820361E-15, 0.000000000000000000, -1.000000000000000000 ) ) ;
#762 = EDGE_CURVE ( 'NONE', #458, #934, #331, .T. ) ;
#763 = ORIENTED_EDGE ( 'NONE', *, *, #296, .T. ) ;
#764 = VECTOR ( 'NONE', #175, 39.37007874015748854 ) ;
#765 = AXIS2_PLACEMENT_3D ( 'NONE', #409, #927, #1104 ) ;
#766 = FACE_OUTER_BOUND ( 'NONE', #802, .T. ) ;
#767 = EDGE_LOOP ( 'NONE', ( #3, #204, #171, #218 ) ) ;
#768 = EDGE_LOOP ( 'NONE', ( #586, #294, #849, #190 ) ) ;
#769 = CYLINDRICAL_SURFACE ( 'NONE', #777, 0.1405000000000000138 ) ;
#770 = CIRCLE ( 'NONE', #1027, 0.1405000000000000138 ) ;
#771 = EDGE_CURVE ( 'NONE', #490, #866, #747, .T. ) ;
#772 = LINE ( 'NONE', #72, #448 ) ;
#773 = CARTESIAN_POINT ( 'NONE',  ( 0.8749999999999992228, 1.250000000000000000, -2.094888803305880210E-16 ) ) ;
#774 = APPLICATION_PROTOCOL_DEFINITION ( 'draft international standard', 'automotive_design', 1998, #42 ) ;
#775 = ORIENTED_EDGE ( 'NONE', *, *, #619, .F. ) ;
#776 = DIRECTION ( 'NONE',  ( -3.446724104155846036E-15, -0.000000000000000000, 1.000000000000000000 ) ) ;
#777 = AXIS2_PLACEMENT_3D ( 'NONE', #512, #46, #242 ) ;
#778 = LINE ( 'NONE', #946, #317 ) ;
#779 = DIRECTION ( 'NONE',  ( -1.000000000000000000, -1.092739197465705411E-16, 0.000000000000000000 ) ) ;
#780 = ORIENTED_EDGE ( 'NONE', *, *, #823, .T. ) ;
#781 = CARTESIAN_POINT ( 'NONE',  ( 0.7549999999999995604, 1.249999999999999556, 0.06000000000000020595 ) ) ;
#782 = VECTOR ( 'NONE', #66, 39.37007874015748143 ) ;
#783 = CARTESIAN_POINT ( 'NONE',  ( -0.7550000000000004485, -1.249999999999999556, -0.06000000000000003247 ) ) ;
#784 = ADVANCED_FACE ( 'NONE', ( #219 ), #336, .T. ) ;
#785 = CARTESIAN_POINT ( 'NONE',  ( -0.7550000000000005596, 0.2500000000000024980, -1.451294246634139896E-16 ) ) ;
#786 = EDGE_LOOP ( 'NONE', ( #990, #617, #253, #1073 ) ) ;
#787 = DIRECTION ( 'NONE',  ( 1.000000000000000000, 1.092739197465701590E-16, 0.000000000000000000 ) ) ;
#788 = AXIS2_PLACEMENT_3D ( 'NONE', #210, #33, #477 ) ;
#789 = FACE_OUTER_BOUND ( 'NONE', #434, .T. ) ;
#790 = EDGE_CURVE ( 'NONE', #371, #977, #868, .T. ) ;
#791 = CYLINDRICAL_SURFACE ( 'NONE', #12, 0.06000000000000017819 ) ;
#792 = ORIENTED_EDGE ( 'NONE', *, *, #568, .T. ) ;
#793 = CARTESIAN_POINT ( 'NONE',  ( -0.1404999999999999305, -0.1199999999999997041, -0.05999999999999999778 ) ) ;
#794 = CARTESIAN_POINT ( 'NONE',  ( -0.7550000000000006706, -1.249999999999999778, 0.06000000000000013656 ) ) ;
#795 = CARTESIAN_POINT ( 'NONE',  ( -4.097771990496394828E-16, -0.8699999999999997735, 0.000000000000000000 ) ) ;
#796 = EDGE_CURVE ( 'NONE', #1097, #37, #885, .T. ) ;
#797 = VERTEX_POINT ( 'NONE', #741 ) ;
#798 = CARTESIAN_POINT ( 'NONE',  ( 0.8750000000000029976, 1.250000000000000000, 1.069999999999999840 ) ) ;
#799 = CARTESIAN_POINT ( 'NONE',  ( 0.7549999999999995604, 0.2500000000000029421, 0.06000000000000013656 ) ) ;
#800 = CARTESIAN_POINT ( 'NONE',  ( 0.8749999999999992228, 1.250000000000000000, -2.094888803305880210E-16 ) ) ;
#801 = CIRCLE ( 'NONE', #765, 0.1200000000000001898 ) ;
#802 = EDGE_LOOP ( 'NONE', ( #811, #126, #315, #64 ) ) ;
#803 = LINE ( 'NONE', #358, #991 ) ;
#804 = ADVANCED_FACE ( 'NONE', ( #164 ), #769, .F. ) ;
#805 = DIRECTION ( 'NONE',  ( 0.000000000000000000, 0.000000000000000000, -1.000000000000000000 ) ) ;
#806 = EDGE_LOOP ( 'NONE', ( #282, #456 ) ) ;
#807 = DIRECTION ( 'NONE',  ( 9.106159978881693866E-15, 0.000000000000000000, 1.000000000000000000 ) ) ;
#808 = ORIENTED_EDGE ( 'NONE', *, *, #207, .T. ) ;
#809 = CARTESIAN_POINT ( 'NONE',  ( -0.7550000000000005596, -1.249999999999999556, -3.414809992080329023E-17 ) ) ;
#810 =( NAMED_UNIT ( * ) SI_UNIT ( $, .STERADIAN. ) SOLID_ANGLE_UNIT ( ) );
#811 = ORIENTED_EDGE ( 'NONE', *, *, #39, .T. ) ;
#812 = LINE ( 'NONE', #199, #727 ) ;
#813 = CARTESIAN_POINT ( 'NONE',  ( -0.8750000000000003331, -1.250000000000000000, 0.000000000000000000 ) ) ;
#814 = LINE ( 'NONE', #536, #584 ) ;
#815 = AXIS2_PLACEMENT_3D ( 'NONE', #957, #169, #679 ) ;
#816 = COLOUR_RGB ( '',0.7921568627450980005, 0.8196078431372548767, 0.9333333333333333481 ) ;
#817 = ORIENTED_EDGE ( 'NONE', *, *, #755, .F. ) ;
#818 = CARTESIAN_POINT ( 'NONE',  ( -0.8750000000000038858, 0.8800000000000026690, 0.9450000000000057243 ) ) ;
#819 = EDGE_LOOP ( 'NONE', ( #96, #687, #756, #312 ) ) ;
#820 = DIRECTION ( 'NONE',  ( 1.000000000000000000, 1.092739197465705287E-16, 3.446724104155846036E-15 ) ) ;
#821 = AXIS2_PLACEMENT_3D ( 'NONE', #985, #194, #560 ) ;
#822 = DIRECTION ( 'NONE',  ( 0.000000000000000000, 7.114187483500681151E-17, -1.000000000000000000 ) ) ;
#823 = EDGE_CURVE ( 'NONE', #328, #20, #595, .T. ) ;
#824 = ORIENTED_EDGE ( 'NONE', *, *, #929, .T. ) ;
#825 = DIRECTION ( 'NONE',  ( -1.092739197465703685E-16, 1.000000000000000000, -5.463695987328527053E-17 ) ) ;
#826 = ORIENTED_EDGE ( 'NONE', *, *, #200, .F. ) ;
#827 = DIRECTION ( 'NONE',  ( -1.000000000000000000, -1.092739197465705287E-16, 3.491481338843133750E-15 ) ) ;
#828 = CARTESIAN_POINT ( 'NONE',  ( 0.8750000000000032196, -1.250000000000000000, 1.069999999999999840 ) ) ;
#829 = AXIS2_PLACEMENT_3D ( 'NONE', #502, #923, #606 ) ;
#830 = EDGE_LOOP ( 'NONE', ( #575, #949, #144, #654 ) ) ;
#831 = FACE_OUTER_BOUND ( 'NONE', #310, .T. ) ;
#832 = ORIENTED_EDGE ( 'NONE', *, *, #929, .F. ) ;
#833 = VECTOR ( 'NONE', #290, 39.37007874015748143 ) ;
#834 = EDGE_CURVE ( 'NONE', #1019, #260, #441, .T. ) ;
#835 = DIRECTION ( 'NONE',  ( 1.000000000000000000, 0.000000000000000000, 0.000000000000000000 ) ) ;
#836 = DIRECTION ( 'NONE',  ( -1.000000000000000000, -1.092739197465705411E-16, 0.000000000000000000 ) ) ;
#837 = FACE_OUTER_BOUND ( 'NONE', #445, .T. ) ;
#838 = CYLINDRICAL_SURFACE ( 'NONE', #718, 0.1250000000000000278 ) ;
#839 = CIRCLE ( 'NONE', #950, 0.06000000000000017819 ) ;
#840 = ORIENTED_EDGE ( 'NONE', *, *, #941, .T. ) ;
#841 = EDGE_CURVE ( 'NONE', #378, #914, #618, .T. ) ;
#842 = DIRECTION ( 'NONE',  ( 1.000000000000000000, 1.092739197465705287E-16, -3.491481338843133750E-15 ) ) ;
#843 = VECTOR ( 'NONE', #428, 39.37007874015748854 ) ;
#844 = EDGE_LOOP ( 'NONE', ( #352, #605, #736, #907 ) ) ;
#845 = DIRECTION ( 'NONE',  ( -1.000000000000000000, 0.000000000000000000, -3.557093741750340846E-15 ) ) ;
#846 = ORIENTED_EDGE ( 'NONE', *, *, #1053, .T. ) ;
#847 = ADVANCED_FACE ( 'NONE', ( #867 ), #1059, .F. ) ;
#848 = CARTESIAN_POINT ( 'NONE',  ( -1.594999999999999529, 1.151223822347777981, 0.5700000000000082778 ) ) ;
#849 = ORIENTED_EDGE ( 'NONE', *, *, #262, .T. ) ;
#850 = CARTESIAN_POINT ( 'NONE',  ( -0.8750000000000035527, 0.8800000000000026690, 0.8200000000000057243 ) ) ;
#851 = ORIENTED_EDGE ( 'NONE', *, *, #354, .T. ) ;
#852 = DIRECTION ( 'NONE',  ( 1.000000000000000000, 1.092739197465705411E-16, -3.446724104155846036E-15 ) ) ;
#853 = EDGE_CURVE ( 'NONE', #1069, #659, #1050, .T. ) ;
#854 = ORIENTED_EDGE ( 'NONE', *, *, #529, .T. ) ;
#855 =( NAMED_UNIT ( * ) SI_UNIT ( $, .STERADIAN. ) SOLID_ANGLE_UNIT ( ) );
#856 = ORIENTED_EDGE ( 'NONE', *, *, #633, .F. ) ;
#857 = PLANE ( 'NONE',  #917 ) ;
#858 = VECTOR ( 'NONE', #735, 39.37007874015748143 ) ;
#859 = LINE ( 'NONE', #153, #782 ) ;
#860 = CARTESIAN_POINT ( 'NONE',  ( 0.8750000000000017764, 0.8800000000000027800, 0.6949999999999997291 ) ) ;
#861 = EDGE_CURVE ( 'NONE', #128, #890, #614, .T. ) ;
#862 = VERTEX_POINT ( 'NONE', #526 ) ;
#863 = CARTESIAN_POINT ( 'NONE',  ( -0.8150000000000008349, 1.250000000000000000, 0.05999999999999976880 ) ) ;
#864 = DIRECTION ( 'NONE',  ( -0.000000000000000000, -1.000000000000000000, -7.114187483500681151E-17 ) ) ;
#865 = CARTESIAN_POINT ( 'NONE',  ( -0.7550000000000006706, -1.249999999999999556, 0.06000000000000013656 ) ) ;
#866 = VERTEX_POINT ( 'NONE', #891 ) ;
#867 = FACE_OUTER_BOUND ( 'NONE', #786, .T. ) ;
#868 = CIRCLE ( 'NONE', #683, 0.1405000000000000138 ) ;
#869 = EDGE_CURVE ( 'NONE', #80, #996, #714, .T. ) ;
#870 = FACE_BOUND ( 'NONE', #900, .T. ) ;
#871 = DIRECTION ( 'NONE',  ( 3.446724104155846036E-15, -0.000000000000000000, 1.000000000000000000 ) ) ;
#872 = ORIENTED_EDGE ( 'NONE', *, *, #385, .F. ) ;
#873 = DIRECTION ( 'NONE',  ( 0.000000000000000000, 1.000000000000000000, 7.114187483500681151E-17 ) ) ;
#874 = VECTOR ( 'NONE', #124, 39.37007874015748143 ) ;
#875 = EDGE_CURVE ( 'NONE', #1009, #37, #435, .T. ) ;
#876 = DIRECTION ( 'NONE',  ( 0.000000000000000000, 7.114187483500681151E-17, 1.000000000000000000 ) ) ;
#877 = CARTESIAN_POINT ( 'NONE',  ( 0.8750000000000012212, 1.151223822347778203, 0.5699999999999998401 ) ) ;
#878 = ORIENTED_EDGE ( 'NONE', *, *, #568, .F. ) ;
#879 = DIRECTION ( 'NONE',  ( 1.000000000000000000, 0.000000000000000000, -3.414809992080318866E-15 ) ) ;
#880 = VECTOR ( 'NONE', #908, 39.37007874015748143 ) ;
#881 = PLANE ( 'NONE',  #815 ) ;
#882 = DIRECTION ( 'NONE',  ( -0.000000000000000000, 0.000000000000000000, 1.000000000000000000 ) ) ;
#883 = ORIENTED_EDGE ( 'NONE', *, *, #703, .T. ) ;
#884 = CARTESIAN_POINT ( 'NONE',  ( 0.8749999999999995559, 0.2500000000000028866, 0.05999999999999950512 ) ) ;
#885 = CIRCLE ( 'NONE', #386, 0.1250000000000000278 ) ;
#886 = DIRECTION ( 'NONE',  ( 1.000000000000000000, 0.000000000000000000, 0.000000000000000000 ) ) ;
#887 = VECTOR ( 'NONE', #845, 39.37007874015748143 ) ;
#888 = DIRECTION ( 'NONE',  ( 0.000000000000000000, -1.000000000000000000, -7.114187483500681151E-17 ) ) ;
#889 = EDGE_CURVE ( 'NONE', #982, #289, #97, .T. ) ;
#890 = VERTEX_POINT ( 'NONE', #450 ) ;
#891 = CARTESIAN_POINT ( 'NONE',  ( -0.8750000000000042188, 1.249999999999999778, 0.9712238223477860366 ) ) ;
#892 = CARTESIAN_POINT ( 'NONE',  ( -1.594999999999997531, 1.151223822347778203, 1.070000000000008278 ) ) ;
#893 = DIRECTION ( 'NONE',  ( 0.000000000000000000, 0.000000000000000000, -1.000000000000000000 ) ) ;
#894 = VECTOR ( 'NONE', #356, 39.37007874015748143 ) ;
#895 = ORIENTED_EDGE ( 'NONE', *, *, #2, .F. ) ;
#896 = LINE ( 'NONE', #551, #1132 ) ;
#897 = VECTOR ( 'NONE', #265, 39.37007874015748143 ) ;
#898 = DIRECTION ( 'NONE',  ( 1.000000000000000000, 0.000000000000000000, -5.335640612625504959E-15 ) ) ;
#899 = DIRECTION ( 'NONE',  ( -1.092739197465701713E-16, 1.000000000000000000, 1.084066664152488979E-16 ) ) ;
#900 = EDGE_LOOP ( 'NONE', ( #932, #1017 ) ) ;
#901 = DIRECTION ( 'NONE',  ( -1.000000000000000000, 0.000000000000000000, 0.000000000000000000 ) ) ;
#902 = ORIENTED_EDGE ( 'NONE', *, *, #841, .T. ) ;
#903 = CARTESIAN_POINT ( 'NONE',  ( 0.8750000000000015543, 1.250000000000000000, 0.6687761776522228585 ) ) ;
#904 = FACE_OUTER_BOUND ( 'NONE', #844, .T. ) ;
#905 = ORIENTED_EDGE ( 'NONE', *, *, #189, .F. ) ;
#906 = CARTESIAN_POINT ( 'NONE',  ( 0.8750000000000025535, 0.8800000000000027800, 0.9449999999999997291 ) ) ;
#907 = ORIENTED_EDGE ( 'NONE', *, *, #869, .T. ) ;
#908 = DIRECTION ( 'NONE',  ( 1.000000000000000000, 1.092739197465705411E-16, -3.446724104155846036E-15 ) ) ;
#909 = ADVANCED_FACE ( 'NONE', ( #517 ), #191, .F. ) ;
#910 = DIRECTION ( 'NONE',  ( -3.278217592397115073E-15, 0.000000000000000000, -1.000000000000000000 ) ) ;
#911 = VECTOR ( 'NONE', #170, 39.37007874015748143 ) ;
#912 = ORIENTED_EDGE ( 'NONE', *, *, #309, .F. ) ;
#913 = DIRECTION ( 'NONE',  ( 0.000000000000000000, -1.000000000000000000, 7.114187483500681151E-17 ) ) ;
#914 = VERTEX_POINT ( 'NONE', #532 ) ;
#915 = PLANE ( 'NONE',  #979 ) ;
#916 = ADVANCED_FACE ( 'NONE', ( #353 ), #711, .F. ) ;
#917 = AXIS2_PLACEMENT_3D ( 'NONE', #1038, #1126, #323 ) ;
#918 = DIRECTION ( 'NONE',  ( -1.000000000000000000, 0.000000000000000000, 0.000000000000000000 ) ) ;
#919 = EDGE_CURVE ( 'NONE', #163, #416, #803, .T. ) ;
#920 = VERTEX_POINT ( 'NONE', #793 ) ;
#921 = DIRECTION ( 'NONE',  ( -0.000000000000000000, -0.000000000000000000, -1.000000000000000000 ) ) ;
#922 = ORIENTED_EDGE ( 'NONE', *, *, #591, .F. ) ;
#923 = DIRECTION ( 'NONE',  ( 1.092739197465705411E-16, -1.000000000000000000, 3.766370531460961723E-31 ) ) ;
#924 = FACE_OUTER_BOUND ( 'NONE', #449, .T. ) ;
#925 = AXIS2_PLACEMENT_3D ( 'NONE', #76, #257, #787 ) ;
#926 = UNCERTAINTY_MEASURE_WITH_UNIT (LENGTH_MEASURE( 1.000000000000000082E-05 ), #587, 'distance_accuracy_value', 'NONE');
#927 = DIRECTION ( 'NONE',  ( 0.000000000000000000, -1.000000000000000000, 7.114187483500681151E-17 ) ) ;
#928 = DIRECTION ( 'NONE',  ( 1.000000000000000000, 1.092739197465705411E-16, -3.446724104155846036E-15 ) ) ;
#929 = EDGE_CURVE ( 'NONE', #1030, #914, #624, .T. ) ;
#930 = ORIENTED_EDGE ( 'NONE', *, *, #1012, .T. ) ;
#931 = DIRECTION ( 'NONE',  ( 1.000000000000000000, 1.092739197465705287E-16, -3.446724104155846036E-15 ) ) ;
#932 = ORIENTED_EDGE ( 'NONE', *, *, #1133, .T. ) ;
#933 = VECTOR ( 'NONE', #52, 39.37007874015748143 ) ;
#934 = VERTEX_POINT ( 'NONE', #1070 ) ;
#935 = EDGE_CURVE ( 'NONE', #977, #920, #173, .T. ) ;
#936 = ADVANCED_FACE ( 'NONE', ( #629, #4 ), #179, .T. ) ;
#937 = DIRECTION ( 'NONE',  ( -1.092739197465705411E-16, 1.000000000000000000, -3.766370531460961723E-31 ) ) ;
#938 = AXIS2_PLACEMENT_3D ( 'NONE', #283, #913, #635 ) ;
#939 = VERTEX_POINT ( 'NONE', #972 ) ;
#940 = ORIENTED_EDGE ( 'NONE', *, *, #499, .T. ) ;
#941 = EDGE_CURVE ( 'NONE', #797, #982, #1138, .T. ) ;
#942 = CARTESIAN_POINT ( 'NONE',  ( -1.594999999999999307, 0.2500000000000025535, 0.5700000000000082778 ) ) ;
#943 = ORIENTED_EDGE ( 'NONE', *, *, #1125, .F. ) ;
#944 = VERTEX_POINT ( 'NONE', #342 ) ;
#945 = CARTESIAN_POINT ( 'NONE',  ( -1.595000000000001528, 0.2500000000000026090, -0.05999999999999186540 ) ) ;
#946 = CARTESIAN_POINT ( 'NONE',  ( -1.594999999999999307, 0.2500000000000025535, 0.5700000000000082778 ) ) ;
#947 = ADVANCED_FACE ( 'NONE', ( #127 ), #464, .F. ) ;
#948 = DIRECTION ( 'NONE',  ( 1.000000000000000000, 0.000000000000000000, -3.446724104155846036E-15 ) ) ;
#949 = ORIENTED_EDGE ( 'NONE', *, *, #771, .T. ) ;
#950 = AXIS2_PLACEMENT_3D ( 'NONE', #60, #412, #1110 ) ;
#951 = LINE ( 'NONE', #508, #479 ) ;
#952 = AXIS2_PLACEMENT_3D ( 'NONE', #608, #970, #505 ) ;
#953 = DIRECTION ( 'NONE',  ( 1.000000000000000000, 1.092739197465705411E-16, -3.446724104155846036E-15 ) ) ;
#954 = CARTESIAN_POINT ( 'NONE',  ( -0.8150000000000005018, 0.2500000000000027200, -2.988781924532554231E-15 ) ) ;
#955 = VERTEX_POINT ( 'NONE', #19 ) ;
#956 = DIRECTION ( 'NONE',  ( -0.000000000000000000, 0.000000000000000000, 1.000000000000000000 ) ) ;
#957 = CARTESIAN_POINT ( 'NONE',  ( -1.595000000000001528, 0.2500000000000026090, -0.05999999999999186540 ) ) ;
#958 = CARTESIAN_POINT ( 'NONE',  ( 0.8149999999999995026, -1.250000000000000000, -3.015883591136363358E-15 ) ) ;
#959 = ORIENTED_EDGE ( 'NONE', *, *, #227, .F. ) ;
#960 = DIRECTION ( 'NONE',  ( 0.000000000000000000, 0.000000000000000000, 1.000000000000000000 ) ) ;
#961 = ADVANCED_FACE ( 'NONE', ( #831 ), #1082, .T. ) ;
#962 = CARTESIAN_POINT ( 'NONE',  ( 0.8750000000000012212, 1.151223822347778203, 0.5699999999999998401 ) ) ;
#963 = CARTESIAN_POINT ( 'NONE',  ( 0.7549999999999994493, 0.2500000000000028866, 0.000000000000000000 ) ) ;
#964 = ORIENTED_EDGE ( 'NONE', *, *, #853, .T. ) ;
#965 = CARTESIAN_POINT ( 'NONE',  ( -1.594999999999999529, 1.151223822347777981, 0.5700000000000082778 ) ) ;
#966 = ADVANCED_FACE ( 'NONE', ( #646 ), #995, .T. ) ;
#967 = VECTOR ( 'NONE', #1046, 39.37007874015748143 ) ;
#968 = MECHANICAL_DESIGN_GEOMETRIC_PRESENTATION_REPRESENTATION (  '', ( #565 ), #117 ) ;
#969 = DIRECTION ( 'NONE',  ( 1.000000000000000000, 0.000000000000000000, 3.491481338843134539E-15 ) ) ;
#970 = DIRECTION ( 'NONE',  ( -0.000000000000000000, 0.000000000000000000, 1.000000000000000000 ) ) ;
#971 = ORIENTED_EDGE ( 'NONE', *, *, #462, .F. ) ;
#972 = CARTESIAN_POINT ( 'NONE',  ( -0.8750000000000025535, 1.151223822347778203, 0.5700000000000058353 ) ) ;
#973 = VECTOR ( 'NONE', #212, 39.37007874015748854 ) ;
#974 = LINE ( 'NONE', #813, #728 ) ;
#975 = EDGE_CURVE ( 'NONE', #977, #371, #492, .T. ) ;
#976 = CARTESIAN_POINT ( 'NONE',  ( 0.8150000000000012790, 1.250000000000000000, 0.6687761776522229695 ) ) ;
#977 = VERTEX_POINT ( 'NONE', #660 ) ;
#978 = DIRECTION ( 'NONE',  ( -1.000000000000000000, 5.691349986800570558E-16, 1.052899747558105617E-14 ) ) ;
#979 = AXIS2_PLACEMENT_3D ( 'NONE', #945, #682, #249 ) ;
#980 = CARTESIAN_POINT ( 'NONE',  ( 0.1405000000000000693, -0.1199999999999996902, -0.05999999999999999778 ) ) ;
#981 = CARTESIAN_POINT ( 'NONE',  ( 0.8150000000000025002, 0.8800000000000027800, 0.9449999999999998401 ) ) ;
#982 = VERTEX_POINT ( 'NONE', #543 ) ;
#983 = CARTESIAN_POINT ( 'NONE',  ( 0.8749999999999994449, 9.561467977824915102E-17, -3.225372471466950886E-15 ) ) ;
#984 = ORIENTED_EDGE ( 'NONE', *, *, #1033, .T. ) ;
#985 = CARTESIAN_POINT ( 'NONE',  ( 0.7549999999999995604, -1.249999999999998890, 0.06000000000000002554 ) ) ;
#986 = CIRCLE ( 'NONE', #339, 0.1250000000000000278 ) ;
#987 = FACE_OUTER_BOUND ( 'NONE', #569, .T. ) ;
#988 = ORIENTED_EDGE ( 'NONE', *, *, #146, .F. ) ;
#989 = CYLINDRICAL_SURFACE ( 'NONE', #77, 0.1405000000000000138 ) ;
#990 = ORIENTED_EDGE ( 'NONE', *, *, #146, .T. ) ;
#991 = VECTOR ( 'NONE', #16, 39.37007874015748143 ) ;
#992 = DIRECTION ( 'NONE',  ( 1.000000000000000000, 1.092739197465705411E-16, -3.446724104155846036E-15 ) ) ;
#993 = DIRECTION ( 'NONE',  ( 1.000000000000000000, 1.092739197465705287E-16, -3.446724104155846036E-15 ) ) ;
#994 = ORIENTED_EDGE ( 'NONE', *, *, #189, .T. ) ;
#995 = CYLINDRICAL_SURFACE ( 'NONE', #693, 0.1200000000000002176 ) ;
#996 = VERTEX_POINT ( 'NONE', #44 ) ;
#997 = ADVANCED_FACE ( 'NONE', ( #563 ), #205, .T. ) ;
#998 = CARTESIAN_POINT ( 'NONE',  ( -0.7550000000000005596, -1.249999999999999778, -3.414809992080329023E-17 ) ) ;
#999 = DIRECTION ( 'NONE',  ( 0.000000000000000000, -1.000000000000000000, 7.114187483500681151E-17 ) ) ;
#1000 = ORIENTED_EDGE ( 'NONE', *, *, #213, .T. ) ;
#1001 = DIRECTION ( 'NONE',  ( 0.000000000000000000, 1.000000000000000000, 7.114187483500681151E-17 ) ) ;
#1002 = ORIENTED_EDGE ( 'NONE', *, *, #1092, .F. ) ;
#1003 = CARTESIAN_POINT ( 'NONE',  ( -0.7550000000000011147, 0.2500000000000024980, -0.05999999999999476585 ) ) ;
#1004 = EDGE_CURVE ( 'NONE', #716, #20, #459, .T. ) ;
#1005 = FACE_OUTER_BOUND ( 'NONE', #411, .T. ) ;
#1006 = VECTOR ( 'NONE', #188, 39.37007874015748854 ) ;
#1007 = ORIENTED_EDGE ( 'NONE', *, *, #875, .T. ) ;
#1008 = CARTESIAN_POINT ( 'NONE',  ( -0.8150000000000006128, 1.250000000000000000, -3.015883591136367303E-15 ) ) ;
#1009 = VERTEX_POINT ( 'NONE', #391 ) ;
#1010 = DIRECTION ( 'NONE',  ( 1.092739197465703685E-16, -1.000000000000000000, 5.463695987328527053E-17 ) ) ;
#1011 = CARTESIAN_POINT ( 'NONE',  ( 6.409496415746635770E-17, -0.1199999999999997041, 2.410000000000000586 ) ) ;
#1012 = EDGE_CURVE ( 'NONE', #20, #944, #120, .T. ) ;
#1013 = EDGE_LOOP ( 'NONE', ( #140, #516, #406, #537, #103, #1130, #1058, #664 ) ) ;
#1014 = CARTESIAN_POINT ( 'NONE',  ( -0.7550000000000005596, -1.249999999999999778, -3.414809992080329023E-17 ) ) ;
#1015 = ORIENTED_EDGE ( 'NONE', *, *, #740, .F. ) ;
#1016 = CARTESIAN_POINT ( 'NONE',  ( 0.8149999999999993916, 8.905824459345490647E-17, -3.015883591136362964E-15 ) ) ;
#1017 = ORIENTED_EDGE ( 'NONE', *, *, #385, .T. ) ;
#1018 = LENGTH_MEASURE_WITH_UNIT ( LENGTH_MEASURE( 0.02539999999999999897 ), #491 );
#1019 = VERTEX_POINT ( 'NONE', #38 ) ;
#1020 = DIRECTION ( 'NONE',  ( 3.446724104155846036E-15, 0.000000000000000000, -1.000000000000000000 ) ) ;
#1021 = EDGE_LOOP ( 'NONE', ( #463, #8, #43, #307 ) ) ;
#1022 = SHAPE_DEFINITION_REPRESENTATION ( #5, #1122 ) ;
#1023 = VECTOR ( 'NONE', #1020, 39.37007874015748143 ) ;
#1024 = VECTOR ( 'NONE', #23, 39.37007874015748143 ) ;
#1025 = ORIENTED_EDGE ( 'NONE', *, *, #529, .F. ) ;
#1026 = DIRECTION ( 'NONE',  ( 0.000000000000000000, -0.7071067811865431318, -0.7071067811865517916 ) ) ;
#1027 = AXIS2_PLACEMENT_3D ( 'NONE', #539, #805, #461 ) ;
#1028 = VERTEX_POINT ( 'NONE', #818 ) ;
#1029 = DIRECTION ( 'NONE',  ( 0.000000000000000000, 0.000000000000000000, 1.000000000000000000 ) ) ;
#1030 = VERTEX_POINT ( 'NONE', #737 ) ;
#1031 = PRODUCT_DEFINITION_FORMATION_WITH_SPECIFIED_SOURCE ( 'ANY', '', #1039, .NOT_KNOWN. ) ;
#1032 = DIRECTION ( 'NONE',  ( -1.000000000000000000, 0.000000000000000000, 0.000000000000000000 ) ) ;
#1033 = EDGE_CURVE ( 'NONE', #121, #914, #731, .T. ) ;
#1034 = LINE ( 'NONE', #1139, #632 ) ;
#1035 = CARTESIAN_POINT ( 'NONE',  ( -0.8750000000000006661, -1.249999999999999778, 0.05999999999999968553 ) ) ;
#1036 = VECTOR ( 'NONE', #1010, 39.37007874015748143 ) ;
#1037 = ORIENTED_EDGE ( 'NONE', *, *, #703, .F. ) ;
#1038 = CARTESIAN_POINT ( 'NONE',  ( 0.8750000000000032196, -1.250000000000000000, 1.069999999999999840 ) ) ;
#1039 = PRODUCT ( '11-D-3385-01-(16gacr ANSI-61) - K48 - V0-R0', '11-D-3385-01-(16gacr ANSI-61) - K48 - V0-R0', '', ( #150 ) ) ;
#1040 =( GEOMETRIC_REPRESENTATION_CONTEXT ( 3 ) GLOBAL_UNCERTAINTY_ASSIGNED_CONTEXT ( ( #926 ) ) GLOBAL_UNIT_ASSIGNED_CONTEXT ( ( #587, #405, #855 ) ) REPRESENTATION_CONTEXT ( 'NONE', 'WORKASPACE' ) );
#1041 = CARTESIAN_POINT ( 'NONE',  ( -0.8750000000000005551, -9.561467977824926195E-17, -3.225372471466954831E-15 ) ) ;
#1042 = FACE_OUTER_BOUND ( 'NONE', #119, .T. ) ;
#1043 = EDGE_LOOP ( 'NONE', ( #383, #738, #53, #531 ) ) ;
#1044 = AXIS2_PLACEMENT_3D ( 'NONE', #585, #475, #918 ) ;
#1045 = CARTESIAN_POINT ( 'NONE',  ( -0.8750000000000041078, -1.249999999999999556, 1.069999999999999840 ) ) ;
#1046 = DIRECTION ( 'NONE',  ( -0.000000000000000000, 1.000000000000000000, -7.114187483500681151E-17 ) ) ;
#1047 = EDGE_CURVE ( 'NONE', #289, #93, #812, .T. ) ;
#1048 = CARTESIAN_POINT ( 'NONE',  ( 0.8150000000000012790, 0.2500000000000028311, 0.5699999999999999512 ) ) ;
#1049 = ORIENTED_EDGE ( 'NONE', *, *, #506, .F. ) ;
#1050 = LINE ( 'NONE', #1144, #74 ) ;
#1051 = DIRECTION ( 'NONE',  ( 0.000000000000000000, -0.000000000000000000, -1.000000000000000000 ) ) ;
#1052 = DIRECTION ( 'NONE',  ( -0.000000000000000000, 0.000000000000000000, 1.000000000000000000 ) ) ;
#1053 = EDGE_CURVE ( 'NONE', #680, #59, #300, .T. ) ;
#1054 = ORIENTED_EDGE ( 'NONE', *, *, #468, .T. ) ;
#1055 = CARTESIAN_POINT ( 'NONE',  ( 0.7549999999999994493, 1.249999999999999556, 3.414809992080329023E-17 ) ) ;
#1056 = CARTESIAN_POINT ( 'NONE',  ( -0.8750000000000027756, 1.249999999999999778, 0.6687761776522288537 ) ) ;
#1057 = FACE_OUTER_BOUND ( 'NONE', #241, .T. ) ;
#1058 = ORIENTED_EDGE ( 'NONE', *, *, #125, .F. ) ;
#1059 = PLANE ( 'NONE',  #925 ) ;
#1060 = EDGE_CURVE ( 'NONE', #51, #659, #25, .T. ) ;
#1061 = AXIS2_PLACEMENT_3D ( 'NONE', #1142, #346, #695 ) ;
#1062 = DIRECTION ( 'NONE',  ( 3.446724104155846036E-15, 4.707963164326214853E-31, 1.000000000000000000 ) ) ;
#1063 = DIRECTION ( 'NONE',  ( 3.446724104155846036E-15, 0.000000000000000000, -1.000000000000000000 ) ) ;
#1064 = ORIENTED_EDGE ( 'NONE', *, *, #642, .T. ) ;
#1065 = CARTESIAN_POINT ( 'NONE',  ( 0.8149999999999997247, -1.250000000000000000, 0.05999999999999976880 ) ) ;
#1066 = ADVANCED_FACE ( 'NONE', ( #306 ), #989, .F. ) ;
#1067 = DIRECTION ( 'NONE',  ( -2.276539994720212841E-15, -1.821231995776170272E-14, -1.000000000000000000 ) ) ;
#1068 = PRESENTATION_STYLE_ASSIGNMENT (( #709 ) ) ;
#1069 = VERTEX_POINT ( 'NONE', #455 ) ;
#1070 = CARTESIAN_POINT ( 'NONE',  ( -0.1405000000000004301, -0.8699999999999997735, -0.05999999999999999778 ) ) ;
#1071 = VECTOR ( 'NONE', #776, 39.37007874015748143 ) ;
#1072 = CARTESIAN_POINT ( 'NONE',  ( 0.8149999999999982814, 0.2906119111738946770, -0.2906119111738940108 ) ) ;
#1073 = ORIENTED_EDGE ( 'NONE', *, *, #274, .T. ) ;
#1074 = CARTESIAN_POINT ( 'NONE',  ( 6.409496415746635770E-17, -0.1199999999999997041, 0.000000000000000000 ) ) ;
#1075 = ORIENTED_EDGE ( 'NONE', *, *, #98, .T. ) ;
#1076 = LINE ( 'NONE', #202, #465 ) ;
#1077 = VECTOR ( 'NONE', #1134, 39.37007874015748143 ) ;
#1078 = AXIS2_PLACEMENT_3D ( 'NONE', #773, #1128, #779 ) ;
#1079 = CARTESIAN_POINT ( 'NONE',  ( 0.000000000000000000, 0.000000000000000000, 0.000000000000000000 ) ) ;
#1080 = EDGE_CURVE ( 'NONE', #1095, #934, #744, .T. ) ;
#1081 = ORIENTED_EDGE ( 'NONE', *, *, #642, .F. ) ;
#1082 = PLANE ( 'NONE',  #1141 ) ;
#1083 = EDGE_LOOP ( 'NONE', ( #872, #485, #322, #757 ) ) ;
#1084 = VECTOR ( 'NONE', #446, 39.37007874015748143 ) ;
#1085 = VECTOR ( 'NONE', #111, 39.37007874015748854 ) ;
#1086 = DIRECTION ( 'NONE',  ( 1.000000000000000000, 1.092739197465705411E-16, -3.446724104155846430E-15 ) ) ;
#1087 =( CONVERSION_BASED_UNIT ( 'INCH', #107 ) LENGTH_UNIT ( ) NAMED_UNIT ( #237 ) );
#1088 = ORIENTED_EDGE ( 'NONE', *, *, #823, .F. ) ;
#1089 = CARTESIAN_POINT ( 'NONE',  ( 0.8149999999999993916, 0.2500000000000028866, -2.988781924532550286E-15 ) ) ;
#1090 = PRODUCT_RELATED_PRODUCT_CATEGORY ( 'part', '', ( #1039 ) ) ;
#1091 = ORIENTED_EDGE ( 'NONE', *, *, #2, .T. ) ;
#1092 = EDGE_CURVE ( 'NONE', #710, #69, #896, .T. ) ;
#1093 = LINE ( 'NONE', #1045, #224 ) ;
#1094 = SURFACE_SIDE_STYLE ('',( #644 ) ) ;
#1095 = VERTEX_POINT ( 'NONE', #639 ) ;
#1096 = DIRECTION ( 'NONE',  ( -3.446724104155846036E-15, -0.000000000000000000, -1.000000000000000000 ) ) ;
#1097 = VERTEX_POINT ( 'NONE', #906 ) ;
#1098 = ADVANCED_FACE ( 'NONE', ( #114 ), #838, .F. ) ;
#1099 = LINE ( 'NONE', #40, #472 ) ;
#1100 = VECTOR ( 'NONE', #437, 39.37007874015748143 ) ;
#1101 = LINE ( 'NONE', #225, #302 ) ;
#1102 = UNCERTAINTY_MEASURE_WITH_UNIT (LENGTH_MEASURE( 1.000000000000000082E-05 ), #1087, 'distance_accuracy_value', 'NONE');
#1103 = AXIS2_PLACEMENT_3D ( 'NONE', #281, #899, #729 ) ;
#1104 = DIRECTION ( 'NONE',  ( 0.000000000000000000, 0.000000000000000000, -1.000000000000000000 ) ) ;
#1105 = DIRECTION ( 'NONE',  ( 1.000000000000000000, 0.000000000000000000, 0.000000000000000000 ) ) ;
#1106 = ORIENTED_EDGE ( 'NONE', *, *, #1047, .T. ) ;
#1107 = FACE_OUTER_BOUND ( 'NONE', #725, .T. ) ;
#1108 = DIRECTION ( 'NONE',  ( 0.000000000000000000, 0.7071067811865542341, -0.7071067811865406894 ) ) ;
#1109 = ORIENTED_EDGE ( 'NONE', *, *, #841, .F. ) ;
#1110 = DIRECTION ( 'NONE',  ( 1.000000000000000000, 0.000000000000000000, -1.707404996040159433E-15 ) ) ;
#1111 = EDGE_CURVE ( 'NONE', #589, #944, #410, .T. ) ;
#1112 = EDGE_LOOP ( 'NONE', ( #184, #895 ) ) ;
#1113 = ORIENTED_EDGE ( 'NONE', *, *, #861, .F. ) ;
#1114 = DIRECTION ( 'NONE',  ( 1.000000000000000000, 1.092739197465705411E-16, -3.446724104155846036E-15 ) ) ;
#1115 = FACE_OUTER_BOUND ( 'NONE', #55, .T. ) ;
#1116 = VECTOR ( 'NONE', #21, 39.37007874015748143 ) ;
#1117 = EDGE_CURVE ( 'NONE', #564, #121, #68, .T. ) ;
#1118 = ORIENTED_EDGE ( 'NONE', *, *, #1133, .F. ) ;
#1119 = DIRECTION ( 'NONE',  ( 3.278217592397115073E-15, 0.000000000000000000, -1.000000000000000000 ) ) ;
#1120 = CYLINDRICAL_SURFACE ( 'NONE', #116, 0.1405000000000000138 ) ;
#1121 = VECTOR ( 'NONE', #827, 39.37007874015748143 ) ;
#1122 = ADVANCED_BREP_SHAPE_REPRESENTATION ( '11-D-3385-01-(16gacr ANSI-61) - K48 - V0-R0', ( #196, #578 ), #1040 ) ;
#1123 = ORIENTED_EDGE ( 'NONE', *, *, #71, .T. ) ;
#1124 = ORIENTED_EDGE ( 'NONE', *, *, #462, .T. ) ;
#1125 = EDGE_CURVE ( 'NONE', #201, #1097, #486, .T. ) ;
#1126 = DIRECTION ( 'NONE',  ( 1.092739197465705411E-16, -1.000000000000000000, -3.766370531460961723E-31 ) ) ;
#1127 = CARTESIAN_POINT ( 'NONE',  ( -1.595000000000001528, 0.2500000000000026090, -0.05999999999999186540 ) ) ;
#1128 = DIRECTION ( 'NONE',  ( -1.092739197465705411E-16, 1.000000000000000000, 3.766370531460961723E-31 ) ) ;
#1129 = CARTESIAN_POINT ( 'NONE',  ( 0.8150000000000012790, 8.905824459345517764E-17, 0.5699999999999999512 ) ) ;
#1130 = ORIENTED_EDGE ( 'NONE', *, *, #1004, .F. ) ;
#1131 = CARTESIAN_POINT ( 'NONE',  ( 0.8750000000000021094, 0.8800000000000027800, 0.8199999999999997291 ) ) ;
#1132 = VECTOR ( 'NONE', #807, 39.37007874015748143 ) ;
#1133 = EDGE_CURVE ( 'NONE', #163, #1028, #186, .T. ) ;
#1134 = DIRECTION ( 'NONE',  ( -4.553079989440443036E-15, 1.138269997360110759E-15, -1.000000000000000000 ) ) ;
#1135 = DIRECTION ( 'NONE',  ( 1.000000000000000000, 0.000000000000000000, 0.000000000000000000 ) ) ;
#1136 = EDGE_LOOP ( 'NONE', ( #609, #480, #832, #792 ) ) ;
#1137 = VECTOR ( 'NONE', #953, 39.37007874015748143 ) ;
#1138 = LINE ( 'NONE', #94, #1084 ) ;
#1139 = CARTESIAN_POINT ( 'NONE',  ( -0.8750000000000003331, -1.250000000000000000, -0.05999999999999999778 ) ) ;
#1140 = EDGE_CURVE ( 'NONE', #93, #638, #139, .T. ) ;
#1141 = AXIS2_PLACEMENT_3D ( 'NONE', #109, #295, #471 ) ;
#1142 = CARTESIAN_POINT ( 'NONE',  ( -1.594999999999998641, 0.8800000000000024469, 0.8200000000000081668 ) ) ;
#1143 = VERTEX_POINT ( 'NONE', #752 ) ;
#1144 = CARTESIAN_POINT ( 'NONE',  ( -0.8150000000000043876, 1.110611911173882360, 1.110611911173900568 ) ) ;
#1145 = CARTESIAN_POINT ( 'NONE',  ( -0.8150000000000038325, 0.8800000000000026690, 0.9450000000000055023 ) ) ;
ENDSEC;
END-ISO-10303-21;
