ISO-10303-21;
HEADER;
FILE_DESCRIPTION (( 'STEP AP203' ),
    '1' );
FILE_NAME ('11-B-9016-01-(12gacr ANSI-61) - K30 - V0-R0.STEP',
    '2026-06-19T21:56:47',
    ( '' ),
    ( '' ),
    'SwSTEP 2.0',
    'SolidWorks 2024',
    '' );
FILE_SCHEMA (( 'CONFIG_CONTROL_DESIGN' ));
ENDSEC;

DATA;
#1 = APPROVAL_STATUS ( 'not_yet_approved' ) ;
#2 = FACE_OUTER_BOUND ( 'NONE', #11, .T. ) ;
#3 = VERTEX_POINT ( 'NONE', #67 ) ;
#4 = CARTESIAN_POINT ( 'NONE',  ( 0.000000000000000000, 0.4050000000000025802, -0.8150000000000005018 ) ) ;
#5 = FACE_OUTER_BOUND ( 'NONE', #606, .T. ) ;
#6 = LOCAL_TIME ( 15, 56, 47.00000000000000000, #246 ) ;
#7 = EDGE_LOOP ( 'NONE', ( #132, #345, #622, #13 ) ) ;
#8 = AXIS2_PLACEMENT_3D ( 'NONE', #105, #225, #662 ) ;
#9 = LENGTH_MEASURE_WITH_UNIT ( LENGTH_MEASURE( 0.02539999999999999897 ), #616 );
#10 = EDGE_CURVE ( 'NONE', #486, #365, #556, .T. ) ;
#11 = EDGE_LOOP ( 'NONE', ( #583, #136, #524, #395 ) ) ;
#12 = DIRECTION ( 'NONE',  ( 1.000000000000000000, 0.000000000000000000, 0.000000000000000000 ) ) ;
#13 = ORIENTED_EDGE ( 'NONE', *, *, #364, .T. ) ;
#14 = DIRECTION ( 'NONE',  ( 1.000000000000000000, 0.000000000000000000, 0.000000000000000000 ) ) ;
#15 = VERTEX_POINT ( 'NONE', #465 ) ;
#16 = CARTESIAN_POINT ( 'NONE',  ( 1.125000000000000000, 0.5200000000000002398, -0.1249999999999999584 ) ) ;
#17 = ORIENTED_EDGE ( 'NONE', *, *, #171, .T. ) ;
#18 = CIRCLE ( 'NONE', #261, 0.1249999999999999584 ) ;
#19 = EDGE_CURVE ( 'NONE', #360, #472, #78, .T. ) ;
#20 = APPROVAL_DATE_TIME ( #192, #189 ) ;
#21 = VECTOR ( 'NONE', #27, 39.37007874015748854 ) ;
#22 = EDGE_CURVE ( 'NONE', #244, #272, #411, .T. ) ;
#23 = ORIENTED_EDGE ( 'NONE', *, *, #146, .F. ) ;
#24 = COORDINATED_UNIVERSAL_TIME_OFFSET ( 6, 0, .BEHIND. ) ;
#25 = CC_DESIGN_PERSON_AND_ORGANIZATION_ASSIGNMENT ( #181, #196, ( #597 ) ) ;
#26 = ORIENTED_EDGE ( 'NONE', *, *, #427, .T. ) ;
#27 = DIRECTION ( 'NONE',  ( 0.7071067811865473507, 2.504066238969639553E-15, -0.7071067811865475727 ) ) ;
#28 = ORIENTED_EDGE ( 'NONE', *, *, #45, .F. ) ;
#29 = DIRECTION ( 'NONE',  ( 0.000000000000000000, 1.000000000000000000, 3.613946018757868503E-15 ) ) ;
#30 = CIRCLE ( 'NONE', #599, 0.1249999999999999584 ) ;
#31 = AXIS2_PLACEMENT_3D ( 'NONE', #437, #335, #585 ) ;
#32 = ADVANCED_FACE ( 'NONE', ( #522 ), #563, .T. ) ;
#33 = LINE ( 'NONE', #270, #81 ) ;
#34 = AXIS2_PLACEMENT_3D ( 'NONE', #659, #608, #113 ) ;
#35 = EDGE_CURVE ( 'NONE', #103, #631, #180, .T. ) ;
#36 = CC_DESIGN_PERSON_AND_ORGANIZATION_ASSIGNMENT ( #219, #669, ( #680 ) ) ;
#37 = CARTESIAN_POINT ( 'NONE',  ( 1.125000000000000000, 0.5000000000000001110, -0.1250000000000000278 ) ) ;
#38 = ADVANCED_FACE ( 'NONE', ( #581 ), #478, .T. ) ;
#39 = FACE_OUTER_BOUND ( 'NONE', #453, .T. ) ;
#40 = PLANE ( 'NONE',  #639 ) ;
#41 = CARTESIAN_POINT ( 'NONE',  ( 1.124999999999999778, 0.5000000000000001110, -0.1050000000000000377 ) ) ;
#42 = APPLICATION_CONTEXT ( 'configuration controlled 3d designs of mechanical parts and assemblies' ) ;
#43 = ORIENTED_EDGE ( 'NONE', *, *, #484, .T. ) ;
#44 = LINE ( 'NONE', #695, #515 ) ;
#45 = EDGE_CURVE ( 'NONE', #631, #360, #139, .T. ) ;
#46 = PLANE ( 'NONE',  #499 ) ;
#47 =( GEOMETRIC_REPRESENTATION_CONTEXT ( 3 ) GLOBAL_UNCERTAINTY_ASSIGNED_CONTEXT ( ( #490 ) ) GLOBAL_UNIT_ASSIGNED_CONTEXT ( ( #342, #163, #460 ) ) REPRESENTATION_CONTEXT ( 'NONE', 'WORKASPACE' ) );
#48 = DIRECTION ( 'NONE',  ( -1.000000000000000000, -0.000000000000000000, -0.000000000000000000 ) ) ;
#49 = ORIENTED_EDGE ( 'NONE', *, *, #243, .T. ) ;
#50 = CARTESIAN_POINT ( 'NONE',  ( -1.124999999999999778, 0.5000000000000001110, -0.1050000000000000377 ) ) ;
#51 = DIRECTION ( 'NONE',  ( -0.000000000000000000, -0.000000000000000000, 1.000000000000000000 ) ) ;
#52 = ORIENTED_EDGE ( 'NONE', *, *, #426, .T. ) ;
#53 = EDGE_CURVE ( 'NONE', #610, #360, #84, .T. ) ;
#54 = DIRECTION ( 'NONE',  ( 0.000000000000000000, 1.000000000000000000, 3.491481338843132961E-15 ) ) ;
#55 = EDGE_LOOP ( 'NONE', ( #435, #238, #393, #457 ) ) ;
#56 = CARTESIAN_POINT ( 'NONE',  ( 0.000000000000000000, 0.5200000000000029043, -0.9200000000000000400 ) ) ;
#57 = VECTOR ( 'NONE', #198, 39.37007874015748143 ) ;
#58 = VECTOR ( 'NONE', #444, 39.37007874015748143 ) ;
#59 = FACE_OUTER_BOUND ( 'NONE', #62, .T. ) ;
#60 = AXIS2_PLACEMENT_3D ( 'NONE', #684, #358, #303 ) ;
#61 = AXIS2_PLACEMENT_3D ( 'NONE', #613, #582, #89 ) ;
#62 = EDGE_LOOP ( 'NONE', ( #185, #49, #141, #268 ) ) ;
#63 = DIRECTION ( 'NONE',  ( 1.000000000000000000, 0.000000000000000000, 0.000000000000000000 ) ) ;
#64 = ORIENTED_EDGE ( 'NONE', *, *, #35, .T. ) ;
#65 = CARTESIAN_POINT ( 'NONE',  ( -1.124999999999999778, 0.5200000000000000178, -0.1249999999999999584 ) ) ;
#66 = DIRECTION ( 'NONE',  ( 0.7071067811865474617, -2.505562991055095433E-15, 0.7071067811865474617 ) ) ;
#67 = CARTESIAN_POINT ( 'NONE',  ( 1.125000000000000000, 0.5200000000000000178, -0.1249999999999999584 ) ) ;
#68 = ADVANCED_FACE ( 'NONE', ( #372 ), #40, .T. ) ;
#69 = DIRECTION ( 'NONE',  ( -0.000000000000000000, 1.000000000000000000, 3.543401163330213920E-15 ) ) ;
#70 = LOCAL_TIME ( 15, 56, 47.00000000000000000, #673 ) ;
#71 = ORIENTED_EDGE ( 'NONE', *, *, #415, .F. ) ;
#72 = CIRCLE ( 'NONE', #477, 0.01999999999999999001 ) ;
#73 = CARTESIAN_POINT ( 'NONE',  ( -0.8075000000000014388, 0.5200000000000024603, -0.8074999999999991074 ) ) ;
#74 = VERTEX_POINT ( 'NONE', #133 ) ;
#75 = ORIENTED_EDGE ( 'NONE', *, *, #612, .T. ) ;
#76 = EDGE_CURVE ( 'NONE', #555, #439, #310, .T. ) ;
#77 = CARTESIAN_POINT ( 'NONE',  ( -1.125000000000000000, -0.6250000000000000000, -0.1049999999999999961 ) ) ;
#78 = LINE ( 'NONE', #178, #250 ) ;
#79 = PERSON_AND_ORGANIZATION_ROLE ( 'design_supplier' ) ;
#80 = CARTESIAN_POINT ( 'NONE',  ( -0.8449999999999999734, -0.1249999999999999584, -0.1049999999999999961 ) ) ;
#81 = VECTOR ( 'NONE', #263, 39.37007874015748143 ) ;
#82 = CALENDAR_DATE ( 2026, 19, 6 ) ;
#83 = ORIENTED_EDGE ( 'NONE', *, *, #671, .T. ) ;
#84 = LINE ( 'NONE', #195, #553 ) ;
#85 = PERSON_AND_ORGANIZATION_ROLE ( 'creator' ) ;
#86 = ORIENTED_EDGE ( 'NONE', *, *, #161, .F. ) ;
#87 = CARTESIAN_POINT ( 'NONE',  ( 1.000000000000000000, -0.1249999999999999029, -0.2200000000000000011 ) ) ;
#88 = EDGE_CURVE ( 'NONE', #418, #508, #688, .T. ) ;
#89 = DIRECTION ( 'NONE',  ( 0.000000000000000000, -0.000000000000000000, -1.000000000000000000 ) ) ;
#90 = PLANE ( 'NONE',  #469 ) ;
#91 = CLOSED_SHELL ( 'NONE', ( #658, #297, #117, #314, #547, #586, #489, #307, #68, #338, #32, #711, #329, #38, #108, #476, #255, #403, #283, #719, #99, #392 ) ) ;
#92 = CARTESIAN_POINT ( 'NONE',  ( -1.125000000000000000, -0.6250000000000000000, 0.000000000000000000 ) ) ;
#93 = LINE ( 'NONE', #483, #319 ) ;
#94 = LINE ( 'NONE', #156, #293 ) ;
#95 = ORIENTED_EDGE ( 'NONE', *, *, #159, .T. ) ;
#96 = EDGE_CURVE ( 'NONE', #340, #15, #30, .T. ) ;
#97 = DIRECTION ( 'NONE',  ( 0.7071067811865474617, 0.000000000000000000, -0.7071067811865475727 ) ) ;
#98 = LINE ( 'NONE', #537, #385 ) ;
#99 = ADVANCED_FACE ( 'NONE', ( #430 ), #584, .F. ) ;
#100 = CARTESIAN_POINT ( 'NONE',  ( 1.125000000000000000, 0.5000000000000001110, -0.1250000000000000278 ) ) ;
#101 = DIRECTION ( 'NONE',  ( 1.000000000000000000, 0.000000000000000000, 0.000000000000000000 ) ) ;
#102 = DIRECTION ( 'NONE',  ( 0.000000000000000000, 0.000000000000000000, -1.000000000000000000 ) ) ;
#103 = VERTEX_POINT ( 'NONE', #701 ) ;
#104 = DIRECTION ( 'NONE',  ( 1.000000000000000000, 0.000000000000000000, 0.000000000000000000 ) ) ;
#105 = CARTESIAN_POINT ( 'NONE',  ( 0.000000000000000000, 0.5200000000000029043, -0.9200000000000000400 ) ) ;
#106 = ORIENTED_EDGE ( 'NONE', *, *, #539, .T. ) ;
#107 = CARTESIAN_POINT ( 'NONE',  ( 1.124999999999999778, 0.5000000000000001110, -0.1250000000000000278 ) ) ;
#108 = ADVANCED_FACE ( 'NONE', ( #481, #592 ), #90, .T. ) ;
#109 = FACE_OUTER_BOUND ( 'NONE', #55, .T. ) ;
#110 = ORIENTED_EDGE ( 'NONE', *, *, #535, .F. ) ;
#111 = CARTESIAN_POINT ( 'NONE',  ( 0.000000000000000000, 0.4050000000000029132, -0.9200000000000004841 ) ) ;
#112 = VECTOR ( 'NONE', #704, 39.37007874015748143 ) ;
#113 = DIRECTION ( 'NONE',  ( 0.000000000000000000, 0.000000000000000000, 1.000000000000000000 ) ) ;
#114 = ORIENTED_EDGE ( 'NONE', *, *, #286, .T. ) ;
#115 = CYLINDRICAL_SURFACE ( 'NONE', #134, 0.01999999999999999001 ) ;
#116 = LINE ( 'NONE', #511, #197 ) ;
#117 = ADVANCED_FACE ( 'NONE', ( #578 ), #590, .F. ) ;
#118 = ORIENTED_EDGE ( 'NONE', *, *, #635, .F. ) ;
#119 = DIRECTION ( 'NONE',  ( 0.000000000000000000, -3.252199992457457001E-15, 1.000000000000000000 ) ) ;
#120 = DIRECTION ( 'NONE',  ( 0.000000000000000000, -1.000000000000000000, 0.000000000000000000 ) ) ;
#121 = DIRECTION ( 'NONE',  ( -0.000000000000000000, 0.000000000000000000, 1.000000000000000000 ) ) ;
#122 = VECTOR ( 'NONE', #644, 39.37007874015748143 ) ;
#123 = LINE ( 'NONE', #674, #341 ) ;
#124 = ORIENTED_EDGE ( 'NONE', *, *, #509, .F. ) ;
#125 = VECTOR ( 'NONE', #682, 39.37007874015748143 ) ;
#126 = EDGE_CURVE ( 'NONE', #418, #272, #44, .T. ) ;
#127 = CARTESIAN_POINT ( 'NONE',  ( -1.125000000000000000, 0.6250000000000042188, -1.300000000000000266 ) ) ;
#128 = ORIENTED_EDGE ( 'NONE', *, *, #579, .T. ) ;
#129 = EDGE_LOOP ( 'NONE', ( #128, #324, #512, #575 ) ) ;
#130 = DIRECTION ( 'NONE',  ( 0.7071067811865474617, -2.504066238969639158E-15, 0.7071067811865474617 ) ) ;
#131 = APPROVAL_ROLE ( '' ) ;
#132 = ORIENTED_EDGE ( 'NONE', *, *, #194, .T. ) ;
#133 = CARTESIAN_POINT ( 'NONE',  ( 1.125000000000000000, -0.6250000000000000000, -0.1049999999999999961 ) ) ;
#134 = AXIS2_PLACEMENT_3D ( 'NONE', #107, #399, #292 ) ;
#135 = APPROVAL_STATUS ( 'not_yet_approved' ) ;
#136 = ORIENTED_EDGE ( 'NONE', *, *, #456, .T. ) ;
#137 = DIRECTION ( 'NONE',  ( -5.191982448707973226E-17, 1.000000000000000000, 3.491481338843132961E-15 ) ) ;
#138 = DIRECTION ( 'NONE',  ( 0.000000000000000000, -3.252199992457457001E-15, 1.000000000000000000 ) ) ;
#139 = LINE ( 'NONE', #267, #467 ) ;
#140 = CARTESIAN_POINT ( 'NONE',  ( 0.000000000000000000, 0.000000000000000000, -0.1049999999999999961 ) ) ;
#141 = ORIENTED_EDGE ( 'NONE', *, *, #456, .F. ) ;
#142 = DIRECTION ( 'NONE',  ( 1.000000000000000000, 0.000000000000000000, 0.000000000000000000 ) ) ;
#143 = VECTOR ( 'NONE', #441, 39.37007874015748143 ) ;
#144 = LOCAL_TIME ( 15, 56, 47.00000000000000000, #363 ) ;
#145 = FACE_OUTER_BOUND ( 'NONE', #570, .T. ) ;
#146 = EDGE_CURVE ( 'NONE', #667, #288, #93, .T. ) ;
#147 = CIRCLE ( 'NONE', #413, 0.1549999999999999989 ) ;
#148 = DIRECTION ( 'NONE',  ( -0.000000000000000000, -0.000000000000000000, 1.000000000000000000 ) ) ;
#149 = EDGE_CURVE ( 'NONE', #634, #103, #322, .T. ) ;
#150 = LINE ( 'NONE', #41, #280 ) ;
#151 = VERTEX_POINT ( 'NONE', #528 ) ;
#152 = PLANE ( 'NONE',  #530 ) ;
#153 = LINE ( 'NONE', #320, #454 ) ;
#154 = CARTESIAN_POINT ( 'NONE',  ( -0.3149999999999998912, 0.5200000000000042366, -1.300000000000000933 ) ) ;
#155 = ORIENTED_EDGE ( 'NONE', *, *, #625, .F. ) ;
#156 = CARTESIAN_POINT ( 'NONE',  ( -0.000000000000000000, 0.6250000000000000000, -0.1249999999999995837 ) ) ;
#157 = CIRCLE ( 'NONE', #207, 0.1049999999999999684 ) ;
#158 = CIRCLE ( 'NONE', #279, 0.1549999999999999989 ) ;
#159 = EDGE_CURVE ( 'NONE', #508, #244, #206, .T. ) ;
#160 = FACE_OUTER_BOUND ( 'NONE', #505, .T. ) ;
#161 = EDGE_CURVE ( 'NONE', #667, #634, #380, .T. ) ;
#162 = ORIENTED_EDGE ( 'NONE', *, *, #426, .F. ) ;
#163 =( NAMED_UNIT ( * ) PLANE_ANGLE_UNIT ( ) SI_UNIT ( $, .RADIAN. ) );
#164 = CARTESIAN_POINT ( 'NONE',  ( 0.6900000000000000577, -0.1249999999999998751, 0.000000000000000000 ) ) ;
#165 = ORIENTED_EDGE ( 'NONE', *, *, #19, .T. ) ;
#166 = CARTESIAN_POINT ( 'NONE',  ( 1.125000000000000000, 0.5000000000000001110, -0.1050000000000000377 ) ) ;
#167 = CARTESIAN_POINT ( 'NONE',  ( -1.124999999999999778, 0.5000000000000001110, -0.1250000000000000278 ) ) ;
#168 = ORIENTED_EDGE ( 'NONE', *, *, #668, .F. ) ;
#169 = CARTESIAN_POINT ( 'NONE',  ( -0.6900000000000000577, -0.1249999999999999584, -0.2200000000000000011 ) ) ;
#170 = ORGANIZATION ( 'UNSPECIFIED', 'UNSPECIFIED', '' ) ;
#171 = EDGE_CURVE ( 'NONE', #551, #3, #488, .T. ) ;
#172 = PRODUCT_DEFINITION_SHAPE ( 'NONE', 'NONE',  #649 ) ;
#173 = LINE ( 'NONE', #16, #125 ) ;
#174 = AXIS2_PLACEMENT_3D ( 'NONE', #306, #240, #463 ) ;
#175 = ORIENTED_EDGE ( 'NONE', *, *, #424, .F. ) ;
#176 = DIRECTION ( 'NONE',  ( 0.7071067811865474617, 0.000000000000000000, 0.7071067811865474617 ) ) ;
#177 = CARTESIAN_POINT ( 'NONE',  ( 0.3149999999999998912, 0.6250000000000042188, -1.300000000000000266 ) ) ;
#178 = CARTESIAN_POINT ( 'NONE',  ( 0.3149999999999998912, 0.6250000000000042188, -1.300000000000000266 ) ) ;
#179 = FACE_BOUND ( 'NONE', #628, .T. ) ;
#180 = LINE ( 'NONE', #521, #21 ) ;
#181 = PERSON_AND_ORGANIZATION ( #266, #170 ) ;
#182 = CIRCLE ( 'NONE', #186, 0.01999999999999999001 ) ;
#183 = PLANE ( 'NONE',  #532 ) ;
#184 = AXIS2_PLACEMENT_3D ( 'NONE', #596, #491, #101 ) ;
#185 = ORIENTED_EDGE ( 'NONE', *, *, #401, .T. ) ;
#186 = AXIS2_PLACEMENT_3D ( 'NONE', #167, #48, #102 ) ;
#187 = CC_DESIGN_DATE_AND_TIME_ASSIGNMENT ( #576, #408, ( #649 ) ) ;
#188 = CALENDAR_DATE ( 2026, 19, 6 ) ;
#189 = APPROVAL ( #135, 'UNSPECIFIED' ) ;
#190 = ORIENTED_EDGE ( 'NONE', *, *, #19, .F. ) ;
#191 = ORIENTED_EDGE ( 'NONE', *, *, #286, .F. ) ;
#192 = DATE_AND_TIME ( #188, #249 ) ;
#193 = ORIENTED_EDGE ( 'NONE', *, *, #549, .F. ) ;
#194 = EDGE_CURVE ( 'NONE', #330, #15, #210, .T. ) ;
#195 = CARTESIAN_POINT ( 'NONE',  ( 0.3149999999999998912, 0.6250000000000042188, -1.300000000000000266 ) ) ;
#196 = PERSON_AND_ORGANIZATION_ROLE ( 'creator' ) ;
#197 = VECTOR ( 'NONE', #423, 39.37007874015748143 ) ;
#198 = DIRECTION ( 'NONE',  ( 1.000000000000000000, 0.000000000000000000, 0.000000000000000000 ) ) ;
#199 = ORIENTED_EDGE ( 'NONE', *, *, #364, .F. ) ;
#200 = CARTESIAN_POINT ( 'NONE',  ( -1.124999999999999778, 0.5000000000000001110, -0.1250000000000000278 ) ) ;
#201 = DIRECTION ( 'NONE',  ( 1.000000000000000000, -0.000000000000000000, -0.000000000000000000 ) ) ;
#202 = VERTEX_POINT ( 'NONE', #670 ) ;
#203 = CARTESIAN_POINT ( 'NONE',  ( -1.125000000000000000, 0.6250000000000042188, -1.300000000000000266 ) ) ;
#204 = EDGE_CURVE ( 'NONE', #555, #667, #182, .T. ) ;
#205 = CARTESIAN_POINT ( 'NONE',  ( -1.125000000000000000, -0.6250000000000000000, -0.1049999999999999961 ) ) ;
#206 = LINE ( 'NONE', #87, #375 ) ;
#207 = AXIS2_PLACEMENT_3D ( 'NONE', #265, #431, #650 ) ;
#208 = FACE_BOUND ( 'NONE', #402, .T. ) ;
#209 = CC_DESIGN_PERSON_AND_ORGANIZATION_ASSIGNMENT ( #580, #571, ( #554 ) ) ;
#210 = LINE ( 'NONE', #216, #720 ) ;
#211 = CARTESIAN_POINT ( 'NONE',  ( 1.125000000000000000, 0.6250000000000000000, -0.1049999999999999961 ) ) ;
#212 = DIRECTION ( 'NONE',  ( -0.000000000000000000, -0.000000000000000000, 1.000000000000000000 ) ) ;
#213 = ORIENTED_EDGE ( 'NONE', *, *, #149, .T. ) ;
#214 = DIRECTION ( 'NONE',  ( -5.191982448708007122E-17, -1.000000000000000000, -3.491481338843132961E-15 ) ) ;
#215 = EDGE_CURVE ( 'NONE', #365, #486, #147, .T. ) ;
#216 = CARTESIAN_POINT ( 'NONE',  ( 1.125000000000000000, 0.6250000000000000000, 0.000000000000000000 ) ) ;
#217 = EDGE_LOOP ( 'NONE', ( #500, #86, #362, #43 ) ) ;
#218 = AXIS2_PLACEMENT_3D ( 'NONE', #542, #63, #287 ) ;
#219 = PERSON_AND_ORGANIZATION ( #266, #170 ) ;
#220 = VECTOR ( 'NONE', #665, 39.37007874015748143 ) ;
#221 = AXIS2_PLACEMENT_3D ( 'NONE', #400, #518, #229 ) ;
#222 = DIRECTION ( 'NONE',  ( -0.000000000000000000, 1.000000000000000000, -0.000000000000000000 ) ) ;
#223 = ORIENTED_EDGE ( 'NONE', *, *, #88, .T. ) ;
#224 = APPLICATION_PROTOCOL_DEFINITION ( 'international standard', 'config_control_design', 1994, #504 ) ;
#225 = DIRECTION ( 'NONE',  ( -0.000000000000000000, 1.000000000000000000, 3.543401163330213920E-15 ) ) ;
#226 = ORIENTED_EDGE ( 'NONE', *, *, #76, .T. ) ;
#227 = EDGE_CURVE ( 'NONE', #694, #202, #354, .T. ) ;
#228 = LINE ( 'NONE', #169, #220 ) ;
#229 = DIRECTION ( 'NONE',  ( 1.000000000000000000, 0.000000000000000000, 0.000000000000000000 ) ) ;
#230 = ORIENTED_EDGE ( 'NONE', *, *, #126, .F. ) ;
#231 = CARTESIAN_POINT ( 'NONE',  ( 0.000000000000000000, 0.6250000000000024425, -0.8149999999999996136 ) ) ;
#232 = VECTOR ( 'NONE', #201, 39.37007874015748143 ) ;
#233 = ORIENTED_EDGE ( 'NONE', *, *, #559, .F. ) ;
#234 = CARTESIAN_POINT ( 'NONE',  ( 0.8449999999999999734, -0.1249999999999999029, -0.2200000000000000011 ) ) ;
#235 = ORIENTED_EDGE ( 'NONE', *, *, #621, .F. ) ;
#236 = LINE ( 'NONE', #506, #442 ) ;
#237 = ADVANCED_BREP_SHAPE_REPRESENTATION ( '11-B-9016-01-(12gacr ANSI-61) - K30 - V0-R0', ( #543, #377 ), #47 ) ;
#238 = ORIENTED_EDGE ( 'NONE', *, *, #390, .T. ) ;
#239 = CARTESIAN_POINT ( 'NONE',  ( -1.125000000000000000, 0.5000000000000001110, 0.000000000000000000 ) ) ;
#240 = DIRECTION ( 'NONE',  ( 0.000000000000000000, 0.000000000000000000, 1.000000000000000000 ) ) ;
#241 = APPROVAL_DATE_TIME ( #254, #447 ) ;
#242 = CYLINDRICAL_SURFACE ( 'NONE', #295, 0.1549999999999999989 ) ;
#243 = EDGE_CURVE ( 'NONE', #472, #340, #552, .T. ) ;
#244 = VERTEX_POINT ( 'NONE', #339 ) ;
#245 = APPROVAL ( #1, 'UNSPECIFIED' ) ;
#246 = COORDINATED_UNIVERSAL_TIME_OFFSET ( 6, 0, .BEHIND. ) ;
#247 = VECTOR ( 'NONE', #562, 39.37007874015748143 ) ;
#248 = FACE_OUTER_BOUND ( 'NONE', #672, .T. ) ;
#249 = LOCAL_TIME ( 15, 56, 47.00000000000000000, #24 ) ;
#250 = VECTOR ( 'NONE', #130, 39.37007874015748854 ) ;
#251 = EDGE_LOOP ( 'NONE', ( #114, #223 ) ) ;
#252 = ORIENTED_EDGE ( 'NONE', *, *, #88, .F. ) ;
#253 = ORIENTED_EDGE ( 'NONE', *, *, #343, .F. ) ;
#254 = DATE_AND_TIME ( #82, #144 ) ;
#255 = ADVANCED_FACE ( 'NONE', ( #336 ), #712, .T. ) ;
#256 = ORIENTED_EDGE ( 'NONE', *, *, #126, .T. ) ;
#257 = CARTESIAN_POINT ( 'NONE',  ( -1.124999999999999778, 0.4050000000000014144, -0.4900000000000009903 ) ) ;
#258 = CALENDAR_DATE ( 2026, 19, 6 ) ;
#259 = AXIS2_PLACEMENT_3D ( 'NONE', #264, #540, #97 ) ;
#260 = DIRECTION ( 'NONE',  ( -0.000000000000000000, 3.543401163330213920E-15, -1.000000000000000000 ) ) ;
#261 = AXIS2_PLACEMENT_3D ( 'NONE', #706, #381, #594 ) ;
#262 = VECTOR ( 'NONE', #438, 39.37007874015748143 ) ;
#263 = DIRECTION ( 'NONE',  ( -1.000000000000000000, -0.000000000000000000, -0.000000000000000000 ) ) ;
#264 = CARTESIAN_POINT ( 'NONE',  ( -1.124999999999999778, 0.4050000000000014144, -0.4900000000000009903 ) ) ;
#265 = CARTESIAN_POINT ( 'NONE',  ( 0.000000000000000000, 0.6250000000000028866, -0.9199999999999995959 ) ) ;
#266 = PERSON ( 'UNSPECIFIED', 'UNSPECIFIED', 'UNSPECIFIED', ('UNSPECIFIED'), ('UNSPECIFIED'), ('UNSPECIFIED') ) ;
#267 = CARTESIAN_POINT ( 'NONE',  ( 1.125000000000000000, 0.6250000000000042188, -1.300000000000000266 ) ) ;
#268 = ORIENTED_EDGE ( 'NONE', *, *, #171, .F. ) ;
#269 = DIRECTION ( 'NONE',  ( -0.000000000000000000, -0.000000000000000000, 1.000000000000000000 ) ) ;
#270 = CARTESIAN_POINT ( 'NONE',  ( 1.124999999999999778, 0.5000000000000001110, -5.122214988120493535E-17 ) ) ;
#271 = DIRECTION ( 'NONE',  ( -1.000000000000000000, 0.000000000000000000, -0.000000000000000000 ) ) ;
#272 = VERTEX_POINT ( 'NONE', #164 ) ;
#273 = CARTESIAN_POINT ( 'NONE',  ( 1.125000000000000000, 0.5200000000000029043, -0.4900000000000006017 ) ) ;
#274 = CYLINDRICAL_SURFACE ( 'NONE', #663, 0.1549999999999999989 ) ;
#275 = VERTEX_POINT ( 'NONE', #154 ) ;
#276 = DIRECTION ( 'NONE',  ( 0.000000000000000000, -3.252199992457457001E-15, 1.000000000000000000 ) ) ;
#277 = DIRECTION ( 'NONE',  ( -0.000000000000000000, 0.000000000000000000, -1.000000000000000000 ) ) ;
#278 = ORIENTED_EDGE ( 'NONE', *, *, #204, .T. ) ;
#279 = AXIS2_PLACEMENT_3D ( 'NONE', #391, #327, #495 ) ;
#280 = VECTOR ( 'NONE', #591, 39.37007874015748143 ) ;
#281 = AXIS2_PLACEMENT_3D ( 'NONE', #203, #317, #433 ) ;
#282 = CARTESIAN_POINT ( 'NONE',  ( 1.125000000000000000, 0.6250000000000042188, -1.300000000000000266 ) ) ;
#283 = ADVANCED_FACE ( 'NONE', ( #666 ), #274, .F. ) ;
#284 = ORIENTED_EDGE ( 'NONE', *, *, #484, .F. ) ;
#285 = PERSON_AND_ORGANIZATION ( #266, #170 ) ;
#286 = EDGE_CURVE ( 'NONE', #508, #418, #158, .T. ) ;
#287 = DIRECTION ( 'NONE',  ( 0.000000000000000000, 0.000000000000000000, -1.000000000000000000 ) ) ;
#288 = VERTEX_POINT ( 'NONE', #656 ) ;
#289 = FACE_OUTER_BOUND ( 'NONE', #349, .T. ) ;
#290 = CARTESIAN_POINT ( 'NONE',  ( -1.125000000000000000, -0.6250000000000000000, 0.000000000000000000 ) ) ;
#291 = CARTESIAN_POINT ( 'NONE',  ( -0.8449999999999999734, -0.1249999999999999584, -0.1049999999999999961 ) ) ;
#292 = DIRECTION ( 'NONE',  ( 0.000000000000000000, 1.000000000000000000, 3.414809992080330699E-15 ) ) ;
#293 = VECTOR ( 'NONE', #541, 39.37007874015748143 ) ;
#294 = DIRECTION ( 'NONE',  ( 1.000000000000000000, 0.000000000000000000, 0.000000000000000000 ) ) ;
#295 = AXIS2_PLACEMENT_3D ( 'NONE', #234, #452, #294 ) ;
#296 = DIRECTION ( 'NONE',  ( 1.000000000000000000, 0.000000000000000000, 0.000000000000000000 ) ) ;
#297 = ADVANCED_FACE ( 'NONE', ( #109 ), #723, .F. ) ;
#298 = EDGE_CURVE ( 'NONE', #687, #15, #449, .T. ) ;
#299 = FACE_OUTER_BOUND ( 'NONE', #676, .T. ) ;
#300 = VERTEX_POINT ( 'NONE', #436 ) ;
#301 = ORIENTED_EDGE ( 'NONE', *, *, #671, .F. ) ;
#302 = CARTESIAN_POINT ( 'NONE',  ( -1.125000000000000000, 0.6250000000000000000, -0.1049999999999999961 ) ) ;
#303 = DIRECTION ( 'NONE',  ( 0.000000000000000000, 1.000000000000000000, 3.551402391763543564E-15 ) ) ;
#304 = SECURITY_CLASSIFICATION_LEVEL ( 'unclassified' ) ;
#305 = AXIS2_PLACEMENT_3D ( 'NONE', #111, #557, #276 ) ;
#306 = CARTESIAN_POINT ( 'NONE',  ( 0.8449999999999999734, -0.1249999999999999029, 0.000000000000000000 ) ) ;
#307 = ADVANCED_FACE ( 'NONE', ( #160 ), #717, .T. ) ;
#308 = DATE_TIME_ROLE ( 'classification_date' ) ;
#309 = ORIENTED_EDGE ( 'NONE', *, *, #22, .F. ) ;
#310 = LINE ( 'NONE', #533, #122 ) ;
#311 = ORIENTED_EDGE ( 'NONE', *, *, #692, .T. ) ;
#312 = CARTESIAN_POINT ( 'NONE',  ( -1.125000000000000000, 0.5199999999999996847, 2.214625727081382122E-15 ) ) ;
#313 = DIRECTION ( 'NONE',  ( -0.000000000000000000, -0.000000000000000000, 1.000000000000000000 ) ) ;
#314 = ADVANCED_FACE ( 'NONE', ( #558 ), #152, .T. ) ;
#315 = EDGE_LOOP ( 'NONE', ( #632, #71 ) ) ;
#316 = VECTOR ( 'NONE', #260, 39.37007874015748143 ) ;
#317 = DIRECTION ( 'NONE',  ( -1.000000000000000000, -0.000000000000000000, 0.000000000000000000 ) ) ;
#318 = AXIS2_PLACEMENT_3D ( 'NONE', #56, #350, #119 ) ;
#319 = VECTOR ( 'NONE', #29, 39.37007874015748143 ) ;
#320 = CARTESIAN_POINT ( 'NONE',  ( 1.125000000000000000, -0.6250000000000000000, -0.1049999999999999961 ) ) ;
#321 = CC_DESIGN_PERSON_AND_ORGANIZATION_ASSIGNMENT ( #626, #79, ( #597 ) ) ;
#322 = LINE ( 'NONE', #257, #568 ) ;
#323 = DIRECTION ( 'NONE',  ( 1.000000000000000000, 0.000000000000000000, 0.000000000000000000 ) ) ;
#324 = ORIENTED_EDGE ( 'NONE', *, *, #298, .T. ) ;
#325 = CARTESIAN_POINT ( 'NONE',  ( 0.8449999999999999734, -0.1249999999999999029, -0.1049999999999999961 ) ) ;
#326 = DIRECTION ( 'NONE',  ( -0.000000000000000000, 1.000000000000000000, 3.543401163330213920E-15 ) ) ;
#327 = DIRECTION ( 'NONE',  ( -0.000000000000000000, 0.000000000000000000, 1.000000000000000000 ) ) ;
#328 = CC_DESIGN_APPROVAL ( #447, ( #597 ) ) ;
#329 = ADVANCED_FACE ( 'NONE', ( #59 ), #382, .T. ) ;
#330 = VERTEX_POINT ( 'NONE', #507 ) ;
#331 = VECTOR ( 'NONE', #313, 39.37007874015748143 ) ;
#332 = FACE_BOUND ( 'NONE', #251, .T. ) ;
#333 = LINE ( 'NONE', #546, #466 ) ;
#334 = ORIENTED_EDGE ( 'NONE', *, *, #549, .T. ) ;
#335 = DIRECTION ( 'NONE',  ( 0.000000000000000000, 1.000000000000000000, 3.543401163330213920E-15 ) ) ;
#336 = FACE_OUTER_BOUND ( 'NONE', #699, .T. ) ;
#337 = ORIENTED_EDGE ( 'NONE', *, *, #53, .T. ) ;
#338 = ADVANCED_FACE ( 'NONE', ( #2 ), #595, .F. ) ;
#339 = CARTESIAN_POINT ( 'NONE',  ( 1.000000000000000000, -0.1249999999999999029, 0.000000000000000000 ) ) ;
#340 = VERTEX_POINT ( 'NONE', #384 ) ;
#341 = VECTOR ( 'NONE', #69, 39.37007874015748143 ) ;
#342 =( CONVERSION_BASED_UNIT ( 'INCH', #9 ) LENGTH_UNIT ( ) NAMED_UNIT ( #347 ) );
#343 = EDGE_CURVE ( 'NONE', #610, #551, #333, .T. ) ;
#344 = CARTESIAN_POINT ( 'NONE',  ( 1.125000000000000000, 0.6250000000000000000, -0.1049999999999996353 ) ) ;
#345 = ORIENTED_EDGE ( 'NONE', *, *, #621, .T. ) ;
#346 = LINE ( 'NONE', #4, #58 ) ;
#347 = DIMENSIONAL_EXPONENTS ( 1.000000000000000000, 0.000000000000000000, 0.000000000000000000, 0.000000000000000000, 0.000000000000000000, 0.000000000000000000, 0.000000000000000000 ) ;
#348 = LINE ( 'NONE', #290, #57 ) ;
#349 = EDGE_LOOP ( 'NONE', ( #691, #278, #679, #26 ) ) ;
#350 = DIRECTION ( 'NONE',  ( -0.000000000000000000, 1.000000000000000000, 3.543401163330213920E-15 ) ) ;
#351 = DIRECTION ( 'NONE',  ( 0.000000000000000000, 0.000000000000000000, -1.000000000000000000 ) ) ;
#352 = ORIENTED_EDGE ( 'NONE', *, *, #635, .T. ) ;
#353 = APPROVAL_STATUS ( 'not_yet_approved' ) ;
#354 = CIRCLE ( 'NONE', #8, 0.1049999999999999684 ) ;
#355 = CC_DESIGN_DATE_AND_TIME_ASSIGNMENT ( #637, #308, ( #554 ) ) ;
#356 = LINE ( 'NONE', #302, #378 ) ;
#357 = VECTOR ( 'NONE', #12, 39.37007874015748143 ) ;
#358 = DIRECTION ( 'NONE',  ( 1.000000000000000000, 0.000000000000000000, 0.000000000000000000 ) ) ;
#359 = DIRECTION ( 'NONE',  ( 0.000000000000000000, 3.543401163330213920E-15, -1.000000000000000000 ) ) ;
#360 = VERTEX_POINT ( 'NONE', #177 ) ;
#361 = EDGE_CURVE ( 'NONE', #275, #610, #116, .T. ) ;
#362 = ORIENTED_EDGE ( 'NONE', *, *, #146, .T. ) ;
#363 = COORDINATED_UNIVERSAL_TIME_OFFSET ( 6, 0, .BEHIND. ) ;
#364 = EDGE_CURVE ( 'NONE', #565, #330, #348, .T. ) ;
#365 = VERTEX_POINT ( 'NONE', #569 ) ;
#366 = VECTOR ( 'NONE', #374, 39.37007874015748143 ) ;
#367 = DIRECTION ( 'NONE',  ( 1.000000000000000000, 0.000000000000000000, 0.000000000000000000 ) ) ;
#368 = APPROVAL_ROLE ( '' ) ;
#369 = DIRECTION ( 'NONE',  ( -0.000000000000000000, 0.000000000000000000, 1.000000000000000000 ) ) ;
#370 = DIRECTION ( 'NONE',  ( -0.000000000000000000, 1.000000000000000000, 3.543401163330213920E-15 ) ) ;
#371 = EDGE_LOOP ( 'NONE', ( #407, #587, #548, #664, #17, #155 ) ) ;
#372 = FACE_OUTER_BOUND ( 'NONE', #473, .T. ) ;
#373 = EDGE_CURVE ( 'NONE', #634, #275, #620, .T. ) ;
#374 = DIRECTION ( 'NONE',  ( -0.000000000000000000, 1.000000000000000000, -0.000000000000000000 ) ) ;
#375 = VECTOR ( 'NONE', #148, 39.37007874015748143 ) ;
#376 = DIRECTION ( 'NONE',  ( 0.000000000000000000, -3.543401163330213920E-15, 1.000000000000000000 ) ) ;
#377 = AXIS2_PLACEMENT_3D ( 'NONE', #404, #502, #619 ) ;
#378 = VECTOR ( 'NONE', #120, 39.37007874015748143 ) ;
#379 = CARTESIAN_POINT ( 'NONE',  ( -1.124999999999999778, 0.5200000000000029043, -0.4900000000000006017 ) ) ;
#380 = LINE ( 'NONE', #312, #316 ) ;
#381 = DIRECTION ( 'NONE',  ( -1.000000000000000000, -0.000000000000000000, -0.000000000000000000 ) ) ;
#382 = PLANE ( 'NONE',  #218 ) ;
#383 = DIRECTION ( 'NONE',  ( 0.000000000000000000, 0.000000000000000000, 1.000000000000000000 ) ) ;
#384 = CARTESIAN_POINT ( 'NONE',  ( 1.125000000000000000, 0.6250000000000000000, -0.1249999999999995837 ) ) ;
#385 = VECTOR ( 'NONE', #326, 39.37007874015748143 ) ;
#386 = AXIS2_PLACEMENT_3D ( 'NONE', #605, #51, #550 ) ;
#387 = FACE_OUTER_BOUND ( 'NONE', #7, .T. ) ;
#388 = CARTESIAN_POINT ( 'NONE',  ( 1.125000000000000000, 0.6250000000000000000, -0.1049999999999999961 ) ) ;
#389 = ORIENTED_EDGE ( 'NONE', *, *, #243, .F. ) ;
#390 = EDGE_CURVE ( 'NONE', #365, #416, #468, .T. ) ;
#391 = CARTESIAN_POINT ( 'NONE',  ( 0.8449999999999999734, -0.1249999999999999029, -0.1049999999999999961 ) ) ;
#392 = ADVANCED_FACE ( 'NONE', ( #5 ), #564, .F. ) ;
#393 = ORIENTED_EDGE ( 'NONE', *, *, #415, .T. ) ;
#394 = DIRECTION ( 'NONE',  ( 0.000000000000000000, 3.491481338843132961E-15, -1.000000000000000000 ) ) ;
#395 = ORIENTED_EDGE ( 'NONE', *, *, #298, .F. ) ;
#396 = CIRCLE ( 'NONE', #31, 0.1049999999999999684 ) ;
#397 = DIRECTION ( 'NONE',  ( -0.000000000000000000, 1.000000000000000000, 3.543401163330213920E-15 ) ) ;
#398 = ORIENTED_EDGE ( 'NONE', *, *, #497, .F. ) ;
#399 = DIRECTION ( 'NONE',  ( 1.000000000000000000, 0.000000000000000000, 0.000000000000000000 ) ) ;
#400 = CARTESIAN_POINT ( 'NONE',  ( -0.8449999999999999734, -0.1249999999999999584, 0.000000000000000000 ) ) ;
#401 = EDGE_CURVE ( 'NONE', #551, #472, #123, .T. ) ;
#402 = EDGE_LOOP ( 'NONE', ( #309, #193 ) ) ;
#403 = ADVANCED_FACE ( 'NONE', ( #299 ), #242, .F. ) ;
#404 = CARTESIAN_POINT ( 'NONE',  ( 0.000000000000000000, 0.000000000000000000, 0.000000000000000000 ) ) ;
#405 = ORIENTED_EDGE ( 'NONE', *, *, #390, .F. ) ;
#406 = FACE_OUTER_BOUND ( 'NONE', #371, .T. ) ;
#407 = ORIENTED_EDGE ( 'NONE', *, *, #161, .T. ) ;
#408 = DATE_TIME_ROLE ( 'creation_date' ) ;
#409 = AXIS2_PLACEMENT_3D ( 'NONE', #652, #536, #474 ) ;
#410 = ORIENTED_EDGE ( 'NONE', *, *, #361, .F. ) ;
#411 = CIRCLE ( 'NONE', #174, 0.1549999999999999989 ) ;
#412 = CARTESIAN_POINT ( 'NONE',  ( 0.000000000000000000, 0.5199999999999996847, 2.214625727081382122E-15 ) ) ;
#413 = AXIS2_PLACEMENT_3D ( 'NONE', #80, #445, #498 ) ;
#414 = EDGE_LOOP ( 'NONE', ( #527, #432 ) ) ;
#415 = EDGE_CURVE ( 'NONE', #416, #300, #700, .T. ) ;
#416 = VERTEX_POINT ( 'NONE', #678 ) ;
#417 = COORDINATED_UNIVERSAL_TIME_OFFSET ( 6, 0, .BEHIND. ) ;
#418 = VERTEX_POINT ( 'NONE', #516 ) ;
#419 = DATE_AND_TIME ( #567, #70 ) ;
#420 = CIRCLE ( 'NONE', #184, 0.1549999999999999989 ) ;
#421 = AXIS2_PLACEMENT_3D ( 'NONE', #464, #397, #138 ) ;
#422 = DIRECTION ( 'NONE',  ( -0.000000000000000000, 1.000000000000000000, 3.543401163330213920E-15 ) ) ;
#423 = DIRECTION ( 'NONE',  ( 1.000000000000000000, -0.000000000000000000, -0.000000000000000000 ) ) ;
#424 = EDGE_CURVE ( 'NONE', #446, #74, #617, .T. ) ;
#425 = DIRECTION ( 'NONE',  ( -0.000000000000000000, 0.000000000000000000, 1.000000000000000000 ) ) ;
#426 = EDGE_CURVE ( 'NONE', #555, #446, #356, .T. ) ;
#427 = EDGE_CURVE ( 'NONE', #3, #687, #72, .T. ) ;
#428 = CARTESIAN_POINT ( 'NONE',  ( -0.3149999999999998912, 0.6250000000000042188, -1.300000000000000266 ) ) ;
#429 = EDGE_LOOP ( 'NONE', ( #213, #64, #724, #493 ) ) ;
#430 = FACE_OUTER_BOUND ( 'NONE', #429, .T. ) ;
#431 = DIRECTION ( 'NONE',  ( 0.000000000000000000, 1.000000000000000000, 3.543401163330213920E-15 ) ) ;
#432 = ORIENTED_EDGE ( 'NONE', *, *, #215, .T. ) ;
#433 = DIRECTION ( 'NONE',  ( 0.000000000000000000, 0.000000000000000000, 1.000000000000000000 ) ) ;
#434 = CARTESIAN_POINT ( 'NONE',  ( 1.000000000000000000, -0.1249999999999999029, -0.1049999999999999961 ) ) ;
#435 = ORIENTED_EDGE ( 'NONE', *, *, #215, .F. ) ;
#436 = CARTESIAN_POINT ( 'NONE',  ( -0.6900000000000000577, -0.1249999999999999584, 0.000000000000000000 ) ) ;
#437 = CARTESIAN_POINT ( 'NONE',  ( 0.000000000000000000, 0.6250000000000028866, -0.9199999999999995959 ) ) ;
#438 = DIRECTION ( 'NONE',  ( 0.000000000000000000, -3.543401163330213920E-15, 1.000000000000000000 ) ) ;
#439 = VERTEX_POINT ( 'NONE', #239 ) ;
#440 = CARTESIAN_POINT ( 'NONE',  ( -0.8449999999999999734, -0.1249999999999999584, 0.000000000000000000 ) ) ;
#441 = DIRECTION ( 'NONE',  ( 0.000000000000000000, 0.000000000000000000, 1.000000000000000000 ) ) ;
#442 = VECTOR ( 'NONE', #448, 39.37007874015748143 ) ;
#443 = ORIENTED_EDGE ( 'NONE', *, *, #96, .F. ) ;
#444 = DIRECTION ( 'NONE',  ( -0.000000000000000000, 1.000000000000000000, 3.543401163330213920E-15 ) ) ;
#445 = DIRECTION ( 'NONE',  ( -0.000000000000000000, 0.000000000000000000, 1.000000000000000000 ) ) ;
#446 = VERTEX_POINT ( 'NONE', #462 ) ;
#447 = APPROVAL ( #353, 'UNSPECIFIED' ) ;
#448 = DIRECTION ( 'NONE',  ( 0.000000000000000000, -1.000000000000000000, 0.000000000000000000 ) ) ;
#449 = LINE ( 'NONE', #598, #143 ) ;
#450 = ORIENTED_EDGE ( 'NONE', *, *, #683, .F. ) ;
#451 = APPROVAL_ROLE ( '' ) ;
#452 = DIRECTION ( 'NONE',  ( -0.000000000000000000, -0.000000000000000000, 1.000000000000000000 ) ) ;
#453 = EDGE_LOOP ( 'NONE', ( #479, #681, #175, #162 ) ) ;
#454 = VECTOR ( 'NONE', #494, 39.37007874015748143 ) ;
#455 = CARTESIAN_POINT ( 'NONE',  ( 0.3149999999999998912, 0.4050000000000043010, -1.300000000000001155 ) ) ;
#456 = EDGE_CURVE ( 'NONE', #3, #340, #173, .T. ) ;
#457 = ORIENTED_EDGE ( 'NONE', *, *, #692, .F. ) ;
#458 = CARTESIAN_POINT ( 'NONE',  ( -1.000000000000000000, -0.1249999999999999445, -0.2200000000000000011 ) ) ;
#459 = EDGE_LOOP ( 'NONE', ( #405, #660, #311, #106 ) ) ;
#460 =( NAMED_UNIT ( * ) SI_UNIT ( $, .STERADIAN. ) SOLID_ANGLE_UNIT ( ) );
#461 = ORIENTED_EDGE ( 'NONE', *, *, #22, .T. ) ;
#462 = CARTESIAN_POINT ( 'NONE',  ( -1.125000000000000000, -0.6250000000000000000, -0.1049999999999999961 ) ) ;
#463 = DIRECTION ( 'NONE',  ( 1.000000000000000000, 0.000000000000000000, 0.000000000000000000 ) ) ;
#464 = CARTESIAN_POINT ( 'NONE',  ( 0.000000000000000000, 0.4050000000000029132, -0.9200000000000004841 ) ) ;
#465 = CARTESIAN_POINT ( 'NONE',  ( 1.125000000000000000, 0.5000000000000001110, -5.122214988120493535E-17 ) ) ;
#466 = VECTOR ( 'NONE', #66, 39.37007874015748854 ) ;
#467 = VECTOR ( 'NONE', #142, 39.37007874015748143 ) ;
#468 = LINE ( 'NONE', #458, #331 ) ;
#469 = AXIS2_PLACEMENT_3D ( 'NONE', #703, #648, #376 ) ;
#470 = ORIENTED_EDGE ( 'NONE', *, *, #45, .T. ) ;
#471 = ORIENTED_EDGE ( 'NONE', *, *, #227, .F. ) ;
#472 = VERTEX_POINT ( 'NONE', #686 ) ;
#473 = EDGE_LOOP ( 'NONE', ( #23, #708, #226, #352 ) ) ;
#474 = DIRECTION ( 'NONE',  ( 1.000000000000000000, 0.000000000000000000, 0.000000000000000000 ) ) ;
#475 = CC_DESIGN_SECURITY_CLASSIFICATION ( #554, ( #597 ) ) ;
#476 = ADVANCED_FACE ( 'NONE', ( #179, #406 ), #183, .F. ) ;
#477 = AXIS2_PLACEMENT_3D ( 'NONE', #520, #14, #351 ) ;
#478 = PLANE ( 'NONE',  #281 ) ;
#479 = ORIENTED_EDGE ( 'NONE', *, *, #600, .F. ) ;
#480 = LINE ( 'NONE', #702, #232 ) ;
#481 = FACE_OUTER_BOUND ( 'NONE', #577, .T. ) ;
#482 = LINE ( 'NONE', #545, #651 ) ;
#483 = CARTESIAN_POINT ( 'NONE',  ( -1.125000000000000000, 0.6250000000000000000, -0.1249999999999994865 ) ) ;
#484 = EDGE_CURVE ( 'NONE', #288, #103, #629, .T. ) ;
#485 = CARTESIAN_POINT ( 'NONE',  ( 0.3149999999999998912, 0.5200000000000042366, -1.300000000000000711 ) ) ;
#486 = VERTEX_POINT ( 'NONE', #573 ) ;
#487 = CIRCLE ( 'NONE', #318, 0.1049999999999999684 ) ;
#488 = LINE ( 'NONE', #709, #623 ) ;
#489 = ADVANCED_FACE ( 'NONE', ( #248 ), #642, .T. ) ;
#490 = UNCERTAINTY_MEASURE_WITH_UNIT (LENGTH_MEASURE( 1.000000000000000082E-05 ), #342, 'distance_accuracy_value', 'NONE');
#491 = DIRECTION ( 'NONE',  ( 0.000000000000000000, 0.000000000000000000, 1.000000000000000000 ) ) ;
#492 = DIRECTION ( 'NONE',  ( -0.000000000000000000, 0.000000000000000000, 1.000000000000000000 ) ) ;
#493 = ORIENTED_EDGE ( 'NONE', *, *, #373, .F. ) ;
#494 = DIRECTION ( 'NONE',  ( 0.000000000000000000, 0.000000000000000000, 1.000000000000000000 ) ) ;
#495 = DIRECTION ( 'NONE',  ( 1.000000000000000000, 0.000000000000000000, 0.000000000000000000 ) ) ;
#496 = EDGE_LOOP ( 'NONE', ( #235, #443, #124, #118 ) ) ;
#497 = EDGE_CURVE ( 'NONE', #446, #565, #529, .T. ) ;
#498 = DIRECTION ( 'NONE',  ( 1.000000000000000000, 0.000000000000000000, 0.000000000000000000 ) ) ;
#499 = AXIS2_PLACEMENT_3D ( 'NONE', #140, #602, #714 ) ;
#500 = ORIENTED_EDGE ( 'NONE', *, *, #149, .F. ) ;
#501 = AXIS2_PLACEMENT_3D ( 'NONE', #325, #369, #367 ) ;
#502 = DIRECTION ( 'NONE',  ( 0.000000000000000000, 0.000000000000000000, 1.000000000000000000 ) ) ;
#503 = DIRECTION ( 'NONE',  ( 1.000000000000000000, 0.000000000000000000, 0.000000000000000000 ) ) ;
#504 = APPLICATION_CONTEXT ( 'configuration controlled 3d designs of mechanical parts and assemblies' ) ;
#505 = EDGE_LOOP ( 'NONE', ( #647, #52, #544, #450 ) ) ;
#506 = CARTESIAN_POINT ( 'NONE',  ( -1.125000000000000000, 0.6250000000000000000, 0.000000000000000000 ) ) ;
#507 = CARTESIAN_POINT ( 'NONE',  ( 1.125000000000000000, -0.6250000000000000000, 0.000000000000000000 ) ) ;
#508 = VERTEX_POINT ( 'NONE', #434 ) ;
#509 = EDGE_CURVE ( 'NONE', #288, #340, #94, .T. ) ;
#510 = CYLINDRICAL_SURFACE ( 'NONE', #305, 0.1049999999999999684 ) ;
#511 = CARTESIAN_POINT ( 'NONE',  ( 0.000000000000000000, 0.5200000000000042366, -1.300000000000000711 ) ) ;
#512 = ORIENTED_EDGE ( 'NONE', *, *, #194, .F. ) ;
#513 = AXIS2_PLACEMENT_3D ( 'NONE', #455, #677, #176 ) ;
#514 = FACE_OUTER_BOUND ( 'NONE', #693, .T. ) ;
#515 = VECTOR ( 'NONE', #269, 39.37007874015748143 ) ;
#516 = CARTESIAN_POINT ( 'NONE',  ( 0.6900000000000000577, -0.1249999999999998751, -0.1049999999999999961 ) ) ;
#517 = ORIENTED_EDGE ( 'NONE', *, *, #35, .F. ) ;
#518 = DIRECTION ( 'NONE',  ( 0.000000000000000000, 0.000000000000000000, 1.000000000000000000 ) ) ;
#519 = ORIENTED_EDGE ( 'NONE', *, *, #535, .T. ) ;
#520 = CARTESIAN_POINT ( 'NONE',  ( 1.125000000000000000, 0.5000000000000001110, -0.1250000000000000278 ) ) ;
#521 = CARTESIAN_POINT ( 'NONE',  ( -1.124999999999999778, 0.6250000000000014433, -0.4900000000000002132 ) ) ;
#522 = FACE_OUTER_BOUND ( 'NONE', #496, .T. ) ;
#523 = PERSON_AND_ORGANIZATION ( #266, #170 ) ;
#524 = ORIENTED_EDGE ( 'NONE', *, *, #96, .T. ) ;
#525 = DIRECTION ( 'NONE',  ( 0.000000000000000000, 0.000000000000000000, -1.000000000000000000 ) ) ;
#526 = EDGE_CURVE ( 'NONE', #74, #330, #153, .T. ) ;
#527 = ORIENTED_EDGE ( 'NONE', *, *, #10, .T. ) ;
#528 = CARTESIAN_POINT ( 'NONE',  ( 1.285879139104721256E-17, 0.6250000000000033307, -1.024999999999999689 ) ) ;
#529 = LINE ( 'NONE', #205, #112 ) ;
#530 = AXIS2_PLACEMENT_3D ( 'NONE', #388, #603, #277 ) ;
#531 = CIRCLE ( 'NONE', #707, 0.1549999999999999989 ) ;
#532 = AXIS2_PLACEMENT_3D ( 'NONE', #412, #370, #698 ) ;
#533 = CARTESIAN_POINT ( 'NONE',  ( -1.124999999999999778, 0.5000000000000001110, -0.1050000000000000377 ) ) ;
#534 = DIRECTION ( 'NONE',  ( -0.000000000000000000, 0.000000000000000000, 1.000000000000000000 ) ) ;
#535 = EDGE_CURVE ( 'NONE', #202, #151, #98, .T. ) ;
#536 = DIRECTION ( 'NONE',  ( -0.000000000000000000, -0.000000000000000000, 1.000000000000000000 ) ) ;
#537 = CARTESIAN_POINT ( 'NONE',  ( 1.285879139104720794E-17, 0.4050000000000032463, -1.025000000000000355 ) ) ;
#538 = ORIENTED_EDGE ( 'NONE', *, *, #645, .F. ) ;
#539 = EDGE_CURVE ( 'NONE', #300, #416, #531, .T. ) ;
#540 = DIRECTION ( 'NONE',  ( 0.7071067811865475727, -2.505562991055095827E-15, 0.7071067811865474617 ) ) ;
#541 = DIRECTION ( 'NONE',  ( 1.000000000000000000, 0.000000000000000000, 0.000000000000000000 ) ) ;
#542 = CARTESIAN_POINT ( 'NONE',  ( 1.125000000000000000, 0.6250000000000000000, -0.1049999999999996353 ) ) ;
#543 = MANIFOLD_SOLID_BREP ( 'Cortar-Extruir2', #91 ) ;
#544 = ORIENTED_EDGE ( 'NONE', *, *, #497, .T. ) ;
#545 = CARTESIAN_POINT ( 'NONE',  ( -0.3149999999999998912, 0.6250000000000044409, -1.300000000000000266 ) ) ;
#546 = CARTESIAN_POINT ( 'NONE',  ( 0.8075000000000013278, 0.5200000000000024603, -0.8074999999999991074 ) ) ;
#547 = ADVANCED_FACE ( 'NONE', ( #646, #332, #39 ), #46, .F. ) ;
#548 = ORIENTED_EDGE ( 'NONE', *, *, #361, .T. ) ;
#549 = EDGE_CURVE ( 'NONE', #272, #244, #420, .T. ) ;
#550 = DIRECTION ( 'NONE',  ( 1.000000000000000000, 0.000000000000000000, 0.000000000000000000 ) ) ;
#551 = VERTEX_POINT ( 'NONE', #273 ) ;
#552 = LINE ( 'NONE', #344, #262 ) ;
#553 = VECTOR ( 'NONE', #137, 39.37007874015748143 ) ;
#554 = SECURITY_CLASSIFICATION ( '', '', #304 ) ;
#555 = VERTEX_POINT ( 'NONE', #50 ) ;
#556 = CIRCLE ( 'NONE', #718, 0.1549999999999999989 ) ;
#557 = DIRECTION ( 'NONE',  ( -0.000000000000000000, 1.000000000000000000, 3.543401163330213920E-15 ) ) ;
#558 = FACE_OUTER_BOUND ( 'NONE', #129, .T. ) ;
#559 = EDGE_CURVE ( 'NONE', #631, #275, #482, .T. ) ;
#560 = ORIENTED_EDGE ( 'NONE', *, *, #159, .F. ) ;
#561 = CARTESIAN_POINT ( 'NONE',  ( 0.000000000000000000, 0.5200000000000025713, -0.8150000000000000577 ) ) ;
#562 = DIRECTION ( 'NONE',  ( 0.7071067811865474617, 2.505562991055095827E-15, -0.7071067811865475727 ) ) ;
#563 = CYLINDRICAL_SURFACE ( 'NONE', #60, 0.1249999999999999584 ) ;
#564 = CYLINDRICAL_SURFACE ( 'NONE', #421, 0.1049999999999999684 ) ;
#565 = VERTEX_POINT ( 'NONE', #92 ) ;
#566 = CC_DESIGN_APPROVAL ( #189, ( #554 ) ) ;
#567 = CALENDAR_DATE ( 2026, 19, 6 ) ;
#568 = VECTOR ( 'NONE', #422, 39.37007874015748143 ) ;
#569 = CARTESIAN_POINT ( 'NONE',  ( -1.000000000000000000, -0.1249999999999999445, -0.1049999999999999961 ) ) ;
#570 = EDGE_LOOP ( 'NONE', ( #168, #519, #601, #301 ) ) ;
#571 = PERSON_AND_ORGANIZATION_ROLE ( 'classification_officer' ) ;
#572 = CC_DESIGN_PERSON_AND_ORGANIZATION_ASSIGNMENT ( #696, #85, ( #649 ) ) ;
#573 = CARTESIAN_POINT ( 'NONE',  ( -0.6900000000000000577, -0.1249999999999999584, -0.1049999999999999961 ) ) ;
#574 = ORIENTED_EDGE ( 'NONE', *, *, #526, .T. ) ;
#575 = ORIENTED_EDGE ( 'NONE', *, *, #526, .F. ) ;
#576 = DATE_AND_TIME ( #258, #638 ) ;
#577 = EDGE_LOOP ( 'NONE', ( #517, #284, #643, #389, #190, #28 ) ) ;
#578 = FACE_OUTER_BOUND ( 'NONE', #615, .T. ) ;
#579 = EDGE_CURVE ( 'NONE', #74, #687, #661, .T. ) ;
#580 = PERSON_AND_ORGANIZATION ( #266, #170 ) ;
#581 = FACE_OUTER_BOUND ( 'NONE', #217, .T. ) ;
#582 = DIRECTION ( 'NONE',  ( 0.000000000000000000, -1.000000000000000000, 0.000000000000000000 ) ) ;
#583 = ORIENTED_EDGE ( 'NONE', *, *, #427, .F. ) ;
#584 = PLANE ( 'NONE',  #259 ) ;
#585 = DIRECTION ( 'NONE',  ( 0.000000000000000000, -3.902639990948948244E-15, 1.000000000000000000 ) ) ;
#586 = ADVANCED_FACE ( 'NONE', ( #657, #208, #387 ), #710, .T. ) ;
#587 = ORIENTED_EDGE ( 'NONE', *, *, #373, .T. ) ;
#588 = AXIS2_PLACEMENT_3D ( 'NONE', #654, #534, #104 ) ;
#589 = AXIS2_PLACEMENT_3D ( 'NONE', #282, #394, #54 ) ;
#590 = CYLINDRICAL_SURFACE ( 'NONE', #409, 0.1549999999999999989 ) ;
#591 = DIRECTION ( 'NONE',  ( -1.000000000000000000, -0.000000000000000000, -0.000000000000000000 ) ) ;
#592 = FACE_BOUND ( 'NONE', #721, .T. ) ;
#593 = DESIGN_CONTEXT ( 'detailed design', #42, 'design' ) ;
#594 = DIRECTION ( 'NONE',  ( 0.000000000000000000, 0.000000000000000000, -1.000000000000000000 ) ) ;
#595 = PLANE ( 'NONE',  #690 ) ;
#596 = CARTESIAN_POINT ( 'NONE',  ( 0.8449999999999999734, -0.1249999999999999029, 0.000000000000000000 ) ) ;
#597 = PRODUCT_DEFINITION_FORMATION_WITH_SPECIFIED_SOURCE ( 'ANY', '', #680, .NOT_KNOWN. ) ;
#598 = CARTESIAN_POINT ( 'NONE',  ( 1.125000000000000000, 0.5000000000000001110, -0.1050000000000000377 ) ) ;
#599 = AXIS2_PLACEMENT_3D ( 'NONE', #37, #705, #525 ) ;
#600 = EDGE_CURVE ( 'NONE', #687, #555, #150, .T. ) ;
#601 = ORIENTED_EDGE ( 'NONE', *, *, #645, .T. ) ;
#602 = DIRECTION ( 'NONE',  ( -0.000000000000000000, 0.000000000000000000, 1.000000000000000000 ) ) ;
#603 = DIRECTION ( 'NONE',  ( 1.000000000000000000, 0.000000000000000000, -0.000000000000000000 ) ) ;
#604 = ORIENTED_EDGE ( 'NONE', *, *, #668, .T. ) ;
#605 = CARTESIAN_POINT ( 'NONE',  ( -0.8449999999999999734, -0.1249999999999999584, -0.2200000000000000011 ) ) ;
#606 = EDGE_LOOP ( 'NONE', ( #110, #471, #83, #75 ) ) ;
#607 = APPLICATION_PROTOCOL_DEFINITION ( 'international standard', 'config_control_design', 1994, #42 ) ;
#608 = DIRECTION ( 'NONE',  ( -1.000000000000000000, 0.000000000000000000, 0.000000000000000000 ) ) ;
#609 = CC_DESIGN_APPROVAL ( #245, ( #649 ) ) ;
#610 = VERTEX_POINT ( 'NONE', #485 ) ;
#611 = PLANE ( 'NONE',  #513 ) ;
#612 = EDGE_CURVE ( 'NONE', #716, #151, #396, .T. ) ;
#613 = CARTESIAN_POINT ( 'NONE',  ( -1.125000000000000000, -0.6250000000000000000, -0.1049999999999999961 ) ) ;
#614 = PRODUCT_RELATED_PRODUCT_CATEGORY ( 'detail', '', ( #680 ) ) ;
#615 = EDGE_LOOP ( 'NONE', ( #252, #256, #334, #560 ) ) ;
#616 =( LENGTH_UNIT ( ) NAMED_UNIT ( * ) SI_UNIT ( $, .METRE. ) );
#617 = LINE ( 'NONE', #77, #357 ) ;
#618 = ORIENTED_EDGE ( 'NONE', *, *, #612, .F. ) ;
#619 = DIRECTION ( 'NONE',  ( 1.000000000000000000, 0.000000000000000000, 0.000000000000000000 ) ) ;
#620 = LINE ( 'NONE', #73, #247 ) ;
#621 = EDGE_CURVE ( 'NONE', #15, #439, #33, .T. ) ;
#622 = ORIENTED_EDGE ( 'NONE', *, *, #683, .T. ) ;
#623 = VECTOR ( 'NONE', #640, 39.37007874015748143 ) ;
#624 = APPROVAL_PERSON_ORGANIZATION ( #285, #245, #451 ) ;
#625 = EDGE_CURVE ( 'NONE', #667, #3, #480, .T. ) ;
#626 = PERSON_AND_ORGANIZATION ( #266, #170 ) ;
#627 = VECTOR ( 'NONE', #359, 39.37007874015748143 ) ;
#628 = EDGE_LOOP ( 'NONE', ( #653, #604 ) ) ;
#629 = LINE ( 'NONE', #127, #627 ) ;
#630 = ORIENTED_EDGE ( 'NONE', *, *, #401, .F. ) ;
#631 = VERTEX_POINT ( 'NONE', #428 ) ;
#632 = ORIENTED_EDGE ( 'NONE', *, *, #539, .F. ) ;
#633 = SHAPE_DEFINITION_REPRESENTATION ( #172, #237 ) ;
#634 = VERTEX_POINT ( 'NONE', #379 ) ;
#635 = EDGE_CURVE ( 'NONE', #439, #288, #18, .T. ) ;
#636 = DIRECTION ( 'NONE',  ( -1.000000000000000000, 0.000000000000000000, -0.000000000000000000 ) ) ;
#637 = DATE_AND_TIME ( #685, #6 ) ;
#638 = LOCAL_TIME ( 15, 56, 47.00000000000000000, #417 ) ;
#639 = AXIS2_PLACEMENT_3D ( 'NONE', #200, #636, #425 ) ;
#640 = DIRECTION ( 'NONE',  ( -0.000000000000000000, -3.543401163330213920E-15, 1.000000000000000000 ) ) ;
#641 = PERSON_AND_ORGANIZATION ( #266, #170 ) ;
#642 = PLANE ( 'NONE',  #61 ) ;
#643 = ORIENTED_EDGE ( 'NONE', *, *, #509, .T. ) ;
#644 = DIRECTION ( 'NONE',  ( 0.000000000000000000, 0.000000000000000000, 1.000000000000000000 ) ) ;
#645 = EDGE_CURVE ( 'NONE', #151, #716, #157, .T. ) ;
#646 = FACE_BOUND ( 'NONE', #414, .T. ) ;
#647 = ORIENTED_EDGE ( 'NONE', *, *, #76, .F. ) ;
#648 = DIRECTION ( 'NONE',  ( -0.000000000000000000, 1.000000000000000000, 3.543401163330213920E-15 ) ) ;
#649 = PRODUCT_DEFINITION ( 'UNKNOWN', '', #597, #593 ) ;
#650 = DIRECTION ( 'NONE',  ( 0.000000000000000000, -3.902639990948948244E-15, 1.000000000000000000 ) ) ;
#651 = VECTOR ( 'NONE', #214, 39.37007874015748143 ) ;
#652 = CARTESIAN_POINT ( 'NONE',  ( 0.8449999999999999734, -0.1249999999999999029, -0.2200000000000000011 ) ) ;
#653 = ORIENTED_EDGE ( 'NONE', *, *, #227, .T. ) ;
#654 = CARTESIAN_POINT ( 'NONE',  ( 0.000000000000000000, 0.000000000000000000, 0.000000000000000000 ) ) ;
#655 = ORIENTED_EDGE ( 'NONE', *, *, #424, .T. ) ;
#656 = CARTESIAN_POINT ( 'NONE',  ( -1.124999999999999778, 0.6250000000000000000, -0.1249999999999995837 ) ) ;
#657 = FACE_BOUND ( 'NONE', #315, .T. ) ;
#658 = ADVANCED_FACE ( 'NONE', ( #145 ), #510, .F. ) ;
#659 = CARTESIAN_POINT ( 'NONE',  ( -1.125000000000000000, 0.6250000000000000000, -0.1049999999999999961 ) ) ;
#660 = ORIENTED_EDGE ( 'NONE', *, *, #10, .F. ) ;
#661 = LINE ( 'NONE', #211, #366 ) ;
#662 = DIRECTION ( 'NONE',  ( 0.000000000000000000, -3.252199992457457001E-15, 1.000000000000000000 ) ) ;
#663 = AXIS2_PLACEMENT_3D ( 'NONE', #715, #212, #503 ) ;
#664 = ORIENTED_EDGE ( 'NONE', *, *, #343, .T. ) ;
#665 = DIRECTION ( 'NONE',  ( -0.000000000000000000, -0.000000000000000000, 1.000000000000000000 ) ) ;
#666 = FACE_OUTER_BOUND ( 'NONE', #459, .T. ) ;
#667 = VERTEX_POINT ( 'NONE', #65 ) ;
#668 = EDGE_CURVE ( 'NONE', #202, #694, #487, .T. ) ;
#669 = PERSON_AND_ORGANIZATION_ROLE ( 'design_owner' ) ;
#670 = CARTESIAN_POINT ( 'NONE',  ( 1.285879139104722951E-17, 0.5200000000000032374, -1.024999999999999911 ) ) ;
#671 = EDGE_CURVE ( 'NONE', #694, #716, #346, .T. ) ;
#672 = EDGE_LOOP ( 'NONE', ( #199, #398, #655, #574 ) ) ;
#673 = COORDINATED_UNIVERSAL_TIME_OFFSET ( 6, 0, .BEHIND. ) ;
#674 = CARTESIAN_POINT ( 'NONE',  ( 1.125000000000000000, 0.4050000000000014144, -0.4900000000000009903 ) ) ;
#675 = APPROVAL_PERSON_ORGANIZATION ( #641, #447, #131 ) ;
#676 = EDGE_LOOP ( 'NONE', ( #230, #191, #95, #461 ) ) ;
#677 = DIRECTION ( 'NONE',  ( -0.7071067811865475727, -2.505562991055095038E-15, 0.7071067811865475727 ) ) ;
#678 = CARTESIAN_POINT ( 'NONE',  ( -1.000000000000000000, -0.1249999999999999445, 0.000000000000000000 ) ) ;
#679 = ORIENTED_EDGE ( 'NONE', *, *, #625, .T. ) ;
#680 = PRODUCT ( '11-B-9016-01-(12gacr ANSI-61) - K30 - V0-R0', '11-B-9016-01-(12gacr ANSI-61) - K30 - V0-R0', '', ( #722 ) ) ;
#681 = ORIENTED_EDGE ( 'NONE', *, *, #579, .F. ) ;
#682 = DIRECTION ( 'NONE',  ( -0.000000000000000000, 1.000000000000000000, 3.613946018757868503E-15 ) ) ;
#683 = EDGE_CURVE ( 'NONE', #439, #565, #236, .T. ) ;
#684 = CARTESIAN_POINT ( 'NONE',  ( 1.124999999999999778, 0.5000000000000001110, -0.1250000000000000278 ) ) ;
#685 = CALENDAR_DATE ( 2026, 19, 6 ) ;
#686 = CARTESIAN_POINT ( 'NONE',  ( 1.125000000000000000, 0.6250000000000014433, -0.4900000000000002132 ) ) ;
#687 = VERTEX_POINT ( 'NONE', #166 ) ;
#688 = CIRCLE ( 'NONE', #501, 0.1549999999999999989 ) ;
#689 = APPROVAL_DATE_TIME ( #419, #245 ) ;
#690 = AXIS2_PLACEMENT_3D ( 'NONE', #100, #271, #492 ) ;
#691 = ORIENTED_EDGE ( 'NONE', *, *, #600, .T. ) ;
#692 = EDGE_CURVE ( 'NONE', #486, #300, #228, .T. ) ;
#693 = EDGE_LOOP ( 'NONE', ( #337, #165, #630, #253 ) ) ;
#694 = VERTEX_POINT ( 'NONE', #561 ) ;
#695 = CARTESIAN_POINT ( 'NONE',  ( 0.6900000000000000577, -0.1249999999999998751, -0.2200000000000000011 ) ) ;
#696 = PERSON_AND_ORGANIZATION ( #266, #170 ) ;
#697 = APPROVAL_PERSON_ORGANIZATION ( #523, #189, #368 ) ;
#698 = DIRECTION ( 'NONE',  ( 0.000000000000000000, -3.543401163330213920E-15, 1.000000000000000000 ) ) ;
#699 = EDGE_LOOP ( 'NONE', ( #233, #470, #713, #410 ) ) ;
#700 = CIRCLE ( 'NONE', #221, 0.1549999999999999989 ) ;
#701 = CARTESIAN_POINT ( 'NONE',  ( -1.124999999999999778, 0.6250000000000014433, -0.4900000000000002132 ) ) ;
#702 = CARTESIAN_POINT ( 'NONE',  ( -1.125000000000000000, 0.5200000000000000178, -0.1249999999999999584 ) ) ;
#703 = CARTESIAN_POINT ( 'NONE',  ( 0.000000000000000000, 0.6249999999999996669, 2.581231267659911282E-15 ) ) ;
#704 = DIRECTION ( 'NONE',  ( 0.000000000000000000, 0.000000000000000000, 1.000000000000000000 ) ) ;
#705 = DIRECTION ( 'NONE',  ( 1.000000000000000000, 0.000000000000000000, 0.000000000000000000 ) ) ;
#706 = CARTESIAN_POINT ( 'NONE',  ( -1.124999999999999778, 0.5000000000000001110, -0.1250000000000000278 ) ) ;
#707 = AXIS2_PLACEMENT_3D ( 'NONE', #440, #383, #323 ) ;
#708 = ORIENTED_EDGE ( 'NONE', *, *, #204, .F. ) ;
#709 = CARTESIAN_POINT ( 'NONE',  ( 1.125000000000000000, 0.5199999999999996847, 2.214625727081382122E-15 ) ) ;
#710 = PLANE ( 'NONE',  #588 ) ;
#711 = ADVANCED_FACE ( 'NONE', ( #289 ), #115, .F. ) ;
#712 = PLANE ( 'NONE',  #589 ) ;
#713 = ORIENTED_EDGE ( 'NONE', *, *, #53, .F. ) ;
#714 = DIRECTION ( 'NONE',  ( 1.000000000000000000, 0.000000000000000000, 0.000000000000000000 ) ) ;
#715 = CARTESIAN_POINT ( 'NONE',  ( -0.8449999999999999734, -0.1249999999999999584, -0.2200000000000000011 ) ) ;
#716 = VERTEX_POINT ( 'NONE', #231 ) ;
#717 = PLANE ( 'NONE',  #34 ) ;
#718 = AXIS2_PLACEMENT_3D ( 'NONE', #291, #121, #296 ) ;
#719 = ADVANCED_FACE ( 'NONE', ( #514 ), #611, .F. ) ;
#720 = VECTOR ( 'NONE', #222, 39.37007874015748143 ) ;
#721 = EDGE_LOOP ( 'NONE', ( #618, #538 ) ) ;
#722 = MECHANICAL_CONTEXT ( 'NONE', #504, 'mechanical' ) ;
#723 = CYLINDRICAL_SURFACE ( 'NONE', #386, 0.1549999999999999989 ) ;
#724 = ORIENTED_EDGE ( 'NONE', *, *, #559, .T. ) ;
ENDSEC;
END-ISO-10303-21;
