ISO-10303-21;
HEADER;
FILE_DESCRIPTION (( 'STEP AP214' ),
    '1' );
FILE_NAME ('12-6355-02-(16gacr ANSI-61) - K48 - V2-R0.STEP',
    '2026-07-09T18:38:52',
    ( '' ),
    ( '' ),
    'SwSTEP 2.0',
    'SolidWorks 2024',
    '' );
FILE_SCHEMA (( 'AUTOMOTIVE_DESIGN' ));
ENDSEC;

DATA;
#1 = DIRECTION ( 'NONE',  ( 0.000000000000000000, 0.000000000000000000, -1.000000000000000000 ) ) ;
#2 = EDGE_CURVE ( 'NONE', #312, #667, #1135, .T. ) ;
#3 = ORIENTED_EDGE ( 'NONE', *, *, #846, .T. ) ;
#4 = DIRECTION ( 'NONE',  ( -0.000000000000000000, -1.000000000000000000, -0.000000000000000000 ) ) ;
#5 = DIRECTION ( 'NONE',  ( -1.000000000000000000, 3.302270170485006199E-31, 3.835990623682900600E-15 ) ) ;
#6 = CARTESIAN_POINT ( 'NONE',  ( -8.365000000000001990, -4.809999999999999609, -0.1200000000000000372 ) ) ;
#7 = ORIENTED_EDGE ( 'NONE', *, *, #1008, .F. ) ;
#8 = DIRECTION ( 'NONE',  ( -1.000000000000000000, -0.000000000000000000, 3.835990623682900600E-15 ) ) ;
#9 = AXIS2_PLACEMENT_3D ( 'NONE', #251, #882, #651 ) ;
#10 = AXIS2_PLACEMENT_3D ( 'NONE', #6, #558, #655 ) ;
#11 = CARTESIAN_POINT ( 'NONE',  ( -6.605000000000003091, -2.379999999999999893, 0.000000000000000000 ) ) ;
#12 = AXIS2_PLACEMENT_3D ( 'NONE', #1220, #168, #1224 ) ;
#13 = ORIENTED_EDGE ( 'NONE', *, *, #1153, .F. ) ;
#14 = CIRCLE ( 'NONE', #869, 0.09499999999999994560 ) ;
#15 = LINE ( 'NONE', #990, #343 ) ;
#16 = EDGE_CURVE ( 'NONE', #584, #1177, #1163, .T. ) ;
#17 = LINE ( 'NONE', #951, #33 ) ;
#18 = FACE_OUTER_BOUND ( 'NONE', #883, .T. ) ;
#19 = ORIENTED_EDGE ( 'NONE', *, *, #438, .F. ) ;
#20 = VERTEX_POINT ( 'NONE', #211 ) ;
#21 = DIRECTION ( 'NONE',  ( -0.000000000000000000, -0.000000000000000000, 1.000000000000000000 ) ) ;
#22 = DIRECTION ( 'NONE',  ( -1.000000000000000000, 0.000000000000000000, -0.000000000000000000 ) ) ;
#23 = EDGE_LOOP ( 'NONE', ( #545, #132, #226, #577 ) ) ;
#24 = EDGE_LOOP ( 'NONE', ( #315, #1273, #446, #1022 ) ) ;
#25 = CARTESIAN_POINT ( 'NONE',  ( -8.295000000000001705, -4.940000000000002167, -0.6300000000000002265 ) ) ;
#26 = CARTESIAN_POINT ( 'NONE',  ( -8.365000000000001990, -4.809999999999999609, -0.1200000000000000372 ) ) ;
#27 = ORIENTED_EDGE ( 'NONE', *, *, #566, .T. ) ;
#28 = CIRCLE ( 'NONE', #450, 0.1139999999999999347 ) ;
#29 = VECTOR ( 'NONE', #998, 39.37007874015748143 ) ;
#30 = ORIENTED_EDGE ( 'NONE', *, *, #821, .T. ) ;
#31 = VECTOR ( 'NONE', #963, 39.37007874015748143 ) ;
#32 = LINE ( 'NONE', #582, #806 ) ;
#33 = VECTOR ( 'NONE', #437, 39.37007874015748143 ) ;
#34 = CIRCLE ( 'NONE', #591, 0.1139999999999999347 ) ;
#35 = DIRECTION ( 'NONE',  ( 1.000000000000000000, -0.000000000000000000, 0.000000000000000000 ) ) ;
#36 = ORIENTED_EDGE ( 'NONE', *, *, #985, .T. ) ;
#37 = CARTESIAN_POINT ( 'NONE',  ( -7.829000000000002402, 0.000000000000000000, 0.000000000000000000 ) ) ;
#38 = ADVANCED_FACE ( 'NONE', ( #1051 ), #194, .F. ) ;
#39 = ORIENTED_EDGE ( 'NONE', *, *, #185, .T. ) ;
#40 = DIRECTION ( 'NONE',  ( -0.000000000000000000, -0.000000000000000000, 1.000000000000000000 ) ) ;
#41 = DIRECTION ( 'NONE',  ( 1.000000000000000000, 0.000000000000000000, 0.000000000000000000 ) ) ;
#42 = CARTESIAN_POINT ( 'NONE',  ( -6.491000000000003212, 2.380000000000000338, 0.000000000000000000 ) ) ;
#43 = ORIENTED_EDGE ( 'NONE', *, *, #1060, .F. ) ;
#44 = CARTESIAN_POINT ( 'NONE',  ( -8.294999999999998153, -4.880000000000000782, -0.1200000000000000372 ) ) ;
#45 = ADVANCED_FACE ( 'NONE', ( #626 ), #538, .F. ) ;
#46 = ORIENTED_EDGE ( 'NONE', *, *, #304, .T. ) ;
#47 = FACE_OUTER_BOUND ( 'NONE', #342, .T. ) ;
#48 = EDGE_CURVE ( 'NONE', #87, #316, #28, .T. ) ;
#49 = DIRECTION ( 'NONE',  ( -1.000000000000000000, 0.000000000000000000, -0.000000000000000000 ) ) ;
#50 = ORIENTED_EDGE ( 'NONE', *, *, #119, .F. ) ;
#51 = CARTESIAN_POINT ( 'NONE',  ( -8.295000000000001705, 4.880000000000000782, -0.05999999999999999778 ) ) ;
#52 = VERTEX_POINT ( 'NONE', #1141 ) ;
#53 = DIRECTION ( 'NONE',  ( 1.000000000000000000, 0.000000000000000000, 0.000000000000000000 ) ) ;
#54 = EDGE_CURVE ( 'NONE', #308, #196, #852, .T. ) ;
#55 = VECTOR ( 'NONE', #35, 39.37007874015748143 ) ;
#56 = CARTESIAN_POINT ( 'NONE',  ( -6.719000000000002970, -2.379999999999999893, -0.6300393700787404461 ) ) ;
#57 = ORIENTED_EDGE ( 'NONE', *, *, #1112, .T. ) ;
#58 = DIRECTION ( 'NONE',  ( 0.000000000000000000, 0.000000000000000000, 1.000000000000000000 ) ) ;
#59 = ORIENTED_EDGE ( 'NONE', *, *, #1248, .T. ) ;
#60 = DIRECTION ( 'NONE',  ( -0.000000000000000000, -0.000000000000000000, 1.000000000000000000 ) ) ;
#61 = FACE_OUTER_BOUND ( 'NONE', #78, .T. ) ;
#62 = ADVANCED_FACE ( 'NONE', ( #1236 ), #1266, .F. ) ;
#63 = CARTESIAN_POINT ( 'NONE',  ( -8.294999999999998153, -4.880000000000000782, -0.1200000000000000372 ) ) ;
#64 = ORIENTED_EDGE ( 'NONE', *, *, #805, .T. ) ;
#65 = LINE ( 'NONE', #80, #1258 ) ;
#66 = DIRECTION ( 'NONE',  ( -0.000000000000000000, -0.000000000000000000, 1.000000000000000000 ) ) ;
#67 = DIRECTION ( 'NONE',  ( -0.000000000000000000, -0.000000000000000000, 1.000000000000000000 ) ) ;
#68 = ADVANCED_FACE ( 'NONE', ( #1059 ), #549, .F. ) ;
#69 = ORIENTED_EDGE ( 'NONE', *, *, #1312, .T. ) ;
#70 = DIRECTION ( 'NONE',  ( 0.000000000000000000, -1.000000000000000000, -3.834172622686683600E-15 ) ) ;
#71 = PLANE ( 'NONE',  #798 ) ;
#72 = CARTESIAN_POINT ( 'NONE',  ( 8.269999999999996021, 3.500000000000000444, 0.000000000000000000 ) ) ;
#73 = VECTOR ( 'NONE', #1246, 39.37007874015748143 ) ;
#74 = AXIS2_PLACEMENT_3D ( 'NONE', #1270, #349, #335 ) ;
#75 = LINE ( 'NONE', #920, #496 ) ;
#76 = CIRCLE ( 'NONE', #1067, 0.1139999999999999347 ) ;
#77 = LINE ( 'NONE', #176, #904 ) ;
#78 = EDGE_LOOP ( 'NONE', ( #1334, #359, #747, #559 ) ) ;
#79 = EDGE_CURVE ( 'NONE', #196, #244, #405, .T. ) ;
#80 = CARTESIAN_POINT ( 'NONE',  ( -8.295000000000001705, 5.000000000000000000, -0.05999999999999999778 ) ) ;
#81 = EDGE_LOOP ( 'NONE', ( #148, #1018, #1267, #1156 ) ) ;
#82 = CARTESIAN_POINT ( 'NONE',  ( -8.365000000000001990, 4.809999999999999609, -0.06000000000000012962 ) ) ;
#83 = LINE ( 'NONE', #815, #410 ) ;
#84 = ORIENTED_EDGE ( 'NONE', *, *, #195, .T. ) ;
#85 = ADVANCED_FACE ( 'NONE', ( #1240 ), #526, .F. ) ;
#86 = CARTESIAN_POINT ( 'NONE',  ( -8.294999999999998153, -4.880000000000000782, -1.195183497228115035E-16 ) ) ;
#87 = VERTEX_POINT ( 'NONE', #1138 ) ;
#88 = EDGE_CURVE ( 'NONE', #614, #922, #627, .T. ) ;
#89 = CARTESIAN_POINT ( 'NONE',  ( -6.605000000000003091, 2.380000000000000338, 0.000000000000000000 ) ) ;
#90 = CARTESIAN_POINT ( 'NONE',  ( -8.485000000000001208, -4.809999999999999609, -0.1199999999999995792 ) ) ;
#91 = CARTESIAN_POINT ( 'NONE',  ( -7.985000000000002096, 0.000000000000000000, -0.6300393700787404461 ) ) ;
#92 = EDGE_LOOP ( 'NONE', ( #230, #568, #787, #440 ) ) ;
#93 = DIRECTION ( 'NONE',  ( -1.000000000000000000, -0.000000000000000000, -0.000000000000000000 ) ) ;
#94 = ADVANCED_FACE ( 'NONE', ( #1329 ), #197, .T. ) ;
#95 = LINE ( 'NONE', #710, #520 ) ;
#96 = CARTESIAN_POINT ( 'NONE',  ( -8.365000000000001990, 4.809999999999999609, -0.1200000000000000372 ) ) ;
#97 = AXIS2_PLACEMENT_3D ( 'NONE', #313, #190, #719 ) ;
#98 = CIRCLE ( 'NONE', #523, 0.1199999999999999123 ) ;
#99 = EDGE_LOOP ( 'NONE', ( #508, #853, #84, #588 ) ) ;
#100 = CARTESIAN_POINT ( 'NONE',  ( 8.484999999999995879, 4.880000000000000782, -0.1200000000000000372 ) ) ;
#101 = CARTESIAN_POINT ( 'NONE',  ( 8.174999999999997158, 3.500000000000000444, 0.000000000000000000 ) ) ;
#102 = ADVANCED_FACE ( 'NONE', ( #517 ), #932, .F. ) ;
#103 = CARTESIAN_POINT ( 'NONE',  ( -8.485000000000001208, 4.810000000000000497, -0.05999999999999999778 ) ) ;
#104 = ORIENTED_EDGE ( 'NONE', *, *, #1335, .T. ) ;
#105 = FACE_OUTER_BOUND ( 'NONE', #189, .T. ) ;
#106 = LINE ( 'NONE', #660, #279 ) ;
#107 = CYLINDRICAL_SURFACE ( 'NONE', #232, 0.1139999999999999347 ) ;
#108 = DIRECTION ( 'NONE',  ( -1.000000000000000000, 0.000000000000000000, 0.000000000000000000 ) ) ;
#109 = DIRECTION ( 'NONE',  ( 0.000000000000000000, 0.000000000000000000, -1.000000000000000000 ) ) ;
#110 = ORIENTED_EDGE ( 'NONE', *, *, #283, .T. ) ;
#111 = DIRECTION ( 'NONE',  ( -0.000000000000000000, -0.000000000000000000, 1.000000000000000000 ) ) ;
#112 = DIRECTION ( 'NONE',  ( -0.000000000000000000, -0.000000000000000000, 1.000000000000000000 ) ) ;
#113 = LINE ( 'NONE', #238, #344 ) ;
#114 = ORIENTED_EDGE ( 'NONE', *, *, #1153, .T. ) ;
#115 = LINE ( 'NONE', #546, #139 ) ;
#116 = VECTOR ( 'NONE', #799, 39.37007874015748143 ) ;
#117 = ORIENTED_EDGE ( 'NONE', *, *, #403, .F. ) ;
#118 = VECTOR ( 'NONE', #443, 39.37007874015748143 ) ;
#119 = EDGE_CURVE ( 'NONE', #1355, #196, #840, .T. ) ;
#120 = ORIENTED_EDGE ( 'NONE', *, *, #762, .T. ) ;
#121 = PRODUCT_DEFINITION_FORMATION_WITH_SPECIFIED_SOURCE ( 'ANY', '', #578, .NOT_KNOWN. ) ;
#122 = DIRECTION ( 'NONE',  ( 0.000000000000000000, 1.000000000000000000, 0.000000000000000000 ) ) ;
#123 = CARTESIAN_POINT ( 'NONE',  ( -7.829000000000002402, 0.000000000000000000, -0.05999999999999997696 ) ) ;
#124 = DIRECTION ( 'NONE',  ( 1.000000000000000000, 0.000000000000000000, 0.000000000000000000 ) ) ;
#125 = FACE_BOUND ( 'NONE', #716, .T. ) ;
#126 = ORIENTED_EDGE ( 'NONE', *, *, #876, .T. ) ;
#127 =( LENGTH_UNIT ( ) NAMED_UNIT ( * ) SI_UNIT ( $, .METRE. ) );
#128 = ORIENTED_EDGE ( 'NONE', *, *, #235, .F. ) ;
#129 = CARTESIAN_POINT ( 'NONE',  ( 0.000000000000000000, 5.000000000000002665, -0.6300000000000000044 ) ) ;
#130 = ADVANCED_FACE ( 'NONE', ( #1151 ), #71, .F. ) ;
#131 = CARTESIAN_POINT ( 'NONE',  ( -8.485000000000001208, 4.809999999999999609, -0.1199999999999995931 ) ) ;
#132 = ORIENTED_EDGE ( 'NONE', *, *, #463, .T. ) ;
#133 = ORIENTED_EDGE ( 'NONE', *, *, #876, .F. ) ;
#134 = LINE ( 'NONE', #899, #829 ) ;
#135 = CARTESIAN_POINT ( 'NONE',  ( 8.484999999999995879, 5.000000000000002665, -0.6300000000000000044 ) ) ;
#136 = EDGE_CURVE ( 'NONE', #722, #874, #260, .T. ) ;
#137 = ORIENTED_EDGE ( 'NONE', *, *, #292, .T. ) ;
#138 = AXIS2_PLACEMENT_3D ( 'NONE', #265, #502, #914 ) ;
#139 = VECTOR ( 'NONE', #514, 39.37007874015748143 ) ;
#140 = ORIENTED_EDGE ( 'NONE', *, *, #1345, .T. ) ;
#141 = VECTOR ( 'NONE', #751, 39.37007874015748143 ) ;
#142 = DIRECTION ( 'NONE',  ( 1.000000000000000000, -0.000000000000000000, -0.000000000000000000 ) ) ;
#143 = CARTESIAN_POINT ( 'NONE',  ( -8.295000000000001705, -4.810000000000000497, -0.05999999999999999778 ) ) ;
#144 = EDGE_LOOP ( 'NONE', ( #555, #1074 ) ) ;
#145 = ADVANCED_FACE ( 'NONE', ( #105 ), #675, .T. ) ;
#146 = DIRECTION ( 'NONE',  ( -0.000000000000000000, 0.000000000000000000, 1.000000000000000000 ) ) ;
#147 = EDGE_CURVE ( 'NONE', #898, #945, #606, .T. ) ;
#148 = ORIENTED_EDGE ( 'NONE', *, *, #259, .F. ) ;
#149 = DIRECTION ( 'NONE',  ( -1.000000000000000000, 0.000000000000000000, -0.000000000000000000 ) ) ;
#150 = DIRECTION ( 'NONE',  ( 3.834172622686683600E-15, -3.834172622686683600E-15, 1.000000000000000000 ) ) ;
#151 = EDGE_LOOP ( 'NONE', ( #817, #600 ) ) ;
#152 = DIRECTION ( 'NONE',  ( 1.000000000000000000, 0.000000000000000000, 0.000000000000000000 ) ) ;
#153 = ORIENTED_EDGE ( 'NONE', *, *, #746, .F. ) ;
#154 = EDGE_CURVE ( 'NONE', #1069, #614, #942, .T. ) ;
#155 = DIRECTION ( 'NONE',  ( -1.000000000000000000, 0.000000000000000000, 0.000000000000000000 ) ) ;
#156 = LINE ( 'NONE', #769, #931 ) ;
#157 = ORIENTED_EDGE ( 'NONE', *, *, #423, .T. ) ;
#158 = FACE_OUTER_BOUND ( 'NONE', #809, .T. ) ;
#159 = ORIENTED_EDGE ( 'NONE', *, *, #1305, .F. ) ;
#160 = DIRECTION ( 'NONE',  ( -5.751258934030031316E-15, 1.000000000000000000, 0.000000000000000000 ) ) ;
#161 = AXIS2_PLACEMENT_3D ( 'NONE', #200, #1162, #223 ) ;
#162 = CIRCLE ( 'NONE', #1107, 0.05999999999999990757 ) ;
#163 = DIRECTION ( 'NONE',  ( -3.111507638930571544E-61, 1.000000000000000000, -3.491481338843134539E-15 ) ) ;
#164 = ORIENTED_EDGE ( 'NONE', *, *, #1094, .T. ) ;
#165 = CARTESIAN_POINT ( 'NONE',  ( -8.295000000000003482, 5.000000000000002665, -0.6300000000000000044 ) ) ;
#166 = ORIENTED_EDGE ( 'NONE', *, *, #372, .F. ) ;
#167 = DIRECTION ( 'NONE',  ( 0.000000000000000000, 0.000000000000000000, 1.000000000000000000 ) ) ;
#168 = DIRECTION ( 'NONE',  ( -0.000000000000000000, -0.000000000000000000, 1.000000000000000000 ) ) ;
#169 = EDGE_CURVE ( 'NONE', #957, #234, #15, .T. ) ;
#170 = LINE ( 'NONE', #599, #1082 ) ;
#171 = EDGE_LOOP ( 'NONE', ( #581, #1095 ) ) ;
#172 = DIRECTION ( 'NONE',  ( 0.000000000000000000, 1.000000000000000000, -3.834172622686683600E-15 ) ) ;
#173 = CARTESIAN_POINT ( 'NONE',  ( 8.484999999999995879, -5.000000000000000000, -0.1199999999999995792 ) ) ;
#174 = DIRECTION ( 'NONE',  ( 1.000000000000000000, 0.000000000000000000, 0.000000000000000000 ) ) ;
#175 = EDGE_CURVE ( 'NONE', #689, #258, #1063, .T. ) ;
#176 = CARTESIAN_POINT ( 'NONE',  ( 8.484999999999997655, 4.880000000000000782, -1.195183497228115035E-16 ) ) ;
#177 = VERTEX_POINT ( 'NONE', #37 ) ;
#178 = CARTESIAN_POINT ( 'NONE',  ( 8.484999999999994102, -4.880000000000000782, -0.06000000000000012962 ) ) ;
#179 = VECTOR ( 'NONE', #928, 39.37007874015748143 ) ;
#180 = DIRECTION ( 'NONE',  ( 0.000000000000000000, 0.000000000000000000, 1.000000000000000000 ) ) ;
#181 = AXIS2_PLACEMENT_3D ( 'NONE', #727, #291, #199 ) ;
#182 = VECTOR ( 'NONE', #21, 39.37007874015748143 ) ;
#183 = FACE_OUTER_BOUND ( 'NONE', #617, .T. ) ;
#184 = DIRECTION ( 'NONE',  ( 1.000000000000000000, 0.000000000000000000, 0.000000000000000000 ) ) ;
#185 = EDGE_CURVE ( 'NONE', #339, #917, #1202, .T. ) ;
#186 = ORIENTED_EDGE ( 'NONE', *, *, #1293, .T. ) ;
#187 = ADVANCED_FACE ( 'NONE', ( #1196 ), #1087, .F. ) ;
#188 = CARTESIAN_POINT ( 'NONE',  ( 8.174999999999997158, -3.500000000000000444, 0.000000000000000000 ) ) ;
#189 = EDGE_LOOP ( 'NONE', ( #159, #467, #1062, #595 ) ) ;
#190 = DIRECTION ( 'NONE',  ( -1.000000000000000000, -1.338694216201379284E-29, 3.834172622686683600E-15 ) ) ;
#191 = DIRECTION ( 'NONE',  ( -0.000000000000000000, -0.000000000000000000, 1.000000000000000000 ) ) ;
#192 = LINE ( 'NONE', #641, #1212 ) ;
#193 = PRODUCT_DEFINITION_CONTEXT ( 'detailed design', #919, 'design' ) ;
#194 = PLANE ( 'NONE',  #757 ) ;
#195 = EDGE_CURVE ( 'NONE', #642, #1298, #325, .T. ) ;
#196 = VERTEX_POINT ( 'NONE', #983 ) ;
#197 = CYLINDRICAL_SURFACE ( 'NONE', #474, 0.1199999999999998151 ) ;
#198 = DIRECTION ( 'NONE',  ( -1.000000000000000000, 0.000000000000000000, 0.000000000000000000 ) ) ;
#199 = DIRECTION ( 'NONE',  ( -1.000000000000000000, 0.000000000000000000, 0.000000000000000000 ) ) ;
#200 = CARTESIAN_POINT ( 'NONE',  ( 8.484999999999994102, -4.880000000000000782, -0.1200000000000000372 ) ) ;
#201 = DIRECTION ( 'NONE',  ( -1.000000000000000000, -0.000000000000000000, -0.000000000000000000 ) ) ;
#202 = VERTEX_POINT ( 'NONE', #51 ) ;
#203 = EDGE_CURVE ( 'NONE', #968, #689, #205, .T. ) ;
#204 = CARTESIAN_POINT ( 'NONE',  ( -8.141000000000001791, 1.910449006669872936E-17, -0.6300393700787404461 ) ) ;
#205 = CIRCLE ( 'NONE', #1125, 0.1139999999999999347 ) ;
#206 = VECTOR ( 'NONE', #441, 39.37007874015748143 ) ;
#207 = DIRECTION ( 'NONE',  ( 0.000000000000000000, 0.000000000000000000, 1.000000000000000000 ) ) ;
#208 = CARTESIAN_POINT ( 'NONE',  ( -8.295000000000003482, 5.000000000000000000, -0.1199999999999995931 ) ) ;
#209 = AXIS2_PLACEMENT_3D ( 'NONE', #570, #880, #49 ) ;
#210 = CIRCLE ( 'NONE', #975, 0.09499999999999994560 ) ;
#211 = CARTESIAN_POINT ( 'NONE',  ( -8.141000000000001791, 1.910449006669872628E-17, 0.000000000000000000 ) ) ;
#212 = VECTOR ( 'NONE', #1223, 39.37007874015748143 ) ;
#213 = VERTEX_POINT ( 'NONE', #1259 ) ;
#214 = LINE ( 'NONE', #1152, #1214 ) ;
#215 = FACE_OUTER_BOUND ( 'NONE', #491, .T. ) ;
#216 = EDGE_CURVE ( 'NONE', #703, #213, #563, .T. ) ;
#217 = CARTESIAN_POINT ( 'NONE',  ( -8.295000000000001705, 5.000000000000000000, -0.06003937007874015491 ) ) ;
#218 = ORIENTED_EDGE ( 'NONE', *, *, #539, .F. ) ;
#219 = DIRECTION ( 'NONE',  ( 1.000000000000000000, 0.000000000000000000, -3.834172622686683600E-15 ) ) ;
#220 = LINE ( 'NONE', #938, #31 ) ;
#221 = DIRECTION ( 'NONE',  ( 1.000000000000000000, 0.000000000000000000, 0.000000000000000000 ) ) ;
#222 = ORIENTED_EDGE ( 'NONE', *, *, #505, .T. ) ;
#223 = DIRECTION ( 'NONE',  ( -0.000000000000000000, 0.000000000000000000, -1.000000000000000000 ) ) ;
#224 = ADVANCED_FACE ( 'NONE', ( #1290 ), #854, .F. ) ;
#225 = DIRECTION ( 'NONE',  ( 0.000000000000000000, 0.000000000000000000, 1.000000000000000000 ) ) ;
#226 = ORIENTED_EDGE ( 'NONE', *, *, #788, .F. ) ;
#227 = DIRECTION ( 'NONE',  ( 0.000000000000000000, 1.000000000000000000, 0.000000000000000000 ) ) ;
#228 = LINE ( 'NONE', #652, #1083 ) ;
#229 = FACE_BOUND ( 'NONE', #434, .T. ) ;
#230 = ORIENTED_EDGE ( 'NONE', *, *, #870, .F. ) ;
#231 = AXIS2_PLACEMENT_3D ( 'NONE', #100, #1356, #408 ) ;
#232 = AXIS2_PLACEMENT_3D ( 'NONE', #1275, #861, #639 ) ;
#233 = EDGE_CURVE ( 'NONE', #703, #87, #977, .T. ) ;
#234 = VERTEX_POINT ( 'NONE', #1188 ) ;
#235 = EDGE_CURVE ( 'NONE', #707, #922, #1268, .T. ) ;
#236 = AXIS2_PLACEMENT_3D ( 'NONE', #1205, #763, #268 ) ;
#237 = LINE ( 'NONE', #1047, #1020 ) ;
#238 = CARTESIAN_POINT ( 'NONE',  ( -8.485000000000004761, 4.809999999999999609, -0.6300000000000000044 ) ) ;
#239 = VERTEX_POINT ( 'NONE', #461 ) ;
#240 = ORIENTED_EDGE ( 'NONE', *, *, #154, .F. ) ;
#241 = EDGE_CURVE ( 'NONE', #1105, #667, #875, .T. ) ;
#242 = CARTESIAN_POINT ( 'NONE',  ( -8.295000000000001705, 4.880000000000000782, -0.1200000000000000372 ) ) ;
#243 = CARTESIAN_POINT ( 'NONE',  ( -8.295000000000001705, 5.000000000000000000, -0.1199999999999995792 ) ) ;
#244 = VERTEX_POINT ( 'NONE', #293 ) ;
#245 = ORIENTED_EDGE ( 'NONE', *, *, #886, .F. ) ;
#246 = CYLINDRICAL_SURFACE ( 'NONE', #236, 0.09499999999999994560 ) ;
#247 = ADVANCED_FACE ( 'NONE', ( #897 ), #706, .F. ) ;
#248 = LINE ( 'NONE', #466, #55 ) ;
#249 = VERTEX_POINT ( 'NONE', #271 ) ;
#250 = EDGE_CURVE ( 'NONE', #922, #962, #77, .T. ) ;
#251 = CARTESIAN_POINT ( 'NONE',  ( 8.174999999999997158, -3.500000000000000444, -0.05999999999999997696 ) ) ;
#252 = AXIS2_PLACEMENT_3D ( 'NONE', #217, #620, #109 ) ;
#253 = STYLED_ITEM ( 'NONE', ( #1169 ), #525 ) ;
#254 = EDGE_LOOP ( 'NONE', ( #844, #724 ) ) ;
#255 = VECTOR ( 'NONE', #1295, 39.37007874015748143 ) ;
#256 = CARTESIAN_POINT ( 'NONE',  ( 8.484999999999994102, -5.000000000000000000, -0.1199999999999995931 ) ) ;
#257 = CARTESIAN_POINT ( 'NONE',  ( -8.425000000000002487, 0.000000000000000000, 3.253295470349651806E-14 ) ) ;
#258 = VERTEX_POINT ( 'NONE', #285 ) ;
#259 = EDGE_CURVE ( 'NONE', #689, #968, #927, .T. ) ;
#260 = LINE ( 'NONE', #949, #653 ) ;
#261 = EDGE_LOOP ( 'NONE', ( #350, #1217, #69, #1032 ) ) ;
#262 = PLANE ( 'NONE',  #739 ) ;
#263 = DIRECTION ( 'NONE',  ( -0.000000000000000000, -0.000000000000000000, 1.000000000000000000 ) ) ;
#264 = ORIENTED_EDGE ( 'NONE', *, *, #481, .T. ) ;
#265 = CARTESIAN_POINT ( 'NONE',  ( -8.485000000000001208, 4.810000000000000497, -0.06003937007874015491 ) ) ;
#266 = ADVANCED_FACE ( 'NONE', ( #613 ), #1099, .F. ) ;
#267 = EDGE_LOOP ( 'NONE', ( #503, #1242, #1182, #418 ) ) ;
#268 = DIRECTION ( 'NONE',  ( 1.000000000000000000, 0.000000000000000000, 0.000000000000000000 ) ) ;
#269 = DIRECTION ( 'NONE',  ( -3.834172622686683600E-15, 0.000000000000000000, -1.000000000000000000 ) ) ;
#270 = ORIENTED_EDGE ( 'NONE', *, *, #605, .T. ) ;
#271 = CARTESIAN_POINT ( 'NONE',  ( -8.141000000000001791, 1.910449006669872628E-17, -0.05999999999999997696 ) ) ;
#272 = AXIS2_PLACEMENT_3D ( 'NONE', #534, #374, #146 ) ;
#273 = ORIENTED_EDGE ( 'NONE', *, *, #235, .T. ) ;
#274 = AXIS2_PLACEMENT_3D ( 'NONE', #91, #413, #956 ) ;
#275 = CARTESIAN_POINT ( 'NONE',  ( -8.425000000000002487, 4.809999999999999609, -0.1199999999999998151 ) ) ;
#276 = AXIS2_PLACEMENT_3D ( 'NONE', #720, #191, #842 ) ;
#277 = AXIS2_PLACEMENT_3D ( 'NONE', #535, #756, #557 ) ;
#278 = CARTESIAN_POINT ( 'NONE',  ( -8.294999999999998153, -4.880000000000000782, -0.1200000000000000372 ) ) ;
#279 = VECTOR ( 'NONE', #5, 39.37007874015748143 ) ;
#280 = DIRECTION ( 'NONE',  ( 0.000000000000000000, 1.000000000000000000, 3.841661241090376129E-15 ) ) ;
#281 = EDGE_LOOP ( 'NONE', ( #730, #1025, #988, #407 ) ) ;
#282 = CARTESIAN_POINT ( 'NONE',  ( 8.174999999999995381, 0.000000000000000000, -0.05999999999999997696 ) ) ;
#283 = EDGE_CURVE ( 'NONE', #1088, #177, #585, .T. ) ;
#284 = PLANE ( 'NONE',  #97 ) ;
#285 = CARTESIAN_POINT ( 'NONE',  ( -6.719000000000002970, 2.380000000000000338, 0.000000000000000000 ) ) ;
#286 = ORIENTED_EDGE ( 'NONE', *, *, #965, .T. ) ;
#287 = DIMENSIONAL_EXPONENTS ( 1.000000000000000000, 0.000000000000000000, 0.000000000000000000, 0.000000000000000000, 0.000000000000000000, 0.000000000000000000, 0.000000000000000000 ) ;
#288 = CARTESIAN_POINT ( 'NONE',  ( 8.484999999999994102, -4.940000000000002167, -0.6300000000000002265 ) ) ;
#289 = FACE_OUTER_BOUND ( 'NONE', #324, .T. ) ;
#290 = EDGE_CURVE ( 'NONE', #889, #858, #398, .T. ) ;
#291 = DIRECTION ( 'NONE',  ( -0.000000000000000000, -0.000000000000000000, 1.000000000000000000 ) ) ;
#292 = EDGE_CURVE ( 'NONE', #451, #1355, #604, .T. ) ;
#293 = CARTESIAN_POINT ( 'NONE',  ( -8.425000000000002487, -4.809999999999999609, -0.1199999999999998151 ) ) ;
#294 = ORIENTED_EDGE ( 'NONE', *, *, #381, .T. ) ;
#295 = LINE ( 'NONE', #1116, #212 ) ;
#296 = EDGE_LOOP ( 'NONE', ( #1044, #961, #311, #996 ) ) ;
#297 = VECTOR ( 'NONE', #331, 39.37007874015748143 ) ;
#298 = LINE ( 'NONE', #82, #411 ) ;
#299 = CIRCLE ( 'NONE', #475, 0.1560000000000001941 ) ;
#300 = VECTOR ( 'NONE', #623, 39.37007874015748143 ) ;
#301 = CYLINDRICAL_SURFACE ( 'NONE', #276, 0.1560000000000001941 ) ;
#302 = AXIS2_PLACEMENT_3D ( 'NONE', #575, #471, #1315 ) ;
#303 = LINE ( 'NONE', #422, #1172 ) ;
#304 = EDGE_CURVE ( 'NONE', #784, #1161, #83, .T. ) ;
#305 = CARTESIAN_POINT ( 'NONE',  ( -8.425000000000002487, -4.809999999999999609, -0.06000000000000001860 ) ) ;
#306 = EDGE_LOOP ( 'NONE', ( #1229, #1342, #892, #104 ) ) ;
#307 = LINE ( 'NONE', #725, #828 ) ;
#308 = VERTEX_POINT ( 'NONE', #1317 ) ;
#309 = LINE ( 'NONE', #208, #608 ) ;
#310 = UNCERTAINTY_MEASURE_WITH_UNIT (LENGTH_MEASURE( 1.000000000000000082E-05 ), #400, 'distance_accuracy_value', 'NONE');
#311 = ORIENTED_EDGE ( 'NONE', *, *, #958, .F. ) ;
#312 = VERTEX_POINT ( 'NONE', #509 ) ;
#313 = CARTESIAN_POINT ( 'NONE',  ( 8.484999999999995879, 5.000000000000002665, -0.6300000000000000044 ) ) ;
#314 = DIRECTION ( 'NONE',  ( 3.834172622686683600E-15, 0.000000000000000000, 1.000000000000000000 ) ) ;
#315 = ORIENTED_EDGE ( 'NONE', *, *, #1271, .F. ) ;
#316 = VERTEX_POINT ( 'NONE', #1226 ) ;
#317 = DIRECTION ( 'NONE',  ( 1.000000000000000000, 0.000000000000000000, -3.491481338843134539E-15 ) ) ;
#318 = EDGE_CURVE ( 'NONE', #323, #486, #1215, .T. ) ;
#319 = DIRECTION ( 'NONE',  ( 1.000000000000000000, -0.000000000000000000, -0.000000000000000000 ) ) ;
#320 = CIRCLE ( 'NONE', #366, 0.09499999999999994560 ) ;
#321 = DIRECTION ( 'NONE',  ( 0.000000000000000000, 1.000000000000000000, 0.000000000000000000 ) ) ;
#322 = CIRCLE ( 'NONE', #499, 0.09499999999999994560 ) ;
#323 = VERTEX_POINT ( 'NONE', #165 ) ;
#324 = EDGE_LOOP ( 'NONE', ( #240, #264, #1292, #1222 ) ) ;
#325 = LINE ( 'NONE', #435, #823 ) ;
#326 = LINE ( 'NONE', #630, #907 ) ;
#327 = ADVANCED_FACE ( 'NONE', ( #158 ), #594, .T. ) ;
#328 = CARTESIAN_POINT ( 'NONE',  ( 8.484999999999994102, -4.880000000000000782, -0.1200000000000000372 ) ) ;
#329 = EDGE_LOOP ( 'NONE', ( #864, #948, #59, #1238 ) ) ;
#330 = DIRECTION ( 'NONE',  ( -3.834172622686683600E-15, -3.834172622686683600E-15, -1.000000000000000000 ) ) ;
#331 = DIRECTION ( 'NONE',  ( -0.000000000000000000, -1.000000000000000000, -0.000000000000000000 ) ) ;
#332 = ORIENTED_EDGE ( 'NONE', *, *, #895, .T. ) ;
#333 = CARTESIAN_POINT ( 'NONE',  ( 8.484999999999997655, -5.000000000000000000, 0.000000000000000000 ) ) ;
#334 = DIRECTION ( 'NONE',  ( 0.000000000000000000, 3.834172622686683600E-15, -1.000000000000000000 ) ) ;
#335 = DIRECTION ( 'NONE',  ( 0.000000000000000000, 1.000000000000000000, 3.699377491420362432E-15 ) ) ;
#336 = EDGE_CURVE ( 'NONE', #643, #584, #1024, .T. ) ;
#337 = ORIENTED_EDGE ( 'NONE', *, *, #935, .T. ) ;
#338 = EDGE_CURVE ( 'NONE', #574, #52, #695, .T. ) ;
#339 = VERTEX_POINT ( 'NONE', #822 ) ;
#340 = LINE ( 'NONE', #542, #118 ) ;
#341 = CARTESIAN_POINT ( 'NONE',  ( -8.485000000000001208, -4.809999999999999609, -0.05999999999999978961 ) ) ;
#342 = EDGE_LOOP ( 'NONE', ( #473, #13, #1005, #57 ) ) ;
#343 = VECTOR ( 'NONE', #468, 39.37007874015748143 ) ;
#344 = VECTOR ( 'NONE', #536, 39.37007874015748143 ) ;
#345 = EDGE_CURVE ( 'NONE', #401, #1131, #970, .T. ) ;
#346 = VECTOR ( 'NONE', #150, 39.37007874015748143 ) ;
#347 = ORIENTED_EDGE ( 'NONE', *, *, #1077, .T. ) ;
#348 = DIRECTION ( 'NONE',  ( 0.000000000000000000, -1.000000000000000000, -3.834172622686683600E-15 ) ) ;
#349 = DIRECTION ( 'NONE',  ( 1.000000000000000000, 0.000000000000000000, 0.000000000000000000 ) ) ;
#350 = ORIENTED_EDGE ( 'NONE', *, *, #147, .F. ) ;
#351 = UNCERTAINTY_MEASURE_WITH_UNIT (LENGTH_MEASURE( 1.000000000000000082E-05 ), #884, 'distance_accuracy_value', 'NONE');
#352 = EDGE_CURVE ( 'NONE', #945, #1171, #170, .T. ) ;
#353 = EDGE_LOOP ( 'NONE', ( #1085, #50, #677, #1255 ) ) ;
#354 = DIRECTION ( 'NONE',  ( 1.000000000000000000, 0.000000000000000000, 0.000000000000000000 ) ) ;
#355 = DIRECTION ( 'NONE',  ( -0.000000000000000000, 1.000000000000000000, 0.000000000000000000 ) ) ;
#356 = ORIENTED_EDGE ( 'NONE', *, *, #338, .F. ) ;
#357 = CARTESIAN_POINT ( 'NONE',  ( -8.485000000000001208, 0.000000000000000000, 3.274244358382710480E-14 ) ) ;
#358 = DIRECTION ( 'NONE',  ( 0.000000000000000000, 0.000000000000000000, 1.000000000000000000 ) ) ;
#359 = ORIENTED_EDGE ( 'NONE', *, *, #821, .F. ) ;
#360 = DIRECTION ( 'NONE',  ( -0.000000000000000000, -0.000000000000000000, 1.000000000000000000 ) ) ;
#361 = ADVANCED_FACE ( 'NONE', ( #493 ), #392, .F. ) ;
#362 = FACE_OUTER_BOUND ( 'NONE', #835, .T. ) ;
#363 = ORIENTED_EDGE ( 'NONE', *, *, #925, .T. ) ;
#364 = DIRECTION ( 'NONE',  ( 0.000000000000000000, 0.000000000000000000, 1.000000000000000000 ) ) ;
#365 = AXIS2_PLACEMENT_3D ( 'NONE', #1031, #749, #648 ) ;
#366 = AXIS2_PLACEMENT_3D ( 'NONE', #1244, #207, #1325 ) ;
#367 = ORIENTED_EDGE ( 'NONE', *, *, #48, .F. ) ;
#368 = VECTOR ( 'NONE', #1243, 39.37007874015748143 ) ;
#369 = CARTESIAN_POINT ( 'NONE',  ( 8.269999999999996021, -3.500000000000000444, 0.000000000000000000 ) ) ;
#370 = CIRCLE ( 'NONE', #1086, 0.09499999999999994560 ) ;
#371 = DIRECTION ( 'NONE',  ( 0.000000000000000000, 0.000000000000000000, 1.000000000000000000 ) ) ;
#372 = EDGE_CURVE ( 'NONE', #1037, #1304, #303, .T. ) ;
#373 = ORIENTED_EDGE ( 'NONE', *, *, #1305, .T. ) ;
#374 = DIRECTION ( 'NONE',  ( -1.000000000000000000, 0.000000000000000000, -0.000000000000000000 ) ) ;
#375 = PRODUCT_CONTEXT ( 'NONE', #967, 'mechanical' ) ;
#376 = EDGE_LOOP ( 'NONE', ( #337, #483, #30, #36 ) ) ;
#377 = PLANE ( 'NONE',  #1282 ) ;
#378 = FACE_BOUND ( 'NONE', #659, .T. ) ;
#379 = ORIENTED_EDGE ( 'NONE', *, *, #1102, .F. ) ;
#380 = CARTESIAN_POINT ( 'NONE',  ( 8.269999999999996021, 3.500000000000000444, -0.6300393700787404461 ) ) ;
#381 = EDGE_CURVE ( 'NONE', #722, #765, #192, .T. ) ;
#382 = VERTEX_POINT ( 'NONE', #843 ) ;
#383 =( NAMED_UNIT ( * ) PLANE_ANGLE_UNIT ( ) SI_UNIT ( $, .RADIAN. ) );
#384 = CARTESIAN_POINT ( 'NONE',  ( 8.484999999999994102, -5.000000000000002665, -0.6300000000000000044 ) ) ;
#385 = CARTESIAN_POINT ( 'NONE',  ( 8.484999999999995879, 5.000000000000002665, -0.6300000000000000044 ) ) ;
#386 = ORIENTED_EDGE ( 'NONE', *, *, #1019, .F. ) ;
#387 = ADVANCED_FACE ( 'NONE', ( #430 ), #1049, .F. ) ;
#388 = VECTOR ( 'NONE', #936, 39.37007874015748143 ) ;
#389 = AXIS2_PLACEMENT_3D ( 'NONE', #1097, #263, #894 ) ;
#390 = PLANE ( 'NONE',  #1347 ) ;
#391 = LINE ( 'NONE', #1126, #929 ) ;
#392 = PLANE ( 'NONE',  #782 ) ;
#393 = ORIENTED_EDGE ( 'NONE', *, *, #147, .T. ) ;
#394 = EDGE_CURVE ( 'NONE', #642, #312, #1346, .T. ) ;
#395 = LINE ( 'NONE', #1341, #1216 ) ;
#396 = DIRECTION ( 'NONE',  ( -1.000000000000000000, 0.000000000000000000, 3.841661241090376129E-15 ) ) ;
#397 = CARTESIAN_POINT ( 'NONE',  ( -8.294999999999998153, -4.880000000000000782, -1.195183497228115035E-16 ) ) ;
#398 = LINE ( 'NONE', #380, #1300 ) ;
#399 = ORIENTED_EDGE ( 'NONE', *, *, #965, .F. ) ;
#400 =( CONVERSION_BASED_UNIT ( 'INCH', #1333 ) LENGTH_UNIT ( ) NAMED_UNIT ( #1245 ) );
#401 = VERTEX_POINT ( 'NONE', #412 ) ;
#402 = LINE ( 'NONE', #1336, #300 ) ;
#403 = EDGE_CURVE ( 'NONE', #1249, #819, #1035, .T. ) ;
#404 = DIRECTION ( 'NONE',  ( -0.000000000000000000, -0.000000000000000000, 1.000000000000000000 ) ) ;
#405 = LINE ( 'NONE', #305, #1061 ) ;
#406 = LINE ( 'NONE', #86, #803 ) ;
#407 = ORIENTED_EDGE ( 'NONE', *, *, #79, .T. ) ;
#408 = DIRECTION ( 'NONE',  ( 0.000000000000000000, 0.000000000000000000, -1.000000000000000000 ) ) ;
#409 = DIRECTION ( 'NONE',  ( 1.000000000000000000, 0.000000000000000000, 0.000000000000000000 ) ) ;
#410 = VECTOR ( 'NONE', #901, 39.37007874015748143 ) ;
#411 = VECTOR ( 'NONE', #180, 39.37007874015748143 ) ;
#412 = CARTESIAN_POINT ( 'NONE',  ( 8.079999999999994742, 1.163414459189982046E-17, 0.000000000000000000 ) ) ;
#413 = DIRECTION ( 'NONE',  ( -0.000000000000000000, -0.000000000000000000, 1.000000000000000000 ) ) ;
#414 = VERTEX_POINT ( 'NONE', #619 ) ;
#415 = DIRECTION ( 'NONE',  ( 0.000000000000000000, -1.000000000000000000, -3.491481338843134539E-15 ) ) ;
#416 = LINE ( 'NONE', #173, #368 ) ;
#417 = CARTESIAN_POINT ( 'NONE',  ( -7.985000000000002096, 0.000000000000000000, 0.000000000000000000 ) ) ;
#418 = ORIENTED_EDGE ( 'NONE', *, *, #698, .F. ) ;
#419 = DIRECTION ( 'NONE',  ( -0.000000000000000000, 1.000000000000000000, -0.000000000000000000 ) ) ;
#420 = CYLINDRICAL_SURFACE ( 'NONE', #277, 0.1139999999999999347 ) ;
#421 = DIRECTION ( 'NONE',  ( 0.000000000000000000, 0.000000000000000000, 1.000000000000000000 ) ) ;
#422 = CARTESIAN_POINT ( 'NONE',  ( 8.484999999999994102, -4.940000000000002167, -0.6300000000000002265 ) ) ;
#423 = EDGE_CURVE ( 'NONE', #1249, #1105, #1058, .T. ) ;
#424 = ORIENTED_EDGE ( 'NONE', *, *, #283, .F. ) ;
#425 = DIRECTION ( 'NONE',  ( 0.000000000000000000, -1.000000000000000000, 3.841661241090376129E-15 ) ) ;
#426 = CARTESIAN_POINT ( 'NONE',  ( -8.295000000000001705, 4.880000000000000782, -0.1200000000000000372 ) ) ;
#427 = VECTOR ( 'NONE', #317, 39.37007874015748143 ) ;
#428 = DIRECTION ( 'NONE',  ( 1.000000000000000000, -0.000000000000000000, -0.000000000000000000 ) ) ;
#429 = ORIENTED_EDGE ( 'NONE', *, *, #505, .F. ) ;
#430 = FACE_OUTER_BOUND ( 'NONE', #527, .T. ) ;
#431 = AXIS2_PLACEMENT_3D ( 'NONE', #792, #1002, #371 ) ;
#432 = CIRCLE ( 'NONE', #302, 0.05999999999999988676 ) ;
#433 = DIRECTION ( 'NONE',  ( 1.000000000000000000, 0.000000000000000000, 0.000000000000000000 ) ) ;
#434 = EDGE_LOOP ( 'NONE', ( #973, #908 ) ) ;
#435 = CARTESIAN_POINT ( 'NONE',  ( -8.485000000000001208, -4.809999999999999609, -0.1199999999999995931 ) ) ;
#436 = PRODUCT_RELATED_PRODUCT_CATEGORY ( 'part', '', ( #578 ) ) ;
#437 = DIRECTION ( 'NONE',  ( 3.834172622686683600E-15, 3.834172622686683600E-15, 1.000000000000000000 ) ) ;
#438 = EDGE_CURVE ( 'NONE', #614, #486, #309, .T. ) ;
#439 = CYLINDRICAL_SURFACE ( 'NONE', #74, 0.05999999999999990757 ) ;
#440 = ORIENTED_EDGE ( 'NONE', *, *, #54, .F. ) ;
#441 = DIRECTION ( 'NONE',  ( 1.000000000000000000, 0.000000000000000000, 0.000000000000000000 ) ) ;
#442 = EDGE_LOOP ( 'NONE', ( #1247, #621 ) ) ;
#443 = DIRECTION ( 'NONE',  ( -0.000000000000000000, -0.000000000000000000, 1.000000000000000000 ) ) ;
#444 = FACE_OUTER_BOUND ( 'NONE', #506, .T. ) ;
#445 = EDGE_CURVE ( 'NONE', #244, #1298, #832, .T. ) ;
#446 = ORIENTED_EDGE ( 'NONE', *, *, #345, .T. ) ;
#447 = ORIENTED_EDGE ( 'NONE', *, *, #1003, .T. ) ;
#448 = CARTESIAN_POINT ( 'NONE',  ( 8.484999999999997655, -5.000000000000000000, -0.05999999999999999778 ) ) ;
#449 = FACE_BOUND ( 'NONE', #171, .T. ) ;
#450 = AXIS2_PLACEMENT_3D ( 'NONE', #11, #225, #433 ) ;
#451 = VERTEX_POINT ( 'NONE', #635 ) ;
#452 = VECTOR ( 'NONE', #330, 39.37007874015748143 ) ;
#453 = EDGE_CURVE ( 'NONE', #574, #1131, #1030, .T. ) ;
#454 = AXIS2_PLACEMENT_3D ( 'NONE', #921, #404, #702 ) ;
#455 = AXIS2_PLACEMENT_3D ( 'NONE', #1029, #807, #1322 ) ;
#456 = EDGE_LOOP ( 'NONE', ( #1204, #164, #941, #46 ) ) ;
#457 = AXIS2_PLACEMENT_3D ( 'NONE', #885, #458, #664 ) ;
#458 = DIRECTION ( 'NONE',  ( 1.000000000000000000, 1.338694216201379284E-29, -3.834172622686683600E-15 ) ) ;
#459 = DIRECTION ( 'NONE',  ( 0.000000000000000000, 0.000000000000000000, 1.000000000000000000 ) ) ;
#460 = EDGE_LOOP ( 'NONE', ( #930, #982, #137, #978 ) ) ;
#461 = CARTESIAN_POINT ( 'NONE',  ( 8.079999999999996518, -3.500000000000000444, 0.000000000000000000 ) ) ;
#462 = ORIENTED_EDGE ( 'NONE', *, *, #489, .T. ) ;
#463 = EDGE_CURVE ( 'NONE', #234, #1037, #1043, .T. ) ;
#464 = CARTESIAN_POINT ( 'NONE',  ( -7.985000000000002096, 0.000000000000000000, 0.000000000000000000 ) ) ;
#465 = CARTESIAN_POINT ( 'NONE',  ( -8.294999999999998153, -5.000000000000000000, -0.1199999999999995931 ) ) ;
#466 = CARTESIAN_POINT ( 'NONE',  ( 0.000000000000000000, -5.000000000000002665, -0.6300000000000000044 ) ) ;
#467 = ORIENTED_EDGE ( 'NONE', *, *, #1248, .F. ) ;
#468 = DIRECTION ( 'NONE',  ( -1.000000000000000000, 0.000000000000000000, 0.000000000000000000 ) ) ;
#469 = ORIENTED_EDGE ( 'NONE', *, *, #216, .F. ) ;
#470 = ADVANCED_FACE ( 'NONE', ( #748 ), #530, .T. ) ;
#471 = DIRECTION ( 'NONE',  ( -1.000000000000000000, -0.000000000000000000, -0.000000000000000000 ) ) ;
#472 = LINE ( 'NONE', #887, #633 ) ;
#473 = ORIENTED_EDGE ( 'NONE', *, *, #723, .F. ) ;
#474 = AXIS2_PLACEMENT_3D ( 'NONE', #1033, #419, #396 ) ;
#475 = AXIS2_PLACEMENT_3D ( 'NONE', #464, #1260, #1054 ) ;
#476 = ORIENTED_EDGE ( 'NONE', *, *, #494, .F. ) ;
#477 = LENGTH_MEASURE_WITH_UNIT ( LENGTH_MEASURE( 0.02539999999999999897 ), #127 );
#478 = VECTOR ( 'NONE', #1012, 39.37007874015748143 ) ;
#479 = DIRECTION ( 'NONE',  ( -0.000000000000000000, 1.000000000000000000, -0.000000000000000000 ) ) ;
#480 = CIRCLE ( 'NONE', #611, 0.05999999999999990757 ) ;
#481 = EDGE_CURVE ( 'NONE', #1069, #584, #115, .T. ) ;
#482 = PLANE ( 'NONE',  #1302 ) ;
#483 = ORIENTED_EDGE ( 'NONE', *, *, #304, .F. ) ;
#484 = ADVANCED_FACE ( 'NONE', ( #926 ), #955, .F. ) ;
#485 = DIRECTION ( 'NONE',  ( 1.000000000000000000, 0.000000000000000000, 0.000000000000000000 ) ) ;
#486 = VERTEX_POINT ( 'NONE', #1352 ) ;
#487 = DIRECTION ( 'NONE',  ( 0.000000000000000000, 0.000000000000000000, 1.000000000000000000 ) ) ;
#488 = CARTESIAN_POINT ( 'NONE',  ( 8.484999999999994102, -5.000000000000002665, -0.6300000000000000044 ) ) ;
#489 = EDGE_CURVE ( 'NONE', #20, #177, #587, .T. ) ;
#490 = DIRECTION ( 'NONE',  ( 0.000000000000000000, -1.000000000000000000, 0.000000000000000000 ) ) ;
#491 = EDGE_LOOP ( 'NONE', ( #550, #1183, #607, #3 ) ) ;
#492 = CARTESIAN_POINT ( 'NONE',  ( 8.484999999999995879, 4.880000000000000782, -1.195183497228115035E-16 ) ) ;
#493 = FACE_OUTER_BOUND ( 'NONE', #376, .T. ) ;
#494 = EDGE_CURVE ( 'NONE', #52, #401, #668, .T. ) ;
#495 = ORIENTED_EDGE ( 'NONE', *, *, #1185, .T. ) ;
#496 = VECTOR ( 'NONE', #1337, 39.37007874015748143 ) ;
#497 = DIRECTION ( 'NONE',  ( -0.000000000000000000, 1.000000000000000000, 0.000000000000000000 ) ) ;
#498 = AXIS2_PLACEMENT_3D ( 'NONE', #26, #554, #740 ) ;
#499 = AXIS2_PLACEMENT_3D ( 'NONE', #601, #1026, #1006 ) ;
#500 = PLANE ( 'NONE',  #1281 ) ;
#501 = CARTESIAN_POINT ( 'NONE',  ( 8.484999999999995879, 4.940000000000002167, -0.6300000000000002265 ) ) ;
#502 = DIRECTION ( 'NONE',  ( 0.000000000000000000, -1.000000000000000000, 0.000000000000000000 ) ) ;
#503 = ORIENTED_EDGE ( 'NONE', *, *, #895, .F. ) ;
#504 =( LENGTH_UNIT ( ) NAMED_UNIT ( * ) SI_UNIT ( $, .METRE. ) );
#505 = EDGE_CURVE ( 'NONE', #177, #20, #299, .T. ) ;
#506 = EDGE_LOOP ( 'NONE', ( #1110, #469, #790, #533 ) ) ;
#507 = DIRECTION ( 'NONE',  ( -5.751258934030031316E-15, 1.000000000000000000, 0.000000000000000000 ) ) ;
#508 = ORIENTED_EDGE ( 'NONE', *, *, #2, .F. ) ;
#509 = CARTESIAN_POINT ( 'NONE',  ( -8.365000000000001990, 4.809999999999999609, -1.195183497228115035E-16 ) ) ;
#510 = ORIENTED_EDGE ( 'NONE', *, *, #1077, .F. ) ;
#511 = EDGE_LOOP ( 'NONE', ( #1227, #245, #753, #1285 ) ) ;
#512 = EDGE_CURVE ( 'NONE', #1355, #1298, #974, .T. ) ;
#513 = CYLINDRICAL_SURFACE ( 'NONE', #12, 0.09499999999999994560 ) ;
#514 = DIRECTION ( 'NONE',  ( -3.834172622686683600E-15, 3.834172622686683600E-15, -1.000000000000000000 ) ) ;
#515 = ORIENTED_EDGE ( 'NONE', *, *, #241, .F. ) ;
#516 = EDGE_LOOP ( 'NONE', ( #379, #1079, #760, #1045 ) ) ;
#517 = FACE_OUTER_BOUND ( 'NONE', #1057, .T. ) ;
#518 = VECTOR ( 'NONE', #1046, 39.37007874015748143 ) ;
#519 = DIRECTION ( 'NONE',  ( 0.000000000000000000, 0.000000000000000000, 1.000000000000000000 ) ) ;
#520 = VECTOR ( 'NONE', #522, 39.37007874015748143 ) ;
#521 = CIRCLE ( 'NONE', #783, 0.09499999999999994560 ) ;
#522 = DIRECTION ( 'NONE',  ( -1.000000000000000000, -0.000000000000000000, -0.000000000000000000 ) ) ;
#523 = AXIS2_PLACEMENT_3D ( 'NONE', #1320, #1219, #810 ) ;
#524 = DIRECTION ( 'NONE',  ( 0.000000000000000000, 3.834172622686683600E-15, 1.000000000000000000 ) ) ;
#525 = MANIFOLD_SOLID_BREP ( 'Cortar-Extruir2', #1277 ) ;
#526 = CYLINDRICAL_SURFACE ( 'NONE', #1036, 0.09499999999999994560 ) ;
#527 = EDGE_LOOP ( 'NONE', ( #347, #1278, #774, #802 ) ) ;
#528 = CARTESIAN_POINT ( 'NONE',  ( -8.295000000000003482, 5.000000000000002665, -0.6300000000000000044 ) ) ;
#529 = CARTESIAN_POINT ( 'NONE',  ( 8.174999999999997158, -3.500000000000000444, -0.6300393700787404461 ) ) ;
#530 = PLANE ( 'NONE',  #161 ) ;
#531 = EDGE_CURVE ( 'NONE', #249, #1088, #800, .T. ) ;
#532 = ORIENTED_EDGE ( 'NONE', *, *, #1218, .F. ) ;
#533 = ORIENTED_EDGE ( 'NONE', *, *, #48, .T. ) ;
#534 = CARTESIAN_POINT ( 'NONE',  ( 8.484999999999995879, 4.880000000000000782, -0.1200000000000000372 ) ) ;
#535 = CARTESIAN_POINT ( 'NONE',  ( -6.605000000000003091, 2.380000000000000338, -0.6300393700787404461 ) ) ;
#536 = DIRECTION ( 'NONE',  ( 1.000000000000000000, 0.000000000000000000, -3.491481338843134539E-15 ) ) ;
#537 = DIRECTION ( 'NONE',  ( 0.000000000000000000, -1.000000000000000000, 3.699377491420362432E-15 ) ) ;
#538 = PLANE ( 'NONE',  #252 ) ;
#539 = EDGE_CURVE ( 'NONE', #316, #87, #866, .T. ) ;
#540 = ORIENTED_EDGE ( 'NONE', *, *, #394, .T. ) ;
#541 = DIRECTION ( 'NONE',  ( 0.000000000000000000, -0.000000000000000000, -1.000000000000000000 ) ) ;
#542 = CARTESIAN_POINT ( 'NONE',  ( -6.491000000000003212, 2.380000000000000338, -0.6300393700787404461 ) ) ;
#543 = AXIS2_PLACEMENT_3D ( 'NONE', #341, #1176, #1167 ) ;
#544 = FACE_BOUND ( 'NONE', #696, .T. ) ;
#545 = ORIENTED_EDGE ( 'NONE', *, *, #1027, .F. ) ;
#546 = CARTESIAN_POINT ( 'NONE',  ( 8.484999999999995879, 4.940000000000002167, -0.6300000000000002265 ) ) ;
#547 = AXIS2_PLACEMENT_3D ( 'NONE', #101, #841, #1158 ) ;
#548 = AXIS2_PLACEMENT_3D ( 'NONE', #1004, #358, #152 ) ;
#549 = CYLINDRICAL_SURFACE ( 'NONE', #274, 0.1560000000000001941 ) ;
#550 = ORIENTED_EDGE ( 'NONE', *, *, #175, .F. ) ;
#551 = DIRECTION ( 'NONE',  ( -1.000000000000000000, 0.000000000000000000, 0.000000000000000000 ) ) ;
#552 = EDGE_CURVE ( 'NONE', #1131, #401, #320, .T. ) ;
#553 = CYLINDRICAL_SURFACE ( 'NONE', #1256, 0.09499999999999994560 ) ;
#554 = DIRECTION ( 'NONE',  ( 0.000000000000000000, -1.000000000000000000, 0.000000000000000000 ) ) ;
#555 = ORIENTED_EDGE ( 'NONE', *, *, #552, .F. ) ;
#556 = ORIENTED_EDGE ( 'NONE', *, *, #233, .F. ) ;
#557 = DIRECTION ( 'NONE',  ( 1.000000000000000000, 0.000000000000000000, 0.000000000000000000 ) ) ;
#558 = DIRECTION ( 'NONE',  ( 0.000000000000000000, -1.000000000000000000, 0.000000000000000000 ) ) ;
#559 = ORIENTED_EDGE ( 'NONE', *, *, #788, .T. ) ;
#560 = ORIENTED_EDGE ( 'NONE', *, *, #185, .F. ) ;
#561 = CARTESIAN_POINT ( 'NONE',  ( -8.365000000000001990, 4.809999999999999609, -0.1200000000000000372 ) ) ;
#562 = DIRECTION ( 'NONE',  ( -1.000000000000000000, 0.000000000000000000, 0.000000000000000000 ) ) ;
#563 = CIRCLE ( 'NONE', #995, 0.1139999999999999347 ) ;
#564 = EDGE_LOOP ( 'NONE', ( #19, #186, #755, #1264 ) ) ;
#565 = VECTOR ( 'NONE', #1114, 39.37007874015748143 ) ;
#566 = EDGE_CURVE ( 'NONE', #414, #667, #95, .T. ) ;
#567 = AXIS2_PLACEMENT_3D ( 'NONE', #448, #1280, #1274 ) ;
#568 = ORIENTED_EDGE ( 'NONE', *, *, #605, .F. ) ;
#569 = CARTESIAN_POINT ( 'NONE',  ( -8.485000000000004761, 4.809999999999998721, -0.6300000000000000044 ) ) ;
#570 = CARTESIAN_POINT ( 'NONE',  ( 0.000000000000000000, 0.000000000000000000, 0.000000000000000000 ) ) ;
#571 = ORIENTED_EDGE ( 'NONE', *, *, #812, .F. ) ;
#572 = SURFACE_SIDE_STYLE ('',( #989 ) ) ;
#573 = EDGE_CURVE ( 'NONE', #656, #1069, #391, .T. ) ;
#574 = VERTEX_POINT ( 'NONE', #603 ) ;
#575 = CARTESIAN_POINT ( 'NONE',  ( -8.295000000000001705, 4.880000000000000782, -0.1200000000000000372 ) ) ;
#576 = CARTESIAN_POINT ( 'NONE',  ( 8.484999999999994102, -5.000000000000002665, -0.6300000000000000044 ) ) ;
#577 = ORIENTED_EDGE ( 'NONE', *, *, #1094, .F. ) ;
#578 = PRODUCT ( '12-6355-02-(16gacr ANSI-61) - K48 - V2-R0', '12-6355-02-(16gacr ANSI-61) - K48 - V2-R0', '', ( #375 ) ) ;
#579 = DIRECTION ( 'NONE',  ( 0.000000000000000000, 0.000000000000000000, 1.000000000000000000 ) ) ;
#580 = EDGE_CURVE ( 'NONE', #898, #239, #75, .T. ) ;
#581 = ORIENTED_EDGE ( 'NONE', *, *, #338, .T. ) ;
#582 = CARTESIAN_POINT ( 'NONE',  ( -8.295000000000001705, -5.000000000000000000, 0.000000000000000000 ) ) ;
#583 = CYLINDRICAL_SURFACE ( 'NONE', #1174, 0.1139999999999999347 ) ;
#584 = VERTEX_POINT ( 'NONE', #501 ) ;
#585 = LINE ( 'NONE', #1127, #565 ) ;
#586 = VECTOR ( 'NONE', #227, 39.37007874015748143 ) ;
#587 = CIRCLE ( 'NONE', #845, 0.1560000000000001941 ) ;
#588 = ORIENTED_EDGE ( 'NONE', *, *, #805, .F. ) ;
#589 = AXIS2_PLACEMENT_3D ( 'NONE', #89, #519, #820 ) ;
#590 = DIRECTION ( 'NONE',  ( 0.000000000000000000, 0.000000000000000000, 1.000000000000000000 ) ) ;
#591 = AXIS2_PLACEMENT_3D ( 'NONE', #1294, #360, #775 ) ;
#592 = ADVANCED_FACE ( 'NONE', ( #183 ), #301, .F. ) ;
#593 = FACE_BOUND ( 'NONE', #144, .T. ) ;
#594 = CYLINDRICAL_SURFACE ( 'NONE', #673, 0.1199999999999998151 ) ;
#595 = ORIENTED_EDGE ( 'NONE', *, *, #671, .F. ) ;
#596 = PLANE ( 'NONE',  #1326 ) ;
#597 = CARTESIAN_POINT ( 'NONE',  ( 8.484999999999997655, 4.880000000000000782, -0.06000000000000012962 ) ) ;
#598 = ADVANCED_FACE ( 'NONE', ( #1048 ), #857, .T. ) ;
#599 = CARTESIAN_POINT ( 'NONE',  ( 8.269999999999996021, -3.500000000000000444, -0.6300393700787404461 ) ) ;
#600 = ORIENTED_EDGE ( 'NONE', *, *, #1003, .F. ) ;
#601 = CARTESIAN_POINT ( 'NONE',  ( 8.174999999999997158, -3.500000000000000444, 0.000000000000000000 ) ) ;
#602 = LINE ( 'NONE', #1124, #478 ) ;
#603 = CARTESIAN_POINT ( 'NONE',  ( 8.269999999999994245, 0.000000000000000000, -0.05999999999999997696 ) ) ;
#604 = LINE ( 'NONE', #1009, #714 ) ;
#605 = EDGE_CURVE ( 'NONE', #244, #1288, #1068, .T. ) ;
#606 = CIRCLE ( 'NONE', #9, 0.09499999999999994560 ) ;
#607 = ORIENTED_EDGE ( 'NONE', *, *, #1016, .T. ) ;
#608 = VECTOR ( 'NONE', #1253, 39.37007874015748143 ) ;
#609 = DIRECTION ( 'NONE',  ( -1.000000000000000000, 0.000000000000000000, 0.000000000000000000 ) ) ;
#610 = ORIENTED_EDGE ( 'NONE', *, *, #403, .T. ) ;
#611 = AXIS2_PLACEMENT_3D ( 'NONE', #561, #479, #590 ) ;
#612 = CARTESIAN_POINT ( 'NONE',  ( 8.269999999999996021, -3.500000000000000444, -0.05999999999999997696 ) ) ;
#613 = FACE_OUTER_BOUND ( 'NONE', #329, .T. ) ;
#614 = VERTEX_POINT ( 'NONE', #752 ) ;
#615 = ADVANCED_FACE ( 'NONE', ( #1078 ), #1073, .F. ) ;
#616 = CARTESIAN_POINT ( 'NONE',  ( -8.485000000000001208, -4.809999999999999609, -0.1199999999999995792 ) ) ;
#617 = EDGE_LOOP ( 'NONE', ( #399, #532, #110, #222 ) ) ;
#618 = CARTESIAN_POINT ( 'NONE',  ( 8.174999999999995381, 0.000000000000000000, -0.6300393700787404461 ) ) ;
#619 = CARTESIAN_POINT ( 'NONE',  ( -8.295000000000001705, -4.810000000000000497, 0.000000000000000000 ) ) ;
#620 = DIRECTION ( 'NONE',  ( 1.000000000000000000, 0.000000000000000000, 0.000000000000000000 ) ) ;
#621 = ORIENTED_EDGE ( 'NONE', *, *, #1232, .T. ) ;
#622 = DIRECTION ( 'NONE',  ( -0.000000000000000000, -0.000000000000000000, 1.000000000000000000 ) ) ;
#623 = DIRECTION ( 'NONE',  ( -3.834172622686683600E-15, -9.585431556716708999E-16, -1.000000000000000000 ) ) ;
#624 = DIRECTION ( 'NONE',  ( 1.000000000000000000, 0.000000000000000000, 0.000000000000000000 ) ) ;
#625 = DIRECTION ( 'NONE',  ( 0.000000000000000000, 1.000000000000000000, -3.834172622686683600E-15 ) ) ;
#626 = FACE_OUTER_BOUND ( 'NONE', #1100, .T. ) ;
#627 = CIRCLE ( 'NONE', #231, 0.1199999999999999262 ) ;
#628 = EDGE_LOOP ( 'NONE', ( #734, #1257, #814, #742 ) ) ;
#629 = AXIS2_PLACEMENT_3D ( 'NONE', #1233, #108, #537 ) ;
#630 = CARTESIAN_POINT ( 'NONE',  ( -8.295000000000001705, 4.880000000000000782, -0.06000000000000012962 ) ) ;
#631 = VECTOR ( 'NONE', #959, 39.37007874015748143 ) ;
#632 = EDGE_CURVE ( 'NONE', #451, #308, #113, .T. ) ;
#633 = VECTOR ( 'NONE', #1316, 39.37007874015748143 ) ;
#634 = CIRCLE ( 'NONE', #999, 0.1199999999999999262 ) ;
#635 = CARTESIAN_POINT ( 'NONE',  ( -8.485000000000004761, 4.809999999999999609, -0.6300000000000000044 ) ) ;
#636 = DIRECTION ( 'NONE',  ( 1.000000000000000000, -1.338694216201379284E-29, -3.834172622686683600E-15 ) ) ;
#637 = ORIENTED_EDGE ( 'NONE', *, *, #241, .T. ) ;
#638 = FACE_OUTER_BOUND ( 'NONE', #261, .T. ) ;
#639 = DIRECTION ( 'NONE',  ( 1.000000000000000000, 0.000000000000000000, 0.000000000000000000 ) ) ;
#640 = ADVANCED_FACE ( 'NONE', ( #215 ), #107, .F. ) ;
#641 = CARTESIAN_POINT ( 'NONE',  ( -8.295000000000001705, -5.000000000000000000, -0.05999999999999999778 ) ) ;
#642 = VERTEX_POINT ( 'NONE', #131 ) ;
#643 = VERTEX_POINT ( 'NONE', #135 ) ;
#644 = DIRECTION ( 'NONE',  ( -3.834172622686683600E-15, 0.000000000000000000, -1.000000000000000000 ) ) ;
#645 = PLANE ( 'NONE',  #567 ) ;
#646 = DIRECTION ( 'NONE',  ( 0.000000000000000000, 0.000000000000000000, 1.000000000000000000 ) ) ;
#647 = ORIENTED_EDGE ( 'NONE', *, *, #1232, .F. ) ;
#648 = DIRECTION ( 'NONE',  ( -1.000000000000000000, 0.000000000000000000, 3.699377491420362432E-15 ) ) ;
#649 = ADVANCED_FACE ( 'NONE', ( #964, #229, #939, #125, #449, #544, #960 ), #665, .T. ) ;
#650 = ORIENTED_EDGE ( 'NONE', *, *, #736, .T. ) ;
#651 = DIRECTION ( 'NONE',  ( -1.000000000000000000, 0.000000000000000000, 0.000000000000000000 ) ) ;
#652 = CARTESIAN_POINT ( 'NONE',  ( -8.294999999999998153, -4.880000000000000782, -0.06000000000000012962 ) ) ;
#653 = VECTOR ( 'NONE', #579, 39.37007874015748143 ) ;
#654 = PRESENTATION_LAYER_ASSIGNMENT (  '', '', ( #253 ) ) ;
#655 = DIRECTION ( 'NONE',  ( 0.000000000000000000, -0.000000000000000000, -1.000000000000000000 ) ) ;
#656 = VERTEX_POINT ( 'NONE', #944 ) ;
#657 = CIRCLE ( 'NONE', #431, 0.1199999999999999123 ) ;
#658 = EDGE_CURVE ( 'NONE', #1105, #244, #1106, .T. ) ;
#659 = EDGE_LOOP ( 'NONE', ( #1308, #663 ) ) ;
#660 = CARTESIAN_POINT ( 'NONE',  ( -8.425000000000002487, 4.809999999999999609, -0.1199999999999998151 ) ) ;
#661 = CARTESIAN_POINT ( 'NONE',  ( 0.000000000000000000, 0.000000000000000000, -0.05999999999999999778 ) ) ;
#662 = VERTEX_POINT ( 'NONE', #1154 ) ;
#663 = ORIENTED_EDGE ( 'NONE', *, *, #1129, .F. ) ;
#664 = DIRECTION ( 'NONE',  ( -3.834172622686683600E-15, 0.000000000000000000, -1.000000000000000000 ) ) ;
#665 = PLANE ( 'NONE',  #825 ) ;
#666 = EDGE_LOOP ( 'NONE', ( #429, #1075 ) ) ;
#667 = VERTEX_POINT ( 'NONE', #867 ) ;
#668 = LINE ( 'NONE', #979, #1064 ) ;
#669 = CARTESIAN_POINT ( 'NONE',  ( 8.269999999999994245, 0.000000000000000000, 0.000000000000000000 ) ) ;
#670 = PLANE ( 'NONE',  #209 ) ;
#671 = EDGE_CURVE ( 'NONE', #707, #1161, #717, .T. ) ;
#672 = ORIENTED_EDGE ( 'NONE', *, *, #1218, .T. ) ;
#673 = AXIS2_PLACEMENT_3D ( 'NONE', #1221, #184, #280 ) ;
#674 = AXIS2_PLACEMENT_3D ( 'NONE', #328, #428, #421 ) ;
#675 = CYLINDRICAL_SURFACE ( 'NONE', #1190, 0.1199999999999998151 ) ;
#676 = AXIS2_PLACEMENT_3D ( 'NONE', #768, #993, #41 ) ;
#677 = ORIENTED_EDGE ( 'NONE', *, *, #292, .F. ) ;
#678 = DIRECTION ( 'NONE',  ( 1.000000000000000000, -0.000000000000000000, -0.000000000000000000 ) ) ;
#679 = DIRECTION ( 'NONE',  ( 1.000000000000000000, 0.000000000000000000, -3.834172622686683600E-15 ) ) ;
#680 = ORIENTED_EDGE ( 'NONE', *, *, #539, .T. ) ;
#681 = FILL_AREA_STYLE ('',( #781 ) ) ;
#682 = PRODUCT_DEFINITION ( 'UNKNOWN', '', #121, #193 ) ;
#683 = CARTESIAN_POINT ( 'NONE',  ( 8.484999999999995879, 4.940000000000000391, -0.1199999999999998151 ) ) ;
#684 = EDGE_LOOP ( 'NONE', ( #571, #1198, #447, #1328 ) ) ;
#685 = DIRECTION ( 'NONE',  ( 0.000000000000000000, -9.585431556716708999E-16, -1.000000000000000000 ) ) ;
#686 = FACE_BOUND ( 'NONE', #915, .T. ) ;
#687 = ORIENTED_EDGE ( 'NONE', *, *, #925, .F. ) ;
#688 = CARTESIAN_POINT ( 'NONE',  ( 8.174999999999995381, 0.000000000000000000, 0.000000000000000000 ) ) ;
#689 = VERTEX_POINT ( 'NONE', #745 ) ;
#690 = ADVANCED_FACE ( 'NONE', ( #444 ), #849, .F. ) ;
#691 = CARTESIAN_POINT ( 'NONE',  ( 8.174999999999997158, -3.500000000000000444, -0.05999999999999997696 ) ) ;
#692 = PLANE ( 'NONE',  #1017 ) ;
#693 = ORIENTED_EDGE ( 'NONE', *, *, #566, .F. ) ;
#694 = CARTESIAN_POINT ( 'NONE',  ( -8.365000000000001990, -4.809999999999999609, -0.06000000000000012962 ) ) ;
#695 = CIRCLE ( 'NONE', #454, 0.09499999999999994560 ) ;
#696 = EDGE_LOOP ( 'NONE', ( #1296, #393 ) ) ;
#697 = CIRCLE ( 'NONE', #589, 0.1139999999999999347 ) ;
#698 = EDGE_CURVE ( 'NONE', #917, #922, #1283, .T. ) ;
#699 = CARTESIAN_POINT ( 'NONE',  ( -8.365000000000001990, 4.809999999999999609, -0.06000000000000012962 ) ) ;
#700 = CIRCLE ( 'NONE', #933, 0.05999999999999990757 ) ;
#701 = FACE_OUTER_BOUND ( 'NONE', #902, .T. ) ;
#702 = DIRECTION ( 'NONE',  ( -1.000000000000000000, 0.000000000000000000, 0.000000000000000000 ) ) ;
#703 = VERTEX_POINT ( 'NONE', #1056 ) ;
#704 = DIRECTION ( 'NONE',  ( -0.000000000000000000, -0.000000000000000000, 1.000000000000000000 ) ) ;
#705 = FACE_OUTER_BOUND ( 'NONE', #684, .T. ) ;
#706 = PLANE ( 'NONE',  #138 ) ;
#707 = VERTEX_POINT ( 'NONE', #759 ) ;
#708 = PLANE ( 'NONE',  #718 ) ;
#709 = DIRECTION ( 'NONE',  ( 3.491481338843133750E-15, -0.000000000000000000, 1.000000000000000000 ) ) ;
#710 = CARTESIAN_POINT ( 'NONE',  ( -8.485000000000001208, -4.810000000000000497, 0.000000000000000000 ) ) ;
#711 = ADVANCED_FACE ( 'NONE', ( #18 ), #439, .F. ) ;
#712 = DIRECTION ( 'NONE',  ( -0.000000000000000000, 0.000000000000000000, -1.000000000000000000 ) ) ;
#713 = ORIENTED_EDGE ( 'NONE', *, *, #463, .F. ) ;
#714 = VECTOR ( 'NONE', #490, 39.37007874015748143 ) ;
#715 = DIRECTION ( 'NONE',  ( 1.000000000000000000, 0.000000000000000000, 0.000000000000000000 ) ) ;
#716 = EDGE_LOOP ( 'NONE', ( #795, #793 ) ) ;
#717 = CIRCLE ( 'NONE', #674, 0.1199999999999999123 ) ;
#718 = AXIS2_PLACEMENT_3D ( 'NONE', #826, #70, #1011 ) ;
#719 = DIRECTION ( 'NONE',  ( 3.834172622686683600E-15, 0.000000000000000000, 1.000000000000000000 ) ) ;
#720 = CARTESIAN_POINT ( 'NONE',  ( -7.985000000000002096, 0.000000000000000000, -0.6300393700787404461 ) ) ;
#721 = DIRECTION ( 'NONE',  ( 1.000000000000000000, -0.000000000000000000, -0.000000000000000000 ) ) ;
#722 = VERTEX_POINT ( 'NONE', #764 ) ;
#723 = EDGE_CURVE ( 'NONE', #656, #486, #1181, .T. ) ;
#724 = ORIENTED_EDGE ( 'NONE', *, *, #1312, .F. ) ;
#725 = CARTESIAN_POINT ( 'NONE',  ( -8.295000000000001705, -4.810000000000000497, -0.06003937007874015491 ) ) ;
#726 = ADVANCED_BREP_SHAPE_REPRESENTATION ( '12-6355-02-(16gacr ANSI-61) - K48 - V2-R0', ( #525, #548 ), #952 ) ;
#727 = CARTESIAN_POINT ( 'NONE',  ( -7.985000000000002096, 0.000000000000000000, -0.05999999999999997696 ) ) ;
#728 = CARTESIAN_POINT ( 'NONE',  ( -8.425000000000004263, -4.809999999999999609, -0.6300000000000002265 ) ) ;
#729 = ADVANCED_FACE ( 'NONE', ( #701 ), #583, .F. ) ;
#730 = ORIENTED_EDGE ( 'NONE', *, *, #445, .T. ) ;
#731 = CARTESIAN_POINT ( 'NONE',  ( -8.485000000000004761, -4.809999999999999609, -0.6300000000000000044 ) ) ;
#732 = ORIENTED_EDGE ( 'NONE', *, *, #552, .T. ) ;
#733 = VECTOR ( 'NONE', #1339, 39.37007874015748143 ) ;
#734 = ORIENTED_EDGE ( 'NONE', *, *, #935, .F. ) ;
#735 = VECTOR ( 'NONE', #1289, 39.37007874015748143 ) ;
#736 = EDGE_CURVE ( 'NONE', #213, #316, #987, .T. ) ;
#737 = LINE ( 'NONE', #129, #631 ) ;
#738 = AXIS2_PLACEMENT_3D ( 'NONE', #1263, #1159, #221 ) ;
#739 = AXIS2_PLACEMENT_3D ( 'NONE', #569, #980, #685 ) ;
#740 = DIRECTION ( 'NONE',  ( 0.000000000000000000, 0.000000000000000000, 1.000000000000000000 ) ) ;
#741 = CARTESIAN_POINT ( 'NONE',  ( -8.295000000000003482, 4.940000000000002167, -0.6300000000000002265 ) ) ;
#742 = ORIENTED_EDGE ( 'NONE', *, *, #671, .T. ) ;
#743 = CARTESIAN_POINT ( 'NONE',  ( -6.605000000000003091, -2.379999999999999893, -0.05999999999999997696 ) ) ;
#744 = DIRECTION ( 'NONE',  ( -3.834172622686683600E-15, -3.834172622686683600E-15, -1.000000000000000000 ) ) ;
#745 = CARTESIAN_POINT ( 'NONE',  ( -6.719000000000002970, 2.380000000000000338, -0.05999999999999997696 ) ) ;
#746 = EDGE_CURVE ( 'NONE', #312, #382, #156, .T. ) ;
#747 = ORIENTED_EDGE ( 'NONE', *, *, #754, .F. ) ;
#748 = FACE_OUTER_BOUND ( 'NONE', #628, .T. ) ;
#749 = DIRECTION ( 'NONE',  ( -0.000000000000000000, 1.000000000000000000, -0.000000000000000000 ) ) ;
#750 = VERTEX_POINT ( 'NONE', #42 ) ;
#751 = DIRECTION ( 'NONE',  ( -1.000000000000000000, 0.000000000000000000, 0.000000000000000000 ) ) ;
#752 = CARTESIAN_POINT ( 'NONE',  ( 8.484999999999997655, 5.000000000000000000, -0.1199999999999995931 ) ) ;
#753 = ORIENTED_EDGE ( 'NONE', *, *, #290, .T. ) ;
#754 = EDGE_CURVE ( 'NONE', #662, #784, #248, .T. ) ;
#755 = ORIENTED_EDGE ( 'NONE', *, *, #1008, .T. ) ;
#756 = DIRECTION ( 'NONE',  ( -0.000000000000000000, -0.000000000000000000, 1.000000000000000000 ) ) ;
#757 = AXIS2_PLACEMENT_3D ( 'NONE', #1348, #636, #1155 ) ;
#758 = COLOUR_RGB ( '',0.7921568627450980005, 0.8196078431372548767, 0.9333333333333333481 ) ;
#759 = CARTESIAN_POINT ( 'NONE',  ( 8.484999999999997655, -4.880000000000000782, 0.000000000000000000 ) ) ;
#760 = ORIENTED_EDGE ( 'NONE', *, *, #632, .F. ) ;
#761 = EDGE_LOOP ( 'NONE', ( #157, #954, #270, #495 ) ) ;
#762 = EDGE_CURVE ( 'NONE', #1177, #656, #1193, .T. ) ;
#763 = DIRECTION ( 'NONE',  ( -0.000000000000000000, -0.000000000000000000, 1.000000000000000000 ) ) ;
#764 = CARTESIAN_POINT ( 'NONE',  ( -8.294999999999998153, -4.880000000000000782, -0.06000000000000012962 ) ) ;
#765 = VERTEX_POINT ( 'NONE', #143 ) ;
#766 = EDGE_LOOP ( 'NONE', ( #126, #877, #1070, #117 ) ) ;
#767 = ADVANCED_FACE ( 'NONE', ( #362 ), #692, .F. ) ;
#768 = CARTESIAN_POINT ( 'NONE',  ( 8.174999999999997158, 3.500000000000000444, 0.000000000000000000 ) ) ;
#769 = CARTESIAN_POINT ( 'NONE',  ( -8.485000000000001208, 4.810000000000000497, 0.000000000000000000 ) ) ;
#770 = VERTEX_POINT ( 'NONE', #1303 ) ;
#771 = CARTESIAN_POINT ( 'NONE',  ( -8.485000000000001208, -4.809999999999999609, 3.274244358382710480E-14 ) ) ;
#772 = DIRECTION ( 'NONE',  ( -0.000000000000000000, -0.000000000000000000, 1.000000000000000000 ) ) ;
#773 = SHAPE_DEFINITION_REPRESENTATION ( #831, #726 ) ;
#774 = ORIENTED_EDGE ( 'NONE', *, *, #169, .T. ) ;
#775 = DIRECTION ( 'NONE',  ( -1.000000000000000000, 0.000000000000000000, 0.000000000000000000 ) ) ;
#776 = ADVANCED_FACE ( 'NONE', ( #1084, #378, #686, #1206, #593, #1186, #873 ), #670, .F. ) ;
#777 = DIRECTION ( 'NONE',  ( 1.000000000000000000, 0.000000000000000000, 0.000000000000000000 ) ) ;
#778 = VECTOR ( 'NONE', #122, 39.37007874015748143 ) ;
#779 = ORIENTED_EDGE ( 'NONE', *, *, #1353, .F. ) ;
#780 = ADVANCED_FACE ( 'NONE', ( #1090 ), #482, .T. ) ;
#781 = FILL_AREA_STYLE_COLOUR ( '', #758 ) ;
#782 = AXIS2_PLACEMENT_3D ( 'NONE', #808, #1121, #314 ) ;
#783 = AXIS2_PLACEMENT_3D ( 'NONE', #1230, #66, #198 ) ;
#784 = VERTEX_POINT ( 'NONE', #576 ) ;
#785 = CARTESIAN_POINT ( 'NONE',  ( -8.295000000000003482, 4.940000000000002167, -0.6300000000000002265 ) ) ;
#786 = CARTESIAN_POINT ( 'NONE',  ( -8.485000000000001208, -4.810000000000000497, -0.06003937007874015491 ) ) ;
#787 = ORIENTED_EDGE ( 'NONE', *, *, #79, .F. ) ;
#788 = EDGE_CURVE ( 'NONE', #662, #1037, #472, .T. ) ;
#789 = DIRECTION ( 'NONE',  ( -0.000000000000000000, -0.000000000000000000, 1.000000000000000000 ) ) ;
#790 = ORIENTED_EDGE ( 'NONE', *, *, #233, .T. ) ;
#791 = FACE_OUTER_BOUND ( 'NONE', #516, .T. ) ;
#792 = CARTESIAN_POINT ( 'NONE',  ( -8.365000000000001990, -4.809999999999999609, -0.1200000000000000372 ) ) ;
#793 = ORIENTED_EDGE ( 'NONE', *, *, #812, .T. ) ;
#794 = DIRECTION ( 'NONE',  ( -0.000000000000000000, -0.000000000000000000, 1.000000000000000000 ) ) ;
#795 = ORIENTED_EDGE ( 'NONE', *, *, #886, .T. ) ;
#796 = DIRECTION ( 'NONE',  ( 0.000000000000000000, 0.000000000000000000, 1.000000000000000000 ) ) ;
#797 = DIRECTION ( 'NONE',  ( 0.000000000000000000, 3.491481338843134539E-15, 1.000000000000000000 ) ) ;
#798 = AXIS2_PLACEMENT_3D ( 'NONE', #912, #811, #541 ) ;
#799 = DIRECTION ( 'NONE',  ( 2.802596928649634142E-45, -1.000000000000000000, -3.491481338843133750E-15 ) ) ;
#800 = CIRCLE ( 'NONE', #181, 0.1560000000000001941 ) ;
#801 = AXIS2_PLACEMENT_3D ( 'NONE', #1065, #348, #334 ) ;
#802 = ORIENTED_EDGE ( 'NONE', *, *, #838, .T. ) ;
#803 = VECTOR ( 'NONE', #1123, 39.37007874015748143 ) ;
#804 = FACE_OUTER_BOUND ( 'NONE', #1272, .T. ) ;
#805 = EDGE_CURVE ( 'NONE', #667, #1298, #657, .T. ) ;
#806 = VECTOR ( 'NONE', #160, 39.37007874015748143 ) ;
#807 = DIRECTION ( 'NONE',  ( 1.000000000000000000, 0.000000000000000000, 0.000000000000000000 ) ) ;
#808 = CARTESIAN_POINT ( 'NONE',  ( 8.484999999999995879, -5.000000000000000000, -0.05999999999999978961 ) ) ;
#809 = EDGE_LOOP ( 'NONE', ( #1340, #1311, #1179, #1149 ) ) ;
#810 = DIRECTION ( 'NONE',  ( 0.000000000000000000, 0.000000000000000000, 1.000000000000000000 ) ) ;
#811 = DIRECTION ( 'NONE',  ( 0.000000000000000000, -1.000000000000000000, 0.000000000000000000 ) ) ;
#812 = EDGE_CURVE ( 'NONE', #770, #889, #1192, .T. ) ;
#813 = CARTESIAN_POINT ( 'NONE',  ( 8.484999999999997655, 4.880000000000000782, -0.05999999999999999778 ) ) ;
#814 = ORIENTED_EDGE ( 'NONE', *, *, #1353, .T. ) ;
#815 = CARTESIAN_POINT ( 'NONE',  ( 8.484999999999995879, -5.000000000000000000, -1.315260270973248571E-14 ) ) ;
#816 =( NAMED_UNIT ( * ) PLANE_ANGLE_UNIT ( ) SI_UNIT ( $, .RADIAN. ) );
#817 = ORIENTED_EDGE ( 'NONE', *, *, #1120, .F. ) ;
#818 = LINE ( 'NONE', #178, #848 ) ;
#819 = VERTEX_POINT ( 'NONE', #1113 ) ;
#820 = DIRECTION ( 'NONE',  ( 1.000000000000000000, 0.000000000000000000, 0.000000000000000000 ) ) ;
#821 = EDGE_CURVE ( 'NONE', #784, #1304, #1103, .T. ) ;
#822 = CARTESIAN_POINT ( 'NONE',  ( 8.484999999999997655, -4.880000000000000782, -0.05999999999999999778 ) ) ;
#823 = VECTOR ( 'NONE', #4, 39.37007874015748143 ) ;
#824 = CARTESIAN_POINT ( 'NONE',  ( -8.365000000000001990, 4.809999999999999609, -1.195183497228115035E-16 ) ) ;
#825 = AXIS2_PLACEMENT_3D ( 'NONE', #661, #1, #22 ) ;
#826 = CARTESIAN_POINT ( 'NONE',  ( 0.000000000000000000, 4.940000000000000391, 1.917086311343341879E-14 ) ) ;
#827 = EDGE_LOOP ( 'NONE', ( #868, #1187, #839, #120 ) ) ;
#828 = VECTOR ( 'NONE', #1139, 39.37007874015748143 ) ;
#829 = VECTOR ( 'NONE', #1101, 39.37007874015748143 ) ;
#830 = CARTESIAN_POINT ( 'NONE',  ( 8.484999999999994102, -4.940000000000000391, -0.1199999999999998151 ) ) ;
#831 = PRODUCT_DEFINITION_SHAPE ( 'NONE', 'NONE',  #682 ) ;
#832 = LINE ( 'NONE', #90, #1146 ) ;
#833 = ADVANCED_FACE ( 'NONE', ( #61 ), #900, .F. ) ;
#834 = DIRECTION ( 'NONE',  ( 3.834172622686683600E-15, -0.000000000000000000, 1.000000000000000000 ) ) ;
#835 = EDGE_LOOP ( 'NONE', ( #515, #386, #1276, #27 ) ) ;
#836 = CARTESIAN_POINT ( 'NONE',  ( 8.269999999999996021, 3.500000000000000444, -0.05999999999999997696 ) ) ;
#837 = CARTESIAN_POINT ( 'NONE',  ( -8.365000000000001990, 4.809999999999999609, -0.06000000000000012962 ) ) ;
#838 = EDGE_CURVE ( 'NONE', #234, #722, #162, .T. ) ;
#839 = ORIENTED_EDGE ( 'NONE', *, *, #940, .T. ) ;
#840 = LINE ( 'NONE', #1250, #427 ) ;
#841 = DIRECTION ( 'NONE',  ( 0.000000000000000000, 0.000000000000000000, 1.000000000000000000 ) ) ;
#842 = DIRECTION ( 'NONE',  ( 1.000000000000000000, 0.000000000000000000, 0.000000000000000000 ) ) ;
#843 = CARTESIAN_POINT ( 'NONE',  ( -8.295000000000001705, 4.810000000000000497, 0.000000000000000000 ) ) ;
#844 = ORIENTED_EDGE ( 'NONE', *, *, #1335, .F. ) ;
#845 = AXIS2_PLACEMENT_3D ( 'NONE', #417, #364, #124 ) ;
#846 = EDGE_CURVE ( 'NONE', #750, #258, #697, .T. ) ;
#847 = DIRECTION ( 'NONE',  ( -1.000000000000000000, -0.000000000000000000, -0.000000000000000000 ) ) ;
#848 = VECTOR ( 'NONE', #796, 39.37007874015748143 ) ;
#849 = CYLINDRICAL_SURFACE ( 'NONE', #738, 0.1139999999999999347 ) ;
#850 = EDGE_LOOP ( 'NONE', ( #779, #39, #1195, #128 ) ) ;
#851 = CARTESIAN_POINT ( 'NONE',  ( 8.269999999999994245, 0.000000000000000000, -0.6300393700787404461 ) ) ;
#852 = LINE ( 'NONE', #728, #297 ) ;
#853 = ORIENTED_EDGE ( 'NONE', *, *, #394, .F. ) ;
#854 = PLANE ( 'NONE',  #1344 ) ;
#855 = FACE_OUTER_BOUND ( 'NONE', #850, .T. ) ;
#856 = ADVANCED_FACE ( 'NONE', ( #1007 ), #390, .F. ) ;
#857 = PLANE ( 'NONE',  #10 ) ;
#858 = VERTEX_POINT ( 'NONE', #72 ) ;
#859 = ORIENTED_EDGE ( 'NONE', *, *, #169, .F. ) ;
#860 = CARTESIAN_POINT ( 'NONE',  ( -6.491000000000003212, 2.380000000000000338, -0.05999999999999997696 ) ) ;
#861 = DIRECTION ( 'NONE',  ( -0.000000000000000000, -0.000000000000000000, 1.000000000000000000 ) ) ;
#862 = VERTEX_POINT ( 'NONE', #1239 ) ;
#863 = ADVANCED_FACE ( 'NONE', ( #705 ), #513, .F. ) ;
#864 = ORIENTED_EDGE ( 'NONE', *, *, #838, .F. ) ;
#865 = CARTESIAN_POINT ( 'NONE',  ( -8.485000000000001208, -4.810000000000000497, -0.05999999999999999778 ) ) ;
#866 = CIRCLE ( 'NONE', #1323, 0.1139999999999999347 ) ;
#867 = CARTESIAN_POINT ( 'NONE',  ( -8.365000000000001990, -4.810000000000000497, 0.000000000000000000 ) ) ;
#868 = ORIENTED_EDGE ( 'NONE', *, *, #723, .T. ) ;
#869 = AXIS2_PLACEMENT_3D ( 'NONE', #282, #704, #609 ) ;
#870 = EDGE_CURVE ( 'NONE', #1288, #308, #402, .T. ) ;
#871 = ORIENTED_EDGE ( 'NONE', *, *, #336, .T. ) ;
#872 = DIRECTION ( 'NONE',  ( -1.000000000000000000, 0.000000000000000000, 0.000000000000000000 ) ) ;
#873 = FACE_OUTER_BOUND ( 'NONE', #1338, .T. ) ;
#874 = VERTEX_POINT ( 'NONE', #397 ) ;
#875 = LINE ( 'NONE', #694, #733 ) ;
#876 = EDGE_CURVE ( 'NONE', #1249, #312, #298, .T. ) ;
#877 = ORIENTED_EDGE ( 'NONE', *, *, #746, .T. ) ;
#878 = CARTESIAN_POINT ( 'NONE',  ( 8.174999999999995381, 0.000000000000000000, -0.6300393700787404461 ) ) ;
#879 = EDGE_CURVE ( 'NONE', #382, #962, #913, .T. ) ;
#880 = DIRECTION ( 'NONE',  ( 0.000000000000000000, 0.000000000000000000, -1.000000000000000000 ) ) ;
#881 = ORIENTED_EDGE ( 'NONE', *, *, #1209, .F. ) ;
#882 = DIRECTION ( 'NONE',  ( -0.000000000000000000, -0.000000000000000000, 1.000000000000000000 ) ) ;
#883 = EDGE_LOOP ( 'NONE', ( #363, #114, #1142, #332 ) ) ;
#884 =( CONVERSION_BASED_UNIT ( 'INCH', #477 ) LENGTH_UNIT ( ) NAMED_UNIT ( #287 ) );
#885 = CARTESIAN_POINT ( 'NONE',  ( -8.295000000000001705, 5.000000000000000000, -0.05999999999999978961 ) ) ;
#886 = EDGE_CURVE ( 'NONE', #889, #770, #521, .T. ) ;
#887 = CARTESIAN_POINT ( 'NONE',  ( -8.294999999999999929, -5.000000000000002665, -0.6300000000000000044 ) ) ;
#888 = VECTOR ( 'NONE', #201, 39.37007874015748143 ) ;
#889 = VERTEX_POINT ( 'NONE', #836 ) ;
#890 = VECTOR ( 'NONE', #1287, 39.37007874015748143 ) ;
#891 = CARTESIAN_POINT ( 'NONE',  ( -6.605000000000003091, 2.380000000000000338, -0.05999999999999997696 ) ) ;
#892 = ORIENTED_EDGE ( 'NONE', *, *, #352, .T. ) ;
#893 = FACE_OUTER_BOUND ( 'NONE', #827, .T. ) ;
#894 = DIRECTION ( 'NONE',  ( -1.000000000000000000, 0.000000000000000000, 0.000000000000000000 ) ) ;
#895 = EDGE_CURVE ( 'NONE', #1069, #917, #1235, .T. ) ;
#896 = ORIENTED_EDGE ( 'NONE', *, *, #1019, .T. ) ;
#897 = FACE_OUTER_BOUND ( 'NONE', #766, .T. ) ;
#898 = VERTEX_POINT ( 'NONE', #1133 ) ;
#899 = CARTESIAN_POINT ( 'NONE',  ( -8.295000000000001705, 4.810000000000000497, -0.06003937007874015491 ) ) ;
#900 = PLANE ( 'NONE',  #1148 ) ;
#901 = DIRECTION ( 'NONE',  ( 3.834172622686683600E-15, 3.834172622686683600E-15, 1.000000000000000000 ) ) ;
#902 = EDGE_LOOP ( 'NONE', ( #647, #650, #680, #556 ) ) ;
#903 = DIRECTION ( 'NONE',  ( -0.000000000000000000, 1.000000000000000000, -0.000000000000000000 ) ) ;
#904 = VECTOR ( 'NONE', #1313, 39.37007874015748143 ) ;
#905 = DIRECTION ( 'NONE',  ( -0.000000000000000000, -0.000000000000000000, 1.000000000000000000 ) ) ;
#906 = MECHANICAL_DESIGN_GEOMETRIC_PRESENTATION_REPRESENTATION (  '', ( #253 ), #1213 ) ;
#907 = VECTOR ( 'NONE', #1143, 39.37007874015748143 ) ;
#908 = ORIENTED_EDGE ( 'NONE', *, *, #259, .T. ) ;
#909 = ADVANCED_FACE ( 'NONE', ( #289 ), #284, .F. ) ;
#910 = CIRCLE ( 'NONE', #676, 0.09499999999999994560 ) ;
#911 = CARTESIAN_POINT ( 'NONE',  ( -8.485000000000004761, -4.809999999999999609, -0.6300000000000000044 ) ) ;
#912 = CARTESIAN_POINT ( 'NONE',  ( -8.365000000000001990, 4.809999999999999609, -0.1200000000000000372 ) ) ;
#913 = LINE ( 'NONE', #934, #1066 ) ;
#914 = DIRECTION ( 'NONE',  ( 0.000000000000000000, -0.000000000000000000, -1.000000000000000000 ) ) ;
#915 = EDGE_LOOP ( 'NONE', ( #367, #218 ) ) ;
#916 = ADVANCED_FACE ( 'NONE', ( #1117 ), #500, .F. ) ;
#917 = VERTEX_POINT ( 'NONE', #813 ) ;
#918 = DIRECTION ( 'NONE',  ( -0.000000000000000000, -0.000000000000000000, 1.000000000000000000 ) ) ;
#919 = APPLICATION_CONTEXT ( 'automotive_design' ) ;
#920 = CARTESIAN_POINT ( 'NONE',  ( 8.079999999999996518, -3.500000000000000444, -0.6300393700787404461 ) ) ;
#921 = CARTESIAN_POINT ( 'NONE',  ( 8.174999999999995381, 0.000000000000000000, -0.05999999999999997696 ) ) ;
#922 = VERTEX_POINT ( 'NONE', #492 ) ;
#923 = ORIENTED_EDGE ( 'NONE', *, *, #531, .F. ) ;
#924 = CARTESIAN_POINT ( 'NONE',  ( -8.295000000000001705, -5.000000000000000000, -0.06003937007874015491 ) ) ;
#925 = EDGE_CURVE ( 'NONE', #917, #202, #1034, .T. ) ;
#926 = FACE_OUTER_BOUND ( 'NONE', #456, .T. ) ;
#927 = CIRCLE ( 'NONE', #1254, 0.1139999999999999347 ) ;
#928 = DIRECTION ( 'NONE',  ( 0.000000000000000000, -1.000000000000000000, 0.000000000000000000 ) ) ;
#929 = VECTOR ( 'NONE', #174, 39.37007874015748143 ) ;
#930 = ORIENTED_EDGE ( 'NONE', *, *, #195, .F. ) ;
#931 = VECTOR ( 'NONE', #777, 39.37007874015748143 ) ;
#932 = PLANE ( 'NONE',  #1145 ) ;
#933 = AXIS2_PLACEMENT_3D ( 'NONE', #1184, #142, #986 ) ;
#934 = CARTESIAN_POINT ( 'NONE',  ( -8.295000000000001705, 5.000000000000000000, 0.000000000000000000 ) ) ;
#935 = EDGE_CURVE ( 'NONE', #957, #1161, #416, .T. ) ;
#936 = DIRECTION ( 'NONE',  ( 0.000000000000000000, -1.000000000000000000, 0.000000000000000000 ) ) ;
#937 = ORIENTED_EDGE ( 'NONE', *, *, #762, .F. ) ;
#938 = CARTESIAN_POINT ( 'NONE',  ( -8.294999999999998153, -4.940000000000000391, -0.1199999999999998151 ) ) ;
#939 = FACE_BOUND ( 'NONE', #442, .T. ) ;
#940 = EDGE_CURVE ( 'NONE', #323, #1177, #602, .T. ) ;
#941 = ORIENTED_EDGE ( 'NONE', *, *, #754, .T. ) ;
#942 = LINE ( 'NONE', #683, #518 ) ;
#943 = DIRECTION ( 'NONE',  ( -3.834172622686683600E-15, -9.585431556716708999E-16, -1.000000000000000000 ) ) ;
#944 = CARTESIAN_POINT ( 'NONE',  ( -8.295000000000001705, 4.940000000000000391, -0.1199999999999998151 ) ) ;
#945 = VERTEX_POINT ( 'NONE', #612 ) ;
#946 = DIRECTION ( 'NONE',  ( -5.751258934030031316E-15, 1.000000000000000000, 0.000000000000000000 ) ) ;
#947 = ADVANCED_FACE ( 'NONE', ( #1023 ), #1330, .F. ) ;
#948 = ORIENTED_EDGE ( 'NONE', *, *, #1027, .T. ) ;
#949 = CARTESIAN_POINT ( 'NONE',  ( -8.294999999999998153, -4.880000000000000782, -0.06000000000000012962 ) ) ;
#950 = AXIS2_PLACEMENT_3D ( 'NONE', #688, #58, #485 ) ;
#951 = CARTESIAN_POINT ( 'NONE',  ( 8.484999999999995879, -4.940000000000000391, -0.06000000000000001860 ) ) ;
#952 =( GEOMETRIC_REPRESENTATION_CONTEXT ( 3 ) GLOBAL_UNCERTAINTY_ASSIGNED_CONTEXT ( ( #310 ) ) GLOBAL_UNIT_ASSIGNED_CONTEXT ( ( #400, #383, #1291 ) ) REPRESENTATION_CONTEXT ( 'NONE', 'WORKASPACE' ) );
#953 = CARTESIAN_POINT ( 'NONE',  ( 8.484999999999995879, 4.880000000000000782, -0.06000000000000012962 ) ) ;
#954 = ORIENTED_EDGE ( 'NONE', *, *, #658, .T. ) ;
#955 = PLANE ( 'NONE',  #1015 ) ;
#956 = DIRECTION ( 'NONE',  ( 1.000000000000000000, 0.000000000000000000, 0.000000000000000000 ) ) ;
#957 = VERTEX_POINT ( 'NONE', #830 ) ;
#958 = EDGE_CURVE ( 'NONE', #765, #414, #307, .T. ) ;
#959 = DIRECTION ( 'NONE',  ( -1.000000000000000000, 0.000000000000000000, 0.000000000000000000 ) ) ;
#960 = FACE_OUTER_BOUND ( 'NONE', #1284, .T. ) ;
#961 = ORIENTED_EDGE ( 'NONE', *, *, #1209, .T. ) ;
#962 = VERTEX_POINT ( 'NONE', #1357 ) ;
#963 = DIRECTION ( 'NONE',  ( 1.320908068194002480E-30, -1.000000000000000000, 3.835990623682900600E-15 ) ) ;
#964 = FACE_BOUND ( 'NONE', #1137, .T. ) ;
#965 = EDGE_CURVE ( 'NONE', #249, #20, #1041, .T. ) ;
#966 = ORIENTED_EDGE ( 'NONE', *, *, #423, .F. ) ;
#967 = APPLICATION_CONTEXT ( 'automotive_design' ) ;
#968 = VERTEX_POINT ( 'NONE', #860 ) ;
#969 = DIRECTION ( 'NONE',  ( -0.000000000000000000, -0.000000000000000000, 1.000000000000000000 ) ) ;
#970 = CIRCLE ( 'NONE', #950, 0.09499999999999994560 ) ;
#971 = VECTOR ( 'NONE', #646, 39.37007874015748143 ) ;
#972 = DIRECTION ( 'NONE',  ( 1.000000000000000000, 0.000000000000000000, 0.000000000000000000 ) ) ;
#973 = ORIENTED_EDGE ( 'NONE', *, *, #203, .T. ) ;
#974 = LINE ( 'NONE', #771, #735 ) ;
#975 = AXIS2_PLACEMENT_3D ( 'NONE', #188, #167, #715 ) ;
#976 = ADVANCED_FACE ( 'NONE', ( #1166 ), #420, .F. ) ;
#977 = LINE ( 'NONE', #1053, #1321 ) ;
#978 = ORIENTED_EDGE ( 'NONE', *, *, #512, .T. ) ;
#979 = CARTESIAN_POINT ( 'NONE',  ( 8.079999999999994742, 1.163414459189983279E-17, -0.6300393700787404461 ) ) ;
#980 = DIRECTION ( 'NONE',  ( 3.346735540503448210E-30, -1.000000000000000000, 9.585431556716708999E-16 ) ) ;
#981 = CARTESIAN_POINT ( 'NONE',  ( -8.295000000000001705, 4.940000000000000391, -0.06000000000000001860 ) ) ;
#982 = ORIENTED_EDGE ( 'NONE', *, *, #992, .T. ) ;
#983 = CARTESIAN_POINT ( 'NONE',  ( -8.425000000000004263, -4.809999999999999609, -0.6300000000000002265 ) ) ;
#984 = ORIENTED_EDGE ( 'NONE', *, *, #1185, .F. ) ;
#985 = EDGE_CURVE ( 'NONE', #1304, #957, #17, .T. ) ;
#986 = DIRECTION ( 'NONE',  ( 0.000000000000000000, 0.000000000000000000, 1.000000000000000000 ) ) ;
#987 = LINE ( 'NONE', #56, #255 ) ;
#988 = ORIENTED_EDGE ( 'NONE', *, *, #119, .T. ) ;
#989 = SURFACE_STYLE_FILL_AREA ( #681 ) ;
#990 = CARTESIAN_POINT ( 'NONE',  ( 8.484999999999994102, -4.940000000000000391, -0.1199999999999998151 ) ) ;
#991 = ORIENTED_EDGE ( 'NONE', *, *, #2, .T. ) ;
#992 = EDGE_CURVE ( 'NONE', #642, #451, #214, .T. ) ;
#993 = DIRECTION ( 'NONE',  ( 0.000000000000000000, 0.000000000000000000, 1.000000000000000000 ) ) ;
#994 = DIRECTION ( 'NONE',  ( -0.000000000000000000, -0.000000000000000000, 1.000000000000000000 ) ) ;
#995 = AXIS2_PLACEMENT_3D ( 'NONE', #743, #1157, #551 ) ;
#996 = ORIENTED_EDGE ( 'NONE', *, *, #381, .F. ) ;
#997 = CIRCLE ( 'NONE', #547, 0.09499999999999994560 ) ;
#998 = DIRECTION ( 'NONE',  ( 3.834172622686683600E-15, -3.834172622686683600E-15, 1.000000000000000000 ) ) ;
#999 = AXIS2_PLACEMENT_3D ( 'NONE', #426, #847, #1299 ) ;
#1000 = ORIENTED_EDGE ( 'NONE', *, *, #658, .F. ) ;
#1001 = CARTESIAN_POINT ( 'NONE',  ( -7.985000000000002096, 0.000000000000000000, -0.05999999999999997696 ) ) ;
#1002 = DIRECTION ( 'NONE',  ( 0.000000000000000000, -1.000000000000000000, 0.000000000000000000 ) ) ;
#1003 = EDGE_CURVE ( 'NONE', #862, #858, #997, .T. ) ;
#1004 = CARTESIAN_POINT ( 'NONE',  ( 0.000000000000000000, 0.000000000000000000, 0.000000000000000000 ) ) ;
#1005 = ORIENTED_EDGE ( 'NONE', *, *, #1060, .T. ) ;
#1006 = DIRECTION ( 'NONE',  ( 1.000000000000000000, 0.000000000000000000, 0.000000000000000000 ) ) ;
#1007 = FACE_OUTER_BOUND ( 'NONE', #353, .T. ) ;
#1008 = EDGE_CURVE ( 'NONE', #643, #323, #737, .T. ) ;
#1009 = CARTESIAN_POINT ( 'NONE',  ( -8.485000000000004761, 0.000000000000000000, -0.6300000000000000044 ) ) ;
#1010 = EDGE_LOOP ( 'NONE', ( #476, #356, #1098, #732 ) ) ;
#1011 = DIRECTION ( 'NONE',  ( 0.000000000000000000, 3.834172622686683600E-15, -1.000000000000000000 ) ) ;
#1012 = DIRECTION ( 'NONE',  ( 2.802596928649634142E-45, -1.000000000000000000, -3.491481338843133750E-15 ) ) ;
#1013 = CARTESIAN_POINT ( 'NONE',  ( -6.605000000000003091, -2.379999999999999893, 0.000000000000000000 ) ) ;
#1014 = DIRECTION ( 'NONE',  ( -1.000000000000000000, 0.000000000000000000, 0.000000000000000000 ) ) ;
#1015 = AXIS2_PLACEMENT_3D ( 'NONE', #1140, #625, #524 ) ;
#1016 = EDGE_CURVE ( 'NONE', #968, #750, #340, .T. ) ;
#1017 = AXIS2_PLACEMENT_3D ( 'NONE', #786, #355, #1200 ) ;
#1018 = ORIENTED_EDGE ( 'NONE', *, *, #175, .T. ) ;
#1019 = EDGE_CURVE ( 'NONE', #765, #1105, #1251, .T. ) ;
#1020 = VECTOR ( 'NONE', #744, 39.37007874015748143 ) ;
#1021 = FACE_OUTER_BOUND ( 'NONE', #1091, .T. ) ;
#1022 = ORIENTED_EDGE ( 'NONE', *, *, #453, .F. ) ;
#1023 = FACE_OUTER_BOUND ( 'NONE', #1010, .T. ) ;
#1024 = LINE ( 'NONE', #385, #116 ) ;
#1025 = ORIENTED_EDGE ( 'NONE', *, *, #512, .F. ) ;
#1026 = DIRECTION ( 'NONE',  ( 0.000000000000000000, 0.000000000000000000, 1.000000000000000000 ) ) ;
#1027 = EDGE_CURVE ( 'NONE', #234, #1208, #220, .T. ) ;
#1028 = EDGE_LOOP ( 'NONE', ( #1132, #1000, #637, #64 ) ) ;
#1029 = CARTESIAN_POINT ( 'NONE',  ( 8.484999999999995879, 4.880000000000000782, -0.1200000000000000372 ) ) ;
#1030 = LINE ( 'NONE', #851, #73 ) ;
#1031 = CARTESIAN_POINT ( 'NONE',  ( -8.365000000000001990, 4.809999999999999609, -0.1200000000000000372 ) ) ;
#1032 = ORIENTED_EDGE ( 'NONE', *, *, #352, .F. ) ;
#1033 = CARTESIAN_POINT ( 'NONE',  ( -8.365000000000001990, 4.809999999999999609, -0.1200000000000000372 ) ) ;
#1034 = LINE ( 'NONE', #597, #1039 ) ;
#1035 = LINE ( 'NONE', #103, #206 ) ;
#1036 = AXIS2_PLACEMENT_3D ( 'NONE', #1354, #622, #1040 ) ;
#1037 = VERTEX_POINT ( 'NONE', #25 ) ;
#1038 = EDGE_LOOP ( 'NONE', ( #984, #1189, #540, #133 ) ) ;
#1039 = VECTOR ( 'NONE', #93, 39.37007874015748143 ) ;
#1040 = DIRECTION ( 'NONE',  ( 1.000000000000000000, 0.000000000000000000, 0.000000000000000000 ) ) ;
#1041 = LINE ( 'NONE', #204, #182 ) ;
#1042 = ADVANCED_FACE ( 'NONE', ( #855 ), #645, .T. ) ;
#1043 = LINE ( 'NONE', #1265, #452 ) ;
#1044 = ORIENTED_EDGE ( 'NONE', *, *, #136, .T. ) ;
#1045 = ORIENTED_EDGE ( 'NONE', *, *, #992, .F. ) ;
#1046 = DIRECTION ( 'NONE',  ( 1.320908068194002480E-30, 1.000000000000000000, 3.835990623682900600E-15 ) ) ;
#1047 = CARTESIAN_POINT ( 'NONE',  ( -8.294999999999998153, -5.000000000000000000, 5.118481389895004235E-14 ) ) ;
#1048 = FACE_OUTER_BOUND ( 'NONE', #1028, .T. ) ;
#1049 = CYLINDRICAL_SURFACE ( 'NONE', #629, 0.05999999999999990757 ) ;
#1050 = ADVANCED_FACE ( 'NONE', ( #1269 ), #1072, .F. ) ;
#1051 = FACE_OUTER_BOUND ( 'NONE', #23, .T. ) ;
#1052 = ORIENTED_EDGE ( 'NONE', *, *, #1345, .F. ) ;
#1053 = CARTESIAN_POINT ( 'NONE',  ( -6.491000000000003212, -2.379999999999999893, -0.6300393700787404461 ) ) ;
#1054 = DIRECTION ( 'NONE',  ( 1.000000000000000000, 0.000000000000000000, 0.000000000000000000 ) ) ;
#1055 = CARTESIAN_POINT ( 'NONE',  ( -8.365000000000001990, -4.810000000000000497, -0.05999999999999999778 ) ) ;
#1056 = CARTESIAN_POINT ( 'NONE',  ( -6.491000000000003212, -2.379999999999999893, -0.05999999999999997696 ) ) ;
#1057 = EDGE_LOOP ( 'NONE', ( #1332, #1314, #7, #871 ) ) ;
#1058 = LINE ( 'NONE', #837, #388 ) ;
#1059 = FACE_OUTER_BOUND ( 'NONE', #1319, .T. ) ;
#1060 = EDGE_CURVE ( 'NONE', #202, #962, #326, .T. ) ;
#1061 = VECTOR ( 'NONE', #834, 39.37007874015748143 ) ;
#1062 = ORIENTED_EDGE ( 'NONE', *, *, #1241, .T. ) ;
#1063 = LINE ( 'NONE', #1165, #1104 ) ;
#1064 = VECTOR ( 'NONE', #40, 39.37007874015748143 ) ;
#1065 = CARTESIAN_POINT ( 'NONE',  ( 0.000000000000000000, 5.000000000000000000, 1.938035199376400868E-14 ) ) ;
#1066 = VECTOR ( 'NONE', #903, 39.37007874015748143 ) ;
#1067 = AXIS2_PLACEMENT_3D ( 'NONE', #1309, #487, #53 ) ;
#1068 = LINE ( 'NONE', #1252, #1128 ) ;
#1069 = VERTEX_POINT ( 'NONE', #1173 ) ;
#1070 = ORIENTED_EDGE ( 'NONE', *, *, #1118, .F. ) ;
#1071 = ADVANCED_FACE ( 'NONE', ( #638 ), #553, .F. ) ;
#1072 = PLANE ( 'NONE',  #801 ) ;
#1073 = PLANE ( 'NONE',  #543 ) ;
#1074 = ORIENTED_EDGE ( 'NONE', *, *, #345, .F. ) ;
#1075 = ORIENTED_EDGE ( 'NONE', *, *, #489, .F. ) ;
#1076 = FACE_OUTER_BOUND ( 'NONE', #306, .T. ) ;
#1077 = EDGE_CURVE ( 'NONE', #722, #339, #228, .T. ) ;
#1078 = FACE_OUTER_BOUND ( 'NONE', #281, .T. ) ;
#1079 = ORIENTED_EDGE ( 'NONE', *, *, #870, .T. ) ;
#1080 = ORIENTED_EDGE ( 'NONE', *, *, #531, .T. ) ;
#1081 = DIRECTION ( 'NONE',  ( -0.000000000000000000, 0.000000000000000000, 1.000000000000000000 ) ) ;
#1082 = VECTOR ( 'NONE', #67, 39.37007874015748143 ) ;
#1083 = VECTOR ( 'NONE', #319, 39.37007874015748143 ) ;
#1084 = FACE_BOUND ( 'NONE', #666, .T. ) ;
#1085 = ORIENTED_EDGE ( 'NONE', *, *, #54, .T. ) ;
#1086 = AXIS2_PLACEMENT_3D ( 'NONE', #691, #969, #155 ) ;
#1087 = PLANE ( 'NONE',  #272 ) ;
#1088 = VERTEX_POINT ( 'NONE', #123 ) ;
#1089 = DIRECTION ( 'NONE',  ( -0.000000000000000000, -0.000000000000000000, 1.000000000000000000 ) ) ;
#1090 = FACE_OUTER_BOUND ( 'NONE', #92, .T. ) ;
#1091 = EDGE_LOOP ( 'NONE', ( #713, #859, #1122, #166 ) ) ;
#1092 = SURFACE_STYLE_USAGE ( .BOTH. , #572 ) ;
#1093 = DIRECTION ( 'NONE',  ( -1.000000000000000000, 0.000000000000000000, 0.000000000000000000 ) ) ;
#1094 = EDGE_CURVE ( 'NONE', #1208, #662, #237, .T. ) ;
#1095 = ORIENTED_EDGE ( 'NONE', *, *, #1271, .T. ) ;
#1096 = CARTESIAN_POINT ( 'NONE',  ( 8.484999999999994102, -5.000000000000000000, -0.1199999999999995792 ) ) ;
#1097 = CARTESIAN_POINT ( 'NONE',  ( 8.174999999999997158, 3.500000000000000444, -0.05999999999999997696 ) ) ;
#1098 = ORIENTED_EDGE ( 'NONE', *, *, #453, .T. ) ;
#1099 = PLANE ( 'NONE',  #1279 ) ;
#1100 = EDGE_LOOP ( 'NONE', ( #43, #1052, #1207, #1147 ) ) ;
#1101 = DIRECTION ( 'NONE',  ( -0.000000000000000000, -0.000000000000000000, 1.000000000000000000 ) ) ;
#1102 = EDGE_CURVE ( 'NONE', #1288, #642, #106, .T. ) ;
#1103 = LINE ( 'NONE', #384, #1324 ) ;
#1104 = VECTOR ( 'NONE', #772, 39.37007874015748143 ) ;
#1105 = VERTEX_POINT ( 'NONE', #1055 ) ;
#1106 = CIRCLE ( 'NONE', #498, 0.05999999999999990757 ) ;
#1107 = AXIS2_PLACEMENT_3D ( 'NONE', #278, #562, #459 ) ;
#1108 = CARTESIAN_POINT ( 'NONE',  ( -6.605000000000003091, 2.380000000000000338, -0.05999999999999997696 ) ) ;
#1109 = AXIS2_PLACEMENT_3D ( 'NONE', #1001, #1089, #872 ) ;
#1110 = ORIENTED_EDGE ( 'NONE', *, *, #736, .F. ) ;
#1111 = DIRECTION ( 'NONE',  ( -3.834172622686683600E-15, 3.834172622686683600E-15, -1.000000000000000000 ) ) ;
#1112 = EDGE_CURVE ( 'NONE', #962, #486, #634, .T. ) ;
#1113 = CARTESIAN_POINT ( 'NONE',  ( -8.295000000000001705, 4.810000000000000497, -0.05999999999999999778 ) ) ;
#1114 = DIRECTION ( 'NONE',  ( -0.000000000000000000, -0.000000000000000000, 1.000000000000000000 ) ) ;
#1115 = ORIENTED_EDGE ( 'NONE', *, *, #250, .T. ) ;
#1116 = CARTESIAN_POINT ( 'NONE',  ( 8.079999999999996518, 3.500000000000000444, -0.6300393700787404461 ) ) ;
#1117 = FACE_OUTER_BOUND ( 'NONE', #296, .T. ) ;
#1118 = EDGE_CURVE ( 'NONE', #819, #382, #134, .T. ) ;
#1119 =( NAMED_UNIT ( * ) SI_UNIT ( $, .STERADIAN. ) SOLID_ANGLE_UNIT ( ) );
#1120 = EDGE_CURVE ( 'NONE', #858, #862, #910, .T. ) ;
#1121 = DIRECTION ( 'NONE',  ( -1.000000000000000000, 1.338694216201379284E-29, 3.834172622686683600E-15 ) ) ;
#1122 = ORIENTED_EDGE ( 'NONE', *, *, #985, .F. ) ;
#1123 = DIRECTION ( 'NONE',  ( 1.000000000000000000, -0.000000000000000000, -0.000000000000000000 ) ) ;
#1124 = CARTESIAN_POINT ( 'NONE',  ( -8.295000000000003482, 5.000000000000002665, -0.6300000000000000044 ) ) ;
#1125 = AXIS2_PLACEMENT_3D ( 'NONE', #891, #789, #1306 ) ;
#1126 = CARTESIAN_POINT ( 'NONE',  ( -8.295000000000003482, 4.940000000000000391, -0.1199999999999998151 ) ) ;
#1127 = CARTESIAN_POINT ( 'NONE',  ( -7.829000000000002402, 0.000000000000000000, -0.6300393700787404461 ) ) ;
#1128 = VECTOR ( 'NONE', #321, 39.37007874015748143 ) ;
#1129 = EDGE_CURVE ( 'NONE', #258, #750, #76, .T. ) ;
#1130 = AXIS2_PLACEMENT_3D ( 'NONE', #618, #918, #409 ) ;
#1131 = VERTEX_POINT ( 'NONE', #669 ) ;
#1132 = ORIENTED_EDGE ( 'NONE', *, *, #445, .F. ) ;
#1133 = CARTESIAN_POINT ( 'NONE',  ( 8.079999999999996518, -3.500000000000000444, -0.05999999999999997696 ) ) ;
#1134 = DIRECTION ( 'NONE',  ( -0.000000000000000000, 1.000000000000000000, -0.000000000000000000 ) ) ;
#1135 = LINE ( 'NONE', #824, #179 ) ;
#1136 = ADVANCED_FACE ( 'NONE', ( #47 ), #377, .T. ) ;
#1137 = EDGE_LOOP ( 'NONE', ( #672, #1080 ) ) ;
#1138 = CARTESIAN_POINT ( 'NONE',  ( -6.491000000000003212, -2.379999999999999893, 0.000000000000000000 ) ) ;
#1139 = DIRECTION ( 'NONE',  ( -0.000000000000000000, -0.000000000000000000, 1.000000000000000000 ) ) ;
#1140 = CARTESIAN_POINT ( 'NONE',  ( 0.000000000000000000, -5.000000000000000000, 1.938035199376400868E-14 ) ) ;
#1141 = CARTESIAN_POINT ( 'NONE',  ( 8.079999999999994742, 1.163414459189982046E-17, -0.05999999999999997696 ) ) ;
#1142 = ORIENTED_EDGE ( 'NONE', *, *, #573, .T. ) ;
#1143 = DIRECTION ( 'NONE',  ( 0.000000000000000000, 0.000000000000000000, 1.000000000000000000 ) ) ;
#1144 = DIRECTION ( 'NONE',  ( 0.000000000000000000, 0.000000000000000000, 1.000000000000000000 ) ) ;
#1145 = AXIS2_PLACEMENT_3D ( 'NONE', #528, #1350, #415 ) ;
#1146 = VECTOR ( 'NONE', #8, 39.37007874015748143 ) ;
#1147 = ORIENTED_EDGE ( 'NONE', *, *, #879, .T. ) ;
#1148 = AXIS2_PLACEMENT_3D ( 'NONE', #488, #797, #1211 ) ;
#1149 = ORIENTED_EDGE ( 'NONE', *, *, #1112, .F. ) ;
#1150 = VECTOR ( 'NONE', #678, 39.37007874015748143 ) ;
#1151 = FACE_OUTER_BOUND ( 'NONE', #1038, .T. ) ;
#1152 = CARTESIAN_POINT ( 'NONE',  ( -8.485000000000001208, 4.809999999999999609, 2.813185100504637199E-14 ) ) ;
#1153 = EDGE_CURVE ( 'NONE', #202, #656, #432, .T. ) ;
#1154 = CARTESIAN_POINT ( 'NONE',  ( -8.295000000000001705, -5.000000000000002665, -0.6300000000000000044 ) ) ;
#1155 = DIRECTION ( 'NONE',  ( -3.834172622686683600E-15, 0.000000000000000000, -1.000000000000000000 ) ) ;
#1156 = ORIENTED_EDGE ( 'NONE', *, *, #1016, .F. ) ;
#1157 = DIRECTION ( 'NONE',  ( -0.000000000000000000, -0.000000000000000000, 1.000000000000000000 ) ) ;
#1158 = DIRECTION ( 'NONE',  ( 1.000000000000000000, 0.000000000000000000, 0.000000000000000000 ) ) ;
#1159 = DIRECTION ( 'NONE',  ( -0.000000000000000000, -0.000000000000000000, 1.000000000000000000 ) ) ;
#1160 = EDGE_CURVE ( 'NONE', #339, #957, #700, .T. ) ;
#1161 = VERTEX_POINT ( 'NONE', #1096 ) ;
#1162 = DIRECTION ( 'NONE',  ( 1.000000000000000000, 0.000000000000000000, -0.000000000000000000 ) ) ;
#1163 = LINE ( 'NONE', #741, #888 ) ;
#1164 = ORIENTED_EDGE ( 'NONE', *, *, #879, .F. ) ;
#1165 = CARTESIAN_POINT ( 'NONE',  ( -6.719000000000002970, 2.380000000000000338, -0.6300393700787404461 ) ) ;
#1166 = FACE_OUTER_BOUND ( 'NONE', #81, .T. ) ;
#1167 = DIRECTION ( 'NONE',  ( 0.000000000000000000, -0.000000000000000000, 1.000000000000000000 ) ) ;
#1168 = ORIENTED_EDGE ( 'NONE', *, *, #16, .F. ) ;
#1169 = PRESENTATION_STYLE_ASSIGNMENT (( #1092 ) ) ;
#1170 = ADVANCED_FACE ( 'NONE', ( #893 ), #1199, .F. ) ;
#1171 = VERTEX_POINT ( 'NONE', #369 ) ;
#1172 = VECTOR ( 'NONE', #721, 39.37007874015748143 ) ;
#1173 = CARTESIAN_POINT ( 'NONE',  ( 8.484999999999995879, 4.940000000000000391, -0.1199999999999998151 ) ) ;
#1174 = AXIS2_PLACEMENT_3D ( 'NONE', #1310, #994, #972 ) ;
#1175 = AXIS2_PLACEMENT_3D ( 'NONE', #878, #60, #354 ) ;
#1176 = DIRECTION ( 'NONE',  ( 0.000000000000000000, 1.000000000000000000, 0.000000000000000000 ) ) ;
#1177 = VERTEX_POINT ( 'NONE', #785 ) ;
#1178 = ADVANCED_FACE ( 'NONE', ( #791 ), #262, .F. ) ;
#1179 = ORIENTED_EDGE ( 'NONE', *, *, #438, .T. ) ;
#1180 = FACE_OUTER_BOUND ( 'NONE', #24, .T. ) ;
#1181 = LINE ( 'NONE', #243, #890 ) ;
#1182 = ORIENTED_EDGE ( 'NONE', *, *, #88, .T. ) ;
#1183 = ORIENTED_EDGE ( 'NONE', *, *, #203, .F. ) ;
#1184 = CARTESIAN_POINT ( 'NONE',  ( 8.484999999999994102, -4.880000000000000782, -0.1200000000000000372 ) ) ;
#1185 = EDGE_CURVE ( 'NONE', #1288, #1249, #480, .T. ) ;
#1186 = FACE_BOUND ( 'NONE', #254, .T. ) ;
#1187 = ORIENTED_EDGE ( 'NONE', *, *, #318, .F. ) ;
#1188 = CARTESIAN_POINT ( 'NONE',  ( -8.294999999999998153, -4.940000000000000391, -0.1199999999999998151 ) ) ;
#1189 = ORIENTED_EDGE ( 'NONE', *, *, #1102, .T. ) ;
#1190 = AXIS2_PLACEMENT_3D ( 'NONE', #44, #1093, #425 ) ;
#1191 = LINE ( 'NONE', #256, #1150 ) ;
#1192 = CIRCLE ( 'NONE', #389, 0.09499999999999994560 ) ;
#1193 = LINE ( 'NONE', #981, #346 ) ;
#1194 = ADVANCED_FACE ( 'NONE', ( #1076 ), #246, .F. ) ;
#1195 = ORIENTED_EDGE ( 'NONE', *, *, #698, .T. ) ;
#1196 = FACE_OUTER_BOUND ( 'NONE', #267, .T. ) ;
#1197 = APPLICATION_PROTOCOL_DEFINITION ( 'draft international standard', 'automotive_design', 1998, #967 ) ;
#1198 = ORIENTED_EDGE ( 'NONE', *, *, #1301, .T. ) ;
#1199 = PLANE ( 'NONE',  #457 ) ;
#1200 = DIRECTION ( 'NONE',  ( 0.000000000000000000, -0.000000000000000000, 1.000000000000000000 ) ) ;
#1201 = ORIENTED_EDGE ( 'NONE', *, *, #481, .F. ) ;
#1202 = LINE ( 'NONE', #1297, #778 ) ;
#1203 = EDGE_CURVE ( 'NONE', #945, #898, #370, .T. ) ;
#1204 = ORIENTED_EDGE ( 'NONE', *, *, #1241, .F. ) ;
#1205 = CARTESIAN_POINT ( 'NONE',  ( 8.174999999999997158, -3.500000000000000444, -0.6300393700787404461 ) ) ;
#1206 = FACE_BOUND ( 'NONE', #151, .T. ) ;
#1207 = ORIENTED_EDGE ( 'NONE', *, *, #1118, .T. ) ;
#1208 = VERTEX_POINT ( 'NONE', #465 ) ;
#1209 = EDGE_CURVE ( 'NONE', #874, #414, #32, .T. ) ;
#1210 = DIRECTION ( 'NONE',  ( 0.000000000000000000, 3.834172622686683600E-15, 1.000000000000000000 ) ) ;
#1211 = DIRECTION ( 'NONE',  ( 0.000000000000000000, -1.000000000000000000, 3.491481338843134539E-15 ) ) ;
#1212 = VECTOR ( 'NONE', #946, 39.37007874015748143 ) ;
#1213 =( GEOMETRIC_REPRESENTATION_CONTEXT ( 3 ) GLOBAL_UNCERTAINTY_ASSIGNED_CONTEXT ( ( #351 ) ) GLOBAL_UNIT_ASSIGNED_CONTEXT ( ( #884, #816, #1119 ) ) REPRESENTATION_CONTEXT ( 'NONE', 'WORKASPACE' ) );
#1214 = VECTOR ( 'NONE', #943, 39.37007874015748143 ) ;
#1215 = LINE ( 'NONE', #1327, #29 ) ;
#1216 = VECTOR ( 'NONE', #1111, 39.37007874015748143 ) ;
#1217 = ORIENTED_EDGE ( 'NONE', *, *, #580, .T. ) ;
#1218 = EDGE_CURVE ( 'NONE', #1088, #249, #1237, .T. ) ;
#1219 = DIRECTION ( 'NONE',  ( -1.000000000000000000, 0.000000000000000000, 0.000000000000000000 ) ) ;
#1220 = CARTESIAN_POINT ( 'NONE',  ( 8.174999999999997158, 3.500000000000000444, -0.6300393700787404461 ) ) ;
#1221 = CARTESIAN_POINT ( 'NONE',  ( 8.484999999999997655, 4.880000000000000782, -0.1200000000000000372 ) ) ;
#1222 = ORIENTED_EDGE ( 'NONE', *, *, #1293, .F. ) ;
#1223 = DIRECTION ( 'NONE',  ( -0.000000000000000000, -0.000000000000000000, 1.000000000000000000 ) ) ;
#1224 = DIRECTION ( 'NONE',  ( 1.000000000000000000, 0.000000000000000000, 0.000000000000000000 ) ) ;
#1225 = ADVANCED_FACE ( 'NONE', ( #1180 ), #1286, .F. ) ;
#1226 = CARTESIAN_POINT ( 'NONE',  ( -6.719000000000002970, -2.379999999999999893, 0.000000000000000000 ) ) ;
#1227 = ORIENTED_EDGE ( 'NONE', *, *, #1301, .F. ) ;
#1228 = CARTESIAN_POINT ( 'NONE',  ( 0.000000000000000000, -4.940000000000000391, 1.917086311343341879E-14 ) ) ;
#1229 = ORIENTED_EDGE ( 'NONE', *, *, #580, .F. ) ;
#1230 = CARTESIAN_POINT ( 'NONE',  ( 8.174999999999997158, 3.500000000000000444, -0.05999999999999997696 ) ) ;
#1231 = DIRECTION ( 'NONE',  ( 0.000000000000000000, 0.000000000000000000, 1.000000000000000000 ) ) ;
#1232 = EDGE_CURVE ( 'NONE', #213, #703, #34, .T. ) ;
#1233 = CARTESIAN_POINT ( 'NONE',  ( -8.294999999999998153, -4.880000000000000782, -0.1200000000000000372 ) ) ;
#1234 = AXIS2_PLACEMENT_3D ( 'NONE', #96, #1134, #1144 ) ;
#1235 = CIRCLE ( 'NONE', #455, 0.05999999999999988676 ) ;
#1236 = FACE_OUTER_BOUND ( 'NONE', #761, .T. ) ;
#1237 = CIRCLE ( 'NONE', #1109, 0.1560000000000001941 ) ;
#1238 = ORIENTED_EDGE ( 'NONE', *, *, #136, .F. ) ;
#1239 = CARTESIAN_POINT ( 'NONE',  ( 8.079999999999996518, 3.500000000000000444, 0.000000000000000000 ) ) ;
#1240 = FACE_OUTER_BOUND ( 'NONE', #511, .T. ) ;
#1241 = EDGE_CURVE ( 'NONE', #1208, #1161, #1191, .T. ) ;
#1242 = ORIENTED_EDGE ( 'NONE', *, *, #154, .T. ) ;
#1243 = DIRECTION ( 'NONE',  ( 1.320908068193999502E-30, -1.000000000000000000, 3.835990623682900600E-15 ) ) ;
#1244 = CARTESIAN_POINT ( 'NONE',  ( 8.174999999999995381, 0.000000000000000000, 0.000000000000000000 ) ) ;
#1245 = DIMENSIONAL_EXPONENTS ( 1.000000000000000000, 0.000000000000000000, 0.000000000000000000, 0.000000000000000000, 0.000000000000000000, 0.000000000000000000, 0.000000000000000000 ) ;
#1246 = DIRECTION ( 'NONE',  ( -0.000000000000000000, -0.000000000000000000, 1.000000000000000000 ) ) ;
#1247 = ORIENTED_EDGE ( 'NONE', *, *, #216, .T. ) ;
#1248 = EDGE_CURVE ( 'NONE', #1208, #874, #98, .T. ) ;
#1249 = VERTEX_POINT ( 'NONE', #699 ) ;
#1250 = CARTESIAN_POINT ( 'NONE',  ( -8.485000000000004761, -4.809999999999999609, -0.6300000000000000044 ) ) ;
#1251 = LINE ( 'NONE', #865, #141 ) ;
#1252 = CARTESIAN_POINT ( 'NONE',  ( -8.425000000000002487, -4.809999999999999609, -0.1199999999999998151 ) ) ;
#1253 = DIRECTION ( 'NONE',  ( -1.000000000000000000, -0.000000000000000000, -0.000000000000000000 ) ) ;
#1254 = AXIS2_PLACEMENT_3D ( 'NONE', #1108, #905, #1014 ) ;
#1255 = ORIENTED_EDGE ( 'NONE', *, *, #632, .T. ) ;
#1256 = AXIS2_PLACEMENT_3D ( 'NONE', #529, #112, #1262 ) ;
#1257 = ORIENTED_EDGE ( 'NONE', *, *, #1160, .F. ) ;
#1258 = VECTOR ( 'NONE', #497, 39.37007874015748143 ) ;
#1259 = CARTESIAN_POINT ( 'NONE',  ( -6.719000000000002970, -2.379999999999999893, -0.05999999999999997696 ) ) ;
#1260 = DIRECTION ( 'NONE',  ( 0.000000000000000000, 0.000000000000000000, 1.000000000000000000 ) ) ;
#1261 = ADVANCED_FACE ( 'NONE', ( #804 ), #708, .T. ) ;
#1262 = DIRECTION ( 'NONE',  ( 1.000000000000000000, 0.000000000000000000, 0.000000000000000000 ) ) ;
#1263 = CARTESIAN_POINT ( 'NONE',  ( -6.605000000000003091, -2.379999999999999893, -0.6300393700787404461 ) ) ;
#1264 = ORIENTED_EDGE ( 'NONE', *, *, #318, .T. ) ;
#1265 = CARTESIAN_POINT ( 'NONE',  ( -8.295000000000001705, -4.940000000000002167, -0.6300000000000002265 ) ) ;
#1266 = CYLINDRICAL_SURFACE ( 'NONE', #365, 0.05999999999999990757 ) ;
#1267 = ORIENTED_EDGE ( 'NONE', *, *, #1129, .T. ) ;
#1268 = LINE ( 'NONE', #333, #586 ) ;
#1269 = FACE_OUTER_BOUND ( 'NONE', #564, .T. ) ;
#1270 = CARTESIAN_POINT ( 'NONE',  ( 8.484999999999997655, 4.880000000000000782, -0.1200000000000000372 ) ) ;
#1271 = EDGE_CURVE ( 'NONE', #52, #574, #14, .T. ) ;
#1272 = EDGE_LOOP ( 'NONE', ( #1201, #1349, #937, #1168 ) ) ;
#1273 = ORIENTED_EDGE ( 'NONE', *, *, #494, .T. ) ;
#1274 = DIRECTION ( 'NONE',  ( 0.000000000000000000, 0.000000000000000000, -1.000000000000000000 ) ) ;
#1275 = CARTESIAN_POINT ( 'NONE',  ( -6.605000000000003091, 2.380000000000000338, -0.6300393700787404461 ) ) ;
#1276 = ORIENTED_EDGE ( 'NONE', *, *, #958, .T. ) ;
#1277 = CLOSED_SHELL ( 'NONE', ( #68, #976, #729, #863, #1225, #1071, #649, #776, #767, #247, #916, #1042, #45, #1136, #187, #327, #711, #909, #1170, #1050, #1261, #102, #470, #266, #145, #387, #38, #361, #484, #1318, #833, #598, #130, #94, #62, #1178, #615, #224, #780, #856, #1194, #947, #85, #690, #640, #592 ) ) ;
#1278 = ORIENTED_EDGE ( 'NONE', *, *, #1160, .T. ) ;
#1279 = AXIS2_PLACEMENT_3D ( 'NONE', #63, #1331, #712 ) ;
#1280 = DIRECTION ( 'NONE',  ( 1.000000000000000000, 0.000000000000000000, 0.000000000000000000 ) ) ;
#1281 = AXIS2_PLACEMENT_3D ( 'NONE', #924, #1343, #507 ) ;
#1282 = AXIS2_PLACEMENT_3D ( 'NONE', #242, #149, #1081 ) ;
#1283 = LINE ( 'NONE', #953, #971 ) ;
#1284 = EDGE_LOOP ( 'NONE', ( #896, #966, #610, #140, #687, #560, #510, #294 ) ) ;
#1285 = ORIENTED_EDGE ( 'NONE', *, *, #1120, .T. ) ;
#1286 = CYLINDRICAL_SURFACE ( 'NONE', #1175, 0.09499999999999994560 ) ;
#1287 = DIRECTION ( 'NONE',  ( 1.320908068193999502E-30, 1.000000000000000000, 3.835990623682900600E-15 ) ) ;
#1288 = VERTEX_POINT ( 'NONE', #275 ) ;
#1289 = DIRECTION ( 'NONE',  ( 3.834172622686683600E-15, -0.000000000000000000, 1.000000000000000000 ) ) ;
#1290 = FACE_OUTER_BOUND ( 'NONE', #460, .T. ) ;
#1291 =( NAMED_UNIT ( * ) SI_UNIT ( $, .STERADIAN. ) SOLID_ANGLE_UNIT ( ) );
#1292 = ORIENTED_EDGE ( 'NONE', *, *, #336, .F. ) ;
#1293 = EDGE_CURVE ( 'NONE', #614, #643, #395, .T. ) ;
#1294 = CARTESIAN_POINT ( 'NONE',  ( -6.605000000000003091, -2.379999999999999893, -0.05999999999999997696 ) ) ;
#1295 = DIRECTION ( 'NONE',  ( -0.000000000000000000, -0.000000000000000000, 1.000000000000000000 ) ) ;
#1296 = ORIENTED_EDGE ( 'NONE', *, *, #1203, .T. ) ;
#1297 = CARTESIAN_POINT ( 'NONE',  ( 8.484999999999997655, -5.000000000000000000, -0.05999999999999999778 ) ) ;
#1298 = VERTEX_POINT ( 'NONE', #616 ) ;
#1299 = DIRECTION ( 'NONE',  ( 0.000000000000000000, 0.000000000000000000, -1.000000000000000000 ) ) ;
#1300 = VECTOR ( 'NONE', #794, 39.37007874015748143 ) ;
#1301 = EDGE_CURVE ( 'NONE', #770, #862, #295, .T. ) ;
#1302 = AXIS2_PLACEMENT_3D ( 'NONE', #257, #679, #269 ) ;
#1303 = CARTESIAN_POINT ( 'NONE',  ( 8.079999999999996518, 3.500000000000000444, -0.05999999999999997696 ) ) ;
#1304 = VERTEX_POINT ( 'NONE', #288 ) ;
#1305 = EDGE_CURVE ( 'NONE', #874, #707, #406, .T. ) ;
#1306 = DIRECTION ( 'NONE',  ( -1.000000000000000000, 0.000000000000000000, 0.000000000000000000 ) ) ;
#1307 = APPLICATION_PROTOCOL_DEFINITION ( 'draft international standard', 'automotive_design', 1998, #919 ) ;
#1308 = ORIENTED_EDGE ( 'NONE', *, *, #846, .F. ) ;
#1309 = CARTESIAN_POINT ( 'NONE',  ( -6.605000000000003091, 2.380000000000000338, 0.000000000000000000 ) ) ;
#1310 = CARTESIAN_POINT ( 'NONE',  ( -6.605000000000003091, -2.379999999999999893, -0.6300393700787404461 ) ) ;
#1311 = ORIENTED_EDGE ( 'NONE', *, *, #88, .F. ) ;
#1312 = EDGE_CURVE ( 'NONE', #239, #1171, #210, .T. ) ;
#1313 = DIRECTION ( 'NONE',  ( -1.000000000000000000, -0.000000000000000000, -0.000000000000000000 ) ) ;
#1314 = ORIENTED_EDGE ( 'NONE', *, *, #940, .F. ) ;
#1315 = DIRECTION ( 'NONE',  ( 0.000000000000000000, 0.000000000000000000, -1.000000000000000000 ) ) ;
#1316 = DIRECTION ( 'NONE',  ( -3.111507638930571544E-61, 1.000000000000000000, -3.491481338843134539E-15 ) ) ;
#1317 = CARTESIAN_POINT ( 'NONE',  ( -8.425000000000004263, 4.809999999999999609, -0.6300000000000002265 ) ) ;
#1318 = ADVANCED_FACE ( 'NONE', ( #1021 ), #596, .T. ) ;
#1319 = EDGE_LOOP ( 'NONE', ( #923, #286, #462, #424 ) ) ;
#1320 = CARTESIAN_POINT ( 'NONE',  ( -8.294999999999998153, -4.880000000000000782, -0.1200000000000000372 ) ) ;
#1321 = VECTOR ( 'NONE', #111, 39.37007874015748143 ) ;
#1322 = DIRECTION ( 'NONE',  ( 0.000000000000000000, 0.000000000000000000, -1.000000000000000000 ) ) ;
#1323 = AXIS2_PLACEMENT_3D ( 'NONE', #1013, #1231, #624 ) ;
#1324 = VECTOR ( 'NONE', #163, 39.37007874015748143 ) ;
#1325 = DIRECTION ( 'NONE',  ( 1.000000000000000000, 0.000000000000000000, 0.000000000000000000 ) ) ;
#1326 = AXIS2_PLACEMENT_3D ( 'NONE', #1228, #172, #1210 ) ;
#1327 = CARTESIAN_POINT ( 'NONE',  ( -8.295000000000001705, 5.000000000000000000, 5.118481389895005497E-14 ) ) ;
#1328 = ORIENTED_EDGE ( 'NONE', *, *, #290, .F. ) ;
#1329 = FACE_OUTER_BOUND ( 'NONE', #99, .T. ) ;
#1330 = CYLINDRICAL_SURFACE ( 'NONE', #1130, 0.09499999999999994560 ) ;
#1331 = DIRECTION ( 'NONE',  ( 1.000000000000000000, 0.000000000000000000, -0.000000000000000000 ) ) ;
#1332 = ORIENTED_EDGE ( 'NONE', *, *, #16, .T. ) ;
#1333 = LENGTH_MEASURE_WITH_UNIT ( LENGTH_MEASURE( 0.02539999999999999897 ), #504 );
#1334 = ORIENTED_EDGE ( 'NONE', *, *, #372, .T. ) ;
#1335 = EDGE_CURVE ( 'NONE', #1171, #239, #322, .T. ) ;
#1336 = CARTESIAN_POINT ( 'NONE',  ( -8.425000000000004263, 4.809999999999998721, -0.6300000000000002265 ) ) ;
#1337 = DIRECTION ( 'NONE',  ( -0.000000000000000000, -0.000000000000000000, 1.000000000000000000 ) ) ;
#1338 = EDGE_LOOP ( 'NONE', ( #991, #693, #881, #373, #273, #1115, #1164, #153 ) ) ;
#1339 = DIRECTION ( 'NONE',  ( 0.000000000000000000, 0.000000000000000000, 1.000000000000000000 ) ) ;
#1340 = ORIENTED_EDGE ( 'NONE', *, *, #250, .F. ) ;
#1341 = CARTESIAN_POINT ( 'NONE',  ( 8.484999999999997655, 5.000000000000000000, -1.315260270973249360E-14 ) ) ;
#1342 = ORIENTED_EDGE ( 'NONE', *, *, #1203, .F. ) ;
#1343 = DIRECTION ( 'NONE',  ( 1.000000000000000000, 5.751258934030031316E-15, 0.000000000000000000 ) ) ;
#1344 = AXIS2_PLACEMENT_3D ( 'NONE', #357, #219, #644 ) ;
#1345 = EDGE_CURVE ( 'NONE', #819, #202, #65, .T. ) ;
#1346 = CIRCLE ( 'NONE', #1234, 0.1199999999999999123 ) ;
#1347 = AXIS2_PLACEMENT_3D ( 'NONE', #731, #709, #1351 ) ;
#1348 = CARTESIAN_POINT ( 'NONE',  ( -8.295000000000001705, -5.000000000000002665, -0.6300000000000000044 ) ) ;
#1349 = ORIENTED_EDGE ( 'NONE', *, *, #573, .F. ) ;
#1350 = DIRECTION ( 'NONE',  ( 0.000000000000000000, -3.491481338843134539E-15, 1.000000000000000000 ) ) ;
#1351 = DIRECTION ( 'NONE',  ( 1.000000000000000000, 0.000000000000000000, -3.491481338843133750E-15 ) ) ;
#1352 = CARTESIAN_POINT ( 'NONE',  ( -8.295000000000001705, 5.000000000000000000, -0.1199999999999995792 ) ) ;
#1353 = EDGE_CURVE ( 'NONE', #339, #707, #818, .T. ) ;
#1354 = CARTESIAN_POINT ( 'NONE',  ( 8.174999999999997158, 3.500000000000000444, -0.6300393700787404461 ) ) ;
#1355 = VERTEX_POINT ( 'NONE', #911 ) ;
#1356 = DIRECTION ( 'NONE',  ( 1.000000000000000000, 0.000000000000000000, 0.000000000000000000 ) ) ;
#1357 = CARTESIAN_POINT ( 'NONE',  ( -8.295000000000001705, 4.880000000000000782, 0.000000000000000000 ) ) ;
ENDSEC;
END-ISO-10303-21;
