ISO-10303-21;
HEADER;
FILE_DESCRIPTION (( 'STEP AP203' ),
    '1' );
FILE_NAME ('PP9247-(14gacr ANSI-61) - K48 - V1-R0.STEP',
    '2026-06-24T14:50:49',
    ( '' ),
    ( '' ),
    'SwSTEP 2.0',
    'SolidWorks 2024',
    '' );
FILE_SCHEMA (( 'CONFIG_CONTROL_DESIGN' ));
ENDSEC;

DATA;
#1 = EDGE_LOOP ( 'NONE', ( #450, #500, #67, #251 ) ) ;
#2 = CIRCLE ( 'NONE', #48, 0.1550000000000003875 ) ;
#3 = LINE ( 'NONE', #167, #488 ) ;
#4 = VERTEX_POINT ( 'NONE', #431 ) ;
#5 = EDGE_CURVE ( 'NONE', #11, #81, #140, .T. ) ;
#6 = EDGE_CURVE ( 'NONE', #152, #91, #267, .T. ) ;
#7 = DIRECTION ( 'NONE',  ( -0.000000000000000000, -0.000000000000000000, 1.000000000000000000 ) ) ;
#8 = ORIENTED_EDGE ( 'NONE', *, *, #116, .T. ) ;
#9 = PRODUCT_DEFINITION_FORMATION_WITH_SPECIFIED_SOURCE ( 'ANY', '', #520, .NOT_KNOWN. ) ;
#10 = FACE_BOUND ( 'NONE', #168, .T. ) ;
#11 = VERTEX_POINT ( 'NONE', #504 ) ;
#12 = CARTESIAN_POINT ( 'NONE',  ( 6.039999999999999147, -0.1000000000000005607, 0.000000000000000000 ) ) ;
#13 = DIRECTION ( 'NONE',  ( -0.000000000000000000, -0.000000000000000000, 1.000000000000000000 ) ) ;
#14 = AXIS2_PLACEMENT_3D ( 'NONE', #15, #468, #20 ) ;
#15 = CARTESIAN_POINT ( 'NONE',  ( 0.000000000000000000, 0.000000000000000000, 0.000000000000000000 ) ) ;
#16 = LINE ( 'NONE', #352, #353 ) ;
#17 = CARTESIAN_POINT ( 'NONE',  ( -6.205000000000001847, -0.1000000000000005745, 0.000000000000000000 ) ) ;
#18 = LINE ( 'NONE', #94, #234 ) ;
#19 = AXIS2_PLACEMENT_3D ( 'NONE', #24, #396, #350 ) ;
#20 = DIRECTION ( 'NONE',  ( -1.000000000000000000, 0.000000000000000000, -0.000000000000000000 ) ) ;
#21 = CARTESIAN_POINT ( 'NONE',  ( -6.050000000000002487, -0.1000000000000005745, -0.07499999999999999722 ) ) ;
#22 = EDGE_CURVE ( 'NONE', #421, #348, #55, .T. ) ;
#23 = EDGE_CURVE ( 'NONE', #433, #172, #344, .T. ) ;
#24 = CARTESIAN_POINT ( 'NONE',  ( -6.205000000000001847, -0.1000000000000005745, -0.07499999999999999722 ) ) ;
#25 = CIRCLE ( 'NONE', #331, 0.1549999999999998601 ) ;
#26 = PERSON_AND_ORGANIZATION_ROLE ( 'classification_officer' ) ;
#27 = DIRECTION ( 'NONE',  ( 0.000000000000000000, 0.000000000000000000, 1.000000000000000000 ) ) ;
#28 = ORIENTED_EDGE ( 'NONE', *, *, #214, .T. ) ;
#29 = COORDINATED_UNIVERSAL_TIME_OFFSET ( 6, 0, .BEHIND. ) ;
#30 = DIRECTION ( 'NONE',  ( -0.000000000000000000, -1.000000000000000000, -0.000000000000000000 ) ) ;
#31 = LINE ( 'NONE', #368, #71 ) ;
#32 = ORIENTED_EDGE ( 'NONE', *, *, #462, .F. ) ;
#33 = VECTOR ( 'NONE', #388, 39.37007874015748143 ) ;
#34 = APPLICATION_CONTEXT ( 'configuration controlled 3d designs of mechanical parts and assemblies' ) ;
#35 = DATE_AND_TIME ( #432, #170 ) ;
#36 = LOCAL_TIME ( 8, 50, 49.00000000000000000, #107 ) ;
#37 = DIRECTION ( 'NONE',  ( 0.000000000000000000, 0.000000000000000000, 1.000000000000000000 ) ) ;
#38 = CARTESIAN_POINT ( 'NONE',  ( -6.360000000000002096, -0.1000000000000005607, 0.000000000000000000 ) ) ;
#39 = ORIENTED_EDGE ( 'NONE', *, *, #6, .F. ) ;
#40 = FACE_OUTER_BOUND ( 'NONE', #337, .T. ) ;
#41 = EDGE_CURVE ( 'NONE', #340, #421, #472, .T. ) ;
#42 = ORIENTED_EDGE ( 'NONE', *, *, #409, .T. ) ;
#43 = CARTESIAN_POINT ( 'NONE',  ( 6.514999999999997904, -7.500000000000001776, -0.07499999999999999722 ) ) ;
#44 = ORIENTED_EDGE ( 'NONE', *, *, #389, .F. ) ;
#45 = AXIS2_PLACEMENT_3D ( 'NONE', #527, #148, #109 ) ;
#46 = DIRECTION ( 'NONE',  ( 1.000000000000000000, 0.000000000000000000, 0.000000000000000000 ) ) ;
#47 = EDGE_LOOP ( 'NONE', ( #521, #304, #513, #28 ) ) ;
#48 = AXIS2_PLACEMENT_3D ( 'NONE', #413, #268, #216 ) ;
#49 = DIRECTION ( 'NONE',  ( 1.000000000000000000, 0.000000000000000000, 0.000000000000000000 ) ) ;
#50 = EDGE_LOOP ( 'NONE', ( #8, #383 ) ) ;
#51 = AXIS2_PLACEMENT_3D ( 'NONE', #163, #491, #122 ) ;
#52 = DIRECTION ( 'NONE',  ( 1.000000000000000000, 0.000000000000000000, 0.000000000000000000 ) ) ;
#53 = ORIENTED_EDGE ( 'NONE', *, *, #119, .F. ) ;
#54 = DIRECTION ( 'NONE',  ( 0.000000000000000000, 0.000000000000000000, 1.000000000000000000 ) ) ;
#55 = LINE ( 'NONE', #61, #33 ) ;
#56 = PERSON_AND_ORGANIZATION_ROLE ( 'design_owner' ) ;
#57 = DIRECTION ( 'NONE',  ( 0.000000000000000000, -1.000000000000000000, 0.000000000000000000 ) ) ;
#58 = AXIS2_PLACEMENT_3D ( 'NONE', #183, #54, #308 ) ;
#59 = FACE_BOUND ( 'NONE', #246, .T. ) ;
#60 = ORIENTED_EDGE ( 'NONE', *, *, #157, .F. ) ;
#61 = CARTESIAN_POINT ( 'NONE',  ( -4.570000000000001172, 7.179999999999997939, -0.07499999999999999722 ) ) ;
#62 = EDGE_CURVE ( 'NONE', #74, #249, #18, .T. ) ;
#63 = ORIENTED_EDGE ( 'NONE', *, *, #462, .T. ) ;
#64 = PERSON_AND_ORGANIZATION ( #364, #477 ) ;
#65 = LINE ( 'NONE', #281, #507 ) ;
#66 = AXIS2_PLACEMENT_3D ( 'NONE', #451, #300, #203 ) ;
#67 = ORIENTED_EDGE ( 'NONE', *, *, #157, .T. ) ;
#68 = PERSON_AND_ORGANIZATION_ROLE ( 'design_supplier' ) ;
#69 = CARTESIAN_POINT ( 'NONE',  ( -6.515000000000002345, 7.499999999999999112, -0.07499999999999999722 ) ) ;
#70 = ORIENTED_EDGE ( 'NONE', *, *, #424, .F. ) ;
#71 = VECTOR ( 'NONE', #484, 39.37007874015748143 ) ;
#72 = AXIS2_PLACEMENT_3D ( 'NONE', #460, #165, #531 ) ;
#73 = CARTESIAN_POINT ( 'NONE',  ( 6.194999999999998508, -0.1000000000000005745, -0.07499999999999999722 ) ) ;
#74 = VERTEX_POINT ( 'NONE', #355 ) ;
#75 = CARTESIAN_POINT ( 'NONE',  ( 6.349999999999998757, -0.1000000000000005745, 0.000000000000000000 ) ) ;
#76 = AXIS2_PLACEMENT_3D ( 'NONE', #415, #303, #336 ) ;
#77 = CARTESIAN_POINT ( 'NONE',  ( 0.000000000000000000, 0.000000000000000000, -0.07499999999999999722 ) ) ;
#78 = VERTEX_POINT ( 'NONE', #306 ) ;
#79 = EDGE_CURVE ( 'NONE', #152, #428, #182, .T. ) ;
#80 = DIRECTION ( 'NONE',  ( -0.000000000000000000, -0.000000000000000000, 1.000000000000000000 ) ) ;
#81 = VERTEX_POINT ( 'NONE', #315 ) ;
#82 =( GEOMETRIC_REPRESENTATION_CONTEXT ( 3 ) GLOBAL_UNCERTAINTY_ASSIGNED_CONTEXT ( ( #511 ) ) GLOBAL_UNIT_ASSIGNED_CONTEXT ( ( #220, #180, #512 ) ) REPRESENTATION_CONTEXT ( 'NONE', 'WORKASPACE' ) );
#83 = CYLINDRICAL_SURFACE ( 'NONE', #66, 0.1550000000000003875 ) ;
#84 = VERTEX_POINT ( 'NONE', #471 ) ;
#85 = DIRECTION ( 'NONE',  ( 1.000000000000000000, 0.000000000000000000, 0.000000000000000000 ) ) ;
#86 = EDGE_LOOP ( 'NONE', ( #128, #443 ) ) ;
#87 = AXIS2_PLACEMENT_3D ( 'NONE', #115, #196, #105 ) ;
#88 = DIRECTION ( 'NONE',  ( 0.000000000000000000, 1.000000000000000000, 0.000000000000000000 ) ) ;
#89 = ORIENTED_EDGE ( 'NONE', *, *, #478, .T. ) ;
#90 = CARTESIAN_POINT ( 'NONE',  ( 6.514999999999997904, 7.499999999999999112, 0.000000000000000000 ) ) ;
#91 = VERTEX_POINT ( 'NONE', #463 ) ;
#92 = AXIS2_PLACEMENT_3D ( 'NONE', #73, #530, #49 ) ;
#93 = CARTESIAN_POINT ( 'NONE',  ( -6.515000000000002345, 7.499999999999999112, 0.000000000000000000 ) ) ;
#94 = CARTESIAN_POINT ( 'NONE',  ( 6.514999999999997904, -7.500000000000001776, -0.07499999999999999722 ) ) ;
#95 = PLANE ( 'NONE',  #377 ) ;
#96 = LINE ( 'NONE', #260, #508 ) ;
#97 = EDGE_LOOP ( 'NONE', ( #259, #166, #197, #439 ) ) ;
#98 = AXIS2_PLACEMENT_3D ( 'NONE', #177, #319, #392 ) ;
#99 = LINE ( 'NONE', #351, #418 ) ;
#100 = EDGE_CURVE ( 'NONE', #78, #289, #99, .T. ) ;
#101 = APPROVAL_PERSON_ORGANIZATION ( #398, #299, #226 ) ;
#102 = EDGE_CURVE ( 'NONE', #340, #84, #225, .T. ) ;
#103 = CARTESIAN_POINT ( 'NONE',  ( -4.725000000000001421, 7.179999999999997939, -0.07499999999999999722 ) ) ;
#104 = COORDINATED_UNIVERSAL_TIME_OFFSET ( 6, 0, .BEHIND. ) ;
#105 = DIRECTION ( 'NONE',  ( 1.000000000000000000, 0.000000000000000000, 0.000000000000000000 ) ) ;
#106 = ORIENTED_EDGE ( 'NONE', *, *, #424, .T. ) ;
#107 = COORDINATED_UNIVERSAL_TIME_OFFSET ( 6, 0, .BEHIND. ) ;
#108 = CARTESIAN_POINT ( 'NONE',  ( 6.514999999999997904, -7.500000000000001776, -0.07499999999999999722 ) ) ;
#109 = DIRECTION ( 'NONE',  ( 1.000000000000000000, 0.000000000000000000, 0.000000000000000000 ) ) ;
#110 = VECTOR ( 'NONE', #397, 39.37007874015748143 ) ;
#111 = APPROVAL_DATE_TIME ( #363, #299 ) ;
#112 = FACE_BOUND ( 'NONE', #221, .T. ) ;
#113 = ORIENTED_EDGE ( 'NONE', *, *, #100, .F. ) ;
#114 = CC_DESIGN_PERSON_AND_ORGANIZATION_ASSIGNMENT ( #444, #241, ( #9 ) ) ;
#115 = CARTESIAN_POINT ( 'NONE',  ( 6.194999999999998508, -0.1000000000000005745, -0.07499999999999999722 ) ) ;
#116 = EDGE_CURVE ( 'NONE', #534, #276, #181, .T. ) ;
#117 = ORIENTED_EDGE ( 'NONE', *, *, #174, .T. ) ;
#118 = AXIS2_PLACEMENT_3D ( 'NONE', #317, #391, #474 ) ;
#119 = EDGE_CURVE ( 'NONE', #534, #4, #261, .T. ) ;
#120 = DIRECTION ( 'NONE',  ( -0.000000000000000000, -0.000000000000000000, 1.000000000000000000 ) ) ;
#121 = ORIENTED_EDGE ( 'NONE', *, *, #23, .F. ) ;
#122 = DIRECTION ( 'NONE',  ( 1.000000000000000000, 0.000000000000000000, 0.000000000000000000 ) ) ;
#123 = ORIENTED_EDGE ( 'NONE', *, *, #134, .F. ) ;
#124 = LINE ( 'NONE', #297, #307 ) ;
#125 = ORIENTED_EDGE ( 'NONE', *, *, #79, .F. ) ;
#126 = VECTOR ( 'NONE', #425, 39.37007874015748143 ) ;
#127 = FACE_OUTER_BOUND ( 'NONE', #458, .T. ) ;
#128 = ORIENTED_EDGE ( 'NONE', *, *, #6, .T. ) ;
#129 = DIRECTION ( 'NONE',  ( -0.000000000000000000, -0.000000000000000000, 1.000000000000000000 ) ) ;
#130 = EDGE_LOOP ( 'NONE', ( #393, #375, #400, #60 ) ) ;
#131 = DIRECTION ( 'NONE',  ( -1.000000000000000000, -0.000000000000000000, -0.000000000000000000 ) ) ;
#132 = ORIENTED_EDGE ( 'NONE', *, *, #5, .F. ) ;
#133 = ADVANCED_FACE ( 'NONE', ( #219 ), #95, .T. ) ;
#134 = EDGE_CURVE ( 'NONE', #175, #11, #16, .T. ) ;
#135 = PLANE ( 'NONE',  #14 ) ;
#136 = CARTESIAN_POINT ( 'NONE',  ( 4.724999999999996980, -7.190000000000001279, -0.07499999999999999722 ) ) ;
#137 = DIRECTION ( 'NONE',  ( 0.000000000000000000, 0.000000000000000000, 1.000000000000000000 ) ) ;
#138 = AXIS2_PLACEMENT_3D ( 'NONE', #185, #328, #322 ) ;
#139 = PRODUCT_RELATED_PRODUCT_CATEGORY ( 'detail', '', ( #520 ) ) ;
#140 = LINE ( 'NONE', #475, #126 ) ;
#141 = VECTOR ( 'NONE', #131, 39.37007874015748143 ) ;
#142 = CARTESIAN_POINT ( 'NONE',  ( 6.039999999999999147, -0.1000000000000005607, -0.07499999999999999722 ) ) ;
#143 = ORIENTED_EDGE ( 'NONE', *, *, #273, .T. ) ;
#144 = AXIS2_PLACEMENT_3D ( 'NONE', #381, #456, #374 ) ;
#145 = CARTESIAN_POINT ( 'NONE',  ( 4.569999999999996732, -7.190000000000001279, 0.000000000000000000 ) ) ;
#146 = DIRECTION ( 'NONE',  ( 1.000000000000000000, 0.000000000000000000, 0.000000000000000000 ) ) ;
#147 = FACE_OUTER_BOUND ( 'NONE', #481, .T. ) ;
#148 = DIRECTION ( 'NONE',  ( -0.000000000000000000, -0.000000000000000000, 1.000000000000000000 ) ) ;
#149 = VERTEX_POINT ( 'NONE', #479 ) ;
#150 = COORDINATED_UNIVERSAL_TIME_OFFSET ( 6, 0, .BEHIND. ) ;
#151 = DIRECTION ( 'NONE',  ( -0.000000000000000000, -0.000000000000000000, 1.000000000000000000 ) ) ;
#152 = VERTEX_POINT ( 'NONE', #438 ) ;
#153 = APPROVAL_DATE_TIME ( #35, #483 ) ;
#154 = PLANE ( 'NONE',  #310 ) ;
#155 = AXIS2_PLACEMENT_3D ( 'NONE', #108, #288, #447 ) ;
#156 = APPROVAL_ROLE ( '' ) ;
#157 = EDGE_CURVE ( 'NONE', #149, #172, #31, .T. ) ;
#158 = CARTESIAN_POINT ( 'NONE',  ( -6.515000000000002345, 7.499999999999999112, 0.000000000000000000 ) ) ;
#159 = ADVANCED_FACE ( 'NONE', ( #147 ), #519, .F. ) ;
#160 = CYLINDRICAL_SURFACE ( 'NONE', #467, 0.1550000000000003875 ) ;
#161 = ORIENTED_EDGE ( 'NONE', *, *, #102, .T. ) ;
#162 = AXIS2_PLACEMENT_3D ( 'NONE', #201, #120, #85 ) ;
#163 = CARTESIAN_POINT ( 'NONE',  ( -4.725000000000001421, 7.179999999999997939, -0.07499999999999999722 ) ) ;
#164 = ORIENTED_EDGE ( 'NONE', *, *, #356, .T. ) ;
#165 = DIRECTION ( 'NONE',  ( 0.000000000000000000, 0.000000000000000000, 1.000000000000000000 ) ) ;
#166 = ORIENTED_EDGE ( 'NONE', *, *, #370, .F. ) ;
#167 = CARTESIAN_POINT ( 'NONE',  ( -6.515000000000002345, 7.499999999999999112, -0.07499999999999999722 ) ) ;
#168 = EDGE_LOOP ( 'NONE', ( #373, #408 ) ) ;
#169 = AXIS2_PLACEMENT_3D ( 'NONE', #103, #227, #263 ) ;
#170 = LOCAL_TIME ( 8, 50, 49.00000000000000000, #104 ) ;
#171 = CYLINDRICAL_SURFACE ( 'NONE', #162, 0.1550000000000003875 ) ;
#172 = VERTEX_POINT ( 'NONE', #75 ) ;
#173 = CARTESIAN_POINT ( 'NONE',  ( 4.724999999999996980, -7.190000000000001279, -0.07499999999999999722 ) ) ;
#174 = EDGE_CURVE ( 'NONE', #149, #419, #224, .T. ) ;
#175 = VERTEX_POINT ( 'NONE', #69 ) ;
#176 = ADVANCED_FACE ( 'NONE', ( #285 ), #330, .T. ) ;
#177 = CARTESIAN_POINT ( 'NONE',  ( 6.194999999999998508, -0.1000000000000005745, 0.000000000000000000 ) ) ;
#178 = LINE ( 'NONE', #93, #141 ) ;
#179 = CARTESIAN_POINT ( 'NONE',  ( -6.515000000000002345, -7.500000000000001776, -0.07499999999999999722 ) ) ;
#180 =( NAMED_UNIT ( * ) PLANE_ANGLE_UNIT ( ) SI_UNIT ( $, .RADIAN. ) );
#181 = CIRCLE ( 'NONE', #19, 0.1549999999999998601 ) ;
#182 = LINE ( 'NONE', #469, #529 ) ;
#183 = CARTESIAN_POINT ( 'NONE',  ( 0.000000000000000000, 0.000000000000000000, 0.000000000000000000 ) ) ;
#184 = EDGE_LOOP ( 'NONE', ( #117, #143 ) ) ;
#185 = CARTESIAN_POINT ( 'NONE',  ( -6.515000000000002345, 7.499999999999999112, -0.07499999999999999722 ) ) ;
#186 = APPROVAL_STATUS ( 'not_yet_approved' ) ;
#187 = CARTESIAN_POINT ( 'NONE',  ( 6.514999999999997904, -7.500000000000001776, 0.000000000000000000 ) ) ;
#188 = ADVANCED_FACE ( 'NONE', ( #112, #516, #476, #242, #399 ), #154, .T. ) ;
#189 = ORIENTED_EDGE ( 'NONE', *, *, #370, .T. ) ;
#190 = CC_DESIGN_PERSON_AND_ORGANIZATION_ASSIGNMENT ( #262, #56, ( #520 ) ) ;
#191 = PERSON_AND_ORGANIZATION ( #364, #477 ) ;
#192 = DIRECTION ( 'NONE',  ( 0.000000000000000000, 0.000000000000000000, 1.000000000000000000 ) ) ;
#193 = MANIFOLD_SOLID_BREP ( 'Cortar-Extruir1', #405 ) ;
#194 = DATE_TIME_ROLE ( 'creation_date' ) ;
#195 = CC_DESIGN_DATE_AND_TIME_ASSIGNMENT ( #326, #515, ( #198 ) ) ;
#196 = DIRECTION ( 'NONE',  ( 0.000000000000000000, 0.000000000000000000, 1.000000000000000000 ) ) ;
#197 = ORIENTED_EDGE ( 'NONE', *, *, #134, .T. ) ;
#198 = SECURITY_CLASSIFICATION ( '', '', #522 ) ;
#199 = EDGE_CURVE ( 'NONE', #348, #84, #327, .T. ) ;
#200 = CARTESIAN_POINT ( 'NONE',  ( -6.515000000000002345, -7.500000000000001776, -0.07499999999999999722 ) ) ;
#201 = CARTESIAN_POINT ( 'NONE',  ( 4.724999999999996980, -7.190000000000001279, -0.07499999999999999722 ) ) ;
#202 = VERTEX_POINT ( 'NONE', #158 ) ;
#203 = DIRECTION ( 'NONE',  ( 1.000000000000000000, 0.000000000000000000, 0.000000000000000000 ) ) ;
#204 = ORIENTED_EDGE ( 'NONE', *, *, #517, .T. ) ;
#205 = CARTESIAN_POINT ( 'NONE',  ( -4.570000000000001172, 7.179999999999997939, 0.000000000000000000 ) ) ;
#206 = ORIENTED_EDGE ( 'NONE', *, *, #342, .T. ) ;
#207 = VECTOR ( 'NONE', #151, 39.37007874015748143 ) ;
#208 = CIRCLE ( 'NONE', #312, 0.1550000000000003875 ) ;
#209 = CARTESIAN_POINT ( 'NONE',  ( -4.880000000000001670, 7.179999999999997939, -0.07499999999999999722 ) ) ;
#210 = ORIENTED_EDGE ( 'NONE', *, *, #102, .F. ) ;
#211 = DIRECTION ( 'NONE',  ( 1.000000000000000000, 0.000000000000000000, 0.000000000000000000 ) ) ;
#212 = ORIENTED_EDGE ( 'NONE', *, *, #62, .T. ) ;
#213 = AXIS2_PLACEMENT_3D ( 'NONE', #332, #371, #533 ) ;
#214 = EDGE_CURVE ( 'NONE', #4, #380, #252, .T. ) ;
#215 = ADVANCED_FACE ( 'NONE', ( #480 ), #231, .T. ) ;
#216 = DIRECTION ( 'NONE',  ( 1.000000000000000000, 0.000000000000000000, 0.000000000000000000 ) ) ;
#217 = ORIENTED_EDGE ( 'NONE', *, *, #410, .F. ) ;
#218 = DIRECTION ( 'NONE',  ( -1.000000000000000000, -0.000000000000000000, -0.000000000000000000 ) ) ;
#219 = FACE_OUTER_BOUND ( 'NONE', #525, .T. ) ;
#220 =( CONVERSION_BASED_UNIT ( 'INCH', #354 ) LENGTH_UNIT ( ) NAMED_UNIT ( #464 ) );
#221 = EDGE_LOOP ( 'NONE', ( #466, #266 ) ) ;
#222 = EDGE_LOOP ( 'NONE', ( #302, #39, #490, #89 ) ) ;
#223 = MECHANICAL_CONTEXT ( 'NONE', #430, 'mechanical' ) ;
#224 = CIRCLE ( 'NONE', #87, 0.1549999999999998601 ) ;
#225 = LINE ( 'NONE', #309, #110 ) ;
#226 = APPROVAL_ROLE ( '' ) ;
#227 = DIRECTION ( 'NONE',  ( 0.000000000000000000, 0.000000000000000000, 1.000000000000000000 ) ) ;
#228 = EDGE_CURVE ( 'NONE', #81, #249, #65, .T. ) ;
#229 = DATE_AND_TIME ( #486, #243 ) ;
#230 = ADVANCED_FACE ( 'NONE', ( #406 ), #239, .T. ) ;
#231 = PLANE ( 'NONE',  #138 ) ;
#232 = EDGE_LOOP ( 'NONE', ( #286, #412, #206, #414 ) ) ;
#233 = CALENDAR_DATE ( 2026, 24, 6 ) ;
#234 = VECTOR ( 'NONE', #426, 39.37007874015748143 ) ;
#235 = LINE ( 'NONE', #402, #280 ) ;
#236 = CIRCLE ( 'NONE', #72, 0.1549999999999998601 ) ;
#237 = APPROVAL ( #271, 'UNSPECIFIED' ) ;
#238 = PERSON_AND_ORGANIZATION ( #364, #477 ) ;
#239 = PLANE ( 'NONE',  #440 ) ;
#240 = PRODUCT_DEFINITION ( 'UNKNOWN', '', #9, #436 ) ;
#241 = PERSON_AND_ORGANIZATION_ROLE ( 'creator' ) ;
#242 = FACE_BOUND ( 'NONE', #86, .T. ) ;
#243 = LOCAL_TIME ( 8, 50, 49.00000000000000000, #323 ) ;
#244 = DIRECTION ( 'NONE',  ( 0.000000000000000000, 0.000000000000000000, 1.000000000000000000 ) ) ;
#245 = DIRECTION ( 'NONE',  ( 1.000000000000000000, 0.000000000000000000, 0.000000000000000000 ) ) ;
#246 = EDGE_LOOP ( 'NONE', ( #44, #121 ) ) ;
#247 = APPROVAL_PERSON_ORGANIZATION ( #64, #483, #156 ) ;
#248 = FACE_OUTER_BOUND ( 'NONE', #130, .T. ) ;
#249 = VERTEX_POINT ( 'NONE', #187 ) ;
#250 = CARTESIAN_POINT ( 'NONE',  ( -6.205000000000001847, -0.1000000000000005745, -0.07499999999999999722 ) ) ;
#251 = ORIENTED_EDGE ( 'NONE', *, *, #389, .T. ) ;
#252 = CIRCLE ( 'NONE', #457, 0.1549999999999998601 ) ;
#253 = CC_DESIGN_DATE_AND_TIME_ASSIGNMENT ( #229, #194, ( #240 ) ) ;
#254 = CARTESIAN_POINT ( 'NONE',  ( 4.569999999999996732, -7.190000000000001279, -0.07499999999999999722 ) ) ;
#255 = EDGE_LOOP ( 'NONE', ( #453, #385 ) ) ;
#256 = EDGE_CURVE ( 'NONE', #276, #380, #441, .T. ) ;
#257 = EDGE_CURVE ( 'NONE', #202, #81, #235, .T. ) ;
#258 = FACE_OUTER_BOUND ( 'NONE', #47, .T. ) ;
#259 = ORIENTED_EDGE ( 'NONE', *, *, #257, .F. ) ;
#260 = CARTESIAN_POINT ( 'NONE',  ( -6.515000000000002345, 7.499999999999999112, -0.07499999999999999722 ) ) ;
#261 = LINE ( 'NONE', #21, #535 ) ;
#262 = PERSON_AND_ORGANIZATION ( #364, #477 ) ;
#263 = DIRECTION ( 'NONE',  ( 1.000000000000000000, 0.000000000000000000, 0.000000000000000000 ) ) ;
#264 = CC_DESIGN_SECURITY_CLASSIFICATION ( #198, ( #9 ) ) ;
#265 =( LENGTH_UNIT ( ) NAMED_UNIT ( * ) SI_UNIT ( $, .METRE. ) );
#266 = ORIENTED_EDGE ( 'NONE', *, *, #41, .T. ) ;
#267 = CIRCLE ( 'NONE', #429, 0.1550000000000003875 ) ;
#268 = DIRECTION ( 'NONE',  ( 0.000000000000000000, 0.000000000000000000, 1.000000000000000000 ) ) ;
#269 = LOCAL_TIME ( 8, 50, 49.00000000000000000, #150 ) ;
#270 = DIRECTION ( 'NONE',  ( 0.000000000000000000, 0.000000000000000000, 1.000000000000000000 ) ) ;
#271 = APPROVAL_STATUS ( 'not_yet_approved' ) ;
#272 = EDGE_LOOP ( 'NONE', ( #358, #378 ) ) ;
#273 = EDGE_CURVE ( 'NONE', #419, #149, #25, .T. ) ;
#274 = ADVANCED_FACE ( 'NONE', ( #365 ), #524, .F. ) ;
#275 = DIRECTION ( 'NONE',  ( -1.000000000000000000, 0.000000000000000000, -0.000000000000000000 ) ) ;
#276 = VERTEX_POINT ( 'NONE', #498 ) ;
#277 = DATE_AND_TIME ( #233, #36 ) ;
#278 = DIRECTION ( 'NONE',  ( -1.000000000000000000, 0.000000000000000000, 0.000000000000000000 ) ) ;
#279 = PRODUCT_DEFINITION_SHAPE ( 'NONE', 'NONE',  #240 ) ;
#280 = VECTOR ( 'NONE', #30, 39.37007874015748143 ) ;
#281 = CARTESIAN_POINT ( 'NONE',  ( -6.515000000000002345, -7.500000000000001776, 0.000000000000000000 ) ) ;
#282 = ORIENTED_EDGE ( 'NONE', *, *, #228, .F. ) ;
#283 = CIRCLE ( 'NONE', #118, 0.1550000000000003875 ) ;
#284 = SHAPE_DEFINITION_REPRESENTATION ( #279, #341 ) ;
#285 = FACE_OUTER_BOUND ( 'NONE', #232, .T. ) ;
#286 = ORIENTED_EDGE ( 'NONE', *, *, #320, .F. ) ;
#287 = CIRCLE ( 'NONE', #51, 0.1550000000000003875 ) ;
#288 = DIRECTION ( 'NONE',  ( 1.000000000000000000, 0.000000000000000000, 0.000000000000000000 ) ) ;
#289 = VERTEX_POINT ( 'NONE', #90 ) ;
#290 = CYLINDRICAL_SURFACE ( 'NONE', #442, 0.1550000000000003875 ) ;
#291 = ORIENTED_EDGE ( 'NONE', *, *, #41, .F. ) ;
#292 = ADVANCED_FACE ( 'NONE', ( #127 ), #171, .F. ) ;
#293 = ADVANCED_FACE ( 'NONE', ( #493 ), #83, .F. ) ;
#294 = CARTESIAN_POINT ( 'NONE',  ( -4.725000000000001421, 7.179999999999997939, -0.07499999999999999722 ) ) ;
#295 = EDGE_LOOP ( 'NONE', ( #461, #106, #334, #366 ) ) ;
#296 = AXIS2_PLACEMENT_3D ( 'NONE', #17, #137, #305 ) ;
#297 = CARTESIAN_POINT ( 'NONE',  ( 6.514999999999997904, -7.500000000000001776, 0.000000000000000000 ) ) ;
#298 = ORIENTED_EDGE ( 'NONE', *, *, #22, .T. ) ;
#299 = APPROVAL ( #186, 'UNSPECIFIED' ) ;
#300 = DIRECTION ( 'NONE',  ( -0.000000000000000000, -0.000000000000000000, 1.000000000000000000 ) ) ;
#301 = EDGE_CURVE ( 'NONE', #91, #423, #347, .T. ) ;
#302 = ORIENTED_EDGE ( 'NONE', *, *, #301, .F. ) ;
#303 = DIRECTION ( 'NONE',  ( -0.000000000000000000, -0.000000000000000000, 1.000000000000000000 ) ) ;
#304 = ORIENTED_EDGE ( 'NONE', *, *, #116, .F. ) ;
#305 = DIRECTION ( 'NONE',  ( 1.000000000000000000, 0.000000000000000000, 0.000000000000000000 ) ) ;
#306 = CARTESIAN_POINT ( 'NONE',  ( 6.514999999999997904, 7.499999999999999112, -0.07499999999999999722 ) ) ;
#307 = VECTOR ( 'NONE', #495, 39.37007874015748143 ) ;
#308 = DIRECTION ( 'NONE',  ( 1.000000000000000000, 0.000000000000000000, 0.000000000000000000 ) ) ;
#309 = CARTESIAN_POINT ( 'NONE',  ( -4.880000000000001670, 7.179999999999997939, -0.07499999999999999722 ) ) ;
#310 = AXIS2_PLACEMENT_3D ( 'NONE', #77, #445, #275 ) ;
#311 = CARTESIAN_POINT ( 'NONE',  ( -4.570000000000001172, 7.179999999999997939, -0.07499999999999999722 ) ) ;
#312 = AXIS2_PLACEMENT_3D ( 'NONE', #173, #427, #52 ) ;
#313 = DIRECTION ( 'NONE',  ( 0.000000000000000000, 0.000000000000000000, 1.000000000000000000 ) ) ;
#314 = LINE ( 'NONE', #470, #452 ) ;
#315 = CARTESIAN_POINT ( 'NONE',  ( -6.515000000000002345, -7.500000000000001776, 0.000000000000000000 ) ) ;
#316 = VECTOR ( 'NONE', #129, 39.37007874015748143 ) ;
#317 = CARTESIAN_POINT ( 'NONE',  ( 4.724999999999996980, -7.190000000000001279, 0.000000000000000000 ) ) ;
#318 = CC_DESIGN_APPROVAL ( #237, ( #9 ) ) ;
#319 = DIRECTION ( 'NONE',  ( 0.000000000000000000, 0.000000000000000000, 1.000000000000000000 ) ) ;
#320 = EDGE_CURVE ( 'NONE', #249, #289, #124, .T. ) ;
#321 = ADVANCED_FACE ( 'NONE', ( #258 ), #420, .F. ) ;
#322 = DIRECTION ( 'NONE',  ( 0.000000000000000000, -0.000000000000000000, 1.000000000000000000 ) ) ;
#323 = COORDINATED_UNIVERSAL_TIME_OFFSET ( 6, 0, .BEHIND. ) ;
#324 = CARTESIAN_POINT ( 'NONE',  ( -4.725000000000001421, 7.179999999999997939, 0.000000000000000000 ) ) ;
#325 = DIRECTION ( 'NONE',  ( 1.000000000000000000, 0.000000000000000000, 0.000000000000000000 ) ) ;
#326 = DATE_AND_TIME ( #518, #346 ) ;
#327 = CIRCLE ( 'NONE', #395, 0.1550000000000003875 ) ;
#328 = DIRECTION ( 'NONE',  ( 0.000000000000000000, 1.000000000000000000, 0.000000000000000000 ) ) ;
#329 = APPROVAL_STATUS ( 'not_yet_approved' ) ;
#330 = PLANE ( 'NONE',  #155 ) ;
#331 = AXIS2_PLACEMENT_3D ( 'NONE', #403, #192, #369 ) ;
#332 = CARTESIAN_POINT ( 'NONE',  ( -4.725000000000001421, 7.179999999999997939, 0.000000000000000000 ) ) ;
#333 = ADVANCED_FACE ( 'NONE', ( #248 ), #454, .F. ) ;
#334 = ORIENTED_EDGE ( 'NONE', *, *, #257, .T. ) ;
#335 = EDGE_CURVE ( 'NONE', #276, #534, #382, .T. ) ;
#336 = DIRECTION ( 'NONE',  ( 1.000000000000000000, 0.000000000000000000, 0.000000000000000000 ) ) ;
#337 = EDGE_LOOP ( 'NONE', ( #291, #161, #164, #532 ) ) ;
#338 = CC_DESIGN_PERSON_AND_ORGANIZATION_ASSIGNMENT ( #526, #68, ( #9 ) ) ;
#339 = LINE ( 'NONE', #43, #446 ) ;
#340 = VERTEX_POINT ( 'NONE', #209 ) ;
#341 = ADVANCED_BREP_SHAPE_REPRESENTATION ( 'PP9247-(14gacr ANSI-61) - K48 - V1-R0', ( #193, #58 ), #82 ) ;
#342 = EDGE_CURVE ( 'NONE', #74, #78, #339, .T. ) ;
#343 = DIRECTION ( 'NONE',  ( 1.000000000000000000, 0.000000000000000000, 0.000000000000000000 ) ) ;
#344 = CIRCLE ( 'NONE', #98, 0.1549999999999998601 ) ;
#345 = EDGE_LOOP ( 'NONE', ( #210, #494, #298, #492 ) ) ;
#346 = LOCAL_TIME ( 8, 50, 49.00000000000000000, #29 ) ;
#347 = LINE ( 'NONE', #254, #316 ) ;
#348 = VERTEX_POINT ( 'NONE', #205 ) ;
#349 = FACE_OUTER_BOUND ( 'NONE', #295, .T. ) ;
#350 = DIRECTION ( 'NONE',  ( 1.000000000000000000, 0.000000000000000000, 0.000000000000000000 ) ) ;
#351 = CARTESIAN_POINT ( 'NONE',  ( 6.514999999999997904, 7.499999999999999112, -0.07499999999999999722 ) ) ;
#352 = CARTESIAN_POINT ( 'NONE',  ( -6.515000000000002345, -7.500000000000001776, -0.07499999999999999722 ) ) ;
#353 = VECTOR ( 'NONE', #487, 39.37007874015748143 ) ;
#354 = LENGTH_MEASURE_WITH_UNIT ( LENGTH_MEASURE( 0.02539999999999999897 ), #265 );
#355 = CARTESIAN_POINT ( 'NONE',  ( 6.514999999999997904, -7.500000000000001776, -0.07499999999999999722 ) ) ;
#356 = EDGE_CURVE ( 'NONE', #84, #348, #359, .T. ) ;
#357 = EDGE_CURVE ( 'NONE', #11, #74, #379, .T. ) ;
#358 = ORIENTED_EDGE ( 'NONE', *, *, #478, .F. ) ;
#359 = CIRCLE ( 'NONE', #213, 0.1550000000000003875 ) ;
#360 = DIRECTION ( 'NONE',  ( 1.000000000000000000, 0.000000000000000000, 0.000000000000000000 ) ) ;
#361 = CALENDAR_DATE ( 2026, 24, 6 ) ;
#362 = CARTESIAN_POINT ( 'NONE',  ( -6.360000000000002096, -0.1000000000000005607, -0.07499999999999999722 ) ) ;
#363 = DATE_AND_TIME ( #361, #269 ) ;
#364 = PERSON ( 'UNSPECIFIED', 'UNSPECIFIED', 'UNSPECIFIED', ('UNSPECIFIED'), ('UNSPECIFIED'), ('UNSPECIFIED') ) ;
#365 = FACE_OUTER_BOUND ( 'NONE', #1, .T. ) ;
#366 = ORIENTED_EDGE ( 'NONE', *, *, #228, .T. ) ;
#367 = PERSON_AND_ORGANIZATION_ROLE ( 'creator' ) ;
#368 = CARTESIAN_POINT ( 'NONE',  ( 6.349999999999998757, -0.1000000000000005745, -0.07499999999999999722 ) ) ;
#369 = DIRECTION ( 'NONE',  ( 1.000000000000000000, 0.000000000000000000, 0.000000000000000000 ) ) ;
#370 = EDGE_CURVE ( 'NONE', #175, #202, #3, .T. ) ;
#371 = DIRECTION ( 'NONE',  ( 0.000000000000000000, 0.000000000000000000, 1.000000000000000000 ) ) ;
#372 = EDGE_CURVE ( 'NONE', #421, #340, #287, .T. ) ;
#373 = ORIENTED_EDGE ( 'NONE', *, *, #214, .F. ) ;
#374 = DIRECTION ( 'NONE',  ( 1.000000000000000000, 0.000000000000000000, 0.000000000000000000 ) ) ;
#375 = ORIENTED_EDGE ( 'NONE', *, *, #501, .T. ) ;
#376 = CARTESIAN_POINT ( 'NONE',  ( -6.515000000000002345, -7.500000000000001776, -0.07499999999999999722 ) ) ;
#377 = AXIS2_PLACEMENT_3D ( 'NONE', #179, #57, #506 ) ;
#378 = ORIENTED_EDGE ( 'NONE', *, *, #409, .F. ) ;
#379 = LINE ( 'NONE', #376, #514 ) ;
#380 = VERTEX_POINT ( 'NONE', #38 ) ;
#381 = CARTESIAN_POINT ( 'NONE',  ( -6.205000000000001847, -0.1000000000000005745, -0.07499999999999999722 ) ) ;
#382 = CIRCLE ( 'NONE', #422, 0.1549999999999998601 ) ;
#383 = ORIENTED_EDGE ( 'NONE', *, *, #335, .T. ) ;
#384 = CARTESIAN_POINT ( 'NONE',  ( 4.879999999999997229, -7.190000000000001279, 0.000000000000000000 ) ) ;
#385 = ORIENTED_EDGE ( 'NONE', *, *, #356, .F. ) ;
#386 = FACE_BOUND ( 'NONE', #255, .T. ) ;
#387 = ADVANCED_FACE ( 'NONE', ( #40 ), #160, .F. ) ;
#388 = DIRECTION ( 'NONE',  ( -0.000000000000000000, -0.000000000000000000, 1.000000000000000000 ) ) ;
#389 = EDGE_CURVE ( 'NONE', #172, #433, #236, .T. ) ;
#390 = CIRCLE ( 'NONE', #296, 0.1549999999999998601 ) ;
#391 = DIRECTION ( 'NONE',  ( 0.000000000000000000, 0.000000000000000000, 1.000000000000000000 ) ) ;
#392 = DIRECTION ( 'NONE',  ( 1.000000000000000000, 0.000000000000000000, 0.000000000000000000 ) ) ;
#393 = ORIENTED_EDGE ( 'NONE', *, *, #273, .F. ) ;
#394 = ADVANCED_FACE ( 'NONE', ( #489 ), #290, .F. ) ;
#395 = AXIS2_PLACEMENT_3D ( 'NONE', #324, #244, #360 ) ;
#396 = DIRECTION ( 'NONE',  ( 0.000000000000000000, 0.000000000000000000, 1.000000000000000000 ) ) ;
#397 = DIRECTION ( 'NONE',  ( -0.000000000000000000, -0.000000000000000000, 1.000000000000000000 ) ) ;
#398 = PERSON_AND_ORGANIZATION ( #364, #477 ) ;
#399 = FACE_OUTER_BOUND ( 'NONE', #404, .T. ) ;
#400 = ORIENTED_EDGE ( 'NONE', *, *, #23, .T. ) ;
#401 = APPROVAL_ROLE ( '' ) ;
#402 = CARTESIAN_POINT ( 'NONE',  ( -6.515000000000002345, -7.500000000000001776, 0.000000000000000000 ) ) ;
#403 = CARTESIAN_POINT ( 'NONE',  ( 6.194999999999998508, -0.1000000000000005745, -0.07499999999999999722 ) ) ;
#404 = EDGE_LOOP ( 'NONE', ( #496, #528, #123, #32 ) ) ;
#405 = CLOSED_SHELL ( 'NONE', ( #387, #159, #333, #292, #176, #133, #230, #215, #188, #499, #394, #274, #321, #293 ) ) ;
#406 = FACE_OUTER_BOUND ( 'NONE', #97, .T. ) ;
#407 = CC_DESIGN_APPROVAL ( #299, ( #198 ) ) ;
#408 = ORIENTED_EDGE ( 'NONE', *, *, #517, .F. ) ;
#409 = EDGE_CURVE ( 'NONE', #423, #428, #2, .T. ) ;
#410 = EDGE_CURVE ( 'NONE', #91, #152, #208, .T. ) ;
#411 = DIRECTION ( 'NONE',  ( 1.000000000000000000, 0.000000000000000000, 0.000000000000000000 ) ) ;
#412 = ORIENTED_EDGE ( 'NONE', *, *, #62, .F. ) ;
#413 = CARTESIAN_POINT ( 'NONE',  ( 4.724999999999996980, -7.190000000000001279, 0.000000000000000000 ) ) ;
#414 = ORIENTED_EDGE ( 'NONE', *, *, #100, .T. ) ;
#415 = CARTESIAN_POINT ( 'NONE',  ( 6.194999999999998508, -0.1000000000000005745, -0.07499999999999999722 ) ) ;
#416 = ORIENTED_EDGE ( 'NONE', *, *, #301, .T. ) ;
#417 = DIRECTION ( 'NONE',  ( 0.000000000000000000, 0.000000000000000000, 1.000000000000000000 ) ) ;
#418 = VECTOR ( 'NONE', #270, 39.37007874015748143 ) ;
#419 = VERTEX_POINT ( 'NONE', #142 ) ;
#420 = CYLINDRICAL_SURFACE ( 'NONE', #144, 0.1549999999999998601 ) ;
#421 = VERTEX_POINT ( 'NONE', #311 ) ;
#422 = AXIS2_PLACEMENT_3D ( 'NONE', #250, #417, #46 ) ;
#423 = VERTEX_POINT ( 'NONE', #145 ) ;
#424 = EDGE_CURVE ( 'NONE', #289, #202, #178, .T. ) ;
#425 = DIRECTION ( 'NONE',  ( 0.000000000000000000, 0.000000000000000000, 1.000000000000000000 ) ) ;
#426 = DIRECTION ( 'NONE',  ( 0.000000000000000000, 0.000000000000000000, 1.000000000000000000 ) ) ;
#427 = DIRECTION ( 'NONE',  ( 0.000000000000000000, 0.000000000000000000, 1.000000000000000000 ) ) ;
#428 = VERTEX_POINT ( 'NONE', #384 ) ;
#429 = AXIS2_PLACEMENT_3D ( 'NONE', #136, #313, #146 ) ;
#430 = APPLICATION_CONTEXT ( 'configuration controlled 3d designs of mechanical parts and assemblies' ) ;
#431 = CARTESIAN_POINT ( 'NONE',  ( -6.050000000000002487, -0.1000000000000005745, 0.000000000000000000 ) ) ;
#432 = CALENDAR_DATE ( 2026, 24, 6 ) ;
#433 = VERTEX_POINT ( 'NONE', #12 ) ;
#434 = APPLICATION_PROTOCOL_DEFINITION ( 'international standard', 'config_control_design', 1994, #34 ) ;
#435 = CARTESIAN_POINT ( 'NONE',  ( -6.205000000000001847, -0.1000000000000005745, 0.000000000000000000 ) ) ;
#436 = DESIGN_CONTEXT ( 'detailed design', #34, 'design' ) ;
#437 = APPROVAL_DATE_TIME ( #277, #237 ) ;
#438 = CARTESIAN_POINT ( 'NONE',  ( 4.879999999999997229, -7.190000000000001279, -0.07499999999999999722 ) ) ;
#439 = ORIENTED_EDGE ( 'NONE', *, *, #5, .T. ) ;
#440 = AXIS2_PLACEMENT_3D ( 'NONE', #200, #278, #27 ) ;
#441 = LINE ( 'NONE', #362, #207 ) ;
#442 = AXIS2_PLACEMENT_3D ( 'NONE', #449, #80, #245 ) ;
#443 = ORIENTED_EDGE ( 'NONE', *, *, #410, .T. ) ;
#444 = PERSON_AND_ORGANIZATION ( #364, #477 ) ;
#445 = DIRECTION ( 'NONE',  ( 0.000000000000000000, 0.000000000000000000, -1.000000000000000000 ) ) ;
#446 = VECTOR ( 'NONE', #88, 39.37007874015748143 ) ;
#447 = DIRECTION ( 'NONE',  ( 0.000000000000000000, 0.000000000000000000, -1.000000000000000000 ) ) ;
#448 = ORIENTED_EDGE ( 'NONE', *, *, #335, .F. ) ;
#449 = CARTESIAN_POINT ( 'NONE',  ( 4.724999999999996980, -7.190000000000001279, -0.07499999999999999722 ) ) ;
#450 = ORIENTED_EDGE ( 'NONE', *, *, #501, .F. ) ;
#451 = CARTESIAN_POINT ( 'NONE',  ( -4.725000000000001421, 7.179999999999997939, -0.07499999999999999722 ) ) ;
#452 = VECTOR ( 'NONE', #502, 39.37007874015748143 ) ;
#453 = ORIENTED_EDGE ( 'NONE', *, *, #199, .F. ) ;
#454 = CYLINDRICAL_SURFACE ( 'NONE', #76, 0.1549999999999998601 ) ;
#455 = ORIENTED_EDGE ( 'NONE', *, *, #256, .T. ) ;
#456 = DIRECTION ( 'NONE',  ( -0.000000000000000000, -0.000000000000000000, 1.000000000000000000 ) ) ;
#457 = AXIS2_PLACEMENT_3D ( 'NONE', #435, #37, #411 ) ;
#458 = EDGE_LOOP ( 'NONE', ( #217, #416, #42, #125 ) ) ;
#459 = CC_DESIGN_PERSON_AND_ORGANIZATION_ASSIGNMENT ( #238, #367, ( #240 ) ) ;
#460 = CARTESIAN_POINT ( 'NONE',  ( 6.194999999999998508, -0.1000000000000005745, 0.000000000000000000 ) ) ;
#461 = ORIENTED_EDGE ( 'NONE', *, *, #320, .T. ) ;
#462 = EDGE_CURVE ( 'NONE', #78, #175, #96, .T. ) ;
#463 = CARTESIAN_POINT ( 'NONE',  ( 4.569999999999996732, -7.190000000000001279, -0.07499999999999999722 ) ) ;
#464 = DIMENSIONAL_EXPONENTS ( 1.000000000000000000, 0.000000000000000000, 0.000000000000000000, 0.000000000000000000, 0.000000000000000000, 0.000000000000000000, 0.000000000000000000 ) ;
#465 = APPLICATION_PROTOCOL_DEFINITION ( 'international standard', 'config_control_design', 1994, #430 ) ;
#466 = ORIENTED_EDGE ( 'NONE', *, *, #372, .T. ) ;
#467 = AXIS2_PLACEMENT_3D ( 'NONE', #294, #7, #343 ) ;
#468 = DIRECTION ( 'NONE',  ( 0.000000000000000000, 0.000000000000000000, -1.000000000000000000 ) ) ;
#469 = CARTESIAN_POINT ( 'NONE',  ( 4.879999999999997229, -7.190000000000001279, -0.07499999999999999722 ) ) ;
#470 = CARTESIAN_POINT ( 'NONE',  ( 6.039999999999999147, -0.1000000000000005607, -0.07499999999999999722 ) ) ;
#471 = CARTESIAN_POINT ( 'NONE',  ( -4.880000000000001670, 7.179999999999997939, 0.000000000000000000 ) ) ;
#472 = CIRCLE ( 'NONE', #169, 0.1550000000000003875 ) ;
#473 = CC_DESIGN_APPROVAL ( #483, ( #240 ) ) ;
#474 = DIRECTION ( 'NONE',  ( 1.000000000000000000, 0.000000000000000000, 0.000000000000000000 ) ) ;
#475 = CARTESIAN_POINT ( 'NONE',  ( -6.515000000000002345, -7.500000000000001776, -0.07499999999999999722 ) ) ;
#476 = FACE_BOUND ( 'NONE', #184, .T. ) ;
#477 = ORGANIZATION ( 'UNSPECIFIED', 'UNSPECIFIED', '' ) ;
#478 = EDGE_CURVE ( 'NONE', #428, #423, #283, .T. ) ;
#479 = CARTESIAN_POINT ( 'NONE',  ( 6.349999999999998757, -0.1000000000000005745, -0.07499999999999999722 ) ) ;
#480 = FACE_OUTER_BOUND ( 'NONE', #510, .T. ) ;
#481 = EDGE_LOOP ( 'NONE', ( #448, #455, #204, #53 ) ) ;
#482 = PERSON_AND_ORGANIZATION ( #364, #477 ) ;
#483 = APPROVAL ( #329, 'UNSPECIFIED' ) ;
#484 = DIRECTION ( 'NONE',  ( -0.000000000000000000, -0.000000000000000000, 1.000000000000000000 ) ) ;
#485 = ORIENTED_EDGE ( 'NONE', *, *, #357, .T. ) ;
#486 = CALENDAR_DATE ( 2026, 24, 6 ) ;
#487 = DIRECTION ( 'NONE',  ( -0.000000000000000000, -1.000000000000000000, -0.000000000000000000 ) ) ;
#488 = VECTOR ( 'NONE', #536, 39.37007874015748143 ) ;
#489 = FACE_OUTER_BOUND ( 'NONE', #222, .T. ) ;
#490 = ORIENTED_EDGE ( 'NONE', *, *, #79, .T. ) ;
#491 = DIRECTION ( 'NONE',  ( 0.000000000000000000, 0.000000000000000000, 1.000000000000000000 ) ) ;
#492 = ORIENTED_EDGE ( 'NONE', *, *, #199, .T. ) ;
#493 = FACE_OUTER_BOUND ( 'NONE', #345, .T. ) ;
#494 = ORIENTED_EDGE ( 'NONE', *, *, #372, .F. ) ;
#495 = DIRECTION ( 'NONE',  ( 0.000000000000000000, 1.000000000000000000, 0.000000000000000000 ) ) ;
#496 = ORIENTED_EDGE ( 'NONE', *, *, #342, .F. ) ;
#497 = APPROVAL_PERSON_ORGANIZATION ( #191, #237, #401 ) ;
#498 = CARTESIAN_POINT ( 'NONE',  ( -6.360000000000002096, -0.1000000000000005607, -0.07499999999999999722 ) ) ;
#499 = ADVANCED_FACE ( 'NONE', ( #386, #10, #59, #509, #349 ), #135, .F. ) ;
#500 = ORIENTED_EDGE ( 'NONE', *, *, #174, .F. ) ;
#501 = EDGE_CURVE ( 'NONE', #419, #433, #314, .T. ) ;
#502 = DIRECTION ( 'NONE',  ( -0.000000000000000000, -0.000000000000000000, 1.000000000000000000 ) ) ;
#503 = DIRECTION ( 'NONE',  ( -0.000000000000000000, -0.000000000000000000, 1.000000000000000000 ) ) ;
#504 = CARTESIAN_POINT ( 'NONE',  ( -6.515000000000002345, -7.500000000000001776, -0.07499999999999999722 ) ) ;
#505 = CARTESIAN_POINT ( 'NONE',  ( -6.050000000000002487, -0.1000000000000005745, -0.07499999999999999722 ) ) ;
#506 = DIRECTION ( 'NONE',  ( 0.000000000000000000, -0.000000000000000000, -1.000000000000000000 ) ) ;
#507 = VECTOR ( 'NONE', #325, 39.37007874015748143 ) ;
#508 = VECTOR ( 'NONE', #218, 39.37007874015748143 ) ;
#509 = FACE_BOUND ( 'NONE', #272, .T. ) ;
#510 = EDGE_LOOP ( 'NONE', ( #70, #113, #63, #189 ) ) ;
#511 = UNCERTAINTY_MEASURE_WITH_UNIT (LENGTH_MEASURE( 1.000000000000000082E-05 ), #220, 'distance_accuracy_value', 'NONE');
#512 =( NAMED_UNIT ( * ) SI_UNIT ( $, .STERADIAN. ) SOLID_ANGLE_UNIT ( ) );
#513 = ORIENTED_EDGE ( 'NONE', *, *, #119, .T. ) ;
#514 = VECTOR ( 'NONE', #211, 39.37007874015748143 ) ;
#515 = DATE_TIME_ROLE ( 'classification_date' ) ;
#516 = FACE_BOUND ( 'NONE', #50, .T. ) ;
#517 = EDGE_CURVE ( 'NONE', #380, #4, #390, .T. ) ;
#518 = CALENDAR_DATE ( 2026, 24, 6 ) ;
#519 = CYLINDRICAL_SURFACE ( 'NONE', #45, 0.1549999999999998601 ) ;
#520 = PRODUCT ( 'PP9247-(14gacr ANSI-61) - K48 - V1-R0', 'PP9247-(14gacr ANSI-61) - K48 - V1-R0', '', ( #223 ) ) ;
#521 = ORIENTED_EDGE ( 'NONE', *, *, #256, .F. ) ;
#522 = SECURITY_CLASSIFICATION_LEVEL ( 'unclassified' ) ;
#523 = CC_DESIGN_PERSON_AND_ORGANIZATION_ASSIGNMENT ( #482, #26, ( #198 ) ) ;
#524 = CYLINDRICAL_SURFACE ( 'NONE', #92, 0.1549999999999998601 ) ;
#525 = EDGE_LOOP ( 'NONE', ( #282, #132, #485, #212 ) ) ;
#526 = PERSON_AND_ORGANIZATION ( #364, #477 ) ;
#527 = CARTESIAN_POINT ( 'NONE',  ( -6.205000000000001847, -0.1000000000000005745, -0.07499999999999999722 ) ) ;
#528 = ORIENTED_EDGE ( 'NONE', *, *, #357, .F. ) ;
#529 = VECTOR ( 'NONE', #13, 39.37007874015748143 ) ;
#530 = DIRECTION ( 'NONE',  ( -0.000000000000000000, -0.000000000000000000, 1.000000000000000000 ) ) ;
#531 = DIRECTION ( 'NONE',  ( 1.000000000000000000, 0.000000000000000000, 0.000000000000000000 ) ) ;
#532 = ORIENTED_EDGE ( 'NONE', *, *, #22, .F. ) ;
#533 = DIRECTION ( 'NONE',  ( 1.000000000000000000, 0.000000000000000000, 0.000000000000000000 ) ) ;
#534 = VERTEX_POINT ( 'NONE', #505 ) ;
#535 = VECTOR ( 'NONE', #503, 39.37007874015748143 ) ;
#536 = DIRECTION ( 'NONE',  ( 0.000000000000000000, 0.000000000000000000, 1.000000000000000000 ) ) ;
ENDSEC;
END-ISO-10303-21;
