ISO-10303-21;
HEADER;
FILE_DESCRIPTION (( 'STEP AP214' ),
    '1' );
FILE_NAME ('11-D-3409-02-(12gacr ANSI-61) - K48 - V1-R0.STEP',
    '2026-07-13T16:01:15',
    ( '' ),
    ( '' ),
    'SwSTEP 2.0',
    'SolidWorks 2024',
    '' );
FILE_SCHEMA (( 'AUTOMOTIVE_DESIGN' ));
ENDSEC;

DATA;
#1 = DIRECTION ( 'NONE',  ( 0.000000000000000000, 1.000000000000000000, 0.000000000000000000 ) ) ;
#2 = VERTEX_POINT ( 'NONE', #577 ) ;
#3 = ADVANCED_FACE ( 'NONE', ( #185 ), #373, .F. ) ;
#4 = VECTOR ( 'NONE', #435, 39.37007874015748143 ) ;
#5 = CARTESIAN_POINT ( 'NONE',  ( 3.243094551834844186, -5.463695987328526437E-16, -0.1090000000000001246 ) ) ;
#6 = ORIENTED_EDGE ( 'NONE', *, *, #335, .F. ) ;
#7 = AXIS2_PLACEMENT_3D ( 'NONE', #549, #699, #810 ) ;
#8 = EDGE_CURVE ( 'NONE', #625, #16, #521, .T. ) ;
#9 = DIRECTION ( 'NONE',  ( -1.000000000000000000, 0.000000000000000000, 0.000000000000000000 ) ) ;
#10 = ORIENTED_EDGE ( 'NONE', *, *, #682, .T. ) ;
#11 = CIRCLE ( 'NONE', #485, 0.1139999999999999347 ) ;
#12 = CARTESIAN_POINT ( 'NONE',  ( 5.157094551834843443, -2.731847993664263218E-16, 0.6250000000000006661 ) ) ;
#13 = STYLED_ITEM ( 'NONE', ( #96 ), #90 ) ;
#14 = EDGE_CURVE ( 'NONE', #675, #206, #319, .T. ) ;
#15 = LINE ( 'NONE', #270, #54 ) ;
#16 = VERTEX_POINT ( 'NONE', #255 ) ;
#17 = LINE ( 'NONE', #406, #279 ) ;
#18 = CARTESIAN_POINT ( 'NONE',  ( 0.3099999999999923372, -0.1049999999999920441, -2.026955730817906698 ) ) ;
#19 = ORIENTED_EDGE ( 'NONE', *, *, #145, .F. ) ;
#20 = DIRECTION ( 'NONE',  ( 1.102052315625924099E-14, -1.000000000000000000, -3.491481338843132961E-15 ) ) ;
#21 = AXIS2_PLACEMENT_3D ( 'NONE', #430, #100, #224 ) ;
#22 = LINE ( 'NONE', #480, #238 ) ;
#23 = ORIENTED_EDGE ( 'NONE', *, *, #834, .T. ) ;
#24 = AXIS2_PLACEMENT_3D ( 'NONE', #290, #602, #483 ) ;
#25 = DIRECTION ( 'NONE',  ( 1.102052315625924257E-14, -1.000000000000000000, -3.491481338843133750E-15 ) ) ;
#26 = DIRECTION ( 'NONE',  ( 1.102052315625924099E-14, -1.000000000000000000, -3.491481338843132961E-15 ) ) ;
#27 = ORIENTED_EDGE ( 'NONE', *, *, #796, .T. ) ;
#28 = APPLICATION_CONTEXT ( 'automotive_design' ) ;
#29 = FACE_OUTER_BOUND ( 'NONE', #593, .T. ) ;
#30 = DIRECTION ( 'NONE',  ( 0.000000000000000000, 0.000000000000000000, 1.000000000000000000 ) ) ;
#31 = FACE_OUTER_BOUND ( 'NONE', #817, .T. ) ;
#32 = UNCERTAINTY_MEASURE_WITH_UNIT (LENGTH_MEASURE( 1.000000000000000082E-05 ), #769, 'distance_accuracy_value', 'NONE');
#33 = EDGE_LOOP ( 'NONE', ( #442, #725 ) ) ;
#34 = DIRECTION ( 'NONE',  ( 3.677703061545848409E-34, -1.000000000000000000, 0.000000000000000000 ) ) ;
#35 = CARTESIAN_POINT ( 'NONE',  ( 0.4939999999999999947, -1.281105848591644204E-25, 0.000000000000000000 ) ) ;
#36 = CARTESIAN_POINT ( 'NONE',  ( 3.243094551834844186, -0.1050000000000003847, 0.1090000000000001246 ) ) ;
#37 = PRODUCT ( '11-D-3409-02-(12gacr ANSI-61) - K48 - V1-R0', '11-D-3409-02-(12gacr ANSI-61) - K48 - V1-R0', '', ( #257 ) ) ;
#38 = EDGE_LOOP ( 'NONE', ( #424, #197, #51, #175 ) ) ;
#39 = VECTOR ( 'NONE', #211, 39.37007874015748143 ) ;
#40 = DIRECTION ( 'NONE',  ( 0.000000000000000000, 0.000000000000000000, -1.000000000000000000 ) ) ;
#41 = CARTESIAN_POINT ( 'NONE',  ( 5.157094551834843443, -0.1050000000000003847, -0.6250000000000006661 ) ) ;
#42 = EDGE_CURVE ( 'NONE', #641, #397, #575, .T. ) ;
#43 = EDGE_LOOP ( 'NONE', ( #609, #108, #23, #600 ) ) ;
#44 = PLANE ( 'NONE',  #842 ) ;
#45 = LENGTH_MEASURE_WITH_UNIT ( LENGTH_MEASURE( 0.02539999999999999897 ), #554 );
#46 = VERTEX_POINT ( 'NONE', #534 ) ;
#47 = DIMENSIONAL_EXPONENTS ( 1.000000000000000000, 0.000000000000000000, 0.000000000000000000, 0.000000000000000000, 0.000000000000000000, 0.000000000000000000, 0.000000000000000000 ) ;
#48 = DIRECTION ( 'NONE',  ( 1.102052315625924257E-14, -1.000000000000000000, -3.491481338843133750E-15 ) ) ;
#49 = ORIENTED_EDGE ( 'NONE', *, *, #42, .T. ) ;
#50 = CARTESIAN_POINT ( 'NONE',  ( 4.668094551834844452, -5.463695987328526437E-16, 0.7500000000000001110 ) ) ;
#51 = ORIENTED_EDGE ( 'NONE', *, *, #154, .F. ) ;
#52 = EDGE_CURVE ( 'NONE', #557, #87, #729, .T. ) ;
#53 = DIRECTION ( 'NONE',  ( 0.000000000000000000, 0.000000000000000000, 1.000000000000000000 ) ) ;
#54 = VECTOR ( 'NONE', #632, 39.37007874015748143 ) ;
#55 = VERTEX_POINT ( 'NONE', #627 ) ;
#56 = AXIS2_PLACEMENT_3D ( 'NONE', #811, #423, #478 ) ;
#57 = EDGE_LOOP ( 'NONE', ( #647, #805, #791, #840 ) ) ;
#58 = FACE_OUTER_BOUND ( 'NONE', #473, .T. ) ;
#59 = ORIENTED_EDGE ( 'NONE', *, *, #99, .F. ) ;
#60 = VECTOR ( 'NONE', #381, 39.37007874015748143 ) ;
#61 =( NAMED_UNIT ( * ) SI_UNIT ( $, .STERADIAN. ) SOLID_ANGLE_UNIT ( ) );
#62 = DIRECTION ( 'NONE',  ( -1.102052315625931988E-14, 7.039335876069302208E-15, -1.000000000000000000 ) ) ;
#63 = ORIENTED_EDGE ( 'NONE', *, *, #517, .T. ) ;
#64 = VERTEX_POINT ( 'NONE', #623 ) ;
#65 = LINE ( 'NONE', #321, #688 ) ;
#66 = CARTESIAN_POINT ( 'NONE',  ( 0.000000000000000000, 0.000000000000000000, 0.7500000000000001110 ) ) ;
#67 = AXIS2_PLACEMENT_3D ( 'NONE', #723, #595, #9 ) ;
#68 = LINE ( 'NONE', #138, #737 ) ;
#69 = EDGE_CURVE ( 'NONE', #172, #767, #158, .T. ) ;
#70 = VERTEX_POINT ( 'NONE', #220 ) ;
#71 =( NAMED_UNIT ( * ) PLANE_ANGLE_UNIT ( ) SI_UNIT ( $, .RADIAN. ) );
#72 = LINE ( 'NONE', #785, #4 ) ;
#73 = ADVANCED_FACE ( 'NONE', ( #427 ), #694, .F. ) ;
#74 = VERTEX_POINT ( 'NONE', #411 ) ;
#75 = DIRECTION ( 'NONE',  ( 0.000000000000000000, 0.000000000000000000, -1.000000000000000000 ) ) ;
#76 = ORIENTED_EDGE ( 'NONE', *, *, #759, .F. ) ;
#77 = ADVANCED_FACE ( 'NONE', ( #819 ), #690, .T. ) ;
#78 = DIRECTION ( 'NONE',  ( 0.000000000000000000, 0.000000000000000000, 1.000000000000000000 ) ) ;
#79 = LINE ( 'NONE', #781, #579 ) ;
#80 = VERTEX_POINT ( 'NONE', #823 ) ;
#81 = CARTESIAN_POINT ( 'NONE',  ( 3.668094551834844008, -0.1050000000000003847, 0.1090000000000001246 ) ) ;
#82 = CARTESIAN_POINT ( 'NONE',  ( 5.157094551834843443, -2.731847993664263218E-16, -0.6250000000000006661 ) ) ;
#83 = EDGE_LOOP ( 'NONE', ( #604, #152, #364, #701 ) ) ;
#84 = CARTESIAN_POINT ( 'NONE',  ( 0.3099999999999911715, 8.195543980992789261E-15, -2.026955730817906254 ) ) ;
#85 = VECTOR ( 'NONE', #841, 39.37007874015748143 ) ;
#86 = CARTESIAN_POINT ( 'NONE',  ( 2.129999999999999893, -0.1049999999999999545, 0.000000000000000000 ) ) ;
#87 = VERTEX_POINT ( 'NONE', #41 ) ;
#88 = FACE_OUTER_BOUND ( 'NONE', #57, .T. ) ;
#89 = VECTOR ( 'NONE', #445, 39.37007874015748143 ) ;
#90 = MANIFOLD_SOLID_BREP ( 'Chapa desplegada', #416 ) ;
#91 = CARTESIAN_POINT ( 'NONE',  ( -7.247018866973793269E-15, 2.731847993664263218E-15, -1.776955730817901147 ) ) ;
#92 = EDGE_CURVE ( 'NONE', #672, #189, #487, .T. ) ;
#93 = ORIENTED_EDGE ( 'NONE', *, *, #834, .F. ) ;
#94 = VECTOR ( 'NONE', #147, 39.37007874015748143 ) ;
#95 = CARTESIAN_POINT ( 'NONE',  ( 3.243094551834844186, -5.463695987328526437E-16, 0.1090000000000001246 ) ) ;
#96 = PRESENTATION_STYLE_ASSIGNMENT (( #756 ) ) ;
#97 = PLANE ( 'NONE',  #539 ) ;
#98 = VERTEX_POINT ( 'NONE', #431 ) ;
#99 = EDGE_CURVE ( 'NONE', #306, #206, #367, .T. ) ;
#100 = DIRECTION ( 'NONE',  ( 1.000000000000000000, 0.000000000000000000, -0.000000000000000000 ) ) ;
#101 = DIRECTION ( 'NONE',  ( -1.000000000000000000, 0.000000000000000000, 0.000000000000000000 ) ) ;
#102 = CIRCLE ( 'NONE', #315, 0.1139999999999999347 ) ;
#103 = ORIENTED_EDGE ( 'NONE', *, *, #556, .F. ) ;
#104 = CARTESIAN_POINT ( 'NONE',  ( -1.228404100298796267E-14, 0.4548626166217695777, -1.776955730817899370 ) ) ;
#105 = EDGE_CURVE ( 'NONE', #397, #751, #289, .T. ) ;
#106 = DIRECTION ( 'NONE',  ( 0.000000000000000000, 0.000000000000000000, -1.000000000000000000 ) ) ;
#107 = VECTOR ( 'NONE', #486, 39.37007874015748143 ) ;
#108 = ORIENTED_EDGE ( 'NONE', *, *, #659, .T. ) ;
#109 = AXIS2_PLACEMENT_3D ( 'NONE', #307, #390, #789 ) ;
#110 = LINE ( 'NONE', #357, #107 ) ;
#111 = FILL_AREA_STYLE_COLOUR ( '', #166 ) ;
#112 = EDGE_LOOP ( 'NONE', ( #402, #49, #538, #493 ) ) ;
#113 = CARTESIAN_POINT ( 'NONE',  ( 4.668094551834843564, -0.1050000000000003847, 0.7500000000000001110 ) ) ;
#114 = DIRECTION ( 'NONE',  ( 0.000000000000000000, 0.000000000000000000, -1.000000000000000000 ) ) ;
#115 = ADVANCED_FACE ( 'NONE', ( #749 ), #418, .F. ) ;
#116 = ORIENTED_EDGE ( 'NONE', *, *, #591, .F. ) ;
#117 = LINE ( 'NONE', #714, #691 ) ;
#118 = ORIENTED_EDGE ( 'NONE', *, *, #358, .T. ) ;
#119 = CARTESIAN_POINT ( 'NONE',  ( 4.668094551834844452, -5.463695987328526437E-16, 0.7500000000000001110 ) ) ;
#120 = DIRECTION ( 'NONE',  ( 3.371331181607637852E-25, 1.000000000000000000, 0.000000000000000000 ) ) ;
#121 = EDGE_LOOP ( 'NONE', ( #696, #547, #628, #692 ) ) ;
#122 = PLANE ( 'NONE',  #351 ) ;
#123 = ORIENTED_EDGE ( 'NONE', *, *, #370, .F. ) ;
#124 = CARTESIAN_POINT ( 'NONE',  ( 4.668094551834844452, -5.463695987328526437E-16, 0.1090000000000001246 ) ) ;
#125 = ORIENTED_EDGE ( 'NONE', *, *, #274, .F. ) ;
#126 = ORIENTED_EDGE ( 'NONE', *, *, #591, .T. ) ;
#127 = FACE_BOUND ( 'NONE', #268, .T. ) ;
#128 = ADVANCED_FACE ( 'NONE', ( #588 ), #770, .F. ) ;
#129 = DIRECTION ( 'NONE',  ( -1.000000000000000000, 0.000000000000000000, 0.000000000000000000 ) ) ;
#130 = VERTEX_POINT ( 'NONE', #188 ) ;
#131 = PRODUCT_DEFINITION_FORMATION_WITH_SPECIFIED_SOURCE ( 'ANY', '', #37, .NOT_KNOWN. ) ;
#132 = FACE_OUTER_BOUND ( 'NONE', #43, .T. ) ;
#133 = VECTOR ( 'NONE', #146, 39.37007874015748143 ) ;
#134 = PLANE ( 'NONE',  #109 ) ;
#135 = DIRECTION ( 'NONE',  ( -1.000000000000000000, 0.000000000000000000, -0.000000000000000000 ) ) ;
#136 = ADVANCED_FACE ( 'NONE', ( #58 ), #186, .F. ) ;
#137 = ORIENTED_EDGE ( 'NONE', *, *, #282, .T. ) ;
#138 = CARTESIAN_POINT ( 'NONE',  ( 3.886094551834844424, -2.731847993664263218E-16, 0.7500000000000001110 ) ) ;
#139 = EDGE_CURVE ( 'NONE', #201, #64, #11, .T. ) ;
#140 = EDGE_LOOP ( 'NONE', ( #256, #469, #10, #187 ) ) ;
#141 = PLANE ( 'NONE',  #308 ) ;
#142 = LINE ( 'NONE', #396, #571 ) ;
#143 = CARTESIAN_POINT ( 'NONE',  ( 4.886094551834844424, 0.000000000000000000, 0.1090000000000001246 ) ) ;
#144 = VERTEX_POINT ( 'NONE', #581 ) ;
#145 = EDGE_CURVE ( 'NONE', #557, #55, #378, .T. ) ;
#146 = DIRECTION ( 'NONE',  ( 1.119791588312063463E-14, -7.039335876069298264E-15, 1.000000000000000000 ) ) ;
#147 = DIRECTION ( 'NONE',  ( -1.102052315625928043E-14, 3.491481338843011871E-15, -1.000000000000000000 ) ) ;
#148 = CARTESIAN_POINT ( 'NONE',  ( 5.157094551834843443, -0.1050000000000003847, 0.7500000000000001110 ) ) ;
#149 = EDGE_LOOP ( 'NONE', ( #531, #746, #261, #800 ) ) ;
#150 = CARTESIAN_POINT ( 'NONE',  ( 2.016000000000000014, -7.180935417243526610E-25, 1.396097351027982954E-17 ) ) ;
#151 = DIRECTION ( 'NONE',  ( 0.000000000000000000, 1.000000000000000000, 0.000000000000000000 ) ) ;
#152 = ORIENTED_EDGE ( 'NONE', *, *, #376, .T. ) ;
#153 = CARTESIAN_POINT ( 'NONE',  ( 0.5924999999999960298, 9.015098379092068029E-15, -1.744455730817906280 ) ) ;
#154 = EDGE_CURVE ( 'NONE', #55, #172, #707, .T. ) ;
#155 = CARTESIAN_POINT ( 'NONE',  ( -9.990515936511108445E-15, 4.644141589229247669E-15, -2.026955730817903145 ) ) ;
#156 = ORIENTED_EDGE ( 'NONE', *, *, #340, .F. ) ;
#157 = FACE_OUTER_BOUND ( 'NONE', #466, .T. ) ;
#158 = LINE ( 'NONE', #559, #203 ) ;
#159 = CARTESIAN_POINT ( 'NONE',  ( -0.3800000000000099964, 2.731847993664263218E-16, -2.026955730817896928 ) ) ;
#160 = UNCERTAINTY_MEASURE_WITH_UNIT (LENGTH_MEASURE( 1.000000000000000082E-05 ), #353, 'distance_accuracy_value', 'NONE');
#161 = APPLICATION_CONTEXT ( 'automotive_design' ) ;
#162 = EDGE_CURVE ( 'NONE', #64, #201, #102, .T. ) ;
#163 = VERTEX_POINT ( 'NONE', #318 ) ;
#164 = AXIS2_PLACEMENT_3D ( 'NONE', #671, #273, #537 ) ;
#165 = CARTESIAN_POINT ( 'NONE',  ( 3.886094551834844424, -2.731847993664263218E-16, -0.1090000000000001246 ) ) ;
#166 = COLOUR_RGB ( '',0.7921568627450980005, 0.8196078431372548767, 0.9333333333333333481 ) ;
#167 = PLANE ( 'NONE',  #164 ) ;
#168 = ORIENTED_EDGE ( 'NONE', *, *, #594, .F. ) ;
#169 = EDGE_CURVE ( 'NONE', #74, #180, #839, .T. ) ;
#170 = FACE_OUTER_BOUND ( 'NONE', #83, .T. ) ;
#171 = VECTOR ( 'NONE', #62, 39.37007874015748143 ) ;
#172 = VERTEX_POINT ( 'NONE', #844 ) ;
#173 = EDGE_CURVE ( 'NONE', #55, #625, #305, .T. ) ;
#174 = DIRECTION ( 'NONE',  ( -1.000000000000000000, -0.000000000000000000, -0.000000000000000000 ) ) ;
#175 = ORIENTED_EDGE ( 'NONE', *, *, #173, .T. ) ;
#176 = VECTOR ( 'NONE', #808, 39.37007874015748143 ) ;
#177 = CARTESIAN_POINT ( 'NONE',  ( 3.243094551834844186, -5.463695987328526437E-16, 0.1090000000000001246 ) ) ;
#178 = CARTESIAN_POINT ( 'NONE',  ( 5.157094551834843443, -2.731847993664263218E-16, 0.7500000000000001110 ) ) ;
#179 =( GEOMETRIC_REPRESENTATION_CONTEXT ( 3 ) GLOBAL_UNCERTAINTY_ASSIGNED_CONTEXT ( ( #160 ) ) GLOBAL_UNIT_ASSIGNED_CONTEXT ( ( #353, #497, #563 ) ) REPRESENTATION_CONTEXT ( 'NONE', 'WORKASPACE' ) );
#180 = VERTEX_POINT ( 'NONE', #254 ) ;
#181 = DIRECTION ( 'NONE',  ( 1.000000000000000000, 1.102052315625928043E-14, -1.119791588312055732E-14 ) ) ;
#182 = DIRECTION ( 'NONE',  ( 1.000000000000000000, 0.000000000000000000, 0.000000000000000000 ) ) ;
#183 = DIRECTION ( 'NONE',  ( -1.097398827814918340E-14, 7.039335876069302208E-15, -1.000000000000000000 ) ) ;
#184 = EDGE_CURVE ( 'NONE', #740, #461, #511, .T. ) ;
#185 = FACE_OUTER_BOUND ( 'NONE', #663, .T. ) ;
#186 = CYLINDRICAL_SURFACE ( 'NONE', #637, 0.1139999999999999347 ) ;
#187 = ORIENTED_EDGE ( 'NONE', *, *, #358, .F. ) ;
#188 = CARTESIAN_POINT ( 'NONE',  ( 0.4999999999999988898, -0.1049999999999948475, -0.7499999999999995559 ) ) ;
#189 = VERTEX_POINT ( 'NONE', #516 ) ;
#190 = EDGE_CURVE ( 'NONE', #704, #163, #438, .T. ) ;
#191 = DIRECTION ( 'NONE',  ( 3.371331181607637852E-25, 1.000000000000000000, 0.000000000000000000 ) ) ;
#192 = FACE_OUTER_BOUND ( 'NONE', #820, .T. ) ;
#193 = ORIENTED_EDGE ( 'NONE', *, *, #514, .F. ) ;
#194 = EDGE_CURVE ( 'NONE', #16, #524, #247, .T. ) ;
#195 = CARTESIAN_POINT ( 'NONE',  ( 0.4999999999999899525, 1.010783757655777411E-14, -2.026955730817908474 ) ) ;
#196 = DIRECTION ( 'NONE',  ( 0.7071067811865490160, 5.551115123125782702E-17, -0.7071067811865460184 ) ) ;
#197 = ORIENTED_EDGE ( 'NONE', *, *, #408, .F. ) ;
#198 = CIRCLE ( 'NONE', #498, 0.1139999999999999625 ) ;
#199 = ADVANCED_FACE ( 'NONE', ( #700, #127, #507, #384, #703 ), #122, .F. ) ;
#200 = CARTESIAN_POINT ( 'NONE',  ( 4.886094551834844424, 0.000000000000000000, -0.1090000000000001246 ) ) ;
#201 = VERTEX_POINT ( 'NONE', #323 ) ;
#202 = AXIS2_PLACEMENT_3D ( 'NONE', #293, #53, #584 ) ;
#203 = VECTOR ( 'NONE', #619, 39.37007874015748143 ) ;
#204 = DIRECTION ( 'NONE',  ( -1.000000000000000000, -1.102052315625927885E-14, 1.102052315625924099E-14 ) ) ;
#205 = LINE ( 'NONE', #697, #455 ) ;
#206 = VERTEX_POINT ( 'NONE', #258 ) ;
#207 = LINE ( 'NONE', #150, #715 ) ;
#208 = DIRECTION ( 'NONE',  ( -1.000000000000000000, -1.102052315625928043E-14, 1.097398827814910609E-14 ) ) ;
#209 = EDGE_LOOP ( 'NONE', ( #630, #375, #687, #218 ) ) ;
#210 = AXIS2_PLACEMENT_3D ( 'NONE', #377, #583, #643 ) ;
#211 = DIRECTION ( 'NONE',  ( -0.7071067811865490160, -5.551115123125782702E-17, -0.7071067811865460184 ) ) ;
#212 = CARTESIAN_POINT ( 'NONE',  ( 3.668094551834843564, -2.731847993664263218E-16, 0.1090000000000001246 ) ) ;
#213 = AXIS2_PLACEMENT_3D ( 'NONE', #684, #606, #728 ) ;
#214 = ORIENTED_EDGE ( 'NONE', *, *, #105, .F. ) ;
#215 = ADVANCED_FACE ( 'NONE', ( #519 ), #780, .T. ) ;
#216 = CARTESIAN_POINT ( 'NONE',  ( 3.243094551834844186, -5.463695987328526437E-16, 0.1090000000000001246 ) ) ;
#217 = DIRECTION ( 'NONE',  ( 0.000000000000000000, 0.000000000000000000, -1.000000000000000000 ) ) ;
#218 = ORIENTED_EDGE ( 'NONE', *, *, #303, .F. ) ;
#219 = DIRECTION ( 'NONE',  ( 1.102052315625920312E-14, -1.000000000000000000, -6.982962677686265922E-15 ) ) ;
#220 = CARTESIAN_POINT ( 'NONE',  ( 0.4999999999999920064, 8.741913579725642299E-15, -1.836955730817908750 ) ) ;
#221 = ADVANCED_FACE ( 'NONE', ( #132 ), #389, .T. ) ;
#222 = LINE ( 'NONE', #546, #457 ) ;
#223 = VERTEX_POINT ( 'NONE', #657 ) ;
#224 = DIRECTION ( 'NONE',  ( 0.000000000000000000, 0.000000000000000000, 1.000000000000000000 ) ) ;
#225 = FACE_OUTER_BOUND ( 'NONE', #121, .T. ) ;
#226 = EDGE_CURVE ( 'NONE', #625, #672, #79, .T. ) ;
#227 = ORIENTED_EDGE ( 'NONE', *, *, #241, .F. ) ;
#228 = PLANE ( 'NONE',  #21 ) ;
#229 = DIRECTION ( 'NONE',  ( -1.000000000000000000, 0.000000000000000000, -0.000000000000000000 ) ) ;
#230 = DIRECTION ( 'NONE',  ( -1.000000000000000000, -1.102052315625928043E-14, 1.102052315625924099E-14 ) ) ;
#231 = PRODUCT_DEFINITION ( 'UNKNOWN', '', #131, #285 ) ;
#232 = VERTEX_POINT ( 'NONE', #454 ) ;
#233 = DIRECTION ( 'NONE',  ( 0.000000000000000000, 1.000000000000000000, 0.000000000000000000 ) ) ;
#234 = FILL_AREA_STYLE ('',( #111 ) ) ;
#235 = DIMENSIONAL_EXPONENTS ( 1.000000000000000000, 0.000000000000000000, 0.000000000000000000, 0.000000000000000000, 0.000000000000000000, 0.000000000000000000, 0.000000000000000000 ) ;
#236 = ORIENTED_EDGE ( 'NONE', *, *, #585, .F. ) ;
#237 = CARTESIAN_POINT ( 'NONE',  ( 3.886094551834844424, -2.731847993664263218E-16, 0.1090000000000001246 ) ) ;
#238 = VECTOR ( 'NONE', #795, 39.37007874015748143 ) ;
#239 = ORIENTED_EDGE ( 'NONE', *, *, #145, .T. ) ;
#240 = FACE_BOUND ( 'NONE', #350, .T. ) ;
#241 = EDGE_CURVE ( 'NONE', #461, #702, #520, .T. ) ;
#242 = CARTESIAN_POINT ( 'NONE',  ( 2.129999999999999893, -7.180935416824268183E-25, 0.000000000000000000 ) ) ;
#243 = ORIENTED_EDGE ( 'NONE', *, *, #69, .T. ) ;
#244 = CARTESIAN_POINT ( 'NONE',  ( 0.3099999999999911715, 8.195543980992789261E-15, -2.026955730817906254 ) ) ;
#245 = ORIENTED_EDGE ( 'NONE', *, *, #726, .T. ) ;
#246 = LENGTH_MEASURE_WITH_UNIT ( LENGTH_MEASURE( 0.02539999999999999897 ), #717 );
#247 = LINE ( 'NONE', #709, #508 ) ;
#248 = ORIENTED_EDGE ( 'NONE', *, *, #139, .F. ) ;
#249 = CARTESIAN_POINT ( 'NONE',  ( 0.4999999999999985567, 4.644141589229247669E-15, -1.256955730817902905 ) ) ;
#250 = DIRECTION ( 'NONE',  ( 0.000000000000000000, 1.000000000000000000, 0.000000000000000000 ) ) ;
#251 = EDGE_CURVE ( 'NONE', #685, #306, #650, .T. ) ;
#252 = ORIENTED_EDGE ( 'NONE', *, *, #603, .F. ) ;
#253 = VECTOR ( 'NONE', #352, 39.37007874015748143 ) ;
#254 = CARTESIAN_POINT ( 'NONE',  ( 4.668094551834844452, -5.463695987328526437E-16, 0.1090000000000001246 ) ) ;
#255 = CARTESIAN_POINT ( 'NONE',  ( 0.000000000000000000, 0.000000000000000000, 0.7500000000000001110 ) ) ;
#256 = ORIENTED_EDGE ( 'NONE', *, *, #479, .F. ) ;
#257 = PRODUCT_CONTEXT ( 'NONE', #28, 'mechanical' ) ;
#258 = CARTESIAN_POINT ( 'NONE',  ( 4.886094551834844424, 0.000000000000000000, 0.1090000000000001246 ) ) ;
#259 = DIRECTION ( 'NONE',  ( 0.000000000000000000, 0.000000000000000000, 1.000000000000000000 ) ) ;
#260 = CARTESIAN_POINT ( 'NONE',  ( 2.129999999999999893, -7.180935416824268183E-25, 0.000000000000000000 ) ) ;
#261 = ORIENTED_EDGE ( 'NONE', *, *, #594, .T. ) ;
#262 = EDGE_CURVE ( 'NONE', #702, #499, #450, .T. ) ;
#263 = DIRECTION ( 'NONE',  ( 1.119791588312059519E-14, -3.491481338843009899E-15, 1.000000000000000000 ) ) ;
#264 = ORIENTED_EDGE ( 'NONE', *, *, #398, .F. ) ;
#265 = CARTESIAN_POINT ( 'NONE',  ( 0.3799999999999999489, -1.281105849010902402E-25, 0.000000000000000000 ) ) ;
#266 = VECTOR ( 'NONE', #233, 39.37007874015748143 ) ;
#267 = CARTESIAN_POINT ( 'NONE',  ( 4.886094551834844424, 0.000000000000000000, -0.1090000000000001246 ) ) ;
#268 = EDGE_LOOP ( 'NONE', ( #118, #360, #596, #316 ) ) ;
#269 = LINE ( 'NONE', #474, #133 ) ;
#270 = CARTESIAN_POINT ( 'NONE',  ( -8.869192861248722181E-15, -0.1049999999999954720, -2.026955730817903589 ) ) ;
#271 = ORIENTED_EDGE ( 'NONE', *, *, #69, .F. ) ;
#272 = FACE_OUTER_BOUND ( 'NONE', #809, .T. ) ;
#273 = DIRECTION ( 'NONE',  ( -0.7071067811865459074, 0.000000000000000000, 0.7071067811865491270 ) ) ;
#274 = EDGE_CURVE ( 'NONE', #2, #98, #72, .T. ) ;
#275 = VERTEX_POINT ( 'NONE', #369 ) ;
#276 = VECTOR ( 'NONE', #287, 39.37007874015748143 ) ;
#277 = DIRECTION ( 'NONE',  ( 0.000000000000000000, 0.000000000000000000, 1.000000000000000000 ) ) ;
#278 = CARTESIAN_POINT ( 'NONE',  ( 3.668094551834843564, -2.731847993664263218E-16, -0.1090000000000001246 ) ) ;
#279 = VECTOR ( 'NONE', #25, 39.37007874015748143 ) ;
#280 = VERTEX_POINT ( 'NONE', #710 ) ;
#281 = VECTOR ( 'NONE', #114, 39.37007874015748143 ) ;
#282 = EDGE_CURVE ( 'NONE', #522, #306, #205, .T. ) ;
#283 = FACE_OUTER_BOUND ( 'NONE', #698, .T. ) ;
#284 = FACE_OUTER_BOUND ( 'NONE', #149, .T. ) ;
#285 = PRODUCT_DEFINITION_CONTEXT ( 'detailed design', #161, 'design' ) ;
#286 = ORIENTED_EDGE ( 'NONE', *, *, #52, .T. ) ;
#287 = DIRECTION ( 'NONE',  ( -0.000000000000000000, -0.000000000000000000, 1.000000000000000000 ) ) ;
#288 = EDGE_CURVE ( 'NONE', #751, #280, #569, .T. ) ;
#289 = LINE ( 'NONE', #35, #459 ) ;
#290 = CARTESIAN_POINT ( 'NONE',  ( 3.243094551834844186, -5.463695987328526437E-16, 0.1090000000000001246 ) ) ;
#291 = ORIENTED_EDGE ( 'NONE', *, *, #99, .T. ) ;
#292 = CARTESIAN_POINT ( 'NONE',  ( 4.886094551834844424, -0.1050000000000006622, -0.1090000000000001246 ) ) ;
#293 = CARTESIAN_POINT ( 'NONE',  ( 2.623728996046439388, 0.000000000000000000, -0.7500000000000001110 ) ) ;
#294 = EDGE_CURVE ( 'NONE', #275, #522, #463, .T. ) ;
#295 = LINE ( 'NONE', #798, #428 ) ;
#296 = VECTOR ( 'NONE', #741, 39.37007874015748143 ) ;
#297 = EDGE_LOOP ( 'NONE', ( #387, #103, #252, #300 ) ) ;
#298 = CARTESIAN_POINT ( 'NONE',  ( -6.089863935566572523E-15, -0.1049999999999972344, -1.776955730817901591 ) ) ;
#299 = DIRECTION ( 'NONE',  ( 0.000000000000000000, 0.000000000000000000, 1.000000000000000000 ) ) ;
#300 = ORIENTED_EDGE ( 'NONE', *, *, #432, .F. ) ;
#301 = PLANE ( 'NONE',  #359 ) ;
#302 = ORIENTED_EDGE ( 'NONE', *, *, #802, .F. ) ;
#303 = EDGE_CURVE ( 'NONE', #180, #522, #505, .T. ) ;
#304 = DIRECTION ( 'NONE',  ( -0.000000000000000000, -0.000000000000000000, 1.000000000000000000 ) ) ;
#305 = LINE ( 'NONE', #576, #60 ) ;
#306 = VERTEX_POINT ( 'NONE', #200 ) ;
#307 = CARTESIAN_POINT ( 'NONE',  ( 5.157094551834843443, -2.731847993664263218E-16, 0.7500000000000001110 ) ) ;
#308 = AXIS2_PLACEMENT_3D ( 'NONE', #678, #400, #277 ) ;
#309 = CARTESIAN_POINT ( 'NONE',  ( 3.668094551834843564, -2.731847993664263218E-16, 0.7500000000000001110 ) ) ;
#310 = AXIS2_PLACEMENT_3D ( 'NONE', #742, #299, #229 ) ;
#311 = ORIENTED_EDGE ( 'NONE', *, *, #494, .T. ) ;
#312 = ORIENTED_EDGE ( 'NONE', *, *, #479, .T. ) ;
#313 = DIRECTION ( 'NONE',  ( 0.000000000000000000, 0.000000000000000000, -1.000000000000000000 ) ) ;
#314 = VECTOR ( 'NONE', #502, 39.37007874015748143 ) ;
#315 = AXIS2_PLACEMENT_3D ( 'NONE', #242, #191, #449 ) ;
#316 = ORIENTED_EDGE ( 'NONE', *, *, #335, .T. ) ;
#317 = CARTESIAN_POINT ( 'NONE',  ( 5.032094551834842555, -0.1050000000000001071, -0.7500000000000001110 ) ) ;
#318 = CARTESIAN_POINT ( 'NONE',  ( 0.4999999999999983347, 1.838851530772917790E-34, -0.7500000000000001110 ) ) ;
#319 = LINE ( 'NONE', #143, #639 ) ;
#320 = EDGE_LOOP ( 'NONE', ( #63, #311, #633, #214 ) ) ;
#321 = CARTESIAN_POINT ( 'NONE',  ( 0.4999999999999988898, -0.1049999999999948475, -0.7499999999999995559 ) ) ;
#322 = VECTOR ( 'NONE', #401, 39.37007874015748143 ) ;
#323 = CARTESIAN_POINT ( 'NONE',  ( 2.016000000000000014, -6.796603662120998151E-25, 1.396097351027984187E-17 ) ) ;
#324 = DIRECTION ( 'NONE',  ( -1.000000000000000000, -1.102052315625931988E-14, 1.102052315625924099E-14 ) ) ;
#325 = ORIENTED_EDGE ( 'NONE', *, *, #695, .F. ) ;
#326 = CARTESIAN_POINT ( 'NONE',  ( 0.3799999999999999489, -0.1049999999999999545, 0.000000000000000000 ) ) ;
#327 = ORIENTED_EDGE ( 'NONE', *, *, #341, .F. ) ;
#328 = EDGE_CURVE ( 'NONE', #80, #711, #68, .T. ) ;
#329 = DIRECTION ( 'NONE',  ( 0.000000000000000000, 0.000000000000000000, -1.000000000000000000 ) ) ;
#330 = ORIENTED_EDGE ( 'NONE', *, *, #194, .T. ) ;
#331 = DIRECTION ( 'NONE',  ( -1.000000000000000000, 0.000000000000000000, -0.000000000000000000 ) ) ;
#332 = DIRECTION ( 'NONE',  ( 0.7071067811865532349, 2.815124522995952761E-15, 0.7071067811865416886 ) ) ;
#333 = ORIENTED_EDGE ( 'NONE', *, *, #784, .F. ) ;
#334 = PLANE ( 'NONE',  #786 ) ;
#335 = EDGE_CURVE ( 'NONE', #721, #835, #592, .T. ) ;
#336 = PLANE ( 'NONE',  #24 ) ;
#337 = ORIENTED_EDGE ( 'NONE', *, *, #251, .F. ) ;
#338 = DIRECTION ( 'NONE',  ( -0.7071067811865417996, -1.273038691817876425E-14, 0.7071067811865533459 ) ) ;
#339 = DIRECTION ( 'NONE',  ( -1.097398827814914395E-14, 3.491481338843012660E-15, -1.000000000000000000 ) ) ;
#340 = EDGE_CURVE ( 'NONE', #476, #46, #762, .T. ) ;
#341 = EDGE_CURVE ( 'NONE', #524, #740, #117, .T. ) ;
#342 = ORIENTED_EDGE ( 'NONE', *, *, #92, .F. ) ;
#343 = PLANE ( 'NONE',  #399 ) ;
#344 = LINE ( 'NONE', #407, #587 ) ;
#345 = AXIS2_PLACEMENT_3D ( 'NONE', #155, #208, #339 ) ;
#346 = ORIENTED_EDGE ( 'NONE', *, *, #190, .F. ) ;
#347 = ADVANCED_FACE ( 'NONE', ( #661 ), #134, .F. ) ;
#348 = CARTESIAN_POINT ( 'NONE',  ( -0.3800000000000061107, -0.1050000000000036599, -1.776955730817897372 ) ) ;
#349 = LINE ( 'NONE', #278, #374 ) ;
#350 = EDGE_LOOP ( 'NONE', ( #510, #76, #264, #754 ) ) ;
#351 = AXIS2_PLACEMENT_3D ( 'NONE', #66, #775, #640 ) ;
#352 = DIRECTION ( 'NONE',  ( 1.102052315625924257E-14, -1.000000000000000000, -3.491481338843133750E-15 ) ) ;
#353 =( CONVERSION_BASED_UNIT ( 'INCH', #45 ) LENGTH_UNIT ( ) NAMED_UNIT ( #235 ) );
#354 = VECTOR ( 'NONE', #654, 39.37007874015748143 ) ;
#355 = DIRECTION ( 'NONE',  ( 3.371331181607637852E-25, 1.000000000000000000, 0.000000000000000000 ) ) ;
#356 = ORIENTED_EDGE ( 'NONE', *, *, #807, .T. ) ;
#357 = CARTESIAN_POINT ( 'NONE',  ( 4.887594551834840040, -0.1050000000000006622, -0.8945000000000034035 ) ) ;
#358 = EDGE_CURVE ( 'NONE', #835, #80, #573, .T. ) ;
#359 = AXIS2_PLACEMENT_3D ( 'NONE', #361, #748, #822 ) ;
#360 = ORIENTED_EDGE ( 'NONE', *, *, #328, .T. ) ;
#361 = CARTESIAN_POINT ( 'NONE',  ( 3.243094551834844186, -5.463695987328526437E-16, -0.1090000000000001246 ) ) ;
#362 = MECHANICAL_DESIGN_GEOMETRIC_PRESENTATION_REPRESENTATION (  '', ( #13 ), #179 ) ;
#363 = EDGE_CURVE ( 'NONE', #499, #232, #142, .T. ) ;
#364 = ORIENTED_EDGE ( 'NONE', *, *, #328, .F. ) ;
#365 = VECTOR ( 'NONE', #329, 39.37007874015748143 ) ;
#366 = CARTESIAN_POINT ( 'NONE',  ( 3.243094551834844186, -0.1050000000000003847, -0.1090000000000001246 ) ) ;
#367 = LINE ( 'NONE', #545, #763 ) ;
#368 = ORIENTED_EDGE ( 'NONE', *, *, #790, .T. ) ;
#369 = CARTESIAN_POINT ( 'NONE',  ( 4.668094551834843564, -0.1050000000000003847, -0.1090000000000001246 ) ) ;
#370 = EDGE_CURVE ( 'NONE', #223, #499, #15, .T. ) ;
#371 = CARTESIAN_POINT ( 'NONE',  ( 0.4939999999999999947, -0.1049999999999999545, 0.000000000000000000 ) ) ;
#372 = DIRECTION ( 'NONE',  ( -1.000000000000000000, 0.000000000000000000, -0.000000000000000000 ) ) ;
#373 = CYLINDRICAL_SURFACE ( 'NONE', #718, 0.1139999999999999347 ) ;
#374 = VECTOR ( 'NONE', #151, 39.37007874015748143 ) ;
#375 = ORIENTED_EDGE ( 'NONE', *, *, #759, .T. ) ;
#376 = EDGE_CURVE ( 'NONE', #144, #711, #764, .T. ) ;
#377 = CARTESIAN_POINT ( 'NONE',  ( 0.000000000000000000, 0.000000000000000000, 0.000000000000000000 ) ) ;
#378 = LINE ( 'NONE', #826, #598 ) ;
#379 = ORIENTED_EDGE ( 'NONE', *, *, #645, .T. ) ;
#380 = LINE ( 'NONE', #249, #89 ) ;
#381 = DIRECTION ( 'NONE',  ( 0.000000000000000000, 1.000000000000000000, 0.000000000000000000 ) ) ;
#382 = ORIENTED_EDGE ( 'NONE', *, *, #241, .T. ) ;
#383 = ORIENTED_EDGE ( 'NONE', *, *, #440, .F. ) ;
#384 = FACE_BOUND ( 'NONE', #783, .T. ) ;
#385 = CARTESIAN_POINT ( 'NONE',  ( 0.4999999999999899525, 9.834652777191348375E-15, -2.026955730817908474 ) ) ;
#386 = VECTOR ( 'NONE', #48, 39.37007874015748143 ) ;
#387 = ORIENTED_EDGE ( 'NONE', *, *, #796, .F. ) ;
#388 = VECTOR ( 'NONE', #404, 39.37007874015748143 ) ;
#389 = PLANE ( 'NONE',  #836 ) ;
#390 = DIRECTION ( 'NONE',  ( -1.000000000000000000, 0.000000000000000000, -0.000000000000000000 ) ) ;
#391 = ADVANCED_FACE ( 'NONE', ( #192 ), #799, .T. ) ;
#392 = ORIENTED_EDGE ( 'NONE', *, *, #194, .F. ) ;
#393 = CARTESIAN_POINT ( 'NONE',  ( 3.668094551834843564, -2.731847993664263218E-16, 0.7500000000000001110 ) ) ;
#394 = ORIENTED_EDGE ( 'NONE', *, *, #465, .T. ) ;
#395 = CARTESIAN_POINT ( 'NONE',  ( 5.032094551834844331, -5.463695987328526437E-16, 0.7500000000000001110 ) ) ;
#396 = CARTESIAN_POINT ( 'NONE',  ( 0.3099999999999923372, -0.1049999999999920441, -2.026955730817906698 ) ) ;
#397 = VERTEX_POINT ( 'NONE', #812 ) ;
#398 = EDGE_CURVE ( 'NONE', #675, #74, #612, .T. ) ;
#399 = AXIS2_PLACEMENT_3D ( 'NONE', #84, #338, #219 ) ;
#400 = DIRECTION ( 'NONE',  ( 1.000000000000000000, 0.000000000000000000, -0.000000000000000000 ) ) ;
#401 = DIRECTION ( 'NONE',  ( 0.000000000000000000, 1.000000000000000000, 0.000000000000000000 ) ) ;
#402 = ORIENTED_EDGE ( 'NONE', *, *, #494, .F. ) ;
#403 = CARTESIAN_POINT ( 'NONE',  ( 0.2660000000000000142, -8.967740943076316814E-26, 1.396097351027982030E-17 ) ) ;
#404 = DIRECTION ( 'NONE',  ( 3.677703061545848409E-34, -1.000000000000000000, 0.000000000000000000 ) ) ;
#405 = ORIENTED_EDGE ( 'NONE', *, *, #426, .F. ) ;
#406 = CARTESIAN_POINT ( 'NONE',  ( -0.3800000000000122724, 0.4548626166217654698, -1.776955730817895596 ) ) ;
#407 = CARTESIAN_POINT ( 'NONE',  ( 0.000000000000000000, 0.000000000000000000, 0.7500000000000001110 ) ) ;
#408 = EDGE_CURVE ( 'NONE', #172, #16, #344, .T. ) ;
#409 = ORIENTED_EDGE ( 'NONE', *, *, #465, .F. ) ;
#410 = PLANE ( 'NONE',  #624 ) ;
#411 = CARTESIAN_POINT ( 'NONE',  ( 4.668094551834843564, -0.1050000000000003847, 0.1090000000000001246 ) ) ;
#412 = DIRECTION ( 'NONE',  ( -0.000000000000000000, 1.000000000000000000, -0.000000000000000000 ) ) ;
#413 = VECTOR ( 'NONE', #544, 39.37007874015748854 ) ;
#414 = ADVANCED_FACE ( 'NONE', ( #284 ), #97, .T. ) ;
#415 = ORIENTED_EDGE ( 'NONE', *, *, #802, .T. ) ;
#416 = CLOSED_SHELL ( 'NONE', ( #670, #3, #77, #115, #199, #816, #503, #347, #631, #732, #666, #608, #453, #128, #490, #744, #705, #391, #414, #655, #215, #649, #221, #136, #73 ) ) ;
#417 = DIRECTION ( 'NONE',  ( -1.000000000000000000, 0.000000000000000000, -0.000000000000000000 ) ) ;
#418 = PLANE ( 'NONE',  #202 ) ;
#419 = CARTESIAN_POINT ( 'NONE',  ( -0.3800000000000088307, -0.1050000000000027023, -2.026955730817897816 ) ) ;
#420 = ORIENTED_EDGE ( 'NONE', *, *, #440, .T. ) ;
#421 = EDGE_CURVE ( 'NONE', #561, #2, #222, .T. ) ;
#422 = CARTESIAN_POINT ( 'NONE',  ( 3.886094551834844868, -0.1050000000000003847, 0.7500000000000001110 ) ) ;
#423 = DIRECTION ( 'NONE',  ( 3.677703061545848409E-34, -1.000000000000000000, 0.000000000000000000 ) ) ;
#424 = ORIENTED_EDGE ( 'NONE', *, *, #8, .T. ) ;
#425 = FACE_OUTER_BOUND ( 'NONE', #140, .T. ) ;
#426 = EDGE_CURVE ( 'NONE', #668, #223, #615, .T. ) ;
#427 = FACE_OUTER_BOUND ( 'NONE', #112, .T. ) ;
#428 = VECTOR ( 'NONE', #665, 39.37007874015748143 ) ;
#429 = ORIENTED_EDGE ( 'NONE', *, *, #585, .T. ) ;
#430 = CARTESIAN_POINT ( 'NONE',  ( 3.886094551834844424, -2.731847993664263218E-16, 0.7500000000000001110 ) ) ;
#431 = CARTESIAN_POINT ( 'NONE',  ( 3.886094551834844868, -0.1050000000000003847, -0.1090000000000001246 ) ) ;
#432 = EDGE_CURVE ( 'NONE', #87, #189, #734, .T. ) ;
#433 = ADVANCED_BREP_SHAPE_REPRESENTATION ( '11-D-3409-02-(12gacr ANSI-61) - K48 - V1-R0', ( #90, #210 ), #567 ) ;
#434 = EDGE_LOOP ( 'NONE', ( #409, #441, #312, #6 ) ) ;
#435 = DIRECTION ( 'NONE',  ( 1.000000000000000000, 0.000000000000000000, 0.000000000000000000 ) ) ;
#436 = ORIENTED_EDGE ( 'NONE', *, *, #184, .F. ) ;
#437 = PLANE ( 'NONE',  #7 ) ;
#438 = LINE ( 'NONE', #443, #314 ) ;
#439 = VECTOR ( 'NONE', #1, 39.37007874015748143 ) ;
#440 = EDGE_CURVE ( 'NONE', #144, #561, #22, .T. ) ;
#441 = ORIENTED_EDGE ( 'NONE', *, *, #421, .T. ) ;
#442 = ORIENTED_EDGE ( 'NONE', *, *, #288, .T. ) ;
#443 = CARTESIAN_POINT ( 'NONE',  ( 2.623728996046439388, 0.000000000000000000, -0.7500000000000001110 ) ) ;
#444 = EDGE_LOOP ( 'NONE', ( #506, #248 ) ) ;
#445 = DIRECTION ( 'NONE',  ( 1.119791588312063463E-14, -7.039335876069298264E-15, 1.000000000000000000 ) ) ;
#446 = DIRECTION ( 'NONE',  ( -0.7071067811865490160, -5.551115123125782702E-17, 0.7071067811865460184 ) ) ;
#447 = ORIENTED_EDGE ( 'NONE', *, *, #52, .F. ) ;
#448 = ORIENTED_EDGE ( 'NONE', *, *, #556, .T. ) ;
#449 = DIRECTION ( 'NONE',  ( -1.000000000000000000, 3.371331181607637852E-25, 0.000000000000000000 ) ) ;
#450 = LINE ( 'NONE', #244, #792 ) ;
#451 = ORIENTED_EDGE ( 'NONE', *, *, #303, .T. ) ;
#452 = DIRECTION ( 'NONE',  ( -1.102052315625931830E-14, 6.982962677686144437E-15, -1.000000000000000000 ) ) ;
#453 = ADVANCED_FACE ( 'NONE', ( #225 ), #743, .F. ) ;
#454 = CARTESIAN_POINT ( 'NONE',  ( 0.4999999999999931721, -0.1049999999999912254, -1.836955730817909194 ) ) ;
#455 = VECTOR ( 'NONE', #523, 39.37007874015748143 ) ;
#456 = ORIENTED_EDGE ( 'NONE', *, *, #14, .F. ) ;
#457 = VECTOR ( 'NONE', #217, 39.37007874015748143 ) ;
#458 = DIRECTION ( 'NONE',  ( 1.102052315625920312E-14, -1.000000000000000000, -6.982962677686265922E-15 ) ) ;
#459 = VECTOR ( 'NONE', #550, 39.37007874015748143 ) ;
#460 = AXIS2_PLACEMENT_3D ( 'NONE', #782, #662, #843 ) ;
#461 = VERTEX_POINT ( 'NONE', #159 ) ;
#462 = CARTESIAN_POINT ( 'NONE',  ( 5.157094551834843443, -2.731847993664263218E-16, 0.6250000000000006661 ) ) ;
#463 = LINE ( 'NONE', #719, #439 ) ;
#464 = AXIS2_PLACEMENT_3D ( 'NONE', #195, #452, #713 ) ;
#465 = EDGE_CURVE ( 'NONE', #561, #721, #680, .T. ) ;
#466 = EDGE_LOOP ( 'NONE', ( #456, #638, #564, #481 ) ) ;
#467 = DIRECTION ( 'NONE',  ( 1.000000000000000000, 3.677703425439637194E-34, 0.000000000000000000 ) ) ;
#468 = CARTESIAN_POINT ( 'NONE',  ( -1.228404100298796267E-14, 0.4548626166217695777, -1.776955730817899370 ) ) ;
#469 = ORIENTED_EDGE ( 'NONE', *, *, #274, .T. ) ;
#470 = VECTOR ( 'NONE', #629, 39.37007874015748143 ) ;
#471 = FACE_OUTER_BOUND ( 'NONE', #613, .T. ) ;
#472 = CARTESIAN_POINT ( 'NONE',  ( 2.243999999999999773, -0.1049999999999999545, 0.000000000000000000 ) ) ;
#473 = EDGE_LOOP ( 'NONE', ( #116, #512, #368, #193 ) ) ;
#474 = CARTESIAN_POINT ( 'NONE',  ( 0.5000000000000008882, -0.1049999999999961520, -1.151955730817906476 ) ) ;
#475 = DIRECTION ( 'NONE',  ( -1.000000000000000000, 3.371331181607637852E-25, 0.000000000000000000 ) ) ;
#476 = VERTEX_POINT ( 'NONE', #472 ) ;
#477 = CARTESIAN_POINT ( 'NONE',  ( 0.4999999999999920064, 8.741913579725642299E-15, -1.836955730817908750 ) ) ;
#478 = DIRECTION ( 'NONE',  ( 1.000000000000000000, 3.677703425439637194E-34, 0.000000000000000000 ) ) ;
#479 = EDGE_CURVE ( 'NONE', #2, #835, #349, .T. ) ;
#480 = CARTESIAN_POINT ( 'NONE',  ( 3.243094551834844186, -0.1050000000000003847, 0.1090000000000001246 ) ) ;
#481 = ORIENTED_EDGE ( 'NONE', *, *, #618, .F. ) ;
#482 = CARTESIAN_POINT ( 'NONE',  ( 0.3099999999999911715, 7.922359181626363531E-15, -2.026955730817906254 ) ) ;
#483 = DIRECTION ( 'NONE',  ( -1.000000000000000000, 0.000000000000000000, -0.000000000000000000 ) ) ;
#484 = ORIENTED_EDGE ( 'NONE', *, *, #821, .T. ) ;
#485 = AXIS2_PLACEMENT_3D ( 'NONE', #833, #120, #766 ) ;
#486 = DIRECTION ( 'NONE',  ( 0.7071067811865490160, 5.551115123125782702E-17, 0.7071067811865460184 ) ) ;
#487 = LINE ( 'NONE', #178, #281 ) ;
#488 = DIRECTION ( 'NONE',  ( 3.371331181607637852E-25, 1.000000000000000000, 0.000000000000000000 ) ) ;
#489 = ORIENTED_EDGE ( 'NONE', *, *, #560, .T. ) ;
#490 = ADVANCED_FACE ( 'NONE', ( #31 ), #336, .F. ) ;
#491 = LINE ( 'NONE', #104, #253 ) ;
#492 = SURFACE_SIDE_STYLE ('',( #679 ) ) ;
#493 = ORIENTED_EDGE ( 'NONE', *, *, #543, .F. ) ;
#494 = EDGE_CURVE ( 'NONE', #641, #280, #551, .T. ) ;
#495 = FACE_OUTER_BOUND ( 'NONE', #209, .T. ) ;
#496 = VECTOR ( 'NONE', #34, 39.37007874015748143 ) ;
#497 =( NAMED_UNIT ( * ) PLANE_ANGLE_UNIT ( ) SI_UNIT ( $, .RADIAN. ) );
#498 = AXIS2_PLACEMENT_3D ( 'NONE', #555, #488, #753 ) ;
#499 = VERTEX_POINT ( 'NONE', #18 ) ;
#500 = EDGE_LOOP ( 'NONE', ( #716, #484, #346, #448 ) ) ;
#501 = FACE_BOUND ( 'NONE', #33, .T. ) ;
#502 = DIRECTION ( 'NONE',  ( -1.000000000000000000, 0.000000000000000000, -0.000000000000000000 ) ) ;
#503 = ADVANCED_FACE ( 'NONE', ( #674 ), #167, .F. ) ;
#504 = ORIENTED_EDGE ( 'NONE', *, *, #790, .F. ) ;
#505 = LINE ( 'NONE', #50, #548 ) ;
#506 = ORIENTED_EDGE ( 'NONE', *, *, #162, .F. ) ;
#507 = FACE_BOUND ( 'NONE', #658, .T. ) ;
#508 = VECTOR ( 'NONE', #183, 39.37007874015748143 ) ;
#509 = PRODUCT_RELATED_PRODUCT_CATEGORY ( 'part', '', ( #37 ) ) ;
#510 = ORIENTED_EDGE ( 'NONE', *, *, #771, .F. ) ;
#511 = LINE ( 'NONE', #644, #171 ) ;
#512 = ORIENTED_EDGE ( 'NONE', *, *, #139, .T. ) ;
#513 = VECTOR ( 'NONE', #174, 39.37007874015748143 ) ;
#514 = EDGE_CURVE ( 'NONE', #46, #476, #664, .T. ) ;
#515 = APPLICATION_PROTOCOL_DEFINITION ( 'draft international standard', 'automotive_design', 1998, #28 ) ;
#516 = CARTESIAN_POINT ( 'NONE',  ( 5.157094551834843443, -2.731847993664263218E-16, -0.6250000000000001110 ) ) ;
#517 = EDGE_CURVE ( 'NONE', #397, #641, #525, .T. ) ;
#518 = APPLICATION_PROTOCOL_DEFINITION ( 'draft international standard', 'automotive_design', 1998, #161 ) ;
#519 = FACE_OUTER_BOUND ( 'NONE', #681, .T. ) ;
#520 = LINE ( 'NONE', #385, #642 ) ;
#521 = LINE ( 'NONE', #724, #830 ) ;
#522 = VERTEX_POINT ( 'NONE', #739 ) ;
#523 = DIRECTION ( 'NONE',  ( 1.000000000000000000, 0.000000000000000000, 0.000000000000000000 ) ) ;
#524 = VERTEX_POINT ( 'NONE', #91 ) ;
#525 = CIRCLE ( 'NONE', #827, 0.1139999999999999625 ) ;
#526 = LINE ( 'NONE', #462, #677 ) ;
#527 = EDGE_CURVE ( 'NONE', #767, #668, #620, .T. ) ;
#528 = DIRECTION ( 'NONE',  ( 3.371331181607637852E-25, 1.000000000000000000, 0.000000000000000000 ) ) ;
#529 = VECTOR ( 'NONE', #106, 39.37007874015748143 ) ;
#530 = DIRECTION ( 'NONE',  ( 3.677703061545848409E-34, -1.000000000000000000, 0.000000000000000000 ) ) ;
#531 = ORIENTED_EDGE ( 'NONE', *, *, #726, .F. ) ;
#532 = CARTESIAN_POINT ( 'NONE',  ( 4.886094551834844424, -0.1050000000000006622, 0.1090000000000001246 ) ) ;
#533 = DIRECTION ( 'NONE',  ( 1.102052315625928201E-14, -3.491481338843011476E-15, 1.000000000000000000 ) ) ;
#534 = CARTESIAN_POINT ( 'NONE',  ( 2.016000000000000014, -0.1049999999999999545, 1.396097351027984187E-17 ) ) ;
#535 = ORIENTED_EDGE ( 'NONE', *, *, #190, .T. ) ;
#536 = DIRECTION ( 'NONE',  ( 0.7071067811865459074, 0.000000000000000000, 0.7071067811865491270 ) ) ;
#537 = DIRECTION ( 'NONE',  ( 0.000000000000000000, 1.000000000000000000, 0.000000000000000000 ) ) ;
#538 = ORIENTED_EDGE ( 'NONE', *, *, #105, .T. ) ;
#539 = AXIS2_PLACEMENT_3D ( 'NONE', #468, #533, #26 ) ;
#540 = DIRECTION ( 'NONE',  ( -1.000000000000000000, 0.000000000000000000, -0.000000000000000000 ) ) ;
#541 = DIRECTION ( 'NONE',  ( 3.371331181607637852E-25, 1.000000000000000000, 0.000000000000000000 ) ) ;
#542 = ORIENTED_EDGE ( 'NONE', *, *, #426, .T. ) ;
#543 = EDGE_CURVE ( 'NONE', #280, #751, #198, .T. ) ;
#544 = DIRECTION ( 'NONE',  ( -0.7071067811865532349, -2.815124522995952761E-15, -0.7071067811865416886 ) ) ;
#545 = CARTESIAN_POINT ( 'NONE',  ( 4.886094551834844424, 0.000000000000000000, 0.7500000000000001110 ) ) ;
#546 = CARTESIAN_POINT ( 'NONE',  ( 3.668094551834844008, -0.1050000000000003847, 0.7500000000000001110 ) ) ;
#547 = ORIENTED_EDGE ( 'NONE', *, *, #771, .T. ) ;
#548 = VECTOR ( 'NONE', #75, 39.37007874015748143 ) ;
#549 = CARTESIAN_POINT ( 'NONE',  ( 2.623728996046439388, -0.1049999999999998296, 0.7500000000000001110 ) ) ;
#550 = DIRECTION ( 'NONE',  ( 3.677703061545848409E-34, -1.000000000000000000, 0.000000000000000000 ) ) ;
#551 = LINE ( 'NONE', #750, #388 ) ;
#552 = ORIENTED_EDGE ( 'NONE', *, *, #514, .T. ) ;
#553 = LINE ( 'NONE', #755, #496 ) ;
#554 =( LENGTH_UNIT ( ) NAMED_UNIT ( * ) SI_UNIT ( $, .METRE. ) );
#555 = CARTESIAN_POINT ( 'NONE',  ( 0.3799999999999999489, -0.1049999999999999545, 0.000000000000000000 ) ) ;
#556 = EDGE_CURVE ( 'NONE', #704, #824, #295, .T. ) ;
#557 = VERTEX_POINT ( 'NONE', #793 ) ;
#558 = LINE ( 'NONE', #626, #745 ) ;
#559 = CARTESIAN_POINT ( 'NONE',  ( 7.688787382766791305E-16, -0.1050000000000016059, -1.151955730817900703 ) ) ;
#560 = EDGE_CURVE ( 'NONE', #232, #130, #269, .T. ) ;
#561 = VERTEX_POINT ( 'NONE', #81 ) ;
#562 = LINE ( 'NONE', #566, #513 ) ;
#563 =( NAMED_UNIT ( * ) SI_UNIT ( $, .STERADIAN. ) SOLID_ANGLE_UNIT ( ) );
#564 = ORIENTED_EDGE ( 'NONE', *, *, #169, .T. ) ;
#565 = ORIENTED_EDGE ( 'NONE', *, *, #527, .T. ) ;
#566 = CARTESIAN_POINT ( 'NONE',  ( 2.623728996046439388, -0.1049999999999998296, -0.7500000000000001110 ) ) ;
#567 =( GEOMETRIC_REPRESENTATION_CONTEXT ( 3 ) GLOBAL_UNCERTAINTY_ASSIGNED_CONTEXT ( ( #32 ) ) GLOBAL_UNIT_ASSIGNED_CONTEXT ( ( #769, #71, #61 ) ) REPRESENTATION_CONTEXT ( 'NONE', 'WORKASPACE' ) );
#568 = CARTESIAN_POINT ( 'NONE',  ( 2.129999999999999893, -7.180935416824268183E-25, 0.000000000000000000 ) ) ;
#569 = CIRCLE ( 'NONE', #676, 0.1139999999999999625 ) ;
#570 = PRODUCT_DEFINITION_SHAPE ( 'NONE', 'NONE',  #231 ) ;
#571 = VECTOR ( 'NONE', #332, 39.37007874015748854 ) ;
#572 = ORIENTED_EDGE ( 'NONE', *, *, #262, .T. ) ;
#573 = LINE ( 'NONE', #5, #610 ) ;
#574 = EDGE_LOOP ( 'NONE', ( #535, #93, #379, #227, #436, #327, #392, #761, #578, #797, #621 ) ) ;
#575 = CIRCLE ( 'NONE', #460, 0.1139999999999999625 ) ;
#576 = CARTESIAN_POINT ( 'NONE',  ( 5.032094551834844331, -5.463695987328526437E-16, 0.7500000000000001110 ) ) ;
#577 = CARTESIAN_POINT ( 'NONE',  ( 3.668094551834844008, -0.1050000000000003847, -0.1090000000000001246 ) ) ;
#578 = ORIENTED_EDGE ( 'NONE', *, *, #226, .T. ) ;
#579 = VECTOR ( 'NONE', #196, 39.37007874015748143 ) ;
#580 = DIRECTION ( 'NONE',  ( -1.102052315625924099E-14, 1.000000000000000000, -0.000000000000000000 ) ) ;
#581 = CARTESIAN_POINT ( 'NONE',  ( 3.886094551834844868, -0.1050000000000003847, 0.1090000000000001246 ) ) ;
#582 = ORIENTED_EDGE ( 'NONE', *, *, #376, .F. ) ;
#583 = DIRECTION ( 'NONE',  ( 0.000000000000000000, 0.000000000000000000, 1.000000000000000000 ) ) ;
#584 = DIRECTION ( 'NONE',  ( -1.000000000000000000, 0.000000000000000000, -0.000000000000000000 ) ) ;
#585 = EDGE_CURVE ( 'NONE', #672, #557, #526, .T. ) ;
#586 = DIRECTION ( 'NONE',  ( 0.000000000000000000, 1.000000000000000000, 0.000000000000000000 ) ) ;
#587 = VECTOR ( 'NONE', #667, 39.37007874015748143 ) ;
#588 = FACE_OUTER_BOUND ( 'NONE', #434, .T. ) ;
#589 = DIRECTION ( 'NONE',  ( 1.000000000000000000, 1.102052315625931988E-14, -1.102052315625924099E-14 ) ) ;
#590 = ORIENTED_EDGE ( 'NONE', *, *, #408, .T. ) ;
#591 = EDGE_CURVE ( 'NONE', #201, #46, #207, .T. ) ;
#592 = LINE ( 'NONE', #393, #365 ) ;
#593 = EDGE_LOOP ( 'NONE', ( #325, #27, #447, #239, #656, #243, #565, #542, #636, #646, #489 ) ) ;
#594 = EDGE_CURVE ( 'NONE', #740, #668, #17, .T. ) ;
#595 = DIRECTION ( 'NONE',  ( 3.371331181607637852E-25, 1.000000000000000000, 0.000000000000000000 ) ) ;
#596 = ORIENTED_EDGE ( 'NONE', *, *, #738, .T. ) ;
#597 = DIRECTION ( 'NONE',  ( 3.677703061545848409E-34, -1.000000000000000000, 0.000000000000000000 ) ) ;
#598 = VECTOR ( 'NONE', #446, 39.37007874015748143 ) ;
#599 = DIRECTION ( 'NONE',  ( 1.000000000000000000, 0.000000000000000000, 0.000000000000000000 ) ) ;
#600 = ORIENTED_EDGE ( 'NONE', *, *, #821, .F. ) ;
#601 = CARTESIAN_POINT ( 'NONE',  ( 5.032094551834844331, -5.463695987328526437E-16, 0.7500000000000001110 ) ) ;
#602 = DIRECTION ( 'NONE',  ( 0.000000000000000000, 0.000000000000000000, 1.000000000000000000 ) ) ;
#603 = EDGE_CURVE ( 'NONE', #189, #704, #788, .T. ) ;
#604 = ORIENTED_EDGE ( 'NONE', *, *, #784, .T. ) ;
#605 = PLANE ( 'NONE',  #635 ) ;
#606 = DIRECTION ( 'NONE',  ( 0.000000000000000000, 0.000000000000000000, -1.000000000000000000 ) ) ;
#607 = VECTOR ( 'NONE', #182, 39.37007874015748143 ) ;
#608 = ADVANCED_FACE ( 'NONE', ( #471 ), #141, .F. ) ;
#609 = ORIENTED_EDGE ( 'NONE', *, *, #560, .F. ) ;
#610 = VECTOR ( 'NONE', #599, 39.37007874015748143 ) ;
#611 = CARTESIAN_POINT ( 'NONE',  ( -0.3800000000000149925, 0.4548626166217663025, -2.026955730817895596 ) ) ;
#612 = LINE ( 'NONE', #36, #176 ) ;
#613 = EDGE_LOOP ( 'NONE', ( #356, #787, #59, #337 ) ) ;
#614 = FACE_OUTER_BOUND ( 'NONE', #320, .T. ) ;
#615 = LINE ( 'NONE', #419, #94 ) ;
#616 = ORIENTED_EDGE ( 'NONE', *, *, #340, .T. ) ;
#617 = LINE ( 'NONE', #422, #276 ) ;
#618 = EDGE_CURVE ( 'NONE', #206, #180, #806, .T. ) ;
#619 = DIRECTION ( 'NONE',  ( -1.097398827814918340E-14, 7.039335876069302208E-15, -1.000000000000000000 ) ) ;
#620 = LINE ( 'NONE', #815, #776 ) ;
#621 = ORIENTED_EDGE ( 'NONE', *, *, #603, .T. ) ;
#622 = LINE ( 'NONE', #177, #470 ) ;
#623 = CARTESIAN_POINT ( 'NONE',  ( 2.243999999999999773, -7.565267171527539133E-25, 0.000000000000000000 ) ) ;
#624 = AXIS2_PLACEMENT_3D ( 'NONE', #95, #78, #331 ) ;
#625 = VERTEX_POINT ( 'NONE', #601 ) ;
#626 = CARTESIAN_POINT ( 'NONE',  ( 4.886094551834844424, -0.1050000000000006622, 0.7500000000000001110 ) ) ;
#627 = CARTESIAN_POINT ( 'NONE',  ( 5.032094551834842555, -0.1050000000000001071, 0.7500000000000001110 ) ) ;
#628 = ORIENTED_EDGE ( 'NONE', *, *, #251, .T. ) ;
#629 = DIRECTION ( 'NONE',  ( -1.000000000000000000, 0.000000000000000000, -0.000000000000000000 ) ) ;
#630 = ORIENTED_EDGE ( 'NONE', *, *, #169, .F. ) ;
#631 = ADVANCED_FACE ( 'NONE', ( #283 ), #334, .T. ) ;
#632 = DIRECTION ( 'NONE',  ( 1.000000000000000000, 1.102052315625931988E-14, -1.102052315625924099E-14 ) ) ;
#633 = ORIENTED_EDGE ( 'NONE', *, *, #288, .F. ) ;
#634 = DIRECTION ( 'NONE',  ( 1.000000000000000000, 3.677703425439639333E-34, 0.000000000000000000 ) ) ;
#635 = AXIS2_PLACEMENT_3D ( 'NONE', #611, #204, #20 ) ;
#636 = ORIENTED_EDGE ( 'NONE', *, *, #370, .T. ) ;
#637 = AXIS2_PLACEMENT_3D ( 'NONE', #568, #648, #634 ) ;
#638 = ORIENTED_EDGE ( 'NONE', *, *, #398, .T. ) ;
#639 = VECTOR ( 'NONE', #586, 39.37007874015748143 ) ;
#640 = DIRECTION ( 'NONE',  ( 1.000000000000000000, 3.677703061545848409E-34, 0.000000000000000000 ) ) ;
#641 = VERTEX_POINT ( 'NONE', #403 ) ;
#642 = VECTOR ( 'NONE', #589, 39.37007874015748143 ) ;
#643 = DIRECTION ( 'NONE',  ( 1.000000000000000000, 0.000000000000000000, 0.000000000000000000 ) ) ;
#644 = CARTESIAN_POINT ( 'NONE',  ( -0.3800000000000099964, 2.731847993664263218E-16, -2.026955730817898704 ) ) ;
#645 = EDGE_CURVE ( 'NONE', #70, #702, #669, .T. ) ;
#646 = ORIENTED_EDGE ( 'NONE', *, *, #363, .T. ) ;
#647 = ORIENTED_EDGE ( 'NONE', *, *, #645, .F. ) ;
#648 = DIRECTION ( 'NONE',  ( 3.677703061545848409E-34, -1.000000000000000000, 0.000000000000000000 ) ) ;
#649 = ADVANCED_FACE ( 'NONE', ( #88 ), #343, .F. ) ;
#650 = LINE ( 'NONE', #267, #354 ) ;
#651 = VECTOR ( 'NONE', #412, 39.37007874015748143 ) ;
#652 = EDGE_LOOP ( 'NONE', ( #616, #552 ) ) ;
#653 = CARTESIAN_POINT ( 'NONE',  ( 0.4999999999999985567, 4.917326388595674188E-15, -1.256955730817902905 ) ) ;
#654 = DIRECTION ( 'NONE',  ( 0.000000000000000000, 1.000000000000000000, 0.000000000000000000 ) ) ;
#655 = ADVANCED_FACE ( 'NONE', ( #272 ), #605, .T. ) ;
#656 = ORIENTED_EDGE ( 'NONE', *, *, #154, .T. ) ;
#657 = CARTESIAN_POINT ( 'NONE',  ( -0.3800000000000088307, -0.1050000000000027023, -2.026955730817897816 ) ) ;
#658 = EDGE_LOOP ( 'NONE', ( #137, #291, #829, #451 ) ) ;
#659 = EDGE_CURVE ( 'NONE', #232, #70, #660, .T. ) ;
#660 = LINE ( 'NONE', #477, #296 ) ;
#661 = FACE_OUTER_BOUND ( 'NONE', #768, .T. ) ;
#662 = DIRECTION ( 'NONE',  ( 3.371331181607637852E-25, 1.000000000000000000, 0.000000000000000000 ) ) ;
#663 = EDGE_LOOP ( 'NONE', ( #757, #126, #156, #504 ) ) ;
#664 = CIRCLE ( 'NONE', #801, 0.1139999999999999347 ) ;
#665 = DIRECTION ( 'NONE',  ( -0.000000000000000000, -1.000000000000000000, -0.000000000000000000 ) ) ;
#666 = ADVANCED_FACE ( 'NONE', ( #157 ), #410, .F. ) ;
#667 = DIRECTION ( 'NONE',  ( -3.677703061545848409E-34, 1.000000000000000000, 0.000000000000000000 ) ) ;
#668 = VERTEX_POINT ( 'NONE', #348 ) ;
#669 = LINE ( 'NONE', #153, #413 ) ;
#670 = ADVANCED_FACE ( 'NONE', ( #614 ), #733, .F. ) ;
#671 = CARTESIAN_POINT ( 'NONE',  ( 5.157094551834843443, -2.731847993664263218E-16, -0.6250000000000006661 ) ) ;
#672 = VERTEX_POINT ( 'NONE', #12 ) ;
#673 = DIRECTION ( 'NONE',  ( -0.000000000000000000, -1.000000000000000000, -0.000000000000000000 ) ) ;
#674 = FACE_OUTER_BOUND ( 'NONE', #297, .T. ) ;
#675 = VERTEX_POINT ( 'NONE', #532 ) ;
#676 = AXIS2_PLACEMENT_3D ( 'NONE', #326, #528, #129 ) ;
#677 = VECTOR ( 'NONE', #673, 39.37007874015748143 ) ;
#678 = CARTESIAN_POINT ( 'NONE',  ( 4.886094551834844424, 0.000000000000000000, 0.7500000000000001110 ) ) ;
#679 = SURFACE_STYLE_FILL_AREA ( #234 ) ;
#680 = LINE ( 'NONE', #212, #322 ) ;
#681 = EDGE_LOOP ( 'NONE', ( #382, #572, #123, #302 ) ) ;
#682 = EDGE_CURVE ( 'NONE', #98, #80, #727, .T. ) ;
#683 = DIRECTION ( 'NONE',  ( 0.000000000000000000, 0.000000000000000000, -1.000000000000000000 ) ) ;
#684 = CARTESIAN_POINT ( 'NONE',  ( 3.243094551834844186, -5.463695987328526437E-16, -0.1090000000000001246 ) ) ;
#685 = VERTEX_POINT ( 'NONE', #292 ) ;
#686 = CARTESIAN_POINT ( 'NONE',  ( -0.3800000000000149925, 0.4548626166217663025, -2.026955730817895596 ) ) ;
#687 = ORIENTED_EDGE ( 'NONE', *, *, #294, .T. ) ;
#688 = VECTOR ( 'NONE', #580, 39.37007874015748143 ) ;
#689 = LINE ( 'NONE', #366, #607 ) ;
#690 = PLANE ( 'NONE',  #310 ) ;
#691 = VECTOR ( 'NONE', #324, 39.37007874015748143 ) ;
#692 = ORIENTED_EDGE ( 'NONE', *, *, #282, .F. ) ;
#693 = LINE ( 'NONE', #113, #774 ) ;
#694 = CYLINDRICAL_SURFACE ( 'NONE', #56, 0.1140000000000000041 ) ;
#695 = EDGE_CURVE ( 'NONE', #824, #130, #562, .T. ) ;
#696 = ORIENTED_EDGE ( 'NONE', *, *, #294, .F. ) ;
#697 = CARTESIAN_POINT ( 'NONE',  ( 3.243094551834844186, -5.463695987328526437E-16, -0.1090000000000001246 ) ) ;
#698 = EDGE_LOOP ( 'NONE', ( #19, #236, #772, #813 ) ) ;
#699 = DIRECTION ( 'NONE',  ( 0.000000000000000000, -1.000000000000000000, 0.000000000000000000 ) ) ;
#700 = FACE_OUTER_BOUND ( 'NONE', #574, .T. ) ;
#701 = ORIENTED_EDGE ( 'NONE', *, *, #682, .F. ) ;
#702 = VERTEX_POINT ( 'NONE', #482 ) ;
#703 = FACE_BOUND ( 'NONE', #444, .T. ) ;
#704 = VERTEX_POINT ( 'NONE', #814 ) ;
#705 = ADVANCED_FACE ( 'NONE', ( #425 ), #301, .F. ) ;
#706 = PRESENTATION_LAYER_ASSIGNMENT (  '', '', ( #13 ) ) ;
#707 = LINE ( 'NONE', #778, #85 ) ;
#708 = EDGE_LOOP ( 'NONE', ( #125, #773, #383, #333 ) ) ;
#709 = CARTESIAN_POINT ( 'NONE',  ( -9.990515936511103712E-15, 4.370956789862821150E-15, -2.026955730817903145 ) ) ;
#710 = CARTESIAN_POINT ( 'NONE',  ( 0.2660000000000000142, -0.1049999999999999545, 1.396097351027982030E-17 ) ) ;
#711 = VERTEX_POINT ( 'NONE', #237 ) ;
#712 = SHAPE_DEFINITION_REPRESENTATION ( #570, #433 ) ;
#713 = DIRECTION ( 'NONE',  ( -1.102052315625920312E-14, 1.000000000000000000, 6.982962677686265922E-15 ) ) ;
#714 = CARTESIAN_POINT ( 'NONE',  ( -7.271217003591090869E-15, 2.731847993664263218E-15, -1.776955730817901147 ) ) ;
#715 = VECTOR ( 'NONE', #722, 39.37007874015748143 ) ;
#716 = ORIENTED_EDGE ( 'NONE', *, *, #695, .T. ) ;
#717 =( LENGTH_UNIT ( ) NAMED_UNIT ( * ) SI_UNIT ( $, .METRE. ) );
#718 = AXIS2_PLACEMENT_3D ( 'NONE', #260, #530, #720 ) ;
#719 = CARTESIAN_POINT ( 'NONE',  ( 4.668094551834844452, -5.463695987328526437E-16, -0.1090000000000001246 ) ) ;
#720 = DIRECTION ( 'NONE',  ( 1.000000000000000000, 3.677703425439639333E-34, 0.000000000000000000 ) ) ;
#721 = VERTEX_POINT ( 'NONE', #752 ) ;
#722 = DIRECTION ( 'NONE',  ( 3.677703061545848409E-34, -1.000000000000000000, 0.000000000000000000 ) ) ;
#723 = CARTESIAN_POINT ( 'NONE',  ( 2.129999999999999893, -0.1049999999999999545, 0.000000000000000000 ) ) ;
#724 = CARTESIAN_POINT ( 'NONE',  ( 2.623728996046439388, 0.000000000000000000, 0.7500000000000001110 ) ) ;
#725 = ORIENTED_EDGE ( 'NONE', *, *, #543, .T. ) ;
#726 = EDGE_CURVE ( 'NONE', #524, #767, #491, .T. ) ;
#727 = LINE ( 'NONE', #165, #266 ) ;
#728 = DIRECTION ( 'NONE',  ( 1.000000000000000000, 0.000000000000000000, 0.000000000000000000 ) ) ;
#729 = LINE ( 'NONE', #148, #529 ) ;
#730 = ORIENTED_EDGE ( 'NONE', *, *, #432, .T. ) ;
#731 = VECTOR ( 'NONE', #540, 39.37007874015748143 ) ;
#732 = ADVANCED_FACE ( 'NONE', ( #495 ), #44, .F. ) ;
#733 = CYLINDRICAL_SURFACE ( 'NONE', #747, 0.1140000000000000041 ) ;
#734 = LINE ( 'NONE', #82, #651 ) ;
#735 = ORIENTED_EDGE ( 'NONE', *, *, #42, .F. ) ;
#736 = CARTESIAN_POINT ( 'NONE',  ( 5.157094551834843443, -2.731847993664263218E-16, -0.6250000000000006661 ) ) ;
#737 = VECTOR ( 'NONE', #259, 39.37007874015748143 ) ;
#738 = EDGE_CURVE ( 'NONE', #711, #721, #622, .T. ) ;
#739 = CARTESIAN_POINT ( 'NONE',  ( 4.668094551834844452, -5.463695987328526437E-16, -0.1090000000000001246 ) ) ;
#740 = VERTEX_POINT ( 'NONE', #758 ) ;
#741 = DIRECTION ( 'NONE',  ( -1.102052315625920312E-14, 1.000000000000000000, 6.982962677686265922E-15 ) ) ;
#742 = CARTESIAN_POINT ( 'NONE',  ( 2.623728996046439388, 0.000000000000000000, 0.7500000000000001110 ) ) ;
#743 = PLANE ( 'NONE',  #213 ) ;
#744 = ADVANCED_FACE ( 'NONE', ( #170 ), #228, .F. ) ;
#745 = VECTOR ( 'NONE', #304, 39.37007874015748143 ) ;
#746 = ORIENTED_EDGE ( 'NONE', *, *, #341, .T. ) ;
#747 = AXIS2_PLACEMENT_3D ( 'NONE', #265, #597, #467 ) ;
#748 = DIRECTION ( 'NONE',  ( 0.000000000000000000, 0.000000000000000000, -1.000000000000000000 ) ) ;
#749 = FACE_OUTER_BOUND ( 'NONE', #500, .T. ) ;
#750 = CARTESIAN_POINT ( 'NONE',  ( 0.2660000000000000142, -1.281105849430160600E-25, 1.396097351027982030E-17 ) ) ;
#751 = VERTEX_POINT ( 'NONE', #371 ) ;
#752 = CARTESIAN_POINT ( 'NONE',  ( 3.668094551834843564, -2.731847993664263218E-16, 0.1090000000000001246 ) ) ;
#753 = DIRECTION ( 'NONE',  ( -1.000000000000000000, 0.000000000000000000, 0.000000000000000000 ) ) ;
#754 = ORIENTED_EDGE ( 'NONE', *, *, #807, .F. ) ;
#755 = CARTESIAN_POINT ( 'NONE',  ( 2.243999999999999773, -7.180935416405010674E-25, 0.000000000000000000 ) ) ;
#756 = SURFACE_STYLE_USAGE ( .BOTH. , #492 ) ;
#757 = ORIENTED_EDGE ( 'NONE', *, *, #162, .T. ) ;
#758 = CARTESIAN_POINT ( 'NONE',  ( -0.3800000000000072764, -1.365923996832131609E-15, -1.776955730817897372 ) ) ;
#759 = EDGE_CURVE ( 'NONE', #74, #275, #693, .T. ) ;
#760 = VECTOR ( 'NONE', #779, 39.37007874015748143 ) ;
#761 = ORIENTED_EDGE ( 'NONE', *, *, #8, .F. ) ;
#762 = CIRCLE ( 'NONE', #67, 0.1139999999999999347 ) ;
#763 = VECTOR ( 'NONE', #30, 39.37007874015748143 ) ;
#764 = LINE ( 'NONE', #831, #760 ) ;
#765 = FACE_BOUND ( 'NONE', #652, .T. ) ;
#766 = DIRECTION ( 'NONE',  ( -1.000000000000000000, 3.371331181607637852E-25, 0.000000000000000000 ) ) ;
#767 = VERTEX_POINT ( 'NONE', #298 ) ;
#768 = EDGE_LOOP ( 'NONE', ( #342, #429, #286, #730 ) ) ;
#769 =( CONVERSION_BASED_UNIT ( 'INCH', #246 ) LENGTH_UNIT ( ) NAMED_UNIT ( #47 ) );
#770 = PLANE ( 'NONE',  #828 ) ;
#771 = EDGE_CURVE ( 'NONE', #275, #685, #689, .T. ) ;
#772 = ORIENTED_EDGE ( 'NONE', *, *, #226, .F. ) ;
#773 = ORIENTED_EDGE ( 'NONE', *, *, #421, .F. ) ;
#774 = VECTOR ( 'NONE', #40, 39.37007874015748143 ) ;
#775 = DIRECTION ( 'NONE',  ( 3.677703061545848409E-34, -1.000000000000000000, 0.000000000000000000 ) ) ;
#776 = VECTOR ( 'NONE', #230, 39.37007874015748143 ) ;
#777 = ORIENTED_EDGE ( 'NONE', *, *, #517, .F. ) ;
#778 = CARTESIAN_POINT ( 'NONE',  ( 2.623728996046439388, -0.1049999999999998296, 0.7500000000000001110 ) ) ;
#779 = DIRECTION ( 'NONE',  ( 0.000000000000000000, 1.000000000000000000, 0.000000000000000000 ) ) ;
#780 = PLANE ( 'NONE',  #464 ) ;
#781 = CARTESIAN_POINT ( 'NONE',  ( 5.032094551834844331, -5.463695987328526437E-16, 0.7500000000000001110 ) ) ;
#782 = CARTESIAN_POINT ( 'NONE',  ( 0.3799999999999999489, -1.281105849010902402E-25, 0.000000000000000000 ) ) ;
#783 = EDGE_LOOP ( 'NONE', ( #777, #735 ) ) ;
#784 = EDGE_CURVE ( 'NONE', #98, #144, #617, .T. ) ;
#785 = CARTESIAN_POINT ( 'NONE',  ( 3.243094551834844186, -0.1050000000000003847, -0.1090000000000001246 ) ) ;
#786 = AXIS2_PLACEMENT_3D ( 'NONE', #395, #536, #803 ) ;
#787 = ORIENTED_EDGE ( 'NONE', *, *, #14, .T. ) ;
#788 = LINE ( 'NONE', #736, #39 ) ;
#789 = DIRECTION ( 'NONE',  ( 0.000000000000000000, 0.000000000000000000, -1.000000000000000000 ) ) ;
#790 = EDGE_CURVE ( 'NONE', #64, #476, #553, .T. ) ;
#791 = ORIENTED_EDGE ( 'NONE', *, *, #363, .F. ) ;
#792 = VECTOR ( 'NONE', #458, 39.37007874015748143 ) ;
#793 = CARTESIAN_POINT ( 'NONE',  ( 5.157094551834843443, -0.1050000000000003847, 0.6250000000000006661 ) ) ;
#794 = VECTOR ( 'NONE', #250, 39.37007874015748143 ) ;
#795 = DIRECTION ( 'NONE',  ( -1.000000000000000000, -0.000000000000000000, -0.000000000000000000 ) ) ;
#796 = EDGE_CURVE ( 'NONE', #824, #87, #110, .T. ) ;
#797 = ORIENTED_EDGE ( 'NONE', *, *, #92, .T. ) ;
#798 = CARTESIAN_POINT ( 'NONE',  ( 5.032094551834844331, -5.463695987328526437E-16, -0.7500000000000001110 ) ) ;
#799 = PLANE ( 'NONE',  #345 ) ;
#800 = ORIENTED_EDGE ( 'NONE', *, *, #527, .F. ) ;
#801 = AXIS2_PLACEMENT_3D ( 'NONE', #86, #541, #101 ) ;
#802 = EDGE_CURVE ( 'NONE', #461, #223, #825, .T. ) ;
#803 = DIRECTION ( 'NONE',  ( 0.000000000000000000, -1.000000000000000000, 0.000000000000000000 ) ) ;
#804 = CARTESIAN_POINT ( 'NONE',  ( 0.3799999999999999489, -1.281105849010902402E-25, 0.000000000000000000 ) ) ;
#805 = ORIENTED_EDGE ( 'NONE', *, *, #659, .F. ) ;
#806 = LINE ( 'NONE', #216, #731 ) ;
#807 = EDGE_CURVE ( 'NONE', #685, #675, #558, .T. ) ;
#808 = DIRECTION ( 'NONE',  ( -1.000000000000000000, -0.000000000000000000, -0.000000000000000000 ) ) ;
#809 = EDGE_LOOP ( 'NONE', ( #168, #837, #415, #405 ) ) ;
#810 = DIRECTION ( 'NONE',  ( 1.000000000000000000, 0.000000000000000000, 0.000000000000000000 ) ) ;
#811 = CARTESIAN_POINT ( 'NONE',  ( 0.3799999999999999489, -1.281105849010902402E-25, 0.000000000000000000 ) ) ;
#812 = CARTESIAN_POINT ( 'NONE',  ( 0.4939999999999999947, -1.665437603714172893E-25, 0.000000000000000000 ) ) ;
#813 = ORIENTED_EDGE ( 'NONE', *, *, #173, .F. ) ;
#814 = CARTESIAN_POINT ( 'NONE',  ( 5.032094551834844331, -5.463695987328526437E-16, -0.7500000000000001110 ) ) ;
#815 = CARTESIAN_POINT ( 'NONE',  ( -6.114062072183863024E-15, -0.1049999999999994271, -1.776955730817901591 ) ) ;
#816 = ADVANCED_FACE ( 'NONE', ( #29, #818, #240, #501, #765 ), #437, .T. ) ;
#817 = EDGE_LOOP ( 'NONE', ( #582, #420, #394, #832 ) ) ;
#818 = FACE_BOUND ( 'NONE', #708, .T. ) ;
#819 = FACE_OUTER_BOUND ( 'NONE', #38, .T. ) ;
#820 = EDGE_LOOP ( 'NONE', ( #245, #271, #590, #330 ) ) ;
#821 = EDGE_CURVE ( 'NONE', #130, #163, #65, .T. ) ;
#822 = DIRECTION ( 'NONE',  ( 1.000000000000000000, 0.000000000000000000, 0.000000000000000000 ) ) ;
#823 = CARTESIAN_POINT ( 'NONE',  ( 3.886094551834844424, -2.731847993664263218E-16, -0.1090000000000001246 ) ) ;
#824 = VERTEX_POINT ( 'NONE', #317 ) ;
#825 = LINE ( 'NONE', #686, #386 ) ;
#826 = CARTESIAN_POINT ( 'NONE',  ( 4.137594551834840040, -0.1050000000000001071, 1.644499999999999851 ) ) ;
#827 = AXIS2_PLACEMENT_3D ( 'NONE', #804, #355, #475 ) ;
#828 = AXIS2_PLACEMENT_3D ( 'NONE', #309, #372, #313 ) ;
#829 = ORIENTED_EDGE ( 'NONE', *, *, #618, .T. ) ;
#830 = VECTOR ( 'NONE', #135, 39.37007874015748143 ) ;
#831 = CARTESIAN_POINT ( 'NONE',  ( 3.886094551834844424, -2.731847993664263218E-16, 0.1090000000000001246 ) ) ;
#832 = ORIENTED_EDGE ( 'NONE', *, *, #738, .F. ) ;
#833 = CARTESIAN_POINT ( 'NONE',  ( 2.129999999999999893, -7.180935416824268183E-25, 0.000000000000000000 ) ) ;
#834 = EDGE_CURVE ( 'NONE', #70, #163, #380, .T. ) ;
#835 = VERTEX_POINT ( 'NONE', #838 ) ;
#836 = AXIS2_PLACEMENT_3D ( 'NONE', #653, #181, #263 ) ;
#837 = ORIENTED_EDGE ( 'NONE', *, *, #184, .T. ) ;
#838 = CARTESIAN_POINT ( 'NONE',  ( 3.668094551834843564, -2.731847993664263218E-16, -0.1090000000000001246 ) ) ;
#839 = LINE ( 'NONE', #124, #794 ) ;
#840 = ORIENTED_EDGE ( 'NONE', *, *, #262, .F. ) ;
#841 = DIRECTION ( 'NONE',  ( -1.000000000000000000, -0.000000000000000000, -0.000000000000000000 ) ) ;
#842 = AXIS2_PLACEMENT_3D ( 'NONE', #119, #417, #683 ) ;
#843 = DIRECTION ( 'NONE',  ( -1.000000000000000000, 3.371331181607637852E-25, 0.000000000000000000 ) ) ;
#844 = CARTESIAN_POINT ( 'NONE',  ( 3.861588214623140166E-35, -0.1049999999999999961, 0.7500000000000001110 ) ) ;
ENDSEC;
END-ISO-10303-21;
