ISO-10303-21;
HEADER;
FILE_DESCRIPTION (( 'STEP AP214' ),
    '1' );
FILE_NAME ('PP21340-02-(16gacr ANSI-61) - K48 - V0-R0.STEP',
    '2026-07-13T15:33:02',
    ( '' ),
    ( '' ),
    'SwSTEP 2.0',
    'SolidWorks 2024',
    '' );
FILE_SCHEMA (( 'AUTOMOTIVE_DESIGN' ));
ENDSEC;

DATA;
#1 = PRODUCT_DEFINITION_FORMATION_WITH_SPECIFIED_SOURCE ( 'ANY', '', #1261, .NOT_KNOWN. ) ;
#2 = DIRECTION ( 'NONE',  ( -1.000000000000000000, 0.000000000000000000, 0.000000000000000000 ) ) ;
#3 = CARTESIAN_POINT ( 'NONE',  ( -8.365000000000000213, -7.500000000000002665, -0.6300000000000000044 ) ) ;
#4 = DIRECTION ( 'NONE',  ( 0.000000000000000000, 0.000000000000000000, 1.000000000000000000 ) ) ;
#5 = ORIENTED_EDGE ( 'NONE', *, *, #443, .T. ) ;
#6 = EDGE_CURVE ( 'NONE', #616, #521, #282, .T. ) ;
#7 = VERTEX_POINT ( 'NONE', #180 ) ;
#8 = DIRECTION ( 'NONE',  ( 1.000000000000000000, 0.000000000000000000, 0.000000000000000000 ) ) ;
#9 = SURFACE_SIDE_STYLE ('',( #342 ) ) ;
#10 = ADVANCED_BREP_SHAPE_REPRESENTATION ( 'PP21340-02-(16gacr ANSI-61) - K48 - V0-R0', ( #1357, #830 ), #960 ) ;
#11 = FACE_OUTER_BOUND ( 'NONE', #1332, .T. ) ;
#12 = EDGE_LOOP ( 'NONE', ( #692, #901, #728, #622 ) ) ;
#13 = EDGE_CURVE ( 'NONE', #633, #488, #435, .T. ) ;
#14 = DIRECTION ( 'NONE',  ( 1.000000000000000000, 0.000000000000000000, 0.000000000000000000 ) ) ;
#15 = DIRECTION ( 'NONE',  ( -0.000000000000000000, -0.000000000000000000, 1.000000000000000000 ) ) ;
#16 = ORIENTED_EDGE ( 'NONE', *, *, #1131, .T. ) ;
#17 = VECTOR ( 'NONE', #598, 39.37007874015748143 ) ;
#18 = ORIENTED_EDGE ( 'NONE', *, *, #809, .F. ) ;
#19 = CIRCLE ( 'NONE', #544, 0.09499999999999994560 ) ;
#20 = AXIS2_PLACEMENT_3D ( 'NONE', #27, #742, #223 ) ;
#21 = CARTESIAN_POINT ( 'NONE',  ( 8.484999999999999432, -7.380000000000000782, -0.1200000000000000372 ) ) ;
#22 = DIRECTION ( 'NONE',  ( -1.000000000000000000, -0.000000000000000000, -0.000000000000000000 ) ) ;
#23 = CARTESIAN_POINT ( 'NONE',  ( 8.269999999999999574, 6.000000000000000888, 0.000000000000000000 ) ) ;
#24 = ORIENTED_EDGE ( 'NONE', *, *, #37, .T. ) ;
#25 = VERTEX_POINT ( 'NONE', #681 ) ;
#26 = DIRECTION ( 'NONE',  ( -0.000000000000000000, 1.000000000000000000, -1.422837496700139435E-16 ) ) ;
#27 = CARTESIAN_POINT ( 'NONE',  ( -8.365000000000000213, -7.380000000000000782, -0.1200000000000000372 ) ) ;
#28 = LINE ( 'NONE', #860, #561 ) ;
#29 = VERTEX_POINT ( 'NONE', #300 ) ;
#30 = CARTESIAN_POINT ( 'NONE',  ( -8.425000000000002487, 7.379999999999999005, -0.6300000000000002265 ) ) ;
#31 = ORIENTED_EDGE ( 'NONE', *, *, #346, .T. ) ;
#32 = PLANE ( 'NONE',  #679 ) ;
#33 = DIRECTION ( 'NONE',  ( 1.000000000000000000, 0.000000000000000000, -0.000000000000000000 ) ) ;
#34 = ORIENTED_EDGE ( 'NONE', *, *, #187, .T. ) ;
#35 = AXIS2_PLACEMENT_3D ( 'NONE', #732, #422, #205 ) ;
#36 = LINE ( 'NONE', #444, #92 ) ;
#37 = EDGE_CURVE ( 'NONE', #1170, #25, #392, .T. ) ;
#38 = EDGE_CURVE ( 'NONE', #548, #917, #1234, .T. ) ;
#39 = ORIENTED_EDGE ( 'NONE', *, *, #769, .T. ) ;
#40 = CARTESIAN_POINT ( 'NONE',  ( 8.174999999999998934, 6.000000000000000888, -0.05999999999999997696 ) ) ;
#41 = AXIS2_PLACEMENT_3D ( 'NONE', #668, #467, #881 ) ;
#42 = DIRECTION ( 'NONE',  ( -3.834172622686683600E-15, 0.000000000000000000, -1.000000000000000000 ) ) ;
#43 = AXIS2_PLACEMENT_3D ( 'NONE', #21, #440, #853 ) ;
#44 = CARTESIAN_POINT ( 'NONE',  ( 3.674999999999998490, -2.734999999999999432, -0.6300000000000002265 ) ) ;
#45 = ORIENTED_EDGE ( 'NONE', *, *, #1067, .F. ) ;
#46 = AXIS2_PLACEMENT_3D ( 'NONE', #1328, #796, #1215 ) ;
#47 = DIRECTION ( 'NONE',  ( 0.000000000000000000, -0.000000000000000000, 1.000000000000000000 ) ) ;
#48 = ORIENTED_EDGE ( 'NONE', *, *, #38, .T. ) ;
#49 = EDGE_CURVE ( 'NONE', #1187, #116, #904, .T. ) ;
#50 = CARTESIAN_POINT ( 'NONE',  ( 8.174999999999998934, 0.000000000000000000, -0.05999999999999997696 ) ) ;
#51 = DIRECTION ( 'NONE',  ( 0.000000000000000000, 1.000000000000000000, -3.491481338843133750E-15 ) ) ;
#52 = VERTEX_POINT ( 'NONE', #1330 ) ;
#53 = DIRECTION ( 'NONE',  ( -0.000000000000000000, 1.000000000000000000, 0.000000000000000000 ) ) ;
#54 = FACE_OUTER_BOUND ( 'NONE', #136, .T. ) ;
#55 = EDGE_LOOP ( 'NONE', ( #646, #121, #1292, #1023 ) ) ;
#56 = CARTESIAN_POINT ( 'NONE',  ( -8.485000000000002984, 7.379999999999999005, -0.6300000000000000044 ) ) ;
#57 = CARTESIAN_POINT ( 'NONE',  ( -8.425000000000000711, -1.247469883285713504E-15, 3.253295470349651175E-14 ) ) ;
#58 = CYLINDRICAL_SURFACE ( 'NONE', #221, 0.05999999999999881123 ) ;
#59 = EDGE_CURVE ( 'NONE', #931, #1257, #62, .T. ) ;
#60 = EDGE_CURVE ( 'NONE', #253, #931, #1295, .T. ) ;
#61 = LINE ( 'NONE', #573, #1293 ) ;
#62 = LINE ( 'NONE', #804, #1271 ) ;
#63 = ORIENTED_EDGE ( 'NONE', *, *, #1008, .F. ) ;
#64 = AXIS2_PLACEMENT_3D ( 'NONE', #935, #4, #837 ) ;
#65 = AXIS2_PLACEMENT_3D ( 'NONE', #792, #1211, #1109 ) ;
#66 = DIRECTION ( 'NONE',  ( 0.000000000000000000, 0.000000000000000000, -1.000000000000000000 ) ) ;
#67 = AXIS2_PLACEMENT_3D ( 'NONE', #627, #215, #524 ) ;
#68 = CARTESIAN_POINT ( 'NONE',  ( 8.484999999999997655, 7.440000000000000391, -0.1199999999999998151 ) ) ;
#69 = ADVANCED_FACE ( 'NONE', ( #580 ), #689, .F. ) ;
#70 = VECTOR ( 'NONE', #940, 39.37007874015748143 ) ;
#71 = EDGE_LOOP ( 'NONE', ( #576, #667, #798, #220 ) ) ;
#72 = LINE ( 'NONE', #690, #523 ) ;
#73 = DIRECTION ( 'NONE',  ( 1.000000000000000000, 0.000000000000000000, 0.000000000000000000 ) ) ;
#74 = ORIENTED_EDGE ( 'NONE', *, *, #1304, .F. ) ;
#75 = CARTESIAN_POINT ( 'NONE',  ( 3.674999999999998490, -2.734999999999999432, -0.05999999999999997696 ) ) ;
#76 = ORIENTED_EDGE ( 'NONE', *, *, #505, .T. ) ;
#77 = CARTESIAN_POINT ( 'NONE',  ( -8.365000000000000213, -7.380000000000000782, -0.1200000000000000372 ) ) ;
#78 = ORIENTED_EDGE ( 'NONE', *, *, #584, .F. ) ;
#79 = DIRECTION ( 'NONE',  ( 1.000000000000000000, 0.000000000000000000, 0.000000000000000000 ) ) ;
#80 = CARTESIAN_POINT ( 'NONE',  ( -3.685000000000001830, -2.734999999999999432, -0.05999999999999997696 ) ) ;
#81 = DIRECTION ( 'NONE',  ( 0.000000000000000000, 0.000000000000000000, 1.000000000000000000 ) ) ;
#82 = DIRECTION ( 'NONE',  ( 0.000000000000000000, 0.000000000000000000, 1.000000000000000000 ) ) ;
#83 = CARTESIAN_POINT ( 'NONE',  ( -6.605000000000000426, -2.380000000000000338, -0.05999999999999997696 ) ) ;
#84 = ORIENTED_EDGE ( 'NONE', *, *, #504, .T. ) ;
#85 = ADVANCED_FACE ( 'NONE', ( #510 ), #717, .T. ) ;
#86 = LINE ( 'NONE', #719, #463 ) ;
#87 = VERTEX_POINT ( 'NONE', #97 ) ;
#88 = CYLINDRICAL_SURFACE ( 'NONE', #982, 0.1199999999999987188 ) ;
#89 = LINE ( 'NONE', #522, #1228 ) ;
#90 = CARTESIAN_POINT ( 'NONE',  ( -7.984999999999999432, 0.000000000000000000, 0.000000000000000000 ) ) ;
#91 = CARTESIAN_POINT ( 'NONE',  ( -6.605000000000000426, 2.379999999999999893, -0.05999999999999997696 ) ) ;
#92 = VECTOR ( 'NONE', #872, 39.37007874015748143 ) ;
#93 = ORIENTED_EDGE ( 'NONE', *, *, #786, .T. ) ;
#94 = EDGE_CURVE ( 'NONE', #779, #226, #514, .T. ) ;
#95 = AXIS2_PLACEMENT_3D ( 'NONE', #1236, #930, #832 ) ;
#96 = DIRECTION ( 'NONE',  ( 1.000000000000000000, 0.000000000000000000, 0.000000000000000000 ) ) ;
#97 = CARTESIAN_POINT ( 'NONE',  ( 8.484999999999999432, -7.440000000000000391, -0.1199999999999998151 ) ) ;
#98 = FACE_OUTER_BOUND ( 'NONE', #887, .T. ) ;
#99 = PRODUCT_DEFINITION_SHAPE ( 'NONE', 'NONE',  #1095 ) ;
#100 = ORIENTED_EDGE ( 'NONE', *, *, #1067, .T. ) ;
#101 = PLANE ( 'NONE',  #1339 ) ;
#102 = EDGE_CURVE ( 'NONE', #906, #431, #1350, .T. ) ;
#103 = EDGE_CURVE ( 'NONE', #666, #638, #405, .T. ) ;
#104 = CYLINDRICAL_SURFACE ( 'NONE', #67, 0.09499999999999994560 ) ;
#105 = EDGE_LOOP ( 'NONE', ( #176, #124 ) ) ;
#106 = DIRECTION ( 'NONE',  ( 0.000000000000000000, 1.000000000000000000, 3.835990623682900600E-15 ) ) ;
#107 = EDGE_LOOP ( 'NONE', ( #151, #1003, #128, #1213 ) ) ;
#108 = DIRECTION ( 'NONE',  ( -1.000000000000000000, 0.000000000000000000, 0.000000000000000000 ) ) ;
#109 = VECTOR ( 'NONE', #876, 39.37007874015748143 ) ;
#110 = DIRECTION ( 'NONE',  ( -1.000000000000000000, -0.000000000000000000, -0.000000000000000000 ) ) ;
#111 = DIRECTION ( 'NONE',  ( -0.000000000000000000, -0.000000000000000000, 1.000000000000000000 ) ) ;
#112 = FACE_OUTER_BOUND ( 'NONE', #784, .T. ) ;
#113 = EDGE_CURVE ( 'NONE', #228, #816, #1156, .T. ) ;
#114 = EDGE_CURVE ( 'NONE', #1307, #381, #268, .T. ) ;
#115 = VECTOR ( 'NONE', #246, 39.37007874015748143 ) ;
#116 = VERTEX_POINT ( 'NONE', #893 ) ;
#117 = DIRECTION ( 'NONE',  ( -0.000000000000000000, 1.000000000000000000, -1.422837496700139435E-16 ) ) ;
#118 = DIRECTION ( 'NONE',  ( -1.000000000000000000, -0.000000000000000000, -0.000000000000000000 ) ) ;
#119 =( NAMED_UNIT ( * ) SI_UNIT ( $, .STERADIAN. ) SOLID_ANGLE_UNIT ( ) );
#120 = DIRECTION ( 'NONE',  ( 1.000000000000000000, 0.000000000000000000, 0.000000000000000000 ) ) ;
#121 = ORIENTED_EDGE ( 'NONE', *, *, #432, .F. ) ;
#122 = EDGE_CURVE ( 'NONE', #238, #757, #995, .T. ) ;
#123 = EDGE_CURVE ( 'NONE', #538, #29, #1118, .T. ) ;
#124 = ORIENTED_EDGE ( 'NONE', *, *, #187, .F. ) ;
#125 = CARTESIAN_POINT ( 'NONE',  ( 8.484999999999999432, 7.380000000000000782, -0.05999999999999999778 ) ) ;
#126 =( LENGTH_UNIT ( ) NAMED_UNIT ( * ) SI_UNIT ( $, .METRE. ) );
#127 = DIRECTION ( 'NONE',  ( -0.000000000000000000, -1.000000000000000000, -0.000000000000000000 ) ) ;
#128 = ORIENTED_EDGE ( 'NONE', *, *, #123, .T. ) ;
#129 = EDGE_LOOP ( 'NONE', ( #747, #880 ) ) ;
#130 = DIRECTION ( 'NONE',  ( 0.000000000000000000, 0.000000000000000000, 1.000000000000000000 ) ) ;
#131 = CARTESIAN_POINT ( 'NONE',  ( 8.484999999999999432, 7.380000000000000782, -0.1200000000000000372 ) ) ;
#132 = CARTESIAN_POINT ( 'NONE',  ( -6.719000000000000306, 2.379999999999999893, -0.6300000000000002265 ) ) ;
#133 = LINE ( 'NONE', #141, #289 ) ;
#134 = ORIENTED_EDGE ( 'NONE', *, *, #1344, .T. ) ;
#135 = AXIS2_PLACEMENT_3D ( 'NONE', #169, #283, #805 ) ;
#136 = EDGE_LOOP ( 'NONE', ( #1316, #1272, #154, #1333 ) ) ;
#137 = CIRCLE ( 'NONE', #373, 0.1560000000000001941 ) ;
#138 = CARTESIAN_POINT ( 'NONE',  ( 8.484999999999999432, 7.380000000000000782, -0.1200000000000000372 ) ) ;
#139 = STYLED_ITEM ( 'NONE', ( #1070 ), #1357 ) ;
#140 = LINE ( 'NONE', #1183, #115 ) ;
#141 = CARTESIAN_POINT ( 'NONE',  ( -8.365000000000001990, 7.440000000000000391, -0.1199999999999998151 ) ) ;
#142 = EDGE_LOOP ( 'NONE', ( #241, #845, #938, #170 ) ) ;
#143 = CARTESIAN_POINT ( 'NONE',  ( 8.484999999999999432, -7.380000000000000782, 0.000000000000000000 ) ) ;
#144 = EDGE_LOOP ( 'NONE', ( #206, #1063, #1327, #961 ) ) ;
#145 = CARTESIAN_POINT ( 'NONE',  ( -7.984999999999999432, 0.000000000000000000, -0.05999999999999997696 ) ) ;
#146 = CARTESIAN_POINT ( 'NONE',  ( -6.605000000000000426, -2.380000000000000338, -0.6300000000000002265 ) ) ;
#147 = DIRECTION ( 'NONE',  ( 1.000000000000000000, -0.000000000000000000, -0.000000000000000000 ) ) ;
#148 = EDGE_CURVE ( 'NONE', #1352, #1192, #699, .T. ) ;
#149 = ADVANCED_FACE ( 'NONE', ( #294 ), #793, .T. ) ;
#150 = ORIENTED_EDGE ( 'NONE', *, *, #1279, .T. ) ;
#151 = ORIENTED_EDGE ( 'NONE', *, *, #306, .T. ) ;
#152 = DIRECTION ( 'NONE',  ( -9.106159978880966536E-15, 0.000000000000000000, 1.000000000000000000 ) ) ;
#153 = LINE ( 'NONE', #237, #591 ) ;
#154 = ORIENTED_EDGE ( 'NONE', *, *, #1171, .T. ) ;
#155 = EDGE_CURVE ( 'NONE', #1307, #826, #196, .T. ) ;
#156 = CIRCLE ( 'NONE', #1221, 0.09499999999999994560 ) ;
#157 = VERTEX_POINT ( 'NONE', #608 ) ;
#158 = VECTOR ( 'NONE', #508, 39.37007874015748143 ) ;
#159 = CYLINDRICAL_SURFACE ( 'NONE', #1269, 0.1560000000000001941 ) ;
#160 = VERTEX_POINT ( 'NONE', #1022 ) ;
#161 = CIRCLE ( 'NONE', #313, 0.1139999999999999347 ) ;
#162 = DIRECTION ( 'NONE',  ( -1.000000000000000000, -1.480676419330223846E-16, 3.835990623682900600E-15 ) ) ;
#163 = ORIENTED_EDGE ( 'NONE', *, *, #583, .F. ) ;
#164 = FACE_OUTER_BOUND ( 'NONE', #891, .T. ) ;
#165 = ADVANCED_FACE ( 'NONE', ( #1007 ), #697, .T. ) ;
#166 = CARTESIAN_POINT ( 'NONE',  ( 8.484999999999999432, 7.500000000000002665, -0.6300000000000000044 ) ) ;
#167 = LINE ( 'NONE', #1314, #866 ) ;
#168 = DIRECTION ( 'NONE',  ( -1.480676419330226805E-16, 1.000000000000000000, -7.403382096651119232E-17 ) ) ;
#169 = CARTESIAN_POINT ( 'NONE',  ( -7.984999999999999432, 0.000000000000000000, 0.000000000000000000 ) ) ;
#170 = ORIENTED_EDGE ( 'NONE', *, *, #1027, .F. ) ;
#171 = EDGE_CURVE ( 'NONE', #160, #157, #721, .T. ) ;
#172 = CARTESIAN_POINT ( 'NONE',  ( -8.485000000000001208, -7.380000000000000782, -0.6300000000000000044 ) ) ;
#173 = FACE_OUTER_BOUND ( 'NONE', #55, .T. ) ;
#174 = CARTESIAN_POINT ( 'NONE',  ( -6.605000000000000426, -2.380000000000000338, 0.000000000000000000 ) ) ;
#175 = DIRECTION ( 'NONE',  ( -1.000000000000000000, 0.000000000000000000, 3.491481338843134539E-15 ) ) ;
#176 = ORIENTED_EDGE ( 'NONE', *, *, #1165, .F. ) ;
#177 = AXIS2_PLACEMENT_3D ( 'NONE', #1277, #777, #1195 ) ;
#178 = AXIS2_PLACEMENT_3D ( 'NONE', #429, #406, #197 ) ;
#179 = CYLINDRICAL_SURFACE ( 'NONE', #412, 0.09499999999999994560 ) ;
#180 = CARTESIAN_POINT ( 'NONE',  ( -8.365000000000000213, -7.380000000000000782, -1.195183497228115035E-16 ) ) ;
#181 = ORIENTED_EDGE ( 'NONE', *, *, #346, .F. ) ;
#182 = DIRECTION ( 'NONE',  ( -3.834172622686683600E-15, -0.000000000000000000, -1.000000000000000000 ) ) ;
#183 = DIRECTION ( 'NONE',  ( 0.000000000000000000, -3.834172622686683600E-15, -1.000000000000000000 ) ) ;
#184 = ORIENTED_EDGE ( 'NONE', *, *, #37, .F. ) ;
#185 = CARTESIAN_POINT ( 'NONE',  ( 8.484999999999999432, -7.500000000000002665, -0.6300000000000000044 ) ) ;
#186 = EDGE_CURVE ( 'NONE', #87, #1173, #72, .T. ) ;
#187 = EDGE_CURVE ( 'NONE', #431, #379, #867, .T. ) ;
#188 = ORIENTED_EDGE ( 'NONE', *, *, #1196, .F. ) ;
#189 = ORIENTED_EDGE ( 'NONE', *, *, #432, .T. ) ;
#190 = CARTESIAN_POINT ( 'NONE',  ( -7.828999999999998849, 0.000000000000000000, -0.05999999999999997696 ) ) ;
#191 = EDGE_CURVE ( 'NONE', #383, #436, #589, .T. ) ;
#192 = VERTEX_POINT ( 'NONE', #588 ) ;
#193 = DIRECTION ( 'NONE',  ( 3.834172622686683600E-15, 0.000000000000000000, 1.000000000000000000 ) ) ;
#194 = CARTESIAN_POINT ( 'NONE',  ( -6.605000000000000426, 2.379999999999999893, 0.000000000000000000 ) ) ;
#195 = CARTESIAN_POINT ( 'NONE',  ( -6.491000000000000547, -2.380000000000000338, 0.000000000000000000 ) ) ;
#196 = CIRCLE ( 'NONE', #955, 0.09499999999999994560 ) ;
#197 = DIRECTION ( 'NONE',  ( -0.000000000000000000, 0.000000000000000000, 1.000000000000000000 ) ) ;
#198 = VECTOR ( 'NONE', #244, 39.37007874015748143 ) ;
#199 = ORIENTED_EDGE ( 'NONE', *, *, #1189, .T. ) ;
#200 = VECTOR ( 'NONE', #110, 39.37007874015748143 ) ;
#201 = ORIENTED_EDGE ( 'NONE', *, *, #217, .T. ) ;
#202 = EDGE_CURVE ( 'NONE', #1192, #1352, #287, .T. ) ;
#203 = ADVANCED_FACE ( 'NONE', ( #1125 ), #1002, .T. ) ;
#204 = DIRECTION ( 'NONE',  ( -1.000000000000000000, 0.000000000000000000, 0.000000000000000000 ) ) ;
#205 = DIRECTION ( 'NONE',  ( 0.000000000000000000, -0.000000000000000000, -1.000000000000000000 ) ) ;
#206 = ORIENTED_EDGE ( 'NONE', *, *, #640, .F. ) ;
#207 = EDGE_LOOP ( 'NONE', ( #1159, #758, #1306, #366 ) ) ;
#208 = CARTESIAN_POINT ( 'NONE',  ( 8.079999999999998295, 1.163414459189983279E-17, -0.6300000000000002265 ) ) ;
#209 = EDGE_CURVE ( 'NONE', #160, #1281, #603, .T. ) ;
#210 = CARTESIAN_POINT ( 'NONE',  ( -8.365000000000000213, -7.380000000000000782, -0.05999999999999999778 ) ) ;
#211 = ORIENTED_EDGE ( 'NONE', *, *, #1027, .T. ) ;
#212 = ORIENTED_EDGE ( 'NONE', *, *, #338, .F. ) ;
#213 = DIRECTION ( 'NONE',  ( 0.000000000000000000, 0.000000000000000000, -1.000000000000000000 ) ) ;
#214 = FACE_OUTER_BOUND ( 'NONE', #599, .T. ) ;
#215 = DIRECTION ( 'NONE',  ( -0.000000000000000000, -0.000000000000000000, 1.000000000000000000 ) ) ;
#216 = AXIS2_PLACEMENT_3D ( 'NONE', #1015, #913, #492 ) ;
#217 = EDGE_CURVE ( 'NONE', #316, #666, #900, .T. ) ;
#218 = AXIS2_PLACEMENT_3D ( 'NONE', #145, #1208, #677 ) ;
#219 = VECTOR ( 'NONE', #182, 39.37007874015748143 ) ;
#220 = ORIENTED_EDGE ( 'NONE', *, *, #786, .F. ) ;
#221 = AXIS2_PLACEMENT_3D ( 'NONE', #782, #1199, #1100 ) ;
#222 = LINE ( 'NONE', #735, #292 ) ;
#223 = DIRECTION ( 'NONE',  ( -0.000000000000000000, 0.000000000000000000, -1.000000000000000000 ) ) ;
#224 = CARTESIAN_POINT ( 'NONE',  ( -6.491000000000000547, -2.380000000000000338, -0.05999999999999997696 ) ) ;
#225 = FACE_BOUND ( 'NONE', #752, .T. ) ;
#226 = VERTEX_POINT ( 'NONE', #1346 ) ;
#227 = EDGE_CURVE ( 'NONE', #1207, #253, #929, .T. ) ;
#228 = VERTEX_POINT ( 'NONE', #620 ) ;
#229 = DIRECTION ( 'NONE',  ( -1.000000000000000000, 0.000000000000000000, 0.000000000000000000 ) ) ;
#230 = PLANE ( 'NONE',  #20 ) ;
#231 = FACE_OUTER_BOUND ( 'NONE', #660, .T. ) ;
#232 = ORIENTED_EDGE ( 'NONE', *, *, #1154, .T. ) ;
#233 = ORIENTED_EDGE ( 'NONE', *, *, #1303, .F. ) ;
#234 = FACE_OUTER_BOUND ( 'NONE', #500, .T. ) ;
#235 = DIRECTION ( 'NONE',  ( -0.000000000000000000, -0.000000000000000000, 1.000000000000000000 ) ) ;
#236 = CIRCLE ( 'NONE', #759, 0.1199999999999999262 ) ;
#237 = CARTESIAN_POINT ( 'NONE',  ( 8.079999999999998295, -6.000000000000000888, -0.6300000000000002265 ) ) ;
#238 = VERTEX_POINT ( 'NONE', #1351 ) ;
#239 = DIRECTION ( 'NONE',  ( 1.000000000000000000, 0.000000000000000000, 0.000000000000000000 ) ) ;
#240 = VECTOR ( 'NONE', #562, 39.37007874015748143 ) ;
#241 = ORIENTED_EDGE ( 'NONE', *, *, #825, .T. ) ;
#242 = CARTESIAN_POINT ( 'NONE',  ( -8.365000000000000213, 7.380000000000000782, -0.1200000000000016331 ) ) ;
#243 = VECTOR ( 'NONE', #1123, 39.37007874015748143 ) ;
#244 = DIRECTION ( 'NONE',  ( -1.000000000000000000, 0.000000000000000000, 0.000000000000000000 ) ) ;
#245 = ADVANCED_FACE ( 'NONE', ( #922 ), #718, .F. ) ;
#246 = DIRECTION ( 'NONE',  ( -0.000000000000000000, -0.000000000000000000, 1.000000000000000000 ) ) ;
#247 = CARTESIAN_POINT ( 'NONE',  ( 8.174999999999998934, 0.000000000000000000, -0.6300000000000002265 ) ) ;
#248 = EDGE_LOOP ( 'NONE', ( #212, #45, #1285, #340 ) ) ;
#249 = ORIENTED_EDGE ( 'NONE', *, *, #306, .F. ) ;
#250 = ADVANCED_FACE ( 'NONE', ( #11 ), #104, .F. ) ;
#251 = DIRECTION ( 'NONE',  ( -1.000000000000000000, 0.000000000000000000, 0.000000000000000000 ) ) ;
#252 = EDGE_LOOP ( 'NONE', ( #423, #233, #1227, #1105 ) ) ;
#253 = VERTEX_POINT ( 'NONE', #210 ) ;
#254 = PLANE ( 'NONE',  #41 ) ;
#255 = CARTESIAN_POINT ( 'NONE',  ( 8.484999999999999432, -7.500000000000000000, -0.05999999999999999778 ) ) ;
#256 = PLANE ( 'NONE',  #1112 ) ;
#257 = ORIENTED_EDGE ( 'NONE', *, *, #443, .F. ) ;
#258 = ADVANCED_FACE ( 'NONE', ( #943 ), #744, .F. ) ;
#259 = VERTEX_POINT ( 'NONE', #529 ) ;
#260 = VECTOR ( 'NONE', #301, 39.37007874015748143 ) ;
#261 = LINE ( 'NONE', #357, #957 ) ;
#262 = CARTESIAN_POINT ( 'NONE',  ( -8.425000000000000711, -7.380000000000000782, -0.6300000000000002265 ) ) ;
#263 = VECTOR ( 'NONE', #713, 39.37007874015748143 ) ;
#264 = FACE_OUTER_BOUND ( 'NONE', #1238, .T. ) ;
#265 = DIRECTION ( 'NONE',  ( 0.000000000000000000, 3.834172622686683600E-15, 1.000000000000000000 ) ) ;
#266 = ORIENTED_EDGE ( 'NONE', *, *, #531, .F. ) ;
#267 = AXIS2_PLACEMENT_3D ( 'NONE', #1055, #1260, #321 ) ;
#268 = LINE ( 'NONE', #1129, #17 ) ;
#269 = CARTESIAN_POINT ( 'NONE',  ( 0.000000000000000000, -7.440000000000000391, 2.875629467015013134E-14 ) ) ;
#270 = APPLICATION_CONTEXT ( 'automotive_design' ) ;
#271 = ORIENTED_EDGE ( 'NONE', *, *, #1171, .F. ) ;
#272 = CARTESIAN_POINT ( 'NONE',  ( 3.674999999999998490, -2.734999999999999432, -0.6300000000000002265 ) ) ;
#273 = DIRECTION ( 'NONE',  ( -1.000000000000000000, 0.000000000000000000, 0.000000000000000000 ) ) ;
#274 = CARTESIAN_POINT ( 'NONE',  ( 8.484999999999999432, 7.440000000000000391, 2.875629467015013134E-14 ) ) ;
#275 = ORIENTED_EDGE ( 'NONE', *, *, #531, .T. ) ;
#276 = CARTESIAN_POINT ( 'NONE',  ( -8.485000000000001208, -7.380000000000000782, -0.6300000000000000044 ) ) ;
#277 = VERTEX_POINT ( 'NONE', #1250 ) ;
#278 = ORIENTED_EDGE ( 'NONE', *, *, #1320, .T. ) ;
#279 = PRODUCT_DEFINITION_CONTEXT ( 'detailed design', #593, 'design' ) ;
#280 = LINE ( 'NONE', #1209, #568 ) ;
#281 = CARTESIAN_POINT ( 'NONE',  ( 8.484999999999999432, 7.500000000000000000, -0.05999999999999978961 ) ) ;
#282 = LINE ( 'NONE', #1117, #477 ) ;
#283 = DIRECTION ( 'NONE',  ( 0.000000000000000000, 0.000000000000000000, 1.000000000000000000 ) ) ;
#284 = ORIENTED_EDGE ( 'NONE', *, *, #94, .F. ) ;
#285 = AXIS2_PLACEMENT_3D ( 'NONE', #898, #1210, #791 ) ;
#286 = VERTEX_POINT ( 'NONE', #948 ) ;
#287 = CIRCLE ( 'NONE', #1044, 0.1139999999999999347 ) ;
#288 = FACE_OUTER_BOUND ( 'NONE', #308, .T. ) ;
#289 = VECTOR ( 'NONE', #147, 39.37007874015748143 ) ;
#290 = EDGE_CURVE ( 'NONE', #381, #1018, #156, .T. ) ;
#291 = CARTESIAN_POINT ( 'NONE',  ( 8.484999999999999432, -7.500000000000000000, -0.1199999999999995792 ) ) ;
#292 = VECTOR ( 'NONE', #229, 39.37007874015748143 ) ;
#293 = DIRECTION ( 'NONE',  ( 0.000000000000000000, -1.000000000000000000, 1.422837496700139435E-16 ) ) ;
#294 = FACE_OUTER_BOUND ( 'NONE', #1167, .T. ) ;
#295 = EDGE_LOOP ( 'NONE', ( #1140, #1080, #700, #249 ) ) ;
#296 = ORIENTED_EDGE ( 'NONE', *, *, #1344, .F. ) ;
#297 = FACE_OUTER_BOUND ( 'NONE', #207, .T. ) ;
#298 = FACE_OUTER_BOUND ( 'NONE', #248, .T. ) ;
#299 = ADVANCED_FACE ( 'NONE', ( #112 ), #318, .T. ) ;
#300 = CARTESIAN_POINT ( 'NONE',  ( -8.484999999999999432, -7.380000000000000782, -0.1199999999999990796 ) ) ;
#301 = DIRECTION ( 'NONE',  ( 1.480676419330226805E-16, -1.000000000000000000, 7.403382096651119232E-17 ) ) ;
#302 = ORIENTED_EDGE ( 'NONE', *, *, #611, .F. ) ;
#303 = LINE ( 'NONE', #418, #70 ) ;
#304 = DIRECTION ( 'NONE',  ( 1.000000000000000000, 0.000000000000000000, 0.000000000000000000 ) ) ;
#305 = DIRECTION ( 'NONE',  ( -1.000000000000000000, 0.000000000000000000, -0.000000000000000000 ) ) ;
#306 = EDGE_CURVE ( 'NONE', #7, #877, #820, .T. ) ;
#307 = EDGE_CURVE ( 'NONE', #1207, #877, #1148, .T. ) ;
#308 = EDGE_LOOP ( 'NONE', ( #100, #74, #163, #1126 ) ) ;
#309 = DIRECTION ( 'NONE',  ( 0.000000000000000000, 0.000000000000000000, 1.000000000000000000 ) ) ;
#310 = VECTOR ( 'NONE', #799, 39.37007874015748143 ) ;
#311 = DIRECTION ( 'NONE',  ( -1.000000000000000000, -1.480676419330223846E-16, 0.000000000000000000 ) ) ;
#312 = DIRECTION ( 'NONE',  ( 1.000000000000000000, -0.000000000000000000, -0.000000000000000000 ) ) ;
#313 = AXIS2_PLACEMENT_3D ( 'NONE', #775, #1222, #801 ) ;
#314 = VECTOR ( 'NONE', #393, 39.37007874015748143 ) ;
#315 = EDGE_CURVE ( 'NONE', #192, #795, #1248, .T. ) ;
#316 = VERTEX_POINT ( 'NONE', #738 ) ;
#317 = CARTESIAN_POINT ( 'NONE',  ( -3.685000000000001830, -2.734999999999999432, -0.6300000000000002265 ) ) ;
#318 = PLANE ( 'NONE',  #178 ) ;
#319 = ORIENTED_EDGE ( 'NONE', *, *, #1020, .T. ) ;
#320 = EDGE_LOOP ( 'NONE', ( #386, #360, #1341, #1124 ) ) ;
#321 = DIRECTION ( 'NONE',  ( 1.000000000000000000, 0.000000000000000000, 0.000000000000000000 ) ) ;
#322 = FACE_OUTER_BOUND ( 'NONE', #973, .T. ) ;
#323 = DIRECTION ( 'NONE',  ( 1.000000000000000000, 1.480676419330223846E-16, -3.491481338843133750E-15 ) ) ;
#324 = FACE_BOUND ( 'NONE', #71, .T. ) ;
#325 = ORIENTED_EDGE ( 'NONE', *, *, #424, .F. ) ;
#326 = VECTOR ( 'NONE', #1042, 39.37007874015748143 ) ;
#327 = DIRECTION ( 'NONE',  ( 0.000000000000000000, 0.000000000000000000, -1.000000000000000000 ) ) ;
#328 = DIRECTION ( 'NONE',  ( 0.000000000000000000, 1.000000000000000000, 3.841661241090376129E-15 ) ) ;
#329 = ADVANCED_FACE ( 'NONE', ( #1164, #1268, #843, #225, #1264, #637, #324, #98 ), #1242, .T. ) ;
#330 = CARTESIAN_POINT ( 'NONE',  ( -8.365000000000000213, 7.380000000000000782, -0.06000000000000012962 ) ) ;
#331 = AXIS2_PLACEMENT_3D ( 'NONE', #1205, #53, #47 ) ;
#332 =( GEOMETRIC_REPRESENTATION_CONTEXT ( 3 ) GLOBAL_UNCERTAINTY_ASSIGNED_CONTEXT ( ( #533 ) ) GLOBAL_UNIT_ASSIGNED_CONTEXT ( ( #854, #428, #1153 ) ) REPRESENTATION_CONTEXT ( 'NONE', 'WORKASPACE' ) );
#333 = ORIENTED_EDGE ( 'NONE', *, *, #307, .T. ) ;
#334 = CARTESIAN_POINT ( 'NONE',  ( -7.984999999999999432, 0.000000000000000000, -0.05999999999999997696 ) ) ;
#335 = CARTESIAN_POINT ( 'NONE',  ( -8.365000000000000213, -7.380000000000000782, -0.1200000000000000372 ) ) ;
#336 = CARTESIAN_POINT ( 'NONE',  ( 8.484999999999999432, 7.380000000000000782, -0.06000000000000012962 ) ) ;
#337 = DIRECTION ( 'NONE',  ( 0.000000000000000000, -1.422837496700139435E-16, -1.000000000000000000 ) ) ;
#338 = EDGE_CURVE ( 'NONE', #286, #488, #1135, .T. ) ;
#339 = ORIENTED_EDGE ( 'NONE', *, *, #186, .T. ) ;
#340 = ORIENTED_EDGE ( 'NONE', *, *, #540, .F. ) ;
#341 = FACE_OUTER_BOUND ( 'NONE', #839, .T. ) ;
#342 = SURFACE_STYLE_FILL_AREA ( #1061 ) ;
#343 = DIRECTION ( 'NONE',  ( 0.000000000000000000, -1.000000000000000000, 1.422837496700139435E-16 ) ) ;
#344 = EDGE_LOOP ( 'NONE', ( #753, #1299, #1300, #24 ) ) ;
#345 = DIRECTION ( 'NONE',  ( 0.000000000000000000, 1.000000000000000000, 3.491481338843134539E-15 ) ) ;
#346 = EDGE_CURVE ( 'NONE', #877, #816, #236, .T. ) ;
#347 = ORIENTED_EDGE ( 'NONE', *, *, #315, .T. ) ;
#348 = CYLINDRICAL_SURFACE ( 'NONE', #979, 0.05999999999999990757 ) ;
#349 = AXIS2_PLACEMENT_3D ( 'NONE', #670, #359, #965 ) ;
#350 = PLANE ( 'NONE',  #586 ) ;
#351 = ORIENTED_EDGE ( 'NONE', *, *, #927, .F. ) ;
#352 = FACE_OUTER_BOUND ( 'NONE', #12, .T. ) ;
#353 = VECTOR ( 'NONE', #470, 39.37007874015748143 ) ;
#354 = ORIENTED_EDGE ( 'NONE', *, *, #191, .T. ) ;
#355 = EDGE_CURVE ( 'NONE', #25, #1170, #1358, .T. ) ;
#356 = CIRCLE ( 'NONE', #525, 0.1560000000000001941 ) ;
#357 = CARTESIAN_POINT ( 'NONE',  ( -8.365000000000001990, 7.440000000000000391, 2.875629467015013134E-14 ) ) ;
#358 = EDGE_CURVE ( 'NONE', #1081, #917, #28, .T. ) ;
#359 = DIRECTION ( 'NONE',  ( 0.000000000000000000, 0.000000000000000000, 1.000000000000000000 ) ) ;
#360 = ORIENTED_EDGE ( 'NONE', *, *, #60, .T. ) ;
#361 = EDGE_LOOP ( 'NONE', ( #39, #617, #34, #271 ) ) ;
#362 = DIRECTION ( 'NONE',  ( -1.000000000000000000, -0.000000000000000000, 0.000000000000000000 ) ) ;
#363 = EDGE_CURVE ( 'NONE', #226, #450, #391, .T. ) ;
#364 = EDGE_CURVE ( 'NONE', #436, #795, #153, .T. ) ;
#365 = CARTESIAN_POINT ( 'NONE',  ( 8.079999999999998295, -6.000000000000000888, -0.05999999999999997696 ) ) ;
#366 = ORIENTED_EDGE ( 'NONE', *, *, #468, .F. ) ;
#367 = VERTEX_POINT ( 'NONE', #434 ) ;
#368 = FACE_OUTER_BOUND ( 'NONE', #320, .T. ) ;
#369 = CARTESIAN_POINT ( 'NONE',  ( -8.365000000000000213, -7.380000000000000782, -0.1200000000000000372 ) ) ;
#370 = ORIENTED_EDGE ( 'NONE', *, *, #992, .T. ) ;
#371 = CARTESIAN_POINT ( 'NONE',  ( -8.484999999999999432, -7.380000000000000782, -0.05999999999999978961 ) ) ;
#372 = EDGE_LOOP ( 'NONE', ( #1178, #439, #773, #674 ) ) ;
#373 = AXIS2_PLACEMENT_3D ( 'NONE', #334, #213, #539 ) ;
#374 = DIRECTION ( 'NONE',  ( -3.834172622686683600E-15, 0.000000000000000000, -1.000000000000000000 ) ) ;
#375 = VECTOR ( 'NONE', #118, 39.37007874015748143 ) ;
#376 = DIRECTION ( 'NONE',  ( 0.000000000000000000, 0.000000000000000000, 1.000000000000000000 ) ) ;
#377 = DIRECTION ( 'NONE',  ( 0.000000000000000000, -3.834172622686683600E-15, 1.000000000000000000 ) ) ;
#378 = DIRECTION ( 'NONE',  ( 0.000000000000000000, 0.000000000000000000, -1.000000000000000000 ) ) ;
#379 = VERTEX_POINT ( 'NONE', #971 ) ;
#380 = PLANE ( 'NONE',  #454 ) ;
#381 = VERTEX_POINT ( 'NONE', #1305 ) ;
#382 = DIRECTION ( 'NONE',  ( 0.000000000000000000, -1.000000000000000000, 3.841661241090376129E-15 ) ) ;
#383 = VERTEX_POINT ( 'NONE', #770 ) ;
#384 = ADVANCED_FACE ( 'NONE', ( #1079 ), #1072, .F. ) ;
#385 = ADVANCED_FACE ( 'NONE', ( #756 ), #658, .F. ) ;
#386 = ORIENTED_EDGE ( 'NONE', *, *, #227, .T. ) ;
#387 = CARTESIAN_POINT ( 'NONE',  ( 8.174999999999998934, 6.000000000000000888, -0.6300000000000002265 ) ) ;
#388 = FACE_OUTER_BOUND ( 'NONE', #1025, .T. ) ;
#389 = CARTESIAN_POINT ( 'NONE',  ( -8.365000000000000213, -7.380000000000000782, -0.1199999999999995376 ) ) ;
#390 = ORIENTED_EDGE ( 'NONE', *, *, #1155, .F. ) ;
#391 = CIRCLE ( 'NONE', #824, 0.09499999999999994560 ) ;
#392 = CIRCLE ( 'NONE', #1092, 0.1139999999999999347 ) ;
#393 = DIRECTION ( 'NONE',  ( 0.000000000000000000, -1.000000000000000000, -3.491481338843133750E-15 ) ) ;
#394 = CIRCLE ( 'NONE', #895, 0.09499999999999994560 ) ;
#395 = DIRECTION ( 'NONE',  ( -0.000000000000000000, -0.000000000000000000, 1.000000000000000000 ) ) ;
#396 = DIRECTION ( 'NONE',  ( 0.000000000000000000, -1.000000000000000000, 0.000000000000000000 ) ) ;
#397 = AXIS2_PLACEMENT_3D ( 'NONE', #50, #66, #975 ) ;
#398 = ORIENTED_EDGE ( 'NONE', *, *, #103, .T. ) ;
#399 = ORIENTED_EDGE ( 'NONE', *, *, #1320, .F. ) ;
#400 = DIRECTION ( 'NONE',  ( 0.000000000000000000, 0.000000000000000000, 1.000000000000000000 ) ) ;
#401 = ADVANCED_FACE ( 'NONE', ( #958 ), #350, .T. ) ;
#402 = DIRECTION ( 'NONE',  ( 0.000000000000000000, 0.000000000000000000, 1.000000000000000000 ) ) ;
#403 = VERTEX_POINT ( 'NONE', #1083 ) ;
#404 = DIRECTION ( 'NONE',  ( 0.000000000000000000, 0.000000000000000000, -1.000000000000000000 ) ) ;
#405 = LINE ( 'NONE', #726, #1182 ) ;
#406 = DIRECTION ( 'NONE',  ( -1.000000000000000000, 0.000000000000000000, -0.000000000000000000 ) ) ;
#407 = EDGE_CURVE ( 'NONE', #228, #708, #133, .T. ) ;
#408 = AXIS2_PLACEMENT_3D ( 'NONE', #631, #1050, #120 ) ;
#409 = ORIENTED_EDGE ( 'NONE', *, *, #992, .F. ) ;
#410 = FACE_OUTER_BOUND ( 'NONE', #372, .T. ) ;
#411 = VECTOR ( 'NONE', #377, 39.37007874015748143 ) ;
#412 = AXIS2_PLACEMENT_3D ( 'NONE', #474, #395, #993 ) ;
#413 = CARTESIAN_POINT ( 'NONE',  ( -8.365000000000000213, -7.500000000000002665, -0.6300000000000000044 ) ) ;
#414 = DIRECTION ( 'NONE',  ( 0.000000000000000000, 0.000000000000000000, -1.000000000000000000 ) ) ;
#415 = VECTOR ( 'NONE', #22, 39.37007874015748143 ) ;
#416 = ORIENTED_EDGE ( 'NONE', *, *, #908, .F. ) ;
#417 = ORIENTED_EDGE ( 'NONE', *, *, #527, .T. ) ;
#418 = CARTESIAN_POINT ( 'NONE',  ( -3.685000000000001830, 0.000000000000000000, -0.05999999999999999778 ) ) ;
#419 = CARTESIAN_POINT ( 'NONE',  ( 8.484999999999999432, 7.380000000000000782, -1.195183497228115035E-16 ) ) ;
#420 = CARTESIAN_POINT ( 'NONE',  ( -8.424999999999998934, 7.379999999999999005, -0.1200000000000014111 ) ) ;
#421 = SURFACE_STYLE_USAGE ( .BOTH. , #9 ) ;
#422 = DIRECTION ( 'NONE',  ( 0.000000000000000000, -1.000000000000000000, 0.000000000000000000 ) ) ;
#423 = ORIENTED_EDGE ( 'NONE', *, *, #527, .F. ) ;
#424 = EDGE_CURVE ( 'NONE', #521, #852, #556, .T. ) ;
#425 = EDGE_CURVE ( 'NONE', #52, #633, #455, .T. ) ;
#426 = DIRECTION ( 'NONE',  ( 1.000000000000000000, 0.000000000000000000, 0.000000000000000000 ) ) ;
#427 = CARTESIAN_POINT ( 'NONE',  ( -8.365000000000000213, 7.380000000000000782, -0.05999999999999999778 ) ) ;
#428 =( NAMED_UNIT ( * ) PLANE_ANGLE_UNIT ( ) SI_UNIT ( $, .RADIAN. ) );
#429 = CARTESIAN_POINT ( 'NONE',  ( -8.365000000000000213, 7.380000000000000782, -0.1200000000000000372 ) ) ;
#430 = ORIENTED_EDGE ( 'NONE', *, *, #1279, .F. ) ;
#431 = VERTEX_POINT ( 'NONE', #663 ) ;
#432 = EDGE_CURVE ( 'NONE', #666, #538, #464, .T. ) ;
#433 = LINE ( 'NONE', #736, #375 ) ;
#434 = CARTESIAN_POINT ( 'NONE',  ( 8.484999999999999432, 7.440000000000002167, -0.6300000000000002265 ) ) ;
#435 = CIRCLE ( 'NONE', #216, 0.1199999999999999123 ) ;
#436 = VERTEX_POINT ( 'NONE', #365 ) ;
#437 = AXIS2_PLACEMENT_3D ( 'NONE', #925, #1348, #79 ) ;
#438 = CIRCLE ( 'NONE', #1204, 0.05999999999999988676 ) ;
#439 = ORIENTED_EDGE ( 'NONE', *, *, #611, .T. ) ;
#440 = DIRECTION ( 'NONE',  ( 1.000000000000000000, -0.000000000000000000, -0.000000000000000000 ) ) ;
#441 =( CONVERSION_BASED_UNIT ( 'INCH', #836 ) LENGTH_UNIT ( ) NAMED_UNIT ( #1014 ) );
#442 = PLANE ( 'NONE',  #936 ) ;
#443 = EDGE_CURVE ( 'NONE', #450, #226, #974, .T. ) ;
#444 = CARTESIAN_POINT ( 'NONE',  ( 0.000000000000000000, -7.440000000000002167, -0.6300000000000002265 ) ) ;
#445 = PLANE ( 'NONE',  #613 ) ;
#446 = EDGE_LOOP ( 'NONE', ( #641, #416 ) ) ;
#447 = DIRECTION ( 'NONE',  ( 0.000000000000000000, 0.000000000000000000, 1.000000000000000000 ) ) ;
#448 = LINE ( 'NONE', #132, #1274 ) ;
#449 = DIRECTION ( 'NONE',  ( -0.000000000000000000, -0.000000000000000000, 1.000000000000000000 ) ) ;
#450 = VERTEX_POINT ( 'NONE', #23 ) ;
#451 = ADVANCED_FACE ( 'NONE', ( #231 ), #256, .F. ) ;
#452 = ORIENTED_EDGE ( 'NONE', *, *, #103, .F. ) ;
#453 = DIRECTION ( 'NONE',  ( 0.000000000000000000, 0.000000000000000000, -1.000000000000000000 ) ) ;
#454 = AXIS2_PLACEMENT_3D ( 'NONE', #1216, #595, #265 ) ;
#455 = LINE ( 'NONE', #976, #109 ) ;
#456 = ORIENTED_EDGE ( 'NONE', *, *, #307, .F. ) ;
#457 = DIRECTION ( 'NONE',  ( 0.000000000000000000, 3.491481338843134539E-15, -1.000000000000000000 ) ) ;
#458 = VECTOR ( 'NONE', #1355, 39.37007874015748143 ) ;
#459 = ORIENTED_EDGE ( 'NONE', *, *, #1308, .F. ) ;
#460 = VECTOR ( 'NONE', #1168, 39.37007874015748143 ) ;
#461 = DIRECTION ( 'NONE',  ( 0.000000000000000000, 0.000000000000000000, -1.000000000000000000 ) ) ;
#462 = LINE ( 'NONE', #571, #977 ) ;
#463 = VECTOR ( 'NONE', #193, 39.37007874015748143 ) ;
#464 = LINE ( 'NONE', #952, #240 ) ;
#465 = ORIENTED_EDGE ( 'NONE', *, *, #985, .T. ) ;
#466 = ORIENTED_EDGE ( 'NONE', *, *, #664, .T. ) ;
#467 = DIRECTION ( 'NONE',  ( 0.000000000000000000, -3.491481338843134539E-15, -1.000000000000000000 ) ) ;
#468 = EDGE_CURVE ( 'NONE', #259, #1187, #551, .T. ) ;
#469 = DIRECTION ( 'NONE',  ( 0.000000000000000000, 0.000000000000000000, -1.000000000000000000 ) ) ;
#470 = DIRECTION ( 'NONE',  ( 0.000000000000000000, 1.000000000000000000, 0.000000000000000000 ) ) ;
#471 = ORIENTED_EDGE ( 'NONE', *, *, #1286, .F. ) ;
#472 = DIRECTION ( 'NONE',  ( -0.000000000000000000, -0.000000000000000000, 1.000000000000000000 ) ) ;
#473 = ORIENTED_EDGE ( 'NONE', *, *, #363, .F. ) ;
#474 = CARTESIAN_POINT ( 'NONE',  ( 8.174999999999998934, 6.000000000000000888, -0.6300000000000002265 ) ) ;
#475 = DIRECTION ( 'NONE',  ( -1.821231995776211609E-14, 0.000000000000000000, 1.000000000000000000 ) ) ;
#476 = APPLICATION_PROTOCOL_DEFINITION ( 'draft international standard', 'automotive_design', 1998, #593 ) ;
#477 = VECTOR ( 'NONE', #396, 39.37007874015748143 ) ;
#478 = EDGE_LOOP ( 'NONE', ( #552, #833, #530, #1064 ) ) ;
#479 = AXIS2_PLACEMENT_3D ( 'NONE', #581, #1318, #1225 ) ;
#480 = DIRECTION ( 'NONE',  ( 0.000000000000000000, 0.000000000000000000, 1.000000000000000000 ) ) ;
#481 = AXIS2_PLACEMENT_3D ( 'NONE', #1151, #117, #130 ) ;
#482 = LINE ( 'NONE', #166, #916 ) ;
#483 = AXIS2_PLACEMENT_3D ( 'NONE', #1021, #834, #932 ) ;
#484 = LINE ( 'NONE', #274, #695 ) ;
#485 = ORIENTED_EDGE ( 'NONE', *, *, #863, .F. ) ;
#486 = DIRECTION ( 'NONE',  ( -0.000000000000000000, -0.000000000000000000, 1.000000000000000000 ) ) ;
#487 = ADVANCED_FACE ( 'NONE', ( #1062 ), #442, .T. ) ;
#488 = VERTEX_POINT ( 'NONE', #291 ) ;
#489 = ORIENTED_EDGE ( 'NONE', *, *, #984, .F. ) ;
#490 = FACE_OUTER_BOUND ( 'NONE', #1244, .T. ) ;
#491 = LINE ( 'NONE', #585, #353 ) ;
#492 = DIRECTION ( 'NONE',  ( 0.000000000000000000, 0.000000000000000000, 1.000000000000000000 ) ) ;
#493 = DIRECTION ( 'NONE',  ( -1.000000000000000000, 0.000000000000000000, 0.000000000000000000 ) ) ;
#494 = ORIENTED_EDGE ( 'NONE', *, *, #927, .T. ) ;
#495 = CARTESIAN_POINT ( 'NONE',  ( -8.365000000000000213, 7.379999999999999005, -0.1200000000000016331 ) ) ;
#496 = PLANE ( 'NONE',  #520 ) ;
#497 = CARTESIAN_POINT ( 'NONE',  ( -3.685000000000001830, -2.734999999999999432, -0.6300000000000002265 ) ) ;
#498 = DIRECTION ( 'NONE',  ( 1.480676419330223846E-16, -1.000000000000000000, -5.677168990053691889E-31 ) ) ;
#499 = SHAPE_DEFINITION_REPRESENTATION ( #99, #10 ) ;
#500 = EDGE_LOOP ( 'NONE', ( #188, #1146, #16, #1191 ) ) ;
#501 = VECTOR ( 'NONE', #1298, 39.37007874015748143 ) ;
#502 = CARTESIAN_POINT ( 'NONE',  ( -6.719000000000000306, 2.379999999999999893, 0.000000000000000000 ) ) ;
#503 = ORIENTED_EDGE ( 'NONE', *, *, #540, .T. ) ;
#504 = EDGE_CURVE ( 'NONE', #852, #815, #491, .T. ) ;
#505 = EDGE_CURVE ( 'NONE', #795, #192, #764, .T. ) ;
#506 = CARTESIAN_POINT ( 'NONE',  ( -8.365000000000000213, -7.500000000000002665, -0.6300000000000000044 ) ) ;
#507 = FACE_BOUND ( 'NONE', #1054, .T. ) ;
#508 = DIRECTION ( 'NONE',  ( 0.000000000000000000, 0.000000000000000000, 1.000000000000000000 ) ) ;
#509 = VECTOR ( 'NONE', #1240, 39.37007874015748143 ) ;
#510 = FACE_OUTER_BOUND ( 'NONE', #1252, .T. ) ;
#511 = AXIS2_PLACEMENT_3D ( 'NONE', #269, #1088, #655 ) ;
#512 = LINE ( 'NONE', #506, #509 ) ;
#513 = CARTESIAN_POINT ( 'NONE',  ( 0.000000000000000000, 0.000000000000000000, 0.000000000000000000 ) ) ;
#514 = LINE ( 'NONE', #1041, #892 ) ;
#515 = CYLINDRICAL_SURFACE ( 'NONE', #95, 0.09499999999999994560 ) ;
#516 = EDGE_LOOP ( 'NONE', ( #430, #602, #296, #968 ) ) ;
#517 = FACE_OUTER_BOUND ( 'NONE', #954, .T. ) ;
#518 = CARTESIAN_POINT ( 'NONE',  ( 8.484999999999999432, -7.440000000000002167, -0.6300000000000002265 ) ) ;
#519 = DIRECTION ( 'NONE',  ( 0.000000000000000000, 1.000000000000000000, 0.000000000000000000 ) ) ;
#520 = AXIS2_PLACEMENT_3D ( 'NONE', #281, #911, #1336 ) ;
#521 = VERTEX_POINT ( 'NONE', #75 ) ;
#522 = CARTESIAN_POINT ( 'NONE',  ( -8.365000000000001990, 7.500000000000002665, -0.6300000000000000044 ) ) ;
#523 = VECTOR ( 'NONE', #905, 39.37007874015748143 ) ;
#524 = DIRECTION ( 'NONE',  ( 1.000000000000000000, 0.000000000000000000, 0.000000000000000000 ) ) ;
#525 = AXIS2_PLACEMENT_3D ( 'NONE', #90, #81, #942 ) ;
#526 = ORIENTED_EDGE ( 'NONE', *, *, #407, .T. ) ;
#527 = EDGE_CURVE ( 'NONE', #87, #488, #601, .T. ) ;
#528 = ORIENTED_EDGE ( 'NONE', *, *, #186, .F. ) ;
#529 = CARTESIAN_POINT ( 'NONE',  ( -8.365000000000000213, 7.500000000000002665, -0.6300000000000000044 ) ) ;
#530 = ORIENTED_EDGE ( 'NONE', *, *, #1078, .T. ) ;
#531 = EDGE_CURVE ( 'NONE', #367, #708, #484, .T. ) ;
#532 = ORIENTED_EDGE ( 'NONE', *, *, #1008, .T. ) ;
#533 = UNCERTAINTY_MEASURE_WITH_UNIT (LENGTH_MEASURE( 1.000000000000000082E-05 ), #854, 'distance_accuracy_value', 'NONE');
#534 = CARTESIAN_POINT ( 'NONE',  ( -6.719000000000000306, -2.380000000000000338, -0.6300000000000002265 ) ) ;
#535 = CARTESIAN_POINT ( 'NONE',  ( 8.484999999999999432, 7.380000000000000782, -0.1200000000000000372 ) ) ;
#536 = CARTESIAN_POINT ( 'NONE',  ( -8.365000000000000213, 7.379999999999999005, -0.1200000000000016331 ) ) ;
#537 = ORIENTED_EDGE ( 'NONE', *, *, #202, .F. ) ;
#538 = VERTEX_POINT ( 'NONE', #688 ) ;
#539 = DIRECTION ( 'NONE',  ( -1.000000000000000000, 0.000000000000000000, 0.000000000000000000 ) ) ;
#540 = EDGE_CURVE ( 'NONE', #488, #238, #1093, .T. ) ;
#541 = ADVANCED_FACE ( 'NONE', ( #705 ), #159, .F. ) ;
#542 = DIRECTION ( 'NONE',  ( -1.000000000000000000, 0.000000000000000000, 0.000000000000000000 ) ) ;
#543 = ORIENTED_EDGE ( 'NONE', *, *, #693, .T. ) ;
#544 = AXIS2_PLACEMENT_3D ( 'NONE', #40, #461, #768 ) ;
#545 = CARTESIAN_POINT ( 'NONE',  ( 8.484999999999999432, -7.500000000000000000, -0.05999999999999978961 ) ) ;
#546 = LINE ( 'NONE', #1206, #1097 ) ;
#547 = VECTOR ( 'NONE', #1163, 39.37007874015748143 ) ;
#548 = VERTEX_POINT ( 'NONE', #80 ) ;
#549 = DIRECTION ( 'NONE',  ( 1.000000000000000000, 0.000000000000000000, 0.000000000000000000 ) ) ;
#550 = ADVANCED_FACE ( 'NONE', ( #388 ), #496, .T. ) ;
#551 = LINE ( 'NONE', #644, #1158 ) ;
#552 = ORIENTED_EDGE ( 'NONE', *, *, #171, .T. ) ;
#553 = ORIENTED_EDGE ( 'NONE', *, *, #907, .F. ) ;
#554 = DIRECTION ( 'NONE',  ( 1.000000000000000000, -0.000000000000000000, 0.000000000000000000 ) ) ;
#555 = DIRECTION ( 'NONE',  ( -0.000000000000000000, -0.000000000000000000, 1.000000000000000000 ) ) ;
#556 = LINE ( 'NONE', #44, #501 ) ;
#557 = EDGE_LOOP ( 'NONE', ( #354, #1326, #76, #409 ) ) ;
#558 = ORIENTED_EDGE ( 'NONE', *, *, #686, .F. ) ;
#559 = DIRECTION ( 'NONE',  ( -0.000000000000000000, 0.000000000000000000, 1.000000000000000000 ) ) ;
#560 = DIRECTION ( 'NONE',  ( 1.000000000000000000, 1.480676419330223846E-16, -3.491481338843133750E-15 ) ) ;
#561 = VECTOR ( 'NONE', #127, 39.37007874015748143 ) ;
#562 = DIRECTION ( 'NONE',  ( 3.834172622686683600E-15, -0.000000000000000000, 1.000000000000000000 ) ) ;
#563 = ORIENTED_EDGE ( 'NONE', *, *, #113, .T. ) ;
#564 = CLOSED_SHELL ( 'NONE', ( #577, #1319, #258, #541, #384, #672, #329, #625, #950, #299, #785, #1220, #1233, #550, #840, #1058, #69, #729, #487, #451, #665, #966, #149, #85, #596, #862, #203, #401, #1243, #165, #385, #647, #1085, #606, #745, #841, #810, #245, #1086, #639, #778, #250, #746, #1017, #1266, #874 ) ) ;
#565 = CYLINDRICAL_SURFACE ( 'NONE', #851, 0.1560000000000001941 ) ;
#566 = EDGE_CURVE ( 'NONE', #238, #1173, #61, .T. ) ;
#567 = ORIENTED_EDGE ( 'NONE', *, *, #918, .T. ) ;
#568 = VECTOR ( 'NONE', #374, 39.37007874015748143 ) ;
#569 = VECTOR ( 'NONE', #1289, 39.37007874015748143 ) ;
#570 = CARTESIAN_POINT ( 'NONE',  ( 8.079999999999998295, -6.000000000000000888, 0.000000000000000000 ) ) ;
#571 = CARTESIAN_POINT ( 'NONE',  ( 3.674999999999998490, 2.734999999999999432, -0.6300000000000002265 ) ) ;
#572 = VECTOR ( 'NONE', #560, 39.37007874015748143 ) ;
#573 = CARTESIAN_POINT ( 'NONE',  ( 8.484999999999999432, -7.500000000000002665, -0.6300000000000000044 ) ) ;
#574 = ORIENTED_EDGE ( 'NONE', *, *, #626, .T. ) ;
#575 = PLANE ( 'NONE',  #331 ) ;
#576 = ORIENTED_EDGE ( 'NONE', *, *, #6, .F. ) ;
#577 = ADVANCED_FACE ( 'NONE', ( #579 ), #179, .F. ) ;
#578 = DIRECTION ( 'NONE',  ( 0.000000000000000000, -1.000000000000000000, -3.491481338843133750E-15 ) ) ;
#579 = FACE_OUTER_BOUND ( 'NONE', #142, .T. ) ;
#580 = FACE_OUTER_BOUND ( 'NONE', #996, .T. ) ;
#581 = CARTESIAN_POINT ( 'NONE',  ( 8.174999999999998934, -6.000000000000000888, -0.05999999999999997696 ) ) ;
#582 = ORIENTED_EDGE ( 'NONE', *, *, #1053, .T. ) ;
#583 = EDGE_CURVE ( 'NONE', #1294, #277, #167, .T. ) ;
#584 = EDGE_CURVE ( 'NONE', #286, #7, #1001, .T. ) ;
#585 = CARTESIAN_POINT ( 'NONE',  ( 3.674999999999998490, -2.734999999999999432, 0.000000000000000000 ) ) ;
#586 = AXIS2_PLACEMENT_3D ( 'NONE', #751, #33, #1169 ) ;
#587 = ORIENTED_EDGE ( 'NONE', *, *, #1304, .T. ) ;
#588 = CARTESIAN_POINT ( 'NONE',  ( 8.269999999999999574, -6.000000000000000888, 0.000000000000000000 ) ) ;
#589 = CIRCLE ( 'NONE', #479, 0.09499999999999994560 ) ;
#590 = ORIENTED_EDGE ( 'NONE', *, *, #155, .F. ) ;
#591 = VECTOR ( 'NONE', #15, 39.37007874015748143 ) ;
#592 = CARTESIAN_POINT ( 'NONE',  ( -8.425000000000002487, -1.247469883285713702E-15, -0.6300000000000002265 ) ) ;
#593 = APPLICATION_CONTEXT ( 'automotive_design' ) ;
#594 = AXIS2_PLACEMENT_3D ( 'NONE', #600, #426, #327 ) ;
#595 = DIRECTION ( 'NONE',  ( 0.000000000000000000, 1.000000000000000000, -3.834172622686683600E-15 ) ) ;
#596 = ADVANCED_FACE ( 'NONE', ( #173 ), #811, .F. ) ;
#597 = EDGE_LOOP ( 'NONE', ( #590, #720 ) ) ;
#598 = DIRECTION ( 'NONE',  ( -0.000000000000000000, -0.000000000000000000, 1.000000000000000000 ) ) ;
#599 = EDGE_LOOP ( 'NONE', ( #972, #1096, #489, #181 ) ) ;
#600 = CARTESIAN_POINT ( 'NONE',  ( 8.484999999999999432, 7.380000000000000782, -0.1200000000000000372 ) ) ;
#601 = LINE ( 'NONE', #1108, #1090 ) ;
#602 = ORIENTED_EDGE ( 'NONE', *, *, #504, .F. ) ;
#603 = LINE ( 'NONE', #1016, #648 ) ;
#604 = ORIENTED_EDGE ( 'NONE', *, *, #148, .T. ) ;
#605 = EDGE_CURVE ( 'NONE', #708, #116, #802, .T. ) ;
#606 = ADVANCED_FACE ( 'NONE', ( #298 ), #380, .F. ) ;
#607 = DIRECTION ( 'NONE',  ( 0.000000000000000000, 3.834172622686683600E-15, -1.000000000000000000 ) ) ;
#608 = CARTESIAN_POINT ( 'NONE',  ( -6.719000000000000306, 2.379999999999999893, -0.05999999999999997696 ) ) ;
#609 = FACE_OUTER_BOUND ( 'NONE', #557, .T. ) ;
#610 = ORIENTED_EDGE ( 'NONE', *, *, #505, .F. ) ;
#611 = EDGE_CURVE ( 'NONE', #696, #1081, #885, .T. ) ;
#612 = DIRECTION ( 'NONE',  ( 1.000000000000000000, 0.000000000000000000, 0.000000000000000000 ) ) ;
#613 = AXIS2_PLACEMENT_3D ( 'NONE', #879, #457, #345 ) ;
#614 = LINE ( 'NONE', #1030, #632 ) ;
#615 = CARTESIAN_POINT ( 'NONE',  ( 8.484999999999999432, -7.500000000000000000, -0.1199999999999995931 ) ) ;
#616 = VERTEX_POINT ( 'NONE', #783 ) ;
#617 = ORIENTED_EDGE ( 'NONE', *, *, #102, .T. ) ;
#618 = DIRECTION ( 'NONE',  ( 0.000000000000000000, 0.000000000000000000, 1.000000000000000000 ) ) ;
#619 = DIRECTION ( 'NONE',  ( -0.000000000000000000, -0.000000000000000000, 1.000000000000000000 ) ) ;
#620 = CARTESIAN_POINT ( 'NONE',  ( -8.365000000000000213, 7.440000000000000391, -0.1199999999999998151 ) ) ;
#621 = EDGE_LOOP ( 'NONE', ( #1127, #969 ) ) ;
#622 = ORIENTED_EDGE ( 'NONE', *, *, #967, .T. ) ;
#623 = LINE ( 'NONE', #1255, #847 ) ;
#624 =( LENGTH_UNIT ( ) NAMED_UNIT ( * ) SI_UNIT ( $, .METRE. ) );
#625 = ADVANCED_FACE ( 'NONE', ( #680, #1101, #734, #1048, #933, #507, #920, #1345 ), #945, .F. ) ;
#626 = EDGE_CURVE ( 'NONE', #1257, #538, #1143, .T. ) ;
#627 = CARTESIAN_POINT ( 'NONE',  ( 8.174999999999998934, 0.000000000000000000, -0.6300000000000002265 ) ) ;
#628 = ORIENTED_EDGE ( 'NONE', *, *, #49, .T. ) ;
#629 = DIRECTION ( 'NONE',  ( 1.000000000000000000, 0.000000000000000000, 0.000000000000000000 ) ) ;
#630 = AXIS2_PLACEMENT_3D ( 'NONE', #1302, #362, #480 ) ;
#631 = CARTESIAN_POINT ( 'NONE',  ( -6.605000000000000426, 2.379999999999999893, -0.6300000000000002265 ) ) ;
#632 = VECTOR ( 'NONE', #835, 39.37007874015748143 ) ;
#633 = VERTEX_POINT ( 'NONE', #143 ) ;
#634 = ORIENTED_EDGE ( 'NONE', *, *, #1359, .F. ) ;
#635 = CARTESIAN_POINT ( 'NONE',  ( -6.605000000000000426, -2.380000000000000338, -0.6300000000000002265 ) ) ;
#636 = FILL_AREA_STYLE_COLOUR ( '', #871 ) ;
#637 = FACE_BOUND ( 'NONE', #857, .T. ) ;
#638 = VERTEX_POINT ( 'NONE', #30 ) ;
#639 = ADVANCED_FACE ( 'NONE', ( #878 ), #575, .F. ) ;
#640 = EDGE_CURVE ( 'NONE', #1173, #1294, #36, .T. ) ;
#641 = ORIENTED_EDGE ( 'NONE', *, *, #171, .F. ) ;
#642 = FACE_OUTER_BOUND ( 'NONE', #344, .T. ) ;
#643 = LINE ( 'NONE', #761, #547 ) ;
#644 = CARTESIAN_POINT ( 'NONE',  ( 8.484999999999999432, 7.500000000000002665, -0.6300000000000000044 ) ) ;
#645 = ORIENTED_EDGE ( 'NONE', *, *, #769, .F. ) ;
#646 = ORIENTED_EDGE ( 'NONE', *, *, #123, .F. ) ;
#647 = ADVANCED_FACE ( 'NONE', ( #1104 ), #1087, .T. ) ;
#648 = VECTOR ( 'NONE', #486, 39.37007874015748143 ) ;
#649 = DIRECTION ( 'NONE',  ( 0.000000000000000000, 0.000000000000000000, -1.000000000000000000 ) ) ;
#650 = DIRECTION ( 'NONE',  ( 1.000000000000000000, 0.000000000000000000, 0.000000000000000000 ) ) ;
#651 = AXIS2_PLACEMENT_3D ( 'NONE', #868, #251, #1290 ) ;
#652 = ORIENTED_EDGE ( 'NONE', *, *, #1214, .T. ) ;
#653 = AXIS2_PLACEMENT_3D ( 'NONE', #131, #14, #328 ) ;
#654 = DIRECTION ( 'NONE',  ( -1.000000000000000000, -0.000000000000000000, -0.000000000000000000 ) ) ;
#655 = DIRECTION ( 'NONE',  ( 0.000000000000000000, 3.834172622686683600E-15, 1.000000000000000000 ) ) ;
#656 = ORIENTED_EDGE ( 'NONE', *, *, #819, .F. ) ;
#657 = FACE_OUTER_BOUND ( 'NONE', #1288, .T. ) ;
#658 = CYLINDRICAL_SURFACE ( 'NONE', #651, 0.05999999999999990757 ) ;
#659 = ORIENTED_EDGE ( 'NONE', *, *, #1181, .T. ) ;
#660 = EDGE_LOOP ( 'NONE', ( #390, #574, #319, #456 ) ) ;
#661 = FACE_OUTER_BOUND ( 'NONE', #806, .T. ) ;
#662 = CARTESIAN_POINT ( 'NONE',  ( -3.685000000000001830, -2.734999999999999432, 0.000000000000000000 ) ) ;
#663 = CARTESIAN_POINT ( 'NONE',  ( -8.141000000000000014, 1.910449006669872628E-17, 0.000000000000000000 ) ) ;
#664 = EDGE_CURVE ( 'NONE', #1207, #228, #1230, .T. ) ;
#665 = ADVANCED_FACE ( 'NONE', ( #1046 ), #88, .T. ) ;
#666 = VERTEX_POINT ( 'NONE', #56 ) ;
#667 = ORIENTED_EDGE ( 'NONE', *, *, #1189, .F. ) ;
#668 = CARTESIAN_POINT ( 'NONE',  ( 8.484999999999999432, -7.500000000000002665, -0.6300000000000000044 ) ) ;
#669 = DIRECTION ( 'NONE',  ( 1.000000000000000000, 0.000000000000000000, 0.000000000000000000 ) ) ;
#670 = CARTESIAN_POINT ( 'NONE',  ( -6.605000000000000426, -2.380000000000000338, 0.000000000000000000 ) ) ;
#671 = ORIENTED_EDGE ( 'NONE', *, *, #1303, .T. ) ;
#672 = ADVANCED_FACE ( 'NONE', ( #609 ), #515, .F. ) ;
#673 = VECTOR ( 'NONE', #111, 39.37007874015748143 ) ;
#674 = ORIENTED_EDGE ( 'NONE', *, *, #38, .F. ) ;
#675 = AXIS2_PLACEMENT_3D ( 'NONE', #495, #1353, #309 ) ;
#676 = VECTOR ( 'NONE', #1049, 39.37007874015748143 ) ;
#677 = DIRECTION ( 'NONE',  ( -1.000000000000000000, 0.000000000000000000, 0.000000000000000000 ) ) ;
#678 = CARTESIAN_POINT ( 'NONE',  ( -8.424999999999998934, -7.380000000000000782, -0.1199999999999993155 ) ) ;
#679 = AXIS2_PLACEMENT_3D ( 'NONE', #272, #554, #453 ) ;
#680 = FACE_BOUND ( 'NONE', #1224, .T. ) ;
#681 = CARTESIAN_POINT ( 'NONE',  ( -6.719000000000000306, -2.380000000000000338, 0.000000000000000000 ) ) ;
#682 = DIRECTION ( 'NONE',  ( -1.000000000000000000, 0.000000000000000000, 0.000000000000000000 ) ) ;
#683 = VERTEX_POINT ( 'NONE', #262 ) ;
#684 = CARTESIAN_POINT ( 'NONE',  ( -8.365000000000000213, 7.500000000000000000, -0.1199999999999995792 ) ) ;
#685 = EDGE_CURVE ( 'NONE', #633, #794, #1099, .T. ) ;
#686 = EDGE_CURVE ( 'NONE', #683, #638, #1245, .T. ) ;
#687 = DIRECTION ( 'NONE',  ( -0.000000000000000000, -0.000000000000000000, 1.000000000000000000 ) ) ;
#688 = CARTESIAN_POINT ( 'NONE',  ( -8.485000000000001208, 7.379999999999999005, -0.1200000000000007033 ) ) ;
#689 = PLANE ( 'NONE',  #65 ) ;
#690 = CARTESIAN_POINT ( 'NONE',  ( 8.484999999999999432, -7.440000000000000391, 2.875629467015013134E-14 ) ) ;
#691 = ORIENTED_EDGE ( 'NONE', *, *, #290, .T. ) ;
#692 = ORIENTED_EDGE ( 'NONE', *, *, #1181, .F. ) ;
#693 = EDGE_CURVE ( 'NONE', #638, #1257, #86, .T. ) ;
#694 = CARTESIAN_POINT ( 'NONE',  ( 8.174999999999998934, 6.000000000000000888, -0.05999999999999997696 ) ) ;
#695 = VECTOR ( 'NONE', #1329, 39.37007874015748143 ) ;
#696 = VERTEX_POINT ( 'NONE', #1010 ) ;
#697 = CYLINDRICAL_SURFACE ( 'NONE', #1137, 0.1199999999999998151 ) ;
#698 = CARTESIAN_POINT ( 'NONE',  ( 0.000000000000000000, 0.000000000000000000, 0.000000000000000000 ) ) ;
#699 = CIRCLE ( 'NONE', #999, 0.1139999999999999347 ) ;
#700 = ORIENTED_EDGE ( 'NONE', *, *, #1138, .T. ) ;
#701 = VECTOR ( 'NONE', #831, 39.37007874015748143 ) ;
#702 = DIRECTION ( 'NONE',  ( -1.480676419330223846E-16, 1.000000000000000000, 8.758115402030108638E-47 ) ) ;
#703 = AXIS2_PLACEMENT_3D ( 'NONE', #335, #542, #858 ) ;
#704 = DIRECTION ( 'NONE',  ( 0.000000000000000000, 0.000000000000000000, 1.000000000000000000 ) ) ;
#705 = FACE_OUTER_BOUND ( 'NONE', #361, .T. ) ;
#706 = VERTEX_POINT ( 'NONE', #502 ) ;
#707 = CARTESIAN_POINT ( 'NONE',  ( -6.605000000000000426, -2.380000000000000338, -0.05999999999999997696 ) ) ;
#708 = VERTEX_POINT ( 'NONE', #1340 ) ;
#709 = PLANE ( 'NONE',  #483 ) ;
#710 = DIRECTION ( 'NONE',  ( 0.000000000000000000, 0.000000000000000000, -1.000000000000000000 ) ) ;
#711 = EDGE_CURVE ( 'NONE', #253, #52, #546, .T. ) ;
#712 = ORIENTED_EDGE ( 'NONE', *, *, #711, .T. ) ;
#713 = DIRECTION ( 'NONE',  ( 0.000000000000000000, 1.000000000000000000, 0.000000000000000000 ) ) ;
#714 = EDGE_LOOP ( 'NONE', ( #656, #563, #582, #870 ) ) ;
#715 = CARTESIAN_POINT ( 'NONE',  ( 8.269999999999999574, 6.000000000000000888, -0.6300000000000002265 ) ) ;
#716 = DIRECTION ( 'NONE',  ( 1.000000000000000000, -0.000000000000000000, -0.000000000000000000 ) ) ;
#717 = PLANE ( 'NONE',  #762 ) ;
#718 = PLANE ( 'NONE',  #35 ) ;
#719 = CARTESIAN_POINT ( 'NONE',  ( -8.425000000000000711, 7.380000000000000782, 3.253295470349651175E-14 ) ) ;
#720 = ORIENTED_EDGE ( 'NONE', *, *, #928, .F. ) ;
#721 = CIRCLE ( 'NONE', #1066, 0.1139999999999999347 ) ;
#722 = PLANE ( 'NONE',  #789 ) ;
#723 = AXIS2_PLACEMENT_3D ( 'NONE', #1287, #654, #924 ) ;
#724 = CARTESIAN_POINT ( 'NONE',  ( -7.828999999999998849, 0.000000000000000000, -0.6300000000000002265 ) ) ;
#725 = AXIS2_PLACEMENT_3D ( 'NONE', #635, #235, #629 ) ;
#726 = CARTESIAN_POINT ( 'NONE',  ( -8.485000000000002984, 7.379999999999998117, -0.6300000000000000044 ) ) ;
#727 = CARTESIAN_POINT ( 'NONE',  ( -8.365000000000000213, 7.380000000000000782, -0.1200000000000000372 ) ) ;
#728 = ORIENTED_EDGE ( 'NONE', *, *, #468, .T. ) ;
#729 = ADVANCED_FACE ( 'NONE', ( #352 ), #445, .T. ) ;
#730 = LINE ( 'NONE', #715, #849 ) ;
#731 = CARTESIAN_POINT ( 'NONE',  ( -8.141000000000000014, 1.910449006669872936E-17, -0.6300000000000002265 ) ) ;
#732 = CARTESIAN_POINT ( 'NONE',  ( -3.685000000000001830, -2.734999999999999432, -0.6300000000000002265 ) ) ;
#733 = ORIENTED_EDGE ( 'NONE', *, *, #693, .F. ) ;
#734 = FACE_BOUND ( 'NONE', #621, .T. ) ;
#735 = CARTESIAN_POINT ( 'NONE',  ( 8.484999999999999432, -7.440000000000000391, -0.1199999999999998151 ) ) ;
#736 = CARTESIAN_POINT ( 'NONE',  ( -3.685000000000001830, 2.734999999999999432, 0.000000000000000000 ) ) ;
#737 =( NAMED_UNIT ( * ) PLANE_ANGLE_UNIT ( ) SI_UNIT ( $, .RADIAN. ) );
#738 = CARTESIAN_POINT ( 'NONE',  ( -8.485000000000001208, -7.380000000000000782, -0.6300000000000000044 ) ) ;
#739 = ORIENTED_EDGE ( 'NONE', *, *, #338, .T. ) ;
#740 = AXIS2_PLACEMENT_3D ( 'NONE', #903, #1201, #889 ) ;
#741 = ORIENTED_EDGE ( 'NONE', *, *, #686, .T. ) ;
#742 = DIRECTION ( 'NONE',  ( 1.000000000000000000, 0.000000000000000000, -0.000000000000000000 ) ) ;
#743 = AXIS2_PLACEMENT_3D ( 'NONE', #255, #669, #1091 ) ;
#744 = CYLINDRICAL_SURFACE ( 'NONE', #408, 0.1139999999999999347 ) ;
#745 = ADVANCED_FACE ( 'NONE', ( #772 ), #989, .T. ) ;
#746 = ADVANCED_FACE ( 'NONE', ( #54 ), #565, .F. ) ;
#747 = ORIENTED_EDGE ( 'NONE', *, *, #290, .F. ) ;
#748 = AXIS2_PLACEMENT_3D ( 'NONE', #387, #790, #897 ) ;
#749 = ORIENTED_EDGE ( 'NONE', *, *, #13, .F. ) ;
#750 = CARTESIAN_POINT ( 'NONE',  ( -8.365000000000000213, -7.440000000000002167, -0.6300000000000002265 ) ) ;
#751 = CARTESIAN_POINT ( 'NONE',  ( 8.484999999999999432, -7.380000000000000782, -0.1200000000000000372 ) ) ;
#752 = EDGE_LOOP ( 'NONE', ( #645, #18 ) ) ;
#753 = ORIENTED_EDGE ( 'NONE', *, *, #1132, .F. ) ;
#754 = CARTESIAN_POINT ( 'NONE',  ( 8.079999999999998295, 6.000000000000000888, -0.05999999999999997696 ) ) ;
#755 = LINE ( 'NONE', #1175, #569 ) ;
#756 = FACE_OUTER_BOUND ( 'NONE', #1045, .T. ) ;
#757 = VERTEX_POINT ( 'NONE', #413 ) ;
#758 = ORIENTED_EDGE ( 'NONE', *, *, #984, .T. ) ;
#759 = AXIS2_PLACEMENT_3D ( 'NONE', #727, #1145, #414 ) ;
#760 = CARTESIAN_POINT ( 'NONE',  ( 8.484999999999999432, 7.380000000000000782, -0.1200000000000000372 ) ) ;
#761 = CARTESIAN_POINT ( 'NONE',  ( -3.685000000000001830, -2.734999999999999432, 0.000000000000000000 ) ) ;
#762 = AXIS2_PLACEMENT_3D ( 'NONE', #947, #1032, #311 ) ;
#763 = CARTESIAN_POINT ( 'NONE',  ( 8.174999999999998934, 6.000000000000000888, 0.000000000000000000 ) ) ;
#764 = CIRCLE ( 'NONE', #740, 0.09499999999999994560 ) ;
#765 = ORIENTED_EDGE ( 'NONE', *, *, #227, .F. ) ;
#766 = AXIS2_PLACEMENT_3D ( 'NONE', #146, #555, #1113 ) ;
#767 = ORIENTED_EDGE ( 'NONE', *, *, #605, .F. ) ;
#768 = DIRECTION ( 'NONE',  ( -1.000000000000000000, 0.000000000000000000, 0.000000000000000000 ) ) ;
#769 = EDGE_CURVE ( 'NONE', #1006, #906, #137, .T. ) ;
#770 = CARTESIAN_POINT ( 'NONE',  ( 8.269999999999999574, -6.000000000000000888, -0.05999999999999997696 ) ) ;
#771 = EDGE_LOOP ( 'NONE', ( #1338, #78, #739, #749 ) ) ;
#772 = FACE_OUTER_BOUND ( 'NONE', #1094, .T. ) ;
#773 = ORIENTED_EDGE ( 'NONE', *, *, #358, .T. ) ;
#774 = LINE ( 'NONE', #1076, #198 ) ;
#775 = CARTESIAN_POINT ( 'NONE',  ( -6.605000000000000426, 2.379999999999999893, -0.05999999999999997696 ) ) ;
#776 = EDGE_CURVE ( 'NONE', #633, #7, #962, .T. ) ;
#777 = DIRECTION ( 'NONE',  ( 0.000000000000000000, 0.000000000000000000, 1.000000000000000000 ) ) ;
#778 = ADVANCED_FACE ( 'NONE', ( #341 ), #1283, .F. ) ;
#779 = VERTEX_POINT ( 'NONE', #754 ) ;
#780 = EDGE_LOOP ( 'NONE', ( #528, #417, #503, #1000 ) ) ;
#781 = FACE_OUTER_BOUND ( 'NONE', #144, .T. ) ;
#782 = CARTESIAN_POINT ( 'NONE',  ( -8.365000000000000213, 7.380000000000000782, -0.1200000000000016331 ) ) ;
#783 = CARTESIAN_POINT ( 'NONE',  ( 3.674999999999998490, 2.734999999999999432, -0.05999999999999997696 ) ) ;
#784 = EDGE_LOOP ( 'NONE', ( #1052, #1265, #333, #31 ) ) ;
#785 = ADVANCED_FACE ( 'NONE', ( #234 ), #1065, .F. ) ;
#786 = EDGE_CURVE ( 'NONE', #521, #548, #774, .T. ) ;
#787 = ORIENTED_EDGE ( 'NONE', *, *, #884, .T. ) ;
#788 = AXIS2_PLACEMENT_3D ( 'NONE', #57, #888, #42 ) ;
#789 = AXIS2_PLACEMENT_3D ( 'NONE', #1035, #204, #618 ) ;
#790 = DIRECTION ( 'NONE',  ( -0.000000000000000000, -0.000000000000000000, 1.000000000000000000 ) ) ;
#791 = DIRECTION ( 'NONE',  ( -3.834172622686683600E-15, 0.000000000000000000, -1.000000000000000000 ) ) ;
#792 = CARTESIAN_POINT ( 'NONE',  ( 0.000000000000000000, 7.440000000000000391, 2.875629467015013134E-14 ) ) ;
#793 = PLANE ( 'NONE',  #1200 ) ;
#794 = VERTEX_POINT ( 'NONE', #970 ) ;
#795 = VERTEX_POINT ( 'NONE', #570 ) ;
#796 = DIRECTION ( 'NONE',  ( 0.000000000000000000, 0.000000000000000000, 1.000000000000000000 ) ) ;
#797 = CARTESIAN_POINT ( 'NONE',  ( 8.484999999999999432, -7.500000000000000000, -0.05999999999999978961 ) ) ;
#798 = ORIENTED_EDGE ( 'NONE', *, *, #1068, .F. ) ;
#799 = DIRECTION ( 'NONE',  ( -1.000000000000000000, -0.000000000000000000, -0.000000000000000000 ) ) ;
#800 = ORIENTED_EDGE ( 'NONE', *, *, #640, .T. ) ;
#801 = DIRECTION ( 'NONE',  ( -1.000000000000000000, 0.000000000000000000, 0.000000000000000000 ) ) ;
#802 = LINE ( 'NONE', #68, #1043 ) ;
#803 = VECTOR ( 'NONE', #519, 39.37007874015748143 ) ;
#804 = CARTESIAN_POINT ( 'NONE',  ( -8.424999999999998934, -7.380000000000000782, -0.1199999999999998151 ) ) ;
#805 = DIRECTION ( 'NONE',  ( 1.000000000000000000, 0.000000000000000000, 0.000000000000000000 ) ) ;
#806 = EDGE_LOOP ( 'NONE', ( #838, #1282, #84, #485 ) ) ;
#807 = PRESENTATION_LAYER_ASSIGNMENT (  '', '', ( #139 ) ) ;
#808 = LINE ( 'NONE', #208, #1166 ) ;
#809 = EDGE_CURVE ( 'NONE', #906, #1006, #1278, .T. ) ;
#810 = ADVANCED_FACE ( 'NONE', ( #661 ), #32, .F. ) ;
#811 = PLANE ( 'NONE',  #285 ) ;
#812 = AXIS2_PLACEMENT_3D ( 'NONE', #986, #1082, #152 ) ;
#813 = DIRECTION ( 'NONE',  ( 1.000000000000000000, 0.000000000000000000, 0.000000000000000000 ) ) ;
#814 = CARTESIAN_POINT ( 'NONE',  ( -8.484999999999999432, -7.380000000000000782, -0.1199999999999995931 ) ) ;
#815 = VERTEX_POINT ( 'NONE', #1296 ) ;
#816 = VERTEX_POINT ( 'NONE', #684 ) ;
#817 = CYLINDRICAL_SURFACE ( 'NONE', #437, 0.1139999999999999347 ) ;
#818 = LINE ( 'NONE', #1144, #158 ) ;
#819 = EDGE_CURVE ( 'NONE', #228, #403, #261, .T. ) ;
#820 = LINE ( 'NONE', #823, #803 ) ;
#821 = ORIENTED_EDGE ( 'NONE', *, *, #1036, .F. ) ;
#822 = CARTESIAN_POINT ( 'NONE',  ( 8.269999999999999574, 6.000000000000000888, -0.05999999999999997696 ) ) ;
#823 = CARTESIAN_POINT ( 'NONE',  ( -8.365000000000000213, 0.000000000000000000, 0.000000000000000000 ) ) ;
#824 = AXIS2_PLACEMENT_3D ( 'NONE', #763, #1185, #650 ) ;
#825 = EDGE_CURVE ( 'NONE', #1075, #779, #19, .T. ) ;
#826 = VERTEX_POINT ( 'NONE', #983 ) ;
#827 = VECTOR ( 'NONE', #312, 39.37007874015748143 ) ;
#828 = CARTESIAN_POINT ( 'NONE',  ( 0.000000000000000000, 7.500000000000000000, -0.1199999999999995931 ) ) ;
#829 = VECTOR ( 'NONE', #716, 39.37007874015748143 ) ;
#830 = AXIS2_PLACEMENT_3D ( 'NONE', #698, #923, #73 ) ;
#831 = DIRECTION ( 'NONE',  ( 0.000000000000000000, -1.000000000000000000, 0.000000000000000000 ) ) ;
#832 = DIRECTION ( 'NONE',  ( 1.000000000000000000, 0.000000000000000000, 0.000000000000000000 ) ) ;
#833 = ORIENTED_EDGE ( 'NONE', *, *, #1359, .T. ) ;
#834 = DIRECTION ( 'NONE',  ( -0.000000000000000000, 1.000000000000000000, 3.834172622686683600E-15 ) ) ;
#835 = DIRECTION ( 'NONE',  ( 1.000000000000000000, 0.000000000000000000, 0.000000000000000000 ) ) ;
#836 = LENGTH_MEASURE_WITH_UNIT ( LENGTH_MEASURE( 0.02539999999999999897 ), #624 );
#837 = DIRECTION ( 'NONE',  ( 1.000000000000000000, 0.000000000000000000, 0.000000000000000000 ) ) ;
#838 = ORIENTED_EDGE ( 'NONE', *, *, #6, .T. ) ;
#839 = EDGE_LOOP ( 'NONE', ( #1084, #1059, #370, #347 ) ) ;
#840 = ADVANCED_FACE ( 'NONE', ( #1106 ), #1188, .T. ) ;
#841 = ADVANCED_FACE ( 'NONE', ( #781 ), #254, .T. ) ;
#842 = LINE ( 'NONE', #1267, #676 ) ;
#843 = FACE_BOUND ( 'NONE', #446, .T. ) ;
#844 = ORIENTED_EDGE ( 'NONE', *, *, #819, .T. ) ;
#845 = ORIENTED_EDGE ( 'NONE', *, *, #94, .T. ) ;
#846 = FACE_OUTER_BOUND ( 'NONE', #1310, .T. ) ;
#847 = VECTOR ( 'NONE', #400, 39.37007874015748143 ) ;
#848 = DIRECTION ( 'NONE',  ( 0.000000000000000000, -1.000000000000000000, 1.422837496700139435E-16 ) ) ;
#849 = VECTOR ( 'NONE', #919, 39.37007874015748143 ) ;
#850 = ORIENTED_EDGE ( 'NONE', *, *, #863, .T. ) ;
#851 = AXIS2_PLACEMENT_3D ( 'NONE', #980, #472, #304 ) ;
#852 = VERTEX_POINT ( 'NONE', #1098 ) ;
#853 = DIRECTION ( 'NONE',  ( 0.000000000000000000, 0.000000000000000000, 1.000000000000000000 ) ) ;
#854 =( CONVERSION_BASED_UNIT ( 'INCH', #859 ) LENGTH_UNIT ( ) NAMED_UNIT ( #909 ) );
#855 = DIRECTION ( 'NONE',  ( 1.000000000000000000, 0.000000000000000000, 0.000000000000000000 ) ) ;
#856 = DIRECTION ( 'NONE',  ( 1.000000000000000000, 0.000000000000000000, 0.000000000000000000 ) ) ;
#857 = EDGE_LOOP ( 'NONE', ( #1150, #821 ) ) ;
#858 = DIRECTION ( 'NONE',  ( 0.000000000000000000, 0.000000000000000000, 1.000000000000000000 ) ) ;
#859 = LENGTH_MEASURE_WITH_UNIT ( LENGTH_MEASURE( 0.02539999999999999897 ), #126 );
#860 = CARTESIAN_POINT ( 'NONE',  ( -3.685000000000001830, -2.734999999999999432, 0.000000000000000000 ) ) ;
#861 = ORIENTED_EDGE ( 'NONE', *, *, #1259, .T. ) ;
#862 = ADVANCED_FACE ( 'NONE', ( #164 ), #991, .T. ) ;
#863 = EDGE_CURVE ( 'NONE', #616, #815, #462, .T. ) ;
#864 = EDGE_LOOP ( 'NONE', ( #978, #465, #787, #915 ) ) ;
#865 = DIRECTION ( 'NONE',  ( -1.000000000000000000, 0.000000000000000000, -0.000000000000000000 ) ) ;
#866 = VECTOR ( 'NONE', #1223, 39.37007874015748143 ) ;
#867 = CIRCLE ( 'NONE', #135, 0.1560000000000001941 ) ;
#868 = CARTESIAN_POINT ( 'NONE',  ( -8.365000000000000213, -7.380000000000000782, -0.1200000000000000372 ) ) ;
#869 = VECTOR ( 'NONE', #1309, 39.37007874015748143 ) ;
#870 = ORIENTED_EDGE ( 'NONE', *, *, #1028, .T. ) ;
#871 = COLOUR_RGB ( '',0.7921568627450980005, 0.8196078431372548767, 0.9333333333333333481 ) ;
#872 = DIRECTION ( 'NONE',  ( -1.000000000000000000, 0.000000000000000000, 0.000000000000000000 ) ) ;
#873 = ORIENTED_EDGE ( 'NONE', *, *, #825, .F. ) ;
#874 = ADVANCED_FACE ( 'NONE', ( #490 ), #997, .F. ) ;
#875 = PLANE ( 'NONE',  #743 ) ;
#876 = DIRECTION ( 'NONE',  ( 0.000000000000000000, 0.000000000000000000, 1.000000000000000000 ) ) ;
#877 = VERTEX_POINT ( 'NONE', #1194 ) ;
#878 = FACE_OUTER_BOUND ( 'NONE', #944, .T. ) ;
#879 = CARTESIAN_POINT ( 'NONE',  ( 8.484999999999999432, 7.500000000000002665, -0.6300000000000000044 ) ) ;
#880 = ORIENTED_EDGE ( 'NONE', *, *, #884, .F. ) ;
#881 = DIRECTION ( 'NONE',  ( 0.000000000000000000, 1.000000000000000000, -3.491481338843134539E-15 ) ) ;
#882 = LINE ( 'NONE', #172, #572 ) ;
#883 = EDGE_CURVE ( 'NONE', #931, #683, #280, .T. ) ;
#884 = EDGE_CURVE ( 'NONE', #1018, #381, #1273, .T. ) ;
#885 = LINE ( 'NONE', #1005, #869 ) ;
#886 = ORIENTED_EDGE ( 'NONE', *, *, #59, .F. ) ;
#887 = EDGE_LOOP ( 'NONE', ( #953, #894, #765, #399 ) ) ;
#888 = DIRECTION ( 'NONE',  ( 1.000000000000000000, 1.480676419330223846E-16, -3.834172622686683600E-15 ) ) ;
#889 = DIRECTION ( 'NONE',  ( 1.000000000000000000, 0.000000000000000000, 0.000000000000000000 ) ) ;
#890 = PRODUCT_RELATED_PRODUCT_CATEGORY ( 'part', '', ( #1261 ) ) ;
#891 = EDGE_LOOP ( 'NONE', ( #543, #886, #1217, #741 ) ) ;
#892 = VECTOR ( 'NONE', #619, 39.37007874015748143 ) ;
#893 = CARTESIAN_POINT ( 'NONE',  ( 8.484999999999999432, 7.500000000000000000, -0.1199999999999995792 ) ) ;
#894 = ORIENTED_EDGE ( 'NONE', *, *, #711, .F. ) ;
#895 = AXIS2_PLACEMENT_3D ( 'NONE', #694, #469, #273 ) ;
#896 = MECHANICAL_DESIGN_GEOMETRIC_PRESENTATION_REPRESENTATION (  '', ( #139 ), #332 ) ;
#897 = DIRECTION ( 'NONE',  ( 1.000000000000000000, 0.000000000000000000, 0.000000000000000000 ) ) ;
#898 = CARTESIAN_POINT ( 'NONE',  ( -8.484999999999999432, -1.256353941801694877E-15, 3.274244358382709849E-14 ) ) ;
#899 = ORIENTED_EDGE ( 'NONE', *, *, #1132, .T. ) ;
#900 = LINE ( 'NONE', #1324, #458 ) ;
#901 = ORIENTED_EDGE ( 'NONE', *, *, #1028, .F. ) ;
#902 = ORIENTED_EDGE ( 'NONE', *, *, #114, .T. ) ;
#903 = CARTESIAN_POINT ( 'NONE',  ( 8.174999999999998934, -6.000000000000000888, 0.000000000000000000 ) ) ;
#904 = LINE ( 'NONE', #1203, #411 ) ;
#905 = DIRECTION ( 'NONE',  ( 0.000000000000000000, -3.834172622686683600E-15, -1.000000000000000000 ) ) ;
#906 = VERTEX_POINT ( 'NONE', #1107 ) ;
#907 = EDGE_CURVE ( 'NONE', #779, #1075, #394, .T. ) ;
#908 = EDGE_CURVE ( 'NONE', #157, #160, #161, .T. ) ;
#909 = DIMENSIONAL_EXPONENTS ( 1.000000000000000000, 0.000000000000000000, 0.000000000000000000, 0.000000000000000000, 0.000000000000000000, 0.000000000000000000, 0.000000000000000000 ) ;
#910 = LINE ( 'NONE', #828, #1024 ) ;
#911 = DIRECTION ( 'NONE',  ( 1.000000000000000000, 0.000000000000000000, 0.000000000000000000 ) ) ;
#912 = AXIS2_PLACEMENT_3D ( 'NONE', #247, #449, #1190 ) ;
#913 = DIRECTION ( 'NONE',  ( 1.000000000000000000, -0.000000000000000000, -0.000000000000000000 ) ) ;
#914 = DIRECTION ( 'NONE',  ( -1.000000000000000000, 0.000000000000000000, 0.000000000000000000 ) ) ;
#915 = ORIENTED_EDGE ( 'NONE', *, *, #114, .F. ) ;
#916 = VECTOR ( 'NONE', #578, 39.37007874015748143 ) ;
#917 = VERTEX_POINT ( 'NONE', #662 ) ;
#918 = EDGE_CURVE ( 'NONE', #7, #29, #1160, .T. ) ;
#919 = DIRECTION ( 'NONE',  ( -0.000000000000000000, -0.000000000000000000, 1.000000000000000000 ) ) ;
#920 = FACE_BOUND ( 'NONE', #516, .T. ) ;
#921 = AXIS2_PLACEMENT_3D ( 'NONE', #545, #856, #1179 ) ;
#922 = FACE_OUTER_BOUND ( 'NONE', #1312, .T. ) ;
#923 = DIRECTION ( 'NONE',  ( 0.000000000000000000, 0.000000000000000000, 1.000000000000000000 ) ) ;
#924 = DIRECTION ( 'NONE',  ( 0.000000000000000000, 0.000000000000000000, -1.000000000000000000 ) ) ;
#925 = CARTESIAN_POINT ( 'NONE',  ( -6.605000000000000426, 2.379999999999999893, -0.6300000000000002265 ) ) ;
#926 = DIRECTION ( 'NONE',  ( 0.000000000000000000, 0.000000000000000000, -1.000000000000000000 ) ) ;
#927 = EDGE_CURVE ( 'NONE', #316, #683, #882, .T. ) ;
#928 = EDGE_CURVE ( 'NONE', #826, #1307, #1071, .T. ) ;
#929 = LINE ( 'NONE', #1038, #701 ) ;
#930 = DIRECTION ( 'NONE',  ( -0.000000000000000000, -0.000000000000000000, 1.000000000000000000 ) ) ;
#931 = VERTEX_POINT ( 'NONE', #678 ) ;
#932 = DIRECTION ( 'NONE',  ( 0.000000000000000000, -3.834172622686683600E-15, 1.000000000000000000 ) ) ;
#933 = FACE_BOUND ( 'NONE', #129, .T. ) ;
#934 = LINE ( 'NONE', #724, #243 ) ;
#935 = CARTESIAN_POINT ( 'NONE',  ( 8.174999999999998934, -6.000000000000000888, 0.000000000000000000 ) ) ;
#936 = AXIS2_PLACEMENT_3D ( 'NONE', #1284, #343, #1177 ) ;
#937 = EDGE_LOOP ( 'NONE', ( #1197, #537 ) ) ;
#938 = ORIENTED_EDGE ( 'NONE', *, *, #363, .T. ) ;
#939 = CARTESIAN_POINT ( 'NONE',  ( 0.000000000000000000, -7.380000000000000782, -0.000000000000000000 ) ) ;
#940 = DIRECTION ( 'NONE',  ( 0.000000000000000000, 1.000000000000000000, 0.000000000000000000 ) ) ;
#941 = CIRCLE ( 'NONE', #43, 0.05999999999999990757 ) ;
#942 = DIRECTION ( 'NONE',  ( 1.000000000000000000, 0.000000000000000000, 0.000000000000000000 ) ) ;
#943 = FACE_OUTER_BOUND ( 'NONE', #478, .T. ) ;
#944 = EDGE_LOOP ( 'NONE', ( #199, #850, #150, #302 ) ) ;
#945 = PLANE ( 'NONE',  #1031 ) ;
#946 = CARTESIAN_POINT ( 'NONE',  ( -6.605000000000000426, 2.379999999999999893, 0.000000000000000000 ) ) ;
#947 = CARTESIAN_POINT ( 'NONE',  ( -8.485000000000002984, 7.380000000000000782, -0.6300000000000000044 ) ) ;
#948 = CARTESIAN_POINT ( 'NONE',  ( -8.365000000000000213, -7.500000000000000000, -0.1199999999999996070 ) ) ;
#949 = ORIENTED_EDGE ( 'NONE', *, *, #407, .F. ) ;
#950 = ADVANCED_FACE ( 'NONE', ( #264 ), #875, .T. ) ;
#951 = CARTESIAN_POINT ( 'NONE',  ( 8.484999999999999432, -7.500000000000000000, -0.05999999999999999778 ) ) ;
#952 = CARTESIAN_POINT ( 'NONE',  ( -8.485000000000002984, 7.380000000000000782, -0.6300000000000000044 ) ) ;
#953 = ORIENTED_EDGE ( 'NONE', *, *, #1214, .F. ) ;
#954 = EDGE_LOOP ( 'NONE', ( #634, #1239, #1119, #1246 ) ) ;
#955 = AXIS2_PLACEMENT_3D ( 'NONE', #1218, #710, #682 ) ;
#956 = DIRECTION ( 'NONE',  ( 0.000000000000000000, 1.000000000000000000, 3.699377491420362432E-15 ) ) ;
#957 = VECTOR ( 'NONE', #1193, 39.37007874015748143 ) ;
#958 = FACE_OUTER_BOUND ( 'NONE', #252, .T. ) ;
#959 = ORIENTED_EDGE ( 'NONE', *, *, #907, .T. ) ;
#960 =( GEOMETRIC_REPRESENTATION_CONTEXT ( 3 ) GLOBAL_UNCERTAINTY_ASSIGNED_CONTEXT ( ( #1322 ) ) GLOBAL_UNIT_ASSIGNED_CONTEXT ( ( #441, #737, #119 ) ) REPRESENTATION_CONTEXT ( 'NONE', 'WORKASPACE' ) );
#961 = ORIENTED_EDGE ( 'NONE', *, *, #1325, .T. ) ;
#962 = LINE ( 'NONE', #939, #1051 ) ;
#963 = DIRECTION ( 'NONE',  ( -0.000000000000000000, -0.000000000000000000, 1.000000000000000000 ) ) ;
#964 = LINE ( 'NONE', #3, #1360 ) ;
#965 = DIRECTION ( 'NONE',  ( 1.000000000000000000, 0.000000000000000000, 0.000000000000000000 ) ) ;
#966 = ADVANCED_FACE ( 'NONE', ( #368 ), #58, .F. ) ;
#967 = EDGE_CURVE ( 'NONE', #1187, #367, #482, .T. ) ;
#968 = ORIENTED_EDGE ( 'NONE', *, *, #358, .F. ) ;
#969 = ORIENTED_EDGE ( 'NONE', *, *, #1078, .F. ) ;
#970 = CARTESIAN_POINT ( 'NONE',  ( 8.484999999999999432, 7.380000000000000782, -1.195183497228115035E-16 ) ) ;
#971 = CARTESIAN_POINT ( 'NONE',  ( -7.828999999999998849, 0.000000000000000000, 0.000000000000000000 ) ) ;
#972 = ORIENTED_EDGE ( 'NONE', *, *, #1138, .F. ) ;
#973 = EDGE_LOOP ( 'NONE', ( #471, #587, #1258, #63 ) ) ;
#974 = CIRCLE ( 'NONE', #177, 0.09499999999999994560 ) ;
#975 = DIRECTION ( 'NONE',  ( -1.000000000000000000, 0.000000000000000000, 0.000000000000000000 ) ) ;
#976 = CARTESIAN_POINT ( 'NONE',  ( 8.484999999999999432, -7.380000000000000782, -0.06000000000000012962 ) ) ;
#977 = VECTOR ( 'NONE', #687, 39.37007874015748143 ) ;
#978 = ORIENTED_EDGE ( 'NONE', *, *, #155, .T. ) ;
#979 = AXIS2_PLACEMENT_3D ( 'NONE', #760, #549, #956 ) ;
#980 = CARTESIAN_POINT ( 'NONE',  ( -7.984999999999999432, 0.000000000000000000, -0.6300000000000002265 ) ) ;
#981 = ORIENTED_EDGE ( 'NONE', *, *, #1286, .T. ) ;
#982 = AXIS2_PLACEMENT_3D ( 'NONE', #242, #26, #1301 ) ;
#983 = CARTESIAN_POINT ( 'NONE',  ( 8.079999999999998295, 1.163414459189982046E-17, -0.05999999999999997696 ) ) ;
#984 = EDGE_CURVE ( 'NONE', #816, #116, #910, .T. ) ;
#985 = EDGE_CURVE ( 'NONE', #826, #1018, #808, .T. ) ;
#986 = CARTESIAN_POINT ( 'NONE',  ( -8.365000000000000213, -7.380000000000000782, -0.1199999999999995376 ) ) ;
#987 = DIRECTION ( 'NONE',  ( 1.000000000000000000, 0.000000000000000000, 0.000000000000000000 ) ) ;
#988 = ORIENTED_EDGE ( 'NONE', *, *, #1114, .T. ) ;
#989 = PLANE ( 'NONE',  #511 ) ;
#990 = ORIENTED_EDGE ( 'NONE', *, *, #685, .F. ) ;
#991 = PLANE ( 'NONE',  #788 ) ;
#992 = EDGE_CURVE ( 'NONE', #383, #192, #1133, .T. ) ;
#993 = DIRECTION ( 'NONE',  ( 1.000000000000000000, 0.000000000000000000, 0.000000000000000000 ) ) ;
#994 = ORIENTED_EDGE ( 'NONE', *, *, #1196, .T. ) ;
#995 = LINE ( 'NONE', #185, #310 ) ;
#996 = EDGE_LOOP ( 'NONE', ( #949, #844, #659, #275 ) ) ;
#997 = CYLINDRICAL_SURFACE ( 'NONE', #748, 0.09499999999999994560 ) ;
#998 = DIRECTION ( 'NONE',  ( 0.000000000000000000, -1.000000000000000000, 3.835990623682900600E-15 ) ) ;
#999 = AXIS2_PLACEMENT_3D ( 'NONE', #83, #1311, #1235 ) ;
#1000 = ORIENTED_EDGE ( 'NONE', *, *, #566, .T. ) ;
#1001 = CIRCLE ( 'NONE', #1297, 0.1199999999999999123 ) ;
#1002 = PLANE ( 'NONE',  #1251 ) ;
#1003 = ORIENTED_EDGE ( 'NONE', *, *, #1020, .F. ) ;
#1004 = CIRCLE ( 'NONE', #703, 0.05999999999999990757 ) ;
#1005 = CARTESIAN_POINT ( 'NONE',  ( -3.685000000000001830, 2.734999999999999432, -0.6300000000000002265 ) ) ;
#1006 = VERTEX_POINT ( 'NONE', #190 ) ;
#1007 = FACE_OUTER_BOUND ( 'NONE', #771, .T. ) ;
#1008 = EDGE_CURVE ( 'NONE', #253, #7, #623, .T. ) ;
#1009 = ORIENTED_EDGE ( 'NONE', *, *, #626, .F. ) ;
#1010 = CARTESIAN_POINT ( 'NONE',  ( -3.685000000000001830, 2.734999999999999432, -0.05999999999999999778 ) ) ;
#1011 = DIRECTION ( 'NONE',  ( -0.000000000000000000, -0.000000000000000000, 1.000000000000000000 ) ) ;
#1012 = DIRECTION ( 'NONE',  ( -0.000000000000000000, -0.000000000000000000, 1.000000000000000000 ) ) ;
#1013 = CARTESIAN_POINT ( 'NONE',  ( 0.000000000000000000, 7.440000000000002167, -0.6300000000000002265 ) ) ;
#1014 = DIMENSIONAL_EXPONENTS ( 1.000000000000000000, 0.000000000000000000, 0.000000000000000000, 0.000000000000000000, 0.000000000000000000, 0.000000000000000000, 0.000000000000000000 ) ;
#1015 = CARTESIAN_POINT ( 'NONE',  ( 8.484999999999999432, -7.380000000000000782, -0.1200000000000000372 ) ) ;
#1016 = CARTESIAN_POINT ( 'NONE',  ( -6.491000000000000547, 2.379999999999999893, -0.6300000000000002265 ) ) ;
#1017 = ADVANCED_FACE ( 'NONE', ( #517 ), #817, .F. ) ;
#1018 = VERTEX_POINT ( 'NONE', #1335 ) ;
#1019 = CARTESIAN_POINT ( 'NONE',  ( 8.484999999999999432, -7.500000000000000000, 0.000000000000000000 ) ) ;
#1020 = EDGE_CURVE ( 'NONE', #538, #877, #1202, .T. ) ;
#1021 = CARTESIAN_POINT ( 'NONE',  ( 0.000000000000000000, 7.500000000000000000, 2.896578355048071808E-14 ) ) ;
#1022 = CARTESIAN_POINT ( 'NONE',  ( -6.491000000000000547, 2.379999999999999893, -0.05999999999999997696 ) ) ;
#1023 = ORIENTED_EDGE ( 'NONE', *, *, #1114, .F. ) ;
#1024 = VECTOR ( 'NONE', #612, 39.37007874015748143 ) ;
#1025 = EDGE_LOOP ( 'NONE', ( #628, #767, #266, #1149 ) ) ;
#1026 = CIRCLE ( 'NONE', #1120, 0.1139999999999999347 ) ;
#1027 = EDGE_CURVE ( 'NONE', #1075, #450, #730, .T. ) ;
#1028 = EDGE_CURVE ( 'NONE', #259, #403, #1231, .T. ) ;
#1029 = DIRECTION ( 'NONE',  ( 0.000000000000000000, 0.000000000000000000, 1.000000000000000000 ) ) ;
#1030 = CARTESIAN_POINT ( 'NONE',  ( 0.000000000000000000, 2.734999999999999432, -0.05999999999999999778 ) ) ;
#1031 = AXIS2_PLACEMENT_3D ( 'NONE', #513, #926, #1249 ) ;
#1032 = DIRECTION ( 'NONE',  ( -1.480676419330223846E-16, 1.000000000000000000, 5.677168990053691889E-31 ) ) ;
#1033 = DIRECTION ( 'NONE',  ( 1.000000000000000000, 0.000000000000000000, 0.000000000000000000 ) ) ;
#1034 = ORIENTED_EDGE ( 'NONE', *, *, #315, .F. ) ;
#1035 = CARTESIAN_POINT ( 'NONE',  ( -8.365000000000000213, -7.500000000000002665, -0.6300000000000000044 ) ) ;
#1036 = EDGE_CURVE ( 'NONE', #436, #383, #1073, .T. ) ;
#1037 = CARTESIAN_POINT ( 'NONE',  ( -8.365000000000001990, 7.500000000000000000, -0.1199999999999996070 ) ) ;
#1038 = CARTESIAN_POINT ( 'NONE',  ( -8.365000000000000213, 7.380000000000000782, -0.06000000000000012962 ) ) ;
#1039 = CARTESIAN_POINT ( 'NONE',  ( -8.365000000000001990, 7.500000000000002665, -0.6300000000000000044 ) ) ;
#1040 = LINE ( 'NONE', #419, #200 ) ;
#1041 = CARTESIAN_POINT ( 'NONE',  ( 8.079999999999998295, 6.000000000000000888, -0.6300000000000002265 ) ) ;
#1042 = DIRECTION ( 'NONE',  ( 0.000000000000000000, 0.000000000000000000, 1.000000000000000000 ) ) ;
#1043 = VECTOR ( 'NONE', #1232, 39.37007874015748143 ) ;
#1044 = AXIS2_PLACEMENT_3D ( 'NONE', #707, #378, #1212 ) ;
#1045 = EDGE_LOOP ( 'NONE', ( #712, #671, #232, #981 ) ) ;
#1046 = FACE_OUTER_BOUND ( 'NONE', #107, .T. ) ;
#1047 = CIRCLE ( 'NONE', #481, 0.05999999999999881123 ) ;
#1048 = FACE_BOUND ( 'NONE', #105, .T. ) ;
#1049 = DIRECTION ( 'NONE',  ( -1.000000000000000000, -1.480676419330223846E-16, 3.835990623682900600E-15 ) ) ;
#1050 = DIRECTION ( 'NONE',  ( -0.000000000000000000, -0.000000000000000000, 1.000000000000000000 ) ) ;
#1051 = VECTOR ( 'NONE', #1174, 39.37007874015748143 ) ;
#1052 = ORIENTED_EDGE ( 'NONE', *, *, #113, .F. ) ;
#1053 = EDGE_CURVE ( 'NONE', #816, #259, #89, .T. ) ;
#1054 = EDGE_LOOP ( 'NONE', ( #1034, #610 ) ) ;
#1055 = CARTESIAN_POINT ( 'NONE',  ( 8.174999999999998934, -6.000000000000000888, -0.6300000000000002265 ) ) ;
#1056 = CYLINDRICAL_SURFACE ( 'NONE', #725, 0.1139999999999999347 ) ;
#1057 = CARTESIAN_POINT ( 'NONE',  ( 0.000000000000000000, 0.000000000000000000, -0.05999999999999999778 ) ) ;
#1058 = ADVANCED_FACE ( 'NONE', ( #297 ), #709, .T. ) ;
#1059 = ORIENTED_EDGE ( 'NONE', *, *, #1036, .T. ) ;
#1060 = CYLINDRICAL_SURFACE ( 'NONE', #653, 0.1199999999999998151 ) ;
#1061 = FILL_AREA_STYLE ('',( #636 ) ) ;
#1062 = FACE_OUTER_BOUND ( 'NONE', #1229, .T. ) ;
#1063 = ORIENTED_EDGE ( 'NONE', *, *, #566, .F. ) ;
#1064 = ORIENTED_EDGE ( 'NONE', *, *, #209, .F. ) ;
#1065 = PLANE ( 'NONE',  #1226 ) ;
#1066 = AXIS2_PLACEMENT_3D ( 'NONE', #91, #1103, #914 ) ;
#1067 = EDGE_CURVE ( 'NONE', #757, #286, #512, .T. ) ;
#1068 = EDGE_CURVE ( 'NONE', #548, #696, #303, .T. ) ;
#1069 = CARTESIAN_POINT ( 'NONE',  ( 8.269999999999999574, 0.000000000000000000, -0.05999999999999997696 ) ) ;
#1070 = PRESENTATION_STYLE_ASSIGNMENT (( #421 ) ) ;
#1071 = CIRCLE ( 'NONE', #397, 0.09499999999999994560 ) ;
#1072 = CYLINDRICAL_SURFACE ( 'NONE', #912, 0.09499999999999994560 ) ;
#1073 = CIRCLE ( 'NONE', #1184, 0.09499999999999994560 ) ;
#1074 = ORIENTED_EDGE ( 'NONE', *, *, #60, .F. ) ;
#1075 = VERTEX_POINT ( 'NONE', #822 ) ;
#1076 = CARTESIAN_POINT ( 'NONE',  ( 0.000000000000000000, -2.734999999999999432, -0.05999999999999999778 ) ) ;
#1077 = CYLINDRICAL_SURFACE ( 'NONE', #766, 0.1139999999999999347 ) ;
#1078 = EDGE_CURVE ( 'NONE', #706, #1281, #1026, .T. ) ;
#1079 = FACE_OUTER_BOUND ( 'NONE', #864, .T. ) ;
#1080 = ORIENTED_EDGE ( 'NONE', *, *, #685, .T. ) ;
#1081 = VERTEX_POINT ( 'NONE', #1247 ) ;
#1082 = DIRECTION ( 'NONE',  ( 0.000000000000000000, -1.000000000000000000, 1.422837496700139435E-16 ) ) ;
#1083 = CARTESIAN_POINT ( 'NONE',  ( -8.365000000000001990, 7.440000000000002167, -0.6300000000000002265 ) ) ;
#1084 = ORIENTED_EDGE ( 'NONE', *, *, #364, .F. ) ;
#1085 = ADVANCED_FACE ( 'NONE', ( #288 ), #722, .T. ) ;
#1086 = ADVANCED_FACE ( 'NONE', ( #410 ), #101, .F. ) ;
#1087 = PLANE ( 'NONE',  #921 ) ;
#1088 = DIRECTION ( 'NONE',  ( 0.000000000000000000, 1.000000000000000000, -3.834172622686683600E-15 ) ) ;
#1089 = ORIENTED_EDGE ( 'NONE', *, *, #355, .T. ) ;
#1090 = VECTOR ( 'NONE', #998, 39.37007874015748143 ) ;
#1091 = DIRECTION ( 'NONE',  ( 0.000000000000000000, 0.000000000000000000, -1.000000000000000000 ) ) ;
#1092 = AXIS2_PLACEMENT_3D ( 'NONE', #174, #82, #813 ) ;
#1093 = LINE ( 'NONE', #797, #1334 ) ;
#1094 = EDGE_LOOP ( 'NONE', ( #1347, #1180, #339, #800 ) ) ;
#1095 = PRODUCT_DEFINITION ( 'UNKNOWN', '', #1, #279 ) ;
#1096 = ORIENTED_EDGE ( 'NONE', *, *, #1131, .F. ) ;
#1097 = VECTOR ( 'NONE', #239, 39.37007874015748143 ) ;
#1098 = CARTESIAN_POINT ( 'NONE',  ( 3.674999999999998490, -2.734999999999999432, 0.000000000000000000 ) ) ;
#1099 = LINE ( 'NONE', #1019, #263 ) ;
#1100 = DIRECTION ( 'NONE',  ( -1.000000000000000000, 0.000000000000000000, 3.699377491420430274E-15 ) ) ;
#1101 = FACE_BOUND ( 'NONE', #1323, .T. ) ;
#1102 = DIRECTION ( 'NONE',  ( -0.000000000000000000, -0.000000000000000000, 1.000000000000000000 ) ) ;
#1103 = DIRECTION ( 'NONE',  ( 0.000000000000000000, 0.000000000000000000, -1.000000000000000000 ) ) ;
#1104 = FACE_OUTER_BOUND ( 'NONE', #780, .T. ) ;
#1105 = ORIENTED_EDGE ( 'NONE', *, *, #13, .T. ) ;
#1106 = FACE_OUTER_BOUND ( 'NONE', #714, .T. ) ;
#1107 = CARTESIAN_POINT ( 'NONE',  ( -8.141000000000000014, 1.910449006669872628E-17, -0.05999999999999997696 ) ) ;
#1108 = CARTESIAN_POINT ( 'NONE',  ( 8.484999999999999432, -7.500000000000000000, -0.1199999999999995792 ) ) ;
#1109 = DIRECTION ( 'NONE',  ( 0.000000000000000000, -3.834172622686683600E-15, 1.000000000000000000 ) ) ;
#1110 = DIRECTION ( 'NONE',  ( -3.491481338843134539E-15, -5.169754086956546656E-31, -1.000000000000000000 ) ) ;
#1111 = ORIENTED_EDGE ( 'NONE', *, *, #1259, .F. ) ;
#1112 = AXIS2_PLACEMENT_3D ( 'NONE', #536, #848, #337 ) ;
#1113 = DIRECTION ( 'NONE',  ( 1.000000000000000000, 0.000000000000000000, 0.000000000000000000 ) ) ;
#1114 = EDGE_CURVE ( 'NONE', #29, #316, #1121, .T. ) ;
#1115 = DIRECTION ( 'NONE',  ( -1.000000000000000000, 0.000000000000000000, 0.000000000000000000 ) ) ;
#1116 = VECTOR ( 'NONE', #106, 39.37007874015748143 ) ;
#1117 = CARTESIAN_POINT ( 'NONE',  ( 3.674999999999998490, 0.000000000000000000, -0.05999999999999999778 ) ) ;
#1118 = LINE ( 'NONE', #814, #260 ) ;
#1119 = ORIENTED_EDGE ( 'NONE', *, *, #209, .T. ) ;
#1120 = AXIS2_PLACEMENT_3D ( 'NONE', #194, #1029, #96 ) ;
#1121 = LINE ( 'NONE', #1147, #219 ) ;
#1122 = CARTESIAN_POINT ( 'NONE',  ( -7.984999999999999432, 0.000000000000000000, -0.6300000000000002265 ) ) ;
#1123 = DIRECTION ( 'NONE',  ( -0.000000000000000000, -0.000000000000000000, 1.000000000000000000 ) ) ;
#1124 = ORIENTED_EDGE ( 'NONE', *, *, #1155, .T. ) ;
#1125 = FACE_OUTER_BOUND ( 'NONE', #1186, .T. ) ;
#1126 = ORIENTED_EDGE ( 'NONE', *, *, #1325, .F. ) ;
#1127 = ORIENTED_EDGE ( 'NONE', *, *, #1280, .F. ) ;
#1128 = CARTESIAN_POINT ( 'NONE',  ( 8.174999999999998934, -6.000000000000000888, -0.05999999999999997696 ) ) ;
#1129 = CARTESIAN_POINT ( 'NONE',  ( 8.269999999999999574, 0.000000000000000000, -0.6300000000000002265 ) ) ;
#1130 = ORIENTED_EDGE ( 'NONE', *, *, #985, .F. ) ;
#1131 = EDGE_CURVE ( 'NONE', #116, #794, #1254, .T. ) ;
#1132 = EDGE_CURVE ( 'NONE', #1192, #25, #1275, .T. ) ;
#1133 = LINE ( 'NONE', #1343, #1342 ) ;
#1134 = CARTESIAN_POINT ( 'NONE',  ( 8.484999999999999432, 7.500000000000002665, -0.6300000000000000044 ) ) ;
#1135 = LINE ( 'NONE', #615, #827 ) ;
#1136 = PRODUCT_CONTEXT ( 'NONE', #270, 'mechanical' ) ;
#1137 = AXIS2_PLACEMENT_3D ( 'NONE', #77, #493, #382 ) ;
#1138 = EDGE_CURVE ( 'NONE', #794, #877, #1040, .T. ) ;
#1139 = VECTOR ( 'NONE', #702, 39.37007874015748143 ) ;
#1140 = ORIENTED_EDGE ( 'NONE', *, *, #776, .F. ) ;
#1141 = AXIS2_PLACEMENT_3D ( 'NONE', #946, #447, #8 ) ;
#1142 = DIRECTION ( 'NONE',  ( -0.000000000000000000, -0.000000000000000000, 1.000000000000000000 ) ) ;
#1143 = LINE ( 'NONE', #1349, #1315 ) ;
#1144 = CARTESIAN_POINT ( 'NONE',  ( 8.484999999999999432, 7.380000000000000782, -0.06000000000000012962 ) ) ;
#1145 = DIRECTION ( 'NONE',  ( -1.000000000000000000, -0.000000000000000000, -0.000000000000000000 ) ) ;
#1146 = ORIENTED_EDGE ( 'NONE', *, *, #605, .T. ) ;
#1147 = CARTESIAN_POINT ( 'NONE',  ( -8.484999999999999432, -7.380000000000000782, -0.05999999999999978961 ) ) ;
#1148 = LINE ( 'NONE', #330, #326 ) ;
#1149 = ORIENTED_EDGE ( 'NONE', *, *, #967, .F. ) ;
#1150 = ORIENTED_EDGE ( 'NONE', *, *, #191, .F. ) ;
#1151 = CARTESIAN_POINT ( 'NONE',  ( -8.365000000000000213, 7.379999999999999005, -0.1200000000000016331 ) ) ;
#1152 = LINE ( 'NONE', #951, #460 ) ;
#1153 =( NAMED_UNIT ( * ) SI_UNIT ( $, .STERADIAN. ) SOLID_ANGLE_UNIT ( ) );
#1154 = EDGE_CURVE ( 'NONE', #87, #277, #222, .T. ) ;
#1155 = EDGE_CURVE ( 'NONE', #1257, #1207, #1047, .T. ) ;
#1156 = LINE ( 'NONE', #1037, #1116 ) ;
#1157 = DIRECTION ( 'NONE',  ( 0.000000000000000000, 0.000000000000000000, -1.000000000000000000 ) ) ;
#1158 = VECTOR ( 'NONE', #855, 39.37007874015748143 ) ;
#1159 = ORIENTED_EDGE ( 'NONE', *, *, #1053, .F. ) ;
#1160 = CIRCLE ( 'NONE', #812, 0.1199999999999988159 ) ;
#1161 = VECTOR ( 'NONE', #963, 39.37007874015748143 ) ;
#1162 = DIRECTION ( 'NONE',  ( 1.000000000000000000, 0.000000000000000000, 0.000000000000000000 ) ) ;
#1163 = DIRECTION ( 'NONE',  ( 1.000000000000000000, 0.000000000000000000, 0.000000000000000000 ) ) ;
#1164 = FACE_BOUND ( 'NONE', #1321, .T. ) ;
#1165 = EDGE_CURVE ( 'NONE', #379, #431, #356, .T. ) ;
#1166 = VECTOR ( 'NONE', #1011, 39.37007874015748143 ) ;
#1167 = EDGE_LOOP ( 'NONE', ( #1337, #861, #988, #494 ) ) ;
#1168 = DIRECTION ( 'NONE',  ( 0.000000000000000000, 1.000000000000000000, 0.000000000000000000 ) ) ;
#1169 = DIRECTION ( 'NONE',  ( -0.000000000000000000, 0.000000000000000000, -1.000000000000000000 ) ) ;
#1170 = VERTEX_POINT ( 'NONE', #195 ) ;
#1171 = EDGE_CURVE ( 'NONE', #1006, #379, #934, .T. ) ;
#1172 = EDGE_CURVE ( 'NONE', #1270, #794, #818, .T. ) ;
#1173 = VERTEX_POINT ( 'NONE', #518 ) ;
#1174 = DIRECTION ( 'NONE',  ( -1.000000000000000000, 0.000000000000000000, 0.000000000000000000 ) ) ;
#1175 = CARTESIAN_POINT ( 'NONE',  ( -8.365000000000000213, -7.440000000000000391, -0.1199999999999998151 ) ) ;
#1176 = DIRECTION ( 'NONE',  ( 0.000000000000000000, 1.000000000000000000, -3.491481338843133750E-15 ) ) ;
#1177 = DIRECTION ( 'NONE',  ( 0.000000000000000000, -1.422837496700139435E-16, -1.000000000000000000 ) ) ;
#1178 = ORIENTED_EDGE ( 'NONE', *, *, #1068, .T. ) ;
#1179 = DIRECTION ( 'NONE',  ( 0.000000000000000000, 0.000000000000000000, -1.000000000000000000 ) ) ;
#1180 = ORIENTED_EDGE ( 'NONE', *, *, #1154, .F. ) ;
#1181 = EDGE_CURVE ( 'NONE', #403, #367, #1241, .T. ) ;
#1182 = VECTOR ( 'NONE', #323, 39.37007874015748143 ) ;
#1183 = CARTESIAN_POINT ( 'NONE',  ( -6.491000000000000547, -2.380000000000000338, -0.6300000000000002265 ) ) ;
#1184 = AXIS2_PLACEMENT_3D ( 'NONE', #1128, #404, #108 ) ;
#1185 = DIRECTION ( 'NONE',  ( 0.000000000000000000, 0.000000000000000000, 1.000000000000000000 ) ) ;
#1186 = EDGE_LOOP ( 'NONE', ( #558, #351, #201, #398 ) ) ;
#1187 = VERTEX_POINT ( 'NONE', #1134 ) ;
#1188 = PLANE ( 'NONE',  #630 ) ;
#1189 = EDGE_CURVE ( 'NONE', #696, #616, #614, .T. ) ;
#1190 = DIRECTION ( 'NONE',  ( 1.000000000000000000, 0.000000000000000000, 0.000000000000000000 ) ) ;
#1191 = ORIENTED_EDGE ( 'NONE', *, *, #1172, .F. ) ;
#1192 = VERTEX_POINT ( 'NONE', #1262 ) ;
#1193 = DIRECTION ( 'NONE',  ( -0.000000000000000000, 3.834172622686683600E-15, -1.000000000000000000 ) ) ;
#1194 = CARTESIAN_POINT ( 'NONE',  ( -8.365000000000000213, 7.379999999999999005, -2.817218243466271358E-15 ) ) ;
#1195 = DIRECTION ( 'NONE',  ( 1.000000000000000000, 0.000000000000000000, 0.000000000000000000 ) ) ;
#1196 = EDGE_CURVE ( 'NONE', #708, #1270, #438, .T. ) ;
#1197 = ORIENTED_EDGE ( 'NONE', *, *, #148, .F. ) ;
#1198 = ORIENTED_EDGE ( 'NONE', *, *, #1172, .T. ) ;
#1199 = DIRECTION ( 'NONE',  ( -0.000000000000000000, 1.000000000000000000, -1.422837496700139435E-16 ) ) ;
#1200 = AXIS2_PLACEMENT_3D ( 'NONE', #371, #498, #1331 ) ;
#1201 = DIRECTION ( 'NONE',  ( 0.000000000000000000, 0.000000000000000000, 1.000000000000000000 ) ) ;
#1202 = CIRCLE ( 'NONE', #675, 0.1199999999999988159 ) ;
#1203 = CARTESIAN_POINT ( 'NONE',  ( 8.484999999999999432, 7.500000000000000000, -0.05999999999999978961 ) ) ;
#1204 = AXIS2_PLACEMENT_3D ( 'NONE', #535, #1162, #649 ) ;
#1205 = CARTESIAN_POINT ( 'NONE',  ( -3.685000000000001830, 2.734999999999999432, -0.6300000000000002265 ) ) ;
#1206 = CARTESIAN_POINT ( 'NONE',  ( -8.365000000000000213, -7.380000000000000782, -0.06000000000000072636 ) ) ;
#1207 = VERTEX_POINT ( 'NONE', #427 ) ;
#1208 = DIRECTION ( 'NONE',  ( 0.000000000000000000, 0.000000000000000000, -1.000000000000000000 ) ) ;
#1209 = CARTESIAN_POINT ( 'NONE',  ( -8.424999999999998934, -7.380000000000000782, 3.253295470349650544E-14 ) ) ;
#1210 = DIRECTION ( 'NONE',  ( 1.000000000000000000, 1.480676419330223846E-16, -3.834172622686683600E-15 ) ) ;
#1211 = DIRECTION ( 'NONE',  ( -0.000000000000000000, 1.000000000000000000, 3.834172622686683600E-15 ) ) ;
#1212 = DIRECTION ( 'NONE',  ( -1.000000000000000000, 0.000000000000000000, 0.000000000000000000 ) ) ;
#1213 = ORIENTED_EDGE ( 'NONE', *, *, #918, .F. ) ;
#1214 = EDGE_CURVE ( 'NONE', #52, #1270, #1152, .T. ) ;
#1215 = DIRECTION ( 'NONE',  ( 1.000000000000000000, 0.000000000000000000, 0.000000000000000000 ) ) ;
#1216 = CARTESIAN_POINT ( 'NONE',  ( 0.000000000000000000, -7.500000000000000000, 2.896578355048071808E-14 ) ) ;
#1217 = ORIENTED_EDGE ( 'NONE', *, *, #883, .T. ) ;
#1218 = CARTESIAN_POINT ( 'NONE',  ( 8.174999999999998934, 0.000000000000000000, -0.05999999999999997696 ) ) ;
#1219 = ORIENTED_EDGE ( 'NONE', *, *, #928, .T. ) ;
#1220 = ADVANCED_FACE ( 'NONE', ( #214 ), #1060, .T. ) ;
#1221 = AXIS2_PLACEMENT_3D ( 'NONE', #1256, #402, #1033 ) ;
#1222 = DIRECTION ( 'NONE',  ( 0.000000000000000000, 0.000000000000000000, -1.000000000000000000 ) ) ;
#1223 = DIRECTION ( 'NONE',  ( 0.000000000000000000, 3.834172622686683600E-15, 1.000000000000000000 ) ) ;
#1224 = EDGE_LOOP ( 'NONE', ( #257, #473 ) ) ;
#1225 = DIRECTION ( 'NONE',  ( -1.000000000000000000, 0.000000000000000000, 0.000000000000000000 ) ) ;
#1226 = AXIS2_PLACEMENT_3D ( 'NONE', #138, #865, #559 ) ;
#1227 = ORIENTED_EDGE ( 'NONE', *, *, #425, .T. ) ;
#1228 = VECTOR ( 'NONE', #607, 39.37007874015748143 ) ;
#1229 = EDGE_LOOP ( 'NONE', ( #1111, #1074, #532, #567 ) ) ;
#1230 = CIRCLE ( 'NONE', #723, 0.05999999999999988676 ) ;
#1231 = LINE ( 'NONE', #1039, #314 ) ;
#1232 = DIRECTION ( 'NONE',  ( 0.000000000000000000, 1.000000000000000000, 3.835990623682900600E-15 ) ) ;
#1233 = ADVANCED_FACE ( 'NONE', ( #846 ), #348, .F. ) ;
#1234 = LINE ( 'NONE', #497, #1313 ) ;
#1235 = DIRECTION ( 'NONE',  ( -1.000000000000000000, 0.000000000000000000, 0.000000000000000000 ) ) ;
#1236 = CARTESIAN_POINT ( 'NONE',  ( 8.174999999999998934, -6.000000000000000888, -0.6300000000000002265 ) ) ;
#1237 = APPLICATION_PROTOCOL_DEFINITION ( 'draft international standard', 'automotive_design', 1998, #270 ) ;
#1238 = EDGE_LOOP ( 'NONE', ( #1361, #652, #1198, #990 ) ) ;
#1239 = ORIENTED_EDGE ( 'NONE', *, *, #908, .T. ) ;
#1240 = DIRECTION ( 'NONE',  ( -0.000000000000000000, 3.834172622686683600E-15, 1.000000000000000000 ) ) ;
#1241 = LINE ( 'NONE', #1013, #829 ) ;
#1242 = PLANE ( 'NONE',  #1354 ) ;
#1243 = ADVANCED_FACE ( 'NONE', ( #322 ), #230, .F. ) ;
#1244 = EDGE_LOOP ( 'NONE', ( #284, #959, #211, #5 ) ) ;
#1245 = LINE ( 'NONE', #592, #1139 ) ;
#1246 = ORIENTED_EDGE ( 'NONE', *, *, #1280, .T. ) ;
#1247 = CARTESIAN_POINT ( 'NONE',  ( -3.685000000000001830, 2.734999999999999432, 0.000000000000000000 ) ) ;
#1248 = CIRCLE ( 'NONE', #64, 0.09499999999999994560 ) ;
#1249 = DIRECTION ( 'NONE',  ( -1.000000000000000000, 0.000000000000000000, -0.000000000000000000 ) ) ;
#1250 = CARTESIAN_POINT ( 'NONE',  ( -8.365000000000000213, -7.440000000000000391, -0.1199999999999998151 ) ) ;
#1251 = AXIS2_PLACEMENT_3D ( 'NONE', #276, #1110, #175 ) ;
#1252 = EDGE_LOOP ( 'NONE', ( #189, #1009, #733, #452 ) ) ;
#1253 = ORIENTED_EDGE ( 'NONE', *, *, #355, .F. ) ;
#1254 = CIRCLE ( 'NONE', #594, 0.1199999999999999262 ) ;
#1255 = CARTESIAN_POINT ( 'NONE',  ( -8.365000000000000213, -7.380000000000000782, -0.06000000000000072636 ) ) ;
#1256 = CARTESIAN_POINT ( 'NONE',  ( 8.174999999999998934, 0.000000000000000000, 0.000000000000000000 ) ) ;
#1257 = VERTEX_POINT ( 'NONE', #420 ) ;
#1258 = ORIENTED_EDGE ( 'NONE', *, *, #584, .T. ) ;
#1259 = EDGE_CURVE ( 'NONE', #931, #29, #842, .T. ) ;
#1260 = DIRECTION ( 'NONE',  ( -0.000000000000000000, -0.000000000000000000, 1.000000000000000000 ) ) ;
#1261 = PRODUCT ( 'PP21340-02-(16gacr ANSI-61) - K48 - V0-R0', 'PP21340-02-(16gacr ANSI-61) - K48 - V0-R0', '', ( #1136 ) ) ;
#1262 = CARTESIAN_POINT ( 'NONE',  ( -6.719000000000000306, -2.380000000000000338, -0.05999999999999997696 ) ) ;
#1263 = DIRECTION ( 'NONE',  ( -0.000000000000000000, -0.000000000000000000, 1.000000000000000000 ) ) ;
#1264 = FACE_BOUND ( 'NONE', #597, .T. ) ;
#1265 = ORIENTED_EDGE ( 'NONE', *, *, #664, .F. ) ;
#1266 = ADVANCED_FACE ( 'NONE', ( #642 ), #1056, .F. ) ;
#1267 = CARTESIAN_POINT ( 'NONE',  ( -8.484999999999999432, -7.380000000000000782, -0.1199999999999995792 ) ) ;
#1268 = FACE_BOUND ( 'NONE', #937, .T. ) ;
#1269 = AXIS2_PLACEMENT_3D ( 'NONE', #1122, #1012, #987 ) ;
#1270 = VERTEX_POINT ( 'NONE', #125 ) ;
#1271 = VECTOR ( 'NONE', #168, 39.37007874015748143 ) ;
#1272 = ORIENTED_EDGE ( 'NONE', *, *, #809, .T. ) ;
#1273 = CIRCLE ( 'NONE', #46, 0.09499999999999994560 ) ;
#1274 = VECTOR ( 'NONE', #1263, 39.37007874015748143 ) ;
#1275 = LINE ( 'NONE', #534, #1161 ) ;
#1276 = CARTESIAN_POINT ( 'NONE',  ( -6.491000000000000547, 2.379999999999999893, 0.000000000000000000 ) ) ;
#1277 = CARTESIAN_POINT ( 'NONE',  ( 8.174999999999998934, 6.000000000000000888, 0.000000000000000000 ) ) ;
#1278 = CIRCLE ( 'NONE', #218, 0.1560000000000001941 ) ;
#1279 = EDGE_CURVE ( 'NONE', #815, #1081, #433, .T. ) ;
#1280 = EDGE_CURVE ( 'NONE', #1281, #706, #1317, .T. ) ;
#1281 = VERTEX_POINT ( 'NONE', #1276 ) ;
#1282 = ORIENTED_EDGE ( 'NONE', *, *, #424, .T. ) ;
#1283 = CYLINDRICAL_SURFACE ( 'NONE', #267, 0.09499999999999994560 ) ;
#1284 = CARTESIAN_POINT ( 'NONE',  ( -8.365000000000000213, -7.380000000000000782, -0.1199999999999995376 ) ) ;
#1285 = ORIENTED_EDGE ( 'NONE', *, *, #122, .F. ) ;
#1286 = EDGE_CURVE ( 'NONE', #277, #253, #1004, .T. ) ;
#1287 = CARTESIAN_POINT ( 'NONE',  ( -8.365000000000000213, 7.380000000000000782, -0.1200000000000000372 ) ) ;
#1288 = EDGE_LOOP ( 'NONE', ( #604, #899, #1089, #459 ) ) ;
#1289 = DIRECTION ( 'NONE',  ( 0.000000000000000000, -1.000000000000000000, 3.835990623682900600E-15 ) ) ;
#1290 = DIRECTION ( 'NONE',  ( 0.000000000000000000, -1.000000000000000000, 3.699377491420362432E-15 ) ) ;
#1291 = LINE ( 'NONE', #336, #415 ) ;
#1292 = ORIENTED_EDGE ( 'NONE', *, *, #217, .F. ) ;
#1293 = VECTOR ( 'NONE', #51, 39.37007874015748143 ) ;
#1294 = VERTEX_POINT ( 'NONE', #750 ) ;
#1295 = CIRCLE ( 'NONE', #1356, 0.05999999999999881123 ) ;
#1296 = CARTESIAN_POINT ( 'NONE',  ( 3.674999999999998490, 2.734999999999999432, 0.000000000000000000 ) ) ;
#1297 = AXIS2_PLACEMENT_3D ( 'NONE', #369, #1115, #376 ) ;
#1298 = DIRECTION ( 'NONE',  ( -0.000000000000000000, -0.000000000000000000, 1.000000000000000000 ) ) ;
#1299 = ORIENTED_EDGE ( 'NONE', *, *, #202, .T. ) ;
#1300 = ORIENTED_EDGE ( 'NONE', *, *, #1308, .T. ) ;
#1301 = DIRECTION ( 'NONE',  ( -1.000000000000000000, 0.000000000000000000, 3.841661241090410839E-15 ) ) ;
#1302 = CARTESIAN_POINT ( 'NONE',  ( -8.365000000000001990, 7.500000000000002665, -0.6300000000000000044 ) ) ;
#1303 = EDGE_CURVE ( 'NONE', #52, #87, #941, .T. ) ;
#1304 = EDGE_CURVE ( 'NONE', #277, #286, #755, .T. ) ;
#1305 = CARTESIAN_POINT ( 'NONE',  ( 8.269999999999999574, 0.000000000000000000, 0.000000000000000000 ) ) ;
#1306 = ORIENTED_EDGE ( 'NONE', *, *, #49, .F. ) ;
#1307 = VERTEX_POINT ( 'NONE', #1069 ) ;
#1308 = EDGE_CURVE ( 'NONE', #1352, #1170, #140, .T. ) ;
#1309 = DIRECTION ( 'NONE',  ( -0.000000000000000000, -0.000000000000000000, 1.000000000000000000 ) ) ;
#1310 = EDGE_LOOP ( 'NONE', ( #278, #466, #526, #994 ) ) ;
#1311 = DIRECTION ( 'NONE',  ( 0.000000000000000000, 0.000000000000000000, -1.000000000000000000 ) ) ;
#1312 = EDGE_LOOP ( 'NONE', ( #93, #48, #134, #325 ) ) ;
#1313 = VECTOR ( 'NONE', #1102, 39.37007874015748143 ) ;
#1314 = CARTESIAN_POINT ( 'NONE',  ( -8.365000000000000213, -7.440000000000000391, 2.875629467015013134E-14 ) ) ;
#1315 = VECTOR ( 'NONE', #162, 39.37007874015748143 ) ;
#1316 = ORIENTED_EDGE ( 'NONE', *, *, #102, .F. ) ;
#1317 = CIRCLE ( 'NONE', #1141, 0.1139999999999999347 ) ;
#1318 = DIRECTION ( 'NONE',  ( 0.000000000000000000, 0.000000000000000000, -1.000000000000000000 ) ) ;
#1319 = ADVANCED_FACE ( 'NONE', ( #657 ), #1077, .F. ) ;
#1320 = EDGE_CURVE ( 'NONE', #1270, #1207, #1291, .T. ) ;
#1321 = EDGE_LOOP ( 'NONE', ( #873, #553 ) ) ;
#1322 = UNCERTAINTY_MEASURE_WITH_UNIT (LENGTH_MEASURE( 1.000000000000000082E-05 ), #441, 'distance_accuracy_value', 'NONE');
#1323 = EDGE_LOOP ( 'NONE', ( #184, #1253 ) ) ;
#1324 = CARTESIAN_POINT ( 'NONE',  ( -8.485000000000001208, -7.380000000000000782, -0.6300000000000000044 ) ) ;
#1325 = EDGE_CURVE ( 'NONE', #757, #1294, #964, .T. ) ;
#1326 = ORIENTED_EDGE ( 'NONE', *, *, #364, .T. ) ;
#1327 = ORIENTED_EDGE ( 'NONE', *, *, #122, .T. ) ;
#1328 = CARTESIAN_POINT ( 'NONE',  ( 8.174999999999998934, 0.000000000000000000, 0.000000000000000000 ) ) ;
#1329 = DIRECTION ( 'NONE',  ( -0.000000000000000000, -3.834172622686683600E-15, 1.000000000000000000 ) ) ;
#1330 = CARTESIAN_POINT ( 'NONE',  ( 8.484999999999999432, -7.380000000000000782, -0.05999999999999999778 ) ) ;
#1331 = DIRECTION ( 'NONE',  ( 1.000000000000000000, 1.480676419330223846E-16, 0.000000000000000000 ) ) ;
#1332 = EDGE_LOOP ( 'NONE', ( #1130, #1219, #902, #691 ) ) ;
#1333 = ORIENTED_EDGE ( 'NONE', *, *, #1165, .T. ) ;
#1334 = VECTOR ( 'NONE', #183, 39.37007874015748143 ) ;
#1335 = CARTESIAN_POINT ( 'NONE',  ( 8.079999999999998295, 1.163414459189982046E-17, 0.000000000000000000 ) ) ;
#1336 = DIRECTION ( 'NONE',  ( 0.000000000000000000, 0.000000000000000000, -1.000000000000000000 ) ) ;
#1337 = ORIENTED_EDGE ( 'NONE', *, *, #883, .F. ) ;
#1338 = ORIENTED_EDGE ( 'NONE', *, *, #776, .T. ) ;
#1339 = AXIS2_PLACEMENT_3D ( 'NONE', #317, #2, #704 ) ;
#1340 = CARTESIAN_POINT ( 'NONE',  ( 8.484999999999999432, 7.440000000000000391, -0.1199999999999998151 ) ) ;
#1341 = ORIENTED_EDGE ( 'NONE', *, *, #59, .T. ) ;
#1342 = VECTOR ( 'NONE', #1142, 39.37007874015748143 ) ;
#1343 = CARTESIAN_POINT ( 'NONE',  ( 8.269999999999999574, -6.000000000000000888, -0.6300000000000002265 ) ) ;
#1344 = EDGE_CURVE ( 'NONE', #917, #852, #643, .T. ) ;
#1345 = FACE_OUTER_BOUND ( 'NONE', #295, .T. ) ;
#1346 = CARTESIAN_POINT ( 'NONE',  ( 8.079999999999998295, 6.000000000000000888, 0.000000000000000000 ) ) ;
#1347 = ORIENTED_EDGE ( 'NONE', *, *, #583, .T. ) ;
#1348 = DIRECTION ( 'NONE',  ( -0.000000000000000000, -0.000000000000000000, 1.000000000000000000 ) ) ;
#1349 = CARTESIAN_POINT ( 'NONE',  ( -8.425000000000000711, 7.379999999999998117, -0.1200000000000009115 ) ) ;
#1350 = LINE ( 'NONE', #731, #673 ) ;
#1351 = CARTESIAN_POINT ( 'NONE',  ( 8.484999999999999432, -7.500000000000002665, -0.6300000000000000044 ) ) ;
#1352 = VERTEX_POINT ( 'NONE', #224 ) ;
#1353 = DIRECTION ( 'NONE',  ( -0.000000000000000000, 1.000000000000000000, -1.422837496700139435E-16 ) ) ;
#1354 = AXIS2_PLACEMENT_3D ( 'NONE', #1057, #1157, #305 ) ;
#1355 = DIRECTION ( 'NONE',  ( -1.480676419330223846E-16, 1.000000000000000000, 8.758115402030108638E-47 ) ) ;
#1356 = AXIS2_PLACEMENT_3D ( 'NONE', #389, #293, #475 ) ;
#1357 = MANIFOLD_SOLID_BREP ( 'Cortar-Extruir2', #564 ) ;
#1358 = CIRCLE ( 'NONE', #349, 0.1139999999999999347 ) ;
#1359 = EDGE_CURVE ( 'NONE', #157, #706, #448, .T. ) ;
#1360 = VECTOR ( 'NONE', #1176, 39.37007874015748143 ) ;
#1361 = ORIENTED_EDGE ( 'NONE', *, *, #425, .F. ) ;
ENDSEC;
END-ISO-10303-21;
