ISO-10303-21;
HEADER;
FILE_DESCRIPTION (( 'STEP AP214' ),
    '1' );
FILE_NAME ('16-6047-01-(12gacr ANSI-61) - K56 - V9-R0.STEP',
    '2026-07-09T22:29:18',
    ( '' ),
    ( '' ),
    'SwSTEP 2.0',
    'SolidWorks 2024',
    '' );
FILE_SCHEMA (( 'AUTOMOTIVE_DESIGN' ));
ENDSEC;

DATA;
#1 = FACE_BOUND ( 'NONE', #419, .T. ) ;
#2 = LINE ( 'NONE', #453, #336 ) ;
#3 = EDGE_CURVE ( 'NONE', #311, #99, #912, .T. ) ;
#4 = DIRECTION ( 'NONE',  ( 0.000000000000000000, 8.130499981143642996E-17, -1.000000000000000000 ) ) ;
#5 = AXIS2_PLACEMENT_3D ( 'NONE', #299, #825, #152 ) ;
#6 = ORIENTED_EDGE ( 'NONE', *, *, #3, .F. ) ;
#7 = FACE_OUTER_BOUND ( 'NONE', #812, .T. ) ;
#8 = ORIENTED_EDGE ( 'NONE', *, *, #374, .F. ) ;
#9 = FACE_OUTER_BOUND ( 'NONE', #818, .T. ) ;
#10 = ORIENTED_EDGE ( 'NONE', *, *, #826, .F. ) ;
#11 = EDGE_CURVE ( 'NONE', #954, #919, #724, .T. ) ;
#12 = DIRECTION ( 'NONE',  ( 1.000000000000000000, 0.000000000000000000, 0.000000000000000000 ) ) ;
#13 = VERTEX_POINT ( 'NONE', #198 ) ;
#14 = FILL_AREA_STYLE_COLOUR ( '', #260 ) ;
#15 = EDGE_LOOP ( 'NONE', ( #167, #248 ) ) ;
#16 = ORIENTED_EDGE ( 'NONE', *, *, #41, .F. ) ;
#17 = CARTESIAN_POINT ( 'NONE',  ( 1.229999999999999316, 14.49999999999999822, 0.1050000000000015227 ) ) ;
#18 = EDGE_CURVE ( 'NONE', #282, #623, #942, .T. ) ;
#19 = AXIS2_PLACEMENT_3D ( 'NONE', #352, #581, #873 ) ;
#20 = ORIENTED_EDGE ( 'NONE', *, *, #254, .F. ) ;
#21 = CARTESIAN_POINT ( 'NONE',  ( 0.7800000000000004707, -13.97000000000000242, -0.1050000000000007733 ) ) ;
#22 = EDGE_LOOP ( 'NONE', ( #915, #754, #905, #253 ) ) ;
#23 = VECTOR ( 'NONE', #341, 39.37007874015748143 ) ;
#24 = DIRECTION ( 'NONE',  ( -1.000000000000000000, 0.000000000000000000, -0.000000000000000000 ) ) ;
#25 = DIRECTION ( 'NONE',  ( 1.000000000000000000, 0.000000000000000000, 0.000000000000000000 ) ) ;
#26 = ORIENTED_EDGE ( 'NONE', *, *, #177, .T. ) ;
#27 = VERTEX_POINT ( 'NONE', #810 ) ;
#28 = VERTEX_POINT ( 'NONE', #362 ) ;
#29 = EDGE_CURVE ( 'NONE', #166, #572, #388, .T. ) ;
#30 = DIRECTION ( 'NONE',  ( -0.000000000000000000, -0.000000000000000000, 1.000000000000000000 ) ) ;
#31 = ORIENTED_EDGE ( 'NONE', *, *, #580, .T. ) ;
#32 = EDGE_LOOP ( 'NONE', ( #123, #469, #262, #153 ) ) ;
#33 = VECTOR ( 'NONE', #738, 39.37007874015748143 ) ;
#34 = CARTESIAN_POINT ( 'NONE',  ( 1.334999999999999298, -14.50000000000000355, 0.1049999999999988165 ) ) ;
#35 = CARTESIAN_POINT ( 'NONE',  ( 0.7800000000000004707, -14.15000000000000213, -0.1050000000000007733 ) ) ;
#36 = AXIS2_PLACEMENT_3D ( 'NONE', #216, #309, #899 ) ;
#37 = DIRECTION ( 'NONE',  ( -0.000000000000000000, -0.000000000000000000, 1.000000000000000000 ) ) ;
#38 = EDGE_CURVE ( 'NONE', #720, #583, #207, .T. ) ;
#39 = DIRECTION ( 'NONE',  ( -0.000000000000000000, -1.000000000000000000, -0.000000000000000000 ) ) ;
#40 = CARTESIAN_POINT ( 'NONE',  ( 1.439999999999999503, -14.50000000000000355, 0.1049999999999984418 ) ) ;
#41 = EDGE_CURVE ( 'NONE', #698, #776, #119, .T. ) ;
#42 = DIRECTION ( 'NONE',  ( -0.000000000000000000, -0.000000000000000000, 1.000000000000000000 ) ) ;
#43 = CIRCLE ( 'NONE', #345, 0.1599999999999999201 ) ;
#44 = LINE ( 'NONE', #357, #542 ) ;
#45 = AXIS2_PLACEMENT_3D ( 'NONE', #431, #506, #646 ) ;
#46 = ADVANCED_FACE ( 'NONE', ( #634 ), #257, .F. ) ;
#47 = AXIS2_PLACEMENT_3D ( 'NONE', #191, #344, #498 ) ;
#48 = LINE ( 'NONE', #122, #489 ) ;
#49 = VECTOR ( 'NONE', #928, 39.37007874015748143 ) ;
#50 = CARTESIAN_POINT ( 'NONE',  ( 1.440000000000000391, 14.49999999999999822, 0.3950000000000000178 ) ) ;
#51 = EDGE_CURVE ( 'NONE', #623, #776, #346, .T. ) ;
#52 = CARTESIAN_POINT ( 'NONE',  ( 0.6200000000000004396, 14.14999999999999858, -0.1050000000000007733 ) ) ;
#53 = EDGE_LOOP ( 'NONE', ( #822, #20, #16, #492 ) ) ;
#54 = CARTESIAN_POINT ( 'NONE',  ( -1.100000000000000755, 0.3799999999999997824, -0.1050000000000007733 ) ) ;
#55 = EDGE_LOOP ( 'NONE', ( #752, #902, #298, #844 ) ) ;
#56 = CARTESIAN_POINT ( 'NONE',  ( 1.229999999999999316, -14.50000000000000355, 0.1049999999999991634 ) ) ;
#57 = CARTESIAN_POINT ( 'NONE',  ( 0.6200000000000004396, 13.96999999999999709, -0.1050000000000007733 ) ) ;
#58 = CARTESIAN_POINT ( 'NONE',  ( -0.9860000000000007647, 10.49999999999999822, -0.1050000000000007733 ) ) ;
#59 = ORIENTED_EDGE ( 'NONE', *, *, #610, .T. ) ;
#60 = CARTESIAN_POINT ( 'NONE',  ( -1.214000000000000634, 0.3799999999999997824, -0.1050000000000007733 ) ) ;
#61 = EDGE_LOOP ( 'NONE', ( #379, #824, #26, #512 ) ) ;
#62 = CARTESIAN_POINT ( 'NONE',  ( -1.100000000000000755, 0.3799999999999997824, -0.1050000000000007733 ) ) ;
#63 = UNCERTAINTY_MEASURE_WITH_UNIT (LENGTH_MEASURE( 1.000000000000000082E-05 ), #151, 'distance_accuracy_value', 'NONE');
#64 = CARTESIAN_POINT ( 'NONE',  ( -1.100000000000000755, -0.3800000000000041678, -0.1050000000000007733 ) ) ;
#65 = EDGE_LOOP ( 'NONE', ( #171, #927, #672, #86 ) ) ;
#66 = CIRCLE ( 'NONE', #952, 0.1599999999999999201 ) ;
#67 = DIRECTION ( 'NONE',  ( 0.000000000000000000, 0.000000000000000000, 1.000000000000000000 ) ) ;
#68 = EDGE_CURVE ( 'NONE', #27, #399, #349, .T. ) ;
#69 = ORIENTED_EDGE ( 'NONE', *, *, #800, .F. ) ;
#70 = LINE ( 'NONE', #96, #702 ) ;
#71 = DIRECTION ( 'NONE',  ( 3.458035435018052011E-15, 0.000000000000000000, 1.000000000000000000 ) ) ;
#72 = AXIS2_PLACEMENT_3D ( 'NONE', #421, #923, #283 ) ;
#73 = ORIENTED_EDGE ( 'NONE', *, *, #643, .T. ) ;
#74 = SHAPE_DEFINITION_REPRESENTATION ( #632, #450 ) ;
#75 = CYLINDRICAL_SURFACE ( 'NONE', #499, 0.1139999999999999347 ) ;
#76 = ORIENTED_EDGE ( 'NONE', *, *, #41, .T. ) ;
#77 = CARTESIAN_POINT ( 'NONE',  ( 1.229999999999999316, -14.50000000000000355, 0.1049999999999991634 ) ) ;
#78 = PRODUCT_DEFINITION_CONTEXT ( 'detailed design', #692, 'design' ) ;
#79 = CARTESIAN_POINT ( 'NONE',  ( -1.100000000000000755, 0.3799999999999997824, 0.000000000000000000 ) ) ;
#80 = LINE ( 'NONE', #535, #33 ) ;
#81 = ORIENTED_EDGE ( 'NONE', *, *, #643, .F. ) ;
#82 = DIRECTION ( 'NONE',  ( 0.000000000000000000, 0.000000000000000000, 1.000000000000000000 ) ) ;
#83 = ORIENTED_EDGE ( 'NONE', *, *, #680, .F. ) ;
#84 = CARTESIAN_POINT ( 'NONE',  ( 1.335000000000000409, 0.000000000000000000, 0.3950000000000003508 ) ) ;
#85 = ADVANCED_FACE ( 'NONE', ( #291 ), #444, .F. ) ;
#86 = ORIENTED_EDGE ( 'NONE', *, *, #121, .F. ) ;
#87 = CARTESIAN_POINT ( 'NONE',  ( -1.100000000000000755, 10.49999999999999822, 0.000000000000000000 ) ) ;
#88 = VERTEX_POINT ( 'NONE', #534 ) ;
#89 = VECTOR ( 'NONE', #144, 39.37007874015748143 ) ;
#90 = CARTESIAN_POINT ( 'NONE',  ( 1.229999999999999316, 14.49999999999999822, -0.1049999999999984140 ) ) ;
#91 = VERTEX_POINT ( 'NONE', #281 ) ;
#92 = DIRECTION ( 'NONE',  ( -1.000000000000000000, 0.000000000000000000, 3.491481338843132961E-15 ) ) ;
#93 = VECTOR ( 'NONE', #804, 39.37007874015748143 ) ;
#94 = DIRECTION ( 'NONE',  ( 0.000000000000000000, 8.130499981143642996E-17, -1.000000000000000000 ) ) ;
#95 = FILL_AREA_STYLE ('',( #14 ) ) ;
#96 = CARTESIAN_POINT ( 'NONE',  ( 1.440000000000000391, -14.50000000000000355, 0.3950000000000000178 ) ) ;
#97 = EDGE_LOOP ( 'NONE', ( #6, #107, #412, #432 ) ) ;
#98 = DIRECTION ( 'NONE',  ( 0.000000000000000000, 0.000000000000000000, 1.000000000000000000 ) ) ;
#99 = VERTEX_POINT ( 'NONE', #679 ) ;
#100 = EDGE_LOOP ( 'NONE', ( #394, #553, #134, #959 ) ) ;
#101 = CIRCLE ( 'NONE', #47, 0.1139999999999999347 ) ;
#102 = LINE ( 'NONE', #417, #325 ) ;
#103 = CIRCLE ( 'NONE', #726, 0.1599999999999999201 ) ;
#104 = VECTOR ( 'NONE', #39, 39.37007874015748143 ) ;
#105 = VECTOR ( 'NONE', #685, 39.37007874015748143 ) ;
#106 = CARTESIAN_POINT ( 'NONE',  ( 1.439999999999999059, 14.49999999999999822, -3.666055405785289629E-16 ) ) ;
#107 = ORIENTED_EDGE ( 'NONE', *, *, #146, .T. ) ;
#108 = ORIENTED_EDGE ( 'NONE', *, *, #51, .F. ) ;
#109 = PLANE ( 'NONE',  #461 ) ;
#110 = EDGE_CURVE ( 'NONE', #397, #599, #618, .T. ) ;
#111 = CARTESIAN_POINT ( 'NONE',  ( 0.7800000000000004707, 14.14999999999999858, -0.1050000000000007733 ) ) ;
#112 = CARTESIAN_POINT ( 'NONE',  ( 1.335000000000000409, 14.49999999999999822, 0.3950000000000003508 ) ) ;
#113 = CYLINDRICAL_SURFACE ( 'NONE', #303, 0.1139999999999999347 ) ;
#114 = FACE_OUTER_BOUND ( 'NONE', #922, .T. ) ;
#115 = AXIS2_PLACEMENT_3D ( 'NONE', #339, #903, #768 ) ;
#116 = DIRECTION ( 'NONE',  ( -0.000000000000000000, -1.000000000000000000, -8.130499981143642996E-17 ) ) ;
#117 = ORIENTED_EDGE ( 'NONE', *, *, #920, .T. ) ;
#118 = EDGE_CURVE ( 'NONE', #720, #458, #582, .T. ) ;
#119 = LINE ( 'NONE', #708, #835 ) ;
#120 = FACE_OUTER_BOUND ( 'NONE', #55, .T. ) ;
#121 = EDGE_CURVE ( 'NONE', #703, #390, #43, .T. ) ;
#122 = CARTESIAN_POINT ( 'NONE',  ( 1.229999999999999316, 14.49999999999999822, -0.1049999999999984140 ) ) ;
#123 = ORIENTED_EDGE ( 'NONE', *, *, #531, .T. ) ;
#124 = VECTOR ( 'NONE', #4, 39.37007874015748143 ) ;
#125 = ADVANCED_FACE ( 'NONE', ( #287 ), #220, .T. ) ;
#126 = LINE ( 'NONE', #57, #788 ) ;
#127 = CIRCLE ( 'NONE', #243, 0.1139999999999999347 ) ;
#128 = PLANE ( 'NONE',  #490 ) ;
#129 = ORIENTED_EDGE ( 'NONE', *, *, #436, .T. ) ;
#130 = DIRECTION ( 'NONE',  ( 0.000000000000000000, -1.000000000000000000, 0.000000000000000000 ) ) ;
#131 = VECTOR ( 'NONE', #466, 39.37007874015748143 ) ;
#132 = FACE_OUTER_BOUND ( 'NONE', #61, .T. ) ;
#133 = CARTESIAN_POINT ( 'NONE',  ( 1.229999999999999316, -14.50000000000000355, -8.024803481388773574E-16 ) ) ;
#134 = ORIENTED_EDGE ( 'NONE', *, *, #531, .F. ) ;
#135 = PLANE ( 'NONE',  #665 ) ;
#136 = DIRECTION ( 'NONE',  ( 0.000000000000000000, 0.000000000000000000, 1.000000000000000000 ) ) ;
#137 = LINE ( 'NONE', #147, #190 ) ;
#138 = EDGE_CURVE ( 'NONE', #919, #676, #376, .T. ) ;
#139 = LINE ( 'NONE', #958, #420 ) ;
#140 = EDGE_LOOP ( 'NONE', ( #763, #31, #440, #594 ) ) ;
#141 = ORIENTED_EDGE ( 'NONE', *, *, #138, .T. ) ;
#142 = CIRCLE ( 'NONE', #742, 0.1599999999999999201 ) ;
#143 = APPLICATION_PROTOCOL_DEFINITION ( 'draft international standard', 'automotive_design', 1998, #692 ) ;
#144 = DIRECTION ( 'NONE',  ( -0.000000000000000000, -0.000000000000000000, 1.000000000000000000 ) ) ;
#145 = DIMENSIONAL_EXPONENTS ( 1.000000000000000000, 0.000000000000000000, 0.000000000000000000, 0.000000000000000000, 0.000000000000000000, 0.000000000000000000, 0.000000000000000000 ) ;
#146 = EDGE_CURVE ( 'NONE', #311, #878, #889, .T. ) ;
#147 = CARTESIAN_POINT ( 'NONE',  ( 0.9400000000000003908, -13.97000000000000242, -0.1050000000000007733 ) ) ;
#148 = CARTESIAN_POINT ( 'NONE',  ( -1.440000000000000835, -14.50000000000000355, -0.1049999999999999961 ) ) ;
#149 = AXIS2_PLACEMENT_3D ( 'NONE', #340, #566, #712 ) ;
#150 = ORIENTED_EDGE ( 'NONE', *, *, #473, .F. ) ;
#151 =( CONVERSION_BASED_UNIT ( 'INCH', #621 ) LENGTH_UNIT ( ) NAMED_UNIT ( #156 ) );
#152 = DIRECTION ( 'NONE',  ( 1.000000000000000000, 0.000000000000000000, -3.496114991891763999E-15 ) ) ;
#153 = ORIENTED_EDGE ( 'NONE', *, *, #570, .T. ) ;
#154 = EDGE_CURVE ( 'NONE', #609, #878, #947, .T. ) ;
#155 = CARTESIAN_POINT ( 'NONE',  ( 0.6200000000000004396, -13.97000000000000242, 0.000000000000000000 ) ) ;
#156 = DIMENSIONAL_EXPONENTS ( 1.000000000000000000, 0.000000000000000000, 0.000000000000000000, 0.000000000000000000, 0.000000000000000000, 0.000000000000000000, 0.000000000000000000 ) ;
#157 = DIRECTION ( 'NONE',  ( -0.000000000000000000, 1.000000000000000000, 0.000000000000000000 ) ) ;
#158 = ORIENTED_EDGE ( 'NONE', *, *, #620, .T. ) ;
#159 = CIRCLE ( 'NONE', #279, 0.1139999999999999347 ) ;
#160 = FACE_OUTER_BOUND ( 'NONE', #846, .T. ) ;
#161 = DIRECTION ( 'NONE',  ( 0.000000000000000000, 0.000000000000000000, 1.000000000000000000 ) ) ;
#162 = EDGE_CURVE ( 'NONE', #919, #965, #2, .T. ) ;
#163 = ORIENTED_EDGE ( 'NONE', *, *, #201, .T. ) ;
#164 = VECTOR ( 'NONE', #626, 39.37007874015748143 ) ;
#165 = DIRECTION ( 'NONE',  ( 0.000000000000000000, 0.000000000000000000, 1.000000000000000000 ) ) ;
#166 = VERTEX_POINT ( 'NONE', #133 ) ;
#167 = ORIENTED_EDGE ( 'NONE', *, *, #245, .T. ) ;
#168 = CARTESIAN_POINT ( 'NONE',  ( 0.9400000000000003908, -14.15000000000000213, 0.000000000000000000 ) ) ;
#169 = EDGE_LOOP ( 'NONE', ( #392, #479, #8, #308 ) ) ;
#170 =( LENGTH_UNIT ( ) NAMED_UNIT ( * ) SI_UNIT ( $, .METRE. ) );
#171 = ORIENTED_EDGE ( 'NONE', *, *, #360, .F. ) ;
#172 = CIRCLE ( 'NONE', #917, 0.2099999999999999367 ) ;
#173 = DIRECTION ( 'NONE',  ( 0.000000000000000000, 1.000000000000000000, 0.000000000000000000 ) ) ;
#174 = ORIENTED_EDGE ( 'NONE', *, *, #18, .F. ) ;
#175 = DIRECTION ( 'NONE',  ( 1.000000000000000000, 0.000000000000000000, 0.000000000000000000 ) ) ;
#176 = VERTEX_POINT ( 'NONE', #674 ) ;
#177 = EDGE_CURVE ( 'NONE', #965, #689, #881, .T. ) ;
#178 = DIRECTION ( 'NONE',  ( 0.000000000000000000, 0.000000000000000000, -1.000000000000000000 ) ) ;
#179 = EDGE_LOOP ( 'NONE', ( #83, #904, #481, #277 ) ) ;
#180 = DIRECTION ( 'NONE',  ( 0.000000000000000000, 0.000000000000000000, 1.000000000000000000 ) ) ;
#181 = CIRCLE ( 'NONE', #586, 0.1139999999999999347 ) ;
#182 = DIRECTION ( 'NONE',  ( 1.000000000000000000, 0.000000000000000000, 0.000000000000000000 ) ) ;
#183 =( NAMED_UNIT ( * ) PLANE_ANGLE_UNIT ( ) SI_UNIT ( $, .RADIAN. ) );
#184 = CARTESIAN_POINT ( 'NONE',  ( 0.9400000000000003908, 14.14999999999999858, 0.000000000000000000 ) ) ;
#185 = FACE_OUTER_BOUND ( 'NONE', #322, .T. ) ;
#186 = ADVANCED_FACE ( 'NONE', ( #897 ), #301, .T. ) ;
#187 = DIRECTION ( 'NONE',  ( 0.000000000000000000, 0.000000000000000000, -1.000000000000000000 ) ) ;
#188 = VECTOR ( 'NONE', #157, 39.37007874015748143 ) ;
#189 = DIRECTION ( 'NONE',  ( 0.000000000000000000, 0.000000000000000000, 1.000000000000000000 ) ) ;
#190 = VECTOR ( 'NONE', #946, 39.37007874015748143 ) ;
#191 = CARTESIAN_POINT ( 'NONE',  ( -1.100000000000000755, 10.49999999999999822, -0.1050000000000007733 ) ) ;
#192 = DIRECTION ( 'NONE',  ( -0.000000000000000000, -0.000000000000000000, 1.000000000000000000 ) ) ;
#193 = AXIS2_PLACEMENT_3D ( 'NONE', #565, #642, #276 ) ;
#194 = AXIS2_PLACEMENT_3D ( 'NONE', #213, #516, #668 ) ;
#195 = LINE ( 'NONE', #52, #939 ) ;
#196 = EDGE_CURVE ( 'NONE', #399, #27, #868, .T. ) ;
#197 = VECTOR ( 'NONE', #189, 39.37007874015748143 ) ;
#198 = CARTESIAN_POINT ( 'NONE',  ( -1.440000000000000835, -14.50000000000000355, 0.000000000000000000 ) ) ;
#199 = PLANE ( 'NONE',  #45 ) ;
#200 = ORIENTED_EDGE ( 'NONE', *, *, #636, .F. ) ;
#201 = EDGE_CURVE ( 'NONE', #465, #894, #80, .T. ) ;
#202 = FACE_BOUND ( 'NONE', #545, .T. ) ;
#203 = CYLINDRICAL_SURFACE ( 'NONE', #725, 0.1049999999999999684 ) ;
#204 = ORIENTED_EDGE ( 'NONE', *, *, #38, .T. ) ;
#205 = LINE ( 'NONE', #410, #93 ) ;
#206 = DIRECTION ( 'NONE',  ( 1.000000000000000000, 0.000000000000000000, 0.000000000000000000 ) ) ;
#207 = CIRCLE ( 'NONE', #386, 0.1139999999999999347 ) ;
#208 = CYLINDRICAL_SURFACE ( 'NONE', #721, 0.1139999999999999347 ) ;
#209 = CIRCLE ( 'NONE', #652, 0.1139999999999999347 ) ;
#210 = DIRECTION ( 'NONE',  ( 0.000000000000000000, 0.000000000000000000, 1.000000000000000000 ) ) ;
#211 = CARTESIAN_POINT ( 'NONE',  ( -1.440000000000000835, 14.49999999999999822, -0.1049999999999999961 ) ) ;
#212 = DIRECTION ( 'NONE',  ( -0.000000000000000000, 1.000000000000000000, -0.000000000000000000 ) ) ;
#213 = CARTESIAN_POINT ( 'NONE',  ( 0.7800000000000004707, -14.15000000000000213, -0.1050000000000007733 ) ) ;
#214 = EDGE_CURVE ( 'NONE', #962, #13, #459, .T. ) ;
#215 = ORIENTED_EDGE ( 'NONE', *, *, #627, .T. ) ;
#216 = CARTESIAN_POINT ( 'NONE',  ( -1.100000000000000755, -10.50000000000000178, -0.1050000000000007733 ) ) ;
#217 = ORIENTED_EDGE ( 'NONE', *, *, #502, .T. ) ;
#218 = ORIENTED_EDGE ( 'NONE', *, *, #473, .T. ) ;
#219 = FACE_BOUND ( 'NONE', #589, .T. ) ;
#220 = PLANE ( 'NONE',  #888 ) ;
#221 = VERTEX_POINT ( 'NONE', #943 ) ;
#222 = EDGE_CURVE ( 'NONE', #697, #815, #126, .T. ) ;
#223 = CARTESIAN_POINT ( 'NONE',  ( 1.334999999999999076, 0.000000000000000000, -4.979571026425991109E-15 ) ) ;
#224 = DIRECTION ( 'NONE',  ( 1.000000000000000000, 0.000000000000000000, 0.000000000000000000 ) ) ;
#225 = ORIENTED_EDGE ( 'NONE', *, *, #554, .F. ) ;
#226 = CIRCLE ( 'NONE', #36, 0.1139999999999999347 ) ;
#227 = DIRECTION ( 'NONE',  ( -1.000000000000000000, -0.000000000000000000, -0.000000000000000000 ) ) ;
#228 = ORIENTED_EDGE ( 'NONE', *, *, #278, .T. ) ;
#229 = EDGE_CURVE ( 'NONE', #405, #359, #290, .T. ) ;
#230 = CARTESIAN_POINT ( 'NONE',  ( -0.9860000000000008757, -10.50000000000000178, -0.1050000000000007733 ) ) ;
#231 = CARTESIAN_POINT ( 'NONE',  ( -1.100000000000000755, 0.3799999999999997824, 0.000000000000000000 ) ) ;
#232 = DIRECTION ( 'NONE',  ( 0.000000000000000000, 0.000000000000000000, 1.000000000000000000 ) ) ;
#233 = ORIENTED_EDGE ( 'NONE', *, *, #570, .F. ) ;
#234 = FACE_BOUND ( 'NONE', #372, .T. ) ;
#235 = ORIENTED_EDGE ( 'NONE', *, *, #196, .F. ) ;
#236 = AXIS2_PLACEMENT_3D ( 'NONE', #593, #807, #817 ) ;
#237 =( CONVERSION_BASED_UNIT ( 'INCH', #635 ) LENGTH_UNIT ( ) NAMED_UNIT ( #145 ) );
#238 = ORIENTED_EDGE ( 'NONE', *, *, #110, .F. ) ;
#239 = DIRECTION ( 'NONE',  ( 0.000000000000000000, -1.000000000000000000, 0.000000000000000000 ) ) ;
#240 = ORIENTED_EDGE ( 'NONE', *, *, #118, .F. ) ;
#241 = PLANE ( 'NONE',  #115 ) ;
#242 = ORIENTED_EDGE ( 'NONE', *, *, #961, .T. ) ;
#243 = AXIS2_PLACEMENT_3D ( 'NONE', #328, #400, #850 ) ;
#244 = CARTESIAN_POINT ( 'NONE',  ( -1.440000000000000835, -14.50000000000000355, -0.1049999999999999961 ) ) ;
#245 = EDGE_CURVE ( 'NONE', #221, #628, #159, .T. ) ;
#246 = ORIENTED_EDGE ( 'NONE', *, *, #467, .F. ) ;
#247 = DIRECTION ( 'NONE',  ( 0.000000000000000000, 1.000000000000000000, 8.130499981143642996E-17 ) ) ;
#248 = ORIENTED_EDGE ( 'NONE', *, *, #749, .T. ) ;
#249 = CARTESIAN_POINT ( 'NONE',  ( 0.9400000000000003908, -14.15000000000000213, 0.000000000000000000 ) ) ;
#250 = EDGE_LOOP ( 'NONE', ( #235, #964 ) ) ;
#251 = EDGE_CURVE ( 'NONE', #166, #954, #44, .T. ) ;
#252 = CARTESIAN_POINT ( 'NONE',  ( 1.439999999999999059, 14.49999999999999822, -3.666055405785289629E-16 ) ) ;
#253 = ORIENTED_EDGE ( 'NONE', *, *, #196, .T. ) ;
#254 = EDGE_CURVE ( 'NONE', #776, #91, #637, .T. ) ;
#255 = ORIENTED_EDGE ( 'NONE', *, *, #51, .T. ) ;
#256 = DIRECTION ( 'NONE',  ( 9.772579826042061982E-32, 1.000000000000000000, 2.826049648618203287E-17 ) ) ;
#257 = CYLINDRICAL_SURFACE ( 'NONE', #861, 0.1139999999999999347 ) ;
#258 = SURFACE_SIDE_STYLE ('',( #839 ) ) ;
#259 = ORIENTED_EDGE ( 'NONE', *, *, #504, .F. ) ;
#260 = COLOUR_RGB ( '',0.7921568627450980005, 0.8196078431372548767, 0.9333333333333333481 ) ;
#261 = ADVANCED_FACE ( 'NONE', ( #202, #219, #527, #275, #960, #295, #429 ), #663, .T. ) ;
#262 = ORIENTED_EDGE ( 'NONE', *, *, #713, .T. ) ;
#263 = DIRECTION ( 'NONE',  ( 0.000000000000000000, 0.000000000000000000, -1.000000000000000000 ) ) ;
#264 =( NAMED_UNIT ( * ) SI_UNIT ( $, .STERADIAN. ) SOLID_ANGLE_UNIT ( ) );
#265 = VECTOR ( 'NONE', #496, 39.37007874015748143 ) ;
#266 = DIRECTION ( 'NONE',  ( 0.000000000000000000, 1.000000000000000000, 8.130499981143642996E-17 ) ) ;
#267 = ADVANCED_FACE ( 'NONE', ( #132 ), #823, .T. ) ;
#268 = DIRECTION ( 'NONE',  ( 1.000000000000000000, 0.000000000000000000, 0.000000000000000000 ) ) ;
#269 = FACE_OUTER_BOUND ( 'NONE', #556, .T. ) ;
#270 = CARTESIAN_POINT ( 'NONE',  ( -1.440000000000000835, 14.49999999999999822, -0.1049999999999999961 ) ) ;
#271 = FACE_OUTER_BOUND ( 'NONE', #585, .T. ) ;
#272 = VECTOR ( 'NONE', #503, 39.37007874015748143 ) ;
#273 = CARTESIAN_POINT ( 'NONE',  ( 0.7800000000000004707, 13.96999999999999709, -0.1050000000000007733 ) ) ;
#274 = DIRECTION ( 'NONE',  ( -0.000000000000000000, -1.000000000000000000, -8.130499981143642996E-17 ) ) ;
#275 = FACE_BOUND ( 'NONE', #900, .T. ) ;
#276 = DIRECTION ( 'NONE',  ( 1.000000000000000000, 0.000000000000000000, 0.000000000000000000 ) ) ;
#277 = ORIENTED_EDGE ( 'NONE', *, *, #423, .F. ) ;
#278 = EDGE_CURVE ( 'NONE', #841, #703, #137, .T. ) ;
#279 = AXIS2_PLACEMENT_3D ( 'NONE', #62, #505, #375 ) ;
#280 = CARTESIAN_POINT ( 'NONE',  ( 0.9400000000000003908, 13.96999999999999709, -0.1050000000000007733 ) ) ;
#281 = CARTESIAN_POINT ( 'NONE',  ( 0.6200000000000004396, 14.14999999999999858, 0.000000000000000000 ) ) ;
#282 = VERTEX_POINT ( 'NONE', #280 ) ;
#283 = DIRECTION ( 'NONE',  ( 1.000000000000000000, 0.000000000000000000, 0.000000000000000000 ) ) ;
#284 = ORIENTED_EDGE ( 'NONE', *, *, #430, .F. ) ;
#285 = CARTESIAN_POINT ( 'NONE',  ( 1.334999999999999076, -14.50000000000000355, -4.979571026425991109E-15 ) ) ;
#286 = VECTOR ( 'NONE', #227, 39.37007874015748143 ) ;
#287 = FACE_OUTER_BOUND ( 'NONE', #711, .T. ) ;
#288 = CARTESIAN_POINT ( 'NONE',  ( -0.9860000000000008757, -0.3800000000000041678, 0.000000000000000000 ) ) ;
#289 = AXIS2_PLACEMENT_3D ( 'NONE', #17, #478, #94 ) ;
#290 = LINE ( 'NONE', #575, #579 ) ;
#291 = FACE_OUTER_BOUND ( 'NONE', #97, .T. ) ;
#292 = ORIENTED_EDGE ( 'NONE', *, *, #214, .F. ) ;
#293 = DIRECTION ( 'NONE',  ( -0.000000000000000000, -1.000000000000000000, -8.130499981143642996E-17 ) ) ;
#294 = EDGE_LOOP ( 'NONE', ( #292, #517, #380, #313 ) ) ;
#295 = FACE_BOUND ( 'NONE', #32, .T. ) ;
#296 = CARTESIAN_POINT ( 'NONE',  ( 1.440000000000000391, 14.49999999999999822, 0.3950000000000000178 ) ) ;
#297 = EDGE_CURVE ( 'NONE', #88, #368, #442, .T. ) ;
#298 = ORIENTED_EDGE ( 'NONE', *, *, #411, .F. ) ;
#299 = CARTESIAN_POINT ( 'NONE',  ( 1.229999999999999316, 14.49999999999999822, 0.1050000000000015227 ) ) ;
#300 = CARTESIAN_POINT ( 'NONE',  ( -0.9860000000000008757, -10.50000000000000178, 0.000000000000000000 ) ) ;
#301 = PLANE ( 'NONE',  #363 ) ;
#302 = AXIS2_PLACEMENT_3D ( 'NONE', #56, #350, #879 ) ;
#303 = AXIS2_PLACEMENT_3D ( 'NONE', #501, #37, #568 ) ;
#304 = ADVANCED_FACE ( 'NONE', ( #816 ), #208, .F. ) ;
#305 = CARTESIAN_POINT ( 'NONE',  ( -1.100000000000000755, -10.50000000000000178, -0.1050000000000007733 ) ) ;
#306 = ORIENTED_EDGE ( 'NONE', *, *, #504, .T. ) ;
#307 = PLANE ( 'NONE',  #289 ) ;
#308 = ORIENTED_EDGE ( 'NONE', *, *, #906, .F. ) ;
#309 = DIRECTION ( 'NONE',  ( 0.000000000000000000, 0.000000000000000000, 1.000000000000000000 ) ) ;
#310 = EDGE_CURVE ( 'NONE', #572, #773, #364, .T. ) ;
#311 = VERTEX_POINT ( 'NONE', #451 ) ;
#312 = DIRECTION ( 'NONE',  ( 0.000000000000000000, 8.130499981143642996E-17, -1.000000000000000000 ) ) ;
#313 = ORIENTED_EDGE ( 'NONE', *, *, #547, .T. ) ;
#314 = VECTOR ( 'NONE', #805, 39.37007874015748143 ) ;
#315 = DIRECTION ( 'NONE',  ( -0.000000000000000000, -0.000000000000000000, 1.000000000000000000 ) ) ;
#316 = AXIS2_PLACEMENT_3D ( 'NONE', #50, #655, #743 ) ;
#317 = ORIENTED_EDGE ( 'NONE', *, *, #620, .F. ) ;
#318 = ADVANCED_FACE ( 'NONE', ( #520 ), #880, .F. ) ;
#319 = LINE ( 'NONE', #244, #941 ) ;
#320 = VERTEX_POINT ( 'NONE', #955 ) ;
#321 = DIRECTION ( 'NONE',  ( 0.000000000000000000, 0.000000000000000000, 1.000000000000000000 ) ) ;
#322 = EDGE_LOOP ( 'NONE', ( #710, #911, #875, #695 ) ) ;
#323 = AXIS2_PLACEMENT_3D ( 'NONE', #858, #651, #187 ) ;
#324 = CARTESIAN_POINT ( 'NONE',  ( -0.9860000000000007647, 0.3799999999999997824, 0.000000000000000000 ) ) ;
#325 = VECTOR ( 'NONE', #130, 39.37007874015748143 ) ;
#326 = EDGE_CURVE ( 'NONE', #965, #773, #70, .T. ) ;
#327 = ORIENTED_EDGE ( 'NONE', *, *, #110, .T. ) ;
#328 = CARTESIAN_POINT ( 'NONE',  ( -1.100000000000000755, -0.3800000000000041678, 0.000000000000000000 ) ) ;
#329 = AXIS2_PLACEMENT_3D ( 'NONE', #35, #633, #493 ) ;
#330 = ORIENTED_EDGE ( 'NONE', *, *, #374, .T. ) ;
#331 = ORIENTED_EDGE ( 'NONE', *, *, #826, .T. ) ;
#332 = LINE ( 'NONE', #706, #343 ) ;
#333 = CARTESIAN_POINT ( 'NONE',  ( -1.100000000000000755, 10.49999999999999822, -0.1050000000000007733 ) ) ;
#334 = ADVANCED_FACE ( 'NONE', ( #766 ), #403, .T. ) ;
#335 = ORIENTED_EDGE ( 'NONE', *, *, #38, .F. ) ;
#336 = VECTOR ( 'NONE', #71, 39.37007874015748143 ) ;
#337 = ORIENTED_EDGE ( 'NONE', *, *, #699, .F. ) ;
#338 = DIRECTION ( 'NONE',  ( -0.000000000000000000, -0.000000000000000000, 1.000000000000000000 ) ) ;
#339 = CARTESIAN_POINT ( 'NONE',  ( 0.6200000000000004396, -14.15000000000000213, -0.1050000000000007733 ) ) ;
#340 = CARTESIAN_POINT ( 'NONE',  ( -1.100000000000000755, -10.50000000000000178, 0.000000000000000000 ) ) ;
#341 = DIRECTION ( 'NONE',  ( -0.000000000000000000, -0.000000000000000000, 1.000000000000000000 ) ) ;
#342 = DIRECTION ( 'NONE',  ( 1.000000000000000000, 0.000000000000000000, 0.000000000000000000 ) ) ;
#343 = VECTOR ( 'NONE', #268, 39.37007874015748143 ) ;
#344 = DIRECTION ( 'NONE',  ( 0.000000000000000000, 0.000000000000000000, 1.000000000000000000 ) ) ;
#345 = AXIS2_PLACEMENT_3D ( 'NONE', #669, #956, #744 ) ;
#346 = LINE ( 'NONE', #649, #852 ) ;
#347 = ADVANCED_FACE ( 'NONE', ( #907, #1, #611, #832, #234, #848, #772 ), #700, .F. ) ;
#348 = CARTESIAN_POINT ( 'NONE',  ( 1.229999999999999538, -14.50000000000000355, -0.1049999999999999961 ) ) ;
#349 = CIRCLE ( 'NONE', #890, 0.1139999999999999347 ) ;
#350 = DIRECTION ( 'NONE',  ( -0.000000000000000000, -1.000000000000000000, -8.130499981143642996E-17 ) ) ;
#351 = CIRCLE ( 'NONE', #528, 0.1049999999999999961 ) ;
#352 = CARTESIAN_POINT ( 'NONE',  ( 0.7800000000000004707, -14.15000000000000213, 0.000000000000000000 ) ) ;
#353 = DIRECTION ( 'NONE',  ( 1.000000000000000000, 0.000000000000000000, -3.414809992080330305E-15 ) ) ;
#354 = ADVANCED_FACE ( 'NONE', ( #619 ), #914, .T. ) ;
#355 = VECTOR ( 'NONE', #644, 39.37007874015748143 ) ;
#356 = CARTESIAN_POINT ( 'NONE',  ( 0.9400000000000003908, 14.14999999999999858, -0.1050000000000007733 ) ) ;
#357 = CARTESIAN_POINT ( 'NONE',  ( 1.229999999999999316, -14.50000000000000355, -8.024803481388773574E-16 ) ) ;
#358 = DIRECTION ( 'NONE',  ( -0.000000000000000000, -0.000000000000000000, 1.000000000000000000 ) ) ;
#359 = VERTEX_POINT ( 'NONE', #551 ) ;
#360 = EDGE_CURVE ( 'NONE', #368, #703, #546, .T. ) ;
#361 = FACE_OUTER_BOUND ( 'NONE', #757, .T. ) ;
#362 = CARTESIAN_POINT ( 'NONE',  ( -0.9860000000000008757, -10.50000000000000178, -0.1050000000000007733 ) ) ;
#363 = AXIS2_PLACEMENT_3D ( 'NONE', #468, #606, #598 ) ;
#364 = LINE ( 'NONE', #285, #774 ) ;
#365 = DIRECTION ( 'NONE',  ( -0.000000000000000000, -0.000000000000000000, 1.000000000000000000 ) ) ;
#366 = ORIENTED_EDGE ( 'NONE', *, *, #573, .F. ) ;
#367 = CARTESIAN_POINT ( 'NONE',  ( 0.6200000000000004396, 13.96999999999999709, -0.1049999999999999961 ) ) ;
#368 = VERTEX_POINT ( 'NONE', #168 ) ;
#369 = DIRECTION ( 'NONE',  ( -1.000000000000000000, 0.000000000000000000, -0.000000000000000000 ) ) ;
#370 = AXIS2_PLACEMENT_3D ( 'NONE', #782, #321, #175 ) ;
#371 = CARTESIAN_POINT ( 'NONE',  ( -1.100000000000000755, -10.50000000000000178, 0.000000000000000000 ) ) ;
#372 = EDGE_LOOP ( 'NONE', ( #238, #225 ) ) ;
#373 = LINE ( 'NONE', #391, #286 ) ;
#374 = EDGE_CURVE ( 'NONE', #891, #954, #319, .T. ) ;
#375 = DIRECTION ( 'NONE',  ( 1.000000000000000000, 0.000000000000000000, 0.000000000000000000 ) ) ;
#376 = LINE ( 'NONE', #588, #755 ) ;
#377 = ORIENTED_EDGE ( 'NONE', *, *, #154, .F. ) ;
#378 = DIRECTION ( 'NONE',  ( -0.000000000000000000, -0.000000000000000000, 1.000000000000000000 ) ) ;
#379 = ORIENTED_EDGE ( 'NONE', *, *, #436, .F. ) ;
#380 = ORIENTED_EDGE ( 'NONE', *, *, #906, .T. ) ;
#381 = CARTESIAN_POINT ( 'NONE',  ( 0.000000000000000000, 0.000000000000000000, 0.000000000000000000 ) ) ;
#382 = EDGE_CURVE ( 'NONE', #623, #734, #103, .T. ) ;
#383 = DIRECTION ( 'NONE',  ( -0.000000000000000000, -0.000000000000000000, 1.000000000000000000 ) ) ;
#384 = EDGE_LOOP ( 'NONE', ( #446, #617, #233, #434 ) ) ;
#385 = CARTESIAN_POINT ( 'NONE',  ( -0.9860000000000007647, 10.49999999999999822, -0.1050000000000007733 ) ) ;
#386 = AXIS2_PLACEMENT_3D ( 'NONE', #333, #574, #206 ) ;
#387 = DIRECTION ( 'NONE',  ( -0.000000000000000000, -1.000000000000000000, -0.000000000000000000 ) ) ;
#388 = CIRCLE ( 'NONE', #640, 0.1049999999999999545 ) ;
#389 = VECTOR ( 'NONE', #42, 39.37007874015748143 ) ;
#390 = VERTEX_POINT ( 'NONE', #155 ) ;
#391 = CARTESIAN_POINT ( 'NONE',  ( -1.440000000000000835, 14.49999999999999822, 0.000000000000000000 ) ) ;
#392 = ORIENTED_EDGE ( 'NONE', *, *, #229, .F. ) ;
#393 = DIRECTION ( 'NONE',  ( -0.000000000000000000, -0.000000000000000000, 1.000000000000000000 ) ) ;
#394 = ORIENTED_EDGE ( 'NONE', *, *, #297, .T. ) ;
#395 = CYLINDRICAL_SURFACE ( 'NONE', #452, 0.1599999999999999201 ) ;
#396 = ORIENTED_EDGE ( 'NONE', *, *, #610, .F. ) ;
#397 = VERTEX_POINT ( 'NONE', #300 ) ;
#398 = LINE ( 'NONE', #661, #265 ) ;
#399 = VERTEX_POINT ( 'NONE', #324 ) ;
#400 = DIRECTION ( 'NONE',  ( 0.000000000000000000, 0.000000000000000000, 1.000000000000000000 ) ) ;
#401 = ORIENTED_EDGE ( 'NONE', *, *, #222, .T. ) ;
#402 = EDGE_CURVE ( 'NONE', #390, #88, #471, .T. ) ;
#403 = PLANE ( 'NONE',  #930 ) ;
#404 = PRODUCT_CONTEXT ( 'NONE', #538, 'mechanical' ) ;
#405 = VERTEX_POINT ( 'NONE', #90 ) ;
#406 = FACE_OUTER_BOUND ( 'NONE', #767, .T. ) ;
#407 = ORIENTED_EDGE ( 'NONE', *, *, #3, .T. ) ;
#408 = VECTOR ( 'NONE', #931, 39.37007874015748143 ) ;
#409 = AXIS2_PLACEMENT_3D ( 'NONE', #77, #541, #312 ) ;
#410 = CARTESIAN_POINT ( 'NONE',  ( 0.6200000000000004396, 14.14999999999999858, -0.1050000000000007733 ) ) ;
#411 = EDGE_CURVE ( 'NONE', #483, #841, #690, .T. ) ;
#412 = ORIENTED_EDGE ( 'NONE', *, *, #795, .T. ) ;
#413 = FACE_OUTER_BOUND ( 'NONE', #294, .T. ) ;
#414 = CARTESIAN_POINT ( 'NONE',  ( -1.440000000000000835, -14.50000000000000355, -0.1049999999999999961 ) ) ;
#415 = ADVANCED_FACE ( 'NONE', ( #558 ), #750, .F. ) ;
#416 = AXIS2_PLACEMENT_3D ( 'NONE', #231, #659, #445 ) ;
#417 = CARTESIAN_POINT ( 'NONE',  ( 0.6200000000000004396, 14.14999999999999858, 0.000000000000000000 ) ) ;
#418 = CARTESIAN_POINT ( 'NONE',  ( 0.6200000000000004396, 14.14999999999999858, -0.1050000000000007733 ) ) ;
#419 = EDGE_LOOP ( 'NONE', ( #317, #200 ) ) ;
#420 = VECTOR ( 'NONE', #293, 39.37007874015748143 ) ;
#421 = CARTESIAN_POINT ( 'NONE',  ( -1.100000000000000755, 10.49999999999999822, -0.1050000000000007733 ) ) ;
#422 = DIRECTION ( 'NONE',  ( -0.000000000000000000, -0.000000000000000000, 1.000000000000000000 ) ) ;
#423 = EDGE_CURVE ( 'NONE', #28, #397, #605, .T. ) ;
#424 = LINE ( 'NONE', #719, #389 ) ;
#425 = DIRECTION ( 'NONE',  ( 0.000000000000000000, 0.000000000000000000, 1.000000000000000000 ) ) ;
#426 = FACE_OUTER_BOUND ( 'NONE', #536, .T. ) ;
#427 = VECTOR ( 'NONE', #212, 39.37007874015748143 ) ;
#428 = STYLED_ITEM ( 'NONE', ( #480 ), #783 ) ;
#429 = FACE_OUTER_BOUND ( 'NONE', #169, .T. ) ;
#430 = EDGE_CURVE ( 'NONE', #176, #599, #694, .T. ) ;
#431 = CARTESIAN_POINT ( 'NONE',  ( -1.440000000000000835, -14.50000000000000355, -0.1049999999999999961 ) ) ;
#432 = ORIENTED_EDGE ( 'NONE', *, *, #650, .F. ) ;
#433 = DIRECTION ( 'NONE',  ( 0.000000000000000000, -0.000000000000000000, 1.000000000000000000 ) ) ;
#434 = ORIENTED_EDGE ( 'NONE', *, *, #945, .T. ) ;
#435 = CARTESIAN_POINT ( 'NONE',  ( 0.000000000000000000, 0.000000000000000000, -0.1049999999999999961 ) ) ;
#436 = EDGE_CURVE ( 'NONE', #773, #465, #756, .T. ) ;
#437 = DIRECTION ( 'NONE',  ( 1.000000000000000000, 0.000000000000000000, 0.000000000000000000 ) ) ;
#438 = ORIENTED_EDGE ( 'NONE', *, *, #121, .T. ) ;
#439 = DIRECTION ( 'NONE',  ( 1.000000000000000000, 0.000000000000000000, 0.000000000000000000 ) ) ;
#440 = ORIENTED_EDGE ( 'NONE', *, *, #162, .T. ) ;
#441 = DIRECTION ( 'NONE',  ( 3.458035435018052011E-15, -0.000000000000000000, 1.000000000000000000 ) ) ;
#442 = CIRCLE ( 'NONE', #19, 0.1599999999999999201 ) ;
#443 = UNCERTAINTY_MEASURE_WITH_UNIT (LENGTH_MEASURE( 1.000000000000000082E-05 ), #237, 'distance_accuracy_value', 'NONE');
#444 = CYLINDRICAL_SURFACE ( 'NONE', #526, 0.1139999999999999347 ) ;
#445 = DIRECTION ( 'NONE',  ( 1.000000000000000000, 0.000000000000000000, 0.000000000000000000 ) ) ;
#446 = ORIENTED_EDGE ( 'NONE', *, *, #402, .T. ) ;
#447 = CARTESIAN_POINT ( 'NONE',  ( 0.7800000000000004707, -13.97000000000000242, -0.1050000000000007733 ) ) ;
#448 = ADVANCED_FACE ( 'NONE', ( #7 ), #307, .F. ) ;
#449 = ORIENTED_EDGE ( 'NONE', *, *, #177, .F. ) ;
#450 = ADVANCED_BREP_SHAPE_REPRESENTATION ( '16-6047-01-(12gacr ANSI-61) - K56 - V9-R0', ( #783, #926 ), #777 ) ;
#451 = CARTESIAN_POINT ( 'NONE',  ( -1.214000000000000856, -0.3800000000000041678, -0.1050000000000007733 ) ) ;
#452 = AXIS2_PLACEMENT_3D ( 'NONE', #111, #30, #696 ) ;
#453 = CARTESIAN_POINT ( 'NONE',  ( 1.440000000000000391, -14.50000000000000355, 0.3950000000000000178 ) ) ;
#454 = EDGE_LOOP ( 'NONE', ( #59, #765 ) ) ;
#455 = CARTESIAN_POINT ( 'NONE',  ( -1.214000000000000634, 10.49999999999999822, -0.1050000000000007733 ) ) ;
#456 = ORIENTED_EDGE ( 'NONE', *, *, #162, .F. ) ;
#457 = EDGE_CURVE ( 'NONE', #894, #676, #398, .T. ) ;
#458 = VERTEX_POINT ( 'NONE', #714 ) ;
#459 = LINE ( 'NONE', #811, #314 ) ;
#460 = DIRECTION ( 'NONE',  ( 0.000000000000000000, -1.000000000000000000, 0.000000000000000000 ) ) ;
#461 = AXIS2_PLACEMENT_3D ( 'NONE', #784, #731, #263 ) ;
#462 = ORIENTED_EDGE ( 'NONE', *, *, #222, .F. ) ;
#463 = CIRCLE ( 'NONE', #329, 0.1599999999999999201 ) ;
#464 = LINE ( 'NONE', #211, #701 ) ;
#465 = VERTEX_POINT ( 'NONE', #112 ) ;
#466 = DIRECTION ( 'NONE',  ( -0.000000000000000000, -0.000000000000000000, 1.000000000000000000 ) ) ;
#467 = EDGE_CURVE ( 'NONE', #282, #698, #934, .T. ) ;
#468 = CARTESIAN_POINT ( 'NONE',  ( 1.439999999999999059, 0.000000000000000000, -5.346176567004520269E-15 ) ) ;
#469 = ORIENTED_EDGE ( 'NONE', *, *, #411, .T. ) ;
#470 = DIRECTION ( 'NONE',  ( -3.458035435018052011E-15, 0.000000000000000000, -1.000000000000000000 ) ) ;
#471 = LINE ( 'NONE', #842, #474 ) ;
#472 = PRESENTATION_LAYER_ASSIGNMENT (  '', '', ( #428 ) ) ;
#473 = EDGE_CURVE ( 'NONE', #99, #311, #645, .T. ) ;
#474 = VECTOR ( 'NONE', #387, 39.37007874015748143 ) ;
#475 = CARTESIAN_POINT ( 'NONE',  ( -1.100000000000000755, -0.3800000000000041678, -0.1050000000000007733 ) ) ;
#476 = CARTESIAN_POINT ( 'NONE',  ( 0.6200000000000004396, 14.14999999999999858, -0.1050000000000007733 ) ) ;
#477 = ORIENTED_EDGE ( 'NONE', *, *, #580, .F. ) ;
#478 = DIRECTION ( 'NONE',  ( 0.000000000000000000, -1.000000000000000000, -8.130499981143642996E-17 ) ) ;
#479 = ORIENTED_EDGE ( 'NONE', *, *, #925, .T. ) ;
#480 = PRESENTATION_STYLE_ASSIGNMENT (( #624 ) ) ;
#481 = ORIENTED_EDGE ( 'NONE', *, *, #554, .T. ) ;
#482 = DIRECTION ( 'NONE',  ( 1.000000000000000000, 0.000000000000000000, 0.000000000000000000 ) ) ;
#483 = VERTEX_POINT ( 'NONE', #950 ) ;
#484 = VECTOR ( 'NONE', #751, 39.37007874015748143 ) ;
#485 = ORIENTED_EDGE ( 'NONE', *, *, #925, .F. ) ;
#486 = EDGE_CURVE ( 'NONE', #91, #815, #102, .T. ) ;
#487 = CARTESIAN_POINT ( 'NONE',  ( 1.334999999999999298, -14.50000000000000355, 0.1049999999999995659 ) ) ;
#488 = VECTOR ( 'NONE', #365, 39.37007874015748143 ) ;
#489 = VECTOR ( 'NONE', #116, 39.37007874015748143 ) ;
#490 = AXIS2_PLACEMENT_3D ( 'NONE', #418, #798, #944 ) ;
#491 = CYLINDRICAL_SURFACE ( 'NONE', #843, 0.1139999999999999347 ) ;
#492 = ORIENTED_EDGE ( 'NONE', *, *, #770, .F. ) ;
#493 = DIRECTION ( 'NONE',  ( 1.000000000000000000, 0.000000000000000000, 0.000000000000000000 ) ) ;
#494 = ADVANCED_FACE ( 'NONE', ( #185 ), #491, .F. ) ;
#495 = CARTESIAN_POINT ( 'NONE',  ( 1.229999999999999316, 14.49999999999999822, 0.1050000000000015227 ) ) ;
#496 = DIRECTION ( 'NONE',  ( 1.000000000000000000, -0.000000000000000000, -3.491481338843132961E-15 ) ) ;
#497 = ADVANCED_FACE ( 'NONE', ( #114 ), #109, .F. ) ;
#498 = DIRECTION ( 'NONE',  ( 1.000000000000000000, 0.000000000000000000, 0.000000000000000000 ) ) ;
#499 = AXIS2_PLACEMENT_3D ( 'NONE', #305, #378, #830 ) ;
#500 = DIRECTION ( 'NONE',  ( 1.000000000000000000, 0.000000000000000000, 0.000000000000000000 ) ) ;
#501 = CARTESIAN_POINT ( 'NONE',  ( -1.100000000000000755, 10.49999999999999822, -0.1050000000000007733 ) ) ;
#502 = EDGE_CURVE ( 'NONE', #734, #697, #205, .T. ) ;
#503 = DIRECTION ( 'NONE',  ( -0.000000000000000000, -0.000000000000000000, 1.000000000000000000 ) ) ;
#504 = EDGE_CURVE ( 'NONE', #13, #166, #332, .T. ) ;
#505 = DIRECTION ( 'NONE',  ( 0.000000000000000000, 0.000000000000000000, 1.000000000000000000 ) ) ;
#506 = DIRECTION ( 'NONE',  ( -1.000000000000000000, 0.000000000000000000, 0.000000000000000000 ) ) ;
#507 = EDGE_LOOP ( 'NONE', ( #563, #10, #602, #255 ) ) ;
#508 = LINE ( 'NONE', #487, #896 ) ;
#509 = CIRCLE ( 'NONE', #937, 0.1599999999999999201 ) ;
#510 = CARTESIAN_POINT ( 'NONE',  ( -1.100000000000000755, 0.3799999999999997824, -0.1050000000000007733 ) ) ;
#511 = DIRECTION ( 'NONE',  ( 0.000000000000000000, -0.000000000000000000, -1.000000000000000000 ) ) ;
#512 = ORIENTED_EDGE ( 'NONE', *, *, #800, .T. ) ;
#513 = CARTESIAN_POINT ( 'NONE',  ( 1.439999999999999503, 14.49999999999999822, 0.1050000000000000239 ) ) ;
#514 = ORIENTED_EDGE ( 'NONE', *, *, #523, .T. ) ;
#515 = CARTESIAN_POINT ( 'NONE',  ( 1.229999999999999316, -14.50000000000000355, 0.1049999999999991634 ) ) ;
#516 = DIRECTION ( 'NONE',  ( -0.000000000000000000, -0.000000000000000000, 1.000000000000000000 ) ) ;
#517 = ORIENTED_EDGE ( 'NONE', *, *, #666, .F. ) ;
#518 = FACE_OUTER_BOUND ( 'NONE', #769, .T. ) ;
#519 = EDGE_LOOP ( 'NONE', ( #456, #141, #745, #449 ) ) ;
#520 = FACE_OUTER_BOUND ( 'NONE', #100, .T. ) ;
#521 = DIRECTION ( 'NONE',  ( 0.000000000000000000, 0.000000000000000000, 1.000000000000000000 ) ) ;
#522 = ORIENTED_EDGE ( 'NONE', *, *, #502, .F. ) ;
#523 = EDGE_CURVE ( 'NONE', #676, #405, #172, .T. ) ;
#524 = CARTESIAN_POINT ( 'NONE',  ( -1.100000000000000755, 10.49999999999999822, 0.000000000000000000 ) ) ;
#525 = EDGE_LOOP ( 'NONE', ( #377, #614 ) ) ;
#526 = AXIS2_PLACEMENT_3D ( 'NONE', #64, #383, #948 ) ;
#527 = FACE_BOUND ( 'NONE', #15, .T. ) ;
#528 = AXIS2_PLACEMENT_3D ( 'NONE', #845, #247, #165 ) ;
#529 = ORIENTED_EDGE ( 'NONE', *, *, #627, .F. ) ;
#530 = DIRECTION ( 'NONE',  ( -0.000000000000000000, -0.000000000000000000, 1.000000000000000000 ) ) ;
#531 = EDGE_CURVE ( 'NONE', #851, #483, #463, .T. ) ;
#532 = ORIENTED_EDGE ( 'NONE', *, *, #229, .T. ) ;
#533 = CARTESIAN_POINT ( 'NONE',  ( 0.7800000000000004707, 14.14999999999999858, -0.1050000000000007733 ) ) ;
#534 = CARTESIAN_POINT ( 'NONE',  ( 0.6200000000000004396, -14.15000000000000213, 0.000000000000000000 ) ) ;
#535 = CARTESIAN_POINT ( 'NONE',  ( 1.334999999999999076, 14.49999999999999822, -4.979571026425991109E-15 ) ) ;
#536 = EDGE_LOOP ( 'NONE', ( #529, #335, #730, #158 ) ) ;
#537 = CARTESIAN_POINT ( 'NONE',  ( -0.9860000000000008757, -0.3800000000000041678, -0.1050000000000007733 ) ) ;
#538 = APPLICATION_CONTEXT ( 'automotive_design' ) ;
#539 = ORIENTED_EDGE ( 'NONE', *, *, #523, .F. ) ;
#540 = ADVANCED_FACE ( 'NONE', ( #854 ), #871, .F. ) ;
#541 = DIRECTION ( 'NONE',  ( 0.000000000000000000, -1.000000000000000000, -8.130499981143642996E-17 ) ) ;
#542 = VECTOR ( 'NONE', #884, 39.37007874015748143 ) ;
#543 = ORIENTED_EDGE ( 'NONE', *, *, #29, .T. ) ;
#544 = DIRECTION ( 'NONE',  ( -3.458035435018052011E-15, 0.000000000000000000, -1.000000000000000000 ) ) ;
#545 = EDGE_LOOP ( 'NONE', ( #686, #217, #242, #607 ) ) ;
#546 = LINE ( 'NONE', #249, #762 ) ;
#547 = EDGE_CURVE ( 'NONE', #891, #13, #877, .T. ) ;
#548 = AXIS2_PLACEMENT_3D ( 'NONE', #21, #315, #550 ) ;
#549 = ORIENTED_EDGE ( 'NONE', *, *, #713, .F. ) ;
#550 = DIRECTION ( 'NONE',  ( 1.000000000000000000, 0.000000000000000000, 0.000000000000000000 ) ) ;
#551 = CARTESIAN_POINT ( 'NONE',  ( -1.440000000000000835, 14.49999999999999822, -0.1049999999999999961 ) ) ;
#552 = DIRECTION ( 'NONE',  ( 0.000000000000000000, 0.000000000000000000, 1.000000000000000000 ) ) ;
#553 = ORIENTED_EDGE ( 'NONE', *, *, #935, .F. ) ;
#554 = EDGE_CURVE ( 'NONE', #599, #397, #866, .T. ) ;
#555 =( NAMED_UNIT ( * ) SI_UNIT ( $, .STERADIAN. ) SOLID_ANGLE_UNIT ( ) );
#556 = EDGE_LOOP ( 'NONE', ( #683, #462, #522, #331 ) ) ;
#557 = ORIENTED_EDGE ( 'NONE', *, *, #650, .T. ) ;
#558 = FACE_OUTER_BOUND ( 'NONE', #808, .T. ) ;
#559 = DIRECTION ( 'NONE',  ( 0.000000000000000000, 1.000000000000000000, -0.000000000000000000 ) ) ;
#560 = CARTESIAN_POINT ( 'NONE',  ( 0.9400000000000003908, 13.96999999999999709, -0.1050000000000007733 ) ) ;
#561 = CARTESIAN_POINT ( 'NONE',  ( -1.100000000000000755, -10.50000000000000178, -0.1050000000000007733 ) ) ;
#562 = CYLINDRICAL_SURFACE ( 'NONE', #548, 0.1599999999999999201 ) ;
#563 = ORIENTED_EDGE ( 'NONE', *, *, #254, .T. ) ;
#564 = CARTESIAN_POINT ( 'NONE',  ( 0.6200000000000004396, -14.15000000000000213, -0.1050000000000007733 ) ) ;
#565 = CARTESIAN_POINT ( 'NONE',  ( 0.7800000000000004707, 13.96999999999999709, -0.1050000000000007733 ) ) ;
#566 = DIRECTION ( 'NONE',  ( 0.000000000000000000, 0.000000000000000000, 1.000000000000000000 ) ) ;
#567 = ADVANCED_FACE ( 'NONE', ( #361 ), #717, .T. ) ;
#568 = DIRECTION ( 'NONE',  ( 1.000000000000000000, 0.000000000000000000, 0.000000000000000000 ) ) ;
#569 = CARTESIAN_POINT ( 'NONE',  ( 0.6200000000000004396, 13.96999999999999709, 0.000000000000000000 ) ) ;
#570 = EDGE_CURVE ( 'NONE', #320, #851, #584, .T. ) ;
#571 = DIRECTION ( 'NONE',  ( 0.000000000000000000, 0.000000000000000000, 1.000000000000000000 ) ) ;
#572 = VERTEX_POINT ( 'NONE', #34 ) ;
#573 = EDGE_CURVE ( 'NONE', #572, #894, #508, .T. ) ;
#574 = DIRECTION ( 'NONE',  ( 0.000000000000000000, 0.000000000000000000, 1.000000000000000000 ) ) ;
#575 = CARTESIAN_POINT ( 'NONE',  ( -1.440000000000000835, 14.49999999999999822, -0.1049999999999999961 ) ) ;
#576 = CARTESIAN_POINT ( 'NONE',  ( 0.6200000000000004396, -14.15000000000000213, -0.1050000000000007733 ) ) ;
#577 = ORIENTED_EDGE ( 'NONE', *, *, #201, .F. ) ;
#578 = DIRECTION ( 'NONE',  ( 0.000000000000000000, 1.000000000000000000, 0.000000000000000000 ) ) ;
#579 = VECTOR ( 'NONE', #587, 39.37007874015748143 ) ;
#580 = EDGE_CURVE ( 'NONE', #572, #919, #778, .T. ) ;
#581 = DIRECTION ( 'NONE',  ( 0.000000000000000000, 0.000000000000000000, 1.000000000000000000 ) ) ;
#582 = LINE ( 'NONE', #58, #488 ) ;
#583 = VERTEX_POINT ( 'NONE', #455 ) ;
#584 = LINE ( 'NONE', #564, #104 ) ;
#585 = EDGE_LOOP ( 'NONE', ( #886, #246, #833, #401 ) ) ;
#586 = AXIS2_PLACEMENT_3D ( 'NONE', #87, #232, #814 ) ;
#587 = DIRECTION ( 'NONE',  ( -1.000000000000000000, -0.000000000000000000, -0.000000000000000000 ) ) ;
#588 = CARTESIAN_POINT ( 'NONE',  ( 1.439999999999999503, -2.967352131049253289E-18, 0.1049999999999996075 ) ) ;
#589 = EDGE_LOOP ( 'NONE', ( #204, #117 ) ) ;
#590 = CARTESIAN_POINT ( 'NONE',  ( 0.9400000000000003908, 13.96999999999999709, 0.000000000000000000 ) ) ;
#591 = DIRECTION ( 'NONE',  ( 0.000000000000000000, 0.000000000000000000, 1.000000000000000000 ) ) ;
#592 = EDGE_CURVE ( 'NONE', #630, #405, #736, .T. ) ;
#593 = CARTESIAN_POINT ( 'NONE',  ( -1.100000000000000755, -0.3800000000000041678, 0.000000000000000000 ) ) ;
#594 = ORIENTED_EDGE ( 'NONE', *, *, #326, .T. ) ;
#595 = DIRECTION ( 'NONE',  ( 1.000000000000000000, 0.000000000000000000, 0.000000000000000000 ) ) ;
#596 = AXIS2_PLACEMENT_3D ( 'NONE', #673, #591, #224 ) ;
#597 = ADVANCED_FACE ( 'NONE', ( #518 ), #75, .F. ) ;
#598 = DIRECTION ( 'NONE',  ( -3.458035435018052011E-15, 0.000000000000000000, -1.000000000000000000 ) ) ;
#599 = VERTEX_POINT ( 'NONE', #687 ) ;
#600 = ADVANCED_FACE ( 'NONE', ( #9 ), #135, .F. ) ;
#601 = DIRECTION ( 'NONE',  ( 0.000000000000000000, 0.000000000000000000, 1.000000000000000000 ) ) ;
#602 = ORIENTED_EDGE ( 'NONE', *, *, #382, .F. ) ;
#603 = ORIENTED_EDGE ( 'NONE', *, *, #797, .F. ) ;
#604 = CIRCLE ( 'NONE', #780, 0.1139999999999999347 ) ;
#605 = LINE ( 'NONE', #230, #728 ) ;
#606 = DIRECTION ( 'NONE',  ( 1.000000000000000000, 0.000000000000000000, -3.458035435018052011E-15 ) ) ;
#607 = ORIENTED_EDGE ( 'NONE', *, *, #18, .T. ) ;
#608 = CARTESIAN_POINT ( 'NONE',  ( 1.229999999999999316, 14.49999999999999822, 1.553738546396549792E-15 ) ) ;
#609 = VERTEX_POINT ( 'NONE', #288 ) ;
#610 = EDGE_CURVE ( 'NONE', #28, #176, #226, .T. ) ;
#611 = FACE_BOUND ( 'NONE', #250, .T. ) ;
#612 = VERTEX_POINT ( 'NONE', #809 ) ;
#613 = CARTESIAN_POINT ( 'NONE',  ( -1.214000000000000634, 10.49999999999999822, -0.1050000000000007733 ) ) ;
#614 = ORIENTED_EDGE ( 'NONE', *, *, #795, .F. ) ;
#615 = ORIENTED_EDGE ( 'NONE', *, *, #251, .T. ) ;
#616 = DIRECTION ( 'NONE',  ( -0.000000000000000000, -0.000000000000000000, 1.000000000000000000 ) ) ;
#617 = ORIENTED_EDGE ( 'NONE', *, *, #857, .F. ) ;
#618 = CIRCLE ( 'NONE', #739, 0.1139999999999999347 ) ;
#619 = FACE_OUTER_BOUND ( 'NONE', #638, .T. ) ;
#620 = EDGE_CURVE ( 'NONE', #458, #612, #209, .T. ) ;
#621 = LENGTH_MEASURE_WITH_UNIT ( LENGTH_MEASURE( 0.02539999999999999897 ), #786 );
#622 = AXIS2_PLACEMENT_3D ( 'NONE', #252, #559, #180 ) ;
#623 = VERTEX_POINT ( 'NONE', #675 ) ;
#624 = SURFACE_STYLE_USAGE ( .BOTH. , #258 ) ;
#625 = EDGE_LOOP ( 'NONE', ( #893, #215, #949, #240 ) ) ;
#626 = DIRECTION ( 'NONE',  ( 0.000000000000000000, 1.000000000000000000, 0.000000000000000000 ) ) ;
#627 = EDGE_CURVE ( 'NONE', #583, #612, #747, .T. ) ;
#628 = VERTEX_POINT ( 'NONE', #60 ) ;
#629 = CARTESIAN_POINT ( 'NONE',  ( 1.440000000000000391, 14.49999999999999822, 0.3950000000000000178 ) ) ;
#630 = VERTEX_POINT ( 'NONE', #608 ) ;
#631 = ORIENTED_EDGE ( 'NONE', *, *, #154, .T. ) ;
#632 = PRODUCT_DEFINITION_SHAPE ( 'NONE', 'NONE',  #707 ) ;
#633 = DIRECTION ( 'NONE',  ( 0.000000000000000000, 0.000000000000000000, 1.000000000000000000 ) ) ;
#634 = FACE_OUTER_BOUND ( 'NONE', #179, .T. ) ;
#635 = LENGTH_MEASURE_WITH_UNIT ( LENGTH_MEASURE( 0.02539999999999999897 ), #170 );
#636 = EDGE_CURVE ( 'NONE', #612, #458, #181, .T. ) ;
#637 = CIRCLE ( 'NONE', #596, 0.1599999999999999201 ) ;
#638 = EDGE_LOOP ( 'NONE', ( #477, #799, #615, #781 ) ) ;
#639 = CARTESIAN_POINT ( 'NONE',  ( 1.439999999999999503, -14.50000000000000355, 0.1049999999999991912 ) ) ;
#640 = AXIS2_PLACEMENT_3D ( 'NONE', #515, #274, #136 ) ;
#641 = VECTOR ( 'NONE', #530, 39.37007874015748143 ) ;
#642 = DIRECTION ( 'NONE',  ( -0.000000000000000000, -0.000000000000000000, 1.000000000000000000 ) ) ;
#643 = EDGE_CURVE ( 'NONE', #630, #962, #373, .T. ) ;
#644 = DIRECTION ( 'NONE',  ( -0.000000000000000000, -0.000000000000000000, 1.000000000000000000 ) ) ;
#645 = CIRCLE ( 'NONE', #840, 0.1139999999999999347 ) ;
#646 = DIRECTION ( 'NONE',  ( 0.000000000000000000, 0.000000000000000000, 1.000000000000000000 ) ) ;
#647 = DIRECTION ( 'NONE',  ( 0.000000000000000000, 0.000000000000000000, 1.000000000000000000 ) ) ;
#648 = FACE_OUTER_BOUND ( 'NONE', #677, .T. ) ;
#649 = CARTESIAN_POINT ( 'NONE',  ( 0.9400000000000003908, 14.14999999999999858, -0.1050000000000007733 ) ) ;
#650 = EDGE_CURVE ( 'NONE', #99, #609, #892, .T. ) ;
#651 = DIRECTION ( 'NONE',  ( 1.000000000000000000, -0.000000000000000000, 0.000000000000000000 ) ) ;
#652 = AXIS2_PLACEMENT_3D ( 'NONE', #524, #601, #883 ) ;
#653 = AXIS2_PLACEMENT_3D ( 'NONE', #381, #178, #24 ) ;
#654 = PRODUCT ( '16-6047-01-(12gacr ANSI-61) - K56 - V9-R0', '16-6047-01-(12gacr ANSI-61) - K56 - V9-R0', '', ( #404 ) ) ;
#655 = DIRECTION ( 'NONE',  ( 3.491481338843132961E-15, 0.000000000000000000, 1.000000000000000000 ) ) ;
#656 = EDGE_CURVE ( 'NONE', #628, #27, #887, .T. ) ;
#657 = CYLINDRICAL_SURFACE ( 'NONE', #193, 0.1599999999999999201 ) ;
#658 = DIRECTION ( 'NONE',  ( -0.000000000000000000, -0.000000000000000000, 1.000000000000000000 ) ) ;
#659 = DIRECTION ( 'NONE',  ( 0.000000000000000000, 0.000000000000000000, 1.000000000000000000 ) ) ;
#660 = ORIENTED_EDGE ( 'NONE', *, *, #467, .T. ) ;
#661 = CARTESIAN_POINT ( 'NONE',  ( 1.334999999999999298, 14.49999999999999822, 0.1050000000000003847 ) ) ;
#662 = ADVANCED_FACE ( 'NONE', ( #160 ), #963, .T. ) ;
#663 = PLANE ( 'NONE',  #908 ) ;
#664 = CARTESIAN_POINT ( 'NONE',  ( 1.229999999999999316, 14.49999999999999822, 1.553738546396549792E-15 ) ) ;
#665 = AXIS2_PLACEMENT_3D ( 'NONE', #223, #758, #470 ) ;
#666 = EDGE_CURVE ( 'NONE', #359, #962, #464, .T. ) ;
#667 = ORIENTED_EDGE ( 'NONE', *, *, #547, .F. ) ;
#668 = DIRECTION ( 'NONE',  ( 1.000000000000000000, 0.000000000000000000, 0.000000000000000000 ) ) ;
#669 = CARTESIAN_POINT ( 'NONE',  ( 0.7800000000000004707, -13.97000000000000242, 0.000000000000000000 ) ) ;
#670 = EDGE_LOOP ( 'NONE', ( #337, #73, #681, #306 ) ) ;
#671 = DIRECTION ( 'NONE',  ( 0.000000000000000000, 0.000000000000000000, 1.000000000000000000 ) ) ;
#672 = ORIENTED_EDGE ( 'NONE', *, *, #402, .F. ) ;
#673 = CARTESIAN_POINT ( 'NONE',  ( 0.7800000000000004707, 14.14999999999999858, 0.000000000000000000 ) ) ;
#674 = CARTESIAN_POINT ( 'NONE',  ( -1.214000000000000856, -10.50000000000000178, -0.1050000000000007733 ) ) ;
#675 = CARTESIAN_POINT ( 'NONE',  ( 0.9400000000000003908, 14.14999999999999858, -0.1050000000000007733 ) ) ;
#676 = VERTEX_POINT ( 'NONE', #513 ) ;
#677 = EDGE_LOOP ( 'NONE', ( #691, #543, #737, #909 ) ) ;
#678 = CARTESIAN_POINT ( 'NONE',  ( 1.440000000000000391, -14.50000000000000355, 0.3950000000000000178 ) ) ;
#679 = CARTESIAN_POINT ( 'NONE',  ( -0.9860000000000008757, -0.3800000000000041678, -0.1050000000000007733 ) ) ;
#680 = EDGE_CURVE ( 'NONE', #176, #28, #604, .T. ) ;
#681 = ORIENTED_EDGE ( 'NONE', *, *, #214, .T. ) ;
#682 = CARTESIAN_POINT ( 'NONE',  ( 0.9400000000000003908, -13.97000000000000242, 0.000000000000000000 ) ) ;
#683 = ORIENTED_EDGE ( 'NONE', *, *, #486, .T. ) ;
#684 = VECTOR ( 'NONE', #796, 39.37007874015748143 ) ;
#685 = DIRECTION ( 'NONE',  ( -0.000000000000000000, 1.000000000000000000, -0.000000000000000000 ) ) ;
#686 = ORIENTED_EDGE ( 'NONE', *, *, #382, .T. ) ;
#687 = CARTESIAN_POINT ( 'NONE',  ( -1.214000000000000856, -10.50000000000000178, 0.000000000000000000 ) ) ;
#688 = AXIS2_PLACEMENT_3D ( 'NONE', #916, #393, #12 ) ;
#689 = VERTEX_POINT ( 'NONE', #953 ) ;
#690 = LINE ( 'NONE', #761, #164 ) ;
#691 = ORIENTED_EDGE ( 'NONE', *, *, #699, .T. ) ;
#692 = APPLICATION_CONTEXT ( 'automotive_design' ) ;
#693 = CARTESIAN_POINT ( 'NONE',  ( 1.335000000000000409, -14.50000000000000355, 0.3950000000000003508 ) ) ;
#694 = LINE ( 'NONE', #827, #131 ) ;
#695 = ORIENTED_EDGE ( 'NONE', *, *, #837, .F. ) ;
#696 = DIRECTION ( 'NONE',  ( 1.000000000000000000, 0.000000000000000000, 0.000000000000000000 ) ) ;
#697 = VERTEX_POINT ( 'NONE', #367 ) ;
#698 = VERTEX_POINT ( 'NONE', #590 ) ;
#699 = EDGE_CURVE ( 'NONE', #630, #166, #139, .T. ) ;
#700 = PLANE ( 'NONE',  #653 ) ;
#701 = VECTOR ( 'NONE', #67, 39.37007874015748143 ) ;
#702 = VECTOR ( 'NONE', #895, 39.37007874015748143 ) ;
#703 = VERTEX_POINT ( 'NONE', #682 ) ;
#704 = FACE_OUTER_BOUND ( 'NONE', #507, .T. ) ;
#705 = ORIENTED_EDGE ( 'NONE', *, *, #457, .F. ) ;
#706 = CARTESIAN_POINT ( 'NONE',  ( -1.440000000000000835, -14.50000000000000355, 0.000000000000000000 ) ) ;
#707 = PRODUCT_DEFINITION ( 'UNKNOWN', '', #801, #78 ) ;
#708 = CARTESIAN_POINT ( 'NONE',  ( 0.9400000000000003908, 14.14999999999999858, 0.000000000000000000 ) ) ;
#709 = DIRECTION ( 'NONE',  ( 1.000000000000000000, 0.000000000000000000, 0.000000000000000000 ) ) ;
#710 = ORIENTED_EDGE ( 'NONE', *, *, #749, .F. ) ;
#711 = EDGE_LOOP ( 'NONE', ( #803, #259, #667, #330 ) ) ;
#712 = DIRECTION ( 'NONE',  ( 1.000000000000000000, 0.000000000000000000, 0.000000000000000000 ) ) ;
#713 = EDGE_CURVE ( 'NONE', #841, #320, #66, .T. ) ;
#714 = CARTESIAN_POINT ( 'NONE',  ( -0.9860000000000007647, 10.49999999999999822, 0.000000000000000000 ) ) ;
#715 = CARTESIAN_POINT ( 'NONE',  ( 0.6200000000000004396, -14.15000000000000213, -0.1050000000000007733 ) ) ;
#716 = AXIS2_PLACEMENT_3D ( 'NONE', #270, #578, #433 ) ;
#717 = PLANE ( 'NONE',  #716 ) ;
#718 = CARTESIAN_POINT ( 'NONE',  ( 1.334999999999999298, 14.49999999999999822, 0.1050000000000011618 ) ) ;
#719 = CARTESIAN_POINT ( 'NONE',  ( 0.6200000000000004396, -13.97000000000000242, -0.1050000000000007733 ) ) ;
#720 = VERTEX_POINT ( 'NONE', #385 ) ;
#721 = AXIS2_PLACEMENT_3D ( 'NONE', #510, #951, #733 ) ;
#722 = ADVANCED_FACE ( 'NONE', ( #856 ), #562, .F. ) ;
#723 = LINE ( 'NONE', #933, #408 ) ;
#724 = CIRCLE ( 'NONE', #302, 0.2099999999999999367 ) ;
#725 = AXIS2_PLACEMENT_3D ( 'NONE', #495, #266, #353 ) ;
#726 = AXIS2_PLACEMENT_3D ( 'NONE', #533, #161, #482 ) ;
#727 = DIRECTION ( 'NONE',  ( 0.000000000000000000, 0.000000000000000000, -1.000000000000000000 ) ) ;
#728 = VECTOR ( 'NONE', #616, 39.37007874015748143 ) ;
#729 = CARTESIAN_POINT ( 'NONE',  ( -1.214000000000000856, -0.3800000000000041678, 0.000000000000000000 ) ) ;
#730 = ORIENTED_EDGE ( 'NONE', *, *, #118, .T. ) ;
#731 = DIRECTION ( 'NONE',  ( 1.000000000000000000, 0.000000000000000000, 0.000000000000000000 ) ) ;
#732 = DIRECTION ( 'NONE',  ( 1.000000000000000000, 0.000000000000000000, 0.000000000000000000 ) ) ;
#733 = DIRECTION ( 'NONE',  ( 1.000000000000000000, 0.000000000000000000, 0.000000000000000000 ) ) ;
#734 = VERTEX_POINT ( 'NONE', #476 ) ;
#735 = ADVANCED_FACE ( 'NONE', ( #704 ), #395, .F. ) ;
#736 = LINE ( 'NONE', #664, #124 ) ;
#737 = ORIENTED_EDGE ( 'NONE', *, *, #573, .T. ) ;
#738 = DIRECTION ( 'NONE',  ( -3.458035435018052011E-15, -0.000000000000000000, -1.000000000000000000 ) ) ;
#739 = AXIS2_PLACEMENT_3D ( 'NONE', #371, #210, #437 ) ;
#740 = ORIENTED_EDGE ( 'NONE', *, *, #945, .F. ) ;
#741 = CARTESIAN_POINT ( 'NONE',  ( -1.214000000000000634, 0.3799999999999997824, -0.1050000000000007733 ) ) ;
#742 = AXIS2_PLACEMENT_3D ( 'NONE', #764, #98, #709 ) ;
#743 = DIRECTION ( 'NONE',  ( 1.000000000000000000, 0.000000000000000000, -3.491481338843132961E-15 ) ) ;
#744 = DIRECTION ( 'NONE',  ( 1.000000000000000000, 0.000000000000000000, 0.000000000000000000 ) ) ;
#745 = ORIENTED_EDGE ( 'NONE', *, *, #789, .F. ) ;
#746 = APPLICATION_PROTOCOL_DEFINITION ( 'draft international standard', 'automotive_design', 1998, #538 ) ;
#747 = LINE ( 'NONE', #613, #760 ) ;
#748 = ORIENTED_EDGE ( 'NONE', *, *, #11, .F. ) ;
#749 = EDGE_CURVE ( 'NONE', #628, #221, #876, .T. ) ;
#750 = CYLINDRICAL_SURFACE ( 'NONE', #688, 0.1139999999999999347 ) ;
#751 = DIRECTION ( 'NONE',  ( -0.000000000000000000, -0.000000000000000000, 1.000000000000000000 ) ) ;
#752 = ORIENTED_EDGE ( 'NONE', *, *, #360, .T. ) ;
#753 = CARTESIAN_POINT ( 'NONE',  ( -1.100000000000000755, -10.50000000000000178, -0.1050000000000007733 ) ) ;
#754 = ORIENTED_EDGE ( 'NONE', *, *, #245, .F. ) ;
#755 = VECTOR ( 'NONE', #828, 39.37007874015748143 ) ;
#756 = LINE ( 'NONE', #84, #105 ) ;
#757 = EDGE_LOOP ( 'NONE', ( #81, #882, #532, #957 ) ) ;
#758 = DIRECTION ( 'NONE',  ( 1.000000000000000000, 0.000000000000000000, -3.458035435018052011E-15 ) ) ;
#759 = ORIENTED_EDGE ( 'NONE', *, *, #789, .T. ) ;
#760 = VECTOR ( 'NONE', #819, 39.37007874015748143 ) ;
#761 = CARTESIAN_POINT ( 'NONE',  ( 0.9400000000000003908, -14.15000000000000213, -0.1050000000000007733 ) ) ;
#762 = VECTOR ( 'NONE', #173, 39.37007874015748143 ) ;
#763 = ORIENTED_EDGE ( 'NONE', *, *, #310, .F. ) ;
#764 = CARTESIAN_POINT ( 'NONE',  ( 0.7800000000000004707, 13.96999999999999709, 0.000000000000000000 ) ) ;
#765 = ORIENTED_EDGE ( 'NONE', *, *, #680, .T. ) ;
#766 = FACE_OUTER_BOUND ( 'NONE', #140, .T. ) ;
#767 = EDGE_LOOP ( 'NONE', ( #759, #705, #577, #69 ) ) ;
#768 = DIRECTION ( 'NONE',  ( 0.000000000000000000, 0.000000000000000000, 1.000000000000000000 ) ) ;
#769 = EDGE_LOOP ( 'NONE', ( #284, #396, #829, #327 ) ) ;
#770 = EDGE_CURVE ( 'NONE', #815, #698, #142, .T. ) ;
#771 = ORIENTED_EDGE ( 'NONE', *, *, #310, .T. ) ;
#772 = FACE_OUTER_BOUND ( 'NONE', #670, .T. ) ;
#773 = VERTEX_POINT ( 'NONE', #693 ) ;
#774 = VECTOR ( 'NONE', #441, 39.37007874015748143 ) ;
#775 = LINE ( 'NONE', #629, #793 ) ;
#776 = VERTEX_POINT ( 'NONE', #184 ) ;
#777 =( GEOMETRIC_REPRESENTATION_CONTEXT ( 3 ) GLOBAL_UNCERTAINTY_ASSIGNED_CONTEXT ( ( #63 ) ) GLOBAL_UNIT_ASSIGNED_CONTEXT ( ( #151, #183, #264 ) ) REPRESENTATION_CONTEXT ( 'NONE', 'WORKASPACE' ) );
#778 = LINE ( 'NONE', #639, #49 ) ;
#779 = AXIS2_PLACEMENT_3D ( 'NONE', #475, #425, #732 ) ;
#780 = AXIS2_PLACEMENT_3D ( 'NONE', #753, #82, #439 ) ;
#781 = ORIENTED_EDGE ( 'NONE', *, *, #11, .T. ) ;
#782 = CARTESIAN_POINT ( 'NONE',  ( -1.100000000000000755, 0.3799999999999997824, -0.1050000000000007733 ) ) ;
#783 = MANIFOLD_SOLID_BREP ( 'Cortar-Extruir1', #792 ) ;
#784 = CARTESIAN_POINT ( 'NONE',  ( 0.9400000000000003908, 14.14999999999999858, -0.1050000000000007733 ) ) ;
#785 = ADVANCED_FACE ( 'NONE', ( #910 ), #241, .F. ) ;
#786 =( LENGTH_UNIT ( ) NAMED_UNIT ( * ) SI_UNIT ( $, .METRE. ) );
#787 = CARTESIAN_POINT ( 'NONE',  ( -1.100000000000000755, -0.3800000000000041678, -0.1050000000000007733 ) ) ;
#788 = VECTOR ( 'NONE', #658, 39.37007874015748143 ) ;
#789 = EDGE_CURVE ( 'NONE', #689, #676, #924, .T. ) ;
#790 = CARTESIAN_POINT ( 'NONE',  ( 0.9400000000000003908, -13.97000000000000242, -0.1049999999999999961 ) ) ;
#791 = CARTESIAN_POINT ( 'NONE',  ( 1.229999999999999316, 14.49999999999999822, 0.1050000000000015227 ) ) ;
#792 = CLOSED_SHELL ( 'NONE', ( #540, #494, #85, #46, #567, #261, #347, #125, #813, #354, #448, #662, #847, #806, #334, #186, #600, #267, #318, #785, #722, #821, #597, #415, #304, #872, #735, #497, #853, #864 ) ) ;
#793 = VECTOR ( 'NONE', #92, 39.37007874015748143 ) ;
#794 = CARTESIAN_POINT ( 'NONE',  ( -1.440000000000000835, -14.50000000000000355, -0.1049999999999999961 ) ) ;
#795 = EDGE_CURVE ( 'NONE', #878, #609, #127, .T. ) ;
#796 = DIRECTION ( 'NONE',  ( -0.000000000000000000, -0.000000000000000000, 1.000000000000000000 ) ) ;
#797 = EDGE_CURVE ( 'NONE', #894, #630, #351, .T. ) ;
#798 = DIRECTION ( 'NONE',  ( -1.000000000000000000, 0.000000000000000000, -0.000000000000000000 ) ) ;
#799 = ORIENTED_EDGE ( 'NONE', *, *, #29, .F. ) ;
#800 = EDGE_CURVE ( 'NONE', #689, #465, #775, .T. ) ;
#801 = PRODUCT_DEFINITION_FORMATION_WITH_SPECIFIED_SOURCE ( 'ANY', '', #654, .NOT_KNOWN. ) ;
#802 = LINE ( 'NONE', #576, #272 ) ;
#803 = ORIENTED_EDGE ( 'NONE', *, *, #251, .F. ) ;
#804 = DIRECTION ( 'NONE',  ( 0.000000000000000000, -1.000000000000000000, 0.000000000000000000 ) ) ;
#805 = DIRECTION ( 'NONE',  ( -0.000000000000000000, -1.000000000000000000, -0.000000000000000000 ) ) ;
#806 = ADVANCED_FACE ( 'NONE', ( #406 ), #921, .T. ) ;
#807 = DIRECTION ( 'NONE',  ( 0.000000000000000000, 0.000000000000000000, 1.000000000000000000 ) ) ;
#808 = EDGE_LOOP ( 'NONE', ( #820, #150, #557, #631 ) ) ;
#809 = CARTESIAN_POINT ( 'NONE',  ( -1.214000000000000634, 10.49999999999999822, 0.000000000000000000 ) ) ;
#810 = CARTESIAN_POINT ( 'NONE',  ( -1.214000000000000634, 0.3799999999999997824, 0.000000000000000000 ) ) ;
#811 = CARTESIAN_POINT ( 'NONE',  ( -1.440000000000000835, -14.50000000000000355, 0.000000000000000000 ) ) ;
#812 = EDGE_LOOP ( 'NONE', ( #603, #898, #514, #838 ) ) ;
#813 = ADVANCED_FACE ( 'NONE', ( #413 ), #199, .T. ) ;
#814 = DIRECTION ( 'NONE',  ( 1.000000000000000000, 0.000000000000000000, 0.000000000000000000 ) ) ;
#815 = VERTEX_POINT ( 'NONE', #569 ) ;
#816 = FACE_OUTER_BOUND ( 'NONE', #22, .T. ) ;
#817 = DIRECTION ( 'NONE',  ( 1.000000000000000000, 0.000000000000000000, 0.000000000000000000 ) ) ;
#818 = EDGE_LOOP ( 'NONE', ( #366, #771, #129, #163 ) ) ;
#819 = DIRECTION ( 'NONE',  ( -0.000000000000000000, -0.000000000000000000, 1.000000000000000000 ) ) ;
#820 = ORIENTED_EDGE ( 'NONE', *, *, #146, .F. ) ;
#821 = ADVANCED_FACE ( 'NONE', ( #120 ), #865, .F. ) ;
#822 = ORIENTED_EDGE ( 'NONE', *, *, #486, .F. ) ;
#823 = PLANE ( 'NONE',  #316 ) ;
#824 = ORIENTED_EDGE ( 'NONE', *, *, #326, .F. ) ;
#825 = DIRECTION ( 'NONE',  ( 0.000000000000000000, 1.000000000000000000, 8.130499981143642996E-17 ) ) ;
#826 = EDGE_CURVE ( 'NONE', #734, #91, #195, .T. ) ;
#827 = CARTESIAN_POINT ( 'NONE',  ( -1.214000000000000856, -10.50000000000000178, -0.1050000000000007733 ) ) ;
#828 = DIRECTION ( 'NONE',  ( 9.772579826042061982E-32, 1.000000000000000000, 2.826049648618203287E-17 ) ) ;
#829 = ORIENTED_EDGE ( 'NONE', *, *, #423, .T. ) ;
#830 = DIRECTION ( 'NONE',  ( 1.000000000000000000, 0.000000000000000000, 0.000000000000000000 ) ) ;
#831 = EDGE_LOOP ( 'NONE', ( #438, #740, #549, #228 ) ) ;
#832 = FACE_BOUND ( 'NONE', #525, .T. ) ;
#833 = ORIENTED_EDGE ( 'NONE', *, *, #961, .F. ) ;
#834 =( NAMED_UNIT ( * ) PLANE_ANGLE_UNIT ( ) SI_UNIT ( $, .RADIAN. ) );
#835 = VECTOR ( 'NONE', #862, 39.37007874015748143 ) ;
#836 = DIRECTION ( 'NONE',  ( 1.000000000000000000, 0.000000000000000000, 0.000000000000000000 ) ) ;
#837 = EDGE_CURVE ( 'NONE', #221, #399, #869, .T. ) ;
#838 = ORIENTED_EDGE ( 'NONE', *, *, #592, .F. ) ;
#839 = SURFACE_STYLE_FILL_AREA ( #95 ) ;
#840 = AXIS2_PLACEMENT_3D ( 'NONE', #787, #859, #182 ) ;
#841 = VERTEX_POINT ( 'NONE', #790 ) ;
#842 = CARTESIAN_POINT ( 'NONE',  ( 0.6200000000000004396, -14.15000000000000213, 0.000000000000000000 ) ) ;
#843 = AXIS2_PLACEMENT_3D ( 'NONE', #54, #338, #342 ) ;
#844 = ORIENTED_EDGE ( 'NONE', *, *, #935, .T. ) ;
#845 = CARTESIAN_POINT ( 'NONE',  ( 1.229999999999999316, 14.49999999999999822, 0.1050000000000015227 ) ) ;
#846 = EDGE_LOOP ( 'NONE', ( #485, #539, #870, #748 ) ) ;
#847 = ADVANCED_FACE ( 'NONE', ( #648 ), #203, .F. ) ;
#848 = FACE_BOUND ( 'NONE', #65, .T. ) ;
#849 = CARTESIAN_POINT ( 'NONE',  ( 1.440000000000000391, -14.50000000000000355, 0.3950000000000000178 ) ) ;
#850 = DIRECTION ( 'NONE',  ( 1.000000000000000000, 0.000000000000000000, 0.000000000000000000 ) ) ;
#851 = VERTEX_POINT ( 'NONE', #715 ) ;
#852 = VECTOR ( 'NONE', #358, 39.37007874015748143 ) ;
#853 = ADVANCED_FACE ( 'NONE', ( #271 ), #657, .F. ) ;
#854 = FACE_OUTER_BOUND ( 'NONE', #625, .T. ) ;
#855 = MECHANICAL_DESIGN_GEOMETRIC_PRESENTATION_REPRESENTATION (  '', ( #428 ), #913 ) ;
#856 = FACE_OUTER_BOUND ( 'NONE', #831, .T. ) ;
#857 = EDGE_CURVE ( 'NONE', #851, #88, #802, .T. ) ;
#858 = CARTESIAN_POINT ( 'NONE',  ( 0.9400000000000003908, -14.15000000000000213, -0.1050000000000007733 ) ) ;
#859 = DIRECTION ( 'NONE',  ( 0.000000000000000000, 0.000000000000000000, 1.000000000000000000 ) ) ;
#860 = CARTESIAN_POINT ( 'NONE',  ( -0.9860000000000007647, 0.3799999999999997824, -0.1050000000000007733 ) ) ;
#861 = AXIS2_PLACEMENT_3D ( 'NONE', #561, #192, #500 ) ;
#862 = DIRECTION ( 'NONE',  ( -0.000000000000000000, 1.000000000000000000, -0.000000000000000000 ) ) ;
#863 = VECTOR ( 'NONE', #544, 39.37007874015748143 ) ;
#864 = ADVANCED_FACE ( 'NONE', ( #269 ), #128, .F. ) ;
#865 = PLANE ( 'NONE',  #323 ) ;
#866 = CIRCLE ( 'NONE', #149, 0.1139999999999999347 ) ;
#867 = DIRECTION ( 'NONE',  ( 1.000000000000000000, 0.000000000000000000, 0.000000000000000000 ) ) ;
#868 = CIRCLE ( 'NONE', #416, 0.1139999999999999347 ) ;
#869 = LINE ( 'NONE', #860, #23 ) ;
#870 = ORIENTED_EDGE ( 'NONE', *, *, #138, .F. ) ;
#871 = CYLINDRICAL_SURFACE ( 'NONE', #72, 0.1139999999999999347 ) ;
#872 = ADVANCED_FACE ( 'NONE', ( #426 ), #113, .F. ) ;
#873 = DIRECTION ( 'NONE',  ( 1.000000000000000000, 0.000000000000000000, 0.000000000000000000 ) ) ;
#874 = CARTESIAN_POINT ( 'NONE',  ( -1.214000000000000856, -0.3800000000000041678, -0.1050000000000007733 ) ) ;
#875 = ORIENTED_EDGE ( 'NONE', *, *, #68, .T. ) ;
#876 = CIRCLE ( 'NONE', #370, 0.1139999999999999347 ) ;
#877 = LINE ( 'NONE', #414, #197 ) ;
#878 = VERTEX_POINT ( 'NONE', #729 ) ;
#879 = DIRECTION ( 'NONE',  ( 0.000000000000000000, 0.000000000000000000, 1.000000000000000000 ) ) ;
#880 = CYLINDRICAL_SURFACE ( 'NONE', #194, 0.1599999999999999201 ) ;
#881 = LINE ( 'NONE', #296, #188 ) ;
#882 = ORIENTED_EDGE ( 'NONE', *, *, #592, .T. ) ;
#883 = DIRECTION ( 'NONE',  ( 1.000000000000000000, 0.000000000000000000, 0.000000000000000000 ) ) ;
#884 = DIRECTION ( 'NONE',  ( 0.000000000000000000, 0.000000000000000000, -1.000000000000000000 ) ) ;
#885 = DIRECTION ( 'NONE',  ( 1.000000000000000000, 0.000000000000000000, 0.000000000000000000 ) ) ;
#886 = ORIENTED_EDGE ( 'NONE', *, *, #770, .T. ) ;
#887 = LINE ( 'NONE', #741, #641 ) ;
#888 = AXIS2_PLACEMENT_3D ( 'NONE', #148, #460, #511 ) ;
#889 = LINE ( 'NONE', #874, #484 ) ;
#890 = AXIS2_PLACEMENT_3D ( 'NONE', #79, #521, #885 ) ;
#891 = VERTEX_POINT ( 'NONE', #794 ) ;
#892 = LINE ( 'NONE', #537, #89 ) ;
#893 = ORIENTED_EDGE ( 'NONE', *, *, #920, .F. ) ;
#894 = VERTEX_POINT ( 'NONE', #718 ) ;
#895 = DIRECTION ( 'NONE',  ( -1.000000000000000000, 0.000000000000000000, 3.491481338843132961E-15 ) ) ;
#896 = VECTOR ( 'NONE', #256, 39.37007874015748143 ) ;
#897 = FACE_OUTER_BOUND ( 'NONE', #519, .T. ) ;
#898 = ORIENTED_EDGE ( 'NONE', *, *, #457, .T. ) ;
#899 = DIRECTION ( 'NONE',  ( 1.000000000000000000, 0.000000000000000000, 0.000000000000000000 ) ) ;
#900 = EDGE_LOOP ( 'NONE', ( #218, #407 ) ) ;
#901 = DIRECTION ( 'NONE',  ( 0.000000000000000000, -0.000000000000000000, -1.000000000000000000 ) ) ;
#902 = ORIENTED_EDGE ( 'NONE', *, *, #278, .F. ) ;
#903 = DIRECTION ( 'NONE',  ( -1.000000000000000000, 0.000000000000000000, 0.000000000000000000 ) ) ;
#904 = ORIENTED_EDGE ( 'NONE', *, *, #430, .T. ) ;
#905 = ORIENTED_EDGE ( 'NONE', *, *, #837, .T. ) ;
#906 = EDGE_CURVE ( 'NONE', #359, #891, #723, .T. ) ;
#907 = FACE_BOUND ( 'NONE', #53, .T. ) ;
#908 = AXIS2_PLACEMENT_3D ( 'NONE', #435, #727, #369 ) ;
#909 = ORIENTED_EDGE ( 'NONE', *, *, #797, .T. ) ;
#910 = FACE_OUTER_BOUND ( 'NONE', #384, .T. ) ;
#911 = ORIENTED_EDGE ( 'NONE', *, *, #656, .T. ) ;
#912 = CIRCLE ( 'NONE', #779, 0.1139999999999999347 ) ;
#913 =( GEOMETRIC_REPRESENTATION_CONTEXT ( 3 ) GLOBAL_UNCERTAINTY_ASSIGNED_CONTEXT ( ( #443 ) ) GLOBAL_UNIT_ASSIGNED_CONTEXT ( ( #237, #834, #555 ) ) REPRESENTATION_CONTEXT ( 'NONE', 'WORKASPACE' ) );
#914 = PLANE ( 'NONE',  #409 ) ;
#915 = ORIENTED_EDGE ( 'NONE', *, *, #656, .F. ) ;
#916 = CARTESIAN_POINT ( 'NONE',  ( -1.100000000000000755, -0.3800000000000041678, -0.1050000000000007733 ) ) ;
#917 = AXIS2_PLACEMENT_3D ( 'NONE', #791, #932, #647 ) ;
#918 = CARTESIAN_POINT ( 'NONE',  ( -1.440000000000000835, 14.49999999999999822, 0.000000000000000000 ) ) ;
#919 = VERTEX_POINT ( 'NONE', #40 ) ;
#920 = EDGE_CURVE ( 'NONE', #583, #720, #101, .T. ) ;
#921 = PLANE ( 'NONE',  #622 ) ;
#922 = EDGE_LOOP ( 'NONE', ( #76, #108, #174, #660 ) ) ;
#923 = DIRECTION ( 'NONE',  ( -0.000000000000000000, -0.000000000000000000, 1.000000000000000000 ) ) ;
#924 = LINE ( 'NONE', #106, #863 ) ;
#925 = EDGE_CURVE ( 'NONE', #405, #954, #48, .T. ) ;
#926 = AXIS2_PLACEMENT_3D ( 'NONE', #929, #552, #25 ) ;
#927 = ORIENTED_EDGE ( 'NONE', *, *, #297, .F. ) ;
#928 = DIRECTION ( 'NONE',  ( 1.000000000000000000, 0.000000000000000000, -3.491481338843132961E-15 ) ) ;
#929 = CARTESIAN_POINT ( 'NONE',  ( 0.000000000000000000, 0.000000000000000000, 0.000000000000000000 ) ) ;
#930 = AXIS2_PLACEMENT_3D ( 'NONE', #678, #239, #901 ) ;
#931 = DIRECTION ( 'NONE',  ( -0.000000000000000000, -1.000000000000000000, -0.000000000000000000 ) ) ;
#932 = DIRECTION ( 'NONE',  ( 0.000000000000000000, 1.000000000000000000, 8.130499981143642996E-17 ) ) ;
#933 = CARTESIAN_POINT ( 'NONE',  ( -1.440000000000000835, -14.50000000000000355, -0.1049999999999999961 ) ) ;
#934 = LINE ( 'NONE', #560, #355 ) ;
#935 = EDGE_CURVE ( 'NONE', #483, #368, #936, .T. ) ;
#936 = LINE ( 'NONE', #940, #684 ) ;
#937 = AXIS2_PLACEMENT_3D ( 'NONE', #273, #571, #867 ) ;
#938 = PRODUCT_RELATED_PRODUCT_CATEGORY ( 'part', '', ( #654 ) ) ;
#939 = VECTOR ( 'NONE', #422, 39.37007874015748143 ) ;
#940 = CARTESIAN_POINT ( 'NONE',  ( 0.9400000000000003908, -14.15000000000000213, -0.1050000000000007733 ) ) ;
#941 = VECTOR ( 'NONE', #836, 39.37007874015748143 ) ;
#942 = LINE ( 'NONE', #356, #427 ) ;
#943 = CARTESIAN_POINT ( 'NONE',  ( -0.9860000000000007647, 0.3799999999999997824, -0.1050000000000007733 ) ) ;
#944 = DIRECTION ( 'NONE',  ( -0.000000000000000000, 0.000000000000000000, 1.000000000000000000 ) ) ;
#945 = EDGE_CURVE ( 'NONE', #320, #390, #424, .T. ) ;
#946 = DIRECTION ( 'NONE',  ( -0.000000000000000000, -0.000000000000000000, 1.000000000000000000 ) ) ;
#947 = CIRCLE ( 'NONE', #236, 0.1139999999999999347 ) ;
#948 = DIRECTION ( 'NONE',  ( 1.000000000000000000, 0.000000000000000000, 0.000000000000000000 ) ) ;
#949 = ORIENTED_EDGE ( 'NONE', *, *, #636, .T. ) ;
#950 = CARTESIAN_POINT ( 'NONE',  ( 0.9400000000000003908, -14.15000000000000213, -0.1050000000000007733 ) ) ;
#951 = DIRECTION ( 'NONE',  ( -0.000000000000000000, -0.000000000000000000, 1.000000000000000000 ) ) ;
#952 = AXIS2_PLACEMENT_3D ( 'NONE', #447, #671, #595 ) ;
#953 = CARTESIAN_POINT ( 'NONE',  ( 1.440000000000000391, 14.49999999999999822, 0.3950000000000000178 ) ) ;
#954 = VERTEX_POINT ( 'NONE', #348 ) ;
#955 = CARTESIAN_POINT ( 'NONE',  ( 0.6200000000000004396, -13.97000000000000242, -0.1050000000000007733 ) ) ;
#956 = DIRECTION ( 'NONE',  ( 0.000000000000000000, 0.000000000000000000, 1.000000000000000000 ) ) ;
#957 = ORIENTED_EDGE ( 'NONE', *, *, #666, .T. ) ;
#958 = CARTESIAN_POINT ( 'NONE',  ( 1.229999999999999316, 14.49999999999999822, 1.553738546396549792E-15 ) ) ;
#959 = ORIENTED_EDGE ( 'NONE', *, *, #857, .T. ) ;
#960 = FACE_BOUND ( 'NONE', #454, .T. ) ;
#961 = EDGE_CURVE ( 'NONE', #697, #282, #509, .T. ) ;
#962 = VERTEX_POINT ( 'NONE', #918 ) ;
#963 = CYLINDRICAL_SURFACE ( 'NONE', #5, 0.2100000000000000755 ) ;
#964 = ORIENTED_EDGE ( 'NONE', *, *, #68, .F. ) ;
#965 = VERTEX_POINT ( 'NONE', #849 ) ;
ENDSEC;
END-ISO-10303-21;
