ISO-10303-21;
HEADER;
FILE_DESCRIPTION (( 'STEP AP214' ),
    '1' );
FILE_NAME ('11-A-6015-01-(16gacr ANSI-61) - K48 - V3-R0.STEP',
    '2026-08-03T22:12:55',
    ( '' ),
    ( '' ),
    'SwSTEP 2.0',
    'SolidWorks 2024',
    '' );
FILE_SCHEMA (( 'AUTOMOTIVE_DESIGN' ));
ENDSEC;

DATA;
#1 = DIRECTION ( 'NONE',  ( 0.000000000000000000, -1.000000000000000000, -0.000000000000000000 ) ) ;
#2 = ORIENTED_EDGE ( 'NONE', *, *, #237, .T. ) ;
#3 = CARTESIAN_POINT ( 'NONE',  ( -8.284999999999998366, -22.22000000000000242, -1.930000000000000160 ) ) ;
#4 = EDGE_CURVE ( 'NONE', #657, #280, #278, .T. ) ;
#5 = DIRECTION ( 'NONE',  ( 1.000000000000000000, 0.000000000000000000, 4.553079989440363361E-15 ) ) ;
#6 = ORIENTED_EDGE ( 'NONE', *, *, #910, .T. ) ;
#7 = CYLINDRICAL_SURFACE ( 'NONE', #1207, 0.1549999999999998601 ) ;
#8 = ORIENTED_EDGE ( 'NONE', *, *, #4, .T. ) ;
#9 = CARTESIAN_POINT ( 'NONE',  ( 8.285000000000003695, -22.41000000000000369, -0.7500000000000003331 ) ) ;
#10 = PLANE ( 'NONE',  #1196 ) ;
#11 = VERTEX_POINT ( 'NONE', #49 ) ;
#12 = AXIS2_PLACEMENT_3D ( 'NONE', #764, #1178, #651 ) ;
#13 = CARTESIAN_POINT ( 'NONE',  ( -8.404999999999997584, -22.22000000000000242, -0.7500000000000001110 ) ) ;
#14 = ORIENTED_EDGE ( 'NONE', *, *, #1276, .T. ) ;
#15 = CARTESIAN_POINT ( 'NONE',  ( 8.405000000000001137, 22.22000000000000242, -0.1199999999999989964 ) ) ;
#16 = FACE_OUTER_BOUND ( 'NONE', #1095, .T. ) ;
#17 = ORIENTED_EDGE ( 'NONE', *, *, #43, .T. ) ;
#18 = EDGE_CURVE ( 'NONE', #1229, #1068, #1301, .T. ) ;
#19 = DIRECTION ( 'NONE',  ( -3.167359992654216647E-15, 0.000000000000000000, -1.000000000000000000 ) ) ;
#20 = AXIS2_PLACEMENT_3D ( 'NONE', #780, #1195, #1072 ) ;
#21 = ORIENTED_EDGE ( 'NONE', *, *, #313, .F. ) ;
#22 = PLANE ( 'NONE',  #1092 ) ;
#23 = CARTESIAN_POINT ( 'NONE',  ( 8.285000000000001918, -22.38216115034698106, -0.1199999999999994543 ) ) ;
#24 = ORIENTED_EDGE ( 'NONE', *, *, #892, .F. ) ;
#25 = EDGE_CURVE ( 'NONE', #1253, #805, #772, .T. ) ;
#26 = DIRECTION ( 'NONE',  ( 0.000000000000000000, 3.491481338843134539E-15, -1.000000000000000000 ) ) ;
#27 = VERTEX_POINT ( 'NONE', #781 ) ;
#28 = PLANE ( 'NONE',  #860 ) ;
#29 = VECTOR ( 'NONE', #450, 39.37007874015748143 ) ;
#30 = DIRECTION ( 'NONE',  ( 0.000000000000000000, 1.000000000000000000, 0.000000000000000000 ) ) ;
#31 = ORIENTED_EDGE ( 'NONE', *, *, #219, .T. ) ;
#32 = CARTESIAN_POINT ( 'NONE',  ( 8.405000000000001137, 22.22000000000000242, -0.7500000000000001110 ) ) ;
#33 = ADVANCED_FACE ( 'NONE', ( #151 ), #1184, .T. ) ;
#34 = LINE ( 'NONE', #569, #29 ) ;
#35 = EDGE_CURVE ( 'NONE', #374, #590, #896, .T. ) ;
#36 = LINE ( 'NONE', #871, #891 ) ;
#37 = AXIS2_PLACEMENT_3D ( 'NONE', #1230, #162, #792 ) ;
#38 = DIRECTION ( 'NONE',  ( 1.000000000000000000, -0.000000000000000000, -0.000000000000000000 ) ) ;
#39 = VECTOR ( 'NONE', #38, 39.37007874015748143 ) ;
#40 = DIRECTION ( 'NONE',  ( -1.000000000000000000, 0.000000000000000000, -3.491481338843134539E-15 ) ) ;
#41 = FACE_OUTER_BOUND ( 'NONE', #303, .T. ) ;
#42 = CARTESIAN_POINT ( 'NONE',  ( -8.405000000000001137, 22.22000000000000242, -1.930000000000000160 ) ) ;
#43 = EDGE_CURVE ( 'NONE', #445, #438, #1191, .T. ) ;
#44 = CARTESIAN_POINT ( 'NONE',  ( 8.065000000000003055, 16.25000000000000000, 0.000000000000000000 ) ) ;
#45 = VECTOR ( 'NONE', #1053, 39.37007874015748143 ) ;
#46 = CARTESIAN_POINT ( 'NONE',  ( 8.065000000000003055, 16.25000000000000000, -0.05999999999999990757 ) ) ;
#47 = AXIS2_PLACEMENT_3D ( 'NONE', #577, #1188, #987 ) ;
#48 = CARTESIAN_POINT ( 'NONE',  ( 8.285000000000000142, 22.46999999999999886, -1.930000000000000160 ) ) ;
#49 = CARTESIAN_POINT ( 'NONE',  ( 7.909000000000003361, -17.50000000000000000, -0.05999999999999990757 ) ) ;
#50 = EDGE_LOOP ( 'NONE', ( #272, #275 ) ) ;
#51 = FACE_OUTER_BOUND ( 'NONE', #92, .T. ) ;
#52 = EDGE_CURVE ( 'NONE', #1341, #287, #361, .T. ) ;
#53 = CARTESIAN_POINT ( 'NONE',  ( 8.405000000000001137, -22.46999999999999886, -0.1199999999999972478 ) ) ;
#54 = DIRECTION ( 'NONE',  ( 0.000000000000000000, -0.000000000000000000, -1.000000000000000000 ) ) ;
#55 = CARTESIAN_POINT ( 'NONE',  ( -8.285000000000001918, 22.41000000000000014, -0.1199999999999979972 ) ) ;
#56 = ORIENTED_EDGE ( 'NONE', *, *, #350, .T. ) ;
#57 = EDGE_CURVE ( 'NONE', #728, #1260, #869, .T. ) ;
#58 = LINE ( 'NONE', #498, #270 ) ;
#59 = ORIENTED_EDGE ( 'NONE', *, *, #872, .T. ) ;
#60 = CARTESIAN_POINT ( 'NONE',  ( -8.345000000000000639, -9.233816427182950967E-16, -0.7499999999999975575 ) ) ;
#61 = DIRECTION ( 'NONE',  ( -3.167359992654216647E-15, 0.000000000000000000, 1.000000000000000000 ) ) ;
#62 = ORIENTED_EDGE ( 'NONE', *, *, #107, .F. ) ;
#63 = LINE ( 'NONE', #697, #231 ) ;
#64 = EDGE_CURVE ( 'NONE', #297, #71, #1103, .T. ) ;
#65 = DIRECTION ( 'NONE',  ( 1.000000000000000000, 0.000000000000000000, 0.000000000000000000 ) ) ;
#66 = ORIENTED_EDGE ( 'NONE', *, *, #1043, .T. ) ;
#67 = CARTESIAN_POINT ( 'NONE',  ( -8.285000000000003695, 22.38216115034698106, -3.909957440931976645E-15 ) ) ;
#68 = LINE ( 'NONE', #487, #265 ) ;
#69 = ORIENTED_EDGE ( 'NONE', *, *, #595, .F. ) ;
#70 = CARTESIAN_POINT ( 'NONE',  ( -8.065000000000001279, 16.25000000000000000, 0.000000000000000000 ) ) ;
#71 = VERTEX_POINT ( 'NONE', #1100 ) ;
#72 = CARTESIAN_POINT ( 'NONE',  ( -8.404999999999997584, -22.22000000000000242, -1.930000000000000160 ) ) ;
#73 = EDGE_CURVE ( 'NONE', #244, #1253, #1088, .T. ) ;
#74 = AXIS2_PLACEMENT_3D ( 'NONE', #1169, #346, #775 ) ;
#75 = CARTESIAN_POINT ( 'NONE',  ( -8.285000000000003695, 22.35000000000000142, -0.03000300000000391890 ) ) ;
#76 = VERTEX_POINT ( 'NONE', #559 ) ;
#77 = DIRECTION ( 'NONE',  ( -0.000000000000000000, -0.000000000000000000, 1.000000000000000000 ) ) ;
#78 = VECTOR ( 'NONE', #729, 39.37007874015748143 ) ;
#79 = DIRECTION ( 'NONE',  ( 0.000000000000000000, 1.000000000000000000, 1.707404996040198285E-15 ) ) ;
#80 = EDGE_LOOP ( 'NONE', ( #515, #301, #1307, #1159, #1345, #485 ) ) ;
#81 = CARTESIAN_POINT ( 'NONE',  ( -8.284999999999998366, -22.22000000000000242, 0.000000000000000000 ) ) ;
#82 = EDGE_CURVE ( 'NONE', #700, #914, #802, .T. ) ;
#83 = CARTESIAN_POINT ( 'NONE',  ( 8.317161150346981557, 22.35000000000000142, 8.195543980992789655E-16 ) ) ;
#84 = VECTOR ( 'NONE', #777, 39.37007874015748143 ) ;
#85 = EDGE_LOOP ( 'NONE', ( #284, #190, #435, #347 ) ) ;
#86 = FACE_OUTER_BOUND ( 'NONE', #239, .T. ) ;
#87 = VERTEX_POINT ( 'NONE', #55 ) ;
#88 = LINE ( 'NONE', #701, #658 ) ;
#89 = DIRECTION ( 'NONE',  ( -1.000000000000000000, 0.000000000000000000, -3.491481338843133750E-15 ) ) ;
#90 = AXIS2_PLACEMENT_3D ( 'NONE', #726, #1002, #1032 ) ;
#91 = ADVANCED_FACE ( 'NONE', ( #889 ), #873, .F. ) ;
#92 = EDGE_LOOP ( 'NONE', ( #460, #717, #1027, #899, #387, #337, #1135, #861 ) ) ;
#93 = AXIS2_PLACEMENT_3D ( 'NONE', #491, #1326, #699 ) ;
#94 = LINE ( 'NONE', #848, #564 ) ;
#95 = ORIENTED_EDGE ( 'NONE', *, *, #872, .F. ) ;
#96 = DIRECTION ( 'NONE',  ( 0.000000000000000000, 0.000000000000000000, 1.000000000000000000 ) ) ;
#97 = CARTESIAN_POINT ( 'NONE',  ( 8.404999999999999361, 22.22000000000000242, -0.7500000000000001110 ) ) ;
#98 = VERTEX_POINT ( 'NONE', #773 ) ;
#99 = ADVANCED_FACE ( 'NONE', ( #251 ), #1212, .F. ) ;
#100 = DIRECTION ( 'NONE',  ( -5.463695987328679318E-14, 0.000000000000000000, 1.000000000000000000 ) ) ;
#101 = ORIENTED_EDGE ( 'NONE', *, *, #1034, .F. ) ;
#102 = DIRECTION ( 'NONE',  ( -0.000000000000000000, -0.000000000000000000, 1.000000000000000000 ) ) ;
#103 = VECTOR ( 'NONE', #263, 39.37007874015748143 ) ;
#104 = DIRECTION ( 'NONE',  ( 0.000000000000000000, 0.000000000000000000, -1.000000000000000000 ) ) ;
#105 = ORIENTED_EDGE ( 'NONE', *, *, #245, .F. ) ;
#106 = CARTESIAN_POINT ( 'NONE',  ( -8.404999999999997584, -1.021859474265607474E-15, 2.683114961858927593E-14 ) ) ;
#107 = EDGE_CURVE ( 'NONE', #438, #87, #973, .T. ) ;
#108 = ORIENTED_EDGE ( 'NONE', *, *, #378, .T. ) ;
#109 = DIRECTION ( 'NONE',  ( -4.370956789862844815E-15, 1.000000000000000000, 0.000000000000000000 ) ) ;
#110 = FACE_OUTER_BOUND ( 'NONE', #469, .T. ) ;
#111 = EDGE_CURVE ( 'NONE', #543, #1308, #924, .T. ) ;
#112 = AXIS2_PLACEMENT_3D ( 'NONE', #1093, #670, #970 ) ;
#113 = ORIENTED_EDGE ( 'NONE', *, *, #983, .F. ) ;
#114 = PRESENTATION_LAYER_ASSIGNMENT (  '', '', ( #877 ) ) ;
#115 = LINE ( 'NONE', #1136, #1083 ) ;
#116 = EDGE_LOOP ( 'NONE', ( #291, #1015, #811, #740 ) ) ;
#117 = CARTESIAN_POINT ( 'NONE',  ( -8.285000000000001918, 22.46999999999999886, -1.930000000000000160 ) ) ;
#118 = CARTESIAN_POINT ( 'NONE',  ( 8.221000000000003638, -17.50000000000000000, -1.930000000000000160 ) ) ;
#119 = EDGE_CURVE ( 'NONE', #1030, #1143, #189, .T. ) ;
#120 = CIRCLE ( 'NONE', #295, 0.1560000000000001941 ) ;
#121 = ORIENTED_EDGE ( 'NONE', *, *, #614, .T. ) ;
#122 = VECTOR ( 'NONE', #659, 39.37007874015748143 ) ;
#123 = CARTESIAN_POINT ( 'NONE',  ( 8.220000000000004192, 16.25000000000000000, -0.05999999999999990757 ) ) ;
#124 = ORIENTED_EDGE ( 'NONE', *, *, #237, .F. ) ;
#125 = CYLINDRICAL_SURFACE ( 'NONE', #1119, 0.05999999999999881123 ) ;
#126 = DIRECTION ( 'NONE',  ( 1.000000000000000000, 0.000000000000000000, 3.130242492740391658E-15 ) ) ;
#127 = EDGE_CURVE ( 'NONE', #1143, #438, #1010, .T. ) ;
#128 = ORIENTED_EDGE ( 'NONE', *, *, #1167, .F. ) ;
#129 = DIRECTION ( 'NONE',  ( -0.000000000000000000, 0.000000000000000000, 1.000000000000000000 ) ) ;
#130 = VECTOR ( 'NONE', #366, 39.37007874015748143 ) ;
#131 = VERTEX_POINT ( 'NONE', #930 ) ;
#132 = LINE ( 'NONE', #1298, #919 ) ;
#133 = DIRECTION ( 'NONE',  ( -0.000000000000000000, 0.000000000000000000, 1.000000000000000000 ) ) ;
#134 = VERTEX_POINT ( 'NONE', #501 ) ;
#135 = EDGE_CURVE ( 'NONE', #1173, #398, #385, .T. ) ;
#136 = DIRECTION ( 'NONE',  ( 3.491481338843134539E-15, -1.215775698114932944E-16, -1.000000000000000000 ) ) ;
#137 = ADVANCED_FACE ( 'NONE', ( #702 ), #1113, .F. ) ;
#138 = VERTEX_POINT ( 'NONE', #1344 ) ;
#139 = DIRECTION ( 'NONE',  ( -0.000000000000000000, -0.000000000000000000, 1.000000000000000000 ) ) ;
#140 = CARTESIAN_POINT ( 'NONE',  ( 0.000000000000000000, 22.41000000000000014, 1.423411580698805134E-13 ) ) ;
#141 = EDGE_LOOP ( 'NONE', ( #1192, #56, #394, #128 ) ) ;
#142 = CARTESIAN_POINT ( 'NONE',  ( 8.285000000000000142, 22.41000000000000014, 1.423411580698805134E-13 ) ) ;
#143 = EDGE_CURVE ( 'NONE', #837, #657, #413, .T. ) ;
#144 = DIRECTION ( 'NONE',  ( -0.000000000000000000, -0.000000000000000000, 1.000000000000000000 ) ) ;
#145 = PLANE ( 'NONE',  #20 ) ;
#146 = AXIS2_PLACEMENT_3D ( 'NONE', #1035, #1, #100 ) ;
#147 = ORIENTED_EDGE ( 'NONE', *, *, #513, .T. ) ;
#148 = DIRECTION ( 'NONE',  ( -0.000000000000000000, 1.000000000000000000, -0.000000000000000000 ) ) ;
#149 = DIRECTION ( 'NONE',  ( 0.000000000000000000, 1.000000000000000000, -6.334719985308433293E-15 ) ) ;
#150 = DIRECTION ( 'NONE',  ( 0.000000000000000000, 0.000000000000000000, 1.000000000000000000 ) ) ;
#151 = FACE_OUTER_BOUND ( 'NONE', #1140, .T. ) ;
#152 = FACE_BOUND ( 'NONE', #948, .T. ) ;
#153 = CARTESIAN_POINT ( 'NONE',  ( -8.285000000000000142, 22.38216115034698106, -0.1200000000000005507 ) ) ;
#154 = CIRCLE ( 'NONE', #47, 0.1199999999999988159 ) ;
#155 = LINE ( 'NONE', #372, #1067 ) ;
#156 = AXIS2_PLACEMENT_3D ( 'NONE', #505, #898, #1097 ) ;
#157 = ADVANCED_FACE ( 'NONE', ( #1127 ), #401, .F. ) ;
#158 = CARTESIAN_POINT ( 'NONE',  ( -8.221000000000003638, -17.50000000000000355, -1.930000000000000160 ) ) ;
#159 =( GEOMETRIC_REPRESENTATION_CONTEXT ( 3 ) GLOBAL_UNCERTAINTY_ASSIGNED_CONTEXT ( ( #1078 ) ) GLOBAL_UNIT_ASSIGNED_CONTEXT ( ( #1325, #168, #273 ) ) REPRESENTATION_CONTEXT ( 'NONE', 'WORKASPACE' ) );
#160 = VERTEX_POINT ( 'NONE', #819 ) ;
#161 = DIRECTION ( 'NONE',  ( -2.768878733166376491E-29, 6.334719985308434871E-15, -1.000000000000000000 ) ) ;
#162 = DIRECTION ( 'NONE',  ( -0.000000000000000000, 0.000000000000000000, 1.000000000000000000 ) ) ;
#163 = ORIENTED_EDGE ( 'NONE', *, *, #547, .F. ) ;
#164 = DIRECTION ( 'NONE',  ( 1.000000000000000000, 0.000000000000000000, 0.000000000000000000 ) ) ;
#165 = ORIENTED_EDGE ( 'NONE', *, *, #607, .T. ) ;
#166 = ADVANCED_FACE ( 'NONE', ( #694 ), #293, .F. ) ;
#167 = ORIENTED_EDGE ( 'NONE', *, *, #1026, .F. ) ;
#168 =( NAMED_UNIT ( * ) PLANE_ANGLE_UNIT ( ) SI_UNIT ( $, .RADIAN. ) );
#169 = AXIS2_PLACEMENT_3D ( 'NONE', #599, #407, #1106 ) ;
#170 = DIRECTION ( 'NONE',  ( 1.000000000000000000, 0.000000000000000000, 0.000000000000000000 ) ) ;
#171 = ORIENTED_EDGE ( 'NONE', *, *, #588, .F. ) ;
#172 = DIRECTION ( 'NONE',  ( -0.000000000000000000, 1.000000000000000000, 0.000000000000000000 ) ) ;
#173 = CYLINDRICAL_SURFACE ( 'NONE', #397, 0.1199999999999965400 ) ;
#174 = ORIENTED_EDGE ( 'NONE', *, *, #1026, .T. ) ;
#175 = DIRECTION ( 'NONE',  ( 0.000000000000000000, 6.334719985308433293E-15, 1.000000000000000000 ) ) ;
#176 = EDGE_CURVE ( 'NONE', #267, #217, #307, .T. ) ;
#177 = CARTESIAN_POINT ( 'NONE',  ( 8.285000000000005471, -22.38216115034698106, -2.817218243466271358E-15 ) ) ;
#178 = ORIENTED_EDGE ( 'NONE', *, *, #18, .T. ) ;
#179 = CARTESIAN_POINT ( 'NONE',  ( 8.284999999999998366, 22.35000000000000142, -0.03000300000000282602 ) ) ;
#180 = CARTESIAN_POINT ( 'NONE',  ( -8.065000000000001279, 16.25000000000000000, -1.930000000000000160 ) ) ;
#181 = ORIENTED_EDGE ( 'NONE', *, *, #571, .T. ) ;
#182 = CARTESIAN_POINT ( 'NONE',  ( -8.285000000000001918, 22.46999999999999886, -1.930000000000000160 ) ) ;
#183 = AXIS2_PLACEMENT_3D ( 'NONE', #72, #172, #591 ) ;
#184 = DIRECTION ( 'NONE',  ( 0.000000000000000000, 0.000000000000000000, 1.000000000000000000 ) ) ;
#185 = ADVANCED_FACE ( 'NONE', ( #195 ), #173, .T. ) ;
#186 = EDGE_LOOP ( 'NONE', ( #113, #62, #1339, #1320 ) ) ;
#187 = LINE ( 'NONE', #809, #477 ) ;
#188 = VECTOR ( 'NONE', #1286, 39.37007874015748143 ) ;
#189 = LINE ( 'NONE', #83, #520 ) ;
#190 = ORIENTED_EDGE ( 'NONE', *, *, #1043, .F. ) ;
#191 = DIRECTION ( 'NONE',  ( -4.370956789862844815E-15, 1.000000000000000000, -0.000000000000000000 ) ) ;
#192 = ORIENTED_EDGE ( 'NONE', *, *, #1291, .T. ) ;
#193 = DIRECTION ( 'NONE',  ( 0.000000000000000000, 0.000000000000000000, -1.000000000000000000 ) ) ;
#194 = ADVANCED_FACE ( 'NONE', ( #1134 ), #201, .F. ) ;
#195 = FACE_OUTER_BOUND ( 'NONE', #730, .T. ) ;
#196 = VECTOR ( 'NONE', #969, 39.37007874015748143 ) ;
#197 = ORIENTED_EDGE ( 'NONE', *, *, #1126, .T. ) ;
#198 = DIRECTION ( 'NONE',  ( 0.000000000000000000, 1.000000000000000000, 0.000000000000000000 ) ) ;
#199 = ORIENTED_EDGE ( 'NONE', *, *, #1145, .T. ) ;
#200 = DIRECTION ( 'NONE',  ( 1.000000000000000000, 0.000000000000000000, 0.000000000000000000 ) ) ;
#201 = PLANE ( 'NONE',  #573 ) ;
#202 = ADVANCED_FACE ( 'NONE', ( #810 ), #710, .T. ) ;
#203 = ORIENTED_EDGE ( 'NONE', *, *, #73, .T. ) ;
#204 = VECTOR ( 'NONE', #464, 39.37007874015748143 ) ;
#205 = PLANE ( 'NONE',  #1018 ) ;
#206 = ORIENTED_EDGE ( 'NONE', *, *, #588, .T. ) ;
#207 = DIRECTION ( 'NONE',  ( 0.000000000000000000, -1.000000000000000000, 6.260484985480726518E-15 ) ) ;
#208 = CARTESIAN_POINT ( 'NONE',  ( 8.404999999999997584, 22.46999999999999886, -0.1199999999999996209 ) ) ;
#209 = ORIENTED_EDGE ( 'NONE', *, *, #363, .T. ) ;
#210 = EDGE_CURVE ( 'NONE', #297, #837, #68, .T. ) ;
#211 = LINE ( 'NONE', #632, #1147 ) ;
#212 = VECTOR ( 'NONE', #198, 39.37007874015748143 ) ;
#213 = ORIENTED_EDGE ( 'NONE', *, *, #329, .T. ) ;
#214 = CARTESIAN_POINT ( 'NONE',  ( -7.909000000000001585, 16.25000000000000000, -1.930000000000000160 ) ) ;
#215 = AXIS2_PLACEMENT_3D ( 'NONE', #1285, #1177, #357 ) ;
#216 = CARTESIAN_POINT ( 'NONE',  ( -8.345000000000000639, 22.22000000000000242, -0.1199999999999998151 ) ) ;
#217 = VERTEX_POINT ( 'NONE', #903 ) ;
#218 = LINE ( 'NONE', #226, #742 ) ;
#219 = EDGE_CURVE ( 'NONE', #728, #414, #1314, .T. ) ;
#220 = EDGE_LOOP ( 'NONE', ( #1235, #768, #391, #315, #1327, #1263, #734, #213 ) ) ;
#221 = CARTESIAN_POINT ( 'NONE',  ( -8.405000000000001137, 22.22000000000000242, -0.7499999999999950040 ) ) ;
#222 = CYLINDRICAL_SURFACE ( 'NONE', #918, 0.1199999999999965400 ) ;
#223 = VECTOR ( 'NONE', #5, 39.37007874015748143 ) ;
#224 = ORIENTED_EDGE ( 'NONE', *, *, #854, .F. ) ;
#225 = AXIS2_PLACEMENT_3D ( 'NONE', #3, #850, #109 ) ;
#227 = VECTOR ( 'NONE', #906, 39.37007874015748143 ) ;
#226 = CARTESIAN_POINT ( 'NONE',  ( 8.405000000000004690, -22.22000000000000242, -0.1199999999999989964 ) ) ;
#228 = ORIENTED_EDGE ( 'NONE', *, *, #1333, .T. ) ;
#229 = CARTESIAN_POINT ( 'NONE',  ( 8.065000000000003055, 16.25000000000000000, -1.930000000000000160 ) ) ;
#230 = ADVANCED_FACE ( 'NONE', ( #1255 ), #761, .F. ) ;
#231 = VECTOR ( 'NONE', #581, 39.37007874015748143 ) ;
#232 = CARTESIAN_POINT ( 'NONE',  ( 7.910000000000003695, 16.25000000000000000, -1.930000000000000160 ) ) ;
#233 = EDGE_LOOP ( 'NONE', ( #864, #758, #21, #503 ) ) ;
#234 = DIRECTION ( 'NONE',  ( 0.000000000000000000, -0.000000000000000000, -1.000000000000000000 ) ) ;
#235 = ORIENTED_EDGE ( 'NONE', *, *, #741, .T. ) ;
#236 = LINE ( 'NONE', #738, #1288 ) ;
#237 = EDGE_CURVE ( 'NONE', #280, #907, #328, .T. ) ;
#238 = DIRECTION ( 'NONE',  ( -3.167359992654216647E-15, 0.000000000000000000, -1.000000000000000000 ) ) ;
#239 = EDGE_LOOP ( 'NONE', ( #95, #6, #660, #584 ) ) ;
#240 = CYLINDRICAL_SURFACE ( 'NONE', #12, 0.1199999999999976225 ) ;
#241 = ORIENTED_EDGE ( 'NONE', *, *, #451, .T. ) ;
#242 = LINE ( 'NONE', #53, #575 ) ;
#243 = LINE ( 'NONE', #60, #957 ) ;
#244 = VERTEX_POINT ( 'NONE', #1046 ) ;
#245 = EDGE_CURVE ( 'NONE', #1225, #914, #746, .T. ) ;
#246 = DIMENSIONAL_EXPONENTS ( 1.000000000000000000, 0.000000000000000000, 0.000000000000000000, 0.000000000000000000, 0.000000000000000000, 0.000000000000000000, 0.000000000000000000 ) ;
#247 = FACE_OUTER_BOUND ( 'NONE', #1315, .T. ) ;
#248 = DIRECTION ( 'NONE',  ( 1.000000000000000000, 0.000000000000000000, 0.000000000000000000 ) ) ;
#249 = CARTESIAN_POINT ( 'NONE',  ( -8.284999999999998366, -22.47000000000007702, -0.7500000000000001110 ) ) ;
#250 = VECTOR ( 'NONE', #1321, 39.37007874015748143 ) ;
#251 = FACE_OUTER_BOUND ( 'NONE', #116, .T. ) ;
#252 = PLANE ( 'NONE',  #947 ) ;
#253 = VECTOR ( 'NONE', #77, 39.37007874015748143 ) ;
#254 = CARTESIAN_POINT ( 'NONE',  ( 8.405000000000004690, -22.22000000000000242, -1.930000000000000160 ) ) ;
#255 = LINE ( 'NONE', #766, #196 ) ;
#256 = AXIS2_PLACEMENT_3D ( 'NONE', #1200, #1102, #65 ) ;
#257 = DIRECTION ( 'NONE',  ( -0.000000000000000000, -0.000000000000000000, 1.000000000000000000 ) ) ;
#258 = LINE ( 'NONE', #142, #122 ) ;
#259 = DIRECTION ( 'NONE',  ( 1.000000000000000000, 0.000000000000000000, 0.000000000000000000 ) ) ;
#260 = EDGE_CURVE ( 'NONE', #867, #297, #1061, .T. ) ;
#261 = VECTOR ( 'NONE', #1189, 39.37007874015748143 ) ;
#262 = CARTESIAN_POINT ( 'NONE',  ( 8.285000000000000142, 22.46999999999999886, 0.000000000000000000 ) ) ;
#263 = DIRECTION ( 'NONE',  ( -1.000000000000000000, -0.000000000000000000, -0.000000000000000000 ) ) ;
#264 = ORIENTED_EDGE ( 'NONE', *, *, #1179, .T. ) ;
#265 = VECTOR ( 'NONE', #517, 39.37007874015748143 ) ;
#266 = LINE ( 'NONE', #254, #1158 ) ;
#267 = VERTEX_POINT ( 'NONE', #836 ) ;
#268 = DIRECTION ( 'NONE',  ( -1.000000000000000000, 0.000000000000000000, 0.000000000000000000 ) ) ;
#269 = EDGE_CURVE ( 'NONE', #280, #297, #1154, .T. ) ;
#270 = VECTOR ( 'NONE', #1110, 39.37007874015748143 ) ;
#271 = ORIENTED_EDGE ( 'NONE', *, *, #260, .T. ) ;
#272 = ORIENTED_EDGE ( 'NONE', *, *, #998, .T. ) ;
#273 =( NAMED_UNIT ( * ) SI_UNIT ( $, .STERADIAN. ) SOLID_ANGLE_UNIT ( ) );
#274 = DIRECTION ( 'NONE',  ( 1.000000000000000000, 4.370956789862844815E-15, 0.000000000000000000 ) ) ;
#275 = ORIENTED_EDGE ( 'NONE', *, *, #749, .T. ) ;
#276 = CARTESIAN_POINT ( 'NONE',  ( -8.284999999999998366, -22.35000000000000142, -0.05999999999999918593 ) ) ;
#277 = ADVANCED_FACE ( 'NONE', ( #16 ), #222, .T. ) ;
#278 = LINE ( 'NONE', #480, #531 ) ;
#279 = ADVANCED_FACE ( 'NONE', ( #110 ), #344, .F. ) ;
#280 = VERTEX_POINT ( 'NONE', #1262 ) ;
#281 = LINE ( 'NONE', #182, #253 ) ;
#282 = VECTOR ( 'NONE', #373, 39.37007874015748143 ) ;
#283 = CARTESIAN_POINT ( 'NONE',  ( 8.285000000000000142, 22.35000000000000142, -0.1199999999999979972 ) ) ;
#284 = ORIENTED_EDGE ( 'NONE', *, *, #607, .F. ) ;
#285 = CARTESIAN_POINT ( 'NONE',  ( 8.285000000000003695, -22.22000000000000242, -1.930000000000000160 ) ) ;
#286 = DIRECTION ( 'NONE',  ( -1.000000000000000000, -4.370956789862844815E-15, -0.000000000000000000 ) ) ;
#287 = VERTEX_POINT ( 'NONE', #532 ) ;
#288 = ADVANCED_FACE ( 'NONE', ( #641 ), #10, .T. ) ;
#289 = FACE_BOUND ( 'NONE', #1205, .T. ) ;
#290 = VECTOR ( 'NONE', #1296, 39.37007874015748143 ) ;
#291 = ORIENTED_EDGE ( 'NONE', *, *, #975, .F. ) ;
#292 = DIRECTION ( 'NONE',  ( -3.491481338843134539E-15, 1.215775698114932944E-16, -1.000000000000000000 ) ) ;
#293 = CYLINDRICAL_SURFACE ( 'NONE', #506, 0.05999999999999881123 ) ;
#294 = ORIENTED_EDGE ( 'NONE', *, *, #794, .F. ) ;
#295 = AXIS2_PLACEMENT_3D ( 'NONE', #304, #500, #718 ) ;
#296 = DIRECTION ( 'NONE',  ( 1.000000000000000000, 0.000000000000000000, 0.000000000000000000 ) ) ;
#297 = VERTEX_POINT ( 'NONE', #216 ) ;
#298 = DIRECTION ( 'NONE',  ( 0.000000000000000000, -1.000000000000000000, 0.000000000000000000 ) ) ;
#299 = CIRCLE ( 'NONE', #1182, 0.1549999999999998601 ) ;
#300 = CARTESIAN_POINT ( 'NONE',  ( 8.317161150346981557, 22.35000000000000142, -0.1199999999999979972 ) ) ;
#301 = ORIENTED_EDGE ( 'NONE', *, *, #370, .F. ) ;
#302 = CARTESIAN_POINT ( 'NONE',  ( -8.344999999999997087, -22.22000000000000242, -0.1199999999999998151 ) ) ;
#303 = EDGE_LOOP ( 'NONE', ( #294, #689, #703, #402 ) ) ;
#304 = CARTESIAN_POINT ( 'NONE',  ( -8.065000000000003055, -17.50000000000000355, 0.000000000000000000 ) ) ;
#305 = ADVANCED_FACE ( 'NONE', ( #447 ), #655, .F. ) ;
#306 = APPLICATION_CONTEXT ( 'automotive_design' ) ;
#307 = LINE ( 'NONE', #911, #858 ) ;
#308 = VECTOR ( 'NONE', #1090, 39.37007874015748143 ) ;
#309 = ORIENTED_EDGE ( 'NONE', *, *, #561, .F. ) ;
#310 = DIRECTION ( 'NONE',  ( 2.768878733166376491E-29, -6.334719985308434871E-15, -1.000000000000000000 ) ) ;
#311 = ORIENTED_EDGE ( 'NONE', *, *, #1203, .T. ) ;
#312 = FILL_AREA_STYLE_COLOUR ( '', #706 ) ;
#313 = EDGE_CURVE ( 'NONE', #71, #1081, #545, .T. ) ;
#314 = DIRECTION ( 'NONE',  ( 1.000000000000000000, 1.215775698114940832E-16, -3.167359992654216647E-15 ) ) ;
#315 = ORIENTED_EDGE ( 'NONE', *, *, #1304, .F. ) ;
#316 = CARTESIAN_POINT ( 'NONE',  ( 8.285000000000000142, 22.41000000000000014, -0.1199999999999976225 ) ) ;
#317 = CIRCLE ( 'NONE', #838, 0.1560000000000001941 ) ;
#318 = ORIENTED_EDGE ( 'NONE', *, *, #687, .F. ) ;
#319 = LINE ( 'NONE', #417, #667 ) ;
#320 = CARTESIAN_POINT ( 'NONE',  ( -8.221000000000001862, 16.25000000000000000, -1.930000000000000160 ) ) ;
#321 = EDGE_LOOP ( 'NONE', ( #228, #1003 ) ) ;
#322 = EDGE_CURVE ( 'NONE', #796, #685, #552, .T. ) ;
#323 = CARTESIAN_POINT ( 'NONE',  ( -8.284999999999998366, -22.22000000000000242, -0.06000000000000454969 ) ) ;
#324 = APPLICATION_CONTEXT ( 'automotive_design' ) ;
#325 = AXIS2_PLACEMENT_3D ( 'NONE', #721, #1252, #1244 ) ;
#326 = EDGE_LOOP ( 'NONE', ( #609, #1101, #309, #241 ) ) ;
#327 = DIRECTION ( 'NONE',  ( 1.000000000000000000, 4.370956789862844815E-15, 0.000000000000000000 ) ) ;
#328 = LINE ( 'NONE', #1166, #461 ) ;
#329 = EDGE_CURVE ( 'NONE', #1308, #368, #539, .T. ) ;
#330 = EDGE_LOOP ( 'NONE', ( #497, #737, #799, #105 ) ) ;
#331 = EDGE_CURVE ( 'NONE', #1341, #543, #1038, .T. ) ;
#332 = CARTESIAN_POINT ( 'NONE',  ( -8.284999999999998366, -22.41000000000000014, 1.423411580698803114E-13 ) ) ;
#333 = ORIENTED_EDGE ( 'NONE', *, *, #1087, .F. ) ;
#334 = LINE ( 'NONE', #1065, #711 ) ;
#335 = DIRECTION ( 'NONE',  ( -1.215775698114941572E-16, 1.000000000000000000, -2.431551396229867243E-17 ) ) ;
#336 = VECTOR ( 'NONE', #335, 39.37007874015748143 ) ;
#337 = ORIENTED_EDGE ( 'NONE', *, *, #933, .T. ) ;
#338 = MECHANICAL_DESIGN_GEOMETRIC_PRESENTATION_REPRESENTATION (  '', ( #877 ), #463 ) ;
#340 = VECTOR ( 'NONE', #144, 39.37007874015748143 ) ;
#339 = DIRECTION ( 'NONE',  ( 1.000000000000000000, 0.000000000000000000, 0.000000000000000000 ) ) ;
#341 = EDGE_CURVE ( 'NONE', #27, #543, #1330, .T. ) ;
#342 = EDGE_LOOP ( 'NONE', ( #1305, #432, #1332, #448, #352, #318, #420, #663 ) ) ;
#343 = CYLINDRICAL_SURFACE ( 'NONE', #945, 0.1549999999999998601 ) ;
#344 = CYLINDRICAL_SURFACE ( 'NONE', #1220, 0.1560000000000001941 ) ;
#345 = ORIENTED_EDGE ( 'NONE', *, *, #1333, .F. ) ;
#346 = DIRECTION ( 'NONE',  ( -0.000000000000000000, 0.000000000000000000, 1.000000000000000000 ) ) ;
#347 = ORIENTED_EDGE ( 'NONE', *, *, #119, .F. ) ;
#348 = DIRECTION ( 'NONE',  ( 0.000000000000000000, 6.334719985308433293E-15, 1.000000000000000000 ) ) ;
#349 = DIRECTION ( 'NONE',  ( 0.000000000000000000, 0.000000000000000000, 1.000000000000000000 ) ) ;
#350 = EDGE_CURVE ( 'NONE', #138, #534, #753, .T. ) ;
#351 = AXIS2_PLACEMENT_3D ( 'NONE', #434, #525, #851 ) ;
#352 = ORIENTED_EDGE ( 'NONE', *, *, #43, .F. ) ;
#353 = DIRECTION ( 'NONE',  ( 0.000000000000000000, 0.000000000000000000, -1.000000000000000000 ) ) ;
#354 = LINE ( 'NONE', #770, #340 ) ;
#355 = FACE_OUTER_BOUND ( 'NONE', #646, .T. ) ;
#356 = ADVANCED_FACE ( 'NONE', ( #648 ), #1277, .F. ) ;
#357 = DIRECTION ( 'NONE',  ( 0.000000000000000000, -0.000000000000000000, 1.000000000000000000 ) ) ;
#358 = DIRECTION ( 'NONE',  ( 0.000000000000000000, 1.000000000000000000, 3.491481338843134539E-15 ) ) ;
#359 =( LENGTH_UNIT ( ) NAMED_UNIT ( * ) SI_UNIT ( $, .METRE. ) );
#360 = CARTESIAN_POINT ( 'NONE',  ( -8.404999999999997584, -22.46999999999999886, -0.7500000000000001110 ) ) ;
#361 = LINE ( 'NONE', #688, #39 ) ;
#362 = CARTESIAN_POINT ( 'NONE',  ( -8.285000000000000142, 22.22000000000000242, -0.1200000000000005507 ) ) ;
#363 = EDGE_CURVE ( 'NONE', #1040, #867, #678, .T. ) ;
#364 = AXIS2_PLACEMENT_3D ( 'NONE', #549, #862, #234 ) ;
#365 = SURFACE_STYLE_USAGE ( .BOTH. , #457 ) ;
#366 = DIRECTION ( 'NONE',  ( 1.000000000000000000, 0.000000000000000000, 0.000000000000000000 ) ) ;
#367 = ORIENTED_EDGE ( 'NONE', *, *, #1313, .F. ) ;
#368 = VERTEX_POINT ( 'NONE', #1080 ) ;
#369 = APPLICATION_PROTOCOL_DEFINITION ( 'draft international standard', 'automotive_design', 1998, #324 ) ;
#370 = EDGE_CURVE ( 'NONE', #1173, #685, #1283, .T. ) ;
#371 = VECTOR ( 'NONE', #298, 39.37007874015748143 ) ;
#372 = CARTESIAN_POINT ( 'NONE',  ( -0.000000000000000000, -22.41000000000000369, -0.7500000000000003331 ) ) ;
#373 = DIRECTION ( 'NONE',  ( 1.000000000000000000, -0.000000000000000000, -0.000000000000000000 ) ) ;
#374 = VERTEX_POINT ( 'NONE', #1183 ) ;
#375 = FACE_OUTER_BOUND ( 'NONE', #528, .T. ) ;
#376 = ORIENTED_EDGE ( 'NONE', *, *, #835, .T. ) ;
#377 = DIRECTION ( 'NONE',  ( -0.000000000000000000, 1.000000000000000000, 0.000000000000000000 ) ) ;
#378 = EDGE_CURVE ( 'NONE', #996, #267, #1099, .T. ) ;
#379 = DIRECTION ( 'NONE',  ( 0.000000000000000000, 0.000000000000000000, -1.000000000000000000 ) ) ;
#380 = ORIENTED_EDGE ( 'NONE', *, *, #1141, .T. ) ;
#381 = DIRECTION ( 'NONE',  ( -1.000000000000000000, -4.370956789862844815E-15, -0.000000000000000000 ) ) ;
#382 = EDGE_LOOP ( 'NONE', ( #124, #958, #922, #1268 ) ) ;
#383 = FACE_OUTER_BOUND ( 'NONE', #1121, .T. ) ;
#384 = EDGE_CURVE ( 'NONE', #611, #131, #36, .T. ) ;
#385 = LINE ( 'NONE', #97, #1343 ) ;
#386 = AXIS2_PLACEMENT_3D ( 'NONE', #1028, #932, #736 ) ;
#387 = ORIENTED_EDGE ( 'NONE', *, *, #1242, .T. ) ;
#388 = DIRECTION ( 'NONE',  ( 0.000000000000000000, 1.000000000000000000, -6.334719985308433293E-15 ) ) ;
#389 = AXIS2_PLACEMENT_3D ( 'NONE', #1204, #572, #379 ) ;
#390 = LINE ( 'NONE', #1123, #985 ) ;
#391 = ORIENTED_EDGE ( 'NONE', *, *, #774, .T. ) ;
#392 = PLANE ( 'NONE',  #422 ) ;
#393 = DIRECTION ( 'NONE',  ( 0.000000000000000000, -1.000000000000000000, 0.000000000000000000 ) ) ;
#394 = ORIENTED_EDGE ( 'NONE', *, *, #1194, .T. ) ;
#395 = DIRECTION ( 'NONE',  ( 0.000000000000000000, 0.000000000000000000, 1.000000000000000000 ) ) ;
#396 = DIRECTION ( 'NONE',  ( 0.000000000000000000, 1.000000000000000000, 0.000000000000000000 ) ) ;
#397 = AXIS2_PLACEMENT_3D ( 'NONE', #1322, #592, #824 ) ;
#398 = VERTEX_POINT ( 'NONE', #787 ) ;
#399 = CARTESIAN_POINT ( 'NONE',  ( 8.285000000000000142, 22.35000000000000142, -0.1199999999999979972 ) ) ;
#400 = AXIS2_PLACEMENT_3D ( 'NONE', #1084, #974, #259 ) ;
#401 = PLANE ( 'NONE',  #169 ) ;
#402 = ORIENTED_EDGE ( 'NONE', *, *, #1304, .T. ) ;
#403 = EDGE_CURVE ( 'NONE', #160, #657, #558, .T. ) ;
#404 = DIRECTION ( 'NONE',  ( 1.215775698114936888E-16, -1.000000000000000000, 1.215775698114937135E-16 ) ) ;
#405 = ORIENTED_EDGE ( 'NONE', *, *, #749, .F. ) ;
#406 = CARTESIAN_POINT ( 'NONE',  ( 8.285000000000001918, -22.22000000000000242, -0.1199999999999994543 ) ) ;
#407 = DIRECTION ( 'NONE',  ( -1.000000000000000000, 0.000000000000000000, -0.000000000000000000 ) ) ;
#408 = ORIENTED_EDGE ( 'NONE', *, *, #73, .F. ) ;
#409 = LINE ( 'NONE', #1340, #471 ) ;
#410 = EDGE_CURVE ( 'NONE', #1104, #414, #436, .T. ) ;
#411 = ORIENTED_EDGE ( 'NONE', *, *, #886, .T. ) ;
#412 = DIRECTION ( 'NONE',  ( 0.000000000000000000, -1.000000000000000000, 0.000000000000000000 ) ) ;
#413 = LINE ( 'NONE', #1219, #1279 ) ;
#414 = VERTEX_POINT ( 'NONE', #473 ) ;
#415 = CARTESIAN_POINT ( 'NONE',  ( -8.285000000000001918, 22.35000000000000142, 0.000000000000000000 ) ) ;
#416 = VERTEX_POINT ( 'NONE', #458 ) ;
#417 = CARTESIAN_POINT ( 'NONE',  ( -7.909000000000003361, -17.50000000000000355, -1.930000000000000160 ) ) ;
#418 = DIRECTION ( 'NONE',  ( -0.000000000000000000, -0.000000000000000000, 1.000000000000000000 ) ) ;
#419 = EDGE_CURVE ( 'NONE', #1081, #98, #255, .T. ) ;
#420 = ORIENTED_EDGE ( 'NONE', *, *, #1133, .F. ) ;
#421 = CARTESIAN_POINT ( 'NONE',  ( 8.065000000000003055, 16.25000000000000000, -1.930000000000000160 ) ) ;
#422 = AXIS2_PLACEMENT_3D ( 'NONE', #285, #377, #1218 ) ;
#423 = ORIENTED_EDGE ( 'NONE', *, *, #57, .F. ) ;
#424 = FACE_OUTER_BOUND ( 'NONE', #186, .T. ) ;
#425 = CARTESIAN_POINT ( 'NONE',  ( 8.285000000000000142, 22.46999999999999886, -1.930000000000000160 ) ) ;
#426 = CIRCLE ( 'NONE', #74, 0.1560000000000001941 ) ;
#427 = DIMENSIONAL_EXPONENTS ( 1.000000000000000000, 0.000000000000000000, 0.000000000000000000, 0.000000000000000000, 0.000000000000000000, 0.000000000000000000, 0.000000000000000000 ) ;
#428 = ADVANCED_FACE ( 'NONE', ( #355 ), #662, .F. ) ;
#429 = ORIENTED_EDGE ( 'NONE', *, *, #846, .F. ) ;
#430 = DIRECTION ( 'NONE',  ( -1.000000000000000000, 0.000000000000000000, -0.000000000000000000 ) ) ;
#431 = CIRCLE ( 'NONE', #37, 0.1560000000000001941 ) ;
#432 = ORIENTED_EDGE ( 'NONE', *, *, #943, .T. ) ;
#433 = DIRECTION ( 'NONE',  ( -1.000000000000000000, 0.000000000000000000, 0.000000000000000000 ) ) ;
#434 = CARTESIAN_POINT ( 'NONE',  ( -8.284999999999998366, -22.35000000000000142, -0.1199999999999979972 ) ) ;
#435 = ORIENTED_EDGE ( 'NONE', *, *, #1017, .F. ) ;
#436 = CIRCLE ( 'NONE', #548, 0.1560000000000001941 ) ;
#437 = DIRECTION ( 'NONE',  ( 1.000000000000000000, 0.000000000000000000, -3.491481338843133750E-15 ) ) ;
#438 = VERTEX_POINT ( 'NONE', #1176 ) ;
#439 = FACE_OUTER_BOUND ( 'NONE', #1047, .T. ) ;
#440 = CARTESIAN_POINT ( 'NONE',  ( -8.065000000000001279, 16.25000000000000000, -1.930000000000000160 ) ) ;
#441 = ORIENTED_EDGE ( 'NONE', *, *, #863, .T. ) ;
#443 = CIRCLE ( 'NONE', #510, 0.05999999999999881123 ) ;
#442 = LINE ( 'NONE', #456, #188 ) ;
#444 = EDGE_CURVE ( 'NONE', #134, #587, #675, .T. ) ;
#445 = VERTEX_POINT ( 'NONE', #881 ) ;
#446 = PRESENTATION_STYLE_ASSIGNMENT (( #365 ) ) ;
#447 = FACE_OUTER_BOUND ( 'NONE', #845, .T. ) ;
#448 = ORIENTED_EDGE ( 'NONE', *, *, #760, .F. ) ;
#449 = CYLINDRICAL_SURFACE ( 'NONE', #540, 0.1560000000000001941 ) ;
#450 = DIRECTION ( 'NONE',  ( 0.000000000000000000, -1.000000000000000000, 0.000000000000000000 ) ) ;
#451 = EDGE_CURVE ( 'NONE', #853, #837, #243, .T. ) ;
#452 = AXIS2_PLACEMENT_3D ( 'NONE', #1310, #381, #644 ) ;
#453 = CARTESIAN_POINT ( 'NONE',  ( 8.345000000000002416, -22.22000000000000242, 2.662166073825870496E-14 ) ) ;
#454 = VECTOR ( 'NONE', #1120, 39.37007874015748143 ) ;
#455 = DIRECTION ( 'NONE',  ( 0.000000000000000000, 0.000000000000000000, 1.000000000000000000 ) ) ;
#456 = CARTESIAN_POINT ( 'NONE',  ( 8.285000000000005471, -22.38216115034698106, -2.817218243466271358E-15 ) ) ;
#457 = SURFACE_SIDE_STYLE ('',( #679 ) ) ;
#458 = CARTESIAN_POINT ( 'NONE',  ( -7.909000000000003361, -17.50000000000000355, -0.05999999999999990757 ) ) ;
#459 = ADVANCED_FACE ( 'NONE', ( #988 ), #145, .F. ) ;
#460 = ORIENTED_EDGE ( 'NONE', *, *, #547, .T. ) ;
#461 = VECTOR ( 'NONE', #956, 39.37007874015748143 ) ;
#462 = CARTESIAN_POINT ( 'NONE',  ( -8.285000000000001918, 22.46999999999999886, -0.1199999999999979000 ) ) ;
#463 =( GEOMETRIC_REPRESENTATION_CONTEXT ( 3 ) GLOBAL_UNCERTAINTY_ASSIGNED_CONTEXT ( ( #1281 ) ) GLOBAL_UNIT_ASSIGNED_CONTEXT ( ( #666, #1077, #875 ) ) REPRESENTATION_CONTEXT ( 'NONE', 'WORKASPACE' ) );
#464 = DIRECTION ( 'NONE',  ( -1.000000000000000000, 0.000000000000000000, 0.000000000000000000 ) ) ;
#465 = DIRECTION ( 'NONE',  ( -0.000000000000000000, 0.000000000000000000, 1.000000000000000000 ) ) ;
#466 = AXIS2_PLACEMENT_3D ( 'NONE', #1004, #1206, #602 ) ;
#467 = DIRECTION ( 'NONE',  ( -1.000000000000000000, -1.215775698114940832E-16, -3.167359992654216647E-15 ) ) ;
#468 = ADVANCED_FACE ( 'NONE', ( #888 ), #680, .F. ) ;
#469 = EDGE_LOOP ( 'NONE', ( #423, #31, #1302, #1107 ) ) ;
#470 = PLANE ( 'NONE',  #714 ) ;
#471 = VECTOR ( 'NONE', #826, 39.37007874015748143 ) ;
#472 = DIRECTION ( 'NONE',  ( -0.000000000000000000, 1.000000000000000000, -0.000000000000000000 ) ) ;
#473 = CARTESIAN_POINT ( 'NONE',  ( -8.221000000000001862, 16.25000000000000000, 0.000000000000000000 ) ) ;
#474 = ORIENTED_EDGE ( 'NONE', *, *, #943, .F. ) ;
#475 = ORIENTED_EDGE ( 'NONE', *, *, #578, .T. ) ;
#476 = DIRECTION ( 'NONE',  ( 0.000000000000000000, 0.000000000000000000, 1.000000000000000000 ) ) ;
#477 = VECTOR ( 'NONE', #1132, 39.37007874015748143 ) ;
#478 = ORIENTED_EDGE ( 'NONE', *, *, #926, .T. ) ;
#479 = DIRECTION ( 'NONE',  ( 3.167359992654217435E-15, 0.000000000000000000, -1.000000000000000000 ) ) ;
#480 = CARTESIAN_POINT ( 'NONE',  ( -8.405000000000001137, 22.22000000000000242, -1.930000000000000160 ) ) ;
#481 = ORIENTED_EDGE ( 'NONE', *, *, #951, .T. ) ;
#482 = CARTESIAN_POINT ( 'NONE',  ( 8.285000000000003695, -22.35000000000000142, -0.05999999999999918593 ) ) ;
#483 = FACE_OUTER_BOUND ( 'NONE', #342, .T. ) ;
#484 = EDGE_CURVE ( 'NONE', #952, #1229, #1299, .T. ) ;
#485 = ORIENTED_EDGE ( 'NONE', *, *, #384, .T. ) ;
#486 = DIRECTION ( 'NONE',  ( -0.000000000000000000, -0.000000000000000000, 1.000000000000000000 ) ) ;
#487 = CARTESIAN_POINT ( 'NONE',  ( -8.345000000000000639, 22.22000000000000242, 2.662166073825869865E-14 ) ) ;
#488 = EDGE_LOOP ( 'NONE', ( #638, #1128, #1098, #478 ) ) ;
#489 = DIRECTION ( 'NONE',  ( 1.000000000000000000, 0.000000000000000000, 0.000000000000000000 ) ) ;
#490 = CIRCLE ( 'NONE', #1294, 0.05999999999999664629 ) ;
#491 = CARTESIAN_POINT ( 'NONE',  ( -8.284999999999998366, -22.35000000000000142, -0.1199999999999979972 ) ) ;
#492 = ORIENTED_EDGE ( 'NONE', *, *, #760, .T. ) ;
#493 = PRODUCT ( '11-A-6015-01-(16gacr ANSI-61) - K48 - V3-R0', '11-A-6015-01-(16gacr ANSI-61) - K48 - V3-R0', '', ( #1096 ) ) ;
#494 = FACE_OUTER_BOUND ( 'NONE', #1245, .T. ) ;
#495 = PRODUCT_DEFINITION ( 'UNKNOWN', '', #735, #980 ) ;
#496 = DIRECTION ( 'NONE',  ( 0.000000000000000000, 1.000000000000000000, 6.260484985480726518E-15 ) ) ;
#497 = ORIENTED_EDGE ( 'NONE', *, *, #1179, .F. ) ;
#498 = CARTESIAN_POINT ( 'NONE',  ( -8.284999999999998366, -22.46999999999999886, -0.1199999999999979000 ) ) ;
#499 = ORIENTED_EDGE ( 'NONE', *, *, #886, .F. ) ;
#500 = DIRECTION ( 'NONE',  ( 0.000000000000000000, 0.000000000000000000, 1.000000000000000000 ) ) ;
#501 = CARTESIAN_POINT ( 'NONE',  ( -8.284999999999998366, -22.41000000000000369, -0.7500000000000003331 ) ) ;
#502 = EDGE_CURVE ( 'NONE', #1030, #131, #1289, .T. ) ;
#503 = ORIENTED_EDGE ( 'NONE', *, *, #64, .F. ) ;
#504 = CARTESIAN_POINT ( 'NONE',  ( 8.065000000000003055, -17.50000000000000000, 0.000000000000000000 ) ) ;
#505 = CARTESIAN_POINT ( 'NONE',  ( -8.284999999999998366, -22.22000000000000242, -1.930000000000000160 ) ) ;
#506 = AXIS2_PLACEMENT_3D ( 'NONE', #300, #1228, #496 ) ;
#507 = EDGE_LOOP ( 'NONE', ( #556, #264 ) ) ;
#508 = PLANE ( 'NONE',  #839 ) ;
#509 = CIRCLE ( 'NONE', #1267, 0.1560000000000001941 ) ;
#510 = AXIS2_PLACEMENT_3D ( 'NONE', #283, #296, #184 ) ;
#511 = DIRECTION ( 'NONE',  ( -0.000000000000000000, -0.000000000000000000, 1.000000000000000000 ) ) ;
#512 = ORIENTED_EDGE ( 'NONE', *, *, #502, .T. ) ;
#513 = EDGE_CURVE ( 'NONE', #744, #134, #155, .T. ) ;
#514 = CARTESIAN_POINT ( 'NONE',  ( 8.285000000000003695, -22.35000000000000142, -0.1199999999999979972 ) ) ;
#515 = ORIENTED_EDGE ( 'NONE', *, *, #530, .T. ) ;
#516 = CARTESIAN_POINT ( 'NONE',  ( 8.065000000000003055, -17.50000000000000000, -1.930000000000000160 ) ) ;
#517 = DIRECTION ( 'NONE',  ( -3.167359992654217435E-15, 0.000000000000000000, -1.000000000000000000 ) ) ;
#518 = PRODUCT_DEFINITION_SHAPE ( 'NONE', 'NONE',  #495 ) ;
#519 = ORIENTED_EDGE ( 'NONE', *, *, #1276, .F. ) ;
#520 = VECTOR ( 'NONE', #830, 39.37007874015748143 ) ;
#521 = DIRECTION ( 'NONE',  ( -0.000000000000000000, -0.000000000000000000, 1.000000000000000000 ) ) ;
#522 = EDGE_CURVE ( 'NONE', #744, #833, #187, .T. ) ;
#523 = ORIENTED_EDGE ( 'NONE', *, *, #1126, .F. ) ;
#524 = DIRECTION ( 'NONE',  ( -0.000000000000000000, -0.000000000000000000, 1.000000000000000000 ) ) ;
#525 = DIRECTION ( 'NONE',  ( -1.000000000000000000, -4.370956789862844815E-15, -0.000000000000000000 ) ) ;
#526 = ORIENTED_EDGE ( 'NONE', *, *, #176, .F. ) ;
#527 = DIRECTION ( 'NONE',  ( 1.000000000000000000, 1.215775698114940832E-16, -3.167359992654216647E-15 ) ) ;
#528 = EDGE_LOOP ( 'NONE', ( #782, #756, #519, #474 ) ) ;
#529 = CARTESIAN_POINT ( 'NONE',  ( 8.344999999999998863, 22.46999999999999886, -0.1199999999999998151 ) ) ;
#530 = EDGE_CURVE ( 'NONE', #131, #685, #1236, .T. ) ;
#531 = VECTOR ( 'NONE', #257, 39.37007874015748143 ) ;
#532 = CARTESIAN_POINT ( 'NONE',  ( 8.285000000000003695, -22.35000000000000142, 0.000000000000000000 ) ) ;
#533 = VECTOR ( 'NONE', #412, 39.37007874015748143 ) ;
#534 = VERTEX_POINT ( 'NONE', #900 ) ;
#535 = LINE ( 'NONE', #1057, #212 ) ;
#536 = AXIS2_PLACEMENT_3D ( 'NONE', #1024, #1312, #1226 ) ;
#537 = EDGE_LOOP ( 'NONE', ( #178, #475, #1000, #121 ) ) ;
#538 = DIRECTION ( 'NONE',  ( 1.000000000000000000, 0.000000000000000000, 0.000000000000000000 ) ) ;
#539 = LINE ( 'NONE', #627, #982 ) ;
#540 = AXIS2_PLACEMENT_3D ( 'NONE', #1082, #868, #339 ) ;
#541 = ORIENTED_EDGE ( 'NONE', *, *, #18, .F. ) ;
#542 = DIRECTION ( 'NONE',  ( 1.000000000000000000, 0.000000000000000000, 0.000000000000000000 ) ) ;
#543 = VERTEX_POINT ( 'NONE', #276 ) ;
#544 = DIRECTION ( 'NONE',  ( 1.000000000000000000, -0.000000000000000000, -0.000000000000000000 ) ) ;
#545 = LINE ( 'NONE', #1139, #45 ) ;
#546 = EDGE_LOOP ( 'NONE', ( #856, #311, #1210, #954 ) ) ;
#547 = EDGE_CURVE ( 'NONE', #1143, #1081, #1112, .T. ) ;
#548 = AXIS2_PLACEMENT_3D ( 'NONE', #570, #150, #164 ) ;
#549 = CARTESIAN_POINT ( 'NONE',  ( -8.405000000000001137, 22.22000000000000242, -1.930000000000000160 ) ) ;
#550 = ORIENTED_EDGE ( 'NONE', *, *, #1249, .T. ) ;
#551 = CARTESIAN_POINT ( 'NONE',  ( 8.344999999999998863, 22.22000000000000242, 2.662166073825868919E-14 ) ) ;
#552 = LINE ( 'NONE', #208, #814 ) ;
#553 = ORIENTED_EDGE ( 'NONE', *, *, #665, .T. ) ;
#554 = EDGE_CURVE ( 'NONE', #1341, #98, #915, .T. ) ;
#555 = PLANE ( 'NONE',  #364 ) ;
#556 = ORIENTED_EDGE ( 'NONE', *, *, #1034, .T. ) ;
#557 = CARTESIAN_POINT ( 'NONE',  ( -7.909000000000003361, -17.50000000000000355, 0.000000000000000000 ) ) ;
#558 = LINE ( 'NONE', #360, #261 ) ;
#559 = CARTESIAN_POINT ( 'NONE',  ( 8.285000000000003695, -22.47000000000000242, -0.7500000000000001110 ) ) ;
#560 = CARTESIAN_POINT ( 'NONE',  ( 8.285000000000003695, -22.46999999999999886, -0.1199999999999979000 ) ) ;
#561 = EDGE_CURVE ( 'NONE', #853, #867, #88, .T. ) ;
#562 = LINE ( 'NONE', #979, #204 ) ;
#563 = ADVANCED_FACE ( 'NONE', ( #908 ), #508, .F. ) ;
#564 = VECTOR ( 'NONE', #938, 39.37007874015748143 ) ;
#565 = DIRECTION ( 'NONE',  ( 0.000000000000000000, -1.000000000000000000, -0.000000000000000000 ) ) ;
#566 = AXIS2_PLACEMENT_3D ( 'NONE', #878, #455, #984 ) ;
#567 = ORIENTED_EDGE ( 'NONE', *, *, #1282, .F. ) ;
#568 = DIRECTION ( 'NONE',  ( -0.000000000000000000, 1.000000000000000000, -0.000000000000000000 ) ) ;
#569 = CARTESIAN_POINT ( 'NONE',  ( -8.285000000000001918, 22.38216115034698106, -0.06000000000000391825 ) ) ;
#570 = CARTESIAN_POINT ( 'NONE',  ( -8.065000000000001279, 16.25000000000000000, 0.000000000000000000 ) ) ;
#571 = EDGE_CURVE ( 'NONE', #805, #1253, #120, .T. ) ;
#572 = DIRECTION ( 'NONE',  ( -0.000000000000000000, 1.000000000000000000, -0.000000000000000000 ) ) ;
#573 = AXIS2_PLACEMENT_3D ( 'NONE', #1234, #393, #621 ) ;
#574 = DIRECTION ( 'NONE',  ( -0.000000000000000000, 1.000000000000000000, 6.334719985308433293E-15 ) ) ;
#575 = VECTOR ( 'NONE', #661, 39.37007874015748143 ) ;
#576 = VECTOR ( 'NONE', #79, 39.37007874015748143 ) ;
#577 = CARTESIAN_POINT ( 'NONE',  ( 8.285000000000003695, -22.35000000000000142, -0.1199999999999979972 ) ) ;
#578 = EDGE_CURVE ( 'NONE', #1068, #1071, #1337, .T. ) ;
#579 = ORIENTED_EDGE ( 'NONE', *, *, #1150, .F. ) ;
#580 = EDGE_LOOP ( 'NONE', ( #541, #842, #192, #66 ) ) ;
#581 = DIRECTION ( 'NONE',  ( -0.000000000000000000, -0.000000000000000000, 1.000000000000000000 ) ) ;
#582 = ADVANCED_FACE ( 'NONE', ( #723 ), #818, .T. ) ;
#583 = CARTESIAN_POINT ( 'NONE',  ( 8.221000000000003638, -17.50000000000000000, 0.000000000000000000 ) ) ;
#584 = ORIENTED_EDGE ( 'NONE', *, *, #341, .F. ) ;
#585 = VECTOR ( 'NONE', #1019, 39.37007874015748143 ) ;
#586 = EDGE_LOOP ( 'NONE', ( #1238, #492, #762, #163 ) ) ;
#587 = VERTEX_POINT ( 'NONE', #1001 ) ;
#588 = EDGE_CURVE ( 'NONE', #996, #368, #1056, .T. ) ;
#589 = LINE ( 'NONE', #177, #755 ) ;
#590 = VERTEX_POINT ( 'NONE', #612 ) ;
#591 = DIRECTION ( 'NONE',  ( 0.000000000000000000, -0.000000000000000000, 1.000000000000000000 ) ) ;
#592 = DIRECTION ( 'NONE',  ( -0.000000000000000000, 1.000000000000000000, -0.000000000000000000 ) ) ;
#593 = ORIENTED_EDGE ( 'NONE', *, *, #52, .F. ) ;
#594 = LINE ( 'NONE', #812, #1054 ) ;
#595 = EDGE_CURVE ( 'NONE', #445, #1030, #692, .T. ) ;
#596 = PLANE ( 'NONE',  #1270 ) ;
#597 = ORIENTED_EDGE ( 'NONE', *, *, #975, .T. ) ;
#598 = DIRECTION ( 'NONE',  ( -4.370956789862844815E-15, 1.000000000000000000, 0.000000000000000000 ) ) ;
#599 = CARTESIAN_POINT ( 'NONE',  ( 8.285000000000003695, -22.22000000000000242, -1.930000000000000160 ) ) ;
#600 = AXIS2_PLACEMENT_3D ( 'NONE', #406, #1125, #793 ) ;
#601 = ORIENTED_EDGE ( 'NONE', *, *, #410, .F. ) ;
#602 = DIRECTION ( 'NONE',  ( 1.000000000000000000, 0.000000000000000000, 0.000000000000000000 ) ) ;
#603 = VECTOR ( 'NONE', #437, 39.37007874015748143 ) ;
#604 = LINE ( 'NONE', #1335, #684 ) ;
#605 = ORIENTED_EDGE ( 'NONE', *, *, #983, .T. ) ;
#606 = CARTESIAN_POINT ( 'NONE',  ( 8.285000000000001918, 22.22000000000000597, -0.1199999999999994543 ) ) ;
#607 = EDGE_CURVE ( 'NONE', #1068, #1030, #1009, .T. ) ;
#608 = DIRECTION ( 'NONE',  ( -1.000000000000000000, -1.215775698114940832E-16, -3.167359992654216647E-15 ) ) ;
#609 = ORIENTED_EDGE ( 'NONE', *, *, #210, .F. ) ;
#610 = CARTESIAN_POINT ( 'NONE',  ( 8.065000000000003055, 16.25000000000000000, 0.000000000000000000 ) ) ;
#611 = VERTEX_POINT ( 'NONE', #1233 ) ;
#612 = CARTESIAN_POINT ( 'NONE',  ( 8.285000000000000142, 22.41000000000000369, -0.7500000000000003331 ) ) ;
#613 = VECTOR ( 'NONE', #1171, 39.37007874015748143 ) ;
#614 = EDGE_CURVE ( 'NONE', #590, #1229, #619, .T. ) ;
#615 = DIRECTION ( 'NONE',  ( 1.000000000000000000, 0.000000000000000000, 3.491481338843133750E-15 ) ) ;
#616 = VERTEX_POINT ( 'NONE', #1118 ) ;
#617 = CARTESIAN_POINT ( 'NONE',  ( -8.285000000000000142, 22.22000000000000242, 0.000000000000000000 ) ) ;
#618 = ORIENTED_EDGE ( 'NONE', *, *, #1069, .T. ) ;
#619 = LINE ( 'NONE', #1031, #1293 ) ;
#620 = CIRCLE ( 'NONE', #400, 0.1549999999999998601 ) ;
#621 = DIRECTION ( 'NONE',  ( 0.000000000000000000, -0.000000000000000000, -1.000000000000000000 ) ) ;
#622 = VERTEX_POINT ( 'NONE', #709 ) ;
#623 = ADVANCED_FACE ( 'NONE', ( #1306 ), #392, .F. ) ;
#624 = CARTESIAN_POINT ( 'NONE',  ( -7.909000000000001585, 16.25000000000000000, 0.000000000000000000 ) ) ;
#625 = ORIENTED_EDGE ( 'NONE', *, *, #595, .T. ) ;
#626 = FILL_AREA_STYLE ('',( #312 ) ) ;
#627 = CARTESIAN_POINT ( 'NONE',  ( 8.285000000000003695, -22.38216115034698106, -0.06000000000000282885 ) ) ;
#628 = EDGE_LOOP ( 'NONE', ( #1007, #597, #526, #167 ) ) ;
#629 = CIRCLE ( 'NONE', #146, 0.1199999999999966371 ) ;
#630 = ADVANCED_FACE ( 'NONE', ( #383 ), #1202, .F. ) ;
#631 = AXIS2_PLACEMENT_3D ( 'NONE', #883, #681, #676 ) ;
#632 = CARTESIAN_POINT ( 'NONE',  ( 7.909000000000003361, -17.50000000000000000, -1.930000000000000160 ) ) ;
#633 = ORIENTED_EDGE ( 'NONE', *, *, #143, .F. ) ;
#634 = DIRECTION ( 'NONE',  ( 1.000000000000000000, 0.000000000000000000, 0.000000000000000000 ) ) ;
#635 = CARTESIAN_POINT ( 'NONE',  ( -8.344999999999998863, -1.014564820076917865E-15, 2.662166073825868919E-14 ) ) ;
#636 = ORIENTED_EDGE ( 'NONE', *, *, #695, .T. ) ;
#637 = LINE ( 'NONE', #1151, #78 ) ;
#638 = ORIENTED_EDGE ( 'NONE', *, *, #444, .F. ) ;
#639 = CARTESIAN_POINT ( 'NONE',  ( 8.220000000000004192, 16.25000000000000000, 0.000000000000000000 ) ) ;
#640 = AXIS2_PLACEMENT_3D ( 'NONE', #425, #1066, #133 ) ;
#641 = FACE_OUTER_BOUND ( 'NONE', #326, .T. ) ;
#642 = AXIS2_PLACEMENT_3D ( 'NONE', #516, #1045, #634 ) ;
#643 = ORIENTED_EDGE ( 'NONE', *, *, #741, .F. ) ;
#644 = DIRECTION ( 'NONE',  ( 0.000000000000000000, 1.000000000000000000, -2.703391243730313885E-15 ) ) ;
#645 = AXIS2_PLACEMENT_3D ( 'NONE', #399, #200, #96 ) ;
#646 = EDGE_LOOP ( 'NONE', ( #747, #165, #69, #499 ) ) ;
#647 = CARTESIAN_POINT ( 'NONE',  ( -8.285000000000001918, 22.46999999999992781, -0.7500000000000001110 ) ) ;
#648 = FACE_OUTER_BOUND ( 'NONE', #233, .T. ) ;
#649 = ADVANCED_FACE ( 'NONE', ( #494 ), #800, .T. ) ;
#650 = EDGE_LOOP ( 'NONE', ( #1033, #550, #235, #206 ) ) ;
#651 = DIRECTION ( 'NONE',  ( 0.000000000000000000, 1.000000000000000000, 6.402768735150744159E-15 ) ) ;
#652 = EDGE_LOOP ( 'NONE', ( #884, #890 ) ) ;
#653 = ADVANCED_FACE ( 'NONE', ( #1138 ), #1269, .F. ) ;
#654 = LINE ( 'NONE', #529, #754 ) ;
#655 = PLANE ( 'NONE',  #640 ) ;
#656 = ADVANCED_FACE ( 'NONE', ( #731 ), #343, .F. ) ;
#657 = VERTEX_POINT ( 'NONE', #221 ) ;
#658 = VECTOR ( 'NONE', #923, 39.37007874015748143 ) ;
#659 = DIRECTION ( 'NONE',  ( 0.000000000000000000, -6.334719985308434871E-15, 1.000000000000000000 ) ) ;
#660 = ORIENTED_EDGE ( 'NONE', *, *, #331, .T. ) ;
#661 = DIRECTION ( 'NONE',  ( 1.000000000000000000, -0.000000000000000000, -0.000000000000000000 ) ) ;
#662 = PLANE ( 'NONE',  #1190 ) ;
#663 = ORIENTED_EDGE ( 'NONE', *, *, #329, .F. ) ;
#664 = FACE_OUTER_BOUND ( 'NONE', #1124, .T. ) ;
#665 = EDGE_CURVE ( 'NONE', #1260, #1104, #745, .T. ) ;
#666 =( CONVERSION_BASED_UNIT ( 'INCH', #1181 ) LENGTH_UNIT ( ) NAMED_UNIT ( #246 ) );
#667 = VECTOR ( 'NONE', #102, 39.37007874015748143 ) ;
#668 = CARTESIAN_POINT ( 'NONE',  ( 8.405000000000001137, 22.22000000000000242, -1.930000000000000160 ) ) ;
#669 = VECTOR ( 'NONE', #1021, 39.37007874015748143 ) ;
#670 = DIRECTION ( 'NONE',  ( 0.000000000000000000, 0.000000000000000000, 1.000000000000000000 ) ) ;
#671 = FACE_OUTER_BOUND ( 'NONE', #931, .T. ) ;
#672 = ADVANCED_FACE ( 'NONE', ( #857 ), #125, .F. ) ;
#673 = CARTESIAN_POINT ( 'NONE',  ( 8.405000000000004690, -22.22000000000000242, -0.1199999999999989964 ) ) ;
#674 = CIRCLE ( 'NONE', #452, 0.1199999999999976225 ) ;
#675 = LINE ( 'NONE', #249, #613 ) ;
#676 = DIRECTION ( 'NONE',  ( 1.000000000000000000, 0.000000000000000000, 0.000000000000000000 ) ) ;
#677 = FACE_BOUND ( 'NONE', #960, .T. ) ;
#678 = CIRCLE ( 'NONE', #1022, 0.05999999999999662548 ) ;
#679 = SURFACE_STYLE_FILL_AREA ( #626 ) ;
#680 = PLANE ( 'NONE',  #1300 ) ;
#681 = DIRECTION ( 'NONE',  ( -0.000000000000000000, 0.000000000000000000, 1.000000000000000000 ) ) ;
#682 = VECTOR ( 'NONE', #859, 39.37007874015748143 ) ;
#683 = EDGE_LOOP ( 'NONE', ( #405, #203, #897, #1012 ) ) ;
#684 = VECTOR ( 'NONE', #404, 39.37007874015748143 ) ;
#685 = VERTEX_POINT ( 'NONE', #15 ) ;
#686 = DIRECTION ( 'NONE',  ( -1.215775698114936888E-16, 1.000000000000000000, 1.215775698114937135E-16 ) ) ;
#687 = EDGE_CURVE ( 'NONE', #611, #445, #334, .T. ) ;
#688 = CARTESIAN_POINT ( 'NONE',  ( -8.317161150346981557, -22.35000000000000142, 8.195543980992789655E-16 ) ) ;
#689 = ORIENTED_EDGE ( 'NONE', *, *, #790, .F. ) ;
#690 = FACE_OUTER_BOUND ( 'NONE', #683, .T. ) ;
#691 = ORIENTED_EDGE ( 'NONE', *, *, #716, .T. ) ;
#692 = LINE ( 'NONE', #179, #1227 ) ;
#693 = AXIS2_PLACEMENT_3D ( 'NONE', #1197, #467, #61 ) ;
#694 = FACE_OUTER_BOUND ( 'NONE', #1336, .T. ) ;
#695 = EDGE_CURVE ( 'NONE', #416, #805, #319, .T. ) ;
#696 = ORIENTED_EDGE ( 'NONE', *, *, #1085, .T. ) ;
#697 = CARTESIAN_POINT ( 'NONE',  ( 8.285000000000003695, -22.46999999999999886, -1.930000000000000160 ) ) ;
#698 = ADVANCED_BREP_SHAPE_REPRESENTATION ( '11-A-6015-01-(16gacr ANSI-61) - K48 - V3-R0', ( #763, #1075 ), #159 ) ;
#699 = DIRECTION ( 'NONE',  ( 0.000000000000000000, 1.000000000000000000, 0.000000000000000000 ) ) ;
#700 = VERTEX_POINT ( 'NONE', #1254 ) ;
#701 = CARTESIAN_POINT ( 'NONE',  ( -8.344999999999997087, -22.22000000000000242, 2.662166073825868288E-14 ) ) ;
#702 = FACE_OUTER_BOUND ( 'NONE', #934, .T. ) ;
#703 = ORIENTED_EDGE ( 'NONE', *, *, #926, .F. ) ;
#704 = CARTESIAN_POINT ( 'NONE',  ( 0.000000000000000000, 0.000000000000000000, 0.000000000000000000 ) ) ;
#705 = ADVANCED_FACE ( 'NONE', ( #935 ), #1165, .F. ) ;
#706 = COLOUR_RGB ( '',0.7921568627450980005, 0.8196078431372548767, 0.9333333333333333481 ) ;
#707 = CARTESIAN_POINT ( 'NONE',  ( 0.000000000000000000, 0.000000000000000000, -0.05999999999999999778 ) ) ;
#708 = ORIENTED_EDGE ( 'NONE', *, *, #1069, .F. ) ;
#709 = CARTESIAN_POINT ( 'NONE',  ( 8.344999999999998863, 22.22000000000000242, -0.1199999999999987188 ) ) ;
#710 = PLANE ( 'NONE',  #90 ) ;
#711 = VECTOR ( 'NONE', #1160, 39.37007874015748143 ) ;
#712 = VERTEX_POINT ( 'NONE', #639 ) ;
#713 = DIRECTION ( 'NONE',  ( 0.000000000000000000, 0.000000000000000000, 1.000000000000000000 ) ) ;
#714 = AXIS2_PLACEMENT_3D ( 'NONE', #757, #129, #959 ) ;
#715 = CARTESIAN_POINT ( 'NONE',  ( 8.405000000000001137, -22.47000000000000242, -0.7500000000000001110 ) ) ;
#716 = EDGE_CURVE ( 'NONE', #952, #374, #834, .T. ) ;
#717 = ORIENTED_EDGE ( 'NONE', *, *, #419, .T. ) ;
#718 = DIRECTION ( 'NONE',  ( 1.000000000000000000, 0.000000000000000000, 0.000000000000000000 ) ) ;
#719 = DIRECTION ( 'NONE',  ( 0.000000000000000000, 1.000000000000000000, 0.000000000000000000 ) ) ;
#720 = EDGE_LOOP ( 'NONE', ( #997, #197, #108, #822 ) ) ;
#721 = CARTESIAN_POINT ( 'NONE',  ( 8.065000000000003055, -17.50000000000000000, -0.05999999999999990757 ) ) ;
#722 = ORIENTED_EDGE ( 'NONE', *, *, #451, .F. ) ;
#723 = FACE_OUTER_BOUND ( 'NONE', #1055, .T. ) ;
#724 = ADVANCED_FACE ( 'NONE', ( #424 ), #22, .F. ) ;
#725 = VECTOR ( 'NONE', #1008, 39.37007874015748143 ) ;
#726 = CARTESIAN_POINT ( 'NONE',  ( 8.405000000000001137, -22.47000000000000242, -0.7500000000000001110 ) ) ;
#727 = ADVANCED_FACE ( 'NONE', ( #439 ), #1153, .F. ) ;
#728 = VERTEX_POINT ( 'NONE', #941 ) ;
#729 = DIRECTION ( 'NONE',  ( 1.215775698114936888E-16, -1.000000000000000000, 1.215775698114937135E-16 ) ) ;
#730 = EDGE_LOOP ( 'NONE', ( #789, #2, #708, #925 ) ) ;
#731 = FACE_OUTER_BOUND ( 'NONE', #778, .T. ) ;
#732 = DIRECTION ( 'NONE',  ( 1.000000000000000000, 0.000000000000000000, 3.130242492740477644E-15 ) ) ;
#733 = EDGE_CURVE ( 'NONE', #87, #1071, #236, .T. ) ;
#734 = ORIENTED_EDGE ( 'NONE', *, *, #1145, .F. ) ;
#735 = PRODUCT_DEFINITION_FORMATION_WITH_SPECIFIED_SOURCE ( 'ANY', '', #493, .NOT_KNOWN. ) ;
#736 = DIRECTION ( 'NONE',  ( 0.000000000000000000, 0.000000000000000000, 1.000000000000000000 ) ) ;
#737 = ORIENTED_EDGE ( 'NONE', *, *, #1087, .T. ) ;
#738 = CARTESIAN_POINT ( 'NONE',  ( -8.404999999999999361, 22.41000000000000014, -0.1199999999999976225 ) ) ;
#739 = DIRECTION ( 'NONE',  ( -0.000000000000000000, -0.000000000000000000, 1.000000000000000000 ) ) ;
#740 = ORIENTED_EDGE ( 'NONE', *, *, #786, .F. ) ;
#741 = EDGE_CURVE ( 'NONE', #622, #996, #654, .T. ) ;
#742 = VECTOR ( 'NONE', #840, 39.37007874015748143 ) ;
#743 = DIRECTION ( 'NONE',  ( 1.000000000000000000, 0.000000000000000000, 0.000000000000000000 ) ) ;
#744 = VERTEX_POINT ( 'NONE', #9 ) ;
#745 = LINE ( 'NONE', #214, #776 ) ;
#746 = LINE ( 'NONE', #118, #682 ) ;
#747 = ORIENTED_EDGE ( 'NONE', *, *, #578, .F. ) ;
#748 = CARTESIAN_POINT ( 'NONE',  ( 8.285000000000000142, 22.46999999999999886, -0.1199999999999979000 ) ) ;
#749 = EDGE_CURVE ( 'NONE', #244, #416, #509, .T. ) ;
#750 = ORIENTED_EDGE ( 'NONE', *, *, #530, .F. ) ;
#751 = DIRECTION ( 'NONE',  ( -0.000000000000000000, -0.000000000000000000, 1.000000000000000000 ) ) ;
#752 = VECTOR ( 'NONE', #739, 39.37007874015748143 ) ;
#753 = LINE ( 'NONE', #232, #1259 ) ;
#754 = VECTOR ( 'NONE', #929, 39.37007874015748143 ) ;
#755 = VECTOR ( 'NONE', #396, 39.37007874015748143 ) ;
#756 = ORIENTED_EDGE ( 'NONE', *, *, #554, .T. ) ;
#757 = CARTESIAN_POINT ( 'NONE',  ( 0.000000000000000000, 0.000000000000000000, 0.000000000000000000 ) ) ;
#758 = ORIENTED_EDGE ( 'NONE', *, *, #1231, .T. ) ;
#759 = CARTESIAN_POINT ( 'NONE',  ( 8.065000000000003055, -17.50000000000000000, -1.930000000000000160 ) ) ;
#760 = EDGE_CURVE ( 'NONE', #438, #71, #1342, .T. ) ;
#761 = CYLINDRICAL_SURFACE ( 'NONE', #1265, 0.05999999999999662548 ) ;
#762 = ORIENTED_EDGE ( 'NONE', *, *, #313, .T. ) ;
#763 = MANIFOLD_SOLID_BREP ( 'Cortar-Extruir1', #939 ) ;
#764 = CARTESIAN_POINT ( 'NONE',  ( 8.317161150346981557, 22.35000000000000142, -0.1199999999999979972 ) ) ;
#765 = ORIENTED_EDGE ( 'NONE', *, *, #64, .T. ) ;
#766 = CARTESIAN_POINT ( 'NONE',  ( -8.285000000000003695, 22.38216115034698106, -3.909957440931976645E-15 ) ) ;
#767 = ADVANCED_FACE ( 'NONE', ( #1287 ), #1239, .F. ) ;
#768 = ORIENTED_EDGE ( 'NONE', *, *, #1242, .F. ) ;
#769 = PLANE ( 'NONE',  #1251 ) ;
#770 = CARTESIAN_POINT ( 'NONE',  ( -8.404999999999997584, -22.22000000000000242, -1.930000000000000160 ) ) ;
#771 = DIRECTION ( 'NONE',  ( -1.000000000000000000, 0.000000000000000000, -0.000000000000000000 ) ) ;
#772 = CIRCLE ( 'NONE', #112, 0.1560000000000001941 ) ;
#773 = CARTESIAN_POINT ( 'NONE',  ( -8.284999999999998366, -22.22000000000000242, 0.000000000000000000 ) ) ;
#774 = EDGE_CURVE ( 'NONE', #287, #1221, #154, .T. ) ;
#775 = DIRECTION ( 'NONE',  ( 1.000000000000000000, 0.000000000000000000, 0.000000000000000000 ) ) ;
#776 = VECTOR ( 'NONE', #751, 39.37007874015748143 ) ;
#777 = DIRECTION ( 'NONE',  ( -0.000000000000000000, -0.000000000000000000, 1.000000000000000000 ) ) ;
#778 = EDGE_LOOP ( 'NONE', ( #1274, #224, #1311, #481 ) ) ;
#779 = DIRECTION ( 'NONE',  ( 1.000000000000000000, 0.000000000000000000, 0.000000000000000000 ) ) ;
#780 = CARTESIAN_POINT ( 'NONE',  ( -8.285000000000001918, 22.46999999999999886, -1.930000000000000160 ) ) ;
#781 = CARTESIAN_POINT ( 'NONE',  ( -8.284999999999998366, -22.41000000000000014, -0.1199999999999976225 ) ) ;
#782 = ORIENTED_EDGE ( 'NONE', *, *, #331, .F. ) ;
#783 = CARTESIAN_POINT ( 'NONE',  ( 0.000000000000000000, -22.41000000000000014, 1.423411580698805134E-13 ) ) ;
#784 = AXIS2_PLACEMENT_3D ( 'NONE', #606, #1016, #193 ) ;
#785 = LINE ( 'NONE', #551, #1331 ) ;
#786 = EDGE_CURVE ( 'NONE', #217, #796, #266, .T. ) ;
#787 = CARTESIAN_POINT ( 'NONE',  ( 8.345000000000000639, 22.22000000000000242, -0.7500000000000003331 ) ) ;
#788 = ORIENTED_EDGE ( 'NONE', *, *, #484, .T. ) ;
#789 = ORIENTED_EDGE ( 'NONE', *, *, #1231, .F. ) ;
#790 = EDGE_CURVE ( 'NONE', #587, #616, #132, .T. ) ;
#791 = CIRCLE ( 'NONE', #93, 0.1199999999999976225 ) ;
#792 = DIRECTION ( 'NONE',  ( 1.000000000000000000, 0.000000000000000000, 0.000000000000000000 ) ) ;
#793 = DIRECTION ( 'NONE',  ( -1.092739197465766787E-13, 0.000000000000000000, 1.000000000000000000 ) ) ;
#794 = EDGE_CURVE ( 'NONE', #616, #1221, #242, .T. ) ;
#795 = ORIENTED_EDGE ( 'NONE', *, *, #341, .T. ) ;
#796 = VERTEX_POINT ( 'NONE', #673 ) ;
#797 = CARTESIAN_POINT ( 'NONE',  ( 8.285000000000003695, -22.22000000000000242, -1.930000000000000160 ) ) ;
#798 = CARTESIAN_POINT ( 'NONE',  ( -8.284999999999998366, -22.22000000000000242, -1.930000000000000160 ) ) ;
#799 = ORIENTED_EDGE ( 'NONE', *, *, #82, .T. ) ;
#800 = PLANE ( 'NONE',  #1180 ) ;
#801 = AXIS2_PLACEMENT_3D ( 'NONE', #953, #430, #1237 ) ;
#802 = CIRCLE ( 'NONE', #566, 0.1560000000000001941 ) ;
#803 = CARTESIAN_POINT ( 'NONE',  ( -8.285000000000001918, 22.35000000000000142, -0.1199999999999979972 ) ) ;
#804 = EDGE_CURVE ( 'NONE', #398, #622, #785, .T. ) ;
#805 = VERTEX_POINT ( 'NONE', #557 ) ;
#806 = PLANE ( 'NONE',  #841 ) ;
#807 = DIRECTION ( 'NONE',  ( 0.000000000000000000, 0.000000000000000000, 1.000000000000000000 ) ) ;
#808 = ORIENTED_EDGE ( 'NONE', *, *, #614, .F. ) ;
#809 = CARTESIAN_POINT ( 'NONE',  ( 8.285000000000003695, -22.41000000000000014, 1.423411580698805134E-13 ) ) ;
#810 = FACE_OUTER_BOUND ( 'NONE', #488, .T. ) ;
#811 = ORIENTED_EDGE ( 'NONE', *, *, #322, .F. ) ;
#812 = CARTESIAN_POINT ( 'NONE',  ( -8.285000000000001918, 22.41000000000000014, 1.423411580698807405E-13 ) ) ;
#813 = EDGE_CURVE ( 'NONE', #138, #1131, #620, .T. ) ;
#814 = VECTOR ( 'NONE', #962, 39.37007874015748143 ) ;
#815 = AXIS2_PLACEMENT_3D ( 'NONE', #153, #472, #865 ) ;
#816 = LINE ( 'NONE', #893, #576 ) ;
#817 = ORIENTED_EDGE ( 'NONE', *, *, #774, .F. ) ;
#818 = CYLINDRICAL_SURFACE ( 'NONE', #536, 0.1199999999999976225 ) ;
#819 = CARTESIAN_POINT ( 'NONE',  ( -8.404999999999997584, -22.22000000000000242, -0.7500000000000004441 ) ) ;
#820 = ORIENTED_EDGE ( 'NONE', *, *, #25, .F. ) ;
#821 = CARTESIAN_POINT ( 'NONE',  ( 8.345000000000002416, -22.22000000000000242, -0.1199999999999987188 ) ) ;
#822 = ORIENTED_EDGE ( 'NONE', *, *, #176, .T. ) ;
#823 = CARTESIAN_POINT ( 'NONE',  ( -8.285000000000001918, 22.46999999999999886, -1.930000000000000160 ) ) ;
#824 = DIRECTION ( 'NONE',  ( -1.000000000000000000, 0.000000000000000000, 3.130242492740391658E-15 ) ) ;
#825 = ORIENTED_EDGE ( 'NONE', *, *, #1323, .F. ) ;
#826 = DIRECTION ( 'NONE',  ( -0.000000000000000000, -0.000000000000000000, 1.000000000000000000 ) ) ;
#827 = ORIENTED_EDGE ( 'NONE', *, *, #444, .T. ) ;
#828 = DIRECTION ( 'NONE',  ( -0.000000000000000000, 0.000000000000000000, 1.000000000000000000 ) ) ;
#829 = ADVANCED_FACE ( 'NONE', ( #41 ), #28, .F. ) ;
#830 = DIRECTION ( 'NONE',  ( -1.000000000000000000, -0.000000000000000000, -0.000000000000000000 ) ) ;
#831 = EDGE_LOOP ( 'NONE', ( #917, #1214, #904, #147 ) ) ;
#832 = LINE ( 'NONE', #13, #603 ) ;
#833 = VERTEX_POINT ( 'NONE', #968 ) ;
#834 = LINE ( 'NONE', #647, #1049 ) ;
#835 = EDGE_CURVE ( 'NONE', #71, #1040, #34, .T. ) ;
#836 = CARTESIAN_POINT ( 'NONE',  ( 8.345000000000000639, -22.21999999999999531, -0.7499999999999948930 ) ) ;
#837 = VERTEX_POINT ( 'NONE', #870 ) ;
#838 = AXIS2_PLACEMENT_3D ( 'NONE', #504, #713, #1222 ) ;
#839 = AXIS2_PLACEMENT_3D ( 'NONE', #823, #1328, #598 ) ;
#840 = DIRECTION ( 'NONE',  ( -1.000000000000000000, 0.000000000000000000, 4.553079989440363361E-15 ) ) ;
#841 = AXIS2_PLACEMENT_3D ( 'NONE', #783, #388, #175 ) ;
#842 = ORIENTED_EDGE ( 'NONE', *, *, #484, .F. ) ;
#843 = DIRECTION ( 'NONE',  ( -0.000000000000000000, -0.000000000000000000, 1.000000000000000000 ) ) ;
#844 = DIRECTION ( 'NONE',  ( -0.000000000000000000, -1.000000000000000000, -0.000000000000000000 ) ) ;
#845 = EDGE_LOOP ( 'NONE', ( #625, #512, #940, #1324 ) ) ;
#846 = EDGE_CURVE ( 'NONE', #160, #907, #354, .T. ) ;
#847 = CIRCLE ( 'NONE', #325, 0.1560000000000001941 ) ;
#848 = CARTESIAN_POINT ( 'NONE',  ( 8.285000000000003695, -22.47000000000000242, -0.7500000000000001110 ) ) ;
#849 = ORIENTED_EDGE ( 'NONE', *, *, #1150, .T. ) ;
#850 = DIRECTION ( 'NONE',  ( 1.000000000000000000, 4.370956789862844815E-15, 0.000000000000000000 ) ) ;
#851 = DIRECTION ( 'NONE',  ( 0.000000000000000000, 1.000000000000000000, 0.000000000000000000 ) ) ;
#852 = VECTOR ( 'NONE', #479, 39.37007874015748143 ) ;
#853 = VERTEX_POINT ( 'NONE', #880 ) ;
#854 = EDGE_CURVE ( 'NONE', #1131, #138, #963, .T. ) ;
#855 = DIRECTION ( 'NONE',  ( 1.000000000000000000, 0.000000000000000000, 0.000000000000000000 ) ) ;
#856 = ORIENTED_EDGE ( 'NONE', *, *, #35, .T. ) ;
#857 = FACE_OUTER_BOUND ( 'NONE', #1064, .T. ) ;
#858 = VECTOR ( 'NONE', #615, 39.37007874015748143 ) ;
#859 = DIRECTION ( 'NONE',  ( -0.000000000000000000, -0.000000000000000000, 1.000000000000000000 ) ) ;
#860 = AXIS2_PLACEMENT_3D ( 'NONE', #1275, #149, #348 ) ;
#861 = ORIENTED_EDGE ( 'NONE', *, *, #119, .T. ) ;
#862 = DIRECTION ( 'NONE',  ( 0.000000000000000000, -1.000000000000000000, 0.000000000000000000 ) ) ;
#863 = EDGE_CURVE ( 'NONE', #833, #27, #562, .T. ) ;
#864 = ORIENTED_EDGE ( 'NONE', *, *, #269, .F. ) ;
#865 = DIRECTION ( 'NONE',  ( -1.000000000000000000, 0.000000000000000000, 3.130242492740477644E-15 ) ) ;
#866 = CARTESIAN_POINT ( 'NONE',  ( -8.405000000000001137, 22.22000000000000242, -0.1200000000000000927 ) ) ;
#867 = VERTEX_POINT ( 'NONE', #302 ) ;
#868 = DIRECTION ( 'NONE',  ( -0.000000000000000000, -0.000000000000000000, 1.000000000000000000 ) ) ;
#869 = CIRCLE ( 'NONE', #631, 0.1560000000000001941 ) ;
#870 = CARTESIAN_POINT ( 'NONE',  ( -8.345000000000002416, 22.21999999999999531, -0.7499999999999948930 ) ) ;
#871 = CARTESIAN_POINT ( 'NONE',  ( 8.285000000000000142, 22.22000000000000242, -1.930000000000000160 ) ) ;
#872 = EDGE_CURVE ( 'NONE', #616, #27, #58, .T. ) ;
#873 = PLANE ( 'NONE',  #215 ) ;
#874 = DIRECTION ( 'NONE',  ( 0.000000000000000000, -6.334719985308433293E-15, 1.000000000000000000 ) ) ;
#875 =( NAMED_UNIT ( * ) SI_UNIT ( $, .STERADIAN. ) SOLID_ANGLE_UNIT ( ) );
#876 = CARTESIAN_POINT ( 'NONE',  ( 8.404999999999999361, 22.47000000000000242, -0.7500000000000001110 ) ) ;
#877 = STYLED_ITEM ( 'NONE', ( #446 ), #763 ) ;
#878 = CARTESIAN_POINT ( 'NONE',  ( 8.065000000000003055, -17.50000000000000000, 0.000000000000000000 ) ) ;
#879 = CARTESIAN_POINT ( 'NONE',  ( -8.221000000000003638, -17.50000000000000355, 0.000000000000000000 ) ) ;
#880 = CARTESIAN_POINT ( 'NONE',  ( -8.344999999999998863, -22.22000000000000242, -0.7500000000000003331 ) ) ;
#881 = CARTESIAN_POINT ( 'NONE',  ( 8.285000000000000142, 22.35000000000000142, -0.06000000000000283579 ) ) ;
#882 = VECTOR ( 'NONE', #1108, 39.37007874015748143 ) ;
#883 = CARTESIAN_POINT ( 'NONE',  ( -8.065000000000001279, 16.25000000000000000, -0.05999999999999990757 ) ) ;
#884 = ORIENTED_EDGE ( 'NONE', *, *, #951, .F. ) ;
#885 = CARTESIAN_POINT ( 'NONE',  ( 8.221000000000003638, -17.50000000000000000, -0.05999999999999990757 ) ) ;
#886 = EDGE_CURVE ( 'NONE', #1071, #445, #443, .T. ) ;
#887 = DIRECTION ( 'NONE',  ( -0.000000000000000000, -0.000000000000000000, 1.000000000000000000 ) ) ;
#888 = FACE_OUTER_BOUND ( 'NONE', #546, .T. ) ;
#889 = FACE_OUTER_BOUND ( 'NONE', #720, .T. ) ;
#890 = ORIENTED_EDGE ( 'NONE', *, *, #1194, .F. ) ;
#891 = VECTOR ( 'NONE', #981, 39.37007874015748143 ) ;
#892 = EDGE_CURVE ( 'NONE', #414, #1104, #921, .T. ) ;
#893 = CARTESIAN_POINT ( 'NONE',  ( -8.285000000000001918, 22.41000000000000014, -0.1199999999999979972 ) ) ;
#894 = ORIENTED_EDGE ( 'NONE', *, *, #219, .F. ) ;
#895 = DIRECTION ( 'NONE',  ( 0.000000000000000000, 1.000000000000000000, 3.491481338843133750E-15 ) ) ;
#896 = LINE ( 'NONE', #1290, #282 ) ;
#897 = ORIENTED_EDGE ( 'NONE', *, *, #25, .T. ) ;
#898 = DIRECTION ( 'NONE',  ( 1.000000000000000000, 4.370956789862844815E-15, 0.000000000000000000 ) ) ;
#899 = ORIENTED_EDGE ( 'NONE', *, *, #52, .T. ) ;
#900 = CARTESIAN_POINT ( 'NONE',  ( 7.910000000000003695, 16.25000000000000000, 0.000000000000000000 ) ) ;
#901 = CIRCLE ( 'NONE', #466, 0.1560000000000001941 ) ;
#902 = ADVANCED_FACE ( 'NONE', ( #375 ), #993, .F. ) ;
#903 = CARTESIAN_POINT ( 'NONE',  ( 8.405000000000004690, -22.22000000000000242, -0.7499999999999948930 ) ) ;
#904 = ORIENTED_EDGE ( 'NONE', *, *, #522, .F. ) ;
#905 = LINE ( 'NONE', #797, #669 ) ;
#906 = DIRECTION ( 'NONE',  ( -1.000000000000000000, -0.000000000000000000, -0.000000000000000000 ) ) ;
#907 = VERTEX_POINT ( 'NONE', #1005 ) ;
#908 = FACE_OUTER_BOUND ( 'NONE', #1117, .T. ) ;
#909 = CIRCLE ( 'NONE', #1256, 0.05999999999999881123 ) ;
#910 = EDGE_CURVE ( 'NONE', #616, #1341, #791, .T. ) ;
#911 = CARTESIAN_POINT ( 'NONE',  ( 8.404999999999999361, -22.21999999999999531, -0.7499999999999945599 ) ) ;
#912 = ORIENTED_EDGE ( 'NONE', *, *, #111, .T. ) ;
#913 = FACE_BOUND ( 'NONE', #507, .T. ) ;
#914 = VERTEX_POINT ( 'NONE', #583 ) ;
#915 = LINE ( 'NONE', #81, #725 ) ;
#916 = DIRECTION ( 'NONE',  ( 1.000000000000000000, 0.000000000000000000, 0.000000000000000000 ) ) ;
#917 = ORIENTED_EDGE ( 'NONE', *, *, #1085, .F. ) ;
#918 = AXIS2_PLACEMENT_3D ( 'NONE', #942, #1271, #126 ) ;
#919 = VECTOR ( 'NONE', #887, 39.37007874015748143 ) ;
#920 = DIRECTION ( 'NONE',  ( -0.000000000000000000, 0.000000000000000000, 1.000000000000000000 ) ) ;
#921 = CIRCLE ( 'NONE', #1198, 0.1560000000000001941 ) ;
#922 = ORIENTED_EDGE ( 'NONE', *, *, #403, .F. ) ;
#923 = DIRECTION ( 'NONE',  ( 3.167359992654217435E-15, 0.000000000000000000, 1.000000000000000000 ) ) ;
#924 = LINE ( 'NONE', #1241, #585 ) ;
#925 = ORIENTED_EDGE ( 'NONE', *, *, #419, .F. ) ;
#926 = EDGE_CURVE ( 'NONE', #76, #587, #1116, .T. ) ;
#927 = CARTESIAN_POINT ( 'NONE',  ( 8.285000000000003695, -22.22000000000000242, 0.000000000000000000 ) ) ;
#928 = ORIENTED_EDGE ( 'NONE', *, *, #571, .F. ) ;
#929 = DIRECTION ( 'NONE',  ( 1.215775698114940093E-16, -1.000000000000000000, 2.431551396229882034E-17 ) ) ;
#930 = CARTESIAN_POINT ( 'NONE',  ( 8.285000000000000142, 22.22000000000000242, 0.000000000000000000 ) ) ;
#931 = EDGE_LOOP ( 'NONE', ( #808, #1050, #1243, #788 ) ) ;
#932 = DIRECTION ( 'NONE',  ( 0.000000000000000000, -1.000000000000000000, -0.000000000000000000 ) ) ;
#933 = EDGE_CURVE ( 'NONE', #1155, #131, #589, .T. ) ;
#934 = EDGE_LOOP ( 'NONE', ( #894, #345, #553, #1199 ) ) ;
#935 = FACE_OUTER_BOUND ( 'NONE', #330, .T. ) ;
#936 = DIRECTION ( 'NONE',  ( -0.000000000000000000, -0.000000000000000000, 1.000000000000000000 ) ) ;
#937 = ORIENTED_EDGE ( 'NONE', *, *, #403, .T. ) ;
#938 = DIRECTION ( 'NONE',  ( 0.000000000000000000, 1.000000000000000000, -3.491481338843133750E-15 ) ) ;
#939 = CLOSED_SHELL ( 'NONE', ( #1006, #705, #279, #1074, #1052, #1172, #563, #727, #91, #966, #1266, #1187, #166, #1240, #468, #1213, #277, #230, #99, #33, #1185, #185, #767, #1091, #288, #649, #582, #672, #829, #1284, #202, #623, #157, #630, #902, #990, #724, #356, #459, #428, #194, #305, #656, #137, #653, #1223 ) ) ;
#940 = ORIENTED_EDGE ( 'NONE', *, *, #384, .F. ) ;
#941 = CARTESIAN_POINT ( 'NONE',  ( -8.221000000000001862, 16.25000000000000000, -0.05999999999999990757 ) ) ;
#942 = CARTESIAN_POINT ( 'NONE',  ( 8.285000000000001918, -22.38216115034698106, -0.1199999999999994543 ) ) ;
#943 = EDGE_CURVE ( 'NONE', #543, #1040, #390, .T. ) ;
#944 = ORIENTED_EDGE ( 'NONE', *, *, #269, .T. ) ;
#945 = AXIS2_PLACEMENT_3D ( 'NONE', #229, #843, #955 ) ;
#946 = DIRECTION ( 'NONE',  ( 0.000000000000000000, 0.000000000000000000, 1.000000000000000000 ) ) ;
#947 = AXIS2_PLACEMENT_3D ( 'NONE', #1163, #136, #40 ) ;
#948 = EDGE_LOOP ( 'NONE', ( #601, #24 ) ) ;
#949 = CARTESIAN_POINT ( 'NONE',  ( -8.285000000000001918, 22.38216115034698106, -0.06000000000000391825 ) ) ;
#950 = CARTESIAN_POINT ( 'NONE',  ( -8.284999999999994813, -22.35000000000000142, -0.03000299999999918657 ) ) ;
#951 = EDGE_CURVE ( 'NONE', #712, #534, #1161, .T. ) ;
#952 = VERTEX_POINT ( 'NONE', #1318 ) ;
#953 = CARTESIAN_POINT ( 'NONE',  ( 8.285000000000000142, 22.46999999999999886, -1.930000000000000160 ) ) ;
#954 = ORIENTED_EDGE ( 'NONE', *, *, #1323, .T. ) ;
#955 = DIRECTION ( 'NONE',  ( 1.000000000000000000, 0.000000000000000000, 0.000000000000000000 ) ) ;
#956 = DIRECTION ( 'NONE',  ( 1.215775698114941572E-16, -1.000000000000000000, 2.431551396229867243E-17 ) ) ;
#957 = VECTOR ( 'NONE', #686, 39.37007874015748143 ) ;
#958 = ORIENTED_EDGE ( 'NONE', *, *, #4, .F. ) ;
#959 = DIRECTION ( 'NONE',  ( 1.000000000000000000, 0.000000000000000000, 0.000000000000000000 ) ) ;
#960 = EDGE_LOOP ( 'NONE', ( #928, #820 ) ) ;
#961 = DIRECTION ( 'NONE',  ( -3.167359992654217435E-15, 0.000000000000000000, 1.000000000000000000 ) ) ;
#962 = DIRECTION ( 'NONE',  ( -1.215775698114940093E-16, 1.000000000000000000, -2.431551396229882034E-17 ) ) ;
#963 = CIRCLE ( 'NONE', #1029, 0.1549999999999998601 ) ;
#964 = ORIENTED_EDGE ( 'NONE', *, *, #1313, .T. ) ;
#965 = CARTESIAN_POINT ( 'NONE',  ( 8.404999999999999361, 22.47000000000000242, -0.7500000000000001110 ) ) ;
#966 = ADVANCED_FACE ( 'NONE', ( #1023, #913, #1014, #289, #483 ), #596, .F. ) ;
#967 = ORIENTED_EDGE ( 'NONE', *, *, #322, .T. ) ;
#968 = CARTESIAN_POINT ( 'NONE',  ( 8.285000000000003695, -22.41000000000000014, -0.1199999999999976225 ) ) ;
#969 = DIRECTION ( 'NONE',  ( 0.000000000000000000, -1.000000000000000000, 0.000000000000000000 ) ) ;
#970 = DIRECTION ( 'NONE',  ( 1.000000000000000000, 0.000000000000000000, 0.000000000000000000 ) ) ;
#971 = FACE_OUTER_BOUND ( 'NONE', #628, .T. ) ;
#972 = CIRCLE ( 'NONE', #386, 0.1199999999999966371 ) ;
#973 = CIRCLE ( 'NONE', #1319, 0.05999999999999881123 ) ;
#974 = DIRECTION ( 'NONE',  ( -0.000000000000000000, 0.000000000000000000, 1.000000000000000000 ) ) ;
#975 = EDGE_CURVE ( 'NONE', #1173, #217, #604, .T. ) ;
#976 = DIRECTION ( 'NONE',  ( 0.000000000000000000, -6.334719985308433293E-15, 1.000000000000000000 ) ) ;
#977 = CARTESIAN_POINT ( 'NONE',  ( 8.317161150346981557, 22.35000000000000142, -0.05999999999999918593 ) ) ;
#978 = DIRECTION ( 'NONE',  ( 0.000000000000000000, 0.000000000000000000, -1.000000000000000000 ) ) ;
#979 = CARTESIAN_POINT ( 'NONE',  ( 8.405000000000001137, -22.41000000000000014, -0.1199999999999976225 ) ) ;
#980 = PRODUCT_DEFINITION_CONTEXT ( 'detailed design', #306, 'design' ) ;
#981 = DIRECTION ( 'NONE',  ( -0.000000000000000000, -0.000000000000000000, 1.000000000000000000 ) ) ;
#982 = VECTOR ( 'NONE', #30, 39.37007874015748143 ) ;
#983 = EDGE_CURVE ( 'NONE', #87, #1217, #816, .T. ) ;
#984 = DIRECTION ( 'NONE',  ( 1.000000000000000000, 0.000000000000000000, 0.000000000000000000 ) ) ;
#985 = VECTOR ( 'NONE', #191, 39.37007874015748143 ) ;
#986 = FACE_BOUND ( 'NONE', #652, .T. ) ;
#987 = DIRECTION ( 'NONE',  ( 0.000000000000000000, 0.000000000000000000, 1.000000000000000000 ) ) ;
#988 = FACE_OUTER_BOUND ( 'NONE', #586, .T. ) ;
#989 = CARTESIAN_POINT ( 'NONE',  ( 8.285000000000000142, 22.46999999999999886, -1.930000000000000160 ) ) ;
#990 = ADVANCED_FACE ( 'NONE', ( #86 ), #999, .F. ) ;
#991 = ORIENTED_EDGE ( 'NONE', *, *, #998, .F. ) ;
#992 = APPLICATION_PROTOCOL_DEFINITION ( 'draft international standard', 'automotive_design', 1998, #306 ) ;
#993 = PLANE ( 'NONE',  #1334 ) ;
#994 = ORIENTED_EDGE ( 'NONE', *, *, #813, .T. ) ;
#995 = DIRECTION ( 'NONE',  ( 0.000000000000000000, -1.000000000000000000, 0.000000000000000000 ) ) ;
#996 = VERTEX_POINT ( 'NONE', #821 ) ;
#997 = ORIENTED_EDGE ( 'NONE', *, *, #786, .T. ) ;
#998 = EDGE_CURVE ( 'NONE', #416, #244, #431, .T. ) ;
#999 = PLANE ( 'NONE',  #156 ) ;
#1000 = ORIENTED_EDGE ( 'NONE', *, *, #1203, .F. ) ;
#1001 = CARTESIAN_POINT ( 'NONE',  ( -8.284999999999998366, -22.46999999999999886, -0.7500000000000003331 ) ) ;
#1002 = DIRECTION ( 'NONE',  ( 0.000000000000000000, -3.491481338843134539E-15, -1.000000000000000000 ) ) ;
#1003 = ORIENTED_EDGE ( 'NONE', *, *, #57, .T. ) ;
#1004 = CARTESIAN_POINT ( 'NONE',  ( -8.065000000000001279, 16.25000000000000000, -0.05999999999999990757 ) ) ;
#1005 = CARTESIAN_POINT ( 'NONE',  ( -8.404999999999997584, -22.22000000000000242, -0.1200000000000000927 ) ) ;
#1006 = ADVANCED_FACE ( 'NONE', ( #690 ), #1303, .F. ) ;
#1007 = ORIENTED_EDGE ( 'NONE', *, *, #135, .F. ) ;
#1008 = DIRECTION ( 'NONE',  ( -4.370956789862844026E-15, 1.000000000000000000, -0.000000000000000000 ) ) ;
#1009 = CIRCLE ( 'NONE', #645, 0.1199999999999988159 ) ;
#1010 = LINE ( 'NONE', #75, #454 ) ;
#1011 = CIRCLE ( 'NONE', #1079, 0.1199999999999966233 ) ;
#1012 = ORIENTED_EDGE ( 'NONE', *, *, #695, .F. ) ;
#1013 = CARTESIAN_POINT ( 'NONE',  ( -8.284999999999998366, -22.22000000000000242, -1.930000000000000160 ) ) ;
#1014 = FACE_BOUND ( 'NONE', #321, .T. ) ;
#1015 = ORIENTED_EDGE ( 'NONE', *, *, #370, .T. ) ;
#1016 = DIRECTION ( 'NONE',  ( -0.000000000000000000, 1.000000000000000000, -0.000000000000000000 ) ) ;
#1017 = EDGE_CURVE ( 'NONE', #1143, #1217, #674, .T. ) ;
#1018 = AXIS2_PLACEMENT_3D ( 'NONE', #106, #527, #19 ) ;
#1019 = DIRECTION ( 'NONE',  ( 1.000000000000000000, -0.000000000000000000, -0.000000000000000000 ) ) ;
#1020 = ORIENTED_EDGE ( 'NONE', *, *, #790, .T. ) ;
#1021 = DIRECTION ( 'NONE',  ( -0.000000000000000000, -0.000000000000000000, 1.000000000000000000 ) ) ;
#1022 = AXIS2_PLACEMENT_3D ( 'NONE', #1086, #565, #349 ) ;
#1023 = FACE_BOUND ( 'NONE', #50, .T. ) ;
#1024 = CARTESIAN_POINT ( 'NONE',  ( -8.317161150346981557, -22.35000000000000142, -0.1199999999999979972 ) ) ;
#1025 = CARTESIAN_POINT ( 'NONE',  ( 8.405000000000001137, 1.021859474265607868E-15, 2.683114961858928539E-14 ) ) ;
#1026 = EDGE_CURVE ( 'NONE', #398, #267, #637, .T. ) ;
#1027 = ORIENTED_EDGE ( 'NONE', *, *, #554, .F. ) ;
#1028 = CARTESIAN_POINT ( 'NONE',  ( -8.285000000000000142, -22.22000000000000597, -0.1200000000000005507 ) ) ;
#1029 = AXIS2_PLACEMENT_3D ( 'NONE', #46, #1175, #248 ) ;
#1030 = VERTEX_POINT ( 'NONE', #1048 ) ;
#1031 = CARTESIAN_POINT ( 'NONE',  ( 8.285000000000000142, 22.47000000000000242, -0.7500000000000001110 ) ) ;
#1032 = DIRECTION ( 'NONE',  ( 0.000000000000000000, 1.000000000000000000, -3.491481338843134539E-15 ) ) ;
#1033 = ORIENTED_EDGE ( 'NONE', *, *, #1133, .T. ) ;
#1034 = EDGE_CURVE ( 'NONE', #1225, #11, #847, .T. ) ;
#1035 = CARTESIAN_POINT ( 'NONE',  ( 8.285000000000001918, -22.22000000000000242, -0.1199999999999994543 ) ) ;
#1036 = ORIENTED_EDGE ( 'NONE', *, *, #82, .F. ) ;
#1037 = CARTESIAN_POINT ( 'NONE',  ( -8.317161150346981557, -22.35000000000000142, -0.1199999999999979972 ) ) ;
#1038 = LINE ( 'NONE', #950, #1157 ) ;
#1039 = AXIS2_PLACEMENT_3D ( 'NONE', #1025, #608, #1338 ) ;
#1040 = VERTEX_POINT ( 'NONE', #323 ) ;
#1041 = PRODUCT_RELATED_PRODUCT_CATEGORY ( 'part', '', ( #493 ) ) ;
#1042 = FACE_OUTER_BOUND ( 'NONE', #382, .T. ) ;
#1043 = EDGE_CURVE ( 'NONE', #1217, #1068, #115, .T. ) ;
#1044 = ORIENTED_EDGE ( 'NONE', *, *, #733, .T. ) ;
#1045 = DIRECTION ( 'NONE',  ( -0.000000000000000000, -0.000000000000000000, 1.000000000000000000 ) ) ;
#1046 = CARTESIAN_POINT ( 'NONE',  ( -8.221000000000003638, -17.50000000000000355, -0.05999999999999990757 ) ) ;
#1047 = EDGE_LOOP ( 'NONE', ( #1020, #59, #696, #827 ) ) ;
#1048 = CARTESIAN_POINT ( 'NONE',  ( 8.285000000000000142, 22.35000000000000142, 0.000000000000000000 ) ) ;
#1049 = VECTOR ( 'NONE', #1246, 39.37007874015748143 ) ;
#1050 = ORIENTED_EDGE ( 'NONE', *, *, #35, .F. ) ;
#1051 = CARTESIAN_POINT ( 'NONE',  ( -8.065000000000003055, -17.50000000000000355, -0.05999999999999990757 ) ) ;
#1052 = ADVANCED_FACE ( 'NONE', ( #1258 ), #1142, .F. ) ;
#1053 = DIRECTION ( 'NONE',  ( -0.000000000000000000, -0.000000000000000000, 1.000000000000000000 ) ) ;
#1054 = VECTOR ( 'NONE', #161, 39.37007874015748143 ) ;
#1055 = EDGE_LOOP ( 'NONE', ( #1137, #1272, #817, #593 ) ) ;
#1056 = CIRCLE ( 'NONE', #600, 0.05999999999999662548 ) ;
#1057 = CARTESIAN_POINT ( 'NONE',  ( 8.285000000000003695, -22.38216115034698106, -0.06000000000000282885 ) ) ;
#1058 = AXIS2_PLACEMENT_3D ( 'NONE', #965, #26, #358 ) ;
#1059 = ORIENTED_EDGE ( 'NONE', *, *, #561, .T. ) ;
#1060 = DIRECTION ( 'NONE',  ( -4.370956789862844815E-15, 1.000000000000000000, 0.000000000000000000 ) ) ;
#1061 = LINE ( 'NONE', #1146, #336 ) ;
#1062 = EDGE_LOOP ( 'NONE', ( #523, #380, #567, #171 ) ) ;
#1063 = CARTESIAN_POINT ( 'NONE',  ( 8.285000000000001918, 22.22000000000000597, -0.1199999999999994543 ) ) ;
#1064 = EDGE_LOOP ( 'NONE', ( #441, #795, #912, #199 ) ) ;
#1065 = CARTESIAN_POINT ( 'NONE',  ( 8.285000000000003695, -22.38216115034698106, -0.06000000000000282885 ) ) ;
#1066 = DIRECTION ( 'NONE',  ( -1.000000000000000000, 0.000000000000000000, -0.000000000000000000 ) ) ;
#1067 = VECTOR ( 'NONE', #268, 39.37007874015748143 ) ;
#1068 = VERTEX_POINT ( 'NONE', #748 ) ;
#1069 = EDGE_CURVE ( 'NONE', #98, #907, #972, .T. ) ;
#1070 = PLANE ( 'NONE',  #1058 ) ;
#1071 = VERTEX_POINT ( 'NONE', #316 ) ;
#1072 = DIRECTION ( 'NONE',  ( -4.370956789862844815E-15, 1.000000000000000000, 0.000000000000000000 ) ) ;
#1073 = DIRECTION ( 'NONE',  ( -0.000000000000000000, -0.000000000000000000, 1.000000000000000000 ) ) ;
#1074 = ADVANCED_FACE ( 'NONE', ( #1130 ), #7, .F. ) ;
#1075 = AXIS2_PLACEMENT_3D ( 'NONE', #704, #395, #489 ) ;
#1076 = DIRECTION ( 'NONE',  ( 0.000000000000000000, 0.000000000000000000, 1.000000000000000000 ) ) ;
#1077 =( NAMED_UNIT ( * ) PLANE_ANGLE_UNIT ( ) SI_UNIT ( $, .RADIAN. ) );
#1078 = UNCERTAINTY_MEASURE_WITH_UNIT (LENGTH_MEASURE( 1.000000000000000082E-05 ), #1325, 'distance_accuracy_value', 'NONE');
#1079 = AXIS2_PLACEMENT_3D ( 'NONE', #362, #148, #353 ) ;
#1080 = CARTESIAN_POINT ( 'NONE',  ( 8.285000000000003695, -22.22000000000000242, -0.06000000000000283579 ) ) ;
#1081 = VERTEX_POINT ( 'NONE', #617 ) ;
#1082 = CARTESIAN_POINT ( 'NONE',  ( -8.065000000000003055, -17.50000000000000355, -1.930000000000000160 ) ) ;
#1083 = VECTOR ( 'NONE', #743, 39.37007874015748143 ) ;
#1084 = CARTESIAN_POINT ( 'NONE',  ( 8.065000000000003055, 16.25000000000000000, -0.05999999999999990757 ) ) ;
#1085 = EDGE_CURVE ( 'NONE', #27, #134, #1156, .T. ) ;
#1086 = CARTESIAN_POINT ( 'NONE',  ( -8.285000000000000142, -22.22000000000000597, -0.1200000000000005507 ) ) ;
#1087 = EDGE_CURVE ( 'NONE', #11, #700, #211, .T. ) ;
#1088 = LINE ( 'NONE', #158, #1209 ) ;
#1089 = FACE_BOUND ( 'NONE', #1149, .T. ) ;
#1090 = DIRECTION ( 'NONE',  ( 0.000000000000000000, -1.000000000000000000, 0.000000000000000000 ) ) ;
#1091 = ADVANCED_FACE ( 'NONE', ( #1042 ), #205, .F. ) ;
#1092 = AXIS2_PLACEMENT_3D ( 'NONE', #117, #327, #1060 ) ;
#1093 = CARTESIAN_POINT ( 'NONE',  ( -8.065000000000003055, -17.50000000000000355, 0.000000000000000000 ) ) ;
#1094 = AXIS2_PLACEMENT_3D ( 'NONE', #610, #807, #1216 ) ;
#1095 = EDGE_LOOP ( 'NONE', ( #750, #1297, #1152, #967 ) ) ;
#1096 = PRODUCT_CONTEXT ( 'NONE', #324, 'mechanical' ) ;
#1097 = DIRECTION ( 'NONE',  ( -4.370956789862844815E-15, 1.000000000000000000, 0.000000000000000000 ) ) ;
#1098 = ORIENTED_EDGE ( 'NONE', *, *, #1109, .F. ) ;
#1099 = LINE ( 'NONE', #453, #852 ) ;
#1100 = CARTESIAN_POINT ( 'NONE',  ( -8.285000000000000142, 22.22000000000000242, -0.06000000000000392519 ) ) ;
#1101 = ORIENTED_EDGE ( 'NONE', *, *, #260, .F. ) ;
#1102 = DIRECTION ( 'NONE',  ( -0.000000000000000000, -0.000000000000000000, 1.000000000000000000 ) ) ;
#1103 = CIRCLE ( 'NONE', #389, 0.05999999999999664629 ) ;
#1104 = VERTEX_POINT ( 'NONE', #624 ) ;
#1105 = CARTESIAN_POINT ( 'NONE',  ( 8.285000000000000142, 22.46999999999999886, -0.1199999999999979000 ) ) ;
#1106 = DIRECTION ( 'NONE',  ( -0.000000000000000000, 0.000000000000000000, 1.000000000000000000 ) ) ;
#1107 = ORIENTED_EDGE ( 'NONE', *, *, #665, .F. ) ;
#1108 = DIRECTION ( 'NONE',  ( -0.000000000000000000, -0.000000000000000000, 1.000000000000000000 ) ) ;
#1109 = EDGE_CURVE ( 'NONE', #76, #744, #94, .T. ) ;
#1110 = DIRECTION ( 'NONE',  ( 0.000000000000000000, 1.000000000000000000, 4.553079989440529022E-15 ) ) ;
#1111 = ORIENTED_EDGE ( 'NONE', *, *, #143, .T. ) ;
#1112 = LINE ( 'NONE', #67, #371 ) ;
#1113 = CYLINDRICAL_SURFACE ( 'NONE', #1148, 0.1560000000000001941 ) ;
#1114 = ORIENTED_EDGE ( 'NONE', *, *, #245, .T. ) ;
#1115 = CARTESIAN_POINT ( 'NONE',  ( -8.284999999999998366, -22.35000000000000142, 0.000000000000000000 ) ) ;
#1116 = LINE ( 'NONE', #715, #227 ) ;
#1117 = EDGE_LOOP ( 'NONE', ( #825, #605, #1257, #691 ) ) ;
#1118 = CARTESIAN_POINT ( 'NONE',  ( -8.284999999999998366, -22.46999999999999886, -0.1199999999999979000 ) ) ;
#1119 = AXIS2_PLACEMENT_3D ( 'NONE', #1037, #433, #207 ) ;
#1120 = DIRECTION ( 'NONE',  ( 0.000000000000000000, 0.000000000000000000, -1.000000000000000000 ) ) ;
#1121 = EDGE_LOOP ( 'NONE', ( #618, #429, #849, #1059, #1164, #14 ) ) ;
#1122 = LENGTH_MEASURE_WITH_UNIT ( LENGTH_MEASURE( 0.02539999999999999897 ), #1215 );
#1123 = CARTESIAN_POINT ( 'NONE',  ( -8.285000000000096065, -3.621337700401408609E-14, -0.05999999999999999778 ) ) ;
#1124 = EDGE_LOOP ( 'NONE', ( #8, #944, #1278, #1111 ) ) ;
#1125 = DIRECTION ( 'NONE',  ( 0.000000000000000000, -1.000000000000000000, -0.000000000000000000 ) ) ;
#1126 = EDGE_CURVE ( 'NONE', #796, #996, #218, .T. ) ;
#1127 = FACE_OUTER_BOUND ( 'NONE', #220, .T. ) ;
#1128 = ORIENTED_EDGE ( 'NONE', *, *, #513, .F. ) ;
#1129 = AXIS2_PLACEMENT_3D ( 'NONE', #42, #995, #54 ) ;
#1130 = FACE_OUTER_BOUND ( 'NONE', #141, .T. ) ;
#1131 = VERTEX_POINT ( 'NONE', #123 ) ;
#1132 = DIRECTION ( 'NONE',  ( 0.000000000000000000, 6.334719985308434871E-15, 1.000000000000000000 ) ) ;
#1133 = EDGE_CURVE ( 'NONE', #368, #611, #535, .T. ) ;
#1134 = FACE_OUTER_BOUND ( 'NONE', #80, .T. ) ;
#1135 = ORIENTED_EDGE ( 'NONE', *, *, #502, .F. ) ;
#1136 = CARTESIAN_POINT ( 'NONE',  ( -0.000000000000000000, 22.46999999999999886, -0.1199999999999972478 ) ) ;
#1137 = ORIENTED_EDGE ( 'NONE', *, *, #910, .F. ) ;
#1138 = FACE_OUTER_BOUND ( 'NONE', #1201, .T. ) ;
#1139 = CARTESIAN_POINT ( 'NONE',  ( -8.285000000000000142, 22.22000000000000242, -1.930000000000000160 ) ) ;
#1140 = EDGE_LOOP ( 'NONE', ( #1168, #174, #1162, #643 ) ) ;
#1141 = EDGE_CURVE ( 'NONE', #796, #1155, #629, .T. ) ;
#1142 = PLANE ( 'NONE',  #801 ) ;
#1143 = VERTEX_POINT ( 'NONE', #415 ) ;
#1144 = DIRECTION ( 'NONE',  ( -1.000000000000000000, 0.000000000000000000, 3.491481338843134539E-15 ) ) ;
#1145 = EDGE_CURVE ( 'NONE', #1308, #833, #909, .T. ) ;
#1146 = CARTESIAN_POINT ( 'NONE',  ( -8.344999999999997087, -22.46999999999999886, -0.1199999999999998151 ) ) ;
#1147 = VECTOR ( 'NONE', #1264, 39.37007874015748143 ) ;
#1148 = AXIS2_PLACEMENT_3D ( 'NONE', #180, #511, #916 ) ;
#1149 = EDGE_LOOP ( 'NONE', ( #367, #1036 ) ) ;
#1150 = EDGE_CURVE ( 'NONE', #160, #853, #832, .T. ) ;
#1151 = CARTESIAN_POINT ( 'NONE',  ( 8.345000000000002416, 9.233816427182952939E-16, -0.7499999999999975575 ) ) ;
#1152 = ORIENTED_EDGE ( 'NONE', *, *, #1141, .F. ) ;
#1153 = PLANE ( 'NONE',  #225 ) ;
#1154 = LINE ( 'NONE', #866, #223 ) ;
#1155 = VERTEX_POINT ( 'NONE', #927 ) ;
#1156 = LINE ( 'NONE', #332, #1317 ) ;
#1157 = VECTOR ( 'NONE', #104, 39.37007874015748143 ) ;
#1158 = VECTOR ( 'NONE', #139, 39.37007874015748143 ) ;
#1159 = ORIENTED_EDGE ( 'NONE', *, *, #804, .T. ) ;
#1160 = DIRECTION ( 'NONE',  ( 0.000000000000000000, 1.000000000000000000, 0.000000000000000000 ) ) ;
#1161 = CIRCLE ( 'NONE', #1094, 0.1549999999999998601 ) ;
#1162 = ORIENTED_EDGE ( 'NONE', *, *, #378, .F. ) ;
#1163 = CARTESIAN_POINT ( 'NONE',  ( 8.404999999999999361, 22.46999999999999886, -0.7500000000000001110 ) ) ;
#1164 = ORIENTED_EDGE ( 'NONE', *, *, #363, .F. ) ;
#1165 = CYLINDRICAL_SURFACE ( 'NONE', #642, 0.1560000000000001941 ) ;
#1166 = CARTESIAN_POINT ( 'NONE',  ( -8.404999999999995808, -22.46999999999999886, -0.1199999999999996209 ) ) ;
#1167 = EDGE_CURVE ( 'NONE', #1131, #712, #409, .T. ) ;
#1168 = ORIENTED_EDGE ( 'NONE', *, *, #804, .F. ) ;
#1169 = CARTESIAN_POINT ( 'NONE',  ( 8.065000000000003055, -17.50000000000000000, -0.05999999999999990757 ) ) ;
#1170 = EDGE_LOOP ( 'NONE', ( #271, #765, #376, #209 ) ) ;
#1171 = DIRECTION ( 'NONE',  ( 4.370956789862844815E-15, -1.000000000000000000, 3.491481338843133750E-15 ) ) ;
#1172 = ADVANCED_FACE ( 'NONE', ( #664 ), #555, .F. ) ;
#1173 = VERTEX_POINT ( 'NONE', #32 ) ;
#1174 = CARTESIAN_POINT ( 'NONE',  ( 0.000000000000000000, 22.46999999999999886, 1.425506469502111127E-13 ) ) ;
#1175 = DIRECTION ( 'NONE',  ( -0.000000000000000000, 0.000000000000000000, 1.000000000000000000 ) ) ;
#1176 = CARTESIAN_POINT ( 'NONE',  ( -8.285000000000001918, 22.35000000000000142, -0.06000000000000392519 ) ) ;
#1177 = DIRECTION ( 'NONE',  ( -0.000000000000000000, 1.000000000000000000, 0.000000000000000000 ) ) ;
#1178 = DIRECTION ( 'NONE',  ( 1.000000000000000000, 0.000000000000000000, 0.000000000000000000 ) ) ;
#1179 = EDGE_CURVE ( 'NONE', #11, #1225, #426, .T. ) ;
#1180 = AXIS2_PLACEMENT_3D ( 'NONE', #1211, #292, #1144 ) ;
#1181 = LENGTH_MEASURE_WITH_UNIT ( LENGTH_MEASURE( 0.02539999999999999897 ), #359 );
#1182 = AXIS2_PLACEMENT_3D ( 'NONE', #44, #1076, #779 ) ;
#1183 = CARTESIAN_POINT ( 'NONE',  ( -8.285000000000001918, 22.41000000000000369, -0.7500000000000003331 ) ) ;
#1184 = PLANE ( 'NONE',  #693 ) ;
#1185 = ADVANCED_FACE ( 'NONE', ( #971 ), #252, .T. ) ;
#1186 = FACE_OUTER_BOUND ( 'NONE', #580, .T. ) ;
#1187 = ADVANCED_FACE ( 'NONE', ( #1273 ), #240, .T. ) ;
#1188 = DIRECTION ( 'NONE',  ( 1.000000000000000000, 0.000000000000000000, 0.000000000000000000 ) ) ;
#1189 = DIRECTION ( 'NONE',  ( -1.215775698114936888E-16, 1.000000000000000000, 1.215775698114937135E-16 ) ) ;
#1190 = AXIS2_PLACEMENT_3D ( 'NONE', #48, #771, #465 ) ;
#1191 = LINE ( 'NONE', #977, #103 ) ;
#1192 = ORIENTED_EDGE ( 'NONE', *, *, #813, .F. ) ;
#1193 = FACE_OUTER_BOUND ( 'NONE', #831, .T. ) ;
#1194 = EDGE_CURVE ( 'NONE', #534, #712, #299, .T. ) ;
#1195 = DIRECTION ( 'NONE',  ( 1.000000000000000000, 4.370956789862844815E-15, 0.000000000000000000 ) ) ;
#1196 = AXIS2_PLACEMENT_3D ( 'NONE', #635, #314, #238 ) ;
#1197 = CARTESIAN_POINT ( 'NONE',  ( 8.345000000000000639, 1.014564820076918260E-15, 2.662166073825869865E-14 ) ) ;
#1198 = AXIS2_PLACEMENT_3D ( 'NONE', #70, #476, #1224 ) ;
#1199 = ORIENTED_EDGE ( 'NONE', *, *, #410, .T. ) ;
#1200 = CARTESIAN_POINT ( 'NONE',  ( -8.065000000000003055, -17.50000000000000355, -1.930000000000000160 ) ) ;
#1201 = EDGE_LOOP ( 'NONE', ( #333, #101, #1114, #964 ) ) ;
#1202 = PLANE ( 'NONE',  #183 ) ;
#1203 = EDGE_CURVE ( 'NONE', #590, #1071, #258, .T. ) ;
#1204 = CARTESIAN_POINT ( 'NONE',  ( -8.285000000000000142, 22.22000000000000242, -0.1200000000000005507 ) ) ;
#1205 = EDGE_LOOP ( 'NONE', ( #1232, #994 ) ) ;
#1206 = DIRECTION ( 'NONE',  ( -0.000000000000000000, 0.000000000000000000, 1.000000000000000000 ) ) ;
#1207 = AXIS2_PLACEMENT_3D ( 'NONE', #421, #521, #855 ) ;
#1208 = DIRECTION ( 'NONE',  ( -4.370956789862844815E-15, 1.000000000000000000, 0.000000000000000000 ) ) ;
#1209 = VECTOR ( 'NONE', #1073, 39.37007874015748143 ) ;
#1210 = ORIENTED_EDGE ( 'NONE', *, *, #733, .F. ) ;
#1211 = CARTESIAN_POINT ( 'NONE',  ( -8.404999999999997584, -22.46999999999999886, -0.7500000000000001110 ) ) ;
#1212 = PLANE ( 'NONE',  #1039 ) ;
#1213 = ADVANCED_FACE ( 'NONE', ( #671 ), #1070, .T. ) ;
#1214 = ORIENTED_EDGE ( 'NONE', *, *, #863, .F. ) ;
#1215 =( LENGTH_UNIT ( ) NAMED_UNIT ( * ) SI_UNIT ( $, .METRE. ) );
#1216 = DIRECTION ( 'NONE',  ( 1.000000000000000000, 0.000000000000000000, 0.000000000000000000 ) ) ;
#1217 = VERTEX_POINT ( 'NONE', #462 ) ;
#1218 = DIRECTION ( 'NONE',  ( 0.000000000000000000, -0.000000000000000000, 1.000000000000000000 ) ) ;
#1219 = CARTESIAN_POINT ( 'NONE',  ( -8.404999999999997584, 22.21999999999999531, -0.7499999999999945599 ) ) ;
#1220 = AXIS2_PLACEMENT_3D ( 'NONE', #440, #418, #1247 ) ;
#1221 = VERTEX_POINT ( 'NONE', #560 ) ;
#1222 = DIRECTION ( 'NONE',  ( 1.000000000000000000, 0.000000000000000000, 0.000000000000000000 ) ) ;
#1223 = ADVANCED_FACE ( 'NONE', ( #247 ), #449, .F. ) ;
#1224 = DIRECTION ( 'NONE',  ( 1.000000000000000000, 0.000000000000000000, 0.000000000000000000 ) ) ;
#1225 = VERTEX_POINT ( 'NONE', #885 ) ;
#1226 = DIRECTION ( 'NONE',  ( 0.000000000000000000, -1.000000000000000000, 6.402768735150744159E-15 ) ) ;
#1227 = VECTOR ( 'NONE', #486, 39.37007874015748143 ) ;
#1228 = DIRECTION ( 'NONE',  ( 1.000000000000000000, 0.000000000000000000, 0.000000000000000000 ) ) ;
#1229 = VERTEX_POINT ( 'NONE', #1280 ) ;
#1230 = CARTESIAN_POINT ( 'NONE',  ( -8.065000000000003055, -17.50000000000000355, -0.05999999999999990757 ) ) ;
#1231 = EDGE_CURVE ( 'NONE', #280, #1081, #1011, .T. ) ;
#1232 = ORIENTED_EDGE ( 'NONE', *, *, #854, .T. ) ;
#1233 = CARTESIAN_POINT ( 'NONE',  ( 8.285000000000000142, 22.22000000000000597, -0.06000000000000283579 ) ) ;
#1234 = CARTESIAN_POINT ( 'NONE',  ( 8.285000000000000142, 22.22000000000000242, -1.930000000000000160 ) ) ;
#1235 = ORIENTED_EDGE ( 'NONE', *, *, #1282, .T. ) ;
#1236 = CIRCLE ( 'NONE', #784, 0.1199999999999966233 ) ;
#1237 = DIRECTION ( 'NONE',  ( -0.000000000000000000, 0.000000000000000000, 1.000000000000000000 ) ) ;
#1238 = ORIENTED_EDGE ( 'NONE', *, *, #127, .T. ) ;
#1239 = CYLINDRICAL_SURFACE ( 'NONE', #815, 0.05999999999999662548 ) ;
#1240 = ADVANCED_FACE ( 'NONE', ( #1186 ), #769, .T. ) ;
#1241 = CARTESIAN_POINT ( 'NONE',  ( -8.317161150346981557, -22.35000000000000142, -0.05999999999999918593 ) ) ;
#1242 = EDGE_CURVE ( 'NONE', #287, #1155, #442, .T. ) ;
#1243 = ORIENTED_EDGE ( 'NONE', *, *, #716, .F. ) ;
#1244 = DIRECTION ( 'NONE',  ( 1.000000000000000000, 0.000000000000000000, 0.000000000000000000 ) ) ;
#1245 = EDGE_LOOP ( 'NONE', ( #633, #722, #579, #937 ) ) ;
#1246 = DIRECTION ( 'NONE',  ( 4.370956789862844815E-15, -1.000000000000000000, -3.491481338843133750E-15 ) ) ;
#1247 = DIRECTION ( 'NONE',  ( 1.000000000000000000, 0.000000000000000000, 0.000000000000000000 ) ) ;
#1248 = AXIS2_PLACEMENT_3D ( 'NONE', #759, #524, #1261 ) ;
#1249 = EDGE_CURVE ( 'NONE', #611, #622, #490, .T. ) ;
#1250 = ORIENTED_EDGE ( 'NONE', *, *, #107, .T. ) ;
#1251 = AXIS2_PLACEMENT_3D ( 'NONE', #1174, #574, #874 ) ;
#1252 = DIRECTION ( 'NONE',  ( -0.000000000000000000, 0.000000000000000000, 1.000000000000000000 ) ) ;
#1253 = VERTEX_POINT ( 'NONE', #879 ) ;
#1254 = CARTESIAN_POINT ( 'NONE',  ( 7.909000000000003361, -17.50000000000000000, 0.000000000000000000 ) ) ;
#1255 = FACE_OUTER_BOUND ( 'NONE', #650, .T. ) ;
#1256 = AXIS2_PLACEMENT_3D ( 'NONE', #514, #542, #946 ) ;
#1257 = ORIENTED_EDGE ( 'NONE', *, *, #1291, .F. ) ;
#1258 = FACE_OUTER_BOUND ( 'NONE', #537, .T. ) ;
#1259 = VECTOR ( 'NONE', #936, 39.37007874015748143 ) ;
#1260 = VERTEX_POINT ( 'NONE', #1292 ) ;
#1261 = DIRECTION ( 'NONE',  ( 1.000000000000000000, 0.000000000000000000, 0.000000000000000000 ) ) ;
#1262 = CARTESIAN_POINT ( 'NONE',  ( -8.405000000000001137, 22.22000000000000242, -0.1200000000000000927 ) ) ;
#1263 = ORIENTED_EDGE ( 'NONE', *, *, #522, .T. ) ;
#1264 = DIRECTION ( 'NONE',  ( -0.000000000000000000, -0.000000000000000000, 1.000000000000000000 ) ) ;
#1265 = AXIS2_PLACEMENT_3D ( 'NONE', #23, #844, #732 ) ;
#1266 = ADVANCED_FACE ( 'NONE', ( #677, #1089, #152, #986, #51 ), #470, .T. ) ;
#1267 = AXIS2_PLACEMENT_3D ( 'NONE', #1051, #828, #538 ) ;
#1268 = ORIENTED_EDGE ( 'NONE', *, *, #846, .T. ) ;
#1269 = CYLINDRICAL_SURFACE ( 'NONE', #1248, 0.1560000000000001941 ) ;
#1270 = AXIS2_PLACEMENT_3D ( 'NONE', #707, #920, #170 ) ;
#1271 = DIRECTION ( 'NONE',  ( -0.000000000000000000, -1.000000000000000000, -0.000000000000000000 ) ) ;
#1272 = ORIENTED_EDGE ( 'NONE', *, *, #794, .T. ) ;
#1273 = FACE_OUTER_BOUND ( 'NONE', #85, .T. ) ;
#1274 = ORIENTED_EDGE ( 'NONE', *, *, #350, .F. ) ;
#1275 = CARTESIAN_POINT ( 'NONE',  ( 0.000000000000000000, -22.46999999999999886, 1.425506469502111127E-13 ) ) ;
#1276 = EDGE_CURVE ( 'NONE', #1040, #98, #1316, .T. ) ;
#1277 = PLANE ( 'NONE',  #1129 ) ;
#1278 = ORIENTED_EDGE ( 'NONE', *, *, #210, .T. ) ;
#1279 = VECTOR ( 'NONE', #1329, 39.37007874015748143 ) ;
#1280 = CARTESIAN_POINT ( 'NONE',  ( 8.285000000000000142, 22.46999999999999886, -0.7500000000000003331 ) ) ;
#1281 = UNCERTAINTY_MEASURE_WITH_UNIT (LENGTH_MEASURE( 1.000000000000000082E-05 ), #666, 'distance_accuracy_value', 'NONE');
#1282 = EDGE_CURVE ( 'NONE', #368, #1155, #905, .T. ) ;
#1283 = LINE ( 'NONE', #668, #84 ) ;
#1284 = ADVANCED_FACE ( 'NONE', ( #1193 ), #806, .T. ) ;
#1285 = CARTESIAN_POINT ( 'NONE',  ( 8.285000000000003695, -22.22000000000000242, -1.930000000000000160 ) ) ;
#1286 = DIRECTION ( 'NONE',  ( 0.000000000000000000, 1.000000000000000000, 0.000000000000000000 ) ) ;
#1287 = FACE_OUTER_BOUND ( 'NONE', #1170, .T. ) ;
#1288 = VECTOR ( 'NONE', #544, 39.37007874015748143 ) ;
#1289 = LINE ( 'NONE', #262, #308 ) ;
#1290 = CARTESIAN_POINT ( 'NONE',  ( 0.000000000000000000, 22.41000000000000369, -0.7500000000000003331 ) ) ;
#1291 = EDGE_CURVE ( 'NONE', #952, #1217, #281, .T. ) ;
#1292 = CARTESIAN_POINT ( 'NONE',  ( -7.909000000000001585, 16.25000000000000000, -0.05999999999999990757 ) ) ;
#1293 = VECTOR ( 'NONE', #895, 39.37007874015748143 ) ;
#1294 = AXIS2_PLACEMENT_3D ( 'NONE', #1063, #568, #978 ) ;
#1295 = DIRECTION ( 'NONE',  ( -0.000000000000000000, 1.000000000000000000, 6.334719985308433293E-15 ) ) ;
#1296 = DIRECTION ( 'NONE',  ( -0.000000000000000000, -0.000000000000000000, 1.000000000000000000 ) ) ;
#1297 = ORIENTED_EDGE ( 'NONE', *, *, #933, .F. ) ;
#1298 = CARTESIAN_POINT ( 'NONE',  ( -8.284999999999998366, -22.46999999999999886, -1.930000000000000160 ) ) ;
#1299 = LINE ( 'NONE', #876, #130 ) ;
#1300 = AXIS2_PLACEMENT_3D ( 'NONE', #140, #1295, #976 ) ;
#1301 = LINE ( 'NONE', #989, #290 ) ;
#1302 = ORIENTED_EDGE ( 'NONE', *, *, #892, .T. ) ;
#1303 = CYLINDRICAL_SURFACE ( 'NONE', #256, 0.1560000000000001941 ) ;
#1304 = EDGE_CURVE ( 'NONE', #76, #1221, #63, .T. ) ;
#1305 = ORIENTED_EDGE ( 'NONE', *, *, #111, .F. ) ;
#1306 = FACE_OUTER_BOUND ( 'NONE', #1062, .T. ) ;
#1307 = ORIENTED_EDGE ( 'NONE', *, *, #135, .T. ) ;
#1308 = VERTEX_POINT ( 'NONE', #482 ) ;
#1309 = SHAPE_DEFINITION_REPRESENTATION ( #518, #698 ) ;
#1310 = CARTESIAN_POINT ( 'NONE',  ( -8.285000000000001918, 22.35000000000000142, -0.1199999999999979972 ) ) ;
#1311 = ORIENTED_EDGE ( 'NONE', *, *, #1167, .T. ) ;
#1312 = DIRECTION ( 'NONE',  ( -1.000000000000000000, 0.000000000000000000, 0.000000000000000000 ) ) ;
#1313 = EDGE_CURVE ( 'NONE', #914, #700, #317, .T. ) ;
#1314 = LINE ( 'NONE', #320, #752 ) ;
#1315 = EDGE_LOOP ( 'NONE', ( #408, #991, #636, #181 ) ) ;
#1316 = LINE ( 'NONE', #1013, #882 ) ;
#1317 = VECTOR ( 'NONE', #310, 39.37007874015748143 ) ;
#1318 = CARTESIAN_POINT ( 'NONE',  ( -8.285000000000001918, 22.46999999999999886, -0.7500000000000004441 ) ) ;
#1319 = AXIS2_PLACEMENT_3D ( 'NONE', #803, #286, #719 ) ;
#1320 = ORIENTED_EDGE ( 'NONE', *, *, #1017, .T. ) ;
#1321 = DIRECTION ( 'NONE',  ( 0.000000000000000000, -1.000000000000000000, 4.553079989440529022E-15 ) ) ;
#1322 = CARTESIAN_POINT ( 'NONE',  ( -8.285000000000000142, 22.38216115034698106, -0.1200000000000005507 ) ) ;
#1323 = EDGE_CURVE ( 'NONE', #87, #374, #594, .T. ) ;
#1324 = ORIENTED_EDGE ( 'NONE', *, *, #687, .T. ) ;
#1325 =( CONVERSION_BASED_UNIT ( 'INCH', #1122 ) LENGTH_UNIT ( ) NAMED_UNIT ( #427 ) );
#1326 = DIRECTION ( 'NONE',  ( -1.000000000000000000, -4.370956789862844815E-15, -0.000000000000000000 ) ) ;
#1327 = ORIENTED_EDGE ( 'NONE', *, *, #1109, .T. ) ;
#1328 = DIRECTION ( 'NONE',  ( 1.000000000000000000, 4.370956789862844815E-15, 0.000000000000000000 ) ) ;
#1329 = DIRECTION ( 'NONE',  ( -1.000000000000000000, 0.000000000000000000, 3.491481338843133750E-15 ) ) ;
#1330 = CIRCLE ( 'NONE', #351, 0.05999999999999881123 ) ;
#1331 = VECTOR ( 'NONE', #961, 39.37007874015748143 ) ;
#1332 = ORIENTED_EDGE ( 'NONE', *, *, #835, .F. ) ;
#1333 = EDGE_CURVE ( 'NONE', #1260, #728, #901, .T. ) ;
#1334 = AXIS2_PLACEMENT_3D ( 'NONE', #798, #274, #1208 ) ;
#1335 = CARTESIAN_POINT ( 'NONE',  ( 8.405000000000001137, 22.46999999999999886, -0.7500000000000001110 ) ) ;
#1336 = EDGE_LOOP ( 'NONE', ( #1044, #411, #17, #1250 ) ) ;
#1337 = LINE ( 'NONE', #1105, #250 ) ;
#1338 = DIRECTION ( 'NONE',  ( -3.167359992654216647E-15, 0.000000000000000000, 1.000000000000000000 ) ) ;
#1339 = ORIENTED_EDGE ( 'NONE', *, *, #127, .F. ) ;
#1340 = CARTESIAN_POINT ( 'NONE',  ( 8.220000000000004192, 16.25000000000000000, -1.930000000000000160 ) ) ;
#1341 = VERTEX_POINT ( 'NONE', #1115 ) ;
#1342 = LINE ( 'NONE', #949, #533 ) ;
#1343 = VECTOR ( 'NONE', #89, 39.37007874015748143 ) ;
#1344 = CARTESIAN_POINT ( 'NONE',  ( 7.910000000000003695, 16.25000000000000000, -0.05999999999999990757 ) ) ;
#1345 = ORIENTED_EDGE ( 'NONE', *, *, #1249, .F. ) ;
ENDSEC;
END-ISO-10303-21;
