ISO-10303-21;
HEADER;
FILE_DESCRIPTION (( 'STEP AP214' ),
    '1' );
FILE_NAME ('PP14023-01-(16gacr ANSI-61) - K48 - V0-R0.STEP',
    '2026-08-04T17:28:48',
    ( '' ),
    ( '' ),
    'SwSTEP 2.0',
    'SolidWorks 2024',
    '' );
FILE_SCHEMA (( 'AUTOMOTIVE_DESIGN' ));
ENDSEC;

DATA;
#1 = DIRECTION ( 'NONE',  ( 1.000000000000000000, 0.000000000000000000, 0.000000000000000000 ) ) ;
#2 = DIRECTION ( 'NONE',  ( -1.000000000000000000, -0.000000000000000000, -0.000000000000000000 ) ) ;
#3 = ORIENTED_EDGE ( 'NONE', *, *, #589, .T. ) ;
#4 = CARTESIAN_POINT ( 'NONE',  ( -7.984999999999996767, -1.092739197465705287E-15, 0.000000000000000000 ) ) ;
#5 = VERTEX_POINT ( 'NONE', #687 ) ;
#6 = FACE_OUTER_BOUND ( 'NONE', #876, .T. ) ;
#7 = EDGE_CURVE ( 'NONE', #236, #172, #28, .T. ) ;
#8 = LINE ( 'NONE', #587, #577 ) ;
#9 = DIRECTION ( 'NONE',  ( 1.000000000000000000, 0.000000000000000000, 0.000000000000000000 ) ) ;
#10 = VERTEX_POINT ( 'NONE', #859 ) ;
#11 = DIRECTION ( 'NONE',  ( 0.000000000000000000, 1.000000000000000000, -3.834172622686683600E-15 ) ) ;
#12 = DIRECTION ( 'NONE',  ( 1.000000000000000000, 2.185478394931410575E-16, -1.917086311343342194E-15 ) ) ;
#13 = VECTOR ( 'NONE', #1169, 39.37007874015748143 ) ;
#14 = CARTESIAN_POINT ( 'NONE',  ( -8.365000000000000213, 7.377000000000000668, -0.06000000000000325212 ) ) ;
#15 = ADVANCED_FACE ( 'NONE', ( #74 ), #473, .F. ) ;
#16 = EDGE_LOOP ( 'NONE', ( #977, #617 ) ) ;
#17 = AXIS2_PLACEMENT_3D ( 'NONE', #210, #607, #1104 ) ;
#18 = CARTESIAN_POINT ( 'NONE',  ( -8.365000000000003766, 7.412161150346986638, -3.244069492476312449E-15 ) ) ;
#19 = ORIENTED_EDGE ( 'NONE', *, *, #1183, .T. ) ;
#20 = PLANE ( 'NONE',  #417 ) ;
#21 = AXIS2_PLACEMENT_3D ( 'NONE', #813, #645, #362 ) ;
#22 = DIRECTION ( 'NONE',  ( -1.000000000000000000, 0.000000000000000000, 0.000000000000000000 ) ) ;
#23 = ORIENTED_EDGE ( 'NONE', *, *, #133, .F. ) ;
#24 = PRODUCT_DEFINITION ( 'UNKNOWN', '', #412, #545 ) ;
#25 = DIRECTION ( 'NONE',  ( -1.000000000000000000, -0.000000000000000000, -0.000000000000000000 ) ) ;
#26 = EDGE_CURVE ( 'NONE', #110, #481, #691, .T. ) ;
#27 = EDGE_LOOP ( 'NONE', ( #934, #247 ) ) ;
#28 = CIRCLE ( 'NONE', #653, 0.05999999999999988676 ) ;
#29 = CARTESIAN_POINT ( 'NONE',  ( -8.362000000000001876, 7.377000000000000668, -2.340000000000001190 ) ) ;
#30 = CARTESIAN_POINT ( 'NONE',  ( 8.485000000000001208, -7.500000000000000000, -0.1199999999999995792 ) ) ;
#31 = DIRECTION ( 'NONE',  ( -0.000000000000000000, -0.000000000000000000, 1.000000000000000000 ) ) ;
#32 = EDGE_LOOP ( 'NONE', ( #347, #19 ) ) ;
#33 = DIRECTION ( 'NONE',  ( 0.000000000000000000, 0.000000000000000000, 1.000000000000000000 ) ) ;
#34 = VECTOR ( 'NONE', #938, 39.37007874015748143 ) ;
#35 = EDGE_CURVE ( 'NONE', #169, #1006, #1244, .T. ) ;
#36 = DIRECTION ( 'NONE',  ( 1.000000000000000000, 0.000000000000000000, 0.000000000000000000 ) ) ;
#37 = ORIENTED_EDGE ( 'NONE', *, *, #809, .T. ) ;
#38 = CYLINDRICAL_SURFACE ( 'NONE', #256, 0.1560000000000001941 ) ;
#39 = ORIENTED_EDGE ( 'NONE', *, *, #967, .T. ) ;
#40 = EDGE_CURVE ( 'NONE', #644, #1030, #873, .T. ) ;
#41 = CARTESIAN_POINT ( 'NONE',  ( -8.424999999999998934, -7.377000000000000668, -0.1199999999999987327 ) ) ;
#42 = VERTEX_POINT ( 'NONE', #565 ) ;
#43 = DIRECTION ( 'NONE',  ( -0.000000000000000000, -0.000000000000000000, 1.000000000000000000 ) ) ;
#44 = ORIENTED_EDGE ( 'NONE', *, *, #996, .T. ) ;
#45 = CARTESIAN_POINT ( 'NONE',  ( -8.365000000000000213, 7.377000000000000668, -0.1200000000000009670 ) ) ;
#46 = EDGE_CURVE ( 'NONE', #306, #50, #714, .T. ) ;
#47 = ORIENTED_EDGE ( 'NONE', *, *, #579, .T. ) ;
#48 = CARTESIAN_POINT ( 'NONE',  ( 8.484999999999999432, 7.380000000000000782, -0.1200000000000000372 ) ) ;
#49 = AXIS2_PLACEMENT_3D ( 'NONE', #1078, #1154, #179 ) ;
#50 = VERTEX_POINT ( 'NONE', #1147 ) ;
#51 = CARTESIAN_POINT ( 'NONE',  ( -8.485000000000001208, 7.377000000000000668, -2.340000000000001190 ) ) ;
#52 = PLANE ( 'NONE',  #367 ) ;
#53 = ORIENTED_EDGE ( 'NONE', *, *, #237, .F. ) ;
#54 = AXIS2_PLACEMENT_3D ( 'NONE', #291, #576, #584 ) ;
#55 = CARTESIAN_POINT ( 'NONE',  ( -7.984999999999996767, -1.092739197465705287E-15, -2.340000000000001190 ) ) ;
#56 = ADVANCED_FACE ( 'NONE', ( #1266 ), #558, .F. ) ;
#57 = ORIENTED_EDGE ( 'NONE', *, *, #570, .T. ) ;
#58 = DIRECTION ( 'NONE',  ( 0.000000000000000000, 0.000000000000000000, 1.000000000000000000 ) ) ;
#59 = CARTESIAN_POINT ( 'NONE',  ( -8.485000000000001208, -7.377000000000000668, 0.000000000000000000 ) ) ;
#60 = DIRECTION ( 'NONE',  ( -0.000000000000000000, -0.000000000000000000, 1.000000000000000000 ) ) ;
#61 = CARTESIAN_POINT ( 'NONE',  ( -8.362000000000001876, -7.500000000000002665, -0.6300000000000000044 ) ) ;
#62 = ORIENTED_EDGE ( 'NONE', *, *, #597, .T. ) ;
#63 = DIRECTION ( 'NONE',  ( -0.000000000000000000, 0.000000000000000000, 1.000000000000000000 ) ) ;
#64 = EDGE_CURVE ( 'NONE', #379, #110, #279, .T. ) ;
#65 = FACE_BOUND ( 'NONE', #772, .T. ) ;
#66 = DIRECTION ( 'NONE',  ( 1.000000000000000000, 0.000000000000000000, 0.000000000000000000 ) ) ;
#67 = CARTESIAN_POINT ( 'NONE',  ( 8.485000000000001208, -7.380000000000000782, -0.06000000000000012962 ) ) ;
#68 = VERTEX_POINT ( 'NONE', #668 ) ;
#69 = CARTESIAN_POINT ( 'NONE',  ( 8.485000000000001208, -7.380000000000000782, -0.1200000000000000372 ) ) ;
#70 = ADVANCED_FACE ( 'NONE', ( #955 ), #371, .T. ) ;
#71 = CIRCLE ( 'NONE', #924, 0.05999999999999772182 ) ;
#72 = CARTESIAN_POINT ( 'NONE',  ( 8.484999999999999432, 7.380000000000000782, -1.195183497228115035E-16 ) ) ;
#73 = AXIS2_PLACEMENT_3D ( 'NONE', #1002, #501, #94 ) ;
#74 = FACE_OUTER_BOUND ( 'NONE', #1040, .T. ) ;
#75 = DIRECTION ( 'NONE',  ( -0.000000000000000000, -0.000000000000000000, 1.000000000000000000 ) ) ;
#76 = ORIENTED_EDGE ( 'NONE', *, *, #906, .T. ) ;
#77 = AXIS2_PLACEMENT_3D ( 'NONE', #862, #678, #85 ) ;
#78 = CARTESIAN_POINT ( 'NONE',  ( -8.362000000000001876, -7.377000000000000668, -2.340000000000001190 ) ) ;
#79 = CIRCLE ( 'NONE', #846, 0.1199999999999999262 ) ;
#80 = DIRECTION ( 'NONE',  ( -0.000000000000000000, 1.000000000000000000, -0.000000000000000000 ) ) ;
#81 = EDGE_CURVE ( 'NONE', #889, #1204, #316, .T. ) ;
#82 = DIRECTION ( 'NONE',  ( 0.000000000000000000, 0.000000000000000000, 1.000000000000000000 ) ) ;
#83 = CARTESIAN_POINT ( 'NONE',  ( -7.984999999999996767, -1.092739197465705287E-15, -0.05999999999999990757 ) ) ;
#84 = ORIENTED_EDGE ( 'NONE', *, *, #730, .F. ) ;
#85 = DIRECTION ( 'NONE',  ( 0.000000000000000000, 0.000000000000000000, -1.000000000000000000 ) ) ;
#86 = AXIS2_PLACEMENT_3D ( 'NONE', #197, #592, #1 ) ;
#87 = CARTESIAN_POINT ( 'NONE',  ( -8.362000000000001876, -7.440000000000002167, -0.6300000000000002265 ) ) ;
#88 = ORIENTED_EDGE ( 'NONE', *, *, #465, .T. ) ;
#89 = CARTESIAN_POINT ( 'NONE',  ( -8.484999999999999432, -7.377000000000000668, -0.6300000000000000044 ) ) ;
#90 = EDGE_CURVE ( 'NONE', #68, #795, #320, .T. ) ;
#91 = AXIS2_PLACEMENT_3D ( 'NONE', #1159, #22, #593 ) ;
#92 = VERTEX_POINT ( 'NONE', #887 ) ;
#93 = LINE ( 'NONE', #696, #445 ) ;
#94 = DIRECTION ( 'NONE',  ( 0.000000000000000000, -3.834172622686683600E-15, 1.000000000000000000 ) ) ;
#95 = PRODUCT ( 'PP14023-01-(16gacr ANSI-61) - K48 - V0-R0', 'PP14023-01-(16gacr ANSI-61) - K48 - V0-R0', '', ( #894 ) ) ;
#96 = CYLINDRICAL_SURFACE ( 'NONE', #17, 0.4399999999999999467 ) ;
#97 = DIRECTION ( 'NONE',  ( 1.000000000000000000, 0.000000000000000000, 0.000000000000000000 ) ) ;
#98 = VERTEX_POINT ( 'NONE', #1004 ) ;
#99 = ADVANCED_FACE ( 'NONE', ( #205 ), #96, .F. ) ;
#100 = CARTESIAN_POINT ( 'NONE',  ( -8.362000000000001876, 7.500000000000000000, -2.340000000000001190 ) ) ;
#101 = VECTOR ( 'NONE', #1202, 39.37007874015748143 ) ;
#102 = AXIS2_PLACEMENT_3D ( 'NONE', #767, #972, #948 ) ;
#103 = CARTESIAN_POINT ( 'NONE',  ( 8.485000000000001208, -7.440000000000002167, -0.6300000000000002265 ) ) ;
#104 = CARTESIAN_POINT ( 'NONE',  ( 1.575000000000002398, -1.038854738303221767E-15, -0.05999999999999990757 ) ) ;
#105 = ORIENTED_EDGE ( 'NONE', *, *, #930, .T. ) ;
#106 = LINE ( 'NONE', #716, #281 ) ;
#107 = EDGE_CURVE ( 'NONE', #140, #665, #122, .T. ) ;
#108 = DIRECTION ( 'NONE',  ( 1.917086311343342194E-15, 0.000000000000000000, 1.000000000000000000 ) ) ;
#109 = LINE ( 'NONE', #419, #1009 ) ;
#110 = VERTEX_POINT ( 'NONE', #602 ) ;
#111 = DIRECTION ( 'NONE',  ( -2.185478394931413286E-16, 1.000000000000000000, -1.456985596620941123E-16 ) ) ;
#112 = LINE ( 'NONE', #1182, #1199 ) ;
#113 = EDGE_CURVE ( 'NONE', #1026, #1225, #109, .T. ) ;
#114 = AXIS2_PLACEMENT_3D ( 'NONE', #650, #442, #526 ) ;
#115 = DIRECTION ( 'NONE',  ( -2.185478394931410575E-16, 1.000000000000000000, -0.000000000000000000 ) ) ;
#116 =( CONVERSION_BASED_UNIT ( 'INCH', #497 ) LENGTH_UNIT ( ) NAMED_UNIT ( #517 ) );
#117 = EDGE_LOOP ( 'NONE', ( #757, #243, #519, #195 ) ) ;
#118 = FACE_OUTER_BOUND ( 'NONE', #768, .T. ) ;
#119 = EDGE_LOOP ( 'NONE', ( #447, #549, #1180, #105 ) ) ;
#120 = AXIS2_PLACEMENT_3D ( 'NONE', #375, #971, #1074 ) ;
#121 = PLANE ( 'NONE',  #872 ) ;
#122 = LINE ( 'NONE', #1083, #410 ) ;
#123 = ADVANCED_FACE ( 'NONE', ( #193 ), #510, .F. ) ;
#124 = FACE_OUTER_BOUND ( 'NONE', #728, .T. ) ;
#125 = ORIENTED_EDGE ( 'NONE', *, *, #1068, .T. ) ;
#126 = AXIS2_PLACEMENT_3D ( 'NONE', #1200, #531, #1011 ) ;
#127 = DIRECTION ( 'NONE',  ( 0.000000000000000000, -1.000000000000000000, 0.000000000000000000 ) ) ;
#128 = ORIENTED_EDGE ( 'NONE', *, *, #318, .T. ) ;
#129 = LINE ( 'NONE', #29, #638 ) ;
#130 = DIRECTION ( 'NONE',  ( 1.000000000000000000, 0.000000000000000000, 0.000000000000000000 ) ) ;
#131 = ORIENTED_EDGE ( 'NONE', *, *, #996, .F. ) ;
#132 = CARTESIAN_POINT ( 'NONE',  ( -8.365000000000000213, 7.412161150346986638, -0.1200000000000009670 ) ) ;
#133 = EDGE_CURVE ( 'NONE', #1204, #726, #900, .T. ) ;
#134 = ORIENTED_EDGE ( 'NONE', *, *, #1275, .T. ) ;
#135 = CARTESIAN_POINT ( 'NONE',  ( -7.984999999999996767, -1.092739197465705287E-15, -2.340000000000001190 ) ) ;
#136 = EDGE_LOOP ( 'NONE', ( #1108, #214 ) ) ;
#137 = CARTESIAN_POINT ( 'NONE',  ( -8.140999999999996461, -1.073634707399006472E-15, -2.340000000000001190 ) ) ;
#138 = VECTOR ( 'NONE', #927, 39.37007874015748143 ) ;
#139 = ADVANCED_FACE ( 'NONE', ( #491 ), #720, .F. ) ;
#140 = VERTEX_POINT ( 'NONE', #104 ) ;
#141 = CARTESIAN_POINT ( 'NONE',  ( -8.485000000000001208, -7.377000000000000668, -2.340000000000001190 ) ) ;
#142 = VECTOR ( 'NONE', #425, 39.37007874015748143 ) ;
#143 = VERTEX_POINT ( 'NONE', #912 ) ;
#144 = DIRECTION ( 'NONE',  ( -1.000000000000000000, 0.000000000000000000, 3.491481338843134539E-15 ) ) ;
#145 = ORIENTED_EDGE ( 'NONE', *, *, #422, .F. ) ;
#146 = CIRCLE ( 'NONE', #601, 0.4399999999999999467 ) ;
#147 = EDGE_CURVE ( 'NONE', #229, #5, #8, .T. ) ;
#148 = CARTESIAN_POINT ( 'NONE',  ( -8.362000000000001876, -7.377000000000000668, -2.340000000000001190 ) ) ;
#149 = AXIS2_PLACEMENT_3D ( 'NONE', #215, #12, #910 ) ;
#150 = ORIENTED_EDGE ( 'NONE', *, *, #401, .T. ) ;
#151 = CARTESIAN_POINT ( 'NONE',  ( -8.362000000000001876, 0.000000000000000000, -0.05999999999999999778 ) ) ;
#152 = VERTEX_POINT ( 'NONE', #893 ) ;
#153 = CARTESIAN_POINT ( 'NONE',  ( 8.485000000000001208, -7.500000000000000000, -0.05999999999999978961 ) ) ;
#154 = EDGE_CURVE ( 'NONE', #1119, #236, #1179, .T. ) ;
#155 = DIRECTION ( 'NONE',  ( 0.000000000000000000, -1.000000000000000000, 3.835990623682900600E-15 ) ) ;
#156 = ORIENTED_EDGE ( 'NONE', *, *, #339, .F. ) ;
#157 = DIRECTION ( 'NONE',  ( -1.000000000000000000, -0.000000000000000000, -0.000000000000000000 ) ) ;
#158 = AXIS2_PLACEMENT_3D ( 'NONE', #385, #1071, #868 ) ;
#159 = ORIENTED_EDGE ( 'NONE', *, *, #560, .F. ) ;
#160 = PLANE ( 'NONE',  #181 ) ;
#161 = DIRECTION ( 'NONE',  ( 0.000000000000000000, 3.834172622686683600E-15, -1.000000000000000000 ) ) ;
#162 = EDGE_LOOP ( 'NONE', ( #831, #932, #476, #983 ) ) ;
#163 = CIRCLE ( 'NONE', #54, 0.1139999999999999347 ) ;
#164 = DIRECTION ( 'NONE',  ( 1.000000000000000000, 0.000000000000000000, 0.000000000000000000 ) ) ;
#165 = EDGE_LOOP ( 'NONE', ( #1115, #897, #1156, #1016 ) ) ;
#166 = DIRECTION ( 'NONE',  ( -1.000000000000000000, 0.000000000000000000, 1.991972495380267488E-15 ) ) ;
#167 = CARTESIAN_POINT ( 'NONE',  ( -6.718999999999996753, -2.370000000000000107, -2.340000000000001190 ) ) ;
#168 = DIRECTION ( 'NONE',  ( 1.000000000000000000, 0.000000000000000000, 0.000000000000000000 ) ) ;
#169 = VERTEX_POINT ( 'NONE', #998 ) ;
#170 = EDGE_CURVE ( 'NONE', #665, #443, #744, .T. ) ;
#171 = PLANE ( 'NONE',  #73 ) ;
#172 = VERTEX_POINT ( 'NONE', #293 ) ;
#173 = CYLINDRICAL_SURFACE ( 'NONE', #335, 0.1139999999999999347 ) ;
#174 = ORIENTED_EDGE ( 'NONE', *, *, #1183, .F. ) ;
#175 = CARTESIAN_POINT ( 'NONE',  ( -6.490999999999996994, 2.370000000000000107, 0.000000000000000000 ) ) ;
#176 = EDGE_CURVE ( 'NONE', #903, #1225, #79, .T. ) ;
#177 = CARTESIAN_POINT ( 'NONE',  ( -8.362000000000001876, 7.440000000000000391, 2.875629467015013134E-14 ) ) ;
#178 = ORIENTED_EDGE ( 'NONE', *, *, #356, .T. ) ;
#179 = DIRECTION ( 'NONE',  ( 1.000000000000000000, 0.000000000000000000, 0.000000000000000000 ) ) ;
#180 = ORIENTED_EDGE ( 'NONE', *, *, #1203, .T. ) ;
#181 = AXIS2_PLACEMENT_3D ( 'NONE', #672, #270, #984 ) ;
#182 = CARTESIAN_POINT ( 'NONE',  ( 8.484999999999999432, 7.500000000000002665, -0.6300000000000000044 ) ) ;
#183 = AXIS2_PLACEMENT_3D ( 'NONE', #789, #980, #396 ) ;
#184 = PLANE ( 'NONE',  #102 ) ;
#185 = EDGE_CURVE ( 'NONE', #236, #406, #1184, .T. ) ;
#186 = EDGE_LOOP ( 'NONE', ( #583, #951, #567, #344 ) ) ;
#187 = LINE ( 'NONE', #89, #1042 ) ;
#188 = ORIENTED_EDGE ( 'NONE', *, *, #380, .T. ) ;
#189 = DIRECTION ( 'NONE',  ( 1.000000000000000000, 0.000000000000000000, 0.000000000000000000 ) ) ;
#190 = VECTOR ( 'NONE', #108, 39.37007874015748143 ) ;
#191 = DIRECTION ( 'NONE',  ( 1.000000000000000000, 0.000000000000000000, 0.000000000000000000 ) ) ;
#192 = EDGE_CURVE ( 'NONE', #384, #733, #1092, .T. ) ;
#193 = FACE_OUTER_BOUND ( 'NONE', #314, .T. ) ;
#194 = CARTESIAN_POINT ( 'NONE',  ( -6.604999999999996874, 2.370000000000000107, -2.340000000000001190 ) ) ;
#195 = ORIENTED_EDGE ( 'NONE', *, *, #875, .T. ) ;
#196 = DIRECTION ( 'NONE',  ( -1.821231995776171535E-14, 0.000000000000000000, -1.000000000000000000 ) ) ;
#197 = CARTESIAN_POINT ( 'NONE',  ( -1.484999999999997433, -1.092739197465705287E-15, -0.05999999999999990757 ) ) ;
#198 = VECTOR ( 'NONE', #1039, 39.37007874015748143 ) ;
#199 = DIRECTION ( 'NONE',  ( 0.000000000000000000, -0.000000000000000000, -1.000000000000000000 ) ) ;
#200 = EDGE_CURVE ( 'NONE', #505, #229, #1192, .T. ) ;
#201 = ORIENTED_EDGE ( 'NONE', *, *, #537, .T. ) ;
#202 = DIRECTION ( 'NONE',  ( -0.000000000000000000, -0.000000000000000000, 1.000000000000000000 ) ) ;
#203 = AXIS2_PLACEMENT_3D ( 'NONE', #1270, #751, #655 ) ;
#204 = CARTESIAN_POINT ( 'NONE',  ( -8.484999999999999432, 7.377000000000000668, -0.6300000000000000044 ) ) ;
#205 = FACE_OUTER_BOUND ( 'NONE', #614, .T. ) ;
#206 = ORIENTED_EDGE ( 'NONE', *, *, #1218, .F. ) ;
#207 = DIRECTION ( 'NONE',  ( -0.000000000000000000, 1.000000000000000000, -0.000000000000000000 ) ) ;
#208 = ADVANCED_FACE ( 'NONE', ( #503 ), #905, .F. ) ;
#209 = DIRECTION ( 'NONE',  ( 0.000000000000000000, 1.000000000000000000, 3.841661241090376129E-15 ) ) ;
#210 = CARTESIAN_POINT ( 'NONE',  ( 2.015000000000002345, -1.092739197465705287E-15, -2.340000000000001190 ) ) ;
#211 = DIRECTION ( 'NONE',  ( 0.000000000000000000, 0.000000000000000000, 1.000000000000000000 ) ) ;
#212 = EDGE_LOOP ( 'NONE', ( #156, #945, #368, #731 ) ) ;
#213 = FACE_BOUND ( 'NONE', #711, .T. ) ;
#214 = ORIENTED_EDGE ( 'NONE', *, *, #1258, .T. ) ;
#215 = CARTESIAN_POINT ( 'NONE',  ( -8.484999999999999432, -1.854378418099301829E-15, 1.647596623207884577E-14 ) ) ;
#216 = CIRCLE ( 'NONE', #158, 0.1560000000000001941 ) ;
#217 = DIRECTION ( 'NONE',  ( -1.821231995776076871E-14, 0.000000000000000000, 1.000000000000000000 ) ) ;
#218 = EDGE_LOOP ( 'NONE', ( #449, #454, #963, #1117 ) ) ;
#219 = DIRECTION ( 'NONE',  ( 0.000000000000000000, -1.000000000000000000, -0.000000000000000000 ) ) ;
#220 = ORIENTED_EDGE ( 'NONE', *, *, #560, .T. ) ;
#221 = VECTOR ( 'NONE', #964, 39.37007874015748143 ) ;
#222 = PLANE ( 'NONE',  #1191 ) ;
#223 = EDGE_CURVE ( 'NONE', #1119, #656, #724, .T. ) ;
#224 = DIRECTION ( 'NONE',  ( -0.000000000000000000, -0.000000000000000000, 1.000000000000000000 ) ) ;
#225 = ORIENTED_EDGE ( 'NONE', *, *, #875, .F. ) ;
#226 = CARTESIAN_POINT ( 'NONE',  ( 8.484999999999999432, 7.500000000000002665, -0.6300000000000000044 ) ) ;
#227 = DIRECTION ( 'NONE',  ( 1.000000000000000000, 0.000000000000000000, 0.000000000000000000 ) ) ;
#228 = ADVANCED_FACE ( 'NONE', ( #446 ), #1236, .F. ) ;
#229 = VERTEX_POINT ( 'NONE', #1021 ) ;
#230 = DIRECTION ( 'NONE',  ( 0.000000000000000000, 0.000000000000000000, 1.000000000000000000 ) ) ;
#231 = EDGE_LOOP ( 'NONE', ( #1045, #522, #1121, #128 ) ) ;
#232 = LINE ( 'NONE', #919, #142 ) ;
#233 = ORIENTED_EDGE ( 'NONE', *, *, #237, .T. ) ;
#234 = DIRECTION ( 'NONE',  ( 1.000000000000000000, 0.000000000000000000, 0.000000000000000000 ) ) ;
#235 = VECTOR ( 'NONE', #33, 39.37007874015748143 ) ;
#236 = VERTEX_POINT ( 'NONE', #734 ) ;
#237 = EDGE_CURVE ( 'NONE', #92, #1124, #440, .T. ) ;
#238 = AXIS2_PLACEMENT_3D ( 'NONE', #1120, #1223, #130 ) ;
#239 = VECTOR ( 'NONE', #1263, 39.37007874015748143 ) ;
#240 = CARTESIAN_POINT ( 'NONE',  ( -0.000000000000000000, -7.377000000000000668, -0.05999999999999999778 ) ) ;
#241 = ORIENTED_EDGE ( 'NONE', *, *, #356, .F. ) ;
#242 = LINE ( 'NONE', #137, #138 ) ;
#243 = ORIENTED_EDGE ( 'NONE', *, *, #7, .F. ) ;
#244 = SURFACE_STYLE_USAGE ( .BOTH. , #821 ) ;
#245 = EDGE_CURVE ( 'NONE', #481, #110, #1125, .T. ) ;
#246 = LINE ( 'NONE', #1219, #262 ) ;
#247 = ORIENTED_EDGE ( 'NONE', *, *, #654, .F. ) ;
#248 = CARTESIAN_POINT ( 'NONE',  ( -1.044999999999997486, -1.092739197465705287E-15, -0.05999999999999990757 ) ) ;
#249 = VERTEX_POINT ( 'NONE', #832 ) ;
#250 = DIRECTION ( 'NONE',  ( 0.000000000000000000, 0.000000000000000000, -1.000000000000000000 ) ) ;
#251 = VECTOR ( 'NONE', #706, 39.37007874015748143 ) ;
#252 = FACE_OUTER_BOUND ( 'NONE', #392, .T. ) ;
#253 = ORIENTED_EDGE ( 'NONE', *, *, #906, .F. ) ;
#254 = DIRECTION ( 'NONE',  ( 0.000000000000000000, -1.000000000000000000, 3.491481338843133750E-15 ) ) ;
#255 = ORIENTED_EDGE ( 'NONE', *, *, #245, .T. ) ;
#256 = AXIS2_PLACEMENT_3D ( 'NONE', #55, #533, #758 ) ;
#257 = DIRECTION ( 'NONE',  ( 1.000000000000000000, 0.000000000000000000, 0.000000000000000000 ) ) ;
#258 = CARTESIAN_POINT ( 'NONE',  ( -8.425000000000000711, -1.841265547729713587E-15, 1.626647735174825903E-14 ) ) ;
#259 = EDGE_CURVE ( 'NONE', #733, #889, #544, .T. ) ;
#260 = CARTESIAN_POINT ( 'NONE',  ( -8.362000000000001876, 7.500000000000000000, -2.340000000000001190 ) ) ;
#261 = CARTESIAN_POINT ( 'NONE',  ( -8.362000000000001876, 0.000000000000000000, -0.05999999999999999778 ) ) ;
#262 = VECTOR ( 'NONE', #1035, 39.37007874015748143 ) ;
#263 = ORIENTED_EDGE ( 'NONE', *, *, #710, .T. ) ;
#264 = FACE_OUTER_BOUND ( 'NONE', #162, .T. ) ;
#265 = CARTESIAN_POINT ( 'NONE',  ( -8.362000000000001876, -7.380000000000000782, -0.06000000000000012962 ) ) ;
#266 = DIRECTION ( 'NONE',  ( -0.000000000000000000, -0.000000000000000000, 1.000000000000000000 ) ) ;
#267 = CARTESIAN_POINT ( 'NONE',  ( -8.397161150346983405, -7.380000000000000782, -1.195183497228115035E-16 ) ) ;
#268 = ADVANCED_FACE ( 'NONE', ( #822 ), #327, .F. ) ;
#269 = ORIENTED_EDGE ( 'NONE', *, *, #1084, .T. ) ;
#270 = DIRECTION ( 'NONE',  ( 1.000000000000000000, 0.000000000000000000, 0.000000000000000000 ) ) ;
#271 = FACE_BOUND ( 'NONE', #823, .T. ) ;
#272 = ORIENTED_EDGE ( 'NONE', *, *, #349, .F. ) ;
#273 = CARTESIAN_POINT ( 'NONE',  ( 0.000000000000000000, -7.440000000000000391, 2.875629467015013134E-14 ) ) ;
#274 = ORIENTED_EDGE ( 'NONE', *, *, #307, .F. ) ;
#275 = AXIS2_PLACEMENT_3D ( 'NONE', #1160, #874, #168 ) ;
#276 =( NAMED_UNIT ( * ) SI_UNIT ( $, .STERADIAN. ) SOLID_ANGLE_UNIT ( ) );
#277 = EDGE_CURVE ( 'NONE', #656, #42, #742, .T. ) ;
#278 = DIRECTION ( 'NONE',  ( -1.917086311343342194E-15, 0.000000000000000000, -1.000000000000000000 ) ) ;
#279 = LINE ( 'NONE', #167, #1268 ) ;
#280 = DIRECTION ( 'NONE',  ( 0.000000000000000000, 3.834172622686683600E-15, 1.000000000000000000 ) ) ;
#281 = VECTOR ( 'NONE', #207, 39.37007874015748143 ) ;
#282 = ORIENTED_EDGE ( 'NONE', *, *, #26, .F. ) ;
#283 = FACE_OUTER_BOUND ( 'NONE', #599, .T. ) ;
#284 = EDGE_CURVE ( 'NONE', #413, #1030, #463, .T. ) ;
#285 = APPLICATION_CONTEXT ( 'automotive_design' ) ;
#286 = VECTOR ( 'NONE', #936, 39.37007874015748143 ) ;
#287 = LINE ( 'NONE', #400, #351 ) ;
#288 = EDGE_LOOP ( 'NONE', ( #803, #514, #438, #766 ) ) ;
#289 = PLANE ( 'NONE',  #775 ) ;
#290 = ORIENTED_EDGE ( 'NONE', *, *, #81, .F. ) ;
#291 = CARTESIAN_POINT ( 'NONE',  ( -6.604999999999996874, -2.370000000000000107, -0.05999999999999990757 ) ) ;
#292 = LINE ( 'NONE', #204, #1034 ) ;
#293 = CARTESIAN_POINT ( 'NONE',  ( -8.362000000000001876, -7.380000000000000782, -0.06000000000000012962 ) ) ;
#294 = ORIENTED_EDGE ( 'NONE', *, *, #1027, .F. ) ;
#295 = DIRECTION ( 'NONE',  ( 1.000000000000000000, -0.000000000000000000, -0.000000000000000000 ) ) ;
#296 = DIRECTION ( 'NONE',  ( -1.000000000000000000, 0.000000000000000000, 3.491481338843133750E-15 ) ) ;
#297 = AXIS2_PLACEMENT_3D ( 'NONE', #1245, #230, #643 ) ;
#298 = DIRECTION ( 'NONE',  ( 0.000000000000000000, -3.834172622686683600E-15, -1.000000000000000000 ) ) ;
#299 = ADVANCED_FACE ( 'NONE', ( #1213 ), #729, .F. ) ;
#300 = ORIENTED_EDGE ( 'NONE', *, *, #147, .T. ) ;
#301 = FACE_BOUND ( 'NONE', #420, .T. ) ;
#302 = MECHANICAL_DESIGN_GEOMETRIC_PRESENTATION_REPRESENTATION (  '', ( #863 ), #572 ) ;
#303 = EDGE_LOOP ( 'NONE', ( #1230, #1135, #914, #1269 ) ) ;
#304 = DIRECTION ( 'NONE',  ( 1.000000000000000000, 0.000000000000000000, 0.000000000000000000 ) ) ;
#305 = CARTESIAN_POINT ( 'NONE',  ( 8.484999999999999432, 7.500000000000000000, -0.05999999999999999778 ) ) ;
#306 = VERTEX_POINT ( 'NONE', #430 ) ;
#307 = EDGE_CURVE ( 'NONE', #1281, #1099, #246, .T. ) ;
#308 = CARTESIAN_POINT ( 'NONE',  ( -8.425000000000002487, 7.377000000000000668, -0.6300000000000002265 ) ) ;
#309 = ADVANCED_FACE ( 'NONE', ( #942 ), #52, .F. ) ;
#310 = AXIS2_PLACEMENT_3D ( 'NONE', #1075, #1089, #191 ) ;
#311 = DIRECTION ( 'NONE',  ( -0.000000000000000000, -0.000000000000000000, 1.000000000000000000 ) ) ;
#312 = CARTESIAN_POINT ( 'NONE',  ( -8.362000000000001876, -7.440000000000000391, 2.875629467015013134E-14 ) ) ;
#313 =( NAMED_UNIT ( * ) SI_UNIT ( $, .STERADIAN. ) SOLID_ANGLE_UNIT ( ) );
#314 = EDGE_LOOP ( 'NONE', ( #23, #290, #1209, #778 ) ) ;
#315 = LINE ( 'NONE', #18, #101 ) ;
#316 = CIRCLE ( 'NONE', #815, 0.05999999999999772182 ) ;
#317 = EDGE_LOOP ( 'NONE', ( #263, #44, #452, #939 ) ) ;
#318 = EDGE_CURVE ( 'NONE', #975, #861, #232, .T. ) ;
#319 = DIRECTION ( 'NONE',  ( -1.000000000000000000, 0.000000000000000000, 0.000000000000000000 ) ) ;
#320 = LINE ( 'NONE', #1207, #251 ) ;
#321 = DIRECTION ( 'NONE',  ( 1.000000000000000000, 0.000000000000000000, 0.000000000000000000 ) ) ;
#322 = ORIENTED_EDGE ( 'NONE', *, *, #331, .T. ) ;
#323 = LINE ( 'NONE', #922, #235 ) ;
#324 = AXIS2_PLACEMENT_3D ( 'NONE', #4, #702, #493 ) ;
#325 = VECTOR ( 'NONE', #435, 39.37007874015748143 ) ;
#326 = ADVANCED_FACE ( 'NONE', ( #632 ), #845, .F. ) ;
#327 = PLANE ( 'NONE',  #1188 ) ;
#328 = ORIENTED_EDGE ( 'NONE', *, *, #935, .T. ) ;
#329 = CARTESIAN_POINT ( 'NONE',  ( 8.485000000000001208, -7.500000000000000000, -0.1199999999999995931 ) ) ;
#330 = DIRECTION ( 'NONE',  ( 0.000000000000000000, -3.834172622686683600E-15, -1.000000000000000000 ) ) ;
#331 = EDGE_CURVE ( 'NONE', #595, #306, #931, .T. ) ;
#332 = VERTEX_POINT ( 'NONE', #524 ) ;
#333 = CARTESIAN_POINT ( 'NONE',  ( -0.000000000000000000, 7.500000000000000000, -0.1199999999999995931 ) ) ;
#334 = EDGE_LOOP ( 'NONE', ( #839, #374, #677, #441, #1106, #747, #233, #467 ) ) ;
#335 = AXIS2_PLACEMENT_3D ( 'NONE', #194, #962, #97 ) ;
#336 = DIRECTION ( 'NONE',  ( -0.000000000000000000, 1.000000000000000000, 0.000000000000000000 ) ) ;
#337 = VERTEX_POINT ( 'NONE', #518 ) ;
#338 = CARTESIAN_POINT ( 'NONE',  ( -8.484999999999999432, -7.500000000000001776, -0.6300000000000000044 ) ) ;
#339 = EDGE_CURVE ( 'NONE', #921, #1006, #1126, .T. ) ;
#340 = ORIENTED_EDGE ( 'NONE', *, *, #373, .T. ) ;
#341 = FACE_OUTER_BOUND ( 'NONE', #1161, .T. ) ;
#342 = COLOUR_RGB ( '',0.7921568627450980005, 0.8196078431372548767, 0.9333333333333333481 ) ;
#343 = DIRECTION ( 'NONE',  ( 1.000000000000000000, 0.000000000000000000, 8.821592479540864989E-15 ) ) ;
#344 = ORIENTED_EDGE ( 'NONE', *, *, #511, .F. ) ;
#345 = CARTESIAN_POINT ( 'NONE',  ( -8.362000000000001876, -7.500000000000000000, -0.1200000000000000927 ) ) ;
#346 = VECTOR ( 'NONE', #800, 39.37007874015748143 ) ;
#347 = ORIENTED_EDGE ( 'NONE', *, *, #787, .T. ) ;
#348 = PLANE ( 'NONE',  #1090 ) ;
#349 = EDGE_CURVE ( 'NONE', #733, #726, #1025, .T. ) ;
#350 = DIRECTION ( 'NONE',  ( 1.000000000000000000, 0.000000000000000000, 0.000000000000000000 ) ) ;
#351 = VECTOR ( 'NONE', #892, 39.37007874015748143 ) ;
#352 = EDGE_LOOP ( 'NONE', ( #174, #882, #1239, #84 ) ) ;
#353 = CYLINDRICAL_SURFACE ( 'NONE', #361, 0.05999999999999990757 ) ;
#354 = EDGE_LOOP ( 'NONE', ( #145, #633, #1008, #895 ) ) ;
#355 =( CONVERSION_BASED_UNIT ( 'INCH', #855 ) LENGTH_UNIT ( ) NAMED_UNIT ( #630 ) );
#356 = EDGE_CURVE ( 'NONE', #92, #143, #960, .T. ) ;
#357 = FACE_OUTER_BOUND ( 'NONE', #165, .T. ) ;
#358 = ORIENTED_EDGE ( 'NONE', *, *, #1019, .F. ) ;
#359 = DIRECTION ( 'NONE',  ( 0.000000000000000000, 0.000000000000000000, -1.000000000000000000 ) ) ;
#360 = ORIENTED_EDGE ( 'NONE', *, *, #331, .F. ) ;
#361 = AXIS2_PLACEMENT_3D ( 'NONE', #48, #634, #753 ) ;
#362 = DIRECTION ( 'NONE',  ( 0.000000000000000000, -1.000000000000000000, 3.699377491420362432E-15 ) ) ;
#363 = ADVANCED_FACE ( 'NONE', ( #1158 ), #679, .T. ) ;
#364 = DIRECTION ( 'NONE',  ( 0.000000000000000000, 0.000000000000000000, -1.000000000000000000 ) ) ;
#365 = ORIENTED_EDGE ( 'NONE', *, *, #1241, .F. ) ;
#366 = CARTESIAN_POINT ( 'NONE',  ( -8.365000000000000213, -7.376999999999999780, -0.06000000000000114964 ) ) ;
#367 = AXIS2_PLACEMENT_3D ( 'NONE', #148, #36, #538 ) ;
#368 = ORIENTED_EDGE ( 'NONE', *, *, #1224, .F. ) ;
#369 = FACE_OUTER_BOUND ( 'NONE', #929, .T. ) ;
#370 = CARTESIAN_POINT ( 'NONE',  ( -8.485000000000001208, 7.377000000000000668, -0.6300000000000006706 ) ) ;
#371 = CYLINDRICAL_SURFACE ( 'NONE', #91, 0.1199999999999998151 ) ;
#372 = CARTESIAN_POINT ( 'NONE',  ( 8.485000000000001208, -7.380000000000000782, 0.000000000000000000 ) ) ;
#373 = EDGE_CURVE ( 'NONE', #98, #384, #866, .T. ) ;
#374 = ORIENTED_EDGE ( 'NONE', *, *, #1218, .T. ) ;
#375 = CARTESIAN_POINT ( 'NONE',  ( -6.604999999999996874, 2.370000000000000107, -0.05999999999999990757 ) ) ;
#376 = DIRECTION ( 'NONE',  ( 1.000000000000000000, -0.000000000000000000, -0.000000000000000000 ) ) ;
#377 = ORIENTED_EDGE ( 'NONE', *, *, #959, .F. ) ;
#378 = CARTESIAN_POINT ( 'NONE',  ( -6.718999999999996753, 2.370000000000000107, 0.000000000000000000 ) ) ;
#379 = VERTEX_POINT ( 'NONE', #1257 ) ;
#380 = EDGE_CURVE ( 'NONE', #50, #903, #564, .T. ) ;
#381 = CIRCLE ( 'NONE', #275, 0.4399999999999999467 ) ;
#382 = CARTESIAN_POINT ( 'NONE',  ( -8.365000000000000213, 7.377000000000000668, 0.000000000000000000 ) ) ;
#383 = CARTESIAN_POINT ( 'NONE',  ( -8.485000000000001208, 7.440000000000000391, -0.1199999999999998151 ) ) ;
#384 = VERTEX_POINT ( 'NONE', #370 ) ;
#385 = CARTESIAN_POINT ( 'NONE',  ( -7.984999999999996767, -1.092739197465705287E-15, 0.000000000000000000 ) ) ;
#386 = VECTOR ( 'NONE', #111, 39.37007874015748143 ) ;
#387 = EDGE_LOOP ( 'NONE', ( #1216, #469, #76, #651, #682, #180, #1133, #188 ) ) ;
#388 = CARTESIAN_POINT ( 'NONE',  ( -8.425000000000000711, 7.377000000000000668, 1.626647735174826219E-14 ) ) ;
#389 = DIRECTION ( 'NONE',  ( -2.185478394931410575E-16, 1.000000000000000000, -0.000000000000000000 ) ) ;
#390 = DIRECTION ( 'NONE',  ( -1.000000000000000000, 0.000000000000000000, 0.000000000000000000 ) ) ;
#391 = CARTESIAN_POINT ( 'NONE',  ( -6.604999999999996874, -2.370000000000000107, -0.05999999999999990757 ) ) ;
#392 = EDGE_LOOP ( 'NONE', ( #1222, #360, #377, #836 ) ) ;
#393 = LINE ( 'NONE', #388, #802 ) ;
#394 = LINE ( 'NONE', #383, #1240 ) ;
#395 = EDGE_CURVE ( 'NONE', #505, #1119, #596, .T. ) ;
#396 = DIRECTION ( 'NONE',  ( 1.000000000000000000, 0.000000000000000000, 0.000000000000000000 ) ) ;
#397 = ORIENTED_EDGE ( 'NONE', *, *, #865, .T. ) ;
#398 = FACE_OUTER_BOUND ( 'NONE', #1149, .T. ) ;
#399 = ORIENTED_EDGE ( 'NONE', *, *, #154, .T. ) ;
#400 = CARTESIAN_POINT ( 'NONE',  ( 0.000000000000000000, 7.440000000000002167, -0.6300000000000002265 ) ) ;
#401 = EDGE_CURVE ( 'NONE', #1099, #236, #662, .T. ) ;
#402 = CARTESIAN_POINT ( 'NONE',  ( -8.485000000000001208, 7.377000000000000668, -2.340000000000001190 ) ) ;
#403 = ADVANCED_FACE ( 'NONE', ( #252 ), #184, .T. ) ;
#404 = CYLINDRICAL_SURFACE ( 'NONE', #1280, 0.4399999999999999467 ) ;
#405 = AXIS2_PLACEMENT_3D ( 'NONE', #1229, #838, #350 ) ;
#406 = VERTEX_POINT ( 'NONE', #87 ) ;
#407 = DIRECTION ( 'NONE',  ( -0.000000000000000000, 1.000000000000000000, -0.000000000000000000 ) ) ;
#408 = CIRCLE ( 'NONE', #1129, 0.1199999999999999123 ) ;
#409 = CARTESIAN_POINT ( 'NONE',  ( 8.484999999999999432, 7.500000000000002665, -0.6300000000000000044 ) ) ;
#410 = VECTOR ( 'NONE', #699, 39.37007874015748143 ) ;
#411 = CARTESIAN_POINT ( 'NONE',  ( -8.362000000000001876, 7.380000000000000782, -0.1200000000000000372 ) ) ;
#412 = PRODUCT_DEFINITION_FORMATION_WITH_SPECIFIED_SOURCE ( 'ANY', '', #95, .NOT_KNOWN. ) ;
#413 = VERTEX_POINT ( 'NONE', #1051 ) ;
#414 = DIRECTION ( 'NONE',  ( 0.000000000000000000, 0.000000000000000000, -1.000000000000000000 ) ) ;
#415 = ADVANCED_FACE ( 'NONE', ( #271, #477, #878, #673, #65, #1063 ), #851, .F. ) ;
#416 = ORIENTED_EDGE ( 'NONE', *, *, #489, .F. ) ;
#417 = AXIS2_PLACEMENT_3D ( 'NONE', #153, #1010, #1033 ) ;
#418 = CYLINDRICAL_SURFACE ( 'NONE', #21, 0.05999999999999990757 ) ;
#419 = CARTESIAN_POINT ( 'NONE',  ( -8.362000000000001876, 7.440000000000000391, -0.1199999999999998151 ) ) ;
#420 = EDGE_LOOP ( 'NONE', ( #1101, #282 ) ) ;
#421 = FACE_OUTER_BOUND ( 'NONE', #387, .T. ) ;
#422 = EDGE_CURVE ( 'NONE', #1026, #795, #1043, .T. ) ;
#423 = LINE ( 'NONE', #618, #466 ) ;
#424 = ADVANCED_BREP_SHAPE_REPRESENTATION ( 'PP14023-01-(16gacr ANSI-61) - K48 - V0-R0', ( #703, #725 ), #911 ) ;
#425 = DIRECTION ( 'NONE',  ( -2.185478394931410821E-16, 1.000000000000000000, 8.758115402030108638E-47 ) ) ;
#426 = ORIENTED_EDGE ( 'NONE', *, *, #1137, .T. ) ;
#427 = LINE ( 'NONE', #830, #1020 ) ;
#428 = ORIENTED_EDGE ( 'NONE', *, *, #90, .F. ) ;
#429 = AXIS2_PLACEMENT_3D ( 'NONE', #45, #80, #871 ) ;
#430 = CARTESIAN_POINT ( 'NONE',  ( 8.484999999999999432, 7.500000000000000000, -0.1199999999999995792 ) ) ;
#431 = ORIENTED_EDGE ( 'NONE', *, *, #1203, .F. ) ;
#432 = LINE ( 'NONE', #151, #717 ) ;
#433 = EDGE_LOOP ( 'NONE', ( #608, #1113, #426, #812 ) ) ;
#434 = ADVANCED_FACE ( 'NONE', ( #551 ), #857, .F. ) ;
#435 = DIRECTION ( 'NONE',  ( -1.000000000000000000, 0.000000000000000000, -8.821592479540541556E-15 ) ) ;
#436 = VERTEX_POINT ( 'NONE', #1242 ) ;
#437 = CARTESIAN_POINT ( 'NONE',  ( -1.484999999999997433, -1.092739197465705287E-15, 0.000000000000000000 ) ) ;
#438 = ORIENTED_EDGE ( 'NONE', *, *, #686, .T. ) ;
#439 = VECTOR ( 'NONE', #1053, 39.37007874015748143 ) ;
#440 = LINE ( 'NONE', #240, #286 ) ;
#441 = ORIENTED_EDGE ( 'NONE', *, *, #200, .F. ) ;
#442 = DIRECTION ( 'NONE',  ( -0.000000000000000000, 0.000000000000000000, 1.000000000000000000 ) ) ;
#443 = VERTEX_POINT ( 'NONE', #966 ) ;
#444 = FILL_AREA_STYLE_COLOUR ( '', #342 ) ;
#445 = VECTOR ( 'NONE', #202, 39.37007874015748143 ) ;
#446 = FACE_OUTER_BOUND ( 'NONE', #218, .T. ) ;
#447 = ORIENTED_EDGE ( 'NONE', *, *, #833, .T. ) ;
#448 = FACE_OUTER_BOUND ( 'NONE', #1193, .T. ) ;
#449 = ORIENTED_EDGE ( 'NONE', *, *, #494, .T. ) ;
#450 = EDGE_CURVE ( 'NONE', #143, #169, #1152, .T. ) ;
#451 = CARTESIAN_POINT ( 'NONE',  ( -8.365000000000000213, 7.412161150346986638, -0.1200000000000009670 ) ) ;
#452 = ORIENTED_EDGE ( 'NONE', *, *, #1145, .F. ) ;
#453 = CARTESIAN_POINT ( 'NONE',  ( -7.828999999999997073, -1.092739197465705287E-15, -2.340000000000001190 ) ) ;
#454 = ORIENTED_EDGE ( 'NONE', *, *, #339, .T. ) ;
#455 = FACE_OUTER_BOUND ( 'NONE', #303, .T. ) ;
#456 = ADVANCED_FACE ( 'NONE', ( #357 ), #1249, .F. ) ;
#457 = DIRECTION ( 'NONE',  ( -0.000000000000000000, 1.000000000000000000, -1.422837496700139435E-16 ) ) ;
#458 = DIRECTION ( 'NONE',  ( 1.000000000000000000, 0.000000000000000000, 0.000000000000000000 ) ) ;
#459 = DIRECTION ( 'NONE',  ( 0.000000000000000000, 1.000000000000000000, -3.834172622686683600E-15 ) ) ;
#460 = ORIENTED_EDGE ( 'NONE', *, *, #763, .F. ) ;
#461 = AXIS2_PLACEMENT_3D ( 'NONE', #1017, #1221, #359 ) ;
#462 = DIRECTION ( 'NONE',  ( 1.000000000000000000, 0.000000000000000000, -0.000000000000000000 ) ) ;
#463 = CIRCLE ( 'NONE', #238, 0.4399999999999999467 ) ;
#464 = DIRECTION ( 'NONE',  ( -0.000000000000000000, -0.000000000000000000, 1.000000000000000000 ) ) ;
#465 = EDGE_CURVE ( 'NONE', #172, #738, #762, .T. ) ;
#466 = VECTOR ( 'NONE', #760, 39.37007874015748143 ) ;
#467 = ORIENTED_EDGE ( 'NONE', *, *, #612, .F. ) ;
#468 = CARTESIAN_POINT ( 'NONE',  ( -8.362000000000001876, 7.500000000000000000, -0.1200000000000000927 ) ) ;
#469 = ORIENTED_EDGE ( 'NONE', *, *, #546, .F. ) ;
#470 = CARTESIAN_POINT ( 'NONE',  ( -8.140999999999996461, -1.073634707399006472E-15, -0.05999999999999990757 ) ) ;
#471 = CARTESIAN_POINT ( 'NONE',  ( 8.485000000000001208, -7.380000000000000782, -0.1200000000000000372 ) ) ;
#472 = ADVANCED_FACE ( 'NONE', ( #1057 ), #171, .T. ) ;
#473 = CYLINDRICAL_SURFACE ( 'NONE', #521, 0.4399999999999999467 ) ;
#474 = DIRECTION ( 'NONE',  ( -0.000000000000000000, 0.000000000000000000, 1.000000000000000000 ) ) ;
#475 = CIRCLE ( 'NONE', #86, 0.4399999999999999467 ) ;
#476 = ORIENTED_EDGE ( 'NONE', *, *, #546, .T. ) ;
#477 = FACE_BOUND ( 'NONE', #136, .T. ) ;
#478 = VECTOR ( 'NONE', #60, 39.37007874015748143 ) ;
#479 = EDGE_LOOP ( 'NONE', ( #834, #808, #1055, #547 ) ) ;
#480 = LINE ( 'NONE', #664, #439 ) ;
#481 = VERTEX_POINT ( 'NONE', #606 ) ;
#482 = LINE ( 'NONE', #884, #782 ) ;
#483 = CARTESIAN_POINT ( 'NONE',  ( -8.424999999999998934, -7.377000000000000668, 1.626647735174825588E-14 ) ) ;
#484 = DIRECTION ( 'NONE',  ( -1.000000000000000000, -0.000000000000000000, -0.000000000000000000 ) ) ;
#485 = CARTESIAN_POINT ( 'NONE',  ( 8.485000000000001208, -7.500000000000002665, -0.6300000000000000044 ) ) ;
#486 = CIRCLE ( 'NONE', #947, 0.4399999999999999467 ) ;
#487 = EDGE_LOOP ( 'NONE', ( #636, #718 ) ) ;
#488 = VECTOR ( 'NONE', #578, 39.37007874015748143 ) ;
#489 = EDGE_CURVE ( 'NONE', #1174, #443, #898, .T. ) ;
#490 = DIRECTION ( 'NONE',  ( 1.000000000000000000, 0.000000000000000000, 0.000000000000000000 ) ) ;
#491 = FACE_OUTER_BOUND ( 'NONE', #1032, .T. ) ;
#492 = ORIENTED_EDGE ( 'NONE', *, *, #450, .T. ) ;
#493 = DIRECTION ( 'NONE',  ( 1.000000000000000000, 0.000000000000000000, 0.000000000000000000 ) ) ;
#494 = EDGE_CURVE ( 'NONE', #975, #921, #985, .T. ) ;
#495 = FACE_OUTER_BOUND ( 'NONE', #561, .T. ) ;
#496 = DIRECTION ( 'NONE',  ( 0.000000000000000000, -1.000000000000000000, 0.000000000000000000 ) ) ;
#497 = LENGTH_MEASURE_WITH_UNIT ( LENGTH_MEASURE( 0.02539999999999999897 ), #694 );
#498 = ORIENTED_EDGE ( 'NONE', *, *, #1012, .T. ) ;
#499 = PLANE ( 'NONE',  #1276 ) ;
#500 = CIRCLE ( 'NONE', #1227, 0.1560000000000001941 ) ;
#501 = DIRECTION ( 'NONE',  ( -0.000000000000000000, 1.000000000000000000, 3.834172622686683600E-15 ) ) ;
#502 = ADVANCED_FACE ( 'NONE', ( #997 ), #121, .F. ) ;
#503 = FACE_OUTER_BOUND ( 'NONE', #352, .T. ) ;
#504 = CARTESIAN_POINT ( 'NONE',  ( 0.000000000000000000, 0.000000000000000000, 0.000000000000000000 ) ) ;
#505 = VERTEX_POINT ( 'NONE', #508 ) ;
#506 = PLANE ( 'NONE',  #660 ) ;
#507 = PRESENTATION_LAYER_ASSIGNMENT (  '', '', ( #863 ) ) ;
#508 = CARTESIAN_POINT ( 'NONE',  ( 8.485000000000001208, -7.380000000000000782, -0.06000000000000012962 ) ) ;
#509 = VECTOR ( 'NONE', #115, 39.37007874015748143 ) ;
#510 = PLANE ( 'NONE',  #1194 ) ;
#511 = EDGE_CURVE ( 'NONE', #1201, #50, #112, .T. ) ;
#512 = ORIENTED_EDGE ( 'NONE', *, *, #841, .T. ) ;
#513 = DIRECTION ( 'NONE',  ( -0.000000000000000000, 1.000000000000000000, -1.422837496700139435E-16 ) ) ;
#514 = ORIENTED_EDGE ( 'NONE', *, *, #154, .F. ) ;
#515 = VECTOR ( 'NONE', #600, 39.37007874015748143 ) ;
#516 = CARTESIAN_POINT ( 'NONE',  ( 8.484999999999999432, 7.500000000000000000, -0.05999999999999999778 ) ) ;
#517 = DIMENSIONAL_EXPONENTS ( 1.000000000000000000, 0.000000000000000000, 0.000000000000000000, 0.000000000000000000, 0.000000000000000000, 0.000000000000000000, 0.000000000000000000 ) ;
#518 = CARTESIAN_POINT ( 'NONE',  ( -6.718999999999996753, 2.370000000000000107, -0.05999999999999990757 ) ) ;
#519 = ORIENTED_EDGE ( 'NONE', *, *, #401, .F. ) ;
#520 = DIRECTION ( 'NONE',  ( 0.000000000000000000, 0.000000000000000000, 1.000000000000000000 ) ) ;
#521 = AXIS2_PLACEMENT_3D ( 'NONE', #573, #1064, #968 ) ;
#522 = ORIENTED_EDGE ( 'NONE', *, *, #833, .F. ) ;
#523 = CIRCLE ( 'NONE', #1248, 0.4399999999999999467 ) ;
#524 = CARTESIAN_POINT ( 'NONE',  ( -8.362000000000001876, 7.377000000000000668, 0.000000000000000000 ) ) ;
#525 = VERTEX_POINT ( 'NONE', #585 ) ;
#526 = DIRECTION ( 'NONE',  ( 1.000000000000000000, 0.000000000000000000, 0.000000000000000000 ) ) ;
#527 = ORIENTED_EDGE ( 'NONE', *, *, #730, .T. ) ;
#528 = ADVANCED_FACE ( 'NONE', ( #495 ), #1103, .F. ) ;
#529 = CIRCLE ( 'NONE', #741, 0.1139999999999999347 ) ;
#530 = AXIS2_PLACEMENT_3D ( 'NONE', #451, #457, #166 ) ;
#531 = DIRECTION ( 'NONE',  ( -0.000000000000000000, -0.000000000000000000, 1.000000000000000000 ) ) ;
#532 = ORIENTED_EDGE ( 'NONE', *, *, #46, .F. ) ;
#533 = DIRECTION ( 'NONE',  ( -0.000000000000000000, -0.000000000000000000, 1.000000000000000000 ) ) ;
#534 = VERTEX_POINT ( 'NONE', #103 ) ;
#535 = EDGE_CURVE ( 'NONE', #1026, #595, #394, .T. ) ;
#536 = AXIS2_PLACEMENT_3D ( 'NONE', #1190, #992, #304 ) ;
#537 = EDGE_CURVE ( 'NONE', #1037, #689, #781, .T. ) ;
#538 = DIRECTION ( 'NONE',  ( 0.000000000000000000, 0.000000000000000000, -1.000000000000000000 ) ) ;
#539 = ORIENTED_EDGE ( 'NONE', *, *, #535, .F. ) ;
#540 = FACE_OUTER_BOUND ( 'NONE', #1211, .T. ) ;
#541 = ORIENTED_EDGE ( 'NONE', *, *, #380, .F. ) ;
#542 = FACE_OUTER_BOUND ( 'NONE', #1060, .T. ) ;
#543 = VECTOR ( 'NONE', #981, 39.37007874015748143 ) ;
#544 = LINE ( 'NONE', #828, #735 ) ;
#545 = PRODUCT_DEFINITION_CONTEXT ( 'detailed design', #1262, 'design' ) ;
#546 = EDGE_CURVE ( 'NONE', #726, #332, #806, .T. ) ;
#547 = ORIENTED_EDGE ( 'NONE', *, *, #1068, .F. ) ;
#548 = DIRECTION ( 'NONE',  ( 0.000000000000000000, -3.491481338843134539E-15, -1.000000000000000000 ) ) ;
#549 = ORIENTED_EDGE ( 'NONE', *, *, #81, .T. ) ;
#550 = AXIS2_PLACEMENT_3D ( 'NONE', #804, #25, #414 ) ;
#551 = FACE_OUTER_BOUND ( 'NONE', #119, .T. ) ;
#552 = DIRECTION ( 'NONE',  ( 0.000000000000000000, 0.000000000000000000, -1.000000000000000000 ) ) ;
#553 = DIRECTION ( 'NONE',  ( 0.000000000000000000, 0.000000000000000000, 1.000000000000000000 ) ) ;
#554 = ADVANCED_FACE ( 'NONE', ( #6 ), #685, .T. ) ;
#555 = ORIENTED_EDGE ( 'NONE', *, *, #801, .F. ) ;
#556 =( LENGTH_UNIT ( ) NAMED_UNIT ( * ) SI_UNIT ( $, .METRE. ) );
#557 = DIRECTION ( 'NONE',  ( -1.000000000000000000, -0.000000000000000000, -0.000000000000000000 ) ) ;
#558 = PLANE ( 'NONE',  #1205 ) ;
#559 = FACE_OUTER_BOUND ( 'NONE', #1232, .T. ) ;
#560 = EDGE_CURVE ( 'NONE', #795, #689, #287, .T. ) ;
#561 = EDGE_LOOP ( 'NONE', ( #658, #1127, #1058, #498 ) ) ;
#562 = DIRECTION ( 'NONE',  ( 0.000000000000000000, -0.000000000000000000, -1.000000000000000000 ) ) ;
#563 = EDGE_CURVE ( 'NONE', #436, #790, #750, .T. ) ;
#564 = LINE ( 'NONE', #72, #928 ) ;
#565 = CARTESIAN_POINT ( 'NONE',  ( 8.485000000000001208, -7.500000000000002665, -0.6300000000000000044 ) ) ;
#566 = DIRECTION ( 'NONE',  ( 1.000000000000000000, -0.000000000000000000, -0.000000000000000000 ) ) ;
#567 = ORIENTED_EDGE ( 'NONE', *, *, #952, .T. ) ;
#568 = DIRECTION ( 'NONE',  ( 0.000000000000000000, 0.000000000000000000, 1.000000000000000000 ) ) ;
#569 = VECTOR ( 'NONE', #330, 39.37007874015748143 ) ;
#570 = EDGE_CURVE ( 'NONE', #337, #1271, #690, .T. ) ;
#571 = CARTESIAN_POINT ( 'NONE',  ( -8.362000000000001876, -7.500000000000000000, -0.1200000000000000927 ) ) ;
#572 =( GEOMETRIC_REPRESENTATION_CONTEXT ( 3 ) GLOBAL_UNCERTAINTY_ASSIGNED_CONTEXT ( ( #1036 ) ) GLOBAL_UNIT_ASSIGNED_CONTEXT ( ( #355, #791, #276 ) ) REPRESENTATION_CONTEXT ( 'NONE', 'WORKASPACE' ) );
#573 = CARTESIAN_POINT ( 'NONE',  ( -1.484999999999997433, -1.092739197465705287E-15, -2.340000000000001190 ) ) ;
#574 = CYLINDRICAL_SURFACE ( 'NONE', #837, 0.4399999999999999467 ) ;
#575 = ORIENTED_EDGE ( 'NONE', *, *, #899, .T. ) ;
#576 = DIRECTION ( 'NONE',  ( -0.000000000000000000, 0.000000000000000000, 1.000000000000000000 ) ) ;
#577 = VECTOR ( 'NONE', #484, 39.37007874015748143 ) ;
#578 = DIRECTION ( 'NONE',  ( -2.185478394931410821E-16, 1.000000000000000000, 8.758115402030108638E-47 ) ) ;
#579 = EDGE_CURVE ( 'NONE', #861, #384, #292, .T. ) ;
#580 = ORIENTED_EDGE ( 'NONE', *, *, #637, .F. ) ;
#581 = DIRECTION ( 'NONE',  ( 1.000000000000000000, 0.000000000000000000, 0.000000000000000000 ) ) ;
#582 = AXIS2_PLACEMENT_3D ( 'NONE', #953, #659, #63 ) ;
#583 = ORIENTED_EDGE ( 'NONE', *, *, #1137, .F. ) ;
#584 = DIRECTION ( 'NONE',  ( 1.000000000000000000, 0.000000000000000000, 0.000000000000000000 ) ) ;
#585 = CARTESIAN_POINT ( 'NONE',  ( -8.362000000000001876, 7.377000000000000668, -0.06000000000000045575 ) ) ;
#586 = CLOSED_SHELL ( 'NONE', ( #99, #991, #1233, #208, #15, #692, #891, #56, #646, #771, #309, #228, #139, #415, #856, #640, #635, #554, #1003, #472, #502, #883, #403, #916, #434, #528, #363, #974, #819, #70, #628, #621, #827, #1162, #1110, #268, #704, #456, #123, #1283, #1178, #326, #299, #1250 ) ) ;
#587 = CARTESIAN_POINT ( 'NONE',  ( 8.484999999999999432, 7.380000000000000782, -0.06000000000000012962 ) ) ;
#588 = LINE ( 'NONE', #1279, #999 ) ;
#589 = EDGE_CURVE ( 'NONE', #644, #1047, #475, .T. ) ;
#590 = ORIENTED_EDGE ( 'NONE', *, *, #1044, .F. ) ;
#591 = PLANE ( 'NONE',  #1170 ) ;
#592 = DIRECTION ( 'NONE',  ( -0.000000000000000000, 0.000000000000000000, 1.000000000000000000 ) ) ;
#593 = DIRECTION ( 'NONE',  ( 0.000000000000000000, -1.000000000000000000, 3.841661241090376129E-15 ) ) ;
#594 = APPLICATION_PROTOCOL_DEFINITION ( 'draft international standard', 'automotive_design', 1998, #285 ) ;
#595 = VERTEX_POINT ( 'NONE', #792 ) ;
#596 = CIRCLE ( 'NONE', #1215, 0.05999999999999990757 ) ;
#597 = EDGE_CURVE ( 'NONE', #172, #505, #698, .T. ) ;
#598 = CARTESIAN_POINT ( 'NONE',  ( 0.000000000000000000, 0.000000000000000000, 0.000000000000000000 ) ) ;
#599 = EDGE_LOOP ( 'NONE', ( #1086, #88, #512, #241 ) ) ;
#600 = DIRECTION ( 'NONE',  ( 1.000000000000000000, -0.000000000000000000, -0.000000000000000000 ) ) ;
#601 = AXIS2_PLACEMENT_3D ( 'NONE', #777, #881, #1272 ) ;
#602 = CARTESIAN_POINT ( 'NONE',  ( -6.718999999999996753, -2.370000000000000107, 0.000000000000000000 ) ) ;
#603 = ORIENTED_EDGE ( 'NONE', *, *, #605, .F. ) ;
#604 = CYLINDRICAL_SURFACE ( 'NONE', #631, 0.1199999999999976225 ) ;
#605 = EDGE_CURVE ( 'NONE', #1047, #644, #811, .T. ) ;
#606 = CARTESIAN_POINT ( 'NONE',  ( -6.490999999999996994, -2.370000000000000107, 0.000000000000000000 ) ) ;
#607 = DIRECTION ( 'NONE',  ( -0.000000000000000000, -0.000000000000000000, 1.000000000000000000 ) ) ;
#608 = ORIENTED_EDGE ( 'NONE', *, *, #223, .F. ) ;
#609 = DIRECTION ( 'NONE',  ( 0.000000000000000000, 3.834172622686683600E-15, 1.000000000000000000 ) ) ;
#610 = VECTOR ( 'NONE', #566, 39.37007874015748143 ) ;
#611 = DIRECTION ( 'NONE',  ( 1.000000000000000000, 0.000000000000000000, 0.000000000000000000 ) ) ;
#612 = EDGE_CURVE ( 'NONE', #1204, #1124, #705, .T. ) ;
#613 = DIRECTION ( 'NONE',  ( 0.000000000000000000, -0.000000000000000000, 1.000000000000000000 ) ) ;
#614 = EDGE_LOOP ( 'NONE', ( #1079, #847, #1243, #416 ) ) ;
#615 = LINE ( 'NONE', #329, #1005 ) ;
#616 = AXIS2_PLACEMENT_3D ( 'NONE', #1114, #11, #609 ) ;
#617 = ORIENTED_EDGE ( 'NONE', *, *, #170, .F. ) ;
#618 = CARTESIAN_POINT ( 'NONE',  ( 8.485000000000001208, -7.440000000000000391, 2.875629467015013134E-14 ) ) ;
#619 = PRODUCT_RELATED_PRODUCT_CATEGORY ( 'part', '', ( #95 ) ) ;
#620 = DIRECTION ( 'NONE',  ( 1.000000000000000000, 0.000000000000000000, 0.000000000000000000 ) ) ;
#621 = ADVANCED_FACE ( 'NONE', ( #455 ), #20, .T. ) ;
#622 = APPLICATION_PROTOCOL_DEFINITION ( 'draft international standard', 'automotive_design', 1998, #1262 ) ;
#623 = EDGE_LOOP ( 'NONE', ( #272, #328, #852, #253 ) ) ;
#624 = CARTESIAN_POINT ( 'NONE',  ( -8.424999999999998934, -7.500000000000000000, -0.1199999999999987188 ) ) ;
#625 = CARTESIAN_POINT ( 'NONE',  ( 8.484999999999999432, 7.440000000000000391, -0.1199999999999998151 ) ) ;
#626 = ORIENTED_EDGE ( 'NONE', *, *, #1054, .F. ) ;
#627 = DIRECTION ( 'NONE',  ( -3.491481338843134539E-15, -7.630557032347863741E-31, -1.000000000000000000 ) ) ;
#628 = ADVANCED_FACE ( 'NONE', ( #341 ), #418, .F. ) ;
#629 = ORIENTED_EDGE ( 'NONE', *, *, #1062, .F. ) ;
#630 = DIMENSIONAL_EXPONENTS ( 1.000000000000000000, 0.000000000000000000, 0.000000000000000000, 0.000000000000000000, 0.000000000000000000, 0.000000000000000000, 0.000000000000000000 ) ;
#631 = AXIS2_PLACEMENT_3D ( 'NONE', #132, #513, #708 ) ;
#632 = FACE_OUTER_BOUND ( 'NONE', #880, .T. ) ;
#633 = ORIENTED_EDGE ( 'NONE', *, *, #113, .T. ) ;
#634 = DIRECTION ( 'NONE',  ( 1.000000000000000000, 0.000000000000000000, 0.000000000000000000 ) ) ;
#635 = ADVANCED_FACE ( 'NONE', ( #542 ), #748, .F. ) ;
#636 = ORIENTED_EDGE ( 'NONE', *, *, #770, .T. ) ;
#637 = EDGE_CURVE ( 'NONE', #534, #406, #1206, .T. ) ;
#638 = VECTOR ( 'NONE', #1131, 39.37007874015748143 ) ;
#639 = DIRECTION ( 'NONE',  ( 0.000000000000000000, -0.000000000000000000, 1.000000000000000000 ) ) ;
#640 = ADVANCED_FACE ( 'NONE', ( #1150 ), #348, .T. ) ;
#641 = VECTOR ( 'NONE', #217, 39.37007874015748143 ) ;
#642 = ORIENTED_EDGE ( 'NONE', *, *, #40, .F. ) ;
#643 = DIRECTION ( 'NONE',  ( 1.000000000000000000, 0.000000000000000000, 0.000000000000000000 ) ) ;
#644 = VERTEX_POINT ( 'NONE', #918 ) ;
#645 = DIRECTION ( 'NONE',  ( -1.000000000000000000, 0.000000000000000000, 0.000000000000000000 ) ) ;
#646 = ADVANCED_FACE ( 'NONE', ( #1136 ), #222, .F. ) ;
#647 = VECTOR ( 'NONE', #1277, 39.37007874015748143 ) ;
#648 = CARTESIAN_POINT ( 'NONE',  ( -8.485000000000001208, -7.377000000000000668, -2.340000000000001190 ) ) ;
#649 = ORIENTED_EDGE ( 'NONE', *, *, #563, .F. ) ;
#650 = CARTESIAN_POINT ( 'NONE',  ( -6.604999999999996874, 2.370000000000000107, -0.05999999999999990757 ) ) ;
#651 = ORIENTED_EDGE ( 'NONE', *, *, #450, .F. ) ;
#652 = CARTESIAN_POINT ( 'NONE',  ( -7.828999999999997073, -1.092739197465705287E-15, 0.000000000000000000 ) ) ;
#653 = AXIS2_PLACEMENT_3D ( 'NONE', #663, #1070, #552 ) ;
#654 = EDGE_CURVE ( 'NONE', #1271, #759, #529, .T. ) ;
#655 = DIRECTION ( 'NONE',  ( 1.000000000000000000, 0.000000000000000000, 0.000000000000000000 ) ) ;
#656 = VERTEX_POINT ( 'NONE', #1041 ) ;
#657 = CARTESIAN_POINT ( 'NONE',  ( 8.484999999999999432, 7.500000000000002665, -0.6300000000000000044 ) ) ;
#658 = ORIENTED_EDGE ( 'NONE', *, *, #935, .F. ) ;
#659 = DIRECTION ( 'NONE',  ( -1.000000000000000000, 0.000000000000000000, -0.000000000000000000 ) ) ;
#660 = AXIS2_PLACEMENT_3D ( 'NONE', #598, #990, #1195 ) ;
#661 = VECTOR ( 'NONE', #1069, 39.37007874015748143 ) ;
#662 = LINE ( 'NONE', #571, #661 ) ;
#663 = CARTESIAN_POINT ( 'NONE',  ( -8.362000000000001876, -7.380000000000000782, -0.1200000000000000372 ) ) ;
#664 = CARTESIAN_POINT ( 'NONE',  ( -8.365000000000000213, -7.377000000000000668, 0.000000000000000000 ) ) ;
#665 = VERTEX_POINT ( 'NONE', #1234 ) ;
#666 = FILL_AREA_STYLE ('',( #444 ) ) ;
#667 = DIRECTION ( 'NONE',  ( 0.000000000000000000, 0.000000000000000000, 1.000000000000000000 ) ) ;
#668 = CARTESIAN_POINT ( 'NONE',  ( -8.362000000000001876, 7.500000000000000000, -0.6300000000000006706 ) ) ;
#669 = CARTESIAN_POINT ( 'NONE',  ( -8.365000000000000213, 7.377000000000000668, -0.06000000000000325212 ) ) ;
#670 = VERTEX_POINT ( 'NONE', #652 ) ;
#671 = EDGE_CURVE ( 'NONE', #525, #332, #129, .T. ) ;
#672 = CARTESIAN_POINT ( 'NONE',  ( -8.362000000000001876, -7.377000000000000668, -2.340000000000001190 ) ) ;
#673 = FACE_BOUND ( 'NONE', #32, .T. ) ;
#674 = VECTOR ( 'NONE', #1252, 39.37007874015748143 ) ;
#675 = EDGE_LOOP ( 'NONE', ( #1088, #57, #1022, #555 ) ) ;
#676 = DIRECTION ( 'NONE',  ( 0.000000000000000000, 1.000000000000000000, -3.491481338843134539E-15 ) ) ;
#677 = ORIENTED_EDGE ( 'NONE', *, *, #147, .F. ) ;
#678 = DIRECTION ( 'NONE',  ( 1.000000000000000000, 0.000000000000000000, 0.000000000000000000 ) ) ;
#679 = PLANE ( 'NONE',  #1151 ) ;
#680 = ORIENTED_EDGE ( 'NONE', *, *, #284, .F. ) ;
#681 = LINE ( 'NONE', #485, #674 ) ;
#682 = ORIENTED_EDGE ( 'NONE', *, *, #841, .F. ) ;
#683 = CARTESIAN_POINT ( 'NONE',  ( -6.490999999999996994, -2.370000000000000107, -2.340000000000001190 ) ) ;
#684 = VECTOR ( 'NONE', #390, 39.37007874015748143 ) ;
#685 = CYLINDRICAL_SURFACE ( 'NONE', #709, 0.1199999999999998151 ) ;
#686 = EDGE_CURVE ( 'NONE', #1119, #534, #423, .T. ) ;
#687 = CARTESIAN_POINT ( 'NONE',  ( -8.362000000000001876, 7.380000000000000782, -0.06000000000000012962 ) ) ;
#688 = CYLINDRICAL_SURFACE ( 'NONE', #49, 0.1139999999999999347 ) ;
#689 = VERTEX_POINT ( 'NONE', #1056 ) ;
#690 = LINE ( 'NONE', #979, #647 ) ;
#691 = CIRCLE ( 'NONE', #1038, 0.1139999999999999347 ) ;
#692 = ADVANCED_FACE ( 'NONE', ( #264 ), #1247, .F. ) ;
#693 = CARTESIAN_POINT ( 'NONE',  ( -8.485000000000001208, 7.377000000000000668, -2.340000000000001190 ) ) ;
#694 =( LENGTH_UNIT ( ) NAMED_UNIT ( * ) SI_UNIT ( $, .METRE. ) );
#695 = ORIENTED_EDGE ( 'NONE', *, *, #192, .T. ) ;
#696 = CARTESIAN_POINT ( 'NONE',  ( -6.490999999999996994, 2.370000000000000107, -2.340000000000001190 ) ) ;
#697 = VECTOR ( 'NONE', #157, 39.37007874015748143 ) ;
#698 = LINE ( 'NONE', #799, #515 ) ;
#699 = DIRECTION ( 'NONE',  ( -0.000000000000000000, -0.000000000000000000, 1.000000000000000000 ) ) ;
#700 = ORIENTED_EDGE ( 'NONE', *, *, #923, .T. ) ;
#701 = AXIS2_PLACEMENT_3D ( 'NONE', #755, #1146, #364 ) ;
#702 = DIRECTION ( 'NONE',  ( 0.000000000000000000, 0.000000000000000000, 1.000000000000000000 ) ) ;
#703 = MANIFOLD_SOLID_BREP ( 'Cortar-Extruir1', #586 ) ;
#704 = ADVANCED_FACE ( 'NONE', ( #779 ), #160, .F. ) ;
#705 = LINE ( 'NONE', #1097, #973 ) ;
#706 = DIRECTION ( 'NONE',  ( 0.000000000000000000, -1.000000000000000000, -3.491481338843133750E-15 ) ) ;
#707 = ORIENTED_EDGE ( 'NONE', *, *, #40, .T. ) ;
#708 = DIRECTION ( 'NONE',  ( -1.000000000000000000, 0.000000000000000000, 1.849688745710215137E-15 ) ) ;
#709 = AXIS2_PLACEMENT_3D ( 'NONE', #1171, #490, #209 ) ;
#710 = EDGE_CURVE ( 'NONE', #68, #1225, #1157, .T. ) ;
#711 = EDGE_LOOP ( 'NONE', ( #680, #590 ) ) ;
#712 = CARTESIAN_POINT ( 'NONE',  ( -8.485000000000001208, 7.377000000000000668, 0.000000000000000000 ) ) ;
#713 = CARTESIAN_POINT ( 'NONE',  ( -8.365000000000000213, 7.377000000000000668, -0.1200000000000009670 ) ) ;
#714 = CIRCLE ( 'NONE', #1081, 0.1199999999999999262 ) ;
#715 = ORIENTED_EDGE ( 'NONE', *, *, #1054, .T. ) ;
#716 = CARTESIAN_POINT ( 'NONE',  ( -8.362000000000001876, -7.377000000000000668, 0.000000000000000000 ) ) ;
#717 = VECTOR ( 'NONE', #840, 39.37007874015748143 ) ;
#718 = ORIENTED_EDGE ( 'NONE', *, *, #1094, .T. ) ;
#719 = DIRECTION ( 'NONE',  ( -2.185478394931410821E-16, 1.000000000000000000, 0.000000000000000000 ) ) ;
#720 = PLANE ( 'NONE',  #1235 ) ;
#721 = ORIENTED_EDGE ( 'NONE', *, *, #535, .T. ) ;
#722 = FACE_BOUND ( 'NONE', #1189, .T. ) ;
#723 = EDGE_CURVE ( 'NONE', #595, #229, #1024, .T. ) ;
#724 = LINE ( 'NONE', #30, #1072 ) ;
#725 = AXIS2_PLACEMENT_3D ( 'NONE', #504, #211, #321 ) ;
#726 = VERTEX_POINT ( 'NONE', #382 ) ;
#727 = DIRECTION ( 'NONE',  ( 0.000000000000000000, 1.000000000000000000, 3.491481338843134539E-15 ) ) ;
#728 = EDGE_LOOP ( 'NONE', ( #642, #603, #1096, #816 ) ) ;
#729 = CYLINDRICAL_SURFACE ( 'NONE', #986, 0.1560000000000001941 ) ;
#730 = EDGE_CURVE ( 'NONE', #10, #481, #1282, .T. ) ;
#731 = ORIENTED_EDGE ( 'NONE', *, *, #35, .T. ) ;
#732 = LINE ( 'NONE', #333, #820 ) ;
#733 = VERTEX_POINT ( 'NONE', #1067 ) ;
#734 = CARTESIAN_POINT ( 'NONE',  ( -8.362000000000001876, -7.440000000000000391, -0.1199999999999998151 ) ) ;
#735 = VECTOR ( 'NONE', #343, 39.37007874015748143 ) ;
#736 = ORIENTED_EDGE ( 'NONE', *, *, #46, .T. ) ;
#737 = CARTESIAN_POINT ( 'NONE',  ( -8.425000000000000711, -7.377000000000000668, -0.6300000000000002265 ) ) ;
#738 = VERTEX_POINT ( 'NONE', #890 ) ;
#739 = EDGE_CURVE ( 'NONE', #889, #861, #393, .T. ) ;
#740 = CARTESIAN_POINT ( 'NONE',  ( -6.604999999999996874, 2.370000000000000107, 0.000000000000000000 ) ) ;
#741 = AXIS2_PLACEMENT_3D ( 'NONE', #740, #58, #1143 ) ;
#742 = LINE ( 'NONE', #1132, #569 ) ;
#743 = UNCERTAINTY_MEASURE_WITH_UNIT (LENGTH_MEASURE( 1.000000000000000082E-05 ), #116, 'distance_accuracy_value', 'NONE');
#744 = CIRCLE ( 'NONE', #183, 0.4399999999999999467 ) ;
#745 = ORIENTED_EDGE ( 'NONE', *, *, #787, .F. ) ;
#746 = PLANE ( 'NONE',  #1105 ) ;
#747 = ORIENTED_EDGE ( 'NONE', *, *, #1102, .T. ) ;
#748 = PLANE ( 'NONE',  #582 ) ;
#749 = EDGE_CURVE ( 'NONE', #1204, #525, #773, .T. ) ;
#750 = CIRCLE ( 'NONE', #310, 0.1560000000000001941 ) ;
#751 = DIRECTION ( 'NONE',  ( -0.000000000000000000, 0.000000000000000000, 1.000000000000000000 ) ) ;
#752 = ORIENTED_EDGE ( 'NONE', *, *, #307, .T. ) ;
#753 = DIRECTION ( 'NONE',  ( 0.000000000000000000, 1.000000000000000000, 3.699377491420362432E-15 ) ) ;
#754 = ORIENTED_EDGE ( 'NONE', *, *, #739, .T. ) ;
#755 = CARTESIAN_POINT ( 'NONE',  ( -8.362000000000001876, 7.500000000000000000, -2.340000000000001190 ) ) ;
#756 = VECTOR ( 'NONE', #1118, 39.37007874015748143 ) ;
#757 = ORIENTED_EDGE ( 'NONE', *, *, #465, .F. ) ;
#758 = DIRECTION ( 'NONE',  ( 1.000000000000000000, 0.000000000000000000, 0.000000000000000000 ) ) ;
#759 = VERTEX_POINT ( 'NONE', #175 ) ;
#760 = DIRECTION ( 'NONE',  ( 0.000000000000000000, -3.834172622686683600E-15, -1.000000000000000000 ) ) ;
#761 = AXIS2_PLACEMENT_3D ( 'NONE', #1111, #224, #620 ) ;
#762 = LINE ( 'NONE', #265, #1091 ) ;
#763 = EDGE_CURVE ( 'NONE', #1201, #656, #408, .T. ) ;
#764 = DIRECTION ( 'NONE',  ( 0.000000000000000000, 0.000000000000000000, -1.000000000000000000 ) ) ;
#765 = FACE_OUTER_BOUND ( 'NONE', #926, .T. ) ;
#766 = ORIENTED_EDGE ( 'NONE', *, *, #637, .T. ) ;
#767 = CARTESIAN_POINT ( 'NONE',  ( 8.484999999999999432, 7.500000000000000000, -0.05999999999999978961 ) ) ;
#768 = EDGE_LOOP ( 'NONE', ( #695, #1168, #754, #47 ) ) ;
#769 = DIRECTION ( 'NONE',  ( 1.000000000000000000, 0.000000000000000000, -3.491481338843133750E-15 ) ) ;
#770 = EDGE_CURVE ( 'NONE', #152, #337, #1049, .T. ) ;
#771 = ADVANCED_FACE ( 'NONE', ( #283 ), #1175, .F. ) ;
#772 = EDGE_LOOP ( 'NONE', ( #1000, #3 ) ) ;
#773 = LINE ( 'NONE', #786, #965 ) ;
#774 = DIRECTION ( 'NONE',  ( 1.000000000000000000, 2.185478394931410575E-16, -1.917086311343342194E-15 ) ) ;
#775 = AXIS2_PLACEMENT_3D ( 'NONE', #273, #459, #280 ) ;
#776 = EDGE_LOOP ( 'NONE', ( #700, #37, #206, #1228 ) ) ;
#777 = CARTESIAN_POINT ( 'NONE',  ( 2.015000000000002345, -1.092739197465705287E-15, -0.05999999999999990757 ) ) ;
#778 = ORIENTED_EDGE ( 'NONE', *, *, #349, .T. ) ;
#779 = FACE_OUTER_BOUND ( 'NONE', #117, .T. ) ;
#780 = EDGE_CURVE ( 'NONE', #68, #1037, #978, .T. ) ;
#781 = LINE ( 'NONE', #409, #917 ) ;
#782 = VECTOR ( 'NONE', #196, 39.37007874015748143 ) ;
#783 = ORIENTED_EDGE ( 'NONE', *, *, #723, .T. ) ;
#784 = DIRECTION ( 'NONE',  ( 0.000000000000000000, 1.000000000000000000, -0.000000000000000000 ) ) ;
#785 = ORIENTED_EDGE ( 'NONE', *, *, #579, .F. ) ;
#786 = CARTESIAN_POINT ( 'NONE',  ( -0.000000000000000000, 7.377000000000000668, -0.05999999999999999778 ) ) ;
#787 = EDGE_CURVE ( 'NONE', #10, #379, #163, .T. ) ;
#788 = DIRECTION ( 'NONE',  ( 0.000000000000000000, -1.000000000000000000, -3.491481338843133750E-15 ) ) ;
#789 = CARTESIAN_POINT ( 'NONE',  ( 2.015000000000002345, -1.092739197465705287E-15, 0.000000000000000000 ) ) ;
#790 = VERTEX_POINT ( 'NONE', #470 ) ;
#791 =( NAMED_UNIT ( * ) PLANE_ANGLE_UNIT ( ) SI_UNIT ( $, .RADIAN. ) );
#792 = CARTESIAN_POINT ( 'NONE',  ( 8.484999999999999432, 7.440000000000000391, -0.1199999999999998151 ) ) ;
#793 = EDGE_CURVE ( 'NONE', #1174, #140, #486, .T. ) ;
#794 = DIRECTION ( 'NONE',  ( 0.000000000000000000, 0.000000000000000000, -1.000000000000000000 ) ) ;
#795 = VERTEX_POINT ( 'NONE', #877 ) ;
#796 = DIRECTION ( 'NONE',  ( 0.000000000000000000, -0.000000000000000000, -1.000000000000000000 ) ) ;
#797 = CIRCLE ( 'NONE', #461, 0.05999999999999988676 ) ;
#798 = ORIENTED_EDGE ( 'NONE', *, *, #801, .T. ) ;
#799 = CARTESIAN_POINT ( 'NONE',  ( -8.397161150346983405, -7.380000000000000782, -0.06000000000000012962 ) ) ;
#800 = DIRECTION ( 'NONE',  ( -0.000000000000000000, -0.000000000000000000, 1.000000000000000000 ) ) ;
#801 = EDGE_CURVE ( 'NONE', #152, #759, #93, .T. ) ;
#802 = VECTOR ( 'NONE', #958, 39.37007874015748143 ) ;
#803 = ORIENTED_EDGE ( 'NONE', *, *, #185, .F. ) ;
#804 = CARTESIAN_POINT ( 'NONE',  ( -8.362000000000001876, -7.380000000000000782, -0.1200000000000000372 ) ) ;
#805 = VECTOR ( 'NONE', #298, 39.37007874015748143 ) ;
#806 = LINE ( 'NONE', #712, #1264 ) ;
#807 = DIRECTION ( 'NONE',  ( -0.000000000000000000, 1.000000000000000000, 0.000000000000000000 ) ) ;
#808 = ORIENTED_EDGE ( 'NONE', *, *, #1062, .T. ) ;
#809 = EDGE_CURVE ( 'NONE', #903, #5, #482, .T. ) ;
#810 = CARTESIAN_POINT ( 'NONE',  ( -8.362000000000001876, 7.500000000000000000, 0.000000000000000000 ) ) ;
#811 = CIRCLE ( 'NONE', #536, 0.4399999999999999467 ) ;
#812 = ORIENTED_EDGE ( 'NONE', *, *, #763, .T. ) ;
#813 = CARTESIAN_POINT ( 'NONE',  ( -8.397161150346983405, -7.380000000000000782, -0.1200000000000000372 ) ) ;
#814 = DIRECTION ( 'NONE',  ( 0.000000000000000000, 0.000000000000000000, -1.000000000000000000 ) ) ;
#815 = AXIS2_PLACEMENT_3D ( 'NONE', #713, #993, #814 ) ;
#816 = ORIENTED_EDGE ( 'NONE', *, *, #284, .T. ) ;
#817 = CARTESIAN_POINT ( 'NONE',  ( -8.484999999999999432, -7.500000000000000000, -0.1199999999999986217 ) ) ;
#818 = ORIENTED_EDGE ( 'NONE', *, *, #1044, .T. ) ;
#819 = ADVANCED_FACE ( 'NONE', ( #1274 ), #591, .T. ) ;
#820 = VECTOR ( 'NONE', #234, 39.37007874015748143 ) ;
#821 = SURFACE_SIDE_STYLE ('',( #1048 ) ) ;
#822 = FACE_OUTER_BOUND ( 'NONE', #212, .T. ) ;
#823 = EDGE_LOOP ( 'NONE', ( #1139, #134 ) ) ;
#824 = FACE_OUTER_BOUND ( 'NONE', #623, .T. ) ;
#825 = CIRCLE ( 'NONE', #114, 0.1139999999999999347 ) ;
#826 = VECTOR ( 'NONE', #161, 39.37007874015748143 ) ;
#827 = ADVANCED_FACE ( 'NONE', ( #369 ), #1217, .F. ) ;
#828 = CARTESIAN_POINT ( 'NONE',  ( -8.485000000000001208, 7.377000000000000668, -0.1199999999999992600 ) ) ;
#829 = ORIENTED_EDGE ( 'NONE', *, *, #589, .F. ) ;
#830 = CARTESIAN_POINT ( 'NONE',  ( 8.484999999999999432, 7.440000000000000391, 2.875629467015013134E-14 ) ) ;
#831 = ORIENTED_EDGE ( 'NONE', *, *, #749, .F. ) ;
#832 = CARTESIAN_POINT ( 'NONE',  ( -8.140999999999996461, -1.073634707399006472E-15, 0.000000000000000000 ) ) ;
#833 = EDGE_CURVE ( 'NONE', #921, #889, #896, .T. ) ;
#834 = ORIENTED_EDGE ( 'NONE', *, *, #1258, .F. ) ;
#835 = CARTESIAN_POINT ( 'NONE',  ( 8.485000000000001208, -7.500000000000002665, -0.6300000000000000044 ) ) ;
#836 = ORIENTED_EDGE ( 'NONE', *, *, #537, .F. ) ;
#837 = AXIS2_PLACEMENT_3D ( 'NONE', #956, #75, #581 ) ;
#838 = DIRECTION ( 'NONE',  ( 0.000000000000000000, 0.000000000000000000, 1.000000000000000000 ) ) ;
#839 = ORIENTED_EDGE ( 'NONE', *, *, #749, .T. ) ;
#840 = DIRECTION ( 'NONE',  ( 0.000000000000000000, 1.000000000000000000, -0.000000000000000000 ) ) ;
#841 = EDGE_CURVE ( 'NONE', #738, #143, #106, .T. ) ;
#842 = ORIENTED_EDGE ( 'NONE', *, *, #7, .T. ) ;
#843 = PRESENTATION_STYLE_ASSIGNMENT (( #244 ) ) ;
#844 = AXIS2_PLACEMENT_3D ( 'NONE', #1095, #127, #796 ) ;
#845 = CYLINDRICAL_SURFACE ( 'NONE', #761, 0.1139999999999999347 ) ;
#846 = AXIS2_PLACEMENT_3D ( 'NONE', #411, #2, #794 ) ;
#847 = ORIENTED_EDGE ( 'NONE', *, *, #107, .T. ) ;
#848 = LINE ( 'NONE', #61, #1085 ) ;
#849 = ORIENTED_EDGE ( 'NONE', *, *, #780, .T. ) ;
#850 = DIRECTION ( 'NONE',  ( 1.000000000000000000, 2.185478394931410821E-16, -0.000000000000000000 ) ) ;
#851 = PLANE ( 'NONE',  #203 ) ;
#852 = ORIENTED_EDGE ( 'NONE', *, *, #35, .F. ) ;
#853 = LINE ( 'NONE', #933, #1144 ) ;
#854 = EDGE_LOOP ( 'NONE', ( #752, #150, #901, #1172 ) ) ;
#855 = LENGTH_MEASURE_WITH_UNIT ( LENGTH_MEASURE( 0.02539999999999999897 ), #556 );
#856 = ADVANCED_FACE ( 'NONE', ( #1100, #722, #915, #301, #213, #421 ), #506, .T. ) ;
#857 = CYLINDRICAL_SURFACE ( 'NONE', #530, 0.05999999999999772182 ) ;
#858 = VECTOR ( 'NONE', #407, 39.37007874015748143 ) ;
#859 = CARTESIAN_POINT ( 'NONE',  ( -6.490999999999996994, -2.370000000000000107, -0.05999999999999990757 ) ) ;
#860 = LINE ( 'NONE', #67, #543 ) ;
#861 = VERTEX_POINT ( 'NONE', #308 ) ;
#862 = CARTESIAN_POINT ( 'NONE',  ( 8.484999999999999432, 7.380000000000000782, -0.1200000000000000372 ) ) ;
#863 = STYLED_ITEM ( 'NONE', ( #843 ), #703 ) ;
#864 = VECTOR ( 'NONE', #1015, 39.37007874015748143 ) ;
#865 = EDGE_CURVE ( 'NONE', #670, #249, #1112, .T. ) ;
#866 = LINE ( 'NONE', #1138, #488 ) ;
#867 = DIRECTION ( 'NONE',  ( 0.000000000000000000, 0.000000000000000000, 1.000000000000000000 ) ) ;
#868 = DIRECTION ( 'NONE',  ( 1.000000000000000000, 0.000000000000000000, 0.000000000000000000 ) ) ;
#869 = ORIENTED_EDGE ( 'NONE', *, *, #422, .T. ) ;
#870 = CARTESIAN_POINT ( 'NONE',  ( 2.015000000000002345, -1.092739197465705287E-15, -0.05999999999999990757 ) ) ;
#871 = DIRECTION ( 'NONE',  ( 0.000000000000000000, 0.000000000000000000, -1.000000000000000000 ) ) ;
#872 = AXIS2_PLACEMENT_3D ( 'NONE', #904, #885, #1198 ) ;
#873 = LINE ( 'NONE', #961, #478 ) ;
#874 = DIRECTION ( 'NONE',  ( 0.000000000000000000, 0.000000000000000000, 1.000000000000000000 ) ) ;
#875 = EDGE_CURVE ( 'NONE', #1099, #738, #886, .T. ) ;
#876 = EDGE_LOOP ( 'NONE', ( #943, #541, #532, #131 ) ) ;
#877 = CARTESIAN_POINT ( 'NONE',  ( -8.362000000000001876, 7.440000000000002167, -0.6300000000000002265 ) ) ;
#878 = FACE_BOUND ( 'NONE', #487, .T. ) ;
#879 = CIRCLE ( 'NONE', #941, 0.1139999999999999347 ) ;
#880 = EDGE_LOOP ( 'NONE', ( #970, #1253, #798, #269 ) ) ;
#881 = DIRECTION ( 'NONE',  ( -0.000000000000000000, 0.000000000000000000, 1.000000000000000000 ) ) ;
#882 = ORIENTED_EDGE ( 'NONE', *, *, #64, .T. ) ;
#883 = ADVANCED_FACE ( 'NONE', ( #398 ), #499, .T. ) ;
#884 = CARTESIAN_POINT ( 'NONE',  ( -8.362000000000001876, 7.380000000000000782, 0.000000000000000000 ) ) ;
#885 = DIRECTION ( 'NONE',  ( -0.000000000000000000, 1.000000000000000000, 3.834172622686683600E-15 ) ) ;
#886 = CIRCLE ( 'NONE', #550, 0.1199999999999999262 ) ;
#887 = CARTESIAN_POINT ( 'NONE',  ( -8.362000000000001876, -7.377000000000000668, -0.06000000000000045575 ) ) ;
#888 = DIRECTION ( 'NONE',  ( 0.000000000000000000, -3.834172622686683600E-15, 1.000000000000000000 ) ) ;
#889 = VERTEX_POINT ( 'NONE', #1014 ) ;
#890 = CARTESIAN_POINT ( 'NONE',  ( -8.362000000000001876, -7.380000000000000782, 0.000000000000000000 ) ) ;
#891 = ADVANCED_FACE ( 'NONE', ( #118 ), #909, .F. ) ;
#892 = DIRECTION ( 'NONE',  ( 1.000000000000000000, -0.000000000000000000, -0.000000000000000000 ) ) ;
#893 = CARTESIAN_POINT ( 'NONE',  ( -6.490999999999996994, 2.370000000000000107, -0.05999999999999990757 ) ) ;
#894 = PRODUCT_CONTEXT ( 'NONE', #285, 'mechanical' ) ;
#895 = ORIENTED_EDGE ( 'NONE', *, *, #90, .T. ) ;
#896 = LINE ( 'NONE', #624, #386 ) ;
#897 = ORIENTED_EDGE ( 'NONE', *, *, #967, .F. ) ;
#898 = LINE ( 'NONE', #1082, #1076 ) ;
#899 = EDGE_CURVE ( 'NONE', #1099, #656, #615, .T. ) ;
#900 = LINE ( 'NONE', #14, #641 ) ;
#901 = ORIENTED_EDGE ( 'NONE', *, *, #185, .T. ) ;
#902 = LINE ( 'NONE', #810, #858 ) ;
#903 = VERTEX_POINT ( 'NONE', #1187 ) ;
#904 = CARTESIAN_POINT ( 'NONE',  ( 0.000000000000000000, 7.440000000000000391, 2.875629467015013134E-14 ) ) ;
#905 = CYLINDRICAL_SURFACE ( 'NONE', #126, 0.1139999999999999347 ) ;
#906 = EDGE_CURVE ( 'NONE', #726, #169, #315, .T. ) ;
#907 = VECTOR ( 'NONE', #319, 39.37007874015748143 ) ;
#908 = ORIENTED_EDGE ( 'NONE', *, *, #107, .F. ) ;
#909 = PLANE ( 'NONE',  #844 ) ;
#910 = DIRECTION ( 'NONE',  ( -1.917086311343342194E-15, 0.000000000000000000, -1.000000000000000000 ) ) ;
#911 =( GEOMETRIC_REPRESENTATION_CONTEXT ( 3 ) GLOBAL_UNCERTAINTY_ASSIGNED_CONTEXT ( ( #743 ) ) GLOBAL_UNIT_ASSIGNED_CONTEXT ( ( #116, #920, #313 ) ) REPRESENTATION_CONTEXT ( 'NONE', 'WORKASPACE' ) );
#912 = CARTESIAN_POINT ( 'NONE',  ( -8.362000000000001876, -7.377000000000000668, 0.000000000000000000 ) ) ;
#913 = CARTESIAN_POINT ( 'NONE',  ( -8.362000000000001876, -7.500000000000000000, -0.6300000000000003375 ) ) ;
#914 = ORIENTED_EDGE ( 'NONE', *, *, #277, .T. ) ;
#915 = FACE_BOUND ( 'NONE', #27, .T. ) ;
#916 = ADVANCED_FACE ( 'NONE', ( #824 ), #604, .T. ) ;
#917 = VECTOR ( 'NONE', #788, 39.37007874015748143 ) ;
#918 = CARTESIAN_POINT ( 'NONE',  ( -1.924999999999997380, -1.038854738303221767E-15, -0.05999999999999990757 ) ) ;
#919 = CARTESIAN_POINT ( 'NONE',  ( -8.425000000000000711, -1.841265547729713587E-15, -0.6300000000000002265 ) ) ;
#920 =( NAMED_UNIT ( * ) PLANE_ANGLE_UNIT ( ) SI_UNIT ( $, .RADIAN. ) );
#921 = VERTEX_POINT ( 'NONE', #995 ) ;
#922 = CARTESIAN_POINT ( 'NONE',  ( 8.484999999999999432, 7.380000000000000782, -0.06000000000000012962 ) ) ;
#923 = EDGE_CURVE ( 'NONE', #332, #903, #902, .T. ) ;
#924 = AXIS2_PLACEMENT_3D ( 'NONE', #1107, #219, #520 ) ;
#925 = DIRECTION ( 'NONE',  ( 0.000000000000000000, -0.000000000000000000, 1.000000000000000000 ) ) ;
#926 = EDGE_LOOP ( 'NONE', ( #1166, #745, #527, #255 ) ) ;
#927 = DIRECTION ( 'NONE',  ( -0.000000000000000000, -0.000000000000000000, 1.000000000000000000 ) ) ;
#928 = VECTOR ( 'NONE', #1265, 39.37007874015748143 ) ;
#929 = EDGE_LOOP ( 'NONE', ( #1013, #274, #626, #994 ) ) ;
#930 = EDGE_CURVE ( 'NONE', #1124, #921, #71, .T. ) ;
#931 = LINE ( 'NONE', #625, #864 ) ;
#932 = ORIENTED_EDGE ( 'NONE', *, *, #133, .T. ) ;
#933 = CARTESIAN_POINT ( 'NONE',  ( -1.044999999999997486, -1.092739197465705287E-15, -2.340000000000001190 ) ) ;
#934 = ORIENTED_EDGE ( 'NONE', *, *, #1084, .F. ) ;
#935 = EDGE_CURVE ( 'NONE', #733, #1006, #1007, .T. ) ;
#936 = DIRECTION ( 'NONE',  ( -1.000000000000000000, 0.000000000000000000, 0.000000000000000000 ) ) ;
#937 = ORIENTED_EDGE ( 'NONE', *, *, #865, .F. ) ;
#938 = DIRECTION ( 'NONE',  ( -0.000000000000000000, -0.000000000000000000, 1.000000000000000000 ) ) ;
#939 = ORIENTED_EDGE ( 'NONE', *, *, #780, .F. ) ;
#940 = CARTESIAN_POINT ( 'NONE',  ( -8.362000000000001876, 7.500000000000000000, -2.340000000000001190 ) ) ;
#941 = AXIS2_PLACEMENT_3D ( 'NONE', #391, #1065, #1148 ) ;
#942 = FACE_OUTER_BOUND ( 'NONE', #854, .T. ) ;
#943 = ORIENTED_EDGE ( 'NONE', *, *, #176, .F. ) ;
#944 = LINE ( 'NONE', #1023, #198 ) ;
#945 = ORIENTED_EDGE ( 'NONE', *, *, #930, .F. ) ;
#946 = CARTESIAN_POINT ( 'NONE',  ( -0.000000000000000000, -7.440000000000002167, -0.6300000000000002265 ) ) ;
#947 = AXIS2_PLACEMENT_3D ( 'NONE', #870, #1181, #1163 ) ;
#948 = DIRECTION ( 'NONE',  ( 0.000000000000000000, 0.000000000000000000, -1.000000000000000000 ) ) ;
#949 = CARTESIAN_POINT ( 'NONE',  ( -8.365000000000000213, -7.376999999999999780, -0.1199999999999988715 ) ) ;
#950 = LINE ( 'NONE', #453, #34 ) ;
#951 = ORIENTED_EDGE ( 'NONE', *, *, #200, .T. ) ;
#952 = EDGE_CURVE ( 'NONE', #229, #50, #323, .T. ) ;
#953 = CARTESIAN_POINT ( 'NONE',  ( 8.484999999999999432, 7.380000000000000782, -0.1200000000000000372 ) ) ;
#954 = CARTESIAN_POINT ( 'NONE',  ( -8.362000000000001876, -7.377000000000000668, -2.340000000000001190 ) ) ;
#955 = FACE_OUTER_BOUND ( 'NONE', #1237, .T. ) ;
#956 = CARTESIAN_POINT ( 'NONE',  ( 2.015000000000002345, -1.092739197465705287E-15, -2.340000000000001190 ) ) ;
#957 = ORIENTED_EDGE ( 'NONE', *, *, #318, .F. ) ;
#958 = DIRECTION ( 'NONE',  ( -1.917086311343342194E-15, 0.000000000000000000, -1.000000000000000000 ) ) ;
#959 = EDGE_CURVE ( 'NONE', #689, #595, #427, .T. ) ;
#960 = LINE ( 'NONE', #954, #1050 ) ;
#961 = CARTESIAN_POINT ( 'NONE',  ( -1.924999999999997380, -1.038854738303221767E-15, -2.340000000000001190 ) ) ;
#962 = DIRECTION ( 'NONE',  ( -0.000000000000000000, -0.000000000000000000, 1.000000000000000000 ) ) ;
#963 = ORIENTED_EDGE ( 'NONE', *, *, #1012, .F. ) ;
#964 = DIRECTION ( 'NONE',  ( 1.000000000000000000, 0.000000000000000000, 0.000000000000000000 ) ) ;
#965 = VECTOR ( 'NONE', #1061, 39.37007874015748143 ) ;
#966 = CARTESIAN_POINT ( 'NONE',  ( 2.455000000000002292, -1.092739197465705287E-15, 0.000000000000000000 ) ) ;
#967 = EDGE_CURVE ( 'NONE', #5, #1026, #797, .T. ) ;
#968 = DIRECTION ( 'NONE',  ( 1.000000000000000000, 0.000000000000000000, 0.000000000000000000 ) ) ;
#969 = LINE ( 'NONE', #261, #1164 ) ;
#970 = ORIENTED_EDGE ( 'NONE', *, *, #570, .F. ) ;
#971 = DIRECTION ( 'NONE',  ( -0.000000000000000000, 0.000000000000000000, 1.000000000000000000 ) ) ;
#972 = DIRECTION ( 'NONE',  ( 1.000000000000000000, 0.000000000000000000, 0.000000000000000000 ) ) ;
#973 = VECTOR ( 'NONE', #1212, 39.37007874015748143 ) ;
#974 = ADVANCED_FACE ( 'NONE', ( #1046 ), #1122, .T. ) ;
#975 = VERTEX_POINT ( 'NONE', #737 ) ;
#976 = FACE_OUTER_BOUND ( 'NONE', #288, .T. ) ;
#977 = ORIENTED_EDGE ( 'NONE', *, *, #1196, .F. ) ;
#978 = LINE ( 'NONE', #182, #221 ) ;
#979 = CARTESIAN_POINT ( 'NONE',  ( -6.718999999999996753, 2.370000000000000107, -2.340000000000001190 ) ) ;
#980 = DIRECTION ( 'NONE',  ( 0.000000000000000000, 0.000000000000000000, 1.000000000000000000 ) ) ;
#981 = DIRECTION ( 'NONE',  ( 0.000000000000000000, 0.000000000000000000, 1.000000000000000000 ) ) ;
#982 = AXIS2_PLACEMENT_3D ( 'NONE', #338, #627, #144 ) ;
#983 = ORIENTED_EDGE ( 'NONE', *, *, #671, .F. ) ;
#984 = DIRECTION ( 'NONE',  ( 0.000000000000000000, 0.000000000000000000, -1.000000000000000000 ) ) ;
#985 = LINE ( 'NONE', #483, #190 ) ;
#986 = AXIS2_PLACEMENT_3D ( 'NONE', #135, #1029, #227 ) ;
#987 = CARTESIAN_POINT ( 'NONE',  ( -8.485000000000001208, -7.377000000000000668, -2.340000000000001190 ) ) ;
#988 = CARTESIAN_POINT ( 'NONE',  ( -1.484999999999997433, -1.092739197465705287E-15, -2.340000000000001190 ) ) ;
#989 = ORIENTED_EDGE ( 'NONE', *, *, #1123, .F. ) ;
#990 = DIRECTION ( 'NONE',  ( -0.000000000000000000, 0.000000000000000000, 1.000000000000000000 ) ) ;
#991 = ADVANCED_FACE ( 'NONE', ( #1231 ), #38, .F. ) ;
#992 = DIRECTION ( 'NONE',  ( -0.000000000000000000, 0.000000000000000000, 1.000000000000000000 ) ) ;
#993 = DIRECTION ( 'NONE',  ( -0.000000000000000000, 1.000000000000000000, -0.000000000000000000 ) ) ;
#994 = ORIENTED_EDGE ( 'NONE', *, *, #277, .F. ) ;
#995 = CARTESIAN_POINT ( 'NONE',  ( -8.424999999999998934, -7.377000000000000668, -0.1199999999999987327 ) ) ;
#996 = EDGE_CURVE ( 'NONE', #1225, #306, #732, .T. ) ;
#997 = FACE_OUTER_BOUND ( 'NONE', #1220, .T. ) ;
#998 = CARTESIAN_POINT ( 'NONE',  ( -8.365000000000000213, -7.377000000000000668, 0.000000000000000000 ) ) ;
#999 = VECTOR ( 'NONE', #888, 39.37007874015748143 ) ;
#1000 = ORIENTED_EDGE ( 'NONE', *, *, #605, .T. ) ;
#1001 = DIRECTION ( 'NONE',  ( 0.000000000000000000, 3.491481338843134539E-15, -1.000000000000000000 ) ) ;
#1002 = CARTESIAN_POINT ( 'NONE',  ( 0.000000000000000000, 7.500000000000000000, 2.896578355048071808E-14 ) ) ;
#1003 = ADVANCED_FACE ( 'NONE', ( #448 ), #353, .F. ) ;
#1004 = CARTESIAN_POINT ( 'NONE',  ( -8.485000000000001208, -7.377000000000000668, -0.6300000000000006706 ) ) ;
#1005 = VECTOR ( 'NONE', #1210, 39.37007874015748143 ) ;
#1006 = VERTEX_POINT ( 'NONE', #1141 ) ;
#1007 = LINE ( 'NONE', #817, #756 ) ;
#1008 = ORIENTED_EDGE ( 'NONE', *, *, #710, .F. ) ;
#1009 = VECTOR ( 'NONE', #1278, 39.37007874015748143 ) ;
#1010 = DIRECTION ( 'NONE',  ( 1.000000000000000000, 0.000000000000000000, 0.000000000000000000 ) ) ;
#1011 = DIRECTION ( 'NONE',  ( 1.000000000000000000, 0.000000000000000000, 0.000000000000000000 ) ) ;
#1012 = EDGE_CURVE ( 'NONE', #98, #1006, #944, .T. ) ;
#1013 = ORIENTED_EDGE ( 'NONE', *, *, #899, .F. ) ;
#1014 = CARTESIAN_POINT ( 'NONE',  ( -8.425000000000000711, 7.377000000000000668, -0.1199999999999987327 ) ) ;
#1015 = DIRECTION ( 'NONE',  ( 0.000000000000000000, 1.000000000000000000, 3.835990623682900600E-15 ) ) ;
#1016 = ORIENTED_EDGE ( 'NONE', *, *, #176, .T. ) ;
#1017 = CARTESIAN_POINT ( 'NONE',  ( -8.362000000000001876, 7.380000000000000782, -0.1200000000000000372 ) ) ;
#1018 = ORIENTED_EDGE ( 'NONE', *, *, #1196, .T. ) ;
#1019 = EDGE_CURVE ( 'NONE', #1047, #413, #853, .T. ) ;
#1020 = VECTOR ( 'NONE', #1226, 39.37007874015748143 ) ;
#1021 = CARTESIAN_POINT ( 'NONE',  ( 8.484999999999999432, 7.380000000000000782, -0.06000000000000012962 ) ) ;
#1022 = ORIENTED_EDGE ( 'NONE', *, *, #654, .T. ) ;
#1023 = CARTESIAN_POINT ( 'NONE',  ( -8.485000000000001208, -7.377000000000000668, -2.340000000000001190 ) ) ;
#1024 = CIRCLE ( 'NONE', #77, 0.05999999999999988676 ) ;
#1025 = CIRCLE ( 'NONE', #429, 0.1199999999999977335 ) ;
#1026 = VERTEX_POINT ( 'NONE', #1031 ) ;
#1027 = EDGE_CURVE ( 'NONE', #406, #1281, #848, .T. ) ;
#1028 = AXIS2_PLACEMENT_3D ( 'NONE', #648, #336, #925 ) ;
#1029 = DIRECTION ( 'NONE',  ( -0.000000000000000000, -0.000000000000000000, 1.000000000000000000 ) ) ;
#1030 = VERTEX_POINT ( 'NONE', #1128 ) ;
#1031 = CARTESIAN_POINT ( 'NONE',  ( -8.362000000000001876, 7.440000000000000391, -0.1199999999999998151 ) ) ;
#1032 = EDGE_LOOP ( 'NONE', ( #492, #1197, #53, #178 ) ) ;
#1033 = DIRECTION ( 'NONE',  ( 0.000000000000000000, 0.000000000000000000, -1.000000000000000000 ) ) ;
#1034 = VECTOR ( 'NONE', #296, 39.37007874015748143 ) ;
#1035 = DIRECTION ( 'NONE',  ( -0.000000000000000000, -0.000000000000000000, 1.000000000000000000 ) ) ;
#1036 = UNCERTAINTY_MEASURE_WITH_UNIT (LENGTH_MEASURE( 1.000000000000000082E-05 ), #355, 'distance_accuracy_value', 'NONE');
#1037 = VERTEX_POINT ( 'NONE', #657 ) ;
#1038 = AXIS2_PLACEMENT_3D ( 'NONE', #1251, #867, #1153 ) ;
#1039 = DIRECTION ( 'NONE',  ( -0.000000000000000000, -0.000000000000000000, 1.000000000000000000 ) ) ;
#1040 = EDGE_LOOP ( 'NONE', ( #829, #707, #818, #358 ) ) ;
#1041 = CARTESIAN_POINT ( 'NONE',  ( 8.485000000000001208, -7.500000000000000000, -0.1199999999999995792 ) ) ;
#1042 = VECTOR ( 'NONE', #769, 39.37007874015748143 ) ;
#1043 = LINE ( 'NONE', #177, #826 ) ;
#1044 = EDGE_CURVE ( 'NONE', #1030, #413, #523, .T. ) ;
#1045 = ORIENTED_EDGE ( 'NONE', *, *, #739, .F. ) ;
#1046 = FACE_OUTER_BOUND ( 'NONE', #1186, .T. ) ;
#1047 = VERTEX_POINT ( 'NONE', #248 ) ;
#1048 = SURFACE_STYLE_FILL_AREA ( #666 ) ;
#1049 = CIRCLE ( 'NONE', #120, 0.1139999999999999347 ) ;
#1050 = VECTOR ( 'NONE', #464, 39.37007874015748143 ) ;
#1051 = CARTESIAN_POINT ( 'NONE',  ( -1.044999999999997486, -1.092739197465705287E-15, 0.000000000000000000 ) ) ;
#1052 = DIRECTION ( 'NONE',  ( 0.000000000000000000, 0.000000000000000000, -1.000000000000000000 ) ) ;
#1053 = DIRECTION ( 'NONE',  ( 0.000000000000000000, 1.821231995776140611E-14, -1.000000000000000000 ) ) ;
#1054 = EDGE_CURVE ( 'NONE', #42, #1281, #1238, .T. ) ;
#1055 = ORIENTED_EDGE ( 'NONE', *, *, #1123, .T. ) ;
#1056 = CARTESIAN_POINT ( 'NONE',  ( 8.484999999999999432, 7.440000000000002167, -0.6300000000000002265 ) ) ;
#1057 = FACE_OUTER_BOUND ( 'NONE', #317, .T. ) ;
#1058 = ORIENTED_EDGE ( 'NONE', *, *, #373, .F. ) ;
#1059 = LINE ( 'NONE', #267, #610 ) ;
#1060 = EDGE_LOOP ( 'NONE', ( #1066, #322, #736, #1093 ) ) ;
#1061 = DIRECTION ( 'NONE',  ( 1.000000000000000000, 0.000000000000000000, 0.000000000000000000 ) ) ;
#1062 = EDGE_CURVE ( 'NONE', #790, #249, #242, .T. ) ;
#1063 = FACE_OUTER_BOUND ( 'NONE', #334, .T. ) ;
#1064 = DIRECTION ( 'NONE',  ( -0.000000000000000000, -0.000000000000000000, 1.000000000000000000 ) ) ;
#1065 = DIRECTION ( 'NONE',  ( -0.000000000000000000, 0.000000000000000000, 1.000000000000000000 ) ) ;
#1066 = ORIENTED_EDGE ( 'NONE', *, *, #723, .F. ) ;
#1067 = CARTESIAN_POINT ( 'NONE',  ( -8.485000000000001208, 7.377000000000000668, -0.1199999999999992600 ) ) ;
#1068 = EDGE_CURVE ( 'NONE', #436, #670, #950, .T. ) ;
#1069 = DIRECTION ( 'NONE',  ( 0.000000000000000000, 1.000000000000000000, 4.553079989440446192E-15 ) ) ;
#1070 = DIRECTION ( 'NONE',  ( -1.000000000000000000, -0.000000000000000000, -0.000000000000000000 ) ) ;
#1071 = DIRECTION ( 'NONE',  ( 0.000000000000000000, 0.000000000000000000, 1.000000000000000000 ) ) ;
#1072 = VECTOR ( 'NONE', #155, 39.37007874015748143 ) ;
#1073 = ORIENTED_EDGE ( 'NONE', *, *, #1155, .F. ) ;
#1074 = DIRECTION ( 'NONE',  ( 1.000000000000000000, 0.000000000000000000, 0.000000000000000000 ) ) ;
#1075 = CARTESIAN_POINT ( 'NONE',  ( -7.984999999999996767, -1.092739197465705287E-15, -0.05999999999999990757 ) ) ;
#1076 = VECTOR ( 'NONE', #311, 39.37007874015748143 ) ;
#1077 = DIRECTION ( 'NONE',  ( 0.000000000000000000, -1.000000000000000000, -0.000000000000000000 ) ) ;
#1078 = CARTESIAN_POINT ( 'NONE',  ( -6.604999999999996874, -2.370000000000000107, -2.340000000000001190 ) ) ;
#1079 = ORIENTED_EDGE ( 'NONE', *, *, #1275, .F. ) ;
#1080 = DIRECTION ( 'NONE',  ( 0.000000000000000000, 0.000000000000000000, -1.000000000000000000 ) ) ;
#1081 = AXIS2_PLACEMENT_3D ( 'NONE', #1259, #66, #764 ) ;
#1082 = CARTESIAN_POINT ( 'NONE',  ( 2.455000000000002292, -1.092739197465705287E-15, -2.340000000000001190 ) ) ;
#1083 = CARTESIAN_POINT ( 'NONE',  ( 1.575000000000002398, -1.038854738303221767E-15, -2.340000000000001190 ) ) ;
#1084 = EDGE_CURVE ( 'NONE', #759, #1271, #1185, .T. ) ;
#1085 = VECTOR ( 'NONE', #254, 39.37007874015748143 ) ;
#1086 = ORIENTED_EDGE ( 'NONE', *, *, #1102, .F. ) ;
#1087 = CARTESIAN_POINT ( 'NONE',  ( 8.485000000000001208, -7.380000000000000782, -0.1200000000000000372 ) ) ;
#1088 = ORIENTED_EDGE ( 'NONE', *, *, #1094, .F. ) ;
#1089 = DIRECTION ( 'NONE',  ( -0.000000000000000000, 0.000000000000000000, 1.000000000000000000 ) ) ;
#1090 = AXIS2_PLACEMENT_3D ( 'NONE', #516, #850, #719 ) ;
#1091 = VECTOR ( 'NONE', #667, 39.37007874015748143 ) ;
#1092 = LINE ( 'NONE', #402, #346 ) ;
#1093 = ORIENTED_EDGE ( 'NONE', *, *, #952, .F. ) ;
#1094 = EDGE_CURVE ( 'NONE', #337, #152, #825, .T. ) ;
#1095 = CARTESIAN_POINT ( 'NONE',  ( -8.485000000000001208, 7.377000000000000668, -2.340000000000001190 ) ) ;
#1096 = ORIENTED_EDGE ( 'NONE', *, *, #1019, .T. ) ;
#1097 = CARTESIAN_POINT ( 'NONE',  ( -8.365000000000001990, 7.412161150346986638, -0.06000000000000325212 ) ) ;
#1098 = CARTESIAN_POINT ( 'NONE',  ( 8.485000000000001208, -7.440000000000000391, -0.1199999999999998151 ) ) ;
#1099 = VERTEX_POINT ( 'NONE', #345 ) ;
#1100 = FACE_BOUND ( 'NONE', #16, .T. ) ;
#1101 = ORIENTED_EDGE ( 'NONE', *, *, #245, .F. ) ;
#1102 = EDGE_CURVE ( 'NONE', #172, #92, #432, .T. ) ;
#1103 = PLANE ( 'NONE',  #149 ) ;
#1104 = DIRECTION ( 'NONE',  ( 1.000000000000000000, 0.000000000000000000, 0.000000000000000000 ) ) ;
#1105 = AXIS2_PLACEMENT_3D ( 'NONE', #1134, #548, #676 ) ;
#1106 = ORIENTED_EDGE ( 'NONE', *, *, #597, .F. ) ;
#1107 = CARTESIAN_POINT ( 'NONE',  ( -8.365000000000000213, -7.376999999999999780, -0.1199999999999988715 ) ) ;
#1108 = ORIENTED_EDGE ( 'NONE', *, *, #563, .T. ) ;
#1109 = DIRECTION ( 'NONE',  ( 0.000000000000000000, -1.000000000000000000, 0.000000000000000000 ) ) ;
#1110 = ADVANCED_FACE ( 'NONE', ( #540 ), #746, .T. ) ;
#1111 = CARTESIAN_POINT ( 'NONE',  ( -6.604999999999996874, 2.370000000000000107, -2.340000000000001190 ) ) ;
#1112 = CIRCLE ( 'NONE', #324, 0.1560000000000001941 ) ;
#1113 = ORIENTED_EDGE ( 'NONE', *, *, #395, .F. ) ;
#1114 = CARTESIAN_POINT ( 'NONE',  ( 0.000000000000000000, -7.500000000000000000, 2.896578355048071808E-14 ) ) ;
#1115 = ORIENTED_EDGE ( 'NONE', *, *, #113, .F. ) ;
#1116 = DIRECTION ( 'NONE',  ( -0.000000000000000000, 1.000000000000000000, 0.000000000000000000 ) ) ;
#1117 = ORIENTED_EDGE ( 'NONE', *, *, #1241, .T. ) ;
#1118 = DIRECTION ( 'NONE',  ( 2.185478394931413286E-16, -1.000000000000000000, 1.456985596620941123E-16 ) ) ;
#1119 = VERTEX_POINT ( 'NONE', #1173 ) ;
#1120 = CARTESIAN_POINT ( 'NONE',  ( -1.484999999999997433, -1.092739197465705287E-15, 0.000000000000000000 ) ) ;
#1121 = ORIENTED_EDGE ( 'NONE', *, *, #494, .F. ) ;
#1122 = PLANE ( 'NONE',  #982 ) ;
#1123 = EDGE_CURVE ( 'NONE', #249, #670, #216, .T. ) ;
#1124 = VERTEX_POINT ( 'NONE', #366 ) ;
#1125 = CIRCLE ( 'NONE', #405, 0.1139999999999999347 ) ;
#1126 = LINE ( 'NONE', #41, #325 ) ;
#1127 = ORIENTED_EDGE ( 'NONE', *, *, #192, .F. ) ;
#1128 = CARTESIAN_POINT ( 'NONE',  ( -1.924999999999997380, -1.038854738303221767E-15, 0.000000000000000000 ) ) ;
#1129 = AXIS2_PLACEMENT_3D ( 'NONE', #1087, #295, #568 ) ;
#1130 = ORIENTED_EDGE ( 'NONE', *, *, #793, .F. ) ;
#1131 = DIRECTION ( 'NONE',  ( -0.000000000000000000, -0.000000000000000000, 1.000000000000000000 ) ) ;
#1132 = CARTESIAN_POINT ( 'NONE',  ( 8.485000000000001208, -7.500000000000000000, -0.05999999999999978961 ) ) ;
#1133 = ORIENTED_EDGE ( 'NONE', *, *, #511, .T. ) ;
#1134 = CARTESIAN_POINT ( 'NONE',  ( 8.485000000000001208, -7.500000000000002665, -0.6300000000000000044 ) ) ;
#1135 = ORIENTED_EDGE ( 'NONE', *, *, #223, .T. ) ;
#1136 = FACE_OUTER_BOUND ( 'NONE', #776, .T. ) ;
#1137 = EDGE_CURVE ( 'NONE', #505, #1201, #860, .T. ) ;
#1138 = CARTESIAN_POINT ( 'NONE',  ( -8.484999999999999432, -7.500000000000001776, -0.6300000000000000044 ) ) ;
#1139 = ORIENTED_EDGE ( 'NONE', *, *, #793, .T. ) ;
#1140 = AXIS2_PLACEMENT_3D ( 'NONE', #949, #1077, #82 ) ;
#1141 = CARTESIAN_POINT ( 'NONE',  ( -8.485000000000001208, -7.377000000000000668, -0.1199999999999992600 ) ) ;
#1142 = ORIENTED_EDGE ( 'NONE', *, *, #959, .T. ) ;
#1143 = DIRECTION ( 'NONE',  ( 1.000000000000000000, 0.000000000000000000, 0.000000000000000000 ) ) ;
#1144 = VECTOR ( 'NONE', #43, 39.37007874015748143 ) ;
#1145 = EDGE_CURVE ( 'NONE', #1037, #306, #588, .T. ) ;
#1146 = DIRECTION ( 'NONE',  ( 1.000000000000000000, 0.000000000000000000, 0.000000000000000000 ) ) ;
#1147 = CARTESIAN_POINT ( 'NONE',  ( 8.484999999999999432, 7.380000000000000782, -1.195183497228115035E-16 ) ) ;
#1148 = DIRECTION ( 'NONE',  ( 1.000000000000000000, 0.000000000000000000, 0.000000000000000000 ) ) ;
#1149 = EDGE_LOOP ( 'NONE', ( #428, #849, #201, #159 ) ) ;
#1150 = FACE_OUTER_BOUND ( 'NONE', #186, .T. ) ;
#1151 = AXIS2_PLACEMENT_3D ( 'NONE', #258, #774, #278 ) ;
#1152 = LINE ( 'NONE', #59, #1256 ) ;
#1153 = DIRECTION ( 'NONE',  ( 1.000000000000000000, 0.000000000000000000, 0.000000000000000000 ) ) ;
#1154 = DIRECTION ( 'NONE',  ( -0.000000000000000000, -0.000000000000000000, 1.000000000000000000 ) ) ;
#1155 = EDGE_CURVE ( 'NONE', #42, #534, #681, .T. ) ;
#1156 = ORIENTED_EDGE ( 'NONE', *, *, #809, .F. ) ;
#1157 = LINE ( 'NONE', #100, #239 ) ;
#1158 = FACE_OUTER_BOUND ( 'NONE', #231, .T. ) ;
#1159 = CARTESIAN_POINT ( 'NONE',  ( -8.397161150346983405, -7.380000000000000782, -0.1200000000000000372 ) ) ;
#1160 = CARTESIAN_POINT ( 'NONE',  ( 2.015000000000002345, -1.092739197465705287E-15, 0.000000000000000000 ) ) ;
#1161 = EDGE_LOOP ( 'NONE', ( #399, #842, #62, #1261 ) ) ;
#1162 = ADVANCED_FACE ( 'NONE', ( #976 ), #289, .T. ) ;
#1163 = DIRECTION ( 'NONE',  ( 1.000000000000000000, 0.000000000000000000, 0.000000000000000000 ) ) ;
#1164 = VECTOR ( 'NONE', #784, 39.37007874015748143 ) ;
#1165 = DIRECTION ( 'NONE',  ( 0.000000000000000000, 0.000000000000000000, 1.000000000000000000 ) ) ;
#1166 = ORIENTED_EDGE ( 'NONE', *, *, #64, .F. ) ;
#1167 = FACE_OUTER_BOUND ( 'NONE', #675, .T. ) ;
#1168 = ORIENTED_EDGE ( 'NONE', *, *, #259, .T. ) ;
#1169 = DIRECTION ( 'NONE',  ( -0.000000000000000000, -0.000000000000000000, 1.000000000000000000 ) ) ;
#1170 = AXIS2_PLACEMENT_3D ( 'NONE', #69, #462, #1255 ) ;
#1171 = CARTESIAN_POINT ( 'NONE',  ( 8.484999999999999432, 7.380000000000000782, -0.1200000000000000372 ) ) ;
#1172 = ORIENTED_EDGE ( 'NONE', *, *, #1027, .T. ) ;
#1173 = CARTESIAN_POINT ( 'NONE',  ( 8.485000000000001208, -7.440000000000000391, -0.1199999999999998151 ) ) ;
#1174 = VERTEX_POINT ( 'NONE', #1260 ) ;
#1175 = PLANE ( 'NONE',  #1214 ) ;
#1176 = PRODUCT_DEFINITION_SHAPE ( 'NONE', 'NONE',  #24 ) ;
#1177 = DIRECTION ( 'NONE',  ( 1.000000000000000000, -0.000000000000000000, -0.000000000000000000 ) ) ;
#1178 = ADVANCED_FACE ( 'NONE', ( #765 ), #688, .F. ) ;
#1179 = LINE ( 'NONE', #1098, #684 ) ;
#1180 = ORIENTED_EDGE ( 'NONE', *, *, #612, .T. ) ;
#1181 = DIRECTION ( 'NONE',  ( -0.000000000000000000, 0.000000000000000000, 1.000000000000000000 ) ) ;
#1182 = CARTESIAN_POINT ( 'NONE',  ( 8.484999999999999432, 7.500000000000000000, 0.000000000000000000 ) ) ;
#1183 = EDGE_CURVE ( 'NONE', #379, #10, #879, .T. ) ;
#1184 = LINE ( 'NONE', #312, #805 ) ;
#1185 = CIRCLE ( 'NONE', #297, 0.1139999999999999347 ) ;
#1186 = EDGE_LOOP ( 'NONE', ( #785, #957, #365, #340 ) ) ;
#1187 = CARTESIAN_POINT ( 'NONE',  ( -8.362000000000001876, 7.380000000000000782, 0.000000000000000000 ) ) ;
#1188 = AXIS2_PLACEMENT_3D ( 'NONE', #141, #1116, #639 ) ;
#1189 = EDGE_LOOP ( 'NONE', ( #937, #989 ) ) ;
#1190 = CARTESIAN_POINT ( 'NONE',  ( -1.484999999999997433, -1.092739197465705287E-15, -0.05999999999999990757 ) ) ;
#1191 = AXIS2_PLACEMENT_3D ( 'NONE', #940, #257, #250 ) ;
#1192 = LINE ( 'NONE', #305, #509 ) ;
#1193 = EDGE_LOOP ( 'NONE', ( #300, #39, #721, #783 ) ) ;
#1194 = AXIS2_PLACEMENT_3D ( 'NONE', #693, #496, #199 ) ;
#1195 = DIRECTION ( 'NONE',  ( 1.000000000000000000, 0.000000000000000000, 0.000000000000000000 ) ) ;
#1196 = EDGE_CURVE ( 'NONE', #443, #665, #381, .T. ) ;
#1197 = ORIENTED_EDGE ( 'NONE', *, *, #1224, .T. ) ;
#1198 = DIRECTION ( 'NONE',  ( 0.000000000000000000, -3.834172622686683600E-15, 1.000000000000000000 ) ) ;
#1199 = VECTOR ( 'NONE', #389, 39.37007874015748143 ) ;
#1200 = CARTESIAN_POINT ( 'NONE',  ( -6.604999999999996874, -2.370000000000000107, -2.340000000000001190 ) ) ;
#1201 = VERTEX_POINT ( 'NONE', #372 ) ;
#1202 = DIRECTION ( 'NONE',  ( 0.000000000000000000, -1.000000000000000000, 1.422837496700139435E-16 ) ) ;
#1203 = EDGE_CURVE ( 'NONE', #738, #1201, #1059, .T. ) ;
#1204 = VERTEX_POINT ( 'NONE', #669 ) ;
#1205 = AXIS2_PLACEMENT_3D ( 'NONE', #260, #458, #1052 ) ;
#1206 = LINE ( 'NONE', #946, #907 ) ;
#1207 = CARTESIAN_POINT ( 'NONE',  ( -8.362000000000001876, 7.500000000000002665, -0.6300000000000000044 ) ) ;
#1208 = SHAPE_DEFINITION_REPRESENTATION ( #1176, #424 ) ;
#1209 = ORIENTED_EDGE ( 'NONE', *, *, #259, .F. ) ;
#1210 = DIRECTION ( 'NONE',  ( 1.000000000000000000, -0.000000000000000000, -0.000000000000000000 ) ) ;
#1211 = EDGE_LOOP ( 'NONE', ( #294, #580, #1073, #715 ) ) ;
#1212 = DIRECTION ( 'NONE',  ( 0.000000000000000000, -1.000000000000000000, 1.422837496700139435E-16 ) ) ;
#1213 = FACE_OUTER_BOUND ( 'NONE', #1273, .T. ) ;
#1214 = AXIS2_PLACEMENT_3D ( 'NONE', #78, #189, #1080 ) ;
#1215 = AXIS2_PLACEMENT_3D ( 'NONE', #471, #376, #1165 ) ;
#1216 = ORIENTED_EDGE ( 'NONE', *, *, #923, .F. ) ;
#1217 = PLANE ( 'NONE',  #616 ) ;
#1218 = EDGE_CURVE ( 'NONE', #525, #5, #969, .T. ) ;
#1219 = CARTESIAN_POINT ( 'NONE',  ( -8.362000000000001876, -7.500000000000000000, -2.340000000000001190 ) ) ;
#1220 = EDGE_LOOP ( 'NONE', ( #539, #869, #220, #1142 ) ) ;
#1221 = DIRECTION ( 'NONE',  ( -1.000000000000000000, -0.000000000000000000, -0.000000000000000000 ) ) ;
#1222 = ORIENTED_EDGE ( 'NONE', *, *, #1145, .T. ) ;
#1223 = DIRECTION ( 'NONE',  ( 0.000000000000000000, 0.000000000000000000, 1.000000000000000000 ) ) ;
#1224 = EDGE_CURVE ( 'NONE', #169, #1124, #480, .T. ) ;
#1225 = VERTEX_POINT ( 'NONE', #468 ) ;
#1226 = DIRECTION ( 'NONE',  ( -0.000000000000000000, -3.834172622686683600E-15, 1.000000000000000000 ) ) ;
#1227 = AXIS2_PLACEMENT_3D ( 'NONE', #83, #474, #1267 ) ;
#1228 = ORIENTED_EDGE ( 'NONE', *, *, #671, .T. ) ;
#1229 = CARTESIAN_POINT ( 'NONE',  ( -6.604999999999996874, -2.370000000000000107, 0.000000000000000000 ) ) ;
#1230 = ORIENTED_EDGE ( 'NONE', *, *, #686, .F. ) ;
#1231 = FACE_OUTER_BOUND ( 'NONE', #479, .T. ) ;
#1232 = EDGE_LOOP ( 'NONE', ( #908, #1130, #1246, #1018 ) ) ;
#1233 = ADVANCED_FACE ( 'NONE', ( #1167 ), #173, .F. ) ;
#1234 = CARTESIAN_POINT ( 'NONE',  ( 1.575000000000002398, -1.038854738303221767E-15, 0.000000000000000000 ) ) ;
#1235 = AXIS2_PLACEMENT_3D ( 'NONE', #987, #807, #613 ) ;
#1236 = PLANE ( 'NONE',  #1028 ) ;
#1237 = EDGE_LOOP ( 'NONE', ( #225, #575, #460, #431 ) ) ;
#1238 = LINE ( 'NONE', #835, #697 ) ;
#1239 = ORIENTED_EDGE ( 'NONE', *, *, #26, .T. ) ;
#1240 = VECTOR ( 'NONE', #1177, 39.37007874015748143 ) ;
#1241 = EDGE_CURVE ( 'NONE', #98, #975, #187, .T. ) ;
#1242 = CARTESIAN_POINT ( 'NONE',  ( -7.828999999999997073, -1.092739197465705287E-15, -0.05999999999999990757 ) ) ;
#1243 = ORIENTED_EDGE ( 'NONE', *, *, #170, .T. ) ;
#1244 = CIRCLE ( 'NONE', #1140, 0.1199999999999977335 ) ;
#1245 = CARTESIAN_POINT ( 'NONE',  ( -6.604999999999996874, 2.370000000000000107, 0.000000000000000000 ) ) ;
#1246 = ORIENTED_EDGE ( 'NONE', *, *, #489, .T. ) ;
#1247 = PLANE ( 'NONE',  #1254 ) ;
#1248 = AXIS2_PLACEMENT_3D ( 'NONE', #437, #553, #164 ) ;
#1249 = PLANE ( 'NONE',  #701 ) ;
#1250 = ADVANCED_FACE ( 'NONE', ( #559 ), #574, .F. ) ;
#1251 = CARTESIAN_POINT ( 'NONE',  ( -6.604999999999996874, -2.370000000000000107, 0.000000000000000000 ) ) ;
#1252 = DIRECTION ( 'NONE',  ( 0.000000000000000000, 1.000000000000000000, -3.491481338843133750E-15 ) ) ;
#1253 = ORIENTED_EDGE ( 'NONE', *, *, #770, .F. ) ;
#1254 = AXIS2_PLACEMENT_3D ( 'NONE', #51, #1109, #562 ) ;
#1255 = DIRECTION ( 'NONE',  ( -0.000000000000000000, 0.000000000000000000, -1.000000000000000000 ) ) ;
#1256 = VECTOR ( 'NONE', #557, 39.37007874015748143 ) ;
#1257 = CARTESIAN_POINT ( 'NONE',  ( -6.718999999999996753, -2.370000000000000107, -0.05999999999999990757 ) ) ;
#1258 = EDGE_CURVE ( 'NONE', #790, #436, #500, .T. ) ;
#1259 = CARTESIAN_POINT ( 'NONE',  ( 8.484999999999999432, 7.380000000000000782, -0.1200000000000000372 ) ) ;
#1260 = CARTESIAN_POINT ( 'NONE',  ( 2.455000000000002292, -1.092739197465705287E-15, -0.05999999999999990757 ) ) ;
#1261 = ORIENTED_EDGE ( 'NONE', *, *, #395, .T. ) ;
#1262 = APPLICATION_CONTEXT ( 'automotive_design' ) ;
#1263 = DIRECTION ( 'NONE',  ( -0.000000000000000000, -0.000000000000000000, 1.000000000000000000 ) ) ;
#1264 = VECTOR ( 'NONE', #611, 39.37007874015748143 ) ;
#1265 = DIRECTION ( 'NONE',  ( -1.000000000000000000, -0.000000000000000000, -0.000000000000000000 ) ) ;
#1266 = FACE_OUTER_BOUND ( 'NONE', #354, .T. ) ;
#1267 = DIRECTION ( 'NONE',  ( 1.000000000000000000, 0.000000000000000000, 0.000000000000000000 ) ) ;
#1268 = VECTOR ( 'NONE', #266, 39.37007874015748143 ) ;
#1269 = ORIENTED_EDGE ( 'NONE', *, *, #1155, .T. ) ;
#1270 = CARTESIAN_POINT ( 'NONE',  ( 0.000000000000000000, 0.000000000000000000, -0.05999999999999999778 ) ) ;
#1271 = VERTEX_POINT ( 'NONE', #378 ) ;
#1272 = DIRECTION ( 'NONE',  ( 1.000000000000000000, 0.000000000000000000, 0.000000000000000000 ) ) ;
#1273 = EDGE_LOOP ( 'NONE', ( #629, #649, #125, #397 ) ) ;
#1274 = FACE_OUTER_BOUND ( 'NONE', #433, .T. ) ;
#1275 = EDGE_CURVE ( 'NONE', #140, #1174, #146, .T. ) ;
#1276 = AXIS2_PLACEMENT_3D ( 'NONE', #226, #1001, #727 ) ;
#1277 = DIRECTION ( 'NONE',  ( -0.000000000000000000, -0.000000000000000000, 1.000000000000000000 ) ) ;
#1278 = DIRECTION ( 'NONE',  ( 0.000000000000000000, 1.000000000000000000, -4.553079989440446192E-15 ) ) ;
#1279 = CARTESIAN_POINT ( 'NONE',  ( 8.484999999999999432, 7.500000000000000000, -0.05999999999999978961 ) ) ;
#1280 = AXIS2_PLACEMENT_3D ( 'NONE', #988, #31, #9 ) ;
#1281 = VERTEX_POINT ( 'NONE', #913 ) ;
#1282 = LINE ( 'NONE', #683, #13 ) ;
#1283 = ADVANCED_FACE ( 'NONE', ( #124 ), #404, .F. ) ;
ENDSEC;
END-ISO-10303-21;
