ISO-10303-21;
HEADER;
FILE_DESCRIPTION (( 'STEP AP214' ),
    '1' );
FILE_NAME ('16-6082-01-(16gacr ANSI-61) - K48 - V0-R0.STEP',
    '2026-08-04T17:17:22',
    ( '' ),
    ( '' ),
    'SwSTEP 2.0',
    'SolidWorks 2024',
    '' );
FILE_SCHEMA (( 'AUTOMOTIVE_DESIGN' ));
ENDSEC;

DATA;
#1 = FACE_OUTER_BOUND ( 'NONE', #156, .T. ) ;
#2 = EDGE_LOOP ( 'NONE', ( #809, #695, #740, #338 ) ) ;
#3 = DIRECTION ( 'NONE',  ( 0.000000000000000000, -1.000000000000000000, -7.114187483500681151E-17 ) ) ;
#4 = CARTESIAN_POINT ( 'NONE',  ( -1.934999999999997611, 0.7500000000000022204, 0.8130000000000102700 ) ) ;
#5 = ORIENTED_EDGE ( 'NONE', *, *, #216, .T. ) ;
#6 = CARTESIAN_POINT ( 'NONE',  ( -0.9650000000000036326, -1.250000000000000222, 1.000000000000000000 ) ) ;
#7 = DIRECTION ( 'NONE',  ( 1.092739197465702699E-16, -1.000000000000000000, -7.941418586233363842E-17 ) ) ;
#8 = EDGE_CURVE ( 'NONE', #194, #615, #65, .T. ) ;
#9 = EDGE_LOOP ( 'NONE', ( #69, #144, #365, #815 ) ) ;
#10 = CARTESIAN_POINT ( 'NONE',  ( -0.8450000000000000844, -1.249999999999999778, -0.06000000000000018513 ) ) ;
#11 = PLANE ( 'NONE',  #777 ) ;
#12 = DIRECTION ( 'NONE',  ( -1.092739197465705411E-16, 1.000000000000000000, 3.880756599453478680E-31 ) ) ;
#13 = CARTESIAN_POINT ( 'NONE',  ( 0.8449999999999998623, -1.249999999999998668, -1.451294246634139896E-16 ) ) ;
#14 = SURFACE_STYLE_FILL_AREA ( #827 ) ;
#15 = ORIENTED_EDGE ( 'NONE', *, *, #585, .F. ) ;
#16 = VERTEX_POINT ( 'NONE', #209 ) ;
#17 = CARTESIAN_POINT ( 'NONE',  ( -0.9650000000000031886, 0.7500000000000023315, 0.8130000000000068283 ) ) ;
#18 = ADVANCED_FACE ( 'NONE', ( #603 ), #343, .T. ) ;
#19 = STYLED_ITEM ( 'NONE', ( #763 ), #368 ) ;
#20 = CIRCLE ( 'NONE', #506, 0.1250000000000000278 ) ;
#21 = CARTESIAN_POINT ( 'NONE',  ( -0.8450000000000004174, -1.249999999999999778, 0.05999999999999998390 ) ) ;
#22 = DIRECTION ( 'NONE',  ( 1.000000000000000000, 1.092739197465705287E-16, 3.491481338843133750E-15 ) ) ;
#23 = PRODUCT_DEFINITION_SHAPE ( 'NONE', 'NONE',  #776 ) ;
#24 = ORIENTED_EDGE ( 'NONE', *, *, #727, .F. ) ;
#25 = CARTESIAN_POINT ( 'NONE',  ( -0.8450000000000000844, -1.250000000000000000, -0.06000000000000018513 ) ) ;
#26 = DIRECTION ( 'NONE',  ( 0.000000000000000000, 0.000000000000000000, 1.000000000000000000 ) ) ;
#27 = CARTESIAN_POINT ( 'NONE',  ( -0.8450000000000004174, 0.2500000000000022760, 0.05999999999999998390 ) ) ;
#28 = EDGE_LOOP ( 'NONE', ( #409, #595, #702, #660 ) ) ;
#29 = CARTESIAN_POINT ( 'NONE',  ( -1.934999999999998721, 0.7500000000000022204, 0.5630000000000102700 ) ) ;
#30 = FACE_OUTER_BOUND ( 'NONE', #683, .T. ) ;
#31 = ADVANCED_FACE ( 'NONE', ( #276, #818 ), #212, .T. ) ;
#32 = CARTESIAN_POINT ( 'NONE',  ( -1.934999999999999165, 1.249999999999999556, 0.3700000000000099321 ) ) ;
#33 = VERTEX_POINT ( 'NONE', #757 ) ;
#34 = CARTESIAN_POINT ( 'NONE',  ( 0.9050000000000034683, -1.250000000000000222, 1.000000000000000222 ) ) ;
#35 = AXIS2_PLACEMENT_3D ( 'NONE', #21, #146, #552 ) ;
#36 = VECTOR ( 'NONE', #410, 39.37007874015748143 ) ;
#37 = EDGE_CURVE ( 'NONE', #389, #615, #413, .T. ) ;
#38 = CARTESIAN_POINT ( 'NONE',  ( -0.9050000000000016920, 1.249999999999999778, 0.3700000000000062128 ) ) ;
#39 = ORIENTED_EDGE ( 'NONE', *, *, #787, .T. ) ;
#40 = CARTESIAN_POINT ( 'NONE',  ( -0.9050000000000001377, 0.2500000000000024425, -3.407249761586235139E-15 ) ) ;
#41 = DIRECTION ( 'NONE',  ( 1.092739197465702699E-16, -1.000000000000000000, -7.941418586233363842E-17 ) ) ;
#42 = ORIENTED_EDGE ( 'NONE', *, *, #126, .T. ) ;
#43 = CARTESIAN_POINT ( 'NONE',  ( -1.934999999999998721, 0.7500000000000022204, 0.5630000000000102700 ) ) ;
#44 = DIRECTION ( 'NONE',  ( 1.000000000000000000, 1.092739197465702699E-16, 0.000000000000000000 ) ) ;
#45 = ORIENTED_EDGE ( 'NONE', *, *, #37, .T. ) ;
#46 = DIRECTION ( 'NONE',  ( 1.000000000000000000, 1.092739197465705411E-16, -3.551402391763541592E-15 ) ) ;
#47 = EDGE_CURVE ( 'NONE', #575, #679, #284, .T. ) ;
#48 = VERTEX_POINT ( 'NONE', #359 ) ;
#49 = DIRECTION ( 'NONE',  ( 1.000000000000000000, 1.092739197465705411E-16, -3.551402391763541198E-15 ) ) ;
#50 = ORIENTED_EDGE ( 'NONE', *, *, #665, .F. ) ;
#51 = DIRECTION ( 'NONE',  ( 1.000000000000000000, 0.000000000000000000, -3.557093741750336113E-15 ) ) ;
#52 = CIRCLE ( 'NONE', #540, 0.06000000000000017819 ) ;
#53 = VERTEX_POINT ( 'NONE', #707 ) ;
#54 = DIRECTION ( 'NONE',  ( 1.000000000000000000, 0.000000000000000000, 0.000000000000000000 ) ) ;
#55 = CARTESIAN_POINT ( 'NONE',  ( -1.935000000000000497, 0.2500000000000023315, -0.05999999999999008904 ) ) ;
#56 = CIRCLE ( 'NONE', #619, 0.1200000000000001760 ) ;
#57 = EDGE_CURVE ( 'NONE', #93, #721, #574, .T. ) ;
#58 = EDGE_LOOP ( 'NONE', ( #77, #214, #62, #50 ) ) ;
#59 = LINE ( 'NONE', #460, #838 ) ;
#60 = DIRECTION ( 'NONE',  ( 1.000000000000000000, 1.092739197465705411E-16, -3.551402391763541592E-15 ) ) ;
#61 = CIRCLE ( 'NONE', #109, 0.1200000000000001898 ) ;
#62 = ORIENTED_EDGE ( 'NONE', *, *, #137, .T. ) ;
#63 = DIRECTION ( 'NONE',  ( -0.000000000000000000, -1.000000000000000000, -7.114187483500681151E-17 ) ) ;
#64 = DIRECTION ( 'NONE',  ( 1.092739197465705411E-16, -1.000000000000000000, -3.880756599453478680E-31 ) ) ;
#65 = LINE ( 'NONE', #677, #99 ) ;
#66 = CARTESIAN_POINT ( 'NONE',  ( 0.9650000000000035216, -1.250000000000000222, 1.000000000000000000 ) ) ;
#67 = ADVANCED_FACE ( 'NONE', ( #171 ), #355, .F. ) ;
#68 = DIRECTION ( 'NONE',  ( 1.000000000000000000, 0.000000000000000000, -4.410796239770417506E-15 ) ) ;
#69 = ORIENTED_EDGE ( 'NONE', *, *, #447, .T. ) ;
#70 = CIRCLE ( 'NONE', #349, 0.1250000000000000278 ) ;
#71 = VERTEX_POINT ( 'NONE', #421 ) ;
#72 = CARTESIAN_POINT ( 'NONE',  ( -1.934999999999999165, 0.2500000000000022760, 0.3700000000000097655 ) ) ;
#73 = VECTOR ( 'NONE', #802, 39.37007874015748143 ) ;
#74 = DIRECTION ( 'NONE',  ( -1.092739197465702699E-16, 1.000000000000000000, 7.941418586233363842E-17 ) ) ;
#75 = AXIS2_PLACEMENT_3D ( 'NONE', #514, #46, #717 ) ;
#76 = EDGE_CURVE ( 'NONE', #97, #33, #711, .T. ) ;
#77 = ORIENTED_EDGE ( 'NONE', *, *, #846, .F. ) ;
#78 = VERTEX_POINT ( 'NONE', #299 ) ;
#79 = DIRECTION ( 'NONE',  ( -2.276539994720212841E-15, -1.821231995776170272E-14, -1.000000000000000000 ) ) ;
#80 = LINE ( 'NONE', #632, #322 ) ;
#81 = EDGE_CURVE ( 'NONE', #33, #48, #165, .T. ) ;
#82 = EDGE_LOOP ( 'NONE', ( #657, #261 ) ) ;
#83 = ORIENTED_EDGE ( 'NONE', *, *, #277, .F. ) ;
#84 = DIRECTION ( 'NONE',  ( -0.000000000000000000, 1.000000000000000000, -0.000000000000000000 ) ) ;
#85 =( NAMED_UNIT ( * ) SI_UNIT ( $, .STERADIAN. ) SOLID_ANGLE_UNIT ( ) );
#86 = ORIENTED_EDGE ( 'NONE', *, *, #8, .T. ) ;
#87 = ORIENTED_EDGE ( 'NONE', *, *, #464, .F. ) ;
#88 = CARTESIAN_POINT ( 'NONE',  ( 0.9650000000000010791, 1.249999999999999778, 0.3699999999999996070 ) ) ;
#89 = AXIS2_PLACEMENT_3D ( 'NONE', #745, #139, #391 ) ;
#90 = CIRCLE ( 'NONE', #281, 0.1250000000000000278 ) ;
#91 = CARTESIAN_POINT ( 'NONE',  ( -1.934999999999999165, 0.2500000000000022760, 0.3700000000000097655 ) ) ;
#92 = CARTESIAN_POINT ( 'NONE',  ( -0.9650000000000001910, -1.054493325554405795E-16, -3.636592188382406589E-15 ) ) ;
#93 = VERTEX_POINT ( 'NONE', #375 ) ;
#94 = LINE ( 'NONE', #539, #550 ) ;
#95 = DIRECTION ( 'NONE',  ( -3.551402391763541987E-15, -0.000000000000000000, 1.000000000000000000 ) ) ;
#96 = CARTESIAN_POINT ( 'NONE',  ( -1.935000000000000497, 0.2500000000000023315, -0.05999999999999008904 ) ) ;
#97 = VERTEX_POINT ( 'NONE', #634 ) ;
#98 = CARTESIAN_POINT ( 'NONE',  ( -0.8450000000000008615, 0.2500000000000022760, -0.05999999999999397482 ) ) ;
#99 = VECTOR ( 'NONE', #607, 39.37007874015748143 ) ;
#100 = FACE_OUTER_BOUND ( 'NONE', #190, .T. ) ;
#101 = ADVANCED_FACE ( 'NONE', ( #851 ), #694, .F. ) ;
#102 = CARTESIAN_POINT ( 'NONE',  ( 0.9649999999999995248, 0.2500000000000026090, -0.06000000000000038636 ) ) ;
#103 = EDGE_LOOP ( 'NONE', ( #319, #830, #178, #254 ) ) ;
#104 = DIRECTION ( 'NONE',  ( 0.000000000000000000, 0.000000000000000000, 1.000000000000000000 ) ) ;
#105 = CIRCLE ( 'NONE', #130, 0.1200000000000002176 ) ;
#106 = DIRECTION ( 'NONE',  ( 2.276539994720212841E-15, -1.010986847447365040E-30, -1.000000000000000000 ) ) ;
#107 = ORIENTED_EDGE ( 'NONE', *, *, #8, .F. ) ;
#108 = CARTESIAN_POINT ( 'NONE',  ( -0.9650000000000000799, -1.250000000000000222, -0.05999999999999999778 ) ) ;
#109 = AXIS2_PLACEMENT_3D ( 'NONE', #215, #423, #340 ) ;
#110 = LINE ( 'NONE', #729, #438 ) ;
#111 = DIRECTION ( 'NONE',  ( 1.000000000000000000, 0.000000000000000000, 0.000000000000000000 ) ) ;
#112 = DIMENSIONAL_EXPONENTS ( 1.000000000000000000, 0.000000000000000000, 0.000000000000000000, 0.000000000000000000, 0.000000000000000000, 0.000000000000000000, 0.000000000000000000 ) ;
#113 = ADVANCED_FACE ( 'NONE', ( #425, #246 ), #839, .F. ) ;
#114 = VERTEX_POINT ( 'NONE', #833 ) ;
#115 = DIRECTION ( 'NONE',  ( 1.092739197465702699E-16, -1.000000000000000000, -7.941418586233363842E-17 ) ) ;
#116 = DIRECTION ( 'NONE',  ( -3.551402391763541198E-15, 0.000000000000000000, -1.000000000000000000 ) ) ;
#117 = ORIENTED_EDGE ( 'NONE', *, *, #783, .T. ) ;
#118 = DIRECTION ( 'NONE',  ( 1.000000000000000000, 1.092739197465705411E-16, -3.551402391763541198E-15 ) ) ;
#119 = DIMENSIONAL_EXPONENTS ( 1.000000000000000000, 0.000000000000000000, 0.000000000000000000, 0.000000000000000000, 0.000000000000000000, 0.000000000000000000, 0.000000000000000000 ) ;
#120 = FACE_OUTER_BOUND ( 'NONE', #9, .T. ) ;
#121 = AXIS2_PLACEMENT_3D ( 'NONE', #217, #546, #26 ) ;
#122 = ORIENTED_EDGE ( 'NONE', *, *, #353, .F. ) ;
#123 = PLANE ( 'NONE',  #268 ) ;
#124 = ORIENTED_EDGE ( 'NONE', *, *, #433, .T. ) ;
#125 = LINE ( 'NONE', #662, #393 ) ;
#126 = EDGE_CURVE ( 'NONE', #273, #864, #570, .T. ) ;
#127 = ORIENTED_EDGE ( 'NONE', *, *, #464, .T. ) ;
#128 = DIRECTION ( 'NONE',  ( -3.278217592397115073E-15, 0.000000000000000000, -1.000000000000000000 ) ) ;
#129 = CARTESIAN_POINT ( 'NONE',  ( -1.934999999999998055, 0.7500000000000022204, 0.6880000000000102700 ) ) ;
#130 = AXIS2_PLACEMENT_3D ( 'NONE', #541, #730, #68 ) ;
#131 = AXIS2_PLACEMENT_3D ( 'NONE', #374, #236, #432 ) ;
#132 = EDGE_CURVE ( 'NONE', #16, #273, #52, .T. ) ;
#133 = ORIENTED_EDGE ( 'NONE', *, *, #318, .F. ) ;
#134 = DIRECTION ( 'NONE',  ( 0.000000000000000000, 1.000000000000000000, 7.114187483500681151E-17 ) ) ;
#135 = DIRECTION ( 'NONE',  ( 1.000000000000000000, 0.000000000000000000, -3.551402391763541198E-15 ) ) ;
#136 = ORIENTED_EDGE ( 'NONE', *, *, #699, .T. ) ;
#137 = EDGE_CURVE ( 'NONE', #93, #78, #490, .T. ) ;
#138 = DIRECTION ( 'NONE',  ( 0.000000000000000000, 7.114187483500681151E-17, -1.000000000000000000 ) ) ;
#139 = DIRECTION ( 'NONE',  ( 0.000000000000000000, -1.000000000000000000, 0.000000000000000000 ) ) ;
#140 = AXIS2_PLACEMENT_3D ( 'NONE', #612, #12, #620 ) ;
#141 = ORIENTED_EDGE ( 'NONE', *, *, #589, .T. ) ;
#142 = DIRECTION ( 'NONE',  ( 1.000000000000000000, 1.092739197465705411E-16, -3.551402391763541198E-15 ) ) ;
#143 = PLANE ( 'NONE',  #733 ) ;
#144 = ORIENTED_EDGE ( 'NONE', *, *, #335, .T. ) ;
#145 = DIRECTION ( 'NONE',  ( -1.000000000000000000, -1.707404996040171069E-15, 8.963876229210899197E-15 ) ) ;
#146 = DIRECTION ( 'NONE',  ( 0.000000000000000000, -1.000000000000000000, 0.000000000000000000 ) ) ;
#147 = EDGE_CURVE ( 'NONE', #329, #548, #741, .T. ) ;
#148 = ORIENTED_EDGE ( 'NONE', *, *, #795, .F. ) ;
#149 = ORIENTED_EDGE ( 'NONE', *, *, #455, .T. ) ;
#150 = DIRECTION ( 'NONE',  ( 1.000000000000000000, 1.092739197465705287E-16, -3.491481338843133750E-15 ) ) ;
#151 = CARTESIAN_POINT ( 'NONE',  ( -0.9650000000000039657, 1.249999999999999778, 1.000000000000000000 ) ) ;
#152 = ORIENTED_EDGE ( 'NONE', *, *, #699, .F. ) ;
#153 = DIRECTION ( 'NONE',  ( -3.491481338843134539E-15, -3.815278516173931870E-31, 1.000000000000000000 ) ) ;
#154 =( LENGTH_UNIT ( ) NAMED_UNIT ( * ) SI_UNIT ( $, .METRE. ) );
#155 = ORIENTED_EDGE ( 'NONE', *, *, #585, .T. ) ;
#156 = EDGE_LOOP ( 'NONE', ( #280, #493, #202, #483 ) ) ;
#157 = CARTESIAN_POINT ( 'NONE',  ( -0.9050000000000003597, -1.249999999999999778, 0.05999999999999976880 ) ) ;
#158 = AXIS2_PLACEMENT_3D ( 'NONE', #798, #192, #128 ) ;
#159 = LINE ( 'NONE', #424, #435 ) ;
#160 = CARTESIAN_POINT ( 'NONE',  ( 0.000000000000000000, 0.000000000000000000, -0.05999999999999999778 ) ) ;
#161 = EDGE_LOOP ( 'NONE', ( #773, #770, #538, #653 ) ) ;
#162 = DIRECTION ( 'NONE',  ( 1.000000000000000000, 1.092739197465705411E-16, -3.551402391763541198E-15 ) ) ;
#163 = EDGE_CURVE ( 'NONE', #641, #672, #400, .T. ) ;
#164 = DIRECTION ( 'NONE',  ( 0.000000000000000000, -1.000000000000000000, 0.000000000000000000 ) ) ;
#165 = LINE ( 'NONE', #501, #168 ) ;
#166 = ORIENTED_EDGE ( 'NONE', *, *, #860, .T. ) ;
#167 =( NAMED_UNIT ( * ) PLANE_ANGLE_UNIT ( ) SI_UNIT ( $, .RADIAN. ) );
#168 = VECTOR ( 'NONE', #848, 39.37007874015748143 ) ;
#169 = DIRECTION ( 'NONE',  ( 1.000000000000000000, 1.092739197465705287E-16, 3.551402391763541198E-15 ) ) ;
#170 = ADVANCED_FACE ( 'NONE', ( #237 ), #644, .F. ) ;
#171 = FACE_OUTER_BOUND ( 'NONE', #205, .T. ) ;
#172 = ORIENTED_EDGE ( 'NONE', *, *, #783, .F. ) ;
#173 = LINE ( 'NONE', #439, #688 ) ;
#174 = VECTOR ( 'NONE', #363, 39.37007874015748143 ) ;
#175 = EDGE_CURVE ( 'NONE', #33, #737, #629, .T. ) ;
#176 = CARTESIAN_POINT ( 'NONE',  ( -0.9050000000000028022, 0.7500000000000023315, 0.6880000000000066063 ) ) ;
#177 = APPLICATION_CONTEXT ( 'automotive_design' ) ;
#178 = ORIENTED_EDGE ( 'NONE', *, *, #433, .F. ) ;
#179 = CARTESIAN_POINT ( 'NONE',  ( -0.9650000000000004130, 1.249999999999999778, -2.094888803305880210E-16 ) ) ;
#180 = LINE ( 'NONE', #334, #188 ) ;
#181 = ORIENTED_EDGE ( 'NONE', *, *, #163, .F. ) ;
#182 = CARTESIAN_POINT ( 'NONE',  ( 0.8449999999999997513, 1.249999999999999334, -0.05999999999999996309 ) ) ;
#183 = VECTOR ( 'NONE', #778, 39.37007874015748143 ) ;
#184 = ORIENTED_EDGE ( 'NONE', *, *, #399, .T. ) ;
#185 = CARTESIAN_POINT ( 'NONE',  ( -0.9650000000000039657, 1.249999999999999778, 1.000000000000000000 ) ) ;
#186 = EDGE_CURVE ( 'NONE', #649, #307, #293, .T. ) ;
#187 = DIRECTION ( 'NONE',  ( 1.000000000000000000, 1.092739197465702699E-16, 0.000000000000000000 ) ) ;
#188 = VECTOR ( 'NONE', #207, 39.37007874015748143 ) ;
#189 = AXIS2_PLACEMENT_3D ( 'NONE', #6, #534, #810 ) ;
#190 = EDGE_LOOP ( 'NONE', ( #451, #527, #86, #511, #136, #402 ) ) ;
#191 = VECTOR ( 'NONE', #487, 39.37007874015748143 ) ;
#192 = DIRECTION ( 'NONE',  ( 1.000000000000000000, 1.092739197465705287E-16, -3.551402391763541592E-15 ) ) ;
#193 = EDGE_CURVE ( 'NONE', #361, #608, #700, .T. ) ;
#194 = VERTEX_POINT ( 'NONE', #38 ) ;
#195 = CARTESIAN_POINT ( 'NONE',  ( -1.934999999999998055, 0.7500000000000022204, 0.6880000000000102700 ) ) ;
#196 = CARTESIAN_POINT ( 'NONE',  ( 0.8449999999999999734, 0.2500000000000024980, 0.06000000000000013656 ) ) ;
#197 = EDGE_CURVE ( 'NONE', #114, #307, #706, .T. ) ;
#198 = ORIENTED_EDGE ( 'NONE', *, *, #860, .F. ) ;
#199 = CARTESIAN_POINT ( 'NONE',  ( 0.9050000000000001377, -1.249999999999998668, 0.05999999999999981043 ) ) ;
#200 = PLANE ( 'NONE',  #462 ) ;
#201 = ADVANCED_FACE ( 'NONE', ( #473, #267 ), #143, .F. ) ;
#202 = ORIENTED_EDGE ( 'NONE', *, *, #850, .F. ) ;
#203 = DIRECTION ( 'NONE',  ( 1.000000000000000000, 0.000000000000000000, -3.557093741750332169E-15 ) ) ;
#204 = CARTESIAN_POINT ( 'NONE',  ( -0.9050000000000004707, 0.2500000000000024425, 0.05999999999999976880 ) ) ;
#205 = EDGE_LOOP ( 'NONE', ( #524, #83, #403, #5 ) ) ;
#206 = CARTESIAN_POINT ( 'NONE',  ( 0.8449999999999999734, 1.249999999999999334, 0.06000000000000020595 ) ) ;
#207 = DIRECTION ( 'NONE',  ( 1.092739197465705411E-16, -1.000000000000000000, 4.379057701015054319E-47 ) ) ;
#208 = AXIS2_PLACEMENT_3D ( 'NONE', #96, #689, #44 ) ;
#209 = CARTESIAN_POINT ( 'NONE',  ( -0.8450000000000003064, 0.2500000000000022760, -2.048885995248197414E-16 ) ) ;
#210 = DIRECTION ( 'NONE',  ( 1.000000000000000000, 0.000000000000000000, 3.491481338843134539E-15 ) ) ;
#211 = FILL_AREA_STYLE_COLOUR ( '', #213 ) ;
#212 = PLANE ( 'NONE',  #698 ) ;
#213 = COLOUR_RGB ( '',0.7921568627450980005, 0.8196078431372548767, 0.9333333333333333481 ) ;
#214 = ORIENTED_EDGE ( 'NONE', *, *, #718, .F. ) ;
#215 = CARTESIAN_POINT ( 'NONE',  ( -0.8450000000000004174, -1.250000000000000000, 0.05999999999999998390 ) ) ;
#216 = EDGE_CURVE ( 'NONE', #608, #247, #105, .T. ) ;
#217 = CARTESIAN_POINT ( 'NONE',  ( 0.8449999999999999734, -1.249999999999999334, 0.06000000000000002554 ) ) ;
#218 = VECTOR ( 'NONE', #475, 39.37007874015748143 ) ;
#219 = ORIENTED_EDGE ( 'NONE', *, *, #731, .T. ) ;
#220 = DIRECTION ( 'NONE',  ( -3.278217592397115073E-15, 0.000000000000000000, -1.000000000000000000 ) ) ;
#221 = ADVANCED_FACE ( 'NONE', ( #862 ), #328, .T. ) ;
#222 = ORIENTED_EDGE ( 'NONE', *, *, #76, .T. ) ;
#223 = EDGE_LOOP ( 'NONE', ( #456, #784, #45, #107 ) ) ;
#224 = CARTESIAN_POINT ( 'NONE',  ( 0.9650000000000025224, 0.7500000000000025535, 0.8130000000000000560 ) ) ;
#225 = ADVANCED_FACE ( 'NONE', ( #401 ), #406, .F. ) ;
#226 = DIRECTION ( 'NONE',  ( 1.092739197465705411E-16, -1.000000000000000000, 4.379057701015054319E-47 ) ) ;
#227 = VECTOR ( 'NONE', #467, 39.37007874015748143 ) ;
#228 = ORIENTED_EDGE ( 'NONE', *, *, #724, .F. ) ;
#229 = LINE ( 'NONE', #494, #218 ) ;
#230 = AXIS2_PLACEMENT_3D ( 'NONE', #714, #115, #187 ) ;
#231 = PLANE ( 'NONE',  #336 ) ;
#232 = CARTESIAN_POINT ( 'NONE',  ( -0.9650000000000001910, 0.2500000000000024425, -3.616738641916823062E-15 ) ) ;
#233 = ORIENTED_EDGE ( 'NONE', *, *, #705, .T. ) ;
#234 =( LENGTH_UNIT ( ) NAMED_UNIT ( * ) SI_UNIT ( $, .METRE. ) );
#235 = EDGE_CURVE ( 'NONE', #615, #397, #180, .T. ) ;
#236 = DIRECTION ( 'NONE',  ( 1.000000000000000000, 1.092739197465705287E-16, 3.551402391763541592E-15 ) ) ;
#237 = FACE_OUTER_BOUND ( 'NONE', #386, .T. ) ;
#238 = ORIENTED_EDGE ( 'NONE', *, *, #388, .T. ) ;
#239 = LINE ( 'NONE', #98, #638 ) ;
#240 = FACE_OUTER_BOUND ( 'NONE', #470, .T. ) ;
#241 = ADVANCED_FACE ( 'NONE', ( #1 ), #11, .F. ) ;
#242 = DIRECTION ( 'NONE',  ( -0.000000000000000000, 0.000000000000000000, 1.000000000000000000 ) ) ;
#243 = ORIENTED_EDGE ( 'NONE', *, *, #175, .T. ) ;
#244 = AXIS2_PLACEMENT_3D ( 'NONE', #196, #74, #671 ) ;
#245 = AXIS2_PLACEMENT_3D ( 'NONE', #309, #775, #51 ) ;
#246 = FACE_OUTER_BOUND ( 'NONE', #780, .T. ) ;
#247 = VERTEX_POINT ( 'NONE', #264 ) ;
#248 = DIRECTION ( 'NONE',  ( 3.278217592397115073E-15, 0.000000000000000000, -1.000000000000000000 ) ) ;
#249 = ORIENTED_EDGE ( 'NONE', *, *, #382, .F. ) ;
#250 = CARTESIAN_POINT ( 'NONE',  ( -0.9050000000000005818, -1.250000000000000000, 0.05999999999999976880 ) ) ;
#251 = DIRECTION ( 'NONE',  ( 1.092739197465702699E-16, -1.000000000000000000, -7.941418586233363842E-17 ) ) ;
#252 = AXIS2_PLACEMENT_3D ( 'NONE', #441, #769, #578 ) ;
#253 = ADVANCED_FACE ( 'NONE', ( #260 ), #715, .F. ) ;
#254 = ORIENTED_EDGE ( 'NONE', *, *, #531, .F. ) ;
#255 = CARTESIAN_POINT ( 'NONE',  ( 0.000000000000000000, 0.000000000000000000, 0.000000000000000000 ) ) ;
#256 = CIRCLE ( 'NONE', #244, 0.06000000000000017819 ) ;
#257 = ORIENTED_EDGE ( 'NONE', *, *, #81, .T. ) ;
#258 = CIRCLE ( 'NONE', #825, 0.1250000000000000278 ) ;
#259 = CARTESIAN_POINT ( 'NONE',  ( 0.9050000000000018030, 0.7500000000000025535, 0.5630000000000001670 ) ) ;
#260 = FACE_OUTER_BOUND ( 'NONE', #725, .T. ) ;
#261 = ORIENTED_EDGE ( 'NONE', *, *, #795, .T. ) ;
#262 = LINE ( 'NONE', #525, #73 ) ;
#263 = ADVANCED_FACE ( 'NONE', ( #523 ), #331, .F. ) ;
#264 = CARTESIAN_POINT ( 'NONE',  ( 0.8449999999999996403, 0.2500000000000024980, -0.05999999999999994921 ) ) ;
#265 = ORIENTED_EDGE ( 'NONE', *, *, #577, .T. ) ;
#266 = CARTESIAN_POINT ( 'NONE',  ( -0.9050000000000015810, -1.494320852534369375E-16, 0.3700000000000061018 ) ) ;
#267 = FACE_OUTER_BOUND ( 'NONE', #348, .T. ) ;
#268 = AXIS2_PLACEMENT_3D ( 'NONE', #179, #385, #581 ) ;
#269 = ORIENTED_EDGE ( 'NONE', *, *, #186, .T. ) ;
#270 = DIRECTION ( 'NONE',  ( 1.000000000000000000, 1.092739197465705411E-16, -3.551402391763541592E-15 ) ) ;
#271 = CARTESIAN_POINT ( 'NONE',  ( 0.9650000000000035216, -1.250000000000000222, 1.000000000000000000 ) ) ;
#272 = ORIENTED_EDGE ( 'NONE', *, *, #787, .F. ) ;
#273 = VERTEX_POINT ( 'NONE', #605 ) ;
#274 = LINE ( 'NONE', #819, #326 ) ;
#275 = LINE ( 'NONE', #4, #633 ) ;
#276 = FACE_OUTER_BOUND ( 'NONE', #845, .T. ) ;
#277 = EDGE_CURVE ( 'NONE', #732, #812, #256, .T. ) ;
#278 = DIRECTION ( 'NONE',  ( 1.000000000000000000, 1.092739197465705411E-16, -3.551402391763541198E-15 ) ) ;
#279 = LINE ( 'NONE', #557, #517 ) ;
#280 = ORIENTED_EDGE ( 'NONE', *, *, #335, .F. ) ;
#281 = AXIS2_PLACEMENT_3D ( 'NONE', #723, #781, #771 ) ;
#282 = EDGE_LOOP ( 'NONE', ( #690, #302 ) ) ;
#283 = LINE ( 'NONE', #72, #594 ) ;
#284 = LINE ( 'NONE', #554, #472 ) ;
#285 = ORIENTED_EDGE ( 'NONE', *, *, #137, .F. ) ;
#286 = CARTESIAN_POINT ( 'NONE',  ( -0.9650000000000036326, -1.250000000000000222, 1.000000000000000000 ) ) ;
#287 = CARTESIAN_POINT ( 'NONE',  ( -0.9050000000000035794, -1.250000000000000000, 1.000000000000000222 ) ) ;
#288 = DIRECTION ( 'NONE',  ( 1.000000000000000000, 0.000000000000000000, -1.707404996040159433E-15 ) ) ;
#289 = VECTOR ( 'NONE', #106, 39.37007874015748143 ) ;
#290 = ORIENTED_EDGE ( 'NONE', *, *, #342, .F. ) ;
#291 = CARTESIAN_POINT ( 'NONE',  ( -0.9650000000000039657, 1.249999999999999778, 1.000000000000000000 ) ) ;
#292 = DIRECTION ( 'NONE',  ( 1.000000000000000000, 1.092739197465705411E-16, -3.551402391763541198E-15 ) ) ;
#293 = LINE ( 'NONE', #232, #294 ) ;
#294 = VECTOR ( 'NONE', #496, 39.37007874015748143 ) ;
#295 = EDGE_LOOP ( 'NONE', ( #198, #431, #448, #127 ) ) ;
#296 = VECTOR ( 'NONE', #49, 39.37007874015748143 ) ;
#297 = LINE ( 'NONE', #832, #749 ) ;
#298 = VECTOR ( 'NONE', #556, 39.37007874015748143 ) ;
#299 = CARTESIAN_POINT ( 'NONE',  ( 0.8449999999999998623, -1.249999999999998668, -1.451294246634139896E-16 ) ) ;
#300 = PRODUCT_DEFINITION_CONTEXT ( 'detailed design', #701, 'design' ) ;
#301 = EDGE_CURVE ( 'NONE', #824, #746, #70, .T. ) ;
#302 = ORIENTED_EDGE ( 'NONE', *, *, #301, .F. ) ;
#303 = APPLICATION_PROTOCOL_DEFINITION ( 'draft international standard', 'automotive_design', 1998, #701 ) ;
#304 = DIRECTION ( 'NONE',  ( -3.551402391763541987E-15, -0.000000000000000000, -1.000000000000000000 ) ) ;
#305 = ORIENTED_EDGE ( 'NONE', *, *, #469, .T. ) ;
#306 = DIRECTION ( 'NONE',  ( 3.551402391763541198E-15, 0.000000000000000000, -1.000000000000000000 ) ) ;
#307 = VERTEX_POINT ( 'NONE', #610 ) ;
#308 = CARTESIAN_POINT ( 'NONE',  ( -2.731847993664284173E-17, 0.2500000000000024980, 0.000000000000000000 ) ) ;
#309 = CARTESIAN_POINT ( 'NONE',  ( 0.8449999999999999734, 1.249999999999999334, 0.06000000000000020595 ) ) ;
#310 = VECTOR ( 'NONE', #858, 39.37007874015748143 ) ;
#311 = EDGE_LOOP ( 'NONE', ( #133, #181, #443, #543 ) ) ;
#312 = APPLICATION_PROTOCOL_DEFINITION ( 'draft international standard', 'automotive_design', 1998, #177 ) ;
#313 = PLANE ( 'NONE',  #323 ) ;
#314 = ADVANCED_FACE ( 'NONE', ( #602 ), #663, .F. ) ;
#315 = ORIENTED_EDGE ( 'NONE', *, *, #81, .F. ) ;
#316 = FACE_OUTER_BOUND ( 'NONE', #58, .T. ) ;
#317 = AXIS2_PLACEMENT_3D ( 'NONE', #371, #41, #434 ) ;
#318 = EDGE_CURVE ( 'NONE', #672, #824, #275, .T. ) ;
#319 = ORIENTED_EDGE ( 'NONE', *, *, #216, .F. ) ;
#320 = CARTESIAN_POINT ( 'NONE',  ( -0.9050000000000039124, 1.249999999999999778, 1.000000000000000222 ) ) ;
#321 = DIRECTION ( 'NONE',  ( 1.000000000000000000, 1.092739197465705411E-16, 0.000000000000000000 ) ) ;
#322 = VECTOR ( 'NONE', #420, 39.37007874015748143 ) ;
#323 = AXIS2_PLACEMENT_3D ( 'NONE', #704, #169, #719 ) ;
#324 = EDGE_LOOP ( 'NONE', ( #351, #166, #532, #436 ) ) ;
#325 = ADVANCED_FACE ( 'NONE', ( #598 ), #200, .F. ) ;
#326 = VECTOR ( 'NONE', #347, 39.37007874015748143 ) ;
#327 = CARTESIAN_POINT ( 'NONE',  ( -0.9650000000000006350, 1.249999999999999778, 0.05999999999999955369 ) ) ;
#328 = PLANE ( 'NONE',  #562 ) ;
#329 = VERTEX_POINT ( 'NONE', #396 ) ;
#330 = DIRECTION ( 'NONE',  ( 1.000000000000000000, 0.000000000000000000, -3.491481338843134539E-15 ) ) ;
#331 = CYLINDRICAL_SURFACE ( 'NONE', #791, 0.1250000000000000278 ) ;
#332 = ORIENTED_EDGE ( 'NONE', *, *, #318, .T. ) ;
#333 = FACE_OUTER_BOUND ( 'NONE', #542, .T. ) ;
#334 = CARTESIAN_POINT ( 'NONE',  ( -0.9050000000000036904, -9.889289737064672935E-17, 1.000000000000000222 ) ) ;
#335 = EDGE_CURVE ( 'NONE', #273, #307, #667, .T. ) ;
#336 = AXIS2_PLACEMENT_3D ( 'NONE', #755, #485, #759 ) ;
#337 = AXIS2_PLACEMENT_3D ( 'NONE', #390, #3, #138 ) ;
#338 = ORIENTED_EDGE ( 'NONE', *, *, #655, .T. ) ;
#339 = ORIENTED_EDGE ( 'NONE', *, *, #197, .F. ) ;
#340 = DIRECTION ( 'NONE',  ( 0.000000000000000000, 0.000000000000000000, -1.000000000000000000 ) ) ;
#341 = DIRECTION ( 'NONE',  ( 1.000000000000000000, 1.092739197465705287E-16, -3.551402391763541592E-15 ) ) ;
#342 = EDGE_CURVE ( 'NONE', #716, #389, #297, .T. ) ;
#343 = PLANE ( 'NONE',  #140 ) ;
#344 = CARTESIAN_POINT ( 'NONE',  ( -0.9050000000000000266, -1.250000000000000222, -3.427103308051818272E-15 ) ) ;
#345 = CARTESIAN_POINT ( 'NONE',  ( -0.9650000000000039657, 1.249999999999999778, 1.000000000000000000 ) ) ;
#346 = ORIENTED_EDGE ( 'NONE', *, *, #47, .T. ) ;
#347 = DIRECTION ( 'NONE',  ( 1.000000000000000000, 1.092739197465705287E-16, 3.491481338843133750E-15 ) ) ;
#348 = EDGE_LOOP ( 'NONE', ( #257, #797, #249, #305, #571, #222 ) ) ;
#349 = AXIS2_PLACEMENT_3D ( 'NONE', #807, #341, #535 ) ;
#350 = VECTOR ( 'NONE', #785, 39.37007874015748143 ) ;
#351 = ORIENTED_EDGE ( 'NONE', *, *, #481, .F. ) ;
#352 = DIRECTION ( 'NONE',  ( -1.000000000000000000, -1.092739197465705287E-16, 3.491481338843133750E-15 ) ) ;
#353 = EDGE_CURVE ( 'NONE', #78, #664, #407, .T. ) ;
#354 = DIRECTION ( 'NONE',  ( -1.092739197465705411E-16, 1.000000000000000000, 4.379057701015054319E-47 ) ) ;
#355 = PLANE ( 'NONE',  #317 ) ;
#356 = ORIENTED_EDGE ( 'NONE', *, *, #416, .F. ) ;
#357 = LINE ( 'NONE', #13, #569 ) ;
#358 =( CONVERSION_BASED_UNIT ( 'INCH', #768 ) LENGTH_UNIT ( ) NAMED_UNIT ( #119 ) );
#359 = CARTESIAN_POINT ( 'NONE',  ( 0.9050000000000011369, 0.2500000000000026090, 0.3699999999999996625 ) ) ;
#360 = VECTOR ( 'NONE', #564, 39.37007874015748143 ) ;
#361 = VERTEX_POINT ( 'NONE', #415 ) ;
#362 = DIRECTION ( 'NONE',  ( 0.000000000000000000, -1.000000000000000000, 0.000000000000000000 ) ) ;
#363 = DIRECTION ( 'NONE',  ( -3.494224177942662834E-15, 7.941418586233325631E-17, -1.000000000000000000 ) ) ;
#364 = PRESENTATION_LAYER_ASSIGNMENT (  '', '', ( #19 ) ) ;
#365 = ORIENTED_EDGE ( 'NONE', *, *, #186, .F. ) ;
#366 = DIRECTION ( 'NONE',  ( 1.000000000000000000, 0.000000000000000000, 0.000000000000000000 ) ) ;
#367 = CARTESIAN_POINT ( 'NONE',  ( 0.9049999999999999156, -1.250000000000000222, -3.427103308051817877E-15 ) ) ;
#368 = MANIFOLD_SOLID_BREP ( 'Cortar-Extruir4', #656 ) ;
#369 = VECTOR ( 'NONE', #84, 39.37007874015748143 ) ;
#370 = ADVANCED_FACE ( 'NONE', ( #618 ), #693, .T. ) ;
#371 = CARTESIAN_POINT ( 'NONE',  ( -1.935000000000000497, 0.2500000000000023315, -0.05999999999999008904 ) ) ;
#372 = ORIENTED_EDGE ( 'NONE', *, *, #37, .F. ) ;
#373 = FACE_OUTER_BOUND ( 'NONE', #599, .T. ) ;
#374 = CARTESIAN_POINT ( 'NONE',  ( -0.9050000000000028022, 0.7500000000000023315, 0.6880000000000066063 ) ) ;
#375 = CARTESIAN_POINT ( 'NONE',  ( -0.8450000000000003064, -1.250000000000000000, -1.878145495644180839E-16 ) ) ;
#376 = ORIENTED_EDGE ( 'NONE', *, *, #813, .F. ) ;
#377 = ADVANCED_FACE ( 'NONE', ( #30 ), #231, .F. ) ;
#378 = CYLINDRICAL_SURFACE ( 'NONE', #245, 0.1200000000000002176 ) ;
#379 = CARTESIAN_POINT ( 'NONE',  ( -1.934999999999998055, 0.7500000000000022204, 0.6880000000000102700 ) ) ;
#380 = ORIENTED_EDGE ( 'NONE', *, *, #522, .T. ) ;
#381 = PLANE ( 'NONE',  #779 ) ;
#382 = EDGE_CURVE ( 'NONE', #664, #732, #80, .T. ) ;
#383 = AXIS2_PLACEMENT_3D ( 'NONE', #195, #270, #726 ) ;
#384 = EDGE_LOOP ( 'NONE', ( #219, #141, #829, #497 ) ) ;
#385 = DIRECTION ( 'NONE',  ( -1.092739197465705411E-16, 1.000000000000000000, -3.880756599453478680E-31 ) ) ;
#386 = EDGE_LOOP ( 'NONE', ( #625, #590, #394, #238 ) ) ;
#387 = FACE_OUTER_BOUND ( 'NONE', #161, .T. ) ;
#388 = EDGE_CURVE ( 'NONE', #48, #361, #687, .T. ) ;
#389 = VERTEX_POINT ( 'NONE', #345 ) ;
#390 = CARTESIAN_POINT ( 'NONE',  ( 0.8449999999999999734, -1.249999999999999334, 0.06000000000000002554 ) ) ;
#391 = DIRECTION ( 'NONE',  ( -1.000000000000000000, 0.000000000000000000, -3.557093741750332169E-15 ) ) ;
#392 = AXIS2_PLACEMENT_3D ( 'NONE', #526, #811, #593 ) ;
#393 = VECTOR ( 'NONE', #54, 39.37007874015748143 ) ;
#394 = ORIENTED_EDGE ( 'NONE', *, *, #823, .F. ) ;
#395 = DIRECTION ( 'NONE',  ( -1.092739197465705411E-16, 1.000000000000000000, 4.379057701015054319E-47 ) ) ;
#396 = CARTESIAN_POINT ( 'NONE',  ( -0.9050000000000031353, 0.7500000000000023315, 0.8130000000000066063 ) ) ;
#397 = VERTEX_POINT ( 'NONE', #287 ) ;
#398 = CARTESIAN_POINT ( 'NONE',  ( -0.9650000000000016342, 0.2500000000000023870, 0.3700000000000063793 ) ) ;
#399 = EDGE_CURVE ( 'NONE', #679, #53, #279, .T. ) ;
#400 = CIRCLE ( 'NONE', #252, 0.1250000000000000278 ) ;
#401 = FACE_OUTER_BOUND ( 'NONE', #645, .T. ) ;
#402 = ORIENTED_EDGE ( 'NONE', *, *, #126, .F. ) ;
#403 = ORIENTED_EDGE ( 'NONE', *, *, #710, .F. ) ;
#404 = PLANE ( 'NONE',  #764 ) ;
#405 = EDGE_CURVE ( 'NONE', #864, #93, #477, .T. ) ;
#406 = PLANE ( 'NONE',  #392 ) ;
#407 = CIRCLE ( 'NONE', #121, 0.06000000000000017819 ) ;
#408 = VECTOR ( 'NONE', #145, 39.37007874015748143 ) ;
#409 = ORIENTED_EDGE ( 'NONE', *, *, #744, .T. ) ;
#410 = DIRECTION ( 'NONE',  ( -0.000000000000000000, 1.000000000000000000, -0.000000000000000000 ) ) ;
#411 = AXIS2_PLACEMENT_3D ( 'NONE', #108, #362, #449 ) ;
#412 = DIRECTION ( 'NONE',  ( 0.000000000000000000, 0.000000000000000000, -1.000000000000000000 ) ) ;
#413 = LINE ( 'NONE', #151, #669 ) ;
#414 = CARTESIAN_POINT ( 'NONE',  ( 0.9050000000000001377, 0.2500000000000024980, 0.06000000000000013656 ) ) ;
#415 = CARTESIAN_POINT ( 'NONE',  ( 0.9650000000000010791, 0.2500000000000026090, 0.3699999999999994960 ) ) ;
#416 = EDGE_CURVE ( 'NONE', #679, #422, #159, .T. ) ;
#417 = VERTEX_POINT ( 'NONE', #488 ) ;
#418 = PRODUCT ( '16-6082-01-(16gacr ANSI-61) - K48 - V0-R0', '16-6082-01-(16gacr ANSI-61) - K48 - V0-R0', '', ( #636 ) ) ;
#419 = CARTESIAN_POINT ( 'NONE',  ( 0.9649999999999999689, 0.2500000000000026090, 0.05999999999999960226 ) ) ;
#420 = DIRECTION ( 'NONE',  ( -1.092739197465701590E-16, 1.000000000000000000, 1.092739197465705411E-16 ) ) ;
#421 = CARTESIAN_POINT ( 'NONE',  ( -0.9050000000000016920, 0.2500000000000023870, 0.3700000000000061018 ) ) ;
#422 = VERTEX_POINT ( 'NONE', #34 ) ;
#423 = DIRECTION ( 'NONE',  ( 0.000000000000000000, -1.000000000000000000, 0.000000000000000000 ) ) ;
#424 = CARTESIAN_POINT ( 'NONE',  ( 0.9650000000000035216, -1.250000000000000222, 1.000000000000000000 ) ) ;
#425 = FACE_BOUND ( 'NONE', #502, .T. ) ;
#426 = VERTEX_POINT ( 'NONE', #836 ) ;
#427 = CARTESIAN_POINT ( 'NONE',  ( -1.934999999999999165, 1.249999999999999556, 0.3700000000000099321 ) ) ;
#428 = DIRECTION ( 'NONE',  ( -0.000000000000000000, -1.000000000000000000, -7.114187483500681151E-17 ) ) ;
#429 = DIRECTION ( 'NONE',  ( -1.092739197465702699E-16, 1.000000000000000000, 7.941418586233363842E-17 ) ) ;
#430 = AXIS2_PLACEMENT_3D ( 'NONE', #160, #242, #111 ) ;
#431 = ORIENTED_EDGE ( 'NONE', *, *, #455, .F. ) ;
#432 = DIRECTION ( 'NONE',  ( 3.278217592397115073E-15, 0.000000000000000000, -1.000000000000000000 ) ) ;
#433 = EDGE_CURVE ( 'NONE', #417, #575, #56, .T. ) ;
#434 = DIRECTION ( 'NONE',  ( 1.000000000000000000, 1.092739197465702699E-16, 0.000000000000000000 ) ) ;
#435 = VECTOR ( 'NONE', #681, 39.37007874015748143 ) ;
#436 = ORIENTED_EDGE ( 'NONE', *, *, #760, .F. ) ;
#437 = SHAPE_DEFINITION_REPRESENTATION ( #23, #720 ) ;
#438 = VECTOR ( 'NONE', #142, 39.37007874015748143 ) ;
#439 = CARTESIAN_POINT ( 'NONE',  ( 0.9650000000000010791, 1.249999999999999778, 0.3699999999999996070 ) ) ;
#440 = VECTOR ( 'NONE', #278, 39.37007874015748143 ) ;
#441 = CARTESIAN_POINT ( 'NONE',  ( 0.9050000000000022471, 0.7500000000000025535, 0.6880000000000001670 ) ) ;
#442 = ADVANCED_FACE ( 'NONE', ( #100, #614 ), #313, .T. ) ;
#443 = ORIENTED_EDGE ( 'NONE', *, *, #545, .T. ) ;
#444 = DIRECTION ( 'NONE',  ( 9.106159978881823239E-15, 0.000000000000000000, 1.000000000000000000 ) ) ;
#445 = CARTESIAN_POINT ( 'NONE',  ( -1.935000000000000497, 0.2500000000000023315, -0.05999999999999008904 ) ) ;
#446 = DIRECTION ( 'NONE',  ( 1.000000000000000000, 1.092739197465702699E-16, 0.000000000000000000 ) ) ;
#447 = EDGE_CURVE ( 'NONE', #71, #273, #576, .T. ) ;
#448 = ORIENTED_EDGE ( 'NONE', *, *, #760, .T. ) ;
#449 = DIRECTION ( 'NONE',  ( 0.000000000000000000, -0.000000000000000000, -1.000000000000000000 ) ) ;
#450 = LINE ( 'NONE', #367, #735 ) ;
#451 = ORIENTED_EDGE ( 'NONE', *, *, #447, .F. ) ;
#452 = VECTOR ( 'NONE', #573, 39.37007874015748143 ) ;
#453 = ORIENTED_EDGE ( 'NONE', *, *, #563, .T. ) ;
#454 = FACE_OUTER_BOUND ( 'NONE', #324, .T. ) ;
#455 = EDGE_CURVE ( 'NONE', #426, #753, #20, .T. ) ;
#456 = ORIENTED_EDGE ( 'NONE', *, *, #731, .F. ) ;
#457 = LINE ( 'NONE', #592, #492 ) ;
#458 = DIRECTION ( 'NONE',  ( 1.000000000000000000, 0.000000000000000000, 0.000000000000000000 ) ) ;
#459 = ORIENTED_EDGE ( 'NONE', *, *, #47, .F. ) ;
#460 = CARTESIAN_POINT ( 'NONE',  ( 0.9050000000000033573, 9.889289737064669237E-17, 1.000000000000000222 ) ) ;
#461 = CARTESIAN_POINT ( 'NONE',  ( -1.934999999999999165, 1.249999999999999556, 0.3700000000000099321 ) ) ;
#462 = AXIS2_PLACEMENT_3D ( 'NONE', #461, #736, #135 ) ;
#463 = CIRCLE ( 'NONE', #131, 0.1250000000000000278 ) ;
#464 = EDGE_CURVE ( 'NONE', #548, #329, #463, .T. ) ;
#465 = ORIENTED_EDGE ( 'NONE', *, *, #481, .T. ) ;
#466 = CYLINDRICAL_SURFACE ( 'NONE', #383, 0.1250000000000000278 ) ;
#467 = DIRECTION ( 'NONE',  ( -1.000000000000000000, 0.000000000000000000, -3.699377491420354543E-15 ) ) ;
#468 = VERTEX_POINT ( 'NONE', #584 ) ;
#469 = EDGE_CURVE ( 'NONE', #664, #422, #450, .T. ) ;
#470 = EDGE_LOOP ( 'NONE', ( #849, #801, #856, #513 ) ) ;
#471 = DIRECTION ( 'NONE',  ( 3.491481338843134539E-15, 3.815278516173931870E-31, 1.000000000000000000 ) ) ;
#472 = VECTOR ( 'NONE', #668, 39.37007874015748143 ) ;
#473 = FACE_BOUND ( 'NONE', #82, .T. ) ;
#474 = ORIENTED_EDGE ( 'NONE', *, *, #692, .F. ) ;
#475 = DIRECTION ( 'NONE',  ( -3.551402391763541198E-15, 7.941418586233325631E-17, -1.000000000000000000 ) ) ;
#476 = SURFACE_STYLE_USAGE ( .BOTH. , #822 ) ;
#477 = CIRCLE ( 'NONE', #820, 0.06000000000000017819 ) ;
#478 = CARTESIAN_POINT ( 'NONE',  ( 0.9649999999999998579, 1.054493325554405302E-16, -3.636592188382405011E-15 ) ) ;
#479 = ORIENTED_EDGE ( 'NONE', *, *, #724, .T. ) ;
#480 = CARTESIAN_POINT ( 'NONE',  ( -0.8450000000000003064, -1.249999999999999778, -1.878145495644180839E-16 ) ) ;
#481 = EDGE_CURVE ( 'NONE', #753, #426, #90, .T. ) ;
#482 = DIRECTION ( 'NONE',  ( 1.000000000000000000, 1.092739197465705287E-16, -3.551402391763541198E-15 ) ) ;
#483 = ORIENTED_EDGE ( 'NONE', *, *, #197, .T. ) ;
#484 = FACE_OUTER_BOUND ( 'NONE', #635, .T. ) ;
#485 = DIRECTION ( 'NONE',  ( 3.551402391763541198E-15, -1.365923996832135307E-16, 1.000000000000000000 ) ) ;
#486 = ORIENTED_EDGE ( 'NONE', *, *, #132, .T. ) ;
#487 = DIRECTION ( 'NONE',  ( 1.000000000000000000, 1.092739197465705411E-16, -3.551402391763541198E-15 ) ) ;
#488 = CARTESIAN_POINT ( 'NONE',  ( 0.8449999999999998623, -1.249999999999998224, -0.05999999999999999778 ) ) ;
#489 = AXIS2_PLACEMENT_3D ( 'NONE', #129, #60, #739 ) ;
#490 = LINE ( 'NONE', #504, #183 ) ;
#491 = UNCERTAINTY_MEASURE_WITH_UNIT (LENGTH_MEASURE( 1.000000000000000082E-05 ), #358, 'distance_accuracy_value', 'NONE');
#492 = VECTOR ( 'NONE', #861, 39.37007874015748143 ) ;
#493 = ORIENTED_EDGE ( 'NONE', *, *, #132, .F. ) ;
#494 = CARTESIAN_POINT ( 'NONE',  ( 0.9049999999999998046, 0.2500000000000026090, -3.407249761586233562E-15 ) ) ;
#495 = CARTESIAN_POINT ( 'NONE',  ( 0.8449999999999999734, -1.249999999999997558, 0.06000000000000002554 ) ) ;
#496 = DIRECTION ( 'NONE',  ( 3.551402391763541198E-15, 7.941418586233402052E-17, -1.000000000000000000 ) ) ;
#497 = ORIENTED_EDGE ( 'NONE', *, *, #522, .F. ) ;
#498 =( NAMED_UNIT ( * ) SI_UNIT ( $, .STERADIAN. ) SOLID_ANGLE_UNIT ( ) );
#499 = ADVANCED_FACE ( 'NONE', ( #568 ), #123, .T. ) ;
#500 = DIRECTION ( 'NONE',  ( 3.551402391763541987E-15, -0.000000000000000000, 1.000000000000000000 ) ) ;
#501 = CARTESIAN_POINT ( 'NONE',  ( 0.9050000000000011369, 4.835370948785686633E-17, 0.3699999999999996625 ) ) ;
#502 = EDGE_LOOP ( 'NONE', ( #149, #465 ) ) ;
#503 = FACE_OUTER_BOUND ( 'NONE', #103, .T. ) ;
#504 = CARTESIAN_POINT ( 'NONE',  ( -0.9650000000000000799, -1.250000000000000222, 0.000000000000000000 ) ) ;
#505 = ORIENTED_EDGE ( 'NONE', *, *, #756, .T. ) ;
#506 = AXIS2_PLACEMENT_3D ( 'NONE', #853, #507, #248 ) ;
#507 = DIRECTION ( 'NONE',  ( 1.000000000000000000, 1.092739197465705287E-16, 3.551402391763541592E-15 ) ) ;
#508 = ADVANCED_FACE ( 'NONE', ( #120 ), #381, .F. ) ;
#509 = DIRECTION ( 'NONE',  ( 1.000000000000000000, 1.092739197465705287E-16, 3.551402391763541592E-15 ) ) ;
#510 =( GEOMETRIC_REPRESENTATION_CONTEXT ( 3 ) GLOBAL_UNCERTAINTY_ASSIGNED_CONTEXT ( ( #565 ) ) GLOBAL_UNIT_ASSIGNED_CONTEXT ( ( #713, #167, #498 ) ) REPRESENTATION_CONTEXT ( 'NONE', 'WORKASPACE' ) );
#511 = ORIENTED_EDGE ( 'NONE', *, *, #235, .T. ) ;
#512 = DIRECTION ( 'NONE',  ( 1.000000000000000000, 1.092739197465702699E-16, 0.000000000000000000 ) ) ;
#513 = ORIENTED_EDGE ( 'NONE', *, *, #640, .T. ) ;
#514 = CARTESIAN_POINT ( 'NONE',  ( -1.934999999999998055, 0.7500000000000022204, 0.6880000000000102700 ) ) ;
#515 = CARTESIAN_POINT ( 'NONE',  ( -0.9650000000000036326, -1.250000000000000000, 1.000000000000000000 ) ) ;
#516 = ORIENTED_EDGE ( 'NONE', *, *, #840, .T. ) ;
#517 = VECTOR ( 'NONE', #354, 39.37007874015748143 ) ;
#518 = FACE_OUTER_BOUND ( 'NONE', #580, .T. ) ;
#519 = VECTOR ( 'NONE', #118, 39.37007874015748143 ) ;
#520 = ORIENTED_EDGE ( 'NONE', *, *, #652, .F. ) ;
#521 = CARTESIAN_POINT ( 'NONE',  ( 0.9650000000000001910, -1.249999999999997558, 0.05999999999999960226 ) ) ;
#522 = EDGE_CURVE ( 'NONE', #716, #649, #648, .T. ) ;
#523 = FACE_OUTER_BOUND ( 'NONE', #295, .T. ) ;
#524 = ORIENTED_EDGE ( 'NONE', *, *, #640, .F. ) ;
#525 = CARTESIAN_POINT ( 'NONE',  ( 0.9649999999999996358, 1.249999999999999778, -2.094888803305880210E-16 ) ) ;
#526 = CARTESIAN_POINT ( 'NONE',  ( -0.8450000000000004174, -1.250000000000000000, 0.05999999999999998390 ) ) ;
#527 = ORIENTED_EDGE ( 'NONE', *, *, #589, .F. ) ;
#528 = LINE ( 'NONE', #266, #806 ) ;
#529 = DIRECTION ( 'NONE',  ( 1.000000000000000000, 1.092739197465705411E-16, -3.551402391763541198E-15 ) ) ;
#530 = AXIS2_PLACEMENT_3D ( 'NONE', #255, #600, #743 ) ;
#531 = EDGE_CURVE ( 'NONE', #247, #417, #847, .T. ) ;
#532 = ORIENTED_EDGE ( 'NONE', *, *, #147, .T. ) ;
#533 = ORIENTED_EDGE ( 'NONE', *, *, #57, .T. ) ;
#534 = DIRECTION ( 'NONE',  ( 1.092739197465705411E-16, -1.000000000000000000, 3.880756599453478680E-31 ) ) ;
#535 = DIRECTION ( 'NONE',  ( -3.278217592397115073E-15, 0.000000000000000000, -1.000000000000000000 ) ) ;
#536 = VERTEX_POINT ( 'NONE', #515 ) ;
#537 = ADVANCED_FACE ( 'NONE', ( #240 ), #651, .F. ) ;
#538 = ORIENTED_EDGE ( 'NONE', *, *, #665, .T. ) ;
#539 = CARTESIAN_POINT ( 'NONE',  ( 0.9650000000000031886, 1.249999999999999778, 1.000000000000000000 ) ) ;
#540 = AXIS2_PLACEMENT_3D ( 'NONE', #27, #429, #288 ) ;
#541 = CARTESIAN_POINT ( 'NONE',  ( 0.8449999999999999734, 0.2500000000000024980, 0.06000000000000013656 ) ) ;
#542 = EDGE_LOOP ( 'NONE', ( #742, #24, #152, #272 ) ) ;
#543 = ORIENTED_EDGE ( 'NONE', *, *, #611, .T. ) ;
#544 = CARTESIAN_POINT ( 'NONE',  ( 0.9650000000000017453, 0.7500000000000025535, 0.5629999999999999449 ) ) ;
#545 = EDGE_CURVE ( 'NONE', #641, #746, #643, .T. ) ;
#546 = DIRECTION ( 'NONE',  ( -0.000000000000000000, -1.000000000000000000, -7.114187483500681151E-17 ) ) ;
#547 = VECTOR ( 'NONE', #790, 39.37007874015748143 ) ;
#548 = VERTEX_POINT ( 'NONE', #654 ) ;
#549 = LINE ( 'NONE', #29, #191 ) ;
#550 = VECTOR ( 'NONE', #352, 39.37007874015748143 ) ;
#551 = PRODUCT_RELATED_PRODUCT_CATEGORY ( 'part', '', ( #418 ) ) ;
#552 = DIRECTION ( 'NONE',  ( -1.000000000000000000, 0.000000000000000000, -3.557093741750336113E-15 ) ) ;
#553 = AXIS2_PLACEMENT_3D ( 'NONE', #703, #104, #366 ) ;
#554 = CARTESIAN_POINT ( 'NONE',  ( 0.9650000000000035216, -1.250000000000000222, 1.000000000000000000 ) ) ;
#555 = ORIENTED_EDGE ( 'NONE', *, *, #57, .F. ) ;
#556 = DIRECTION ( 'NONE',  ( 3.551402391763541987E-15, -0.000000000000000000, -1.000000000000000000 ) ) ;
#557 = CARTESIAN_POINT ( 'NONE',  ( 0.9650000000000031886, 1.249999999999999778, 1.000000000000000000 ) ) ;
#558 = ADVANCED_FACE ( 'NONE', ( #503 ), #378, .T. ) ;
#559 = CARTESIAN_POINT ( 'NONE',  ( -0.8450000000000003064, -1.250000000000000000, -1.878145495644180839E-16 ) ) ;
#560 = ORIENTED_EDGE ( 'NONE', *, *, #744, .F. ) ;
#561 = CARTESIAN_POINT ( 'NONE',  ( 0.8449999999999998623, 0.2500000000000026090, 0.000000000000000000 ) ) ;
#562 = AXIS2_PLACEMENT_3D ( 'NONE', #271, #64, #321 ) ;
#563 = EDGE_CURVE ( 'NONE', #737, #361, #173, .T. ) ;
#564 = DIRECTION ( 'NONE',  ( 1.000000000000000000, 1.092739197465705411E-16, -3.551402391763541198E-15 ) ) ;
#565 = UNCERTAINTY_MEASURE_WITH_UNIT (LENGTH_MEASURE( 1.000000000000000082E-05 ), #713, 'distance_accuracy_value', 'NONE');
#566 = VECTOR ( 'NONE', #63, 39.37007874015748143 ) ;
#567 = ORIENTED_EDGE ( 'NONE', *, *, #147, .F. ) ;
#568 = FACE_OUTER_BOUND ( 'NONE', #223, .T. ) ;
#569 = VECTOR ( 'NONE', #79, 39.37007874015748143 ) ;
#570 = LINE ( 'NONE', #624, #586 ) ;
#571 = ORIENTED_EDGE ( 'NONE', *, *, #652, .T. ) ;
#572 = EDGE_CURVE ( 'NONE', #114, #247, #110, .T. ) ;
#573 = DIRECTION ( 'NONE',  ( 1.092739197465710095E-16, -1.000000000000000000, -1.365923996832139251E-16 ) ) ;
#574 = LINE ( 'NONE', #559, #289 ) ;
#575 = VERTEX_POINT ( 'NONE', #521 ) ;
#576 = LINE ( 'NONE', #40, #547 ) ;
#577 = EDGE_CURVE ( 'NONE', #721, #417, #125, .T. ) ;
#578 = DIRECTION ( 'NONE',  ( -3.278217592397115073E-15, 0.000000000000000000, -1.000000000000000000 ) ) ;
#579 = MECHANICAL_DESIGN_GEOMETRIC_PRESENTATION_REPRESENTATION (  '', ( #19 ), #591 ) ;
#580 = EDGE_LOOP ( 'NONE', ( #520, #356, #184, #505 ) ) ;
#581 = DIRECTION ( 'NONE',  ( -1.000000000000000000, -1.092739197465705411E-16, 0.000000000000000000 ) ) ;
#582 = ORIENTED_EDGE ( 'NONE', *, *, #235, .F. ) ;
#583 = PLANE ( 'NONE',  #411 ) ;
#584 = CARTESIAN_POINT ( 'NONE',  ( -0.9650000000000004130, -1.250000000000000000, 0.05999999999999954675 ) ) ;
#585 = EDGE_CURVE ( 'NONE', #468, #307, #588, .T. ) ;
#586 = VECTOR ( 'NONE', #226, 39.37007874015748143 ) ;
#587 = ORIENTED_EDGE ( 'NONE', *, *, #416, .T. ) ;
#588 = LINE ( 'NONE', #327, #310 ) ;
#589 = EDGE_CURVE ( 'NONE', #194, #71, #528, .T. ) ;
#590 = ORIENTED_EDGE ( 'NONE', *, *, #710, .T. ) ;
#591 =( GEOMETRIC_REPRESENTATION_CONTEXT ( 3 ) GLOBAL_UNCERTAINTY_ASSIGNED_CONTEXT ( ( #491 ) ) GLOBAL_UNIT_ASSIGNED_CONTEXT ( ( #358, #817, #85 ) ) REPRESENTATION_CONTEXT ( 'NONE', 'WORKASPACE' ) );
#592 = CARTESIAN_POINT ( 'NONE',  ( 0.8449999999999998623, 0.2500000000000026090, 0.000000000000000000 ) ) ;
#593 = DIRECTION ( 'NONE',  ( 0.000000000000000000, 0.000000000000000000, 1.000000000000000000 ) ) ;
#594 = VECTOR ( 'NONE', #162, 39.37007874015748143 ) ;
#595 = ORIENTED_EDGE ( 'NONE', *, *, #572, .T. ) ;
#596 = CARTESIAN_POINT ( 'NONE',  ( 0.9650000000000031886, 1.249999999999999778, 1.000000000000000000 ) ) ;
#597 = ADVANCED_FACE ( 'NONE', ( #316 ), #805, .T. ) ;
#598 = FACE_OUTER_BOUND ( 'NONE', #384, .T. ) ;
#599 = EDGE_LOOP ( 'NONE', ( #285, #533, #265, #228 ) ) ;
#600 = DIRECTION ( 'NONE',  ( -0.000000000000000000, 0.000000000000000000, 1.000000000000000000 ) ) ;
#601 = ADVANCED_FACE ( 'NONE', ( #518 ), #404, .T. ) ;
#602 = FACE_OUTER_BOUND ( 'NONE', #761, .T. ) ;
#603 = FACE_OUTER_BOUND ( 'NONE', #2, .T. ) ;
#604 = PLANE ( 'NONE',  #189 ) ;
#605 = CARTESIAN_POINT ( 'NONE',  ( -0.9050000000000004707, 0.2500000000000024425, 0.05999999999999976880 ) ) ;
#606 = CIRCLE ( 'NONE', #158, 0.1250000000000000278 ) ;
#607 = DIRECTION ( 'NONE',  ( -3.551402391763541987E-15, 0.000000000000000000, 1.000000000000000000 ) ) ;
#608 = VERTEX_POINT ( 'NONE', #794 ) ;
#609 = CARTESIAN_POINT ( 'NONE',  ( 0.9650000000000000799, 9.889289737064596514E-17, 0.05999999999999969247 ) ) ;
#610 = CARTESIAN_POINT ( 'NONE',  ( -0.9650000000000005240, 0.2500000000000024425, 0.05999999999999954675 ) ) ;
#611 = EDGE_CURVE ( 'NONE', #746, #824, #606, .T. ) ;
#612 = CARTESIAN_POINT ( 'NONE',  ( 0.9649999999999996358, 1.249999999999999778, -2.094888803305880210E-16 ) ) ;
#613 = LINE ( 'NONE', #157, #752 ) ;
#614 = FACE_BOUND ( 'NONE', #616, .T. ) ;
#615 = VERTEX_POINT ( 'NONE', #320 ) ;
#616 = EDGE_LOOP ( 'NONE', ( #87, #567 ) ) ;
#617 = DIRECTION ( 'NONE',  ( 3.551402391763541987E-15, 0.000000000000000000, -1.000000000000000000 ) ) ;
#618 = FACE_OUTER_BOUND ( 'NONE', #708, .T. ) ;
#619 = AXIS2_PLACEMENT_3D ( 'NONE', #495, #428, #697 ) ;
#620 = DIRECTION ( 'NONE',  ( -1.000000000000000000, -1.092739197465705411E-16, 0.000000000000000000 ) ) ;
#621 = CARTESIAN_POINT ( 'NONE',  ( 0.9050000000000022471, 0.7500000000000025535, 0.6880000000000001670 ) ) ;
#622 = CARTESIAN_POINT ( 'NONE',  ( -0.8450000000000004174, -1.250000000000000000, 0.05999999999999998390 ) ) ;
#623 = ADVANCED_FACE ( 'NONE', ( #454 ), #466, .F. ) ;
#624 = CARTESIAN_POINT ( 'NONE',  ( -0.9050000000000005818, 1.249999999999999778, 0.05999999999999976880 ) ) ;
#625 = ORIENTED_EDGE ( 'NONE', *, *, #193, .T. ) ;
#626 = DIRECTION ( 'NONE',  ( -1.000000000000000000, -1.092739197465705287E-16, -3.491481338843133750E-15 ) ) ;
#627 = ADVANCED_FACE ( 'NONE', ( #387 ), #658, .F. ) ;
#628 = AXIS2_PLACEMENT_3D ( 'NONE', #92, #782, #306 ) ;
#629 = LINE ( 'NONE', #32, #360 ) ;
#630 = ORIENTED_EDGE ( 'NONE', *, *, #469, .F. ) ;
#631 = CARTESIAN_POINT ( 'NONE',  ( -1.934999999999997611, 0.7500000000000022204, 0.8130000000000102700 ) ) ;
#632 = CARTESIAN_POINT ( 'NONE',  ( 0.9050000000000001377, -1.250000000000000222, 0.05999999999999976880 ) ) ;
#633 = VECTOR ( 'NONE', #529, 39.37007874015748143 ) ;
#634 = CARTESIAN_POINT ( 'NONE',  ( 0.9050000000000031353, 1.249999999999999778, 1.000000000000000222 ) ) ;
#635 = EDGE_LOOP ( 'NONE', ( #582, #372, #516, #39 ) ) ;
#636 = PRODUCT_CONTEXT ( 'NONE', #177, 'mechanical' ) ;
#637 = CARTESIAN_POINT ( 'NONE',  ( -0.9650000000000016342, -1.559885204382312313E-16, 0.3700000000000063238 ) ) ;
#638 = VECTOR ( 'NONE', #444, 39.37007874015748143 ) ;
#639 = CARTESIAN_POINT ( 'NONE',  ( 0.9049999999999995826, 1.249999999999999778, -3.427103308051816694E-15 ) ) ;
#640 = EDGE_CURVE ( 'NONE', #812, #247, #457, .T. ) ;
#641 = VERTEX_POINT ( 'NONE', #259 ) ;
#642 = DIRECTION ( 'NONE',  ( 1.092739197465705411E-16, -1.000000000000000000, 4.379057701015054319E-47 ) ) ;
#643 = LINE ( 'NONE', #43, #296 ) ;
#644 = PLANE ( 'NONE',  #208 ) ;
#645 = EDGE_LOOP ( 'NONE', ( #747, #685, #117, #555 ) ) ;
#646 = LENGTH_MEASURE_WITH_UNIT ( LENGTH_MEASURE( 0.02539999999999999897 ), #234 );
#647 = ADVANCED_FACE ( 'NONE', ( #738 ), #865, .T. ) ;
#648 = LINE ( 'NONE', #637, #452 ) ;
#649 = VERTEX_POINT ( 'NONE', #398 ) ;
#650 = CYLINDRICAL_SURFACE ( 'NONE', #75, 0.1250000000000000278 ) ;
#651 = PLANE ( 'NONE',  #230 ) ;
#652 = EDGE_CURVE ( 'NONE', #422, #97, #59, .T. ) ;
#653 = ORIENTED_EDGE ( 'NONE', *, *, #353, .T. ) ;
#654 = CARTESIAN_POINT ( 'NONE',  ( -0.9050000000000023581, 0.7500000000000023315, 0.5630000000000064952 ) ) ;
#655 = EDGE_CURVE ( 'NONE', #53, #737, #262, .T. ) ;
#656 = CLOSED_SHELL ( 'NONE', ( #314, #623, #508, #537, #241, #170, #101, #597, #855, #647, #558, #627, #18, #221, #31, #201, #601, #225, #370, #253, #499, #682, #113, #442, #799, #263, #67, #377, #325, #828 ) ) ;
#657 = ORIENTED_EDGE ( 'NONE', *, *, #163, .T. ) ;
#658 = CYLINDRICAL_SURFACE ( 'NONE', #722, 0.06000000000000017819 ) ;
#659 = CARTESIAN_POINT ( 'NONE',  ( 0.9049999999999998046, 9.889289737064629794E-17, -3.427103308051817088E-15 ) ) ;
#660 = ORIENTED_EDGE ( 'NONE', *, *, #577, .F. ) ;
#661 = AXIS2_PLACEMENT_3D ( 'NONE', #844, #772, #458 ) ;
#662 = CARTESIAN_POINT ( 'NONE',  ( -0.9650000000000000799, -1.250000000000000222, -0.05999999999999999778 ) ) ;
#663 = CYLINDRICAL_SURFACE ( 'NONE', #489, 0.1250000000000000278 ) ;
#664 = VERTEX_POINT ( 'NONE', #199 ) ;
#665 = EDGE_CURVE ( 'NONE', #812, #78, #734, .T. ) ;
#666 = CARTESIAN_POINT ( 'NONE',  ( 0.8449999999999998623, 1.249999999999999334, 3.414809992080329023E-17 ) ) ;
#667 = LINE ( 'NONE', #204, #227 ) ;
#668 = DIRECTION ( 'NONE',  ( 3.551402391763541987E-15, 0.000000000000000000, 1.000000000000000000 ) ) ;
#669 = VECTOR ( 'NONE', #22, 39.37007874015748143 ) ;
#670 = CARTESIAN_POINT ( 'NONE',  ( 0.9050000000000026912, 0.7500000000000025535, 0.8130000000000001670 ) ) ;
#671 = DIRECTION ( 'NONE',  ( 1.000000000000000000, 0.000000000000000000, 0.000000000000000000 ) ) ;
#672 = VERTEX_POINT ( 'NONE', #670 ) ;
#673 = ORIENTED_EDGE ( 'NONE', *, *, #840, .F. ) ;
#674 = DIRECTION ( 'NONE',  ( 1.092739197465710095E-16, -1.000000000000000000, -1.365923996832139251E-16 ) ) ;
#675 = DIRECTION ( 'NONE',  ( -4.370956789862820361E-15, 0.000000000000000000, -1.000000000000000000 ) ) ;
#676 = VECTOR ( 'NONE', #150, 39.37007874015748143 ) ;
#677 = CARTESIAN_POINT ( 'NONE',  ( -0.9050000000000003597, 1.249999999999999778, -3.427103308051819061E-15 ) ) ;
#678 = VECTOR ( 'NONE', #642, 39.37007874015748143 ) ;
#679 = VERTEX_POINT ( 'NONE', #66 ) ;
#680 = LINE ( 'NONE', #344, #793 ) ;
#681 = DIRECTION ( 'NONE',  ( -1.000000000000000000, -1.092739197465705287E-16, 3.491481338843133750E-15 ) ) ;
#682 = ADVANCED_FACE ( 'NONE', ( #333 ), #604, .T. ) ;
#683 = EDGE_LOOP ( 'NONE', ( #243, #453, #841, #315 ) ) ;
#684 = LINE ( 'NONE', #10, #369 ) ;
#685 = ORIENTED_EDGE ( 'NONE', *, *, #727, .T. ) ;
#686 = LINE ( 'NONE', #286, #298 ) ;
#687 = LINE ( 'NONE', #91, #837 ) ;
#688 = VECTOR ( 'NONE', #843, 39.37007874015748143 ) ;
#689 = DIRECTION ( 'NONE',  ( 1.092739197465702699E-16, -1.000000000000000000, -7.941418586233363842E-17 ) ) ;
#690 = ORIENTED_EDGE ( 'NONE', *, *, #611, .F. ) ;
#691 = DIRECTION ( 'NONE',  ( 1.000000000000000000, 1.092739197465705287E-16, -3.551402391763541592E-15 ) ) ;
#692 = EDGE_CURVE ( 'NONE', #664, #575, #816, .T. ) ;
#693 = CYLINDRICAL_SURFACE ( 'NONE', #35, 0.1200000000000002176 ) ;
#694 = PLANE ( 'NONE',  #430 ) ;
#695 = ORIENTED_EDGE ( 'NONE', *, *, #76, .F. ) ;
#696 = LINE ( 'NONE', #631, #519 ) ;
#697 = DIRECTION ( 'NONE',  ( 0.000000000000000000, 0.000000000000000000, 1.000000000000000000 ) ) ;
#698 = AXIS2_PLACEMENT_3D ( 'NONE', #478, #482, #751 ) ;
#699 = EDGE_CURVE ( 'NONE', #397, #864, #680, .T. ) ;
#700 = LINE ( 'NONE', #102, #174 ) ;
#701 = APPLICATION_CONTEXT ( 'automotive_design' ) ;
#702 = ORIENTED_EDGE ( 'NONE', *, *, #531, .T. ) ;
#703 = CARTESIAN_POINT ( 'NONE',  ( 0.000000000000000000, 0.000000000000000000, 0.000000000000000000 ) ) ;
#704 = CARTESIAN_POINT ( 'NONE',  ( -0.9050000000000001377, -9.889289737064633492E-17, -3.427103308051818666E-15 ) ) ;
#705 = EDGE_CURVE ( 'NONE', #575, #608, #754, .T. ) ;
#706 = CIRCLE ( 'NONE', #661, 0.1200000000000002176 ) ;
#707 = CARTESIAN_POINT ( 'NONE',  ( 0.9650000000000031886, 1.249999999999999778, 1.000000000000000000 ) ) ;
#708 = EDGE_LOOP ( 'NONE', ( #339, #560, #172, #155 ) ) ;
#709 = FACE_OUTER_BOUND ( 'NONE', #311, .T. ) ;
#710 = EDGE_CURVE ( 'NONE', #608, #732, #826, .T. ) ;
#711 = LINE ( 'NONE', #639, #814 ) ;
#712 = ORIENTED_EDGE ( 'NONE', *, *, #545, .F. ) ;
#713 =( CONVERSION_BASED_UNIT ( 'INCH', #646 ) LENGTH_UNIT ( ) NAMED_UNIT ( #112 ) );
#714 = CARTESIAN_POINT ( 'NONE',  ( -1.935000000000000497, 0.2500000000000023315, -0.05999999999999008904 ) ) ;
#715 = CYLINDRICAL_SURFACE ( 'NONE', #89, 0.06000000000000017819 ) ;
#716 = VERTEX_POINT ( 'NONE', #835 ) ;
#717 = DIRECTION ( 'NONE',  ( -4.370956789862820361E-15, 0.000000000000000000, -1.000000000000000000 ) ) ;
#718 = EDGE_CURVE ( 'NONE', #93, #16, #762, .T. ) ;
#719 = DIRECTION ( 'NONE',  ( 3.551402391763541198E-15, 0.000000000000000000, -1.000000000000000000 ) ) ;
#720 = ADVANCED_BREP_SHAPE_REPRESENTATION ( '16-6082-01-(16gacr ANSI-61) - K48 - V0-R0', ( #368, #553 ), #510 ) ;
#721 = VERTEX_POINT ( 'NONE', #25 ) ;
#722 = AXIS2_PLACEMENT_3D ( 'NONE', #206, #134, #203 ) ;
#723 = CARTESIAN_POINT ( 'NONE',  ( -0.9650000000000028555, 0.7500000000000023315, 0.6880000000000068283 ) ) ;
#724 = EDGE_CURVE ( 'NONE', #78, #417, #357, .T. ) ;
#725 = EDGE_LOOP ( 'NONE', ( #766, #486, #42, #808 ) ) ;
#726 = DIRECTION ( 'NONE',  ( -4.370956789862820361E-15, 0.000000000000000000, -1.000000000000000000 ) ) ;
#727 = EDGE_CURVE ( 'NONE', #864, #468, #613, .T. ) ;
#728 = EDGE_LOOP ( 'NONE', ( #474, #122, #479, #124 ) ) ;
#729 = CARTESIAN_POINT ( 'NONE',  ( -1.935000000000000497, 0.2500000000000023315, -0.05999999999999008904 ) ) ;
#730 = DIRECTION ( 'NONE',  ( -1.092739197465702699E-16, 1.000000000000000000, 7.941418586233363842E-17 ) ) ;
#731 = EDGE_CURVE ( 'NONE', #716, #194, #767, .T. ) ;
#732 = VERTEX_POINT ( 'NONE', #414 ) ;
#733 = AXIS2_PLACEMENT_3D ( 'NONE', #659, #803, #116 ) ;
#734 = LINE ( 'NONE', #666, #566 ) ;
#735 = VECTOR ( 'NONE', #500, 39.37007874015748143 ) ;
#736 = DIRECTION ( 'NONE',  ( 3.551402391763541198E-15, -1.365923996832135307E-16, 1.000000000000000000 ) ) ;
#737 = VERTEX_POINT ( 'NONE', #88 ) ;
#738 = FACE_OUTER_BOUND ( 'NONE', #728, .T. ) ;
#739 = DIRECTION ( 'NONE',  ( -4.370956789862820361E-15, 0.000000000000000000, -1.000000000000000000 ) ) ;
#740 = ORIENTED_EDGE ( 'NONE', *, *, #756, .F. ) ;
#741 = CIRCLE ( 'NONE', #786, 0.1250000000000000278 ) ;
#742 = ORIENTED_EDGE ( 'NONE', *, *, #813, .T. ) ;
#743 = DIRECTION ( 'NONE',  ( 1.000000000000000000, 0.000000000000000000, 0.000000000000000000 ) ) ;
#744 = EDGE_CURVE ( 'NONE', #721, #114, #684, .T. ) ;
#745 = CARTESIAN_POINT ( 'NONE',  ( -0.8450000000000004174, -1.249999999999999778, 0.05999999999999998390 ) ) ;
#746 = VERTEX_POINT ( 'NONE', #544 ) ;
#747 = ORIENTED_EDGE ( 'NONE', *, *, #405, .F. ) ;
#748 = CARTESIAN_POINT ( 'NONE',  ( 0.9650000000000001910, -1.250000000000000222, 0.05999999999999949818 ) ) ;
#749 = VECTOR ( 'NONE', #95, 39.37007874015748143 ) ;
#750 = EDGE_CURVE ( 'NONE', #649, #71, #283, .T. ) ;
#751 = DIRECTION ( 'NONE',  ( -3.551402391763541198E-15, 0.000000000000000000, -1.000000000000000000 ) ) ;
#752 = VECTOR ( 'NONE', #626, 39.37007874015748143 ) ;
#753 = VERTEX_POINT ( 'NONE', #17 ) ;
#754 = LINE ( 'NONE', #609, #821 ) ;
#755 = CARTESIAN_POINT ( 'NONE',  ( -1.934999999999999165, 1.249999999999999556, 0.3700000000000099321 ) ) ;
#756 = EDGE_CURVE ( 'NONE', #53, #97, #94, .T. ) ;
#757 = CARTESIAN_POINT ( 'NONE',  ( 0.9050000000000011369, 1.249999999999999778, 0.3699999999999998290 ) ) ;
#758 = PLANE ( 'NONE',  #863 ) ;
#759 = DIRECTION ( 'NONE',  ( 1.000000000000000000, 0.000000000000000000, -3.551402391763541198E-15 ) ) ;
#760 = EDGE_CURVE ( 'NONE', #426, #548, #549, .T. ) ;
#761 = EDGE_LOOP ( 'NONE', ( #148, #332, #857, #712 ) ) ;
#762 = LINE ( 'NONE', #480, #36 ) ;
#763 = PRESENTATION_STYLE_ASSIGNMENT (( #476 ) ) ;
#764 = AXIS2_PLACEMENT_3D ( 'NONE', #596, #471, #330 ) ;
#765 = DIRECTION ( 'NONE',  ( 3.278217592397115073E-15, 0.000000000000000000, -1.000000000000000000 ) ) ;
#766 = ORIENTED_EDGE ( 'NONE', *, *, #718, .T. ) ;
#767 = LINE ( 'NONE', #427, #440 ) ;
#768 = LENGTH_MEASURE_WITH_UNIT ( LENGTH_MEASURE( 0.02539999999999999897 ), #154 );
#769 = DIRECTION ( 'NONE',  ( 1.000000000000000000, 1.092739197465705287E-16, -3.551402391763541592E-15 ) ) ;
#770 = ORIENTED_EDGE ( 'NONE', *, *, #277, .T. ) ;
#771 = DIRECTION ( 'NONE',  ( 3.278217592397115073E-15, 0.000000000000000000, -1.000000000000000000 ) ) ;
#772 = DIRECTION ( 'NONE',  ( -1.092739197465702699E-16, 1.000000000000000000, 7.941418586233363842E-17 ) ) ;
#773 = ORIENTED_EDGE ( 'NONE', *, *, #382, .T. ) ;
#774 = LINE ( 'NONE', #185, #678 ) ;
#775 = DIRECTION ( 'NONE',  ( 0.000000000000000000, 1.000000000000000000, 7.114187483500681151E-17 ) ) ;
#776 = PRODUCT_DEFINITION ( 'UNKNOWN', '', #854, #300 ) ;
#777 = AXIS2_PLACEMENT_3D ( 'NONE', #55, #7, #446 ) ;
#778 = DIRECTION ( 'NONE',  ( 1.000000000000000000, 0.000000000000000000, 0.000000000000000000 ) ) ;
#779 = AXIS2_PLACEMENT_3D ( 'NONE', #445, #251, #512 ) ;
#780 = EDGE_LOOP ( 'NONE', ( #380, #269, #15, #376, #673, #290 ) ) ;
#781 = DIRECTION ( 'NONE',  ( 1.000000000000000000, 1.092739197465705287E-16, 3.551402391763541592E-15 ) ) ;
#782 = DIRECTION ( 'NONE',  ( 1.000000000000000000, 1.092739197465705287E-16, 3.551402391763541198E-15 ) ) ;
#783 = EDGE_CURVE ( 'NONE', #468, #721, #61, .T. ) ;
#784 = ORIENTED_EDGE ( 'NONE', *, *, #342, .T. ) ;
#785 = DIRECTION ( 'NONE',  ( -0.000000000000000000, -1.000000000000000000, -7.114187483500681151E-17 ) ) ;
#786 = AXIS2_PLACEMENT_3D ( 'NONE', #176, #509, #765 ) ;
#787 = EDGE_CURVE ( 'NONE', #536, #397, #274, .T. ) ;
#788 = ORIENTED_EDGE ( 'NONE', *, *, #655, .F. ) ;
#789 = DIRECTION ( 'NONE',  ( 1.000000000000000000, 1.092739197465702699E-16, 0.000000000000000000 ) ) ;
#790 = DIRECTION ( 'NONE',  ( 3.551402391763541198E-15, 7.941418586233402052E-17, -1.000000000000000000 ) ) ;
#791 = AXIS2_PLACEMENT_3D ( 'NONE', #379, #800, #675 ) ;
#792 = ORIENTED_EDGE ( 'NONE', *, *, #193, .F. ) ;
#793 = VECTOR ( 'NONE', #617, 39.37007874015748143 ) ;
#794 = CARTESIAN_POINT ( 'NONE',  ( 0.9649999999999999689, 0.2500000000000026090, 0.05999999999999960226 ) ) ;
#795 = EDGE_CURVE ( 'NONE', #672, #641, #258, .T. ) ;
#796 = VECTOR ( 'NONE', #789, 39.37007874015748143 ) ;
#797 = ORIENTED_EDGE ( 'NONE', *, *, #823, .T. ) ;
#798 = CARTESIAN_POINT ( 'NONE',  ( 0.9650000000000021894, 0.7500000000000025535, 0.6880000000000000560 ) ) ;
#799 = ADVANCED_FACE ( 'NONE', ( #484 ), #758, .T. ) ;
#800 = DIRECTION ( 'NONE',  ( 1.000000000000000000, 1.092739197465705411E-16, -3.551402391763541592E-15 ) ) ;
#801 = ORIENTED_EDGE ( 'NONE', *, *, #850, .T. ) ;
#802 = DIRECTION ( 'NONE',  ( -3.551402391763541987E-15, 0.000000000000000000, -1.000000000000000000 ) ) ;
#803 = DIRECTION ( 'NONE',  ( 1.000000000000000000, 1.092739197465705287E-16, -3.551402391763541198E-15 ) ) ;
#804 = ORIENTED_EDGE ( 'NONE', *, *, #692, .T. ) ;
#805 = PLANE ( 'NONE',  #530 ) ;
#806 = VECTOR ( 'NONE', #674, 39.37007874015748143 ) ;
#807 = CARTESIAN_POINT ( 'NONE',  ( 0.9650000000000021894, 0.7500000000000025535, 0.6880000000000000560 ) ) ;
#808 = ORIENTED_EDGE ( 'NONE', *, *, #405, .T. ) ;
#809 = ORIENTED_EDGE ( 'NONE', *, *, #175, .F. ) ;
#810 = DIRECTION ( 'NONE',  ( 1.000000000000000000, 1.092739197465705411E-16, 0.000000000000000000 ) ) ;
#811 = DIRECTION ( 'NONE',  ( -0.000000000000000000, 1.000000000000000000, 0.000000000000000000 ) ) ;
#812 = VERTEX_POINT ( 'NONE', #561 ) ;
#813 = EDGE_CURVE ( 'NONE', #536, #468, #686, .T. ) ;
#814 = VECTOR ( 'NONE', #304, 39.37007874015748143 ) ;
#815 = ORIENTED_EDGE ( 'NONE', *, *, #750, .T. ) ;
#816 = LINE ( 'NONE', #748, #676 ) ;
#817 =( NAMED_UNIT ( * ) PLANE_ANGLE_UNIT ( ) SI_UNIT ( $, .RADIAN. ) );
#818 = FACE_BOUND ( 'NONE', #282, .T. ) ;
#819 = CARTESIAN_POINT ( 'NONE',  ( -0.9650000000000036326, -1.249999999999999778, 1.000000000000000000 ) ) ;
#820 = AXIS2_PLACEMENT_3D ( 'NONE', #622, #164, #412 ) ;
#821 = VECTOR ( 'NONE', #831, 39.37007874015748143 ) ;
#822 = SURFACE_SIDE_STYLE ('',( #14 ) ) ;
#823 = EDGE_CURVE ( 'NONE', #48, #732, #229, .T. ) ;
#824 = VERTEX_POINT ( 'NONE', #224 ) ;
#825 = AXIS2_PLACEMENT_3D ( 'NONE', #621, #691, #220 ) ;
#826 = LINE ( 'NONE', #419, #408 ) ;
#827 = FILL_AREA_STYLE ('',( #211 ) ) ;
#828 = ADVANCED_FACE ( 'NONE', ( #709 ), #650, .F. ) ;
#829 = ORIENTED_EDGE ( 'NONE', *, *, #750, .F. ) ;
#830 = ORIENTED_EDGE ( 'NONE', *, *, #705, .F. ) ;
#831 = DIRECTION ( 'NONE',  ( -1.092739197465701590E-16, 1.000000000000000000, 1.092739197465705411E-16 ) ) ;
#832 = CARTESIAN_POINT ( 'NONE',  ( -0.9650000000000004130, 1.249999999999999778, -2.094888803305880210E-16 ) ) ;
#833 = CARTESIAN_POINT ( 'NONE',  ( -0.8450000000000008615, 0.2500000000000022760, -0.05999999999999397482 ) ) ;
#834 = EDGE_LOOP ( 'NONE', ( #630, #804, #346, #587 ) ) ;
#835 = CARTESIAN_POINT ( 'NONE',  ( -0.9650000000000016342, 1.249999999999999556, 0.3700000000000064904 ) ) ;
#836 = CARTESIAN_POINT ( 'NONE',  ( -0.9650000000000024114, 0.7500000000000023315, 0.5630000000000068283 ) ) ;
#837 = VECTOR ( 'NONE', #292, 39.37007874015748143 ) ;
#838 = VECTOR ( 'NONE', #395, 39.37007874015748143 ) ;
#839 = PLANE ( 'NONE',  #628 ) ;
#840 = EDGE_CURVE ( 'NONE', #389, #536, #774, .T. ) ;
#841 = ORIENTED_EDGE ( 'NONE', *, *, #388, .F. ) ;
#842 = LINE ( 'NONE', #308, #796 ) ;
#843 = DIRECTION ( 'NONE',  ( 0.000000000000000000, -1.000000000000000000, -1.365923996832135307E-16 ) ) ;
#844 = CARTESIAN_POINT ( 'NONE',  ( -0.8450000000000004174, 0.2500000000000022760, 0.05999999999999998390 ) ) ;
#845 = EDGE_LOOP ( 'NONE', ( #792, #859, #788, #852, #459, #233 ) ) ;
#846 = EDGE_CURVE ( 'NONE', #16, #812, #842, .T. ) ;
#847 = LINE ( 'NONE', #182, #350 ) ;
#848 = DIRECTION ( 'NONE',  ( 1.092739197465700480E-16, -1.000000000000000000, -1.365923996832139251E-16 ) ) ;
#849 = ORIENTED_EDGE ( 'NONE', *, *, #572, .F. ) ;
#850 = EDGE_CURVE ( 'NONE', #114, #16, #239, .T. ) ;
#851 = FACE_OUTER_BOUND ( 'NONE', #28, .T. ) ;
#852 = ORIENTED_EDGE ( 'NONE', *, *, #399, .F. ) ;
#853 = CARTESIAN_POINT ( 'NONE',  ( -0.9650000000000028555, 0.7500000000000023315, 0.6880000000000068283 ) ) ;
#854 = PRODUCT_DEFINITION_FORMATION_WITH_SPECIFIED_SOURCE ( 'ANY', '', #418, .NOT_KNOWN. ) ;
#855 = ADVANCED_FACE ( 'NONE', ( #373 ), #583, .T. ) ;
#856 = ORIENTED_EDGE ( 'NONE', *, *, #846, .T. ) ;
#857 = ORIENTED_EDGE ( 'NONE', *, *, #301, .T. ) ;
#858 = DIRECTION ( 'NONE',  ( -1.092739197465705411E-16, 1.000000000000000000, -4.379057701015054319E-47 ) ) ;
#859 = ORIENTED_EDGE ( 'NONE', *, *, #563, .F. ) ;
#860 = EDGE_CURVE ( 'NONE', #753, #329, #696, .T. ) ;
#861 = DIRECTION ( 'NONE',  ( -4.553079989440443036E-15, -1.707404996040166336E-15, -1.000000000000000000 ) ) ;
#862 = FACE_OUTER_BOUND ( 'NONE', #834, .T. ) ;
#863 = AXIS2_PLACEMENT_3D ( 'NONE', #291, #153, #210 ) ;
#864 = VERTEX_POINT ( 'NONE', #250 ) ;
#865 = PLANE ( 'NONE',  #337 ) ;
ENDSEC;
END-ISO-10303-21;
