ISO-10303-21;
HEADER;
FILE_DESCRIPTION (( 'STEP AP214' ),
    '1' );
FILE_NAME ('12-D-6080-07-(16gacr ANSI-61) - K48 - V4-R0.STEP',
    '2026-08-04T15:24:23',
    ( '' ),
    ( '' ),
    'SwSTEP 2.0',
    'SolidWorks 2024',
    '' );
FILE_SCHEMA (( 'AUTOMOTIVE_DESIGN' ));
ENDSEC;

DATA;
#1 = DIRECTION ( 'NONE',  ( -3.491481338843134539E-15, 0.000000000000000000, 1.000000000000000000 ) ) ;
#2 = DIRECTION ( 'NONE',  ( 1.000000000000000000, 0.000000000000000000, 0.000000000000000000 ) ) ;
#3 =( CONVERSION_BASED_UNIT ( 'INCH', #89 ) LENGTH_UNIT ( ) NAMED_UNIT ( #1345 ) );
#5 = EDGE_CURVE ( 'NONE', #558, #224, #477, .T. ) ;
#4 = LINE ( 'NONE', #342, #1264 ) ;
#6 = ORIENTED_EDGE ( 'NONE', *, *, #1168, .F. ) ;
#7 = ORIENTED_EDGE ( 'NONE', *, *, #462, .T. ) ;
#8 = VECTOR ( 'NONE', #827, 39.37007874015748143 ) ;
#9 = AXIS2_PLACEMENT_3D ( 'NONE', #1102, #621, #77 ) ;
#10 = CARTESIAN_POINT ( 'NONE',  ( -21.40499999999999403, -2.220000000000000195, -0.7500000000000003331 ) ) ;
#11 = VECTOR ( 'NONE', #946, 39.37007874015748143 ) ;
#12 = AXIS2_PLACEMENT_3D ( 'NONE', #1326, #367, #1005 ) ;
#13 = CARTESIAN_POINT ( 'NONE',  ( -21.27499999999994884, -3.719684228173251001E-13, -0.05999999999999999778 ) ) ;
#14 = ORIENTED_EDGE ( 'NONE', *, *, #85, .T. ) ;
#15 = EDGE_CURVE ( 'NONE', #957, #609, #150, .T. ) ;
#16 = EDGE_LOOP ( 'NONE', ( #95, #109, #1059, #295 ) ) ;
#17 = CARTESIAN_POINT ( 'NONE',  ( 21.27500000000000568, 2.470000000000000195, -0.7500000000000003331 ) ) ;
#18 = DIRECTION ( 'NONE',  ( 1.000000000000000000, -8.084789573599514167E-32, -2.552532579924562983E-17 ) ) ;
#19 = ORIENTED_EDGE ( 'NONE', *, *, #777, .F. ) ;
#20 = VERTEX_POINT ( 'NONE', #572 ) ;
#21 = EDGE_CURVE ( 'NONE', #1297, #156, #1033, .T. ) ;
#22 = DIRECTION ( 'NONE',  ( -1.000000000000000000, 2.101421533587877702E-15, 0.000000000000000000 ) ) ;
#23 = CARTESIAN_POINT ( 'NONE',  ( -21.27499999999999147, -2.470000000000000195, -0.7500000000000003331 ) ) ;
#24 = CARTESIAN_POINT ( 'NONE',  ( -21.40499999999999403, 2.219999999999999751, -0.7500000000000003331 ) ) ;
#25 = ORIENTED_EDGE ( 'NONE', *, *, #983, .F. ) ;
#26 = ORIENTED_EDGE ( 'NONE', *, *, #289, .T. ) ;
#27 = EDGE_CURVE ( 'NONE', #229, #1322, #998, .T. ) ;
#28 = CARTESIAN_POINT ( 'NONE',  ( -21.27499999999999147, 0.000000000000000000, -0.05999999999999999778 ) ) ;
#29 = CIRCLE ( 'NONE', #1351, 0.06799999999999964406 ) ;
#30 = FACE_OUTER_BOUND ( 'NONE', #16, .T. ) ;
#31 = VECTOR ( 'NONE', #517, 39.37007874015748143 ) ;
#32 = AXIS2_PLACEMENT_3D ( 'NONE', #1195, #667, #463 ) ;
#33 = VERTEX_POINT ( 'NONE', #51 ) ;
#34 = ORIENTED_EDGE ( 'NONE', *, *, #1184, .F. ) ;
#35 = CARTESIAN_POINT ( 'NONE',  ( 21.27500000000000568, -2.410000000000000586, -0.1279999999999981986 ) ) ;
#36 = FACE_OUTER_BOUND ( 'NONE', #840, .T. ) ;
#37 = CARTESIAN_POINT ( 'NONE',  ( -20.90899999999999537, 0.000000000000000000, 0.000000000000000000 ) ) ;
#38 = EDGE_CURVE ( 'NONE', #1085, #206, #346, .T. ) ;
#39 = CARTESIAN_POINT ( 'NONE',  ( -21.40499999999999403, 2.219999999999999751, 0.000000000000000000 ) ) ;
#40 = ORIENTED_EDGE ( 'NONE', *, *, #952, .T. ) ;
#41 = CARTESIAN_POINT ( 'NONE',  ( 21.27500000000000568, -2.470000000000000639, -0.1279999999999980598 ) ) ;
#42 = DIRECTION ( 'NONE',  ( -0.000000000000000000, 1.000000000000000000, 0.000000000000000000 ) ) ;
#43 = CARTESIAN_POINT ( 'NONE',  ( 21.27700000000000458, -2.402928932188135303, -0.1280000000000008076 ) ) ;
#44 = DIMENSIONAL_EXPONENTS ( 1.000000000000000000, 0.000000000000000000, 0.000000000000000000, 0.000000000000000000, 0.000000000000000000, 0.000000000000000000, 0.000000000000000000 ) ;
#45 = EDGE_CURVE ( 'NONE', #640, #934, #1003, .T. ) ;
#46 = CARTESIAN_POINT ( 'NONE',  ( -21.40499999999999403, 2.219999999999999751, -0.7500000000000003331 ) ) ;
#47 = ORIENTED_EDGE ( 'NONE', *, *, #913, .F. ) ;
#48 = LINE ( 'NONE', #1093, #969 ) ;
#49 = CARTESIAN_POINT ( 'NONE',  ( -21.27499999999999147, -2.342000000000000970, -0.1279999999999989757 ) ) ;
#50 = VECTOR ( 'NONE', #18, 39.37007874015748143 ) ;
#51 = CARTESIAN_POINT ( 'NONE',  ( 21.40500000000000469, -2.219999999999999307, -0.1279999999999999749 ) ) ;
#52 = PRODUCT_RELATED_PRODUCT_CATEGORY ( 'part', '', ( #999 ) ) ;
#53 = VECTOR ( 'NONE', #217, 39.37007874015748143 ) ;
#54 = ORIENTED_EDGE ( 'NONE', *, *, #797, .T. ) ;
#55 = EDGE_CURVE ( 'NONE', #79, #521, #1339, .T. ) ;
#56 = SURFACE_SIDE_STYLE ('',( #1012 ) ) ;
#57 = CARTESIAN_POINT ( 'NONE',  ( -20.90899999999999537, 0.000000000000000000, -0.05999999999999999778 ) ) ;
#58 = FACE_OUTER_BOUND ( 'NONE', #449, .T. ) ;
#59 = ORIENTED_EDGE ( 'NONE', *, *, #1082, .F. ) ;
#60 = ORIENTED_EDGE ( 'NONE', *, *, #590, .T. ) ;
#61 = ADVANCED_FACE ( 'NONE', ( #800 ), #464, .F. ) ;
#62 = CARTESIAN_POINT ( 'NONE',  ( -21.40499999999999403, -2.220000000000000195, -0.1279999999999999749 ) ) ;
#63 = DIRECTION ( 'NONE',  ( -2.101421533587877702E-15, -1.000000000000000000, -0.000000000000000000 ) ) ;
#64 = DIRECTION ( 'NONE',  ( -1.748382715945116469E-14, -1.000000000000000000, 0.000000000000000000 ) ) ;
#65 = CARTESIAN_POINT ( 'NONE',  ( 21.27500000000000568, -2.470000000000002416, -0.7500000000000001110 ) ) ;
#66 = ORIENTED_EDGE ( 'NONE', *, *, #622, .T. ) ;
#67 = DIRECTION ( 'NONE',  ( 1.000000000000000000, 4.202843067175613408E-15, 0.000000000000000000 ) ) ;
#68 = LINE ( 'NONE', #1144, #214 ) ;
#69 = LINE ( 'NONE', #910, #1263 ) ;
#70 = CARTESIAN_POINT ( 'NONE',  ( 0.000000000000000000, 2.470000000000002416, -0.7500000000000001110 ) ) ;
#71 = AXIS2_PLACEMENT_3D ( 'NONE', #1040, #388, #814 ) ;
#72 = VERTEX_POINT ( 'NONE', #469 ) ;
#73 = AXIS2_PLACEMENT_3D ( 'NONE', #591, #1023, #915 ) ;
#74 = AXIS2_PLACEMENT_3D ( 'NONE', #1129, #159, #560 ) ;
#75 = DIRECTION ( 'NONE',  ( 0.000000000000000000, -0.000000000000000000, 1.000000000000000000 ) ) ;
#76 = DIRECTION ( 'NONE',  ( -0.000000000000000000, -1.000000000000000000, -0.000000000000000000 ) ) ;
#78 = EDGE_CURVE ( 'NONE', #165, #1297, #893, .T. ) ;
#77 = DIRECTION ( 'NONE',  ( -1.748382715945116469E-14, -1.000000000000000000, 0.000000000000000000 ) ) ;
#79 = VERTEX_POINT ( 'NONE', #273 ) ;
#80 = LINE ( 'NONE', #712, #1310 ) ;
#81 = ORIENTED_EDGE ( 'NONE', *, *, #661, .T. ) ;
#82 = CARTESIAN_POINT ( 'NONE',  ( 21.27700000000000458, -2.219999999999998863, -0.1280000000000008076 ) ) ;
#83 = LINE ( 'NONE', #1338, #117 ) ;
#84 = DIRECTION ( 'NONE',  ( -1.000000000000000000, 0.000000000000000000, 0.000000000000000000 ) ) ;
#85 = EDGE_CURVE ( 'NONE', #1317, #1242, #1330, .T. ) ;
#86 = VERTEX_POINT ( 'NONE', #1019 ) ;
#87 = EDGE_LOOP ( 'NONE', ( #313, #1256, #298, #433 ) ) ;
#88 = CYLINDRICAL_SURFACE ( 'NONE', #73, 0.1560000000000012765 ) ;
#89 = LENGTH_MEASURE_WITH_UNIT ( LENGTH_MEASURE( 0.02539999999999999897 ), #620 );
#90 = FACE_OUTER_BOUND ( 'NONE', #344, .T. ) ;
#91 = ORIENTED_EDGE ( 'NONE', *, *, #1194, .T. ) ;
#92 = PLANE ( 'NONE',  #948 ) ;
#93 = VECTOR ( 'NONE', #1047, 39.37007874015748143 ) ;
#94 = VECTOR ( 'NONE', #533, 39.37007874015748143 ) ;
#95 = ORIENTED_EDGE ( 'NONE', *, *, #253, .F. ) ;
#96 = VECTOR ( 'NONE', #1189, 39.37007874015748143 ) ;
#97 = ADVANCED_FACE ( 'NONE', ( #358 ), #675, .F. ) ;
#98 = CIRCLE ( 'NONE', #972, 0.06799999999999965794 ) ;
#99 = CARTESIAN_POINT ( 'NONE',  ( 21.27500000000000568, -2.470000000000000639, -0.7500000000000003331 ) ) ;
#100 = CARTESIAN_POINT ( 'NONE',  ( -20.90899999999999537, 0.000000000000000000, -0.05999999999999999778 ) ) ;
#101 = CARTESIAN_POINT ( 'NONE',  ( -21.40499999999999403, 2.219999999999999751, -0.7500000000000003331 ) ) ;
#102 = ORIENTED_EDGE ( 'NONE', *, *, #278, .F. ) ;
#103 = LINE ( 'NONE', #1072, #1084 ) ;
#104 = EDGE_LOOP ( 'NONE', ( #115, #1383, #1266, #1025 ) ) ;
#105 = EDGE_CURVE ( 'NONE', #1182, #229, #843, .T. ) ;
#106 = PLANE ( 'NONE',  #541 ) ;
#107 = CYLINDRICAL_SURFACE ( 'NONE', #563, 0.1560000000000012765 ) ;
#108 = CARTESIAN_POINT ( 'NONE',  ( 21.34500000000000597, 2.470000000000000639, -0.1280000000000003912 ) ) ;
#109 = ORIENTED_EDGE ( 'NONE', *, *, #1190, .F. ) ;
#110 = CARTESIAN_POINT ( 'NONE',  ( 0.000000000000000000, -2.470000000000000195, 8.032868062186504175E-15 ) ) ;
#111 = ORIENTED_EDGE ( 'NONE', *, *, #297, .F. ) ;
#112 = CARTESIAN_POINT ( 'NONE',  ( 21.27500000000000568, -2.470000000000000639, -0.7500000000000003331 ) ) ;
#113 = EDGE_CURVE ( 'NONE', #859, #151, #1358, .T. ) ;
#114 = DIRECTION ( 'NONE',  ( 0.000000000000000000, -1.000000000000000000, 0.000000000000000000 ) ) ;
#115 = ORIENTED_EDGE ( 'NONE', *, *, #804, .T. ) ;
#116 = VERTEX_POINT ( 'NONE', #208 ) ;
#117 = VECTOR ( 'NONE', #813, 39.37007874015748143 ) ;
#118 = VECTOR ( 'NONE', #423, 39.37007874015748143 ) ;
#119 = AXIS2_PLACEMENT_3D ( 'NONE', #790, #689, #575 ) ;
#120 = DIRECTION ( 'NONE',  ( 0.000000000000000000, 0.000000000000000000, 1.000000000000000000 ) ) ;
#121 = CIRCLE ( 'NONE', #657, 0.1560000000000012765 ) ;
#122 = AXIS2_PLACEMENT_3D ( 'NONE', #1024, #1248, #301 ) ;
#123 = CARTESIAN_POINT ( 'NONE',  ( 21.40500000000000469, -2.219999999999999307, -0.7500000000000003331 ) ) ;
#124 = EDGE_CURVE ( 'NONE', #823, #151, #409, .T. ) ;
#125 = ORIENTED_EDGE ( 'NONE', *, *, #462, .F. ) ;
#126 = VERTEX_POINT ( 'NONE', #614 ) ;
#127 = CARTESIAN_POINT ( 'NONE',  ( 21.27500000000000213, 2.219999999999998419, -0.7500000000000003331 ) ) ;
#128 = FACE_OUTER_BOUND ( 'NONE', #1196, .T. ) ;
#129 = LINE ( 'NONE', #1095, #811 ) ;
#130 = EDGE_LOOP ( 'NONE', ( #19, #733, #132, #40 ) ) ;
#131 = ADVANCED_FACE ( 'NONE', ( #1255, #1139, #90 ), #179, .F. ) ;
#132 = ORIENTED_EDGE ( 'NONE', *, *, #38, .F. ) ;
#133 = DIRECTION ( 'NONE',  ( 1.000000000000000000, 4.017423520094411531E-15, 0.000000000000000000 ) ) ;
#134 = LINE ( 'NONE', #468, #746 ) ;
#135 = ORIENTED_EDGE ( 'NONE', *, *, #539, .T. ) ;
#136 = ORIENTED_EDGE ( 'NONE', *, *, #926, .T. ) ;
#137 = CARTESIAN_POINT ( 'NONE',  ( -21.27699999999999392, 2.220000000000000195, -0.1280000000000008076 ) ) ;
#138 = AXIS2_PLACEMENT_3D ( 'NONE', #682, #909, #355 ) ;
#139 = FACE_OUTER_BOUND ( 'NONE', #670, .T. ) ;
#140 = CIRCLE ( 'NONE', #410, 0.1560000000000012765 ) ;
#141 = CIRCLE ( 'NONE', #923, 0.1560000000000012765 ) ;
#142 = LINE ( 'NONE', #997, #330 ) ;
#143 = CARTESIAN_POINT ( 'NONE',  ( -21.40499999999999403, -2.469999999999999751, -0.1280000000000000027 ) ) ;
#144 = ORIENTED_EDGE ( 'NONE', *, *, #1075, .F. ) ;
#145 = DIRECTION ( 'NONE',  ( 1.000000000000000000, 1.748382715945128144E-14, 0.000000000000000000 ) ) ;
#146 = CARTESIAN_POINT ( 'NONE',  ( 21.27700000000000458, 2.219999999999998863, -0.05999999999999924144 ) ) ;
#147 = ADVANCED_FACE ( 'NONE', ( #1031 ), #394, .F. ) ;
#148 = PLANE ( 'NONE',  #787 ) ;
#149 = DIRECTION ( 'NONE',  ( 0.000000000000000000, 1.000000000000000000, 0.000000000000000000 ) ) ;
#150 = LINE ( 'NONE', #65, #988 ) ;
#151 = VERTEX_POINT ( 'NONE', #938 ) ;
#152 = CARTESIAN_POINT ( 'NONE',  ( 21.27500000000000568, 2.410000000000000586, -0.1279999999999992810 ) ) ;
#154 = ADVANCED_FACE ( 'NONE', ( #1048 ), #837, .F. ) ;
#153 = DIRECTION ( 'NONE',  ( -1.000000000000000000, 4.017423520094411531E-15, 0.000000000000000000 ) ) ;
#155 = DIRECTION ( 'NONE',  ( 0.000000000000000000, 0.000000000000000000, 1.000000000000000000 ) ) ;
#157 = EDGE_CURVE ( 'NONE', #1000, #558, #603, .T. ) ;
#156 = VERTEX_POINT ( 'NONE', #418 ) ;
#158 = VERTEX_POINT ( 'NONE', #1161 ) ;
#159 = DIRECTION ( 'NONE',  ( -0.000000000000000000, -1.000000000000000000, -0.000000000000000000 ) ) ;
#160 = DIRECTION ( 'NONE',  ( -0.000000000000000000, -0.000000000000000000, 1.000000000000000000 ) ) ;
#161 = CARTESIAN_POINT ( 'NONE',  ( -21.27499999999999147, 2.470000000000000195, 0.000000000000000000 ) ) ;
#162 = AXIS2_PLACEMENT_3D ( 'NONE', #849, #1282, #324 ) ;
#163 = LINE ( 'NONE', #1138, #965 ) ;
#164 = VECTOR ( 'NONE', #694, 39.37007874015748143 ) ;
#165 = VERTEX_POINT ( 'NONE', #629 ) ;
#166 = VECTOR ( 'NONE', #941, 39.37007874015748143 ) ;
#167 = ADVANCED_FACE ( 'NONE', ( #1272 ), #294, .F. ) ;
#168 = ORIENTED_EDGE ( 'NONE', *, *, #124, .T. ) ;
#169 = LINE ( 'NONE', #365, #370 ) ;
#170 = LINE ( 'NONE', #493, #1268 ) ;
#171 = FACE_OUTER_BOUND ( 'NONE', #1233, .T. ) ;
#172 = CARTESIAN_POINT ( 'NONE',  ( -21.33792893218812736, -2.342000000000000970, -0.1279999999999989757 ) ) ;
#173 = ORIENTED_EDGE ( 'NONE', *, *, #487, .F. ) ;
#174 = ORIENTED_EDGE ( 'NONE', *, *, #356, .T. ) ;
#175 = EDGE_CURVE ( 'NONE', #823, #516, #1063, .T. ) ;
#176 = DIRECTION ( 'NONE',  ( 0.000000000000000000, 1.000000000000000000, 0.000000000000000000 ) ) ;
#177 = DIRECTION ( 'NONE',  ( 0.000000000000000000, 3.167359992654216647E-15, -1.000000000000000000 ) ) ;
#178 = CARTESIAN_POINT ( 'NONE',  ( -21.27499999999999147, -2.470000000000000195, 0.000000000000000000 ) ) ;
#179 = PLANE ( 'NONE',  #303 ) ;
#180 = ORIENTED_EDGE ( 'NONE', *, *, #622, .F. ) ;
#181 = PLANE ( 'NONE',  #877 ) ;
#182 = ADVANCED_FACE ( 'NONE', ( #498 ), #738, .F. ) ;
#183 = CARTESIAN_POINT ( 'NONE',  ( 21.34500000000001307, 2.470000000000000639, -0.7500000000000003331 ) ) ;
#184 = DIRECTION ( 'NONE',  ( -1.000000000000000000, 8.084789573599514167E-32, 2.552532579924562983E-17 ) ) ;
#185 = LINE ( 'NONE', #1039, #1240 ) ;
#186 = DIRECTION ( 'NONE',  ( 0.000000000000000000, 0.000000000000000000, 1.000000000000000000 ) ) ;
#187 = VECTOR ( 'NONE', #608, 39.37007874015748143 ) ;
#188 = VECTOR ( 'NONE', #953, 39.37007874015748143 ) ;
#189 = ORIENTED_EDGE ( 'NONE', *, *, #1298, .F. ) ;
#190 = VECTOR ( 'NONE', #773, 39.37007874015748143 ) ;
#191 = EDGE_LOOP ( 'NONE', ( #1332, #174, #663, #373 ) ) ;
#192 = CARTESIAN_POINT ( 'NONE',  ( -21.40499999999999403, -2.220000000000000195, -0.7500000000000003331 ) ) ;
#193 = EDGE_CURVE ( 'NONE', #558, #1000, #1148, .T. ) ;
#194 = CARTESIAN_POINT ( 'NONE',  ( 21.27500000000000568, 0.000000000000000000, -0.05999999999999999778 ) ) ;
#195 = FACE_OUTER_BOUND ( 'NONE', #247, .T. ) ;
#196 = DIRECTION ( 'NONE',  ( 0.000000000000000000, 0.000000000000000000, 1.000000000000000000 ) ) ;
#197 = ORIENTED_EDGE ( 'NONE', *, *, #907, .F. ) ;
#198 = LINE ( 'NONE', #528, #476 ) ;
#199 = CARTESIAN_POINT ( 'NONE',  ( -21.40499999999999403, 2.410000000000000586, -0.1279999999999992810 ) ) ;
#200 = ORIENTED_EDGE ( 'NONE', *, *, #1300, .T. ) ;
#201 = CARTESIAN_POINT ( 'NONE',  ( 21.27500000000000568, -2.470000000000002416, -0.7500000000000001110 ) ) ;
#202 = EDGE_CURVE ( 'NONE', #889, #1086, #1249, .T. ) ;
#203 = DIRECTION ( 'NONE',  ( -1.000000000000000000, 0.000000000000000000, -0.000000000000000000 ) ) ;
#204 = EDGE_CURVE ( 'NONE', #411, #684, #472, .T. ) ;
#205 = ORIENTED_EDGE ( 'NONE', *, *, #157, .T. ) ;
#206 = VERTEX_POINT ( 'NONE', #302 ) ;
#207 = CARTESIAN_POINT ( 'NONE',  ( 21.40500000000001180, 2.470000000000000639, -0.7500000000000001110 ) ) ;
#208 = CARTESIAN_POINT ( 'NONE',  ( -21.27499999999999147, -2.410000000000000586, -0.1279999999999981986 ) ) ;
#209 = ORIENTED_EDGE ( 'NONE', *, *, #777, .T. ) ;
#210 = EDGE_CURVE ( 'NONE', #353, #546, #925, .T. ) ;
#211 = AXIS2_PLACEMENT_3D ( 'NONE', #172, #916, #924 ) ;
#212 = VECTOR ( 'NONE', #1081, 39.37007874015748143 ) ;
#213 = ORIENTED_EDGE ( 'NONE', *, *, #246, .T. ) ;
#214 = VECTOR ( 'NONE', #184, 39.37007874015748143 ) ;
#215 = AXIS2_PLACEMENT_3D ( 'NONE', #928, #508, #1043 ) ;
#216 = DIRECTION ( 'NONE',  ( 0.000000000000000000, -0.000000000000000000, 1.000000000000000000 ) ) ;
#217 = DIRECTION ( 'NONE',  ( 0.000000000000000000, 0.000000000000000000, -1.000000000000000000 ) ) ;
#218 = PLANE ( 'NONE',  #966 ) ;
#219 = ORIENTED_EDGE ( 'NONE', *, *, #1323, .T. ) ;
#220 = ADVANCED_FACE ( 'NONE', ( #512, #666, #545 ), #218, .T. ) ;
#221 = CARTESIAN_POINT ( 'NONE',  ( 0.000000000000000000, 2.219999999999998419, -0.05999999999999999778 ) ) ;
#222 =( NAMED_UNIT ( * ) SI_UNIT ( $, .STERADIAN. ) SOLID_ANGLE_UNIT ( ) );
#223 = DIRECTION ( 'NONE',  ( -1.000000000000000000, 2.101421533587877702E-15, 0.000000000000000000 ) ) ;
#224 = VERTEX_POINT ( 'NONE', #1069 ) ;
#225 = ORIENTED_EDGE ( 'NONE', *, *, #124, .F. ) ;
#226 = DIRECTION ( 'NONE',  ( -1.000000000000000000, 1.748382715945116469E-14, 0.000000000000000000 ) ) ;
#227 = EDGE_CURVE ( 'NONE', #973, #1163, #1175, .T. ) ;
#228 = FACE_OUTER_BOUND ( 'NONE', #1147, .T. ) ;
#229 = VERTEX_POINT ( 'NONE', #1296 ) ;
#230 = ORIENTED_EDGE ( 'NONE', *, *, #661, .F. ) ;
#231 = AXIS2_PLACEMENT_3D ( 'NONE', #101, #716, #1146 ) ;
#232 = VECTOR ( 'NONE', #1347, 39.37007874015748143 ) ;
#233 = DIRECTION ( 'NONE',  ( -1.000000000000000000, 0.000000000000000000, 0.000000000000000000 ) ) ;
#234 = AXIS2_PLACEMENT_3D ( 'NONE', #1349, #725, #1254 ) ;
#236 = EDGE_CURVE ( 'NONE', #86, #934, #699, .T. ) ;
#235 = FACE_OUTER_BOUND ( 'NONE', #500, .T. ) ;
#237 = DIRECTION ( 'NONE',  ( 0.000000000000000000, 4.553079989440496679E-15, -1.000000000000000000 ) ) ;
#238 = ORIENTED_EDGE ( 'NONE', *, *, #711, .T. ) ;
#239 = ORIENTED_EDGE ( 'NONE', *, *, #942, .F. ) ;
#240 = DIRECTION ( 'NONE',  ( 0.000000000000000000, 1.000000000000000000, 0.000000000000000000 ) ) ;
#241 = PLANE ( 'NONE',  #1152 ) ;
#242 = DIRECTION ( 'NONE',  ( 3.491481338843134539E-15, -0.000000000000000000, 1.000000000000000000 ) ) ;
#243 = EDGE_CURVE ( 'NONE', #1297, #305, #1186, .T. ) ;
#244 = CARTESIAN_POINT ( 'NONE',  ( -21.27699999999999392, 2.220000000000000195, -0.05999999999999924144 ) ) ;
#245 = ORIENTED_EDGE ( 'NONE', *, *, #1323, .F. ) ;
#246 = EDGE_CURVE ( 'NONE', #684, #126, #4, .T. ) ;
#247 = EDGE_LOOP ( 'NONE', ( #767, #982, #1096, #420 ) ) ;
#248 = CARTESIAN_POINT ( 'NONE',  ( 21.27700000000000458, 2.219999999999998863, -0.1280000000000008076 ) ) ;
#249 = DIRECTION ( 'NONE',  ( 0.000000000000000000, 4.553079989440496679E-15, -1.000000000000000000 ) ) ;
#250 = CARTESIAN_POINT ( 'NONE',  ( -21.40499999999999403, -2.220000000000000195, -0.7500000000000003331 ) ) ;
#251 = ORIENTED_EDGE ( 'NONE', *, *, #243, .F. ) ;
#252 = ORIENTED_EDGE ( 'NONE', *, *, #1292, .F. ) ;
#253 = EDGE_CURVE ( 'NONE', #165, #206, #645, .T. ) ;
#254 =( CONVERSION_BASED_UNIT ( 'INCH', #890 ) LENGTH_UNIT ( ) NAMED_UNIT ( #44 ) );
#255 = LINE ( 'NONE', #687, #280 ) ;
#256 = DIRECTION ( 'NONE',  ( 1.000000000000000000, 0.000000000000000000, 6.269377719834960576E-15 ) ) ;
#257 = AXIS2_PLACEMENT_3D ( 'NONE', #248, #774, #574 ) ;
#258 = VECTOR ( 'NONE', #259, 39.37007874015748143 ) ;
#259 = DIRECTION ( 'NONE',  ( 0.000000000000000000, -1.000000000000000000, 0.000000000000000000 ) ) ;
#260 = DIRECTION ( 'NONE',  ( 0.000000000000000000, 0.000000000000000000, 1.000000000000000000 ) ) ;
#261 = VERTEX_POINT ( 'NONE', #442 ) ;
#262 = LINE ( 'NONE', #57, #347 ) ;
#263 = EDGE_CURVE ( 'NONE', #1204, #1052, #967, .T. ) ;
#264 = DIRECTION ( 'NONE',  ( 1.000000000000000000, -0.000000000000000000, 0.000000000000000000 ) ) ;
#265 = DIRECTION ( 'NONE',  ( 1.000000000000000000, 4.202843067175613408E-15, 0.000000000000000000 ) ) ;
#266 = VERTEX_POINT ( 'NONE', #855 ) ;
#267 = ORIENTED_EDGE ( 'NONE', *, *, #1283, .F. ) ;
#268 = DIRECTION ( 'NONE',  ( 0.000000000000000000, -1.000000000000000000, 2.276539994720212446E-15 ) ) ;
#269 = DIRECTION ( 'NONE',  ( -0.000000000000000000, -0.000000000000000000, 1.000000000000000000 ) ) ;
#270 = LINE ( 'NONE', #1122, #766 ) ;
#271 = ADVANCED_FACE ( 'NONE', ( #228 ), #538, .F. ) ;
#272 = PLANE ( 'NONE',  #234 ) ;
#273 = CARTESIAN_POINT ( 'NONE',  ( 21.22100000000000719, 0.000000000000000000, -0.05999999999999999778 ) ) ;
#274 = ORIENTED_EDGE ( 'NONE', *, *, #227, .F. ) ;
#275 =( NAMED_UNIT ( * ) SI_UNIT ( $, .STERADIAN. ) SOLID_ANGLE_UNIT ( ) );
#276 = DIRECTION ( 'NONE',  ( 0.000000000000000000, -1.000000000000000000, 0.000000000000000000 ) ) ;
#277 = VECTOR ( 'NONE', #114, 39.37007874015748143 ) ;
#278 = EDGE_CURVE ( 'NONE', #151, #158, #754, .T. ) ;
#279 = DIRECTION ( 'NONE',  ( -0.000000000000000000, 1.000000000000000000, -0.000000000000000000 ) ) ;
#280 = VECTOR ( 'NONE', #562, 39.37007874015748143 ) ;
#281 = DIRECTION ( 'NONE',  ( 0.000000000000000000, 0.000000000000000000, 1.000000000000000000 ) ) ;
#282 = VECTOR ( 'NONE', #617, 39.37007874015748143 ) ;
#283 = ORIENTED_EDGE ( 'NONE', *, *, #204, .F. ) ;
#284 = CARTESIAN_POINT ( 'NONE',  ( -21.40499999999999403, 2.470000000000000639, -0.1279999999999991145 ) ) ;
#285 = LINE ( 'NONE', #316, #31 ) ;
#286 = DIRECTION ( 'NONE',  ( -1.000000000000000000, -4.202843067175613408E-15, 0.000000000000000000 ) ) ;
#287 = DIRECTION ( 'NONE',  ( 0.000000000000000000, -1.000000000000000000, -0.000000000000000000 ) ) ;
#288 = ORIENTED_EDGE ( 'NONE', *, *, #1021, .T. ) ;
#289 = EDGE_CURVE ( 'NONE', #823, #1085, #526, .T. ) ;
#290 = PLANE ( 'NONE',  #522 ) ;
#291 = CARTESIAN_POINT ( 'NONE',  ( -4.665155804564992343E-15, -2.219999999999954010, -0.05999999999999999778 ) ) ;
#292 = DIRECTION ( 'NONE',  ( 1.000000000000000000, -0.000000000000000000, -0.000000000000000000 ) ) ;
#293 = CARTESIAN_POINT ( 'NONE',  ( 21.34500000000001307, 2.219999999999998419, -0.7500000000000003331 ) ) ;
#294 = PLANE ( 'NONE',  #71 ) ;
#295 = ORIENTED_EDGE ( 'NONE', *, *, #38, .T. ) ;
#296 = CARTESIAN_POINT ( 'NONE',  ( 21.40500000000000469, 2.219999999999998419, -0.7500000000000003331 ) ) ;
#297 = EDGE_CURVE ( 'NONE', #729, #72, #1181, .T. ) ;
#298 = ORIENTED_EDGE ( 'NONE', *, *, #595, .T. ) ;
#299 = CARTESIAN_POINT ( 'NONE',  ( -21.27499999999999147, 2.470000000000000195, -0.7500000000000003331 ) ) ;
#300 = CARTESIAN_POINT ( 'NONE',  ( -21.40499999999999403, 2.219999999999999751, -0.7500000000000003331 ) ) ;
#301 = DIRECTION ( 'NONE',  ( 0.000000000000000000, -1.000000000000000000, 3.264156610076801518E-15 ) ) ;
#302 = CARTESIAN_POINT ( 'NONE',  ( 21.27500000000000213, 2.342000000000000970, 0.000000000000000000 ) ) ;
#303 = AXIS2_PLACEMENT_3D ( 'NONE', #317, #506, #203 ) ;
#304 = CIRCLE ( 'NONE', #786, 0.1279999999999996696 ) ;
#305 = VERTEX_POINT ( 'NONE', #1076 ) ;
#306 = AXIS2_PLACEMENT_3D ( 'NONE', #749, #1042, #624 ) ;
#307 = DIRECTION ( 'NONE',  ( 0.000000000000000000, 0.000000000000000000, -1.000000000000000000 ) ) ;
#308 = AXIS2_PLACEMENT_3D ( 'NONE', #1124, #1030, #799 ) ;
#309 = ORIENTED_EDGE ( 'NONE', *, *, #236, .T. ) ;
#310 = DIRECTION ( 'NONE',  ( 1.000000000000000000, -0.000000000000000000, -0.000000000000000000 ) ) ;
#311 = ADVANCED_FACE ( 'NONE', ( #235 ), #758, .F. ) ;
#312 = CARTESIAN_POINT ( 'NONE',  ( -21.06499999999999773, 0.000000000000000000, -0.05999999999999999778 ) ) ;
#313 = ORIENTED_EDGE ( 'NONE', *, *, #1046, .T. ) ;
#314 = LINE ( 'NONE', #397, #1354 ) ;
#315 = ORIENTED_EDGE ( 'NONE', *, *, #1366, .F. ) ;
#316 = CARTESIAN_POINT ( 'NONE',  ( 21.27500000000000568, -2.410000000000000142, 7.823379181855917436E-15 ) ) ;
#318 = ADVANCED_FACE ( 'NONE', ( #763 ), #1094, .F. ) ;
#317 = CARTESIAN_POINT ( 'NONE',  ( 0.000000000000000000, 0.000000000000000000, 0.000000000000000000 ) ) ;
#319 = EDGE_LOOP ( 'NONE', ( #267, #502, #1210, #209 ) ) ;
#320 = ADVANCED_BREP_SHAPE_REPRESENTATION ( '12-D-6080-07-(16gacr ANSI-61) - K48 - V4-R0', ( #1070, #658 ), #1271 ) ;
#321 = ORIENTED_EDGE ( 'NONE', *, *, #1257, .F. ) ;
#322 = CARTESIAN_POINT ( 'NONE',  ( 21.06500000000000838, 0.000000000000000000, -0.05999999999999999778 ) ) ;
#323 = LINE ( 'NONE', #743, #53 ) ;
#324 = DIRECTION ( 'NONE',  ( 0.000000000000000000, -1.000000000000000000, 3.491481338843134539E-15 ) ) ;
#325 = ORIENTED_EDGE ( 'NONE', *, *, #959, .F. ) ;
#326 = CARTESIAN_POINT ( 'NONE',  ( 20.90900000000000603, 1.910449006669861534E-17, -0.05999999999999999778 ) ) ;
#327 = VECTOR ( 'NONE', #249, 39.37007874015748143 ) ;
#328 = VERTEX_POINT ( 'NONE', #660 ) ;
#329 = AXIS2_PLACEMENT_3D ( 'NONE', #427, #860, #853 ) ;
#330 = VECTOR ( 'NONE', #674, 39.37007874015748143 ) ;
#331 = LINE ( 'NONE', #753, #655 ) ;
#332 = DIRECTION ( 'NONE',  ( 0.000000000000000000, 0.000000000000000000, 1.000000000000000000 ) ) ;
#333 = ORIENTED_EDGE ( 'NONE', *, *, #1008, .F. ) ;
#334 = ORIENTED_EDGE ( 'NONE', *, *, #78, .T. ) ;
#335 = ADVANCED_FACE ( 'NONE', ( #128 ), #550, .F. ) ;
#336 = DIRECTION ( 'NONE',  ( -1.000000000000000000, 2.101421533587877702E-15, 0.000000000000000000 ) ) ;
#337 = CARTESIAN_POINT ( 'NONE',  ( 21.40500000000000469, -2.470000000000000639, -0.1279999999999991145 ) ) ;
#338 = ORIENTED_EDGE ( 'NONE', *, *, #5, .T. ) ;
#339 = ORIENTED_EDGE ( 'NONE', *, *, #1300, .F. ) ;
#340 = ADVANCED_FACE ( 'NONE', ( #350 ), #1387, .F. ) ;
#341 = FACE_OUTER_BOUND ( 'NONE', #1202, .T. ) ;
#342 = CARTESIAN_POINT ( 'NONE',  ( -21.34499999999999531, -2.469999999999999751, -0.1280000000000003912 ) ) ;
#343 = DIRECTION ( 'NONE',  ( -1.000000000000000000, 0.000000000000000000, 6.829619984160793139E-15 ) ) ;
#344 = EDGE_LOOP ( 'NONE', ( #513, #1007, #230, #611, #372, #252, #136, #536, #881, #1285, #419, #315 ) ) ;
#345 = ORIENTED_EDGE ( 'NONE', *, *, #1366, .T. ) ;
#346 = CIRCLE ( 'NONE', #653, 0.1279999999999995586 ) ;
#347 = VECTOR ( 'NONE', #986, 39.37007874015748143 ) ;
#348 = CARTESIAN_POINT ( 'NONE',  ( -21.40499999999999403, -2.220000000000000195, -0.7500000000000003331 ) ) ;
#349 = CIRCLE ( 'NONE', #306, 0.1280000000000003912 ) ;
#350 = FACE_OUTER_BOUND ( 'NONE', #978, .T. ) ;
#351 = EDGE_CURVE ( 'NONE', #158, #516, #377, .T. ) ;
#352 = ORIENTED_EDGE ( 'NONE', *, *, #403, .T. ) ;
#353 = VERTEX_POINT ( 'NONE', #775 ) ;
#354 = CARTESIAN_POINT ( 'NONE',  ( -21.06499999999999773, 0.000000000000000000, -0.05999999999999999778 ) ) ;
#355 = DIRECTION ( 'NONE',  ( 1.000000000000000000, 0.000000000000000000, 0.000000000000000000 ) ) ;
#356 = EDGE_CURVE ( 'NONE', #1163, #876, #386, .T. ) ;
#357 = LINE ( 'NONE', #1117, #435 ) ;
#358 = FACE_OUTER_BOUND ( 'NONE', #1127, .T. ) ;
#359 = ORIENTED_EDGE ( 'NONE', *, *, #804, .F. ) ;
#360 = DIRECTION ( 'NONE',  ( 0.000000000000000000, -1.000000000000000000, 0.000000000000000000 ) ) ;
#361 = CARTESIAN_POINT ( 'NONE',  ( -21.27499999999999147, 2.470000000000000195, -0.1279999999999991422 ) ) ;
#362 = DIRECTION ( 'NONE',  ( 1.000000000000000000, 0.000000000000000000, 0.000000000000000000 ) ) ;
#363 = VERTEX_POINT ( 'NONE', #381 ) ;
#364 = EDGE_LOOP ( 'NONE', ( #793, #396, #1090, #339 ) ) ;
#365 = CARTESIAN_POINT ( 'NONE',  ( 21.27500000000000568, -2.219999999999998863, -0.7500000000000003331 ) ) ;
#366 = VECTOR ( 'NONE', #871, 39.37007874015748143 ) ;
#367 = DIRECTION ( 'NONE',  ( 2.101421533587877702E-15, 1.000000000000000000, 0.000000000000000000 ) ) ;
#368 = PLANE ( 'NONE',  #119 ) ;
#369 = VECTOR ( 'NONE', #269, 39.37007874015748143 ) ;
#370 = VECTOR ( 'NONE', #1113, 39.37007874015748143 ) ;
#371 = DIRECTION ( 'NONE',  ( 1.000000000000000000, 0.000000000000000000, 0.000000000000000000 ) ) ;
#372 = ORIENTED_EDGE ( 'NONE', *, *, #1065, .F. ) ;
#373 = ORIENTED_EDGE ( 'NONE', *, *, #785, .T. ) ;
#374 = CARTESIAN_POINT ( 'NONE',  ( -21.33792893218812736, -2.342000000000000970, -0.05999999999999931083 ) ) ;
#375 = EDGE_CURVE ( 'NONE', #516, #438, #780, .T. ) ;
#376 = DIRECTION ( 'NONE',  ( -3.414809992080333145E-14, 1.000000000000000000, -2.134256245050208294E-14 ) ) ;
#377 = LINE ( 'NONE', #1207, #872 ) ;
#378 = CARTESIAN_POINT ( 'NONE',  ( -21.27499999999999147, -2.342000000000000970, -0.05999999999999931083 ) ) ;
#379 = CARTESIAN_POINT ( 'NONE',  ( 21.22100000000000719, 0.000000000000000000, -0.05999999999999999778 ) ) ;
#380 = VERTEX_POINT ( 'NONE', #461 ) ;
#381 = CARTESIAN_POINT ( 'NONE',  ( 20.90900000000000603, 1.910449006669861534E-17, 0.000000000000000000 ) ) ;
#382 = LINE ( 'NONE', #826, #838 ) ;
#383 = DIRECTION ( 'NONE',  ( -0.000000000000000000, -1.000000000000000000, -0.000000000000000000 ) ) ;
#384 = EDGE_LOOP ( 'NONE', ( #1376, #1097 ) ) ;
#385 = CARTESIAN_POINT ( 'NONE',  ( 21.40500000000000469, 0.000000000000000000, 1.358041701658576705E-13 ) ) ;
#386 = CIRCLE ( 'NONE', #1171, 0.06800000000000157308 ) ;
#387 = CIRCLE ( 'NONE', #920, 0.1280000000000015847 ) ;
#389 = ADVANCED_FACE ( 'NONE', ( #1109 ), #803, .F. ) ;
#388 = DIRECTION ( 'NONE',  ( 2.101421533587877702E-15, 1.000000000000000000, 0.000000000000000000 ) ) ;
#390 = VECTOR ( 'NONE', #1211, 39.37007874015748143 ) ;
#391 = EDGE_LOOP ( 'NONE', ( #1169, #696, #34, #60 ) ) ;
#392 = DIRECTION ( 'NONE',  ( -6.334719985308433293E-15, 0.000000000000000000, 1.000000000000000000 ) ) ;
#393 = LINE ( 'NONE', #1357, #585 ) ;
#394 = CYLINDRICAL_SURFACE ( 'NONE', #783, 0.06799999999999965794 ) ;
#395 = EDGE_CURVE ( 'NONE', #116, #1317, #29, .T. ) ;
#396 = ORIENTED_EDGE ( 'NONE', *, *, #246, .F. ) ;
#397 = CARTESIAN_POINT ( 'NONE',  ( 21.27700000000000458, -2.402928932188135303, 7.683322482180740425E-16 ) ) ;
#398 = ORIENTED_EDGE ( 'NONE', *, *, #486, .T. ) ;
#399 = CARTESIAN_POINT ( 'NONE',  ( -21.34499999999999886, 2.219999999999999751, -0.7500000000000003331 ) ) ;
#400 = CARTESIAN_POINT ( 'NONE',  ( -21.27499999999999147, -2.342000000000000970, -0.1279999999999989757 ) ) ;
#401 = CARTESIAN_POINT ( 'NONE',  ( -21.27499999999999147, -2.470000000000000195, -0.7500000000000003331 ) ) ;
#402 = ORIENTED_EDGE ( 'NONE', *, *, #1190, .T. ) ;
#403 = EDGE_CURVE ( 'NONE', #1182, #411, #134, .T. ) ;
#404 = FACE_OUTER_BOUND ( 'NONE', #319, .T. ) ;
#405 = EDGE_LOOP ( 'NONE', ( #1064, #1280, #807, #567 ) ) ;
#406 = EDGE_CURVE ( 'NONE', #1322, #380, #1224, .T. ) ;
#407 = DIRECTION ( 'NONE',  ( 0.000000000000000000, 0.000000000000000000, 1.000000000000000000 ) ) ;
#408 = LINE ( 'NONE', #300, #1106 ) ;
#409 = LINE ( 'NONE', #599, #451 ) ;
#410 = AXIS2_PLACEMENT_3D ( 'NONE', #1247, #407, #1137 ) ;
#411 = VERTEX_POINT ( 'NONE', #1236 ) ;
#412 = DIRECTION ( 'NONE',  ( 5.537757466332721593E-29, -3.167359992654216647E-15, 1.000000000000000000 ) ) ;
#413 = AXIS2_PLACEMENT_3D ( 'NONE', #824, #1166, #627 ) ;
#414 = CARTESIAN_POINT ( 'NONE',  ( 21.27500000000000568, 2.470000000000000195, -0.1279999999999991422 ) ) ;
#415 = ORIENTED_EDGE ( 'NONE', *, *, #351, .F. ) ;
#416 = EDGE_CURVE ( 'NONE', #1150, #760, #701, .T. ) ;
#417 = DIRECTION ( 'NONE',  ( -0.000000000000000000, -0.000000000000000000, 1.000000000000000000 ) ) ;
#418 = CARTESIAN_POINT ( 'NONE',  ( -21.27499999999999147, 2.410000000000000586, -0.1279999999999992810 ) ) ;
#419 = ORIENTED_EDGE ( 'NONE', *, *, #869, .F. ) ;
#420 = ORIENTED_EDGE ( 'NONE', *, *, #1250, .F. ) ;
#421 = LINE ( 'NONE', #99, #188 ) ;
#422 = ADVANCED_FACE ( 'NONE', ( #1320 ), #987, .F. ) ;
#423 = DIRECTION ( 'NONE',  ( 0.000000000000000000, 0.000000000000000000, 1.000000000000000000 ) ) ;
#424 = ORIENTED_EDGE ( 'NONE', *, *, #942, .T. ) ;
#425 = DIRECTION ( 'NONE',  ( -6.334719985308433293E-15, -2.662383397275235764E-29, -1.000000000000000000 ) ) ;
#426 = EDGE_LOOP ( 'NONE', ( #1111, #529, #1251, #415 ) ) ;
#427 = CARTESIAN_POINT ( 'NONE',  ( -21.34499999999999531, 0.000000000000000000, 1.355946812855269954E-13 ) ) ;
#428 = FACE_OUTER_BOUND ( 'NONE', #426, .T. ) ;
#429 = CARTESIAN_POINT ( 'NONE',  ( 21.27500000000000213, 2.342000000000000970, -0.06000000000000040024 ) ) ;
#430 = EDGE_CURVE ( 'NONE', #889, #609, #673, .T. ) ;
#431 = ORIENTED_EDGE ( 'NONE', *, *, #202, .F. ) ;
#432 = AXIS2_PLACEMENT_3D ( 'NONE', #484, #566, #1238 ) ;
#433 = ORIENTED_EDGE ( 'NONE', *, *, #395, .T. ) ;
#434 = AXIS2_PLACEMENT_3D ( 'NONE', #82, #63, #1029 ) ;
#435 = VECTOR ( 'NONE', #1208, 39.37007874015748143 ) ;
#436 = LINE ( 'NONE', #1172, #1267 ) ;
#437 = DIRECTION ( 'NONE',  ( -1.000000000000000000, 0.000000000000000000, -0.000000000000000000 ) ) ;
#438 = VERTEX_POINT ( 'NONE', #361 ) ;
#439 = ADVANCED_FACE ( 'NONE', ( #58 ), #1002, .T. ) ;
#440 = ORIENTED_EDGE ( 'NONE', *, *, #721, .F. ) ;
#441 = DIRECTION ( 'NONE',  ( -1.748382715945116469E-14, -1.000000000000000000, 0.000000000000000000 ) ) ;
#442 = CARTESIAN_POINT ( 'NONE',  ( -21.27499999999999147, -2.220000000000000195, -0.06000000000000004635 ) ) ;
#443 = VERTEX_POINT ( 'NONE', #37 ) ;
#444 = EDGE_LOOP ( 'NONE', ( #1176, #1032, #471, #710 ) ) ;
#445 = ADVANCED_FACE ( 'NONE', ( #30 ), #148, .F. ) ;
#446 = CARTESIAN_POINT ( 'NONE',  ( -21.40499999999999403, 2.219999999999999751, -0.1279999999999999749 ) ) ;
#447 = DIRECTION ( 'NONE',  ( 1.000000000000000000, -0.000000000000000000, 0.000000000000000000 ) ) ;
#448 = CARTESIAN_POINT ( 'NONE',  ( -21.27499999999999147, -2.470000000000000195, -0.1279999999999980598 ) ) ;
#449 = EDGE_LOOP ( 'NONE', ( #963, #740, #492, #939 ) ) ;
#450 = ORIENTED_EDGE ( 'NONE', *, *, #797, .F. ) ;
#451 = VECTOR ( 'NONE', #518, 39.37007874015748143 ) ;
#452 = VECTOR ( 'NONE', #1108, 39.37007874015748143 ) ;
#453 = CARTESIAN_POINT ( 'NONE',  ( 21.27500000000000213, 2.219999999999998419, -0.06000000000000004635 ) ) ;
#454 = VECTOR ( 'NONE', #343, 39.37007874015748143 ) ;
#455 = ADVANCED_FACE ( 'NONE', ( #139 ), #368, .F. ) ;
#456 = DIRECTION ( 'NONE',  ( -1.000000000000000000, 0.000000000000000000, -0.000000000000000000 ) ) ;
#457 = ORIENTED_EDGE ( 'NONE', *, *, #505, .T. ) ;
#458 = ORIENTED_EDGE ( 'NONE', *, *, #1046, .F. ) ;
#459 = SURFACE_STYLE_USAGE ( .BOTH. , #56 ) ;
#460 = CARTESIAN_POINT ( 'NONE',  ( 21.40500000000000469, 2.219999999999998419, -0.7500000000000003331 ) ) ;
#462 = EDGE_CURVE ( 'NONE', #876, #328, #1337, .T. ) ;
#461 = CARTESIAN_POINT ( 'NONE',  ( -21.27499999999998792, 2.342000000000000970, 0.000000000000000000 ) ) ;
#463 = DIRECTION ( 'NONE',  ( 0.000000000000000000, -1.000000000000000000, 0.000000000000000000 ) ) ;
#464 = PLANE ( 'NONE',  #1328 ) ;
#465 = ORIENTED_EDGE ( 'NONE', *, *, #1201, .T. ) ;
#466 =( LENGTH_UNIT ( ) NAMED_UNIT ( * ) SI_UNIT ( $, .METRE. ) );
#467 = CARTESIAN_POINT ( 'NONE',  ( 21.27700000000000458, 2.219999999999998863, -0.1280000000000008076 ) ) ;
#468 = CARTESIAN_POINT ( 'NONE',  ( -21.27699999999999392, 2.402928932188136635, -0.05999999999999924144 ) ) ;
#469 = CARTESIAN_POINT ( 'NONE',  ( 21.34500000000001307, -2.219999999999999307, -0.7500000000000003331 ) ) ;
#470 = EDGE_CURVE ( 'NONE', #973, #266, #270, .T. ) ;
#471 = ORIENTED_EDGE ( 'NONE', *, *, #210, .F. ) ;
#472 = CIRCLE ( 'NONE', #856, 0.06800000000000157308 ) ;
#473 = DIRECTION ( 'NONE',  ( -1.000000000000000000, -0.000000000000000000, -0.000000000000000000 ) ) ;
#474 = VECTOR ( 'NONE', #757, 39.37007874015748143 ) ;
#475 = DIRECTION ( 'NONE',  ( 0.000000000000000000, 0.000000000000000000, 1.000000000000000000 ) ) ;
#476 = VECTOR ( 'NONE', #412, 39.37007874015748143 ) ;
#477 = LINE ( 'NONE', #806, #606 ) ;
#478 = ORIENTED_EDGE ( 'NONE', *, *, #1239, .T. ) ;
#479 = ADVANCED_FACE ( 'NONE', ( #583 ), #1017, .F. ) ;
#480 = CARTESIAN_POINT ( 'NONE',  ( -21.27499999999999147, -2.220000000000000195, -0.7500000000000003331 ) ) ;
#481 = DIRECTION ( 'NONE',  ( 1.000000000000000000, -0.000000000000000000, -0.000000000000000000 ) ) ;
#482 = CARTESIAN_POINT ( 'NONE',  ( 0.000000000000000000, 2.470000000000000195, 8.032868062186504175E-15 ) ) ;
#483 = CARTESIAN_POINT ( 'NONE',  ( -21.27499999999999147, 2.410000000000000586, -0.1279999999999992810 ) ) ;
#484 = CARTESIAN_POINT ( 'NONE',  ( -21.27499999999998792, 2.342000000000000970, -0.1280000000000000582 ) ) ;
#485 = ORIENTED_EDGE ( 'NONE', *, *, #113, .T. ) ;
#486 = EDGE_CURVE ( 'NONE', #305, #1322, #1153, .T. ) ;
#487 = EDGE_CURVE ( 'NONE', #729, #33, #1276, .T. ) ;
#488 = DIRECTION ( 'NONE',  ( -1.000000000000000000, -8.084789573599514167E-32, 2.552532579924562983E-17 ) ) ;
#489 = DIRECTION ( 'NONE',  ( 1.000000000000000000, 0.000000000000000000, 0.000000000000000000 ) ) ;
#490 = DIRECTION ( 'NONE',  ( 0.000000000000000000, 0.000000000000000000, -1.000000000000000000 ) ) ;
#491 = DIRECTION ( 'NONE',  ( 1.000000000000000000, 4.202843067175613408E-15, 0.000000000000000000 ) ) ;
#492 = ORIENTED_EDGE ( 'NONE', *, *, #850, .F. ) ;
#493 = CARTESIAN_POINT ( 'NONE',  ( -21.40499999999999758, 0.000000000000000000, -0.7500000000000001110 ) ) ;
#494 = CARTESIAN_POINT ( 'NONE',  ( 21.33792893218814157, 2.342000000000000970, -0.1280000000000000582 ) ) ;
#495 = EDGE_CURVE ( 'NONE', #957, #685, #285, .T. ) ;
#496 = AXIS2_PLACEMENT_3D ( 'NONE', #570, #1006, #475 ) ;
#497 = DIRECTION ( 'NONE',  ( 0.000000000000000000, 1.000000000000000000, 0.000000000000000000 ) ) ;
#498 = FACE_OUTER_BOUND ( 'NONE', #1159, .T. ) ;
#499 = VECTOR ( 'NONE', #237, 39.37007874015748143 ) ;
#500 = EDGE_LOOP ( 'NONE', ( #213, #54, #352, #646 ) ) ;
#501 = DIRECTION ( 'NONE',  ( 0.000000000000000000, -1.000000000000000000, -2.276539994720233351E-15 ) ) ;
#502 = ORIENTED_EDGE ( 'NONE', *, *, #21, .F. ) ;
#503 = DIRECTION ( 'NONE',  ( -0.000000000000000000, 1.000000000000000000, -0.000000000000000000 ) ) ;
#504 = CYLINDRICAL_SURFACE ( 'NONE', #678, 0.1279999999999998361 ) ;
#505 = EDGE_CURVE ( 'NONE', #411, #261, #612, .T. ) ;
#506 = DIRECTION ( 'NONE',  ( 0.000000000000000000, 0.000000000000000000, -1.000000000000000000 ) ) ;
#507 = ORIENTED_EDGE ( 'NONE', *, *, #1135, .T. ) ;
#508 = DIRECTION ( 'NONE',  ( 0.000000000000000000, -1.000000000000000000, -0.000000000000000000 ) ) ;
#509 = ORIENTED_EDGE ( 'NONE', *, *, #762, .T. ) ;
#510 = DIRECTION ( 'NONE',  ( 0.000000000000000000, 1.000000000000000000, 3.201384367575312521E-15 ) ) ;
#511 = DIRECTION ( 'NONE',  ( 1.000000000000000000, 0.000000000000000000, 0.000000000000000000 ) ) ;
#512 = FACE_OUTER_BOUND ( 'NONE', #534, .T. ) ;
#513 = ORIENTED_EDGE ( 'NONE', *, *, #944, .T. ) ;
#514 = CARTESIAN_POINT ( 'NONE',  ( 21.33792893218814157, 2.342000000000000970, -3.927031490892378253E-16 ) ) ;
#515 = ADVANCED_FACE ( 'NONE', ( #1045 ), #1053, .F. ) ;
#516 = VERTEX_POINT ( 'NONE', #299 ) ;
#517 = DIRECTION ( 'NONE',  ( 0.000000000000000000, 3.167359992654216647E-15, 1.000000000000000000 ) ) ;
#518 = DIRECTION ( 'NONE',  ( -1.748382715945116469E-14, -1.000000000000000000, 0.000000000000000000 ) ) ;
#519 = VECTOR ( 'NONE', #84, 39.37007874015748143 ) ;
#520 = AXIS2_PLACEMENT_3D ( 'NONE', #1206, #788, #376 ) ;
#521 = VERTEX_POINT ( 'NONE', #1131 ) ;
#522 = AXIS2_PLACEMENT_3D ( 'NONE', #1244, #1367, #67 ) ;
#523 = ORIENTED_EDGE ( 'NONE', *, *, #643, .T. ) ;
#524 = DIRECTION ( 'NONE',  ( -1.000000000000000000, 0.000000000000000000, 0.000000000000000000 ) ) ;
#525 = LINE ( 'NONE', #194, #1331 ) ;
#526 = LINE ( 'NONE', #745, #212 ) ;
#527 = ORIENTED_EDGE ( 'NONE', *, *, #1049, .T. ) ;
#528 = CARTESIAN_POINT ( 'NONE',  ( -21.27499999999999147, 2.410000000000000142, 7.823379181857094417E-15 ) ) ;
#529 = ORIENTED_EDGE ( 'NONE', *, *, #1283, .T. ) ;
#530 = CARTESIAN_POINT ( 'NONE',  ( 21.27500000000000568, -2.410000000000000586, -0.1279999999999981986 ) ) ;
#531 = EDGE_CURVE ( 'NONE', #1218, #934, #1270, .T. ) ;
#532 = CARTESIAN_POINT ( 'NONE',  ( -21.06499999999999773, 0.000000000000000000, -0.05999999999999999778 ) ) ;
#533 = DIRECTION ( 'NONE',  ( 1.748382715945128144E-14, -1.000000000000000000, 0.000000000000000000 ) ) ;
#534 = EDGE_LOOP ( 'NONE', ( #333, #458, #1273, #552, #984, #600, #251, #1119, #359, #540, #1183, #1134 ) ) ;
#535 = DIRECTION ( 'NONE',  ( 0.000000000000000000, 1.000000000000000000, -3.167359992654216647E-15 ) ) ;
#536 = ORIENTED_EDGE ( 'NONE', *, *, #406, .F. ) ;
#537 = PLANE ( 'NONE',  #329 ) ;
#539 = EDGE_CURVE ( 'NONE', #33, #328, #1217, .T. ) ;
#538 = PLANE ( 'NONE',  #1009 ) ;
#540 = ORIENTED_EDGE ( 'NONE', *, *, #705, .F. ) ;
#541 = AXIS2_PLACEMENT_3D ( 'NONE', #112, #233, #870 ) ;
#542 = ORIENTED_EDGE ( 'NONE', *, *, #850, .T. ) ;
#543 = VECTOR ( 'NONE', #481, 39.37007874015748143 ) ;
#544 = FACE_OUTER_BOUND ( 'NONE', #364, .T. ) ;
#545 = FACE_BOUND ( 'NONE', #654, .T. ) ;
#546 = VERTEX_POINT ( 'NONE', #707 ) ;
#547 = ADVANCED_FACE ( 'NONE', ( #810 ), #504, .T. ) ;
#548 = ORIENTED_EDGE ( 'NONE', *, *, #977, .T. ) ;
#549 = FACE_OUTER_BOUND ( 'NONE', #844, .T. ) ;
#550 = PLANE ( 'NONE',  #764 ) ;
#551 = ORIENTED_EDGE ( 'NONE', *, *, #470, .F. ) ;
#552 = ORIENTED_EDGE ( 'NONE', *, *, #505, .F. ) ;
#553 = ADVANCED_FACE ( 'NONE', ( #171 ), #723, .F. ) ;
#554 = CARTESIAN_POINT ( 'NONE',  ( -21.40499999999999403, 0.000000000000000000, 1.358041701658575695E-13 ) ) ;
#555 = CARTESIAN_POINT ( 'NONE',  ( 21.27700000000000458, 2.219999999999998419, 0.000000000000000000 ) ) ;
#556 = LINE ( 'NONE', #24, #1245 ) ;
#557 = ORIENTED_EDGE ( 'NONE', *, *, #1184, .T. ) ;
#558 = VERTEX_POINT ( 'NONE', #817 ) ;
#559 = VECTOR ( 'NONE', #1315, 39.37007874015748143 ) ;
#560 = DIRECTION ( 'NONE',  ( 1.000000000000000000, 0.000000000000000000, 6.277224250147518462E-15 ) ) ;
#561 = AXIS2_PLACEMENT_3D ( 'NONE', #192, #605, #75 ) ;
#562 = DIRECTION ( 'NONE',  ( 1.748382715945116469E-14, 1.000000000000000000, 0.000000000000000000 ) ) ;
#563 = AXIS2_PLACEMENT_3D ( 'NONE', #532, #960, #2 ) ;
#564 = DIRECTION ( 'NONE',  ( -0.000000000000000000, -1.000000000000000000, -0.000000000000000000 ) ) ;
#565 = CARTESIAN_POINT ( 'NONE',  ( -21.27699999999999392, -2.220000000000000195, 0.000000000000000000 ) ) ;
#566 = DIRECTION ( 'NONE',  ( -1.000000000000000000, -1.748382715945128144E-14, -0.000000000000000000 ) ) ;
#567 = ORIENTED_EDGE ( 'NONE', *, *, #830, .F. ) ;
#568 = PRODUCT_DEFINITION_SHAPE ( 'NONE', 'NONE',  #1314 ) ;
#569 = FACE_OUTER_BOUND ( 'NONE', #405, .T. ) ;
#570 = CARTESIAN_POINT ( 'NONE',  ( 21.27500000000000568, -2.470000000000000639, -0.7500000000000003331 ) ) ;
#571 = EDGE_CURVE ( 'NONE', #33, #1163, #937, .T. ) ;
#572 = CARTESIAN_POINT ( 'NONE',  ( -21.34499999999999886, -2.220000000000000195, -0.7500000000000003331 ) ) ;
#573 = EDGE_LOOP ( 'NONE', ( #839, #1170, #1026, #1198 ) ) ;
#574 = DIRECTION ( 'NONE',  ( 0.000000000000000000, 0.000000000000000000, -1.000000000000000000 ) ) ;
#575 = DIRECTION ( 'NONE',  ( -1.748382715945128144E-14, 1.000000000000000000, 0.000000000000000000 ) ) ;
#576 = EDGE_CURVE ( 'NONE', #353, #1052, #898, .T. ) ;
#577 = ORIENTED_EDGE ( 'NONE', *, *, #588, .T. ) ;
#578 = ORIENTED_EDGE ( 'NONE', *, *, #55, .T. ) ;
#579 = FILL_AREA_STYLE_COLOUR ( '', #1174 ) ;
#580 = FACE_OUTER_BOUND ( 'NONE', #951, .T. ) ;
#581 = VECTOR ( 'NONE', #310, 39.37007874015748143 ) ;
#582 = LINE ( 'NONE', #1022, #543 ) ;
#583 = FACE_OUTER_BOUND ( 'NONE', #625, .T. ) ;
#584 = VECTOR ( 'NONE', #713, 39.37007874015748143 ) ;
#585 = VECTOR ( 'NONE', #1145, 39.37007874015748143 ) ;
#586 = FACE_OUTER_BOUND ( 'NONE', #391, .T. ) ;
#587 = DIRECTION ( 'NONE',  ( 0.000000000000000000, 0.000000000000000000, 1.000000000000000000 ) ) ;
#588 = EDGE_CURVE ( 'NONE', #521, #363, #140, .T. ) ;
#589 = VERTEX_POINT ( 'NONE', #1362 ) ;
#590 = EDGE_CURVE ( 'NONE', #1204, #1242, #304, .T. ) ;
#591 = CARTESIAN_POINT ( 'NONE',  ( 21.06500000000000838, 0.000000000000000000, -0.05999999999999999778 ) ) ;
#592 = CARTESIAN_POINT ( 'NONE',  ( -21.27499999999998792, 2.220000000000000195, 0.000000000000000000 ) ) ;
#593 = ORIENTED_EDGE ( 'NONE', *, *, #995, .T. ) ;
#594 = ORIENTED_EDGE ( 'NONE', *, *, #705, .T. ) ;
#595 = EDGE_CURVE ( 'NONE', #685, #116, #68, .T. ) ;
#596 = CARTESIAN_POINT ( 'NONE',  ( 21.06500000000000838, 0.000000000000000000, 0.000000000000000000 ) ) ;
#597 = CARTESIAN_POINT ( 'NONE',  ( 21.40500000000000469, -2.219999999999999307, -0.7500000000000003331 ) ) ;
#598 = DIRECTION ( 'NONE',  ( 1.000000000000000000, 4.553079989440529022E-15, -6.829619984160793139E-15 ) ) ;
#599 = CARTESIAN_POINT ( 'NONE',  ( 21.27500000000000568, 2.470000000000000195, -0.7500000000000003331 ) ) ;
#600 = ORIENTED_EDGE ( 'NONE', *, *, #1348, .F. ) ;
#601 = FACE_OUTER_BOUND ( 'NONE', #573, .T. ) ;
#602 = EDGE_CURVE ( 'NONE', #1086, #957, #1160, .T. ) ;
#603 = CIRCLE ( 'NONE', #722, 0.1560000000000012765 ) ;
#604 = FACE_OUTER_BOUND ( 'NONE', #717, .T. ) ;
#605 = DIRECTION ( 'NONE',  ( -0.000000000000000000, 1.000000000000000000, 0.000000000000000000 ) ) ;
#606 = VECTOR ( 'NONE', #260, 39.37007874015748143 ) ;
#607 = VECTOR ( 'NONE', #264, 39.37007874015748143 ) ;
#608 = DIRECTION ( 'NONE',  ( -7.284927983104785851E-14, 0.000000000000000000, -1.000000000000000000 ) ) ;
#609 = VERTEX_POINT ( 'NONE', #201 ) ;
#610 = DIRECTION ( 'NONE',  ( 0.000000000000000000, 3.167359992654216647E-15, 1.000000000000000000 ) ) ;
#611 = ORIENTED_EDGE ( 'NONE', *, *, #1116, .T. ) ;
#612 = LINE ( 'NONE', #1036, #232 ) ;
#613 = CARTESIAN_POINT ( 'NONE',  ( -21.27699999999999392, 2.402928932188136635, -0.1280000000000008076 ) ) ;
#615 = ADVANCED_FACE ( 'NONE', ( #619 ), #88, .F. ) ;
#614 = CARTESIAN_POINT ( 'NONE',  ( -21.34499999999999531, 2.219999999999999751, -0.1280000000000003912 ) ) ;
#616 = ORIENTED_EDGE ( 'NONE', *, *, #869, .T. ) ;
#617 = DIRECTION ( 'NONE',  ( 1.000000000000000000, 8.084789573599514167E-32, -2.552532579924562983E-17 ) ) ;
#618 = ORIENTED_EDGE ( 'NONE', *, *, #113, .F. ) ;
#619 = FACE_OUTER_BOUND ( 'NONE', #831, .T. ) ;
#620 =( LENGTH_UNIT ( ) NAMED_UNIT ( * ) SI_UNIT ( $, .METRE. ) );
#621 = DIRECTION ( 'NONE',  ( -1.000000000000000000, 1.748382715945116469E-14, 0.000000000000000000 ) ) ;
#622 = EDGE_CURVE ( 'NONE', #609, #1052, #421, .T. ) ;
#623 = ORIENTED_EDGE ( 'NONE', *, *, #202, .T. ) ;
#624 = DIRECTION ( 'NONE',  ( 1.000000000000000000, 4.268512490100398287E-15, 0.000000000000000000 ) ) ;
#625 = EDGE_LOOP ( 'NONE', ( #642, #1284, #632, #1275 ) ) ;
#626 = FACE_OUTER_BOUND ( 'NONE', #444, .T. ) ;
#627 = DIRECTION ( 'NONE',  ( -6.334719985308433293E-15, 0.000000000000000000, 1.000000000000000000 ) ) ;
#628 =( NAMED_UNIT ( * ) PLANE_ANGLE_UNIT ( ) SI_UNIT ( $, .RADIAN. ) );
#629 = CARTESIAN_POINT ( 'NONE',  ( 21.27500000000000213, 2.342000000000000970, -0.06000000000000040024 ) ) ;
#630 = AXIS2_PLACEMENT_3D ( 'NONE', #639, #770, #961 ) ;
#631 = AXIS2_PLACEMENT_3D ( 'NONE', #482, #1379, #177 ) ;
#632 = ORIENTED_EDGE ( 'NONE', *, *, #952, .F. ) ;
#633 = CARTESIAN_POINT ( 'NONE',  ( -21.34499999999999531, 2.219999999999999751, 1.355946812855269197E-13 ) ) ;
#634 = VECTOR ( 'NONE', #425, 39.37007874015748143 ) ;
#635 = ORIENTED_EDGE ( 'NONE', *, *, #571, .F. ) ;
#636 = ADVANCED_FACE ( 'NONE', ( #1384 ), #974, .F. ) ;
#637 = LINE ( 'NONE', #847, #96 ) ;
#638 = FACE_OUTER_BOUND ( 'NONE', #1340, .T. ) ;
#639 = CARTESIAN_POINT ( 'NONE',  ( -21.27699999999999392, -2.219999999999999751, -0.1280000000000008076 ) ) ;
#640 = VERTEX_POINT ( 'NONE', #446 ) ;
#641 = CARTESIAN_POINT ( 'NONE',  ( -21.27499999999999147, -2.470000000000000195, -0.7500000000000003331 ) ) ;
#642 = ORIENTED_EDGE ( 'NONE', *, *, #175, .T. ) ;
#643 = EDGE_CURVE ( 'NONE', #918, #79, #1329, .T. ) ;
#644 = DIRECTION ( 'NONE',  ( -0.000000000000000000, 1.000000000000000000, 0.000000000000000000 ) ) ;
#645 = LINE ( 'NONE', #429, #118 ) ;
#646 = ORIENTED_EDGE ( 'NONE', *, *, #204, .T. ) ;
#647 = ORIENTED_EDGE ( 'NONE', *, *, #602, .F. ) ;
#648 = CARTESIAN_POINT ( 'NONE',  ( 21.40500000000000469, -2.219999999999999307, -0.7500000000000003331 ) ) ;
#649 = EDGE_CURVE ( 'NONE', #20, #684, #637, .T. ) ;
#650 = APPLICATION_PROTOCOL_DEFINITION ( 'draft international standard', 'automotive_design', 1998, #875 ) ;
#651 = DIRECTION ( 'NONE',  ( -1.000000000000000000, 0.000000000000000000, 0.000000000000000000 ) ) ;
#652 = ADVANCED_FACE ( 'NONE', ( #659 ), #1180, .F. ) ;
#653 = AXIS2_PLACEMENT_3D ( 'NONE', #904, #704, #911 ) ;
#654 = EDGE_LOOP ( 'NONE', ( #205, #735 ) ) ;
#655 = VECTOR ( 'NONE', #120, 39.37007874015748143 ) ;
#656 = ORIENTED_EDGE ( 'NONE', *, *, #157, .F. ) ;
#657 = AXIS2_PLACEMENT_3D ( 'NONE', #596, #1229, #1035 ) ;
#658 = AXIS2_PLACEMENT_3D ( 'NONE', #1386, #1295, #511 ) ;
#659 = FACE_OUTER_BOUND ( 'NONE', #690, .T. ) ;
#660 = CARTESIAN_POINT ( 'NONE',  ( 21.27700000000000458, -2.219999999999998863, 0.000000000000000000 ) ) ;
#661 = EDGE_CURVE ( 'NONE', #328, #1388, #436, .T. ) ;
#662 = CARTESIAN_POINT ( 'NONE',  ( -21.27499999999999147, -2.342000000000000970, 0.000000000000000000 ) ) ;
#663 = ORIENTED_EDGE ( 'NONE', *, *, #1221, .T. ) ;
#664 = ORIENTED_EDGE ( 'NONE', *, *, #243, .T. ) ;
#665 = CARTESIAN_POINT ( 'NONE',  ( 21.40500000000000469, 2.219999999999998419, -0.7500000000000003331 ) ) ;
#666 = FACE_BOUND ( 'NONE', #698, .T. ) ;
#667 = DIRECTION ( 'NONE',  ( 1.000000000000000000, -1.748382715945116469E-14, -0.000000000000000000 ) ) ;
#668 = ORIENTED_EDGE ( 'NONE', *, *, #643, .F. ) ;
#669 = ADVANCED_FACE ( 'NONE', ( #549 ), #1060, .F. ) ;
#670 = EDGE_LOOP ( 'NONE', ( #1118, #288, #664, #398 ) ) ;
#671 = CARTESIAN_POINT ( 'NONE',  ( -21.27499999999999147, -2.410000000000000142, 7.823379181855917436E-15 ) ) ;
#672 = DIRECTION ( 'NONE',  ( -4.202843067175613408E-15, 1.000000000000000000, -0.000000000000000000 ) ) ;
#673 = LINE ( 'NONE', #902, #607 ) ;
#674 = DIRECTION ( 'NONE',  ( 0.000000000000000000, 1.000000000000000000, 0.000000000000000000 ) ) ;
#675 = PLANE ( 'NONE',  #9 ) ;
#676 = ORIENTED_EDGE ( 'NONE', *, *, #821, .T. ) ;
#677 = CLOSED_SHELL ( 'NONE', ( #389, #739, #731, #97, #1098, #1154, #1123, #61, #1038, #455, #652, #167, #422, #271, #154, #335, #842, #515, #220, #131, #1027, #615, #547, #147, #479, #1334, #669, #439, #1057, #553, #985, #688, #1269, #311, #794, #697, #318, #1306, #1341, #933, #886, #340, #636, #1277, #679, #864, #1142, #182, #812, #445 ) ) ;
#678 = AXIS2_PLACEMENT_3D ( 'NONE', #494, #489, #510 ) ;
#679 = ADVANCED_FACE ( 'NONE', ( #626 ), #106, .F. ) ;
#680 = CARTESIAN_POINT ( 'NONE',  ( -21.40499999999999403, -2.220000000000000195, -0.7500000000000003331 ) ) ;
#681 = AXIS2_PLACEMENT_3D ( 'NONE', #887, #1321, #362 ) ;
#682 = CARTESIAN_POINT ( 'NONE',  ( 21.06500000000000838, 0.000000000000000000, -0.05999999999999999778 ) ) ;
#683 = LINE ( 'NONE', #1110, #1219 ) ;
#684 = VERTEX_POINT ( 'NONE', #1087 ) ;
#685 = VERTEX_POINT ( 'NONE', #530 ) ;
#686 = CARTESIAN_POINT ( 'NONE',  ( -21.27499999999999147, 2.470000000000000195, -0.7500000000000003331 ) ) ;
#687 = CARTESIAN_POINT ( 'NONE',  ( 21.27499999999996305, -3.719684228173228281E-13, -0.05999999999999999778 ) ) ;
#688 = ADVANCED_FACE ( 'NONE', ( #958 ), #1294, .F. ) ;
#689 = DIRECTION ( 'NONE',  ( 1.000000000000000000, 1.748382715945128144E-14, 0.000000000000000000 ) ) ;
#690 = EDGE_LOOP ( 'NONE', ( #548, #7, #81, #144 ) ) ;
#691 = ORIENTED_EDGE ( 'NONE', *, *, #944, .F. ) ;
#692 = FACE_OUTER_BOUND ( 'NONE', #191, .T. ) ;
#693 = FACE_OUTER_BOUND ( 'NONE', #962, .T. ) ;
#694 = DIRECTION ( 'NONE',  ( 0.000000000000000000, 0.000000000000000000, 1.000000000000000000 ) ) ;
#695 = FACE_OUTER_BOUND ( 'NONE', #765, .T. ) ;
#697 = ADVANCED_FACE ( 'NONE', ( #544 ), #537, .T. ) ;
#696 = ORIENTED_EDGE ( 'NONE', *, *, #395, .F. ) ;
#698 = EDGE_LOOP ( 'NONE', ( #219, #523 ) ) ;
#699 = CIRCLE ( 'NONE', #630, 0.1280000000000015847 ) ;
#700 = AXIS2_PLACEMENT_3D ( 'NONE', #554, #884, #1222 ) ;
#701 = LINE ( 'NONE', #555, #327 ) ;
#702 = AXIS2_PLACEMENT_3D ( 'NONE', #734, #829, #1136 ) ;
#703 = PLANE ( 'NONE',  #832 ) ;
#704 = DIRECTION ( 'NONE',  ( 1.000000000000000000, -1.748382715945116469E-14, -0.000000000000000000 ) ) ;
#705 = EDGE_CURVE ( 'NONE', #760, #828, #736, .T. ) ;
#706 = ORIENTED_EDGE ( 'NONE', *, *, #588, .F. ) ;
#707 = CARTESIAN_POINT ( 'NONE',  ( 21.27500000000000213, -2.342000000000000970, -0.05999999999999931083 ) ) ;
#708 = LINE ( 'NONE', #483, #93 ) ;
#709 = DIRECTION ( 'NONE',  ( 0.000000000000000000, 0.000000000000000000, 1.000000000000000000 ) ) ;
#710 = ORIENTED_EDGE ( 'NONE', *, *, #576, .T. ) ;
#711 = EDGE_CURVE ( 'NONE', #889, #1204, #1287, .T. ) ;
#712 = CARTESIAN_POINT ( 'NONE',  ( 21.34500000000000597, -2.219999999999999307, 1.355946812855270964E-13 ) ) ;
#713 = DIRECTION ( 'NONE',  ( 1.000000000000000000, -2.101421533587877702E-15, 0.000000000000000000 ) ) ;
#714 = DIRECTION ( 'NONE',  ( -1.000000000000000000, 0.000000000000000000, -0.000000000000000000 ) ) ;
#715 = CARTESIAN_POINT ( 'NONE',  ( -21.27499999999998792, 2.342000000000000970, -0.06000000000000040024 ) ) ;
#716 = DIRECTION ( 'NONE',  ( 4.202843067175613408E-15, -1.000000000000000000, 0.000000000000000000 ) ) ;
#717 = EDGE_LOOP ( 'NONE', ( #858, #274, #846, #25 ) ) ;
#718 = CARTESIAN_POINT ( 'NONE',  ( 0.000000000000000000, -2.410000000000000142, 7.823379181855917436E-15 ) ) ;
#719 = DIRECTION ( 'NONE',  ( 0.000000000000000000, -1.000000000000000000, -0.000000000000000000 ) ) ;
#720 = ORIENTED_EDGE ( 'NONE', *, *, #711, .F. ) ;
#721 = EDGE_CURVE ( 'NONE', #918, #363, #331, .T. ) ;
#722 = AXIS2_PLACEMENT_3D ( 'NONE', #932, #196, #1364 ) ;
#723 = PLANE ( 'NONE',  #947 ) ;
#724 = AXIS2_PLACEMENT_3D ( 'NONE', #322, #1281, #742 ) ;
#725 = DIRECTION ( 'NONE',  ( 0.000000000000000000, -1.000000000000000000, -3.167359992654216647E-15 ) ) ;
#726 = VECTOR ( 'NONE', #1220, 39.37007874015748143 ) ;
#727 = DIRECTION ( 'NONE',  ( 0.000000000000000000, 1.000000000000000000, 3.264156610076801518E-15 ) ) ;
#728 = ORIENTED_EDGE ( 'NONE', *, *, #416, .T. ) ;
#729 = VERTEX_POINT ( 'NONE', #964 ) ;
#730 = CARTESIAN_POINT ( 'NONE',  ( 21.40500000000000469, -2.219999999999999307, -0.1279999999999999749 ) ) ;
#731 = ADVANCED_FACE ( 'NONE', ( #1185 ), #979, .F. ) ;
#732 = DIRECTION ( 'NONE',  ( 0.000000000000000000, 0.000000000000000000, 1.000000000000000000 ) ) ;
#733 = ORIENTED_EDGE ( 'NONE', *, *, #926, .F. ) ;
#734 = CARTESIAN_POINT ( 'NONE',  ( -21.27499999999999147, 2.470000000000000195, -0.7500000000000003331 ) ) ;
#735 = ORIENTED_EDGE ( 'NONE', *, *, #193, .T. ) ;
#736 = LINE ( 'NONE', #221, #1083 ) ;
#737 = EDGE_CURVE ( 'NONE', #828, #1303, #865, .T. ) ;
#738 = PLANE ( 'NONE',  #231 ) ;
#739 = ADVANCED_FACE ( 'NONE', ( #341 ), #878, .F. ) ;
#740 = ORIENTED_EDGE ( 'NONE', *, *, #1375, .T. ) ;
#741 = ORIENTED_EDGE ( 'NONE', *, *, #959, .T. ) ;
#742 = DIRECTION ( 'NONE',  ( 1.000000000000000000, 0.000000000000000000, 0.000000000000000000 ) ) ;
#743 = CARTESIAN_POINT ( 'NONE',  ( -21.27499999999998792, 2.342000000000000970, 0.000000000000000000 ) ) ;
#744 = SHAPE_DEFINITION_REPRESENTATION ( #568, #320 ) ;
#745 = CARTESIAN_POINT ( 'NONE',  ( 21.27500000000000568, 2.470000000000000195, -0.7500000000000003331 ) ) ;
#746 = VECTOR ( 'NONE', #276, 39.37007874015748143 ) ;
#747 = CIRCLE ( 'NONE', #520, 0.1279999999999998361 ) ;
#748 = ORIENTED_EDGE ( 'NONE', *, *, #1008, .T. ) ;
#749 = CARTESIAN_POINT ( 'NONE',  ( -21.27699999999999392, 2.220000000000000195, -0.1280000000000008076 ) ) ;
#750 = CIRCLE ( 'NONE', #32, 0.06799999999999965794 ) ;
#751 = EDGE_CURVE ( 'NONE', #1000, #443, #262, .T. ) ;
#752 = ORIENTED_EDGE ( 'NONE', *, *, #1257, .T. ) ;
#753 = CARTESIAN_POINT ( 'NONE',  ( 20.90900000000000603, 1.910449006669873860E-17, -0.05999999999999999778 ) ) ;
#754 = LINE ( 'NONE', #1088, #366 ) ;
#755 = ORIENTED_EDGE ( 'NONE', *, *, #571, .T. ) ;
#756 = ORIENTED_EDGE ( 'NONE', *, *, #1075, .T. ) ;
#757 = DIRECTION ( 'NONE',  ( -0.000000000000000000, -0.000000000000000000, 1.000000000000000000 ) ) ;
#758 = CYLINDRICAL_SURFACE ( 'NONE', #1286, 0.06800000000000157308 ) ;
#759 = ORIENTED_EDGE ( 'NONE', *, *, #1375, .F. ) ;
#760 = VERTEX_POINT ( 'NONE', #146 ) ;
#761 = DIRECTION ( 'NONE',  ( 2.101421533587877702E-15, 1.000000000000000000, 0.000000000000000000 ) ) ;
#762 = EDGE_CURVE ( 'NONE', #261, #1226, #1099, .T. ) ;
#763 = FACE_OUTER_BOUND ( 'NONE', #1216, .T. ) ;
#764 = AXIS2_PLACEMENT_3D ( 'NONE', #23, #447, #954 ) ;
#765 = EDGE_LOOP ( 'NONE', ( #868, #691, #927, #1312 ) ) ;
#766 = VECTOR ( 'NONE', #1230, 39.37007874015748143 ) ;
#767 = ORIENTED_EDGE ( 'NONE', *, *, #899, .F. ) ;
#768 = VECTOR ( 'NONE', #501, 39.37007874015748143 ) ;
#769 = DIRECTION ( 'NONE',  ( 0.000000000000000000, -0.000000000000000000, 1.000000000000000000 ) ) ;
#770 = DIRECTION ( 'NONE',  ( 0.000000000000000000, -1.000000000000000000, -0.000000000000000000 ) ) ;
#771 = ORIENTED_EDGE ( 'NONE', *, *, #1228, .F. ) ;
#772 = ORIENTED_EDGE ( 'NONE', *, *, #1298, .T. ) ;
#773 = DIRECTION ( 'NONE',  ( 1.000000000000000000, -0.000000000000000000, -0.000000000000000000 ) ) ;
#774 = DIRECTION ( 'NONE',  ( 0.000000000000000000, 1.000000000000000000, 0.000000000000000000 ) ) ;
#775 = CARTESIAN_POINT ( 'NONE',  ( 21.27500000000000568, -2.342000000000000970, 0.000000000000000000 ) ) ;
#776 = ORIENTED_EDGE ( 'NONE', *, *, #495, .F. ) ;
#777 = EDGE_CURVE ( 'NONE', #380, #438, #747, .T. ) ;
#778 = ORIENTED_EDGE ( 'NONE', *, *, #1162, .T. ) ;
#779 = DIRECTION ( 'NONE',  ( 0.000000000000000000, -1.000000000000000000, -0.000000000000000000 ) ) ;
#780 = LINE ( 'NONE', #1213, #559 ) ;
#781 = LINE ( 'NONE', #1214, #258 ) ;
#782 = ORIENTED_EDGE ( 'NONE', *, *, #416, .F. ) ;
#783 = AXIS2_PLACEMENT_3D ( 'NONE', #1371, #949, #727 ) ;
#784 = ORIENTED_EDGE ( 'NONE', *, *, #1065, .T. ) ;
#785 = EDGE_CURVE ( 'NONE', #760, #973, #1309, .T. ) ;
#786 = AXIS2_PLACEMENT_3D ( 'NONE', #400, #714, #825 ) ;
#787 = AXIS2_PLACEMENT_3D ( 'NONE', #892, #1100, #879 ) ;
#788 = DIRECTION ( 'NONE',  ( -1.000000000000000000, -1.748382715945128144E-14, -0.000000000000000000 ) ) ;
#789 = MECHANICAL_DESIGN_GEOMETRIC_PRESENTATION_REPRESENTATION (  '', ( #1130 ), #1378 ) ;
#790 = CARTESIAN_POINT ( 'NONE',  ( -21.27499999999999147, 2.470000000000000195, -0.7500000000000003331 ) ) ;
#791 = CARTESIAN_POINT ( 'NONE',  ( -21.27499999999999147, -2.220000000000000195, 0.000000000000000000 ) ) ;
#792 = ORIENTED_EDGE ( 'NONE', *, *, #899, .T. ) ;
#793 = ORIENTED_EDGE ( 'NONE', *, *, #894, .F. ) ;
#794 = ADVANCED_FACE ( 'NONE', ( #36 ), #1313, .F. ) ;
#795 = LINE ( 'NONE', #35, #836 ) ;
#796 = PLANE ( 'NONE',  #12 ) ;
#797 = EDGE_CURVE ( 'NONE', #126, #1182, #1034, .T. ) ;
#798 = CARTESIAN_POINT ( 'NONE',  ( 21.27700000000000458, -2.219999999999998863, -0.05999999999999924144 ) ) ;
#799 = DIRECTION ( 'NONE',  ( 1.000000000000000000, 0.000000000000000000, 0.000000000000000000 ) ) ;
#800 = FACE_OUTER_BOUND ( 'NONE', #1041, .T. ) ;
#801 = EDGE_LOOP ( 'NONE', ( #784, #728, #594, #1372 ) ) ;
#802 = CARTESIAN_POINT ( 'NONE',  ( 21.27500000000000568, -2.410000000000002807, -0.7500000000000003331 ) ) ;
#803 = CYLINDRICAL_SURFACE ( 'NONE', #138, 0.1560000000000012765 ) ;
#804 = EDGE_CURVE ( 'NONE', #828, #165, #255, .T. ) ;
#805 = LINE ( 'NONE', #178, #1333 ) ;
#806 = CARTESIAN_POINT ( 'NONE',  ( -21.22100000000000009, 1.910449006669873860E-17, -0.05999999999999999778 ) ) ;
#807 = ORIENTED_EDGE ( 'NONE', *, *, #531, .F. ) ;
#808 = AXIS2_PLACEMENT_3D ( 'NONE', #312, #186, #917 ) ;
#809 = VECTOR ( 'NONE', #1369, 39.37007874015748143 ) ;
#810 = FACE_OUTER_BOUND ( 'NONE', #130, .T. ) ;
#811 = VECTOR ( 'NONE', #1089, 39.37007874015748143 ) ;
#812 = ADVANCED_FACE ( 'NONE', ( #580 ), #994, .F. ) ;
#813 = DIRECTION ( 'NONE',  ( -0.000000000000000000, -1.000000000000000000, -0.000000000000000000 ) ) ;
#814 = DIRECTION ( 'NONE',  ( -1.000000000000000000, 2.101421533587877702E-15, 0.000000000000000000 ) ) ;
#815 = ORIENTED_EDGE ( 'NONE', *, *, #21, .T. ) ;
#816 = LINE ( 'NONE', #414, #768 ) ;
#817 = CARTESIAN_POINT ( 'NONE',  ( -21.22100000000000009, 1.910449006669861534E-17, -0.05999999999999999778 ) ) ;
#818 = CARTESIAN_POINT ( 'NONE',  ( 21.40500000000001180, 2.219999999999998419, -0.7500000000000001110 ) ) ;
#819 = CARTESIAN_POINT ( 'NONE',  ( -21.27699999999999392, 2.220000000000000195, -0.05999999999999924144 ) ) ;
#820 = ORIENTED_EDGE ( 'NONE', *, *, #1162, .F. ) ;
#821 = EDGE_CURVE ( 'NONE', #261, #1317, #1319, .T. ) ;
#822 = PLANE ( 'NONE',  #702 ) ;
#823 = VERTEX_POINT ( 'NONE', #1014 ) ;
#824 = CARTESIAN_POINT ( 'NONE',  ( 21.34500000000000597, 0.000000000000000000, 1.355946812855270711E-13 ) ) ;
#825 = DIRECTION ( 'NONE',  ( 0.000000000000000000, 0.000000000000000000, -1.000000000000000000 ) ) ;
#826 = CARTESIAN_POINT ( 'NONE',  ( 21.27500000000000568, 2.470000000000000195, 0.000000000000000000 ) ) ;
#827 = DIRECTION ( 'NONE',  ( 0.000000000000000000, 1.000000000000000000, 0.000000000000000000 ) ) ;
#828 = VERTEX_POINT ( 'NONE', #453 ) ;
#829 = DIRECTION ( 'NONE',  ( 1.000000000000000000, 1.748382715945128144E-14, 0.000000000000000000 ) ) ;
#830 = EDGE_CURVE ( 'NONE', #20, #1218, #1212, .T. ) ;
#831 = EDGE_LOOP ( 'NONE', ( #440, #245, #578, #577 ) ) ;
#832 = AXIS2_PLACEMENT_3D ( 'NONE', #931, #1237, #490 ) ;
#833 = VECTOR ( 'NONE', #1232, 39.37007874015748143 ) ;
#834 = CARTESIAN_POINT ( 'NONE',  ( -21.40499999999999403, -2.220000000000000195, -0.7500000000000003331 ) ) ;
#835 = AXIS2_PLACEMENT_3D ( 'NONE', #43, #564, #256 ) ;
#836 = VECTOR ( 'NONE', #268, 39.37007874015748143 ) ;
#837 = PLANE ( 'NONE',  #1241 ) ;
#838 = VECTOR ( 'NONE', #64, 39.37007874015748143 ) ;
#839 = ORIENTED_EDGE ( 'NONE', *, *, #1348, .T. ) ;
#840 = EDGE_LOOP ( 'NONE', ( #1073, #1066, #424, #863 ) ) ;
#841 = DIRECTION ( 'NONE',  ( -0.000000000000000000, -0.000000000000000000, 1.000000000000000000 ) ) ;
#842 = ADVANCED_FACE ( 'NONE', ( #569 ), #1001, .F. ) ;
#843 = LINE ( 'NONE', #819, #1080 ) ;
#844 = EDGE_LOOP ( 'NONE', ( #929, #1304, #1346, #168 ) ) ;
#845 = PRODUCT_DEFINITION_CONTEXT ( 'detailed design', #1223, 'design' ) ;
#846 = ORIENTED_EDGE ( 'NONE', *, *, #1194, .F. ) ;
#847 = CARTESIAN_POINT ( 'NONE',  ( -21.34499999999999531, -2.220000000000000195, 1.355946812855269954E-13 ) ) ;
#848 = PRODUCT_CONTEXT ( 'NONE', #875, 'mechanical' ) ;
#850 = EDGE_CURVE ( 'NONE', #1150, #266, #387, .T. ) ;
#849 = CARTESIAN_POINT ( 'NONE',  ( 21.40500000000000469, -2.470000000000002416, -0.7500000000000001110 ) ) ;
#851 = EDGE_LOOP ( 'NONE', ( #6, #283, #771, #309 ) ) ;
#852 = EDGE_LOOP ( 'NONE', ( #676, #14, #345, #989 ) ) ;
#853 = DIRECTION ( 'NONE',  ( -6.334719985308433293E-15, 0.000000000000000000, -1.000000000000000000 ) ) ;
#854 = DIRECTION ( 'NONE',  ( -0.000000000000000000, -0.000000000000000000, 1.000000000000000000 ) ) ;
#855 = CARTESIAN_POINT ( 'NONE',  ( 21.40500000000000469, 2.219999999999998419, -0.1279999999999999749 ) ) ;
#856 = AXIS2_PLACEMENT_3D ( 'NONE', #1261, #287, #709 ) ;
#857 = VECTOR ( 'NONE', #1301, 39.37007874015748143 ) ;
#858 = ORIENTED_EDGE ( 'NONE', *, *, #1135, .F. ) ;
#859 = VERTEX_POINT ( 'NONE', #152 ) ;
#860 = DIRECTION ( 'NONE',  ( 1.000000000000000000, 0.000000000000000000, -6.334719985308433293E-15 ) ) ;
#861 = CARTESIAN_POINT ( 'NONE',  ( 0.000000000000000000, 0.000000000000000000, -0.05999999999999999778 ) ) ;
#862 = ORIENTED_EDGE ( 'NONE', *, *, #5, .F. ) ;
#863 = ORIENTED_EDGE ( 'NONE', *, *, #531, .T. ) ;
#864 = ADVANCED_FACE ( 'NONE', ( #891 ), #796, .F. ) ;
#865 = LINE ( 'NONE', #127, #857 ) ;
#866 = DIRECTION ( 'NONE',  ( -0.000000000000000000, 1.000000000000000000, -0.000000000000000000 ) ) ;
#867 = ORIENTED_EDGE ( 'NONE', *, *, #15, .F. ) ;
#868 = ORIENTED_EDGE ( 'NONE', *, *, #576, .F. ) ;
#869 = EDGE_CURVE ( 'NONE', #1226, #86, #48, .T. ) ;
#870 = DIRECTION ( 'NONE',  ( 0.000000000000000000, 0.000000000000000000, 1.000000000000000000 ) ) ;
#871 = DIRECTION ( 'NONE',  ( -1.000000000000000000, -0.000000000000000000, -0.000000000000000000 ) ) ;
#872 = VECTOR ( 'NONE', #1327, 39.37007874015748143 ) ;
#873 = ORIENTED_EDGE ( 'NONE', *, *, #880, .T. ) ;
#874 = AXIS2_PLACEMENT_3D ( 'NONE', #137, #672, #133 ) ;
#875 = APPLICATION_CONTEXT ( 'automotive_design' ) ;
#876 = VERTEX_POINT ( 'NONE', #1336 ) ;
#877 = AXIS2_PLACEMENT_3D ( 'NONE', #296, #719, #307 ) ;
#878 = CYLINDRICAL_SURFACE ( 'NONE', #1377, 0.1560000000000012765 ) ;
#879 = DIRECTION ( 'NONE',  ( -1.748382715945116469E-14, -1.000000000000000000, 0.000000000000000000 ) ) ;
#880 = EDGE_CURVE ( 'NONE', #1293, #266, #1227, .T. ) ;
#881 = ORIENTED_EDGE ( 'NONE', *, *, #27, .F. ) ;
#882 = EDGE_LOOP ( 'NONE', ( #616, #1010, #457, #509 ) ) ;
#883 = PRESENTATION_STYLE_ASSIGNMENT (( #459 ) ) ;
#884 = DIRECTION ( 'NONE',  ( 1.000000000000000000, 0.000000000000000000, -6.334719985308433293E-15 ) ) ;
#885 = DIRECTION ( 'NONE',  ( 0.000000000000000000, 0.000000000000000000, -1.000000000000000000 ) ) ;
#886 = ADVANCED_FACE ( 'NONE', ( #693 ), #241, .T. ) ;
#887 = CARTESIAN_POINT ( 'NONE',  ( -21.06499999999999773, 0.000000000000000000, 0.000000000000000000 ) ) ;
#888 = DIRECTION ( 'NONE',  ( 4.202843067175613408E-15, -1.000000000000000000, 0.000000000000000000 ) ) ;
#889 = VERTEX_POINT ( 'NONE', #641 ) ;
#890 = LENGTH_MEASURE_WITH_UNIT ( LENGTH_MEASURE( 0.02539999999999999897 ), #466 );
#891 = FACE_OUTER_BOUND ( 'NONE', #897, .T. ) ;
#892 = CARTESIAN_POINT ( 'NONE',  ( 21.27500000000000568, 2.470000000000000195, -0.7500000000000003331 ) ) ;
#893 = LINE ( 'NONE', #1316, #833 ) ;
#894 = EDGE_CURVE ( 'NONE', #126, #943, #1056, .T. ) ;
#895 = VECTOR ( 'NONE', #1350, 39.37007874015748143 ) ;
#896 = CARTESIAN_POINT ( 'NONE',  ( -21.34499999999999531, -2.220000000000000195, -0.1280000000000003912 ) ) ;
#897 = EDGE_LOOP ( 'NONE', ( #125, #955, #635, #135 ) ) ;
#898 = CIRCLE ( 'NONE', #1128, 0.1279999999999996696 ) ;
#899 = EDGE_CURVE ( 'NONE', #640, #229, #349, .T. ) ;
#900 = DIRECTION ( 'NONE',  ( -1.748382715945128144E-14, 1.000000000000000000, 0.000000000000000000 ) ) ;
#901 = DIRECTION ( 'NONE',  ( 1.000000000000000000, 0.000000000000000000, 0.000000000000000000 ) ) ;
#902 = CARTESIAN_POINT ( 'NONE',  ( 0.000000000000000000, -2.470000000000002416, -0.7500000000000001110 ) ) ;
#903 = CARTESIAN_POINT ( 'NONE',  ( 21.27500000000000213, 2.219999999999998419, 0.000000000000000000 ) ) ;
#904 = CARTESIAN_POINT ( 'NONE',  ( 21.27500000000000213, 2.342000000000000970, -0.1280000000000000582 ) ) ;
#905 = ORIENTED_EDGE ( 'NONE', *, *, #721, .T. ) ;
#906 = PLANE ( 'NONE',  #1037 ) ;
#907 = EDGE_CURVE ( 'NONE', #1279, #1293, #103, .T. ) ;
#908 = DIRECTION ( 'NONE',  ( 0.000000000000000000, 0.000000000000000000, -1.000000000000000000 ) ) ;
#909 = DIRECTION ( 'NONE',  ( 0.000000000000000000, 0.000000000000000000, 1.000000000000000000 ) ) ;
#910 = CARTESIAN_POINT ( 'NONE',  ( -21.40499999999999403, 2.219999999999999751, -0.1279999999999999749 ) ) ;
#911 = DIRECTION ( 'NONE',  ( -3.414809992080340718E-14, -1.000000000000000000, 0.000000000000000000 ) ) ;
#912 = ORIENTED_EDGE ( 'NONE', *, *, #830, .T. ) ;
#913 = EDGE_CURVE ( 'NONE', #158, #156, #198, .T. ) ;
#914 = DIRECTION ( 'NONE',  ( 1.000000000000000000, -0.000000000000000000, -0.000000000000000000 ) ) ;
#915 = DIRECTION ( 'NONE',  ( 1.000000000000000000, 0.000000000000000000, 0.000000000000000000 ) ) ;
#916 = DIRECTION ( 'NONE',  ( -1.000000000000000000, 0.000000000000000000, 0.000000000000000000 ) ) ;
#917 = DIRECTION ( 'NONE',  ( 1.000000000000000000, 0.000000000000000000, 0.000000000000000000 ) ) ;
#918 = VERTEX_POINT ( 'NONE', #326 ) ;
#919 = VECTOR ( 'NONE', #1115, 39.37007874015748143 ) ;
#920 = AXIS2_PLACEMENT_3D ( 'NONE', #467, #1199, #1114 ) ;
#921 = CARTESIAN_POINT ( 'NONE',  ( 21.34500000000000597, 2.219999999999998419, -0.1280000000000003912 ) ) ;
#922 = CARTESIAN_POINT ( 'NONE',  ( -21.27499999999998792, 2.220000000000000195, -0.7500000000000003331 ) ) ;
#923 = AXIS2_PLACEMENT_3D ( 'NONE', #981, #155, #371 ) ;
#924 = DIRECTION ( 'NONE',  ( 0.000000000000000000, -1.000000000000000000, 3.201384367575312521E-15 ) ) ;
#926 = EDGE_CURVE ( 'NONE', #206, #380, #956, .T. ) ;
#925 = LINE ( 'NONE', #1156, #187 ) ;
#927 = ORIENTED_EDGE ( 'NONE', *, *, #590, .F. ) ;
#928 = CARTESIAN_POINT ( 'NONE',  ( 21.40500000000000469, 2.219999999999998419, -0.7500000000000003331 ) ) ;
#929 = ORIENTED_EDGE ( 'NONE', *, *, #278, .T. ) ;
#930 = DIRECTION ( 'NONE',  ( 0.000000000000000000, 0.000000000000000000, 1.000000000000000000 ) ) ;
#931 = CARTESIAN_POINT ( 'NONE',  ( -21.27499999999999147, -2.470000000000000195, -0.7500000000000003331 ) ) ;
#932 = CARTESIAN_POINT ( 'NONE',  ( -21.06499999999999773, 0.000000000000000000, -0.05999999999999999778 ) ) ;
#933 = ADVANCED_FACE ( 'NONE', ( #1373 ), #92, .F. ) ;
#934 = VERTEX_POINT ( 'NONE', #62 ) ;
#935 = DIRECTION ( 'NONE',  ( 1.000000000000000000, 0.000000000000000000, 3.491481338843134539E-15 ) ) ;
#936 = DIRECTION ( 'NONE',  ( 6.334719985308433293E-15, -1.331191698637662724E-29, -1.000000000000000000 ) ) ;
#937 = LINE ( 'NONE', #730, #11 ) ;
#938 = CARTESIAN_POINT ( 'NONE',  ( 21.27500000000000568, 2.410000000000002807, -0.7500000000000003331 ) ) ;
#939 = ORIENTED_EDGE ( 'NONE', *, *, #1116, .F. ) ;
#940 = UNCERTAINTY_MEASURE_WITH_UNIT (LENGTH_MEASURE( 1.000000000000000082E-05 ), #3, 'distance_accuracy_value', 'NONE');
#941 = DIRECTION ( 'NONE',  ( -1.000000000000000000, -0.000000000000000000, -0.000000000000000000 ) ) ;
#942 = EDGE_CURVE ( 'NONE', #1299, #1218, #170, .T. ) ;
#943 = VERTEX_POINT ( 'NONE', #399 ) ;
#944 = EDGE_CURVE ( 'NONE', #1242, #353, #582, .T. ) ;
#945 = VECTOR ( 'NONE', #281, 39.37007874015748143 ) ;
#946 = DIRECTION ( 'NONE',  ( -1.000000000000000000, 0.000000000000000000, -6.829619984160793139E-15 ) ) ;
#947 = AXIS2_PLACEMENT_3D ( 'NONE', #385, #1356, #392 ) ;
#948 = AXIS2_PLACEMENT_3D ( 'NONE', #110, #535, #1177 ) ;
#949 = DIRECTION ( 'NONE',  ( 1.000000000000000000, 0.000000000000000000, 0.000000000000000000 ) ) ;
#950 = EDGE_LOOP ( 'NONE', ( #1352, #755, #507, #111 ) ) ;
#951 = EDGE_LOOP ( 'NONE', ( #551, #1368, #782, #542 ) ) ;
#952 = EDGE_CURVE ( 'NONE', #1085, #438, #1246, .T. ) ;
#953 = DIRECTION ( 'NONE',  ( -0.000000000000000000, -0.000000000000000000, 1.000000000000000000 ) ) ;
#954 = DIRECTION ( 'NONE',  ( 0.000000000000000000, 0.000000000000000000, -1.000000000000000000 ) ) ;
#955 = ORIENTED_EDGE ( 'NONE', *, *, #356, .F. ) ;
#956 = LINE ( 'NONE', #514, #166 ) ;
#957 = VERTEX_POINT ( 'NONE', #802 ) ;
#958 = FACE_OUTER_BOUND ( 'NONE', #1078, .T. ) ;
#959 = EDGE_CURVE ( 'NONE', #363, #521, #121, .T. ) ;
#960 = DIRECTION ( 'NONE',  ( 0.000000000000000000, 0.000000000000000000, 1.000000000000000000 ) ) ;
#961 = DIRECTION ( 'NONE',  ( 0.000000000000000000, 0.000000000000000000, 1.000000000000000000 ) ) ;
#962 = EDGE_LOOP ( 'NONE', ( #776, #647, #59, #1077 ) ) ;
#963 = ORIENTED_EDGE ( 'NONE', *, *, #539, .F. ) ;
#964 = CARTESIAN_POINT ( 'NONE',  ( 21.40500000000000469, -2.219999999999999307, -0.7500000000000003331 ) ) ;
#965 = VECTOR ( 'NONE', #286, 39.37007874015748143 ) ;
#966 = AXIS2_PLACEMENT_3D ( 'NONE', #861, #1290, #437 ) ;
#967 = LINE ( 'NONE', #337, #50 ) ;
#968 = AXIS2_PLACEMENT_3D ( 'NONE', #10, #644, #216 ) ;
#969 = VECTOR ( 'NONE', #473, 39.37007874015748143 ) ;
#970 = EDGE_CURVE ( 'NONE', #546, #685, #98, .T. ) ;
#971 = ORIENTED_EDGE ( 'NONE', *, *, #495, .T. ) ;
#972 = AXIS2_PLACEMENT_3D ( 'NONE', #1028, #914, #1235 ) ;
#973 = VERTEX_POINT ( 'NONE', #921 ) ;
#974 = PLANE ( 'NONE',  #968 ) ;
#975 = CARTESIAN_POINT ( 'NONE',  ( 21.27500000000000568, -2.470000000000000639, -0.7500000000000003331 ) ) ;
#976 = EDGE_LOOP ( 'NONE', ( #706, #325 ) ) ;
#977 = EDGE_CURVE ( 'NONE', #589, #876, #1355, .T. ) ;
#978 = EDGE_LOOP ( 'NONE', ( #1055, #1187, #1164, #623 ) ) ;
#979 = PLANE ( 'NONE',  #1173 ) ;
#980 = DIRECTION ( 'NONE',  ( 0.000000000000000000, 1.000000000000000000, 0.000000000000000000 ) ) ;
#981 = CARTESIAN_POINT ( 'NONE',  ( -21.06499999999999773, 0.000000000000000000, 0.000000000000000000 ) ) ;
#982 = ORIENTED_EDGE ( 'NONE', *, *, #45, .T. ) ;
#983 = EDGE_CURVE ( 'NONE', #72, #1279, #1143, .T. ) ;
#984 = ORIENTED_EDGE ( 'NONE', *, *, #403, .F. ) ;
#985 = ADVANCED_FACE ( 'NONE', ( #604 ), #1361, .T. ) ;
#986 = DIRECTION ( 'NONE',  ( 0.000000000000000000, 0.000000000000000000, 1.000000000000000000 ) ) ;
#987 = PLANE ( 'NONE',  #496 ) ;
#988 = VECTOR ( 'NONE', #1133, 39.37007874015748143 ) ;
#989 = ORIENTED_EDGE ( 'NONE', *, *, #762, .F. ) ;
#990 = AXIS2_PLACEMENT_3D ( 'NONE', #460, #779, #908 ) ;
#991 = ORIENTED_EDGE ( 'NONE', *, *, #263, .F. ) ;
#992 = VECTOR ( 'NONE', #488, 39.37007874015748143 ) ;
#993 = CARTESIAN_POINT ( 'NONE',  ( 21.40500000000000469, 2.219999999999998419, 0.000000000000000000 ) ) ;
#994 = PLANE ( 'NONE',  #990 ) ;
#995 = EDGE_CURVE ( 'NONE', #1299, #640, #408, .T. ) ;
#996 = DIRECTION ( 'NONE',  ( -2.101421533587877702E-15, -1.000000000000000000, -0.000000000000000000 ) ) ;
#997 = CARTESIAN_POINT ( 'NONE',  ( 21.27700000000000458, -2.402928932188135303, -0.05999999999999924144 ) ) ;
#998 = LINE ( 'NONE', #39, #1215 ) ;
#999 = PRODUCT ( '12-D-6080-07-(16gacr ANSI-61) - K48 - V4-R0', '12-D-6080-07-(16gacr ANSI-61) - K48 - V4-R0', '', ( #848 ) ) ;
#1000 = VERTEX_POINT ( 'NONE', #100 ) ;
#1001 = PLANE ( 'NONE',  #1243 ) ;
#1002 = CYLINDRICAL_SURFACE ( 'NONE', #835, 0.1280000000000003912 ) ;
#1003 = LINE ( 'NONE', #143, #1307 ) ;
#1004 = ORIENTED_EDGE ( 'NONE', *, *, #105, .F. ) ;
#1005 = DIRECTION ( 'NONE',  ( -1.000000000000000000, 2.101421533587877702E-15, 0.000000000000000000 ) ) ;
#1006 = DIRECTION ( 'NONE',  ( -1.000000000000000000, 0.000000000000000000, 0.000000000000000000 ) ) ;
#1007 = ORIENTED_EDGE ( 'NONE', *, *, #1385, .F. ) ;
#1008 = EDGE_CURVE ( 'NONE', #546, #589, #525, .T. ) ;
#1009 = AXIS2_PLACEMENT_3D ( 'NONE', #975, #651, #332 ) ;
#1010 = ORIENTED_EDGE ( 'NONE', *, *, #1228, .T. ) ;
#1011 = AXIS2_PLACEMENT_3D ( 'NONE', #648, #761, #22 ) ;
#1012 = SURFACE_STYLE_FILL_AREA ( #1107 ) ;
#1013 = VECTOR ( 'NONE', #503, 39.37007874015748143 ) ;
#1014 = CARTESIAN_POINT ( 'NONE',  ( 21.27500000000000568, 2.470000000000000195, -0.7500000000000003331 ) ) ;
#1015 = PRODUCT_DEFINITION_FORMATION_WITH_SPECIFIED_SOURCE ( 'ANY', '', #999, .NOT_KNOWN. ) ;
#1016 = DIRECTION ( 'NONE',  ( 0.000000000000000000, -1.000000000000000000, 0.000000000000000000 ) ) ;
#1017 = PLANE ( 'NONE',  #631 ) ;
#1018 = CARTESIAN_POINT ( 'NONE',  ( -21.40499999999999403, 2.219999999999999751, -0.7500000000000003331 ) ) ;
#1019 = CARTESIAN_POINT ( 'NONE',  ( -21.27699999999999392, -2.220000000000000195, 0.000000000000000000 ) ) ;
#1020 = ORIENTED_EDGE ( 'NONE', *, *, #983, .T. ) ;
#1021 = EDGE_CURVE ( 'NONE', #380, #1297, #323, .T. ) ;
#1022 = CARTESIAN_POINT ( 'NONE',  ( -21.33792893218812736, -2.342000000000000970, 7.000360483764674127E-16 ) ) ;
#1023 = DIRECTION ( 'NONE',  ( 0.000000000000000000, 0.000000000000000000, 1.000000000000000000 ) ) ;
#1024 = CARTESIAN_POINT ( 'NONE',  ( -21.33792893218812736, -2.342000000000000970, -0.1279999999999989757 ) ) ;
#1025 = ORIENTED_EDGE ( 'NONE', *, *, #737, .F. ) ;
#1026 = ORIENTED_EDGE ( 'NONE', *, *, #27, .T. ) ;
#1027 = ADVANCED_FACE ( 'NONE', ( #638 ), #107, .F. ) ;
#1028 = CARTESIAN_POINT ( 'NONE',  ( 21.27500000000000213, -2.342000000000000970, -0.1279999999999989757 ) ) ;
#1029 = DIRECTION ( 'NONE',  ( -1.000000000000000000, 2.134256245050199144E-15, 0.000000000000000000 ) ) ;
#1030 = DIRECTION ( 'NONE',  ( 0.000000000000000000, 0.000000000000000000, 1.000000000000000000 ) ) ;
#1031 = FACE_OUTER_BOUND ( 'NONE', #1050, .T. ) ;
#1032 = ORIENTED_EDGE ( 'NONE', *, *, #970, .F. ) ;
#1033 = CIRCLE ( 'NONE', #432, 0.06799999999999965794 ) ;
#1034 = CIRCLE ( 'NONE', #874, 0.06800000000000157308 ) ;
#1035 = DIRECTION ( 'NONE',  ( 1.000000000000000000, 0.000000000000000000, 0.000000000000000000 ) ) ;
#1036 = CARTESIAN_POINT ( 'NONE',  ( 0.000000000000000000, -2.220000000000000195, -0.05999999999999999778 ) ) ;
#1037 = AXIS2_PLACEMENT_3D ( 'NONE', #686, #145, #900 ) ;
#1038 = ADVANCED_FACE ( 'NONE', ( #428 ), #906, .F. ) ;
#1039 = CARTESIAN_POINT ( 'NONE',  ( 21.27500000000000568, -2.470000000000000639, 0.000000000000000000 ) ) ;
#1040 = CARTESIAN_POINT ( 'NONE',  ( 21.40500000000000469, -2.219999999999999307, -0.7500000000000003331 ) ) ;
#1041 = EDGE_LOOP ( 'NONE', ( #593, #772, #1359, #1389 ) ) ;
#1042 = DIRECTION ( 'NONE',  ( -4.202843067175613408E-15, 1.000000000000000000, -0.000000000000000000 ) ) ;
#1043 = DIRECTION ( 'NONE',  ( 0.000000000000000000, 0.000000000000000000, -1.000000000000000000 ) ) ;
#1044 = ORIENTED_EDGE ( 'NONE', *, *, #55, .F. ) ;
#1045 = FACE_OUTER_BOUND ( 'NONE', #882, .T. ) ;
#1046 = EDGE_CURVE ( 'NONE', #1317, #546, #1335, .T. ) ;
#1047 = DIRECTION ( 'NONE',  ( 0.000000000000000000, 1.000000000000000000, 2.276539994720233351E-15 ) ) ;
#1048 = FACE_OUTER_BOUND ( 'NONE', #852, .T. ) ;
#1049 = EDGE_CURVE ( 'NONE', #685, #1052, #795, .T. ) ;
#1050 = EDGE_LOOP ( 'NONE', ( #334, #815, #778, #402 ) ) ;
#1051 = DIRECTION ( 'NONE',  ( 0.000000000000000000, 1.000000000000000000, -3.167359992654216647E-15 ) ) ;
#1052 = VERTEX_POINT ( 'NONE', #41 ) ;
#1053 = PLANE ( 'NONE',  #561 ) ;
#1054 = DIRECTION ( 'NONE',  ( 0.000000000000000000, 0.000000000000000000, -1.000000000000000000 ) ) ;
#1055 = ORIENTED_EDGE ( 'NONE', *, *, #602, .T. ) ;
#1056 = LINE ( 'NONE', #633, #634 ) ;
#1057 = ADVANCED_FACE ( 'NONE', ( #692 ), #1120, .F. ) ;
#1058 = CARTESIAN_POINT ( 'NONE',  ( -21.27499999999999147, -2.410000000000002807, -0.7500000000000003331 ) ) ;
#1059 = ORIENTED_EDGE ( 'NONE', *, *, #1091, .F. ) ;
#1060 = PLANE ( 'NONE',  #1151 ) ;
#1061 = VECTOR ( 'NONE', #360, 39.37007874015748143 ) ;
#1062 = PRESENTATION_LAYER_ASSIGNMENT (  '', '', ( #1130 ) ) ;
#1063 = LINE ( 'NONE', #70, #519 ) ;
#1064 = ORIENTED_EDGE ( 'NONE', *, *, #649, .T. ) ;
#1065 = EDGE_CURVE ( 'NONE', #1303, #1150, #1318, .T. ) ;
#1066 = ORIENTED_EDGE ( 'NONE', *, *, #995, .F. ) ;
#1067 = DIRECTION ( 'NONE',  ( 0.000000000000000000, -3.491481338843134539E-15, 1.000000000000000000 ) ) ;
#1068 = CARTESIAN_POINT ( 'NONE',  ( 21.27500000000000568, -2.219999999999998863, 0.000000000000000000 ) ) ;
#1069 = CARTESIAN_POINT ( 'NONE',  ( -21.22100000000000009, 1.910449006669861534E-17, 0.000000000000000000 ) ) ;
#1070 = MANIFOLD_SOLID_BREP ( 'Cortar-Extruir1', #677 ) ;
#1071 = ORIENTED_EDGE ( 'NONE', *, *, #1179, .T. ) ;
#1072 = CARTESIAN_POINT ( 'NONE',  ( 21.40500000000001180, 2.219999999999998419, -0.7500000000000001110 ) ) ;
#1073 = ORIENTED_EDGE ( 'NONE', *, *, #45, .F. ) ;
#1074 = DIRECTION ( 'NONE',  ( 0.000000000000000000, -1.000000000000000000, -3.491481338843134539E-15 ) ) ;
#1075 = EDGE_CURVE ( 'NONE', #589, #1388, #169, .T. ) ;
#1076 = CARTESIAN_POINT ( 'NONE',  ( -21.27499999999998792, 2.220000000000000195, -0.06000000000000004635 ) ) ;
#1077 = ORIENTED_EDGE ( 'NONE', *, *, #595, .F. ) ;
#1078 = EDGE_LOOP ( 'NONE', ( #321, #1258, #1020, #1360 ) ) ;
#1079 = CARTESIAN_POINT ( 'NONE',  ( -21.27499999999999147, -2.470000000000000195, -0.7500000000000003331 ) ) ;
#1080 = VECTOR ( 'NONE', #732, 39.37007874015748143 ) ;
#1082 = EDGE_CURVE ( 'NONE', #116, #1086, #1205, .T. ) ;
#1081 = DIRECTION ( 'NONE',  ( -0.000000000000000000, -0.000000000000000000, 1.000000000000000000 ) ) ;
#1083 = VECTOR ( 'NONE', #524, 39.37007874015748143 ) ;
#1084 = VECTOR ( 'NONE', #935, 39.37007874015748143 ) ;
#1085 = VERTEX_POINT ( 'NONE', #1325 ) ;
#1086 = VERTEX_POINT ( 'NONE', #1058 ) ;
#1087 = CARTESIAN_POINT ( 'NONE',  ( -21.34499999999999531, -2.220000000000000195, -0.1280000000000003912 ) ) ;
#1088 = CARTESIAN_POINT ( 'NONE',  ( -21.40499999999999403, 2.410000000000002807, -0.7500000000000003331 ) ) ;
#1089 = DIRECTION ( 'NONE',  ( -6.334719985308433293E-15, 0.000000000000000000, 1.000000000000000000 ) ) ;
#1090 = ORIENTED_EDGE ( 'NONE', *, *, #649, .F. ) ;
#1091 = EDGE_CURVE ( 'NONE', #1085, #859, #816, .T. ) ;
#1092 = ORIENTED_EDGE ( 'NONE', *, *, #193, .F. ) ;
#1093 = CARTESIAN_POINT ( 'NONE',  ( -21.40499999999999403, -2.220000000000000195, 0.000000000000000000 ) ) ;
#1094 = PLANE ( 'NONE',  #1374 ) ;
#1095 = CARTESIAN_POINT ( 'NONE',  ( 21.34500000000000597, 2.219999999999998419, 1.355946812855270711E-13 ) ) ;
#1096 = ORIENTED_EDGE ( 'NONE', *, *, #236, .F. ) ;
#1097 = ORIENTED_EDGE ( 'NONE', *, *, #1201, .F. ) ;
#1098 = ADVANCED_FACE ( 'NONE', ( #1274 ), #1252, .F. ) ;
#1099 = LINE ( 'NONE', #480, #1353 ) ;
#1100 = DIRECTION ( 'NONE',  ( -1.000000000000000000, 1.748382715945116469E-14, 0.000000000000000000 ) ) ;
#1101 = LINE ( 'NONE', #565, #499 ) ;
#1102 = CARTESIAN_POINT ( 'NONE',  ( 21.27500000000000568, 2.470000000000000195, -0.7500000000000003331 ) ) ;
#1103 = VECTOR ( 'NONE', #841, 39.37007874015748143 ) ;
#1104 = LINE ( 'NONE', #896, #454 ) ;
#1105 = ORIENTED_EDGE ( 'NONE', *, *, #430, .T. ) ;
#1106 = VECTOR ( 'NONE', #854, 39.37007874015748143 ) ;
#1107 = FILL_AREA_STYLE ('',( #579 ) ) ;
#1108 = DIRECTION ( 'NONE',  ( -1.000000000000000000, -0.000000000000000000, -0.000000000000000000 ) ) ;
#1109 = FACE_OUTER_BOUND ( 'NONE', #1291, .T. ) ;
#1110 = CARTESIAN_POINT ( 'NONE',  ( 21.40500000000001180, 0.000000000000000000, -0.7500000000000001110 ) ) ;
#1111 = ORIENTED_EDGE ( 'NONE', *, *, #913, .T. ) ;
#1112 = EDGE_LOOP ( 'NONE', ( #971, #527, #180, #867 ) ) ;
#1113 = DIRECTION ( 'NONE',  ( -0.000000000000000000, -0.000000000000000000, 1.000000000000000000 ) ) ;
#1114 = DIRECTION ( 'NONE',  ( 0.000000000000000000, 0.000000000000000000, -1.000000000000000000 ) ) ;
#1115 = DIRECTION ( 'NONE',  ( -1.748382715945128144E-14, 1.000000000000000000, -0.000000000000000000 ) ) ;
#1116 = EDGE_CURVE ( 'NONE', #328, #1150, #314, .T. ) ;
#1117 = CARTESIAN_POINT ( 'NONE',  ( -21.27499999999999147, -2.470000000000000195, -0.1279999999999980598 ) ) ;
#1118 = ORIENTED_EDGE ( 'NONE', *, *, #406, .T. ) ;
#1119 = ORIENTED_EDGE ( 'NONE', *, *, #78, .F. ) ;
#1120 = CYLINDRICAL_SURFACE ( 'NONE', #74, 0.06800000000000157308 ) ;
#1121 = DIRECTION ( 'NONE',  ( 0.000000000000000000, 0.000000000000000000, 1.000000000000000000 ) ) ;
#1122 = CARTESIAN_POINT ( 'NONE',  ( 21.34500000000000597, 2.219999999999998419, -0.1280000000000003912 ) ) ;
#1123 = ADVANCED_FACE ( 'NONE', ( #601 ), #290, .F. ) ;
#1124 = CARTESIAN_POINT ( 'NONE',  ( 21.06500000000000838, 0.000000000000000000, -0.05999999999999999778 ) ) ;
#1125 = CARTESIAN_POINT ( 'NONE',  ( -21.27499999999999147, -2.342000000000000970, -0.05999999999999931083 ) ) ;
#1126 = VECTOR ( 'NONE', #587, 39.37007874015748143 ) ;
#1127 = EDGE_LOOP ( 'NONE', ( #26, #1157, #485, #225 ) ) ;
#1128 = AXIS2_PLACEMENT_3D ( 'NONE', #1253, #292, #930 ) ;
#1129 = CARTESIAN_POINT ( 'NONE',  ( 21.27700000000000458, -2.402928932188135303, -0.1280000000000008076 ) ) ;
#1130 = STYLED_ITEM ( 'NONE', ( #883 ), #1070 ) ;
#1131 = CARTESIAN_POINT ( 'NONE',  ( 21.22100000000000719, 0.000000000000000000, 0.000000000000000000 ) ) ;
#1132 = DIRECTION ( 'NONE',  ( -1.000000000000000000, 0.000000000000000000, 6.269377719834960576E-15 ) ) ;
#1133 = DIRECTION ( 'NONE',  ( 0.000000000000000000, -1.000000000000000000, 3.491481338843134539E-15 ) ) ;
#1134 = ORIENTED_EDGE ( 'NONE', *, *, #977, .F. ) ;
#1135 = EDGE_CURVE ( 'NONE', #1163, #72, #80, .T. ) ;
#1136 = DIRECTION ( 'NONE',  ( -1.748382715945128144E-14, 1.000000000000000000, 0.000000000000000000 ) ) ;
#1137 = DIRECTION ( 'NONE',  ( 1.000000000000000000, 0.000000000000000000, 0.000000000000000000 ) ) ;
#1138 = CARTESIAN_POINT ( 'NONE',  ( -9.330311609130237122E-15, 2.220000000000089457, -0.05999999999999999778 ) ) ;
#1139 = FACE_BOUND ( 'NONE', #384, .T. ) ;
#1140 = ORIENTED_EDGE ( 'NONE', *, *, #880, .F. ) ;
#1141 = CARTESIAN_POINT ( 'NONE',  ( 21.27700000000000458, 2.219999999999998419, 0.000000000000000000 ) ) ;
#1142 = ADVANCED_FACE ( 'NONE', ( #404 ), #822, .F. ) ;
#1143 = LINE ( 'NONE', #183, #1013 ) ;
#1144 = CARTESIAN_POINT ( 'NONE',  ( 21.40500000000000469, -2.410000000000000586, -0.1279999999999992810 ) ) ;
#1145 = DIRECTION ( 'NONE',  ( -0.000000000000000000, 1.000000000000000000, -0.000000000000000000 ) ) ;
#1146 = DIRECTION ( 'NONE',  ( 1.000000000000000000, 4.202843067175613408E-15, 0.000000000000000000 ) ) ;
#1147 = EDGE_LOOP ( 'NONE', ( #1365, #1225, #748, #756 ) ) ;
#1148 = CIRCLE ( 'NONE', #808, 0.1560000000000012765 ) ;
#1149 = LINE ( 'NONE', #199, #282 ) ;
#1150 = VERTEX_POINT ( 'NONE', #1141 ) ;
#1151 = AXIS2_PLACEMENT_3D ( 'NONE', #1165, #1067, #1074 ) ;
#1152 = AXIS2_PLACEMENT_3D ( 'NONE', #718, #1051, #610 ) ;
#1153 = LINE ( 'NONE', #922, #1288 ) ;
#1154 = ADVANCED_FACE ( 'NONE', ( #1265 ), #181, .F. ) ;
#1155 = FACE_OUTER_BOUND ( 'NONE', #87, .T. ) ;
#1156 = CARTESIAN_POINT ( 'NONE',  ( 21.27500000000000568, -2.342000000000000970, 0.000000000000000000 ) ) ;
#1157 = ORIENTED_EDGE ( 'NONE', *, *, #1091, .T. ) ;
#1158 = UNCERTAINTY_MEASURE_WITH_UNIT (LENGTH_MEASURE( 1.000000000000000082E-05 ), #254, 'distance_accuracy_value', 'NONE');
#1159 = EDGE_LOOP ( 'NONE', ( #1004, #450, #189, #792 ) ) ;
#1160 = LINE ( 'NONE', #1259, #581 ) ;
#1162 = EDGE_CURVE ( 'NONE', #156, #859, #1149, .T. ) ;
#1161 = CARTESIAN_POINT ( 'NONE',  ( -21.27499999999999147, 2.410000000000002807, -0.7500000000000003331 ) ) ;
#1163 = VERTEX_POINT ( 'NONE', #1203 ) ;
#1164 = ORIENTED_EDGE ( 'NONE', *, *, #430, .F. ) ;
#1165 = CARTESIAN_POINT ( 'NONE',  ( -21.40499999999999403, 2.470000000000002416, -0.7500000000000001110 ) ) ;
#1166 = DIRECTION ( 'NONE',  ( -1.000000000000000000, 0.000000000000000000, -6.334719985308433293E-15 ) ) ;
#1167 = DIRECTION ( 'NONE',  ( 1.000000000000000000, -0.000000000000000000, 0.000000000000000000 ) ) ;
#1168 = EDGE_CURVE ( 'NONE', #684, #934, #1104, .T. ) ;
#1169 = ORIENTED_EDGE ( 'NONE', *, *, #85, .F. ) ;
#1170 = ORIENTED_EDGE ( 'NONE', *, *, #105, .T. ) ;
#1171 = AXIS2_PLACEMENT_3D ( 'NONE', #1342, #996, #153 ) ;
#1172 = CARTESIAN_POINT ( 'NONE',  ( 21.40500000000000469, -2.219999999999999307, 0.000000000000000000 ) ) ;
#1173 = AXIS2_PLACEMENT_3D ( 'NONE', #17, #226, #441 ) ;
#1174 = COLOUR_RGB ( '',0.7921568627450980005, 0.8196078431372548767, 0.9333333333333333481 ) ;
#1175 = LINE ( 'NONE', #108, #277 ) ;
#1176 = ORIENTED_EDGE ( 'NONE', *, *, #1049, .F. ) ;
#1177 = DIRECTION ( 'NONE',  ( 0.000000000000000000, 3.167359992654216647E-15, 1.000000000000000000 ) ) ;
#1178 = EDGE_LOOP ( 'NONE', ( #1105, #66, #991, #720 ) ) ;
#1179 = EDGE_CURVE ( 'NONE', #1299, #943, #556, .T. ) ;
#1180 = PLANE ( 'NONE',  #1011 ) ;
#1181 = LINE ( 'NONE', #123, #1191 ) ;
#1182 = VERTEX_POINT ( 'NONE', #244 ) ;
#1183 = ORIENTED_EDGE ( 'NONE', *, *, #1221, .F. ) ;
#1184 = EDGE_CURVE ( 'NONE', #1204, #116, #357, .T. ) ;
#1185 = FACE_OUTER_BOUND ( 'NONE', #104, .T. ) ;
#1186 = LINE ( 'NONE', #13, #94 ) ;
#1187 = ORIENTED_EDGE ( 'NONE', *, *, #15, .T. ) ;
#1188 = ORIENTED_EDGE ( 'NONE', *, *, #1082, .T. ) ;
#1189 = DIRECTION ( 'NONE',  ( 6.334719985308433293E-15, 0.000000000000000000, 1.000000000000000000 ) ) ;
#1190 = EDGE_CURVE ( 'NONE', #859, #165, #750, .T. ) ;
#1191 = VECTOR ( 'NONE', #223, 39.37007874015748143 ) ;
#1192 = CARTESIAN_POINT ( 'NONE',  ( -21.40499999999999758, -2.469999999999999751, -0.7500000000000001110 ) ) ;
#1193 = AXIS2_PLACEMENT_3D ( 'NONE', #207, #1, #1305 ) ;
#1194 = EDGE_CURVE ( 'NONE', #1279, #973, #129, .T. ) ;
#1195 = CARTESIAN_POINT ( 'NONE',  ( 21.27500000000000213, 2.342000000000000970, -0.1280000000000000582 ) ) ;
#1196 = EDGE_LOOP ( 'NONE', ( #238, #557, #1188, #431 ) ) ;
#1197 = CIRCLE ( 'NONE', #308, 0.1560000000000012765 ) ;
#1198 = ORIENTED_EDGE ( 'NONE', *, *, #486, .F. ) ;
#1199 = DIRECTION ( 'NONE',  ( 0.000000000000000000, 1.000000000000000000, 0.000000000000000000 ) ) ;
#1200 = DIRECTION ( 'NONE',  ( -1.000000000000000000, 0.000000000000000000, 6.277224250147518462E-15 ) ) ;
#1201 = EDGE_CURVE ( 'NONE', #224, #443, #141, .T. ) ;
#1202 = EDGE_LOOP ( 'NONE', ( #1092, #338, #465, #1382 ) ) ;
#1203 = CARTESIAN_POINT ( 'NONE',  ( 21.34500000000000597, -2.219999999999999307, -0.1280000000000003912 ) ) ;
#1204 = VERTEX_POINT ( 'NONE', #448 ) ;
#1205 = LINE ( 'NONE', #671, #390 ) ;
#1206 = CARTESIAN_POINT ( 'NONE',  ( -21.27499999999998792, 2.342000000000000970, -0.1280000000000000582 ) ) ;
#1207 = CARTESIAN_POINT ( 'NONE',  ( -21.27499999999999147, 2.470000000000000195, -0.7500000000000003331 ) ) ;
#1208 = DIRECTION ( 'NONE',  ( 0.000000000000000000, 1.000000000000000000, -2.276539994720233351E-15 ) ) ;
#1209 = ORIENTED_EDGE ( 'NONE', *, *, #470, .T. ) ;
#1210 = ORIENTED_EDGE ( 'NONE', *, *, #1021, .F. ) ;
#1211 = DIRECTION ( 'NONE',  ( 0.000000000000000000, -3.167359992654216647E-15, -1.000000000000000000 ) ) ;
#1212 = LINE ( 'NONE', #680, #452 ) ;
#1213 = CARTESIAN_POINT ( 'NONE',  ( -21.27499999999999147, 2.470000000000000195, -0.7500000000000003331 ) ) ;
#1214 = CARTESIAN_POINT ( 'NONE',  ( -21.27699999999999392, 2.402928932188136635, 7.683322482180740425E-16 ) ) ;
#1215 = VECTOR ( 'NONE', #491, 39.37007874015748143 ) ;
#1216 = EDGE_LOOP ( 'NONE', ( #239, #1071, #200, #912 ) ) ;
#1217 = CIRCLE ( 'NONE', #434, 0.1280000000000003912 ) ;
#1218 = VERTEX_POINT ( 'NONE', #250 ) ;
#1219 = VECTOR ( 'NONE', #149, 39.37007874015748143 ) ;
#1220 = DIRECTION ( 'NONE',  ( 1.000000000000000000, -0.000000000000000000, -0.000000000000000000 ) ) ;
#1221 = EDGE_CURVE ( 'NONE', #876, #760, #142, .T. ) ;
#1222 = DIRECTION ( 'NONE',  ( -6.334719985308433293E-15, 0.000000000000000000, -1.000000000000000000 ) ) ;
#1223 = APPLICATION_CONTEXT ( 'automotive_design' ) ;
#1224 = LINE ( 'NONE', #161, #919 ) ;
#1225 = ORIENTED_EDGE ( 'NONE', *, *, #210, .T. ) ;
#1226 = VERTEX_POINT ( 'NONE', #791 ) ;
#1227 = LINE ( 'NONE', #665, #369 ) ;
#1228 = EDGE_CURVE ( 'NONE', #86, #411, #1101, .T. ) ;
#1229 = DIRECTION ( 'NONE',  ( 0.000000000000000000, 0.000000000000000000, 1.000000000000000000 ) ) ;
#1230 = DIRECTION ( 'NONE',  ( 1.000000000000000000, 0.000000000000000000, 6.829619984160793139E-15 ) ) ;
#1231 = CYLINDRICAL_SURFACE ( 'NONE', #122, 0.06799999999999965794 ) ;
#1232 = DIRECTION ( 'NONE',  ( -1.000000000000000000, -0.000000000000000000, -0.000000000000000000 ) ) ;
#1233 = EDGE_LOOP ( 'NONE', ( #759, #173, #752, #873 ) ) ;
#1234 =( NAMED_UNIT ( * ) PLANE_ANGLE_UNIT ( ) SI_UNIT ( $, .RADIAN. ) );
#1235 = DIRECTION ( 'NONE',  ( 0.000000000000000000, 0.000000000000000000, 1.000000000000000000 ) ) ;
#1236 = CARTESIAN_POINT ( 'NONE',  ( -21.27699999999999392, -2.219999999999999751, -0.05999999999999924144 ) ) ;
#1237 = DIRECTION ( 'NONE',  ( 1.000000000000000000, -0.000000000000000000, 0.000000000000000000 ) ) ;
#1239 = EDGE_CURVE ( 'NONE', #443, #224, #1289, .T. ) ;
#1238 = DIRECTION ( 'NONE',  ( 0.000000000000000000, 1.000000000000000000, -3.364592198079164350E-14 ) ) ;
#1240 = VECTOR ( 'NONE', #76, 39.37007874015748143 ) ;
#1241 = AXIS2_PLACEMENT_3D ( 'NONE', #1381, #1167, #1054 ) ;
#1242 = VERTEX_POINT ( 'NONE', #662 ) ;
#1243 = AXIS2_PLACEMENT_3D ( 'NONE', #348, #42, #769 ) ;
#1244 = CARTESIAN_POINT ( 'NONE',  ( -21.40499999999999403, 2.219999999999999751, -0.7500000000000003331 ) ) ;
#1245 = VECTOR ( 'NONE', #265, 39.37007874015748143 ) ;
#1246 = LINE ( 'NONE', #284, #992 ) ;
#1247 = CARTESIAN_POINT ( 'NONE',  ( 21.06500000000000838, 0.000000000000000000, 0.000000000000000000 ) ) ;
#1248 = DIRECTION ( 'NONE',  ( -1.000000000000000000, 0.000000000000000000, 0.000000000000000000 ) ) ;
#1249 = LINE ( 'NONE', #401, #8 ) ;
#1250 = EDGE_CURVE ( 'NONE', #229, #86, #781, .T. ) ;
#1251 = ORIENTED_EDGE ( 'NONE', *, *, #375, .F. ) ;
#1252 = PLANE ( 'NONE',  #215 ) ;
#1253 = CARTESIAN_POINT ( 'NONE',  ( 21.27500000000000213, -2.342000000000000970, -0.1279999999999989757 ) ) ;
#1254 = DIRECTION ( 'NONE',  ( 0.000000000000000000, 3.167359992654216647E-15, -1.000000000000000000 ) ) ;
#1255 = FACE_BOUND ( 'NONE', #976, .T. ) ;
#1256 = ORIENTED_EDGE ( 'NONE', *, *, #970, .T. ) ;
#1257 = EDGE_CURVE ( 'NONE', #729, #1293, #683, .T. ) ;
#1258 = ORIENTED_EDGE ( 'NONE', *, *, #297, .T. ) ;
#1259 = CARTESIAN_POINT ( 'NONE',  ( 21.40500000000000469, -2.410000000000002807, -0.7500000000000003331 ) ) ;
#1260 = CYLINDRICAL_SURFACE ( 'NONE', #211, 0.1279999999999998361 ) ;
#1261 = CARTESIAN_POINT ( 'NONE',  ( -21.27699999999999392, -2.219999999999999751, -0.1280000000000008076 ) ) ;
#1262 = EDGE_LOOP ( 'NONE', ( #47, #102, #618, #820 ) ) ;
#1263 = VECTOR ( 'NONE', #598, 39.37007874015748143 ) ;
#1264 = VECTOR ( 'NONE', #980, 39.37007874015748143 ) ;
#1265 = FACE_OUTER_BOUND ( 'NONE', #801, .T. ) ;
#1266 = ORIENTED_EDGE ( 'NONE', *, *, #1292, .T. ) ;
#1267 = VECTOR ( 'NONE', #336, 39.37007874015748143 ) ;
#1268 = VECTOR ( 'NONE', #1016, 39.37007874015748143 ) ;
#1269 = ADVANCED_FACE ( 'NONE', ( #195 ), #1363, .T. ) ;
#1270 = LINE ( 'NONE', #834, #809 ) ;
#1271 =( GEOMETRIC_REPRESENTATION_CONTEXT ( 3 ) GLOBAL_UNCERTAINTY_ASSIGNED_CONTEXT ( ( #940 ) ) GLOBAL_UNIT_ASSIGNED_CONTEXT ( ( #3, #628, #222 ) ) REPRESENTATION_CONTEXT ( 'NONE', 'WORKASPACE' ) );
#1272 = FACE_OUTER_BOUND ( 'NONE', #950, .T. ) ;
#1273 = ORIENTED_EDGE ( 'NONE', *, *, #821, .F. ) ;
#1274 = FACE_OUTER_BOUND ( 'NONE', #1324, .T. ) ;
#1275 = ORIENTED_EDGE ( 'NONE', *, *, #289, .F. ) ;
#1276 = LINE ( 'NONE', #597, #1103 ) ;
#1277 = ADVANCED_FACE ( 'NONE', ( #586 ), #703, .F. ) ;
#1278 = CARTESIAN_POINT ( 'NONE',  ( 21.27500000000000568, 2.410000000000000142, 7.823379181857094417E-15 ) ) ;
#1279 = VERTEX_POINT ( 'NONE', #293 ) ;
#1280 = ORIENTED_EDGE ( 'NONE', *, *, #1168, .T. ) ;
#1281 = DIRECTION ( 'NONE',  ( 0.000000000000000000, 0.000000000000000000, 1.000000000000000000 ) ) ;
#1282 = DIRECTION ( 'NONE',  ( 0.000000000000000000, 3.491481338843134539E-15, 1.000000000000000000 ) ) ;
#1283 = EDGE_CURVE ( 'NONE', #156, #438, #708, .T. ) ;
#1284 = ORIENTED_EDGE ( 'NONE', *, *, #375, .T. ) ;
#1285 = ORIENTED_EDGE ( 'NONE', *, *, #1250, .T. ) ;
#1286 = AXIS2_PLACEMENT_3D ( 'NONE', #1302, #866, #1200 ) ;
#1287 = LINE ( 'NONE', #1079, #474 ) ;
#1288 = VECTOR ( 'NONE', #417, 39.37007874015748143 ) ;
#1289 = CIRCLE ( 'NONE', #681, 0.1560000000000012765 ) ;
#1290 = DIRECTION ( 'NONE',  ( 0.000000000000000000, 0.000000000000000000, -1.000000000000000000 ) ) ;
#1291 = EDGE_LOOP ( 'NONE', ( #668, #905, #741, #1044 ) ) ;
#1292 = EDGE_CURVE ( 'NONE', #206, #1303, #382, .T. ) ;
#1293 = VERTEX_POINT ( 'NONE', #818 ) ;
#1294 = PLANE ( 'NONE',  #1193 ) ;
#1295 = DIRECTION ( 'NONE',  ( 0.000000000000000000, 0.000000000000000000, 1.000000000000000000 ) ) ;
#1296 = CARTESIAN_POINT ( 'NONE',  ( -21.27699999999999392, 2.220000000000000195, 0.000000000000000000 ) ) ;
#1297 = VERTEX_POINT ( 'NONE', #715 ) ;
#1298 = EDGE_CURVE ( 'NONE', #640, #126, #69, .T. ) ;
#1299 = VERTEX_POINT ( 'NONE', #1018 ) ;
#1300 = EDGE_CURVE ( 'NONE', #943, #20, #83, .T. ) ;
#1301 = DIRECTION ( 'NONE',  ( -0.000000000000000000, -0.000000000000000000, 1.000000000000000000 ) ) ;
#1302 = CARTESIAN_POINT ( 'NONE',  ( -21.27699999999999392, 2.402928932188136635, -0.1280000000000008076 ) ) ;
#1303 = VERTEX_POINT ( 'NONE', #903 ) ;
#1304 = ORIENTED_EDGE ( 'NONE', *, *, #351, .T. ) ;
#1305 = DIRECTION ( 'NONE',  ( 1.000000000000000000, 0.000000000000000000, 3.491481338843134539E-15 ) ) ;
#1306 = ADVANCED_FACE ( 'NONE', ( #695 ), #1260, .T. ) ;
#1307 = VECTOR ( 'NONE', #383, 39.37007874015748143 ) ;
#1308 = DIRECTION ( 'NONE',  ( 1.000000000000000000, 0.000000000000000000, -3.491481338843134539E-15 ) ) ;
#1309 = CIRCLE ( 'NONE', #257, 0.06800000000000155920 ) ;
#1310 = VECTOR ( 'NONE', #936, 39.37007874015748143 ) ;
#1311 = ORIENTED_EDGE ( 'NONE', *, *, #751, .T. ) ;
#1312 = ORIENTED_EDGE ( 'NONE', *, *, #263, .T. ) ;
#1313 = PLANE ( 'NONE',  #700 ) ;
#1315 = DIRECTION ( 'NONE',  ( -0.000000000000000000, -0.000000000000000000, 1.000000000000000000 ) ) ;
#1314 = PRODUCT_DEFINITION ( 'UNKNOWN', '', #1015, #845 ) ;
#1316 = CARTESIAN_POINT ( 'NONE',  ( 21.33792893218814157, 2.342000000000000970, -0.06000000000000040024 ) ) ;
#1317 = VERTEX_POINT ( 'NONE', #378 ) ;
#1318 = LINE ( 'NONE', #993, #190 ) ;
#1319 = LINE ( 'NONE', #28, #1061 ) ;
#1320 = FACE_OUTER_BOUND ( 'NONE', #1112, .T. ) ;
#1321 = DIRECTION ( 'NONE',  ( 0.000000000000000000, 0.000000000000000000, 1.000000000000000000 ) ) ;
#1322 = VERTEX_POINT ( 'NONE', #592 ) ;
#1323 = EDGE_CURVE ( 'NONE', #79, #918, #1197, .T. ) ;
#1324 = EDGE_LOOP ( 'NONE', ( #91, #1209, #1140, #197 ) ) ;
#1325 = CARTESIAN_POINT ( 'NONE',  ( 21.27500000000000568, 2.470000000000000195, -0.1279999999999991422 ) ) ;
#1326 = CARTESIAN_POINT ( 'NONE',  ( 21.40500000000000469, -2.219999999999999307, -0.7500000000000003331 ) ) ;
#1327 = DIRECTION ( 'NONE',  ( -1.748382715945128144E-14, 1.000000000000000000, -0.000000000000000000 ) ) ;
#1328 = AXIS2_PLACEMENT_3D ( 'NONE', #46, #888, #1344 ) ;
#1329 = CIRCLE ( 'NONE', #724, 0.1560000000000012765 ) ;
#1330 = LINE ( 'NONE', #1125, #1126 ) ;
#1331 = VECTOR ( 'NONE', #240, 39.37007874015748143 ) ;
#1332 = ORIENTED_EDGE ( 'NONE', *, *, #227, .T. ) ;
#1333 = VECTOR ( 'NONE', #497, 39.37007874015748143 ) ;
#1334 = ADVANCED_FACE ( 'NONE', ( #1343 ), #272, .T. ) ;
#1335 = LINE ( 'NONE', #374, #726 ) ;
#1336 = CARTESIAN_POINT ( 'NONE',  ( 21.27700000000000458, -2.219999999999998863, -0.05999999999999924144 ) ) ;
#1337 = LINE ( 'NONE', #798, #164 ) ;
#1338 = CARTESIAN_POINT ( 'NONE',  ( -21.34499999999999886, -2.469999999999999751, -0.7500000000000003331 ) ) ;
#1339 = LINE ( 'NONE', #379, #945 ) ;
#1340 = EDGE_LOOP ( 'NONE', ( #862, #656, #1311, #478 ) ) ;
#1341 = ADVANCED_FACE ( 'NONE', ( #1155 ), #1231, .F. ) ;
#1342 = CARTESIAN_POINT ( 'NONE',  ( 21.27700000000000458, -2.219999999999998863, -0.1280000000000008076 ) ) ;
#1343 = FACE_OUTER_BOUND ( 'NONE', #1262, .T. ) ;
#1344 = DIRECTION ( 'NONE',  ( 1.000000000000000000, 4.202843067175613408E-15, 0.000000000000000000 ) ) ;
#1345 = DIMENSIONAL_EXPONENTS ( 1.000000000000000000, 0.000000000000000000, 0.000000000000000000, 0.000000000000000000, 0.000000000000000000, 0.000000000000000000, 0.000000000000000000 ) ;
#1346 = ORIENTED_EDGE ( 'NONE', *, *, #175, .F. ) ;
#1347 = DIRECTION ( 'NONE',  ( 1.000000000000000000, 0.000000000000000000, 0.000000000000000000 ) ) ;
#1348 = EDGE_CURVE ( 'NONE', #305, #1182, #163, .T. ) ;
#1349 = CARTESIAN_POINT ( 'NONE',  ( 0.000000000000000000, 2.410000000000000142, 7.823379181855917436E-15 ) ) ;
#1350 = DIRECTION ( 'NONE',  ( 5.537757466332684599E-29, 3.167359992654216647E-15, -1.000000000000000000 ) ) ;
#1351 = AXIS2_PLACEMENT_3D ( 'NONE', #49, #456, #885 ) ;
#1352 = ORIENTED_EDGE ( 'NONE', *, *, #487, .T. ) ;
#1353 = VECTOR ( 'NONE', #160, 39.37007874015748143 ) ;
#1354 = VECTOR ( 'NONE', #176, 39.37007874015748143 ) ;
#1355 = LINE ( 'NONE', #291, #584 ) ;
#1356 = DIRECTION ( 'NONE',  ( -1.000000000000000000, 0.000000000000000000, -6.334719985308433293E-15 ) ) ;
#1357 = CARTESIAN_POINT ( 'NONE',  ( 21.40500000000000469, 2.470000000000000639, -0.1280000000000000027 ) ) ;
#1358 = LINE ( 'NONE', #1278, #895 ) ;
#1359 = ORIENTED_EDGE ( 'NONE', *, *, #894, .T. ) ;
#1360 = ORIENTED_EDGE ( 'NONE', *, *, #907, .T. ) ;
#1361 = PLANE ( 'NONE',  #413 ) ;
#1362 = CARTESIAN_POINT ( 'NONE',  ( 21.27500000000000568, -2.219999999999998863, -0.06000000000000004635 ) ) ;
#1363 = CYLINDRICAL_SURFACE ( 'NONE', #1380, 0.1280000000000003912 ) ;
#1364 = DIRECTION ( 'NONE',  ( 1.000000000000000000, 0.000000000000000000, 0.000000000000000000 ) ) ;
#1365 = ORIENTED_EDGE ( 'NONE', *, *, #1385, .T. ) ;
#1366 = EDGE_CURVE ( 'NONE', #1242, #1226, #805, .T. ) ;
#1367 = DIRECTION ( 'NONE',  ( 4.202843067175613408E-15, -1.000000000000000000, 0.000000000000000000 ) ) ;
#1368 = ORIENTED_EDGE ( 'NONE', *, *, #785, .F. ) ;
#1369 = DIRECTION ( 'NONE',  ( -0.000000000000000000, -0.000000000000000000, 1.000000000000000000 ) ) ;
#1370 = APPLICATION_PROTOCOL_DEFINITION ( 'draft international standard', 'automotive_design', 1998, #1223 ) ;
#1371 = CARTESIAN_POINT ( 'NONE',  ( 21.33792893218814157, 2.342000000000000970, -0.1280000000000000582 ) ) ;
#1372 = ORIENTED_EDGE ( 'NONE', *, *, #737, .T. ) ;
#1373 = FACE_OUTER_BOUND ( 'NONE', #1178, .T. ) ;
#1374 = AXIS2_PLACEMENT_3D ( 'NONE', #1192, #242, #1308 ) ;
#1375 = EDGE_CURVE ( 'NONE', #33, #266, #393, .T. ) ;
#1376 = ORIENTED_EDGE ( 'NONE', *, *, #1239, .F. ) ;
#1377 = AXIS2_PLACEMENT_3D ( 'NONE', #354, #1121, #901 ) ;
#1378 =( GEOMETRIC_REPRESENTATION_CONTEXT ( 3 ) GLOBAL_UNCERTAINTY_ASSIGNED_CONTEXT ( ( #1158 ) ) GLOBAL_UNIT_ASSIGNED_CONTEXT ( ( #254, #1234, #275 ) ) REPRESENTATION_CONTEXT ( 'NONE', 'WORKASPACE' ) );
#1379 = DIRECTION ( 'NONE',  ( 0.000000000000000000, -1.000000000000000000, -3.167359992654216647E-15 ) ) ;
#1380 = AXIS2_PLACEMENT_3D ( 'NONE', #613, #279, #1132 ) ;
#1381 = CARTESIAN_POINT ( 'NONE',  ( -21.27499999999999147, -2.470000000000000195, -0.7500000000000003331 ) ) ;
#1382 = ORIENTED_EDGE ( 'NONE', *, *, #751, .F. ) ;
#1383 = ORIENTED_EDGE ( 'NONE', *, *, #253, .T. ) ;
#1384 = FACE_OUTER_BOUND ( 'NONE', #851, .T. ) ;
#1385 = EDGE_CURVE ( 'NONE', #1388, #353, #185, .T. ) ;
#1386 = CARTESIAN_POINT ( 'NONE',  ( 0.000000000000000000, 0.000000000000000000, 0.000000000000000000 ) ) ;
#1387 = PLANE ( 'NONE',  #162 ) ;
#1388 = VERTEX_POINT ( 'NONE', #1068 ) ;
#1389 = ORIENTED_EDGE ( 'NONE', *, *, #1179, .F. ) ;
ENDSEC;
END-ISO-10303-21;
