ISO-10303-21;
HEADER;
FILE_DESCRIPTION (( 'STEP AP214' ),
    '1' );
FILE_NAME ('PP15536-02-(16gacr ANSI-61) - K48 - V0-R0.STEP',
    '2026-07-08T22:53:43',
    ( '' ),
    ( '' ),
    'SwSTEP 2.0',
    'SolidWorks 2024',
    '' );
FILE_SCHEMA (( 'AUTOMOTIVE_DESIGN' ));
ENDSEC;

DATA;
#1 = CARTESIAN_POINT ( 'NONE',  ( 1.964999999999994307, 0.000000000000000000, 0.000000000000000000 ) ) ;
#2 = ORIENTED_EDGE ( 'NONE', *, *, #182, .T. ) ;
#3 = CIRCLE ( 'NONE', #876, 0.1200000000000010086 ) ;
#4 = VERTEX_POINT ( 'NONE', #358 ) ;
#5 = ADVANCED_FACE ( 'NONE', ( #34 ), #978, .T. ) ;
#6 = CARTESIAN_POINT ( 'NONE',  ( 8.079999999999994742, 9.750000000000003553, -0.6300000000000002265 ) ) ;
#7 = DIRECTION ( 'NONE',  ( 1.000000000000000000, 0.000000000000000000, 0.000000000000000000 ) ) ;
#8 = DIRECTION ( 'NONE',  ( 0.000000000000000000, 1.000000000000000000, 0.000000000000000000 ) ) ;
#9 = ORIENTED_EDGE ( 'NONE', *, *, #439, .T. ) ;
#10 = VERTEX_POINT ( 'NONE', #452 ) ;
#11 = DIRECTION ( 'NONE',  ( 1.000000000000000000, 1.472694336207149946E-16, -1.917086311343342194E-15 ) ) ;
#12 = EDGE_CURVE ( 'NONE', #448, #1181, #885, .T. ) ;
#13 = CARTESIAN_POINT ( 'NONE',  ( 8.174999999999995381, 9.750000000000003553, 0.000000000000000000 ) ) ;
#14 = CARTESIAN_POINT ( 'NONE',  ( -8.141000000000003567, 1.910449006669872936E-17, -0.6300000000000002265 ) ) ;
#15 = EDGE_LOOP ( 'NONE', ( #372, #91, #406, #367 ) ) ;
#16 = ORIENTED_EDGE ( 'NONE', *, *, #858, .F. ) ;
#17 = FACE_OUTER_BOUND ( 'NONE', #191, .T. ) ;
#18 = EDGE_CURVE ( 'NONE', #608, #691, #556, .T. ) ;
#19 = DIRECTION ( 'NONE',  ( 0.000000000000000000, 0.000000000000000000, -1.000000000000000000 ) ) ;
#20 = ORIENTED_EDGE ( 'NONE', *, *, #12, .T. ) ;
#21 = EDGE_CURVE ( 'NONE', #258, #751, #966, .T. ) ;
#22 = LINE ( 'NONE', #359, #969 ) ;
#23 = VERTEX_POINT ( 'NONE', #787 ) ;
#24 = AXIS2_PLACEMENT_3D ( 'NONE', #252, #26, #457 ) ;
#25 = AXIS2_PLACEMENT_3D ( 'NONE', #1137, #517, #1368 ) ;
#26 = DIRECTION ( 'NONE',  ( -0.000000000000000000, -0.000000000000000000, 1.000000000000000000 ) ) ;
#27 = CARTESIAN_POINT ( 'NONE',  ( 8.174999999999995381, 0.000000000000000000, 0.000000000000000000 ) ) ;
#28 = ORIENTED_EDGE ( 'NONE', *, *, #407, .T. ) ;
#29 = EDGE_CURVE ( 'NONE', #974, #1222, #146, .T. ) ;
#30 = CARTESIAN_POINT ( 'NONE',  ( 8.484999999999999432, 11.13000000000000078, -0.1200000000000000372 ) ) ;
#31 = ORIENTED_EDGE ( 'NONE', *, *, #1151, .F. ) ;
#32 = CARTESIAN_POINT ( 'NONE',  ( 0.000000000000000000, 11.25000000000000178, -0.1199999999999995931 ) ) ;
#33 = DIRECTION ( 'NONE',  ( -0.000000000000000000, -0.000000000000000000, 1.000000000000000000 ) ) ;
#34 = FACE_OUTER_BOUND ( 'NONE', #1160, .T. ) ;
#35 = FACE_OUTER_BOUND ( 'NONE', #930, .T. ) ;
#36 = VERTEX_POINT ( 'NONE', #1205 ) ;
#37 = CARTESIAN_POINT ( 'NONE',  ( 8.484999999999994102, -11.12999999999999545, 0.000000000000000000 ) ) ;
#38 = FACE_OUTER_BOUND ( 'NONE', #871, .T. ) ;
#39 = FACE_OUTER_BOUND ( 'NONE', #952, .T. ) ;
#40 = ORIENTED_EDGE ( 'NONE', *, *, #944, .F. ) ;
#41 = DIRECTION ( 'NONE',  ( 0.000000000000000000, 0.000000000000000000, -1.000000000000000000 ) ) ;
#42 = ORIENTED_EDGE ( 'NONE', *, *, #79, .F. ) ;
#43 = CIRCLE ( 'NONE', #178, 0.06000000000000099698 ) ;
#44 = EDGE_CURVE ( 'NONE', #217, #1071, #582, .T. ) ;
#45 = DIRECTION ( 'NONE',  ( 1.000000000000000000, 0.000000000000000000, 0.000000000000000000 ) ) ;
#46 = AXIS2_PLACEMENT_3D ( 'NONE', #231, #773, #1096 ) ;
#47 = VECTOR ( 'NONE', #763, 39.37007874015748143 ) ;
#48 = CARTESIAN_POINT ( 'NONE',  ( 1.524999999999994360, 0.000000000000000000, 0.000000000000000000 ) ) ;
#49 = CARTESIAN_POINT ( 'NONE',  ( 0.000000000000000000, -11.18999999999999950, -0.6300000000000002265 ) ) ;
#50 = FACE_OUTER_BOUND ( 'NONE', #836, .T. ) ;
#51 = ORIENTED_EDGE ( 'NONE', *, *, #1056, .F. ) ;
#52 = CARTESIAN_POINT ( 'NONE',  ( 0.000000000000000000, -11.24999999999999822, 4.334393088555577112E-14 ) ) ;
#53 = CARTESIAN_POINT ( 'NONE',  ( -8.364999999999994884, -11.12999999999999545, -0.1200000000000000372 ) ) ;
#54 = DIRECTION ( 'NONE',  ( -1.000000000000000000, 0.000000000000000000, 0.000000000000000000 ) ) ;
#55 = SURFACE_STYLE_USAGE ( .BOTH. , #1240 ) ;
#56 = EDGE_LOOP ( 'NONE', ( #607, #679, #1049, #1086 ) ) ;
#57 = DIRECTION ( 'NONE',  ( 8.087894779578809621E-30, 0.000000000000000000, 1.000000000000000000 ) ) ;
#58 = CARTESIAN_POINT ( 'NONE',  ( -8.485000000000001208, 11.12999999999999545, -0.6300000000000000044 ) ) ;
#59 = LINE ( 'NONE', #273, #1107 ) ;
#60 = DIRECTION ( 'NONE',  ( 0.000000000000000000, 0.000000000000000000, -1.000000000000000000 ) ) ;
#61 = ADVANCED_FACE ( 'NONE', ( #168 ), #663, .F. ) ;
#62 = ORIENTED_EDGE ( 'NONE', *, *, #602, .F. ) ;
#63 = AXIS2_PLACEMENT_3D ( 'NONE', #927, #81, #398 ) ;
#64 = PLANE ( 'NONE',  #990 ) ;
#65 = AXIS2_PLACEMENT_3D ( 'NONE', #824, #219, #299 ) ;
#66 = VECTOR ( 'NONE', #1085, 39.37007874015748143 ) ;
#67 = DIRECTION ( 'NONE',  ( 0.000000000000000000, 0.000000000000000000, 1.000000000000000000 ) ) ;
#68 = CARTESIAN_POINT ( 'NONE',  ( 8.174999999999995381, -9.749999999999998224, -0.6300000000000002265 ) ) ;
#69 = CIRCLE ( 'NONE', #25, 0.1139999999999999347 ) ;
#70 = CARTESIAN_POINT ( 'NONE',  ( 1.084999999999994191, 5.388445916248354506E-17, -0.6300000000000002265 ) ) ;
#71 = EDGE_LOOP ( 'NONE', ( #951, #615 ) ) ;
#72 = ADVANCED_FACE ( 'NONE', ( #1004 ), #783, .T. ) ;
#73 = ORIENTED_EDGE ( 'NONE', *, *, #971, .T. ) ;
#74 = LINE ( 'NONE', #1223, #945 ) ;
#75 = DIRECTION ( 'NONE',  ( -1.000000000000000000, 0.000000000000000000, 0.000000000000000000 ) ) ;
#76 = PRESENTATION_STYLE_ASSIGNMENT (( #55 ) ) ;
#77 = VERTEX_POINT ( 'NONE', #1297 ) ;
#78 = ORIENTED_EDGE ( 'NONE', *, *, #456, .F. ) ;
#79 = EDGE_CURVE ( 'NONE', #1132, #1007, #1188, .T. ) ;
#80 = DIRECTION ( 'NONE',  ( -0.000000000000000000, 1.000000000000000000, 3.834172622686683600E-15 ) ) ;
#81 = DIRECTION ( 'NONE',  ( -1.000000000000000000, 0.000000000000000000, 0.000000000000000000 ) ) ;
#82 = LINE ( 'NONE', #886, #879 ) ;
#83 = ORIENTED_EDGE ( 'NONE', *, *, #1334, .F. ) ;
#84 = ORIENTED_EDGE ( 'NONE', *, *, #848, .T. ) ;
#85 = DIRECTION ( 'NONE',  ( -0.000000000000000000, -0.000000000000000000, 1.000000000000000000 ) ) ;
#86 = ADVANCED_FACE ( 'NONE', ( #1210 ), #1083, .T. ) ;
#87 = CARTESIAN_POINT ( 'NONE',  ( -8.364999999999998437, -11.18999999999999773, 4.313444200522518438E-14 ) ) ;
#88 = AXIS2_PLACEMENT_3D ( 'NONE', #955, #825, #728 ) ;
#89 = STYLED_ITEM ( 'NONE', ( #76 ), #909 ) ;
#90 = CARTESIAN_POINT ( 'NONE',  ( 1.964999999999994307, 0.000000000000000000, -0.05999999999999997696 ) ) ;
#91 = ORIENTED_EDGE ( 'NONE', *, *, #1065, .T. ) ;
#92 = AXIS2_PLACEMENT_3D ( 'NONE', #933, #427, #400 ) ;
#93 = ORIENTED_EDGE ( 'NONE', *, *, #734, .F. ) ;
#94 = LINE ( 'NONE', #325, #921 ) ;
#95 = CARTESIAN_POINT ( 'NONE',  ( 8.269999999999994245, -9.749999999999998224, 0.000000000000000000 ) ) ;
#96 = DIRECTION ( 'NONE',  ( -1.000000000000000000, 0.000000000000000000, -0.000000000000000000 ) ) ;
#97 = ORIENTED_EDGE ( 'NONE', *, *, #908, .T. ) ;
#98 = ORIENTED_EDGE ( 'NONE', *, *, #497, .T. ) ;
#99 = CARTESIAN_POINT ( 'NONE',  ( -8.364999999999996660, -11.12999999999999545, -0.1200000000000000372 ) ) ;
#100 = LINE ( 'NONE', #654, #639 ) ;
#101 = DIRECTION ( 'NONE',  ( 0.000000000000000000, 0.000000000000000000, 1.000000000000000000 ) ) ;
#102 = ORIENTED_EDGE ( 'NONE', *, *, #1257, .F. ) ;
#103 = EDGE_CURVE ( 'NONE', #822, #691, #1090, .T. ) ;
#104 = ORIENTED_EDGE ( 'NONE', *, *, #18, .F. ) ;
#105 = LINE ( 'NONE', #1258, #1307 ) ;
#106 = DIRECTION ( 'NONE',  ( -0.000000000000000000, 1.000000000000000000, -0.000000000000000000 ) ) ;
#107 = AXIS2_PLACEMENT_3D ( 'NONE', #627, #756, #1289 ) ;
#108 = DIRECTION ( 'NONE',  ( -1.000000000000000000, -0.000000000000000000, 0.000000000000000000 ) ) ;
#109 = VERTEX_POINT ( 'NONE', #878 ) ;
#110 = VECTOR ( 'NONE', #1142, 39.37007874015748143 ) ;
#111 = EDGE_LOOP ( 'NONE', ( #1076, #93, #263, #1355 ) ) ;
#112 = AXIS2_PLACEMENT_3D ( 'NONE', #1304, #859, #979 ) ;
#113 = ADVANCED_FACE ( 'NONE', ( #261 ), #777, .T. ) ;
#114 = VECTOR ( 'NONE', #655, 39.37007874015748143 ) ;
#115 = PLANE ( 'NONE',  #924 ) ;
#116 = UNCERTAINTY_MEASURE_WITH_UNIT (LENGTH_MEASURE( 1.000000000000000082E-05 ), #991, 'distance_accuracy_value', 'NONE');
#117 = FACE_OUTER_BOUND ( 'NONE', #1021, .T. ) ;
#118 = DIRECTION ( 'NONE',  ( -0.000000000000000000, -0.000000000000000000, 1.000000000000000000 ) ) ;
#119 = ORIENTED_EDGE ( 'NONE', *, *, #892, .T. ) ;
#120 = ORIENTED_EDGE ( 'NONE', *, *, #673, .T. ) ;
#121 = EDGE_CURVE ( 'NONE', #754, #77, #890, .T. ) ;
#122 = FACE_BOUND ( 'NONE', #402, .T. ) ;
#123 = ADVANCED_FACE ( 'NONE', ( #1018 ), #1136, .F. ) ;
#124 = DIRECTION ( 'NONE',  ( -1.000000000000000000, 0.000000000000000000, 1.849688745710215137E-15 ) ) ;
#125 = DIRECTION ( 'NONE',  ( 0.000000000000000000, 0.000000000000000000, -1.000000000000000000 ) ) ;
#126 = EDGE_LOOP ( 'NONE', ( #624, #1264, #135, #1146 ) ) ;
#127 = CARTESIAN_POINT ( 'NONE',  ( 8.484999999999999432, 11.13000000000000078, -0.1200000000000000372 ) ) ;
#128 = ORIENTED_EDGE ( 'NONE', *, *, #858, .T. ) ;
#129 = LINE ( 'NONE', #1295, #967 ) ;
#130 = ADVANCED_FACE ( 'NONE', ( #720 ), #695, .F. ) ;
#131 = LINE ( 'NONE', #877, #47 ) ;
#132 = VERTEX_POINT ( 'NONE', #1024 ) ;
#133 = AXIS2_PLACEMENT_3D ( 'NONE', #869, #269, #54 ) ;
#134 = CARTESIAN_POINT ( 'NONE',  ( 1.524999999999994360, 0.000000000000000000, -0.05999999999999997696 ) ) ;
#135 = ORIENTED_EDGE ( 'NONE', *, *, #1185, .T. ) ;
#136 = AXIS2_PLACEMENT_3D ( 'NONE', #916, #911, #505 ) ;
#137 = VECTOR ( 'NONE', #235, 39.37007874015748143 ) ;
#138 = DIRECTION ( 'NONE',  ( 1.000000000000000000, -0.000000000000000000, -0.000000000000000000 ) ) ;
#140 = ADVANCED_FACE ( 'NONE', ( #200 ), #194, .F. ) ;
#139 = DIRECTION ( 'NONE',  ( 0.000000000000000000, 0.000000000000000000, 1.000000000000000000 ) ) ;
#141 = DIRECTION ( 'NONE',  ( -0.000000000000000000, -0.000000000000000000, 1.000000000000000000 ) ) ;
#142 = CARTESIAN_POINT ( 'NONE',  ( -8.365000000000000213, 11.12999999999999901, -2.185478394931410575E-15 ) ) ;
#143 = ORIENTED_EDGE ( 'NONE', *, *, #12, .F. ) ;
#144 = PLANE ( 'NONE',  #748 ) ;
#145 = CARTESIAN_POINT ( 'NONE',  ( 8.079999999999994742, -9.749999999999998224, -0.05999999999999997696 ) ) ;
#146 = LINE ( 'NONE', #1303, #349 ) ;
#147 = CARTESIAN_POINT ( 'NONE',  ( -7.829000000000003290, 0.000000000000000000, 0.000000000000000000 ) ) ;
#148 = ORIENTED_EDGE ( 'NONE', *, *, #1309, .T. ) ;
#149 = ADVANCED_FACE ( 'NONE', ( #173 ), #1123, .F. ) ;
#150 = CYLINDRICAL_SURFACE ( 'NONE', #24, 0.09499999999999994560 ) ;
#151 = CYLINDRICAL_SURFACE ( 'NONE', #1173, 0.1200000000000019940 ) ;
#152 = CARTESIAN_POINT ( 'NONE',  ( 8.484999999999999432, -11.24999999999999822, -0.1199999999999995931 ) ) ;
#153 = DIRECTION ( 'NONE',  ( -1.000000000000000000, 0.000000000000000000, 0.000000000000000000 ) ) ;
#154 = ORIENTED_EDGE ( 'NONE', *, *, #1274, .T. ) ;
#155 = VECTOR ( 'NONE', #938, 39.37007874015748143 ) ;
#156 = AXIS2_PLACEMENT_3D ( 'NONE', #633, #1051, #1179 ) ;
#157 = EDGE_CURVE ( 'NONE', #691, #656, #1331, .T. ) ;
#158 = VECTOR ( 'NONE', #1038, 39.37007874015748143 ) ;
#159 = DIRECTION ( 'NONE',  ( 0.000000000000000000, 0.000000000000000000, 1.000000000000000000 ) ) ;
#160 = VECTOR ( 'NONE', #1150, 39.37007874015748143 ) ;
#161 = CIRCLE ( 'NONE', #92, 0.09499999999999994560 ) ;
#162 = DIRECTION ( 'NONE',  ( 0.000000000000000000, 1.000000000000000000, 3.699377491420295379E-15 ) ) ;
#163 = DIRECTION ( 'NONE',  ( -0.000000000000000000, 0.000000000000000000, -1.000000000000000000 ) ) ;
#164 = DIRECTION ( 'NONE',  ( 1.000000000000000000, 1.472694336207149946E-16, -1.917086311343342194E-15 ) ) ;
#165 = VERTEX_POINT ( 'NONE', #378 ) ;
#166 = FACE_BOUND ( 'NONE', #723, .T. ) ;
#167 = EDGE_CURVE ( 'NONE', #656, #109, #591, .T. ) ;
#168 = FACE_OUTER_BOUND ( 'NONE', #15, .T. ) ;
#169 = CARTESIAN_POINT ( 'NONE',  ( -8.484999999999999432, -1.249581144271766679E-15, 1.647596623207884577E-14 ) ) ;
#170 = ORIENTED_EDGE ( 'NONE', *, *, #997, .T. ) ;
#171 = ORIENTED_EDGE ( 'NONE', *, *, #356, .F. ) ;
#172 = CARTESIAN_POINT ( 'NONE',  ( -8.141000000000003567, 1.910449006669872628E-17, 0.000000000000000000 ) ) ;
#173 = FACE_OUTER_BOUND ( 'NONE', #742, .T. ) ;
#174 = ADVANCED_FACE ( 'NONE', ( #488 ), #1231, .F. ) ;
#175 = CARTESIAN_POINT ( 'NONE',  ( 1.964999999999994307, 0.000000000000000000, -0.6300000000000002265 ) ) ;
#176 = ORIENTED_EDGE ( 'NONE', *, *, #1266, .T. ) ;
#177 = DIRECTION ( 'NONE',  ( 0.000000000000000000, 0.000000000000000000, -1.000000000000000000 ) ) ;
#178 = AXIS2_PLACEMENT_3D ( 'NONE', #320, #739, #852 ) ;
#179 = VECTOR ( 'NONE', #189, 39.37007874015748143 ) ;
#180 = LINE ( 'NONE', #487, #422 ) ;
#181 = DIRECTION ( 'NONE',  ( 0.000000000000000000, 0.000000000000000000, -1.000000000000000000 ) ) ;
#182 = EDGE_CURVE ( 'NONE', #217, #386, #744, .T. ) ;
#183 = SURFACE_STYLE_FILL_AREA ( #1000 ) ;
#184 = EDGE_LOOP ( 'NONE', ( #992, #630, #690, #1293 ) ) ;
#185 = EDGE_CURVE ( 'NONE', #780, #822, #1350, .T. ) ;
#186 = VERTEX_POINT ( 'NONE', #1344 ) ;
#187 = DIRECTION ( 'NONE',  ( -1.000000000000000000, 0.000000000000000000, 0.000000000000000000 ) ) ;
#188 = DIRECTION ( 'NONE',  ( 0.000000000000000000, 1.000000000000000000, 0.000000000000000000 ) ) ;
#189 = DIRECTION ( 'NONE',  ( -0.000000000000000000, -0.000000000000000000, 1.000000000000000000 ) ) ;
#190 = ORIENTED_EDGE ( 'NONE', *, *, #432, .F. ) ;
#191 = EDGE_LOOP ( 'NONE', ( #1128, #128, #1271, #461 ) ) ;
#192 = EDGE_CURVE ( 'NONE', #1033, #915, #1143, .T. ) ;
#193 = CARTESIAN_POINT ( 'NONE',  ( -8.484999999999999432, -11.13000000000000078, -0.6300000000000000044 ) ) ;
#194 = CYLINDRICAL_SURFACE ( 'NONE', #283, 0.09499999999999994560 ) ;
#195 = CARTESIAN_POINT ( 'NONE',  ( -6.491000000000004988, -2.379999999999999893, 0.000000000000000000 ) ) ;
#196 = ORIENTED_EDGE ( 'NONE', *, *, #1133, .F. ) ;
#197 = ORIENTED_EDGE ( 'NONE', *, *, #1207, .T. ) ;
#198 = FACE_BOUND ( 'NONE', #887, .T. ) ;
#199 = CIRCLE ( 'NONE', #327, 0.09499999999999994560 ) ;
#200 = FACE_OUTER_BOUND ( 'NONE', #1285, .T. ) ;
#201 = AXIS2_PLACEMENT_3D ( 'NONE', #342, #988, #874 ) ;
#202 = VECTOR ( 'NONE', #563, 39.37007874015748143 ) ;
#203 = LINE ( 'NONE', #512, #882 ) ;
#204 = ORIENTED_EDGE ( 'NONE', *, *, #472, .F. ) ;
#205 = VECTOR ( 'NONE', #329, 39.37007874015748143 ) ;
#206 = VERTEX_POINT ( 'NONE', #1039 ) ;
#207 = PLANE ( 'NONE',  #506 ) ;
#208 = CARTESIAN_POINT ( 'NONE',  ( 8.269999999999994245, 0.000000000000000000, -0.05999999999999997696 ) ) ;
#209 = EDGE_CURVE ( 'NONE', #501, #1027, #1373, .T. ) ;
#210 = DIRECTION ( 'NONE',  ( -0.000000000000000000, -0.000000000000000000, 1.000000000000000000 ) ) ;
#211 = EDGE_LOOP ( 'NONE', ( #710, #73, #170, #393 ) ) ;
#212 = EDGE_LOOP ( 'NONE', ( #1120, #658, #980, #1364 ) ) ;
#213 = DIRECTION ( 'NONE',  ( -1.000000000000000000, 0.000000000000000000, -0.000000000000000000 ) ) ;
#214 = PLANE ( 'NONE',  #156 ) ;
#216 = EDGE_CURVE ( 'NONE', #1095, #1168, #306, .T. ) ;
#215 = CARTESIAN_POINT ( 'NONE',  ( -6.605000000000004867, 2.379999999999999893, 0.000000000000000000 ) ) ;
#217 = VERTEX_POINT ( 'NONE', #599 ) ;
#218 = EDGE_LOOP ( 'NONE', ( #351, #1201 ) ) ;
#219 = DIRECTION ( 'NONE',  ( 0.000000000000000000, 0.000000000000000000, -1.000000000000000000 ) ) ;
#220 = DIRECTION ( 'NONE',  ( 1.000000000000000000, 0.000000000000000000, 0.000000000000000000 ) ) ;
#221 = FACE_OUTER_BOUND ( 'NONE', #296, .T. ) ;
#222 = ORIENTED_EDGE ( 'NONE', *, *, #1207, .F. ) ;
#223 = AXIS2_PLACEMENT_3D ( 'NONE', #1316, #1216, #159 ) ;
#224 = EDGE_LOOP ( 'NONE', ( #292, #766, #446, #538 ) ) ;
#225 = AXIS2_PLACEMENT_3D ( 'NONE', #344, #1182, #237 ) ;
#226 = EDGE_CURVE ( 'NONE', #712, #1071, #1306, .T. ) ;
#227 = DIRECTION ( 'NONE',  ( -0.000000000000000000, -0.000000000000000000, 1.000000000000000000 ) ) ;
#228 = LINE ( 'NONE', #648, #244 ) ;
#229 = CARTESIAN_POINT ( 'NONE',  ( 8.269999999999994245, -9.749999999999998224, -0.6300000000000002265 ) ) ;
#230 = ORIENTED_EDGE ( 'NONE', *, *, #997, .F. ) ;
#231 = CARTESIAN_POINT ( 'NONE',  ( -1.475000000000006084, 0.000000000000000000, 0.000000000000000000 ) ) ;
#232 = VERTEX_POINT ( 'NONE', #279 ) ;
#233 = EDGE_CURVE ( 'NONE', #907, #1338, #702, .T. ) ;
#234 = FACE_OUTER_BOUND ( 'NONE', #736, .T. ) ;
#235 = DIRECTION ( 'NONE',  ( -7.284927983104581378E-14, 0.000000000000000000, 1.000000000000000000 ) ) ;
#236 = ORIENTED_EDGE ( 'NONE', *, *, #884, .F. ) ;
#237 = DIRECTION ( 'NONE',  ( 0.000000000000000000, -0.000000000000000000, -1.000000000000000000 ) ) ;
#238 = EDGE_LOOP ( 'NONE', ( #1208, #1277, #1256, #230 ) ) ;
#239 = DIRECTION ( 'NONE',  ( 0.000000000000000000, 0.000000000000000000, -1.000000000000000000 ) ) ;
#240 = LINE ( 'NONE', #1203, #137 ) ;
#241 = DIRECTION ( 'NONE',  ( 1.000000000000000000, 0.000000000000000000, 0.000000000000000000 ) ) ;
#242 = CARTESIAN_POINT ( 'NONE',  ( -8.365000000000000213, 11.12999999999999901, -0.1199999999999999123 ) ) ;
#243 = ORIENTED_EDGE ( 'NONE', *, *, #1091, .F. ) ;
#244 = VECTOR ( 'NONE', #1323, 39.37007874015748143 ) ;
#245 = CIRCLE ( 'NONE', #311, 0.1139999999999999347 ) ;
#246 = DIRECTION ( 'NONE',  ( -1.000000000000000000, 0.000000000000000000, 0.000000000000000000 ) ) ;
#247 = CARTESIAN_POINT ( 'NONE',  ( -6.605000000000004867, -2.379999999999999893, -0.6300000000000002265 ) ) ;
#248 = CARTESIAN_POINT ( 'NONE',  ( 8.484999999999994102, -11.12999999999999545, -0.1200000000000000372 ) ) ;
#249 = ADVANCED_FACE ( 'NONE', ( #494 ), #390, .T. ) ;
#250 = DIRECTION ( 'NONE',  ( -0.000000000000000000, -0.000000000000000000, 1.000000000000000000 ) ) ;
#251 = ORIENTED_EDGE ( 'NONE', *, *, #297, .F. ) ;
#252 = CARTESIAN_POINT ( 'NONE',  ( 8.174999999999995381, 9.750000000000003553, -0.6300000000000002265 ) ) ;
#253 = DIRECTION ( 'NONE',  ( 1.000000000000000000, 1.472694336207150192E-16, -3.491481338843133750E-15 ) ) ;
#254 = CARTESIAN_POINT ( 'NONE',  ( -6.605000000000004867, -2.379999999999999893, -0.05999999999999997696 ) ) ;
#255 = DIRECTION ( 'NONE',  ( -3.491481338843134539E-15, -5.141884792687240950E-31, -1.000000000000000000 ) ) ;
#256 = EDGE_CURVE ( 'NONE', #1007, #780, #1164, .T. ) ;
#257 = DIRECTION ( 'NONE',  ( -0.000000000000000000, 0.000000000000000000, 1.000000000000000000 ) ) ;
#258 = VERTEX_POINT ( 'NONE', #208 ) ;
#259 = DIRECTION ( 'NONE',  ( 0.000000000000000000, 0.000000000000000000, 1.000000000000000000 ) ) ;
#260 = FACE_OUTER_BOUND ( 'NONE', #849, .T. ) ;
#261 = FACE_OUTER_BOUND ( 'NONE', #111, .T. ) ;
#262 = FACE_OUTER_BOUND ( 'NONE', #1108, .T. ) ;
#263 = ORIENTED_EDGE ( 'NONE', *, *, #565, .T. ) ;
#264 = EDGE_CURVE ( 'NONE', #590, #823, #1260, .T. ) ;
#265 = VECTOR ( 'NONE', #284, 39.37007874015748143 ) ;
#266 = ADVANCED_FACE ( 'NONE', ( #117 ), #214, .F. ) ;
#267 = DIRECTION ( 'NONE',  ( 0.000000000000000000, 1.000000000000000000, 3.835990623682900600E-15 ) ) ;
#268 = VECTOR ( 'NONE', #548, 39.37007874015748143 ) ;
#269 = DIRECTION ( 'NONE',  ( 0.000000000000000000, 0.000000000000000000, -1.000000000000000000 ) ) ;
#270 = ORIENTED_EDGE ( 'NONE', *, *, #1158, .T. ) ;
#271 = ADVANCED_FACE ( 'NONE', ( #234 ), #1067, .T. ) ;
#272 = CARTESIAN_POINT ( 'NONE',  ( -8.484999999999997655, -11.12999999999999901, -0.05999999999999978961 ) ) ;
#273 = CARTESIAN_POINT ( 'NONE',  ( 8.484999999999999432, 11.25000000000000533, -0.6300000000000000044 ) ) ;
#274 = DIRECTION ( 'NONE',  ( 1.000000000000000000, 0.000000000000000000, 0.000000000000000000 ) ) ;
#275 = DIRECTION ( 'NONE',  ( -1.917086311343341800E-15, -3.834172622686683600E-15, -1.000000000000000000 ) ) ;
#276 = ORIENTED_EDGE ( 'NONE', *, *, #182, .F. ) ;
#277 = FACE_OUTER_BOUND ( 'NONE', #1282, .T. ) ;
#278 = EDGE_CURVE ( 'NONE', #4, #1222, #100, .T. ) ;
#279 = CARTESIAN_POINT ( 'NONE',  ( -6.719000000000004746, 2.379999999999999893, -0.05999999999999997696 ) ) ;
#280 = DIRECTION ( 'NONE',  ( -0.000000000000000000, -0.000000000000000000, 1.000000000000000000 ) ) ;
#281 = ORIENTED_EDGE ( 'NONE', *, *, #589, .T. ) ;
#282 = EDGE_LOOP ( 'NONE', ( #40, #1013 ) ) ;
#283 = AXIS2_PLACEMENT_3D ( 'NONE', #587, #612, #1030 ) ;
#284 = DIRECTION ( 'NONE',  ( -0.000000000000000000, -0.000000000000000000, 1.000000000000000000 ) ) ;
#285 = VECTOR ( 'NONE', #85, 39.37007874015748143 ) ;
#286 = VECTOR ( 'NONE', #280, 39.37007874015748143 ) ;
#287 = DIRECTION ( 'NONE',  ( -0.000000000000000000, -0.000000000000000000, 1.000000000000000000 ) ) ;
#288 = AXIS2_PLACEMENT_3D ( 'NONE', #940, #210, #420 ) ;
#290 = ADVANCED_FACE ( 'NONE', ( #17 ), #1367, .F. ) ;
#289 = CARTESIAN_POINT ( 'NONE',  ( 8.484999999999999432, 11.25000000000000178, -0.1199999999999995792 ) ) ;
#291 = ORIENTED_EDGE ( 'NONE', *, *, #332, .F. ) ;
#292 = ORIENTED_EDGE ( 'NONE', *, *, #278, .F. ) ;
#293 = DIRECTION ( 'NONE',  ( 0.000000000000000000, -3.834172622686683600E-15, -1.000000000000000000 ) ) ;
#294 = CARTESIAN_POINT ( 'NONE',  ( -1.475000000000006084, 0.000000000000000000, 0.000000000000000000 ) ) ;
#295 = CARTESIAN_POINT ( 'NONE',  ( 8.484999999999999432, 11.25000000000000178, -0.05999999999999978961 ) ) ;
#296 = EDGE_LOOP ( 'NONE', ( #190, #1270, #994, #1190 ) ) ;
#297 = EDGE_CURVE ( 'NONE', #785, #1053, #426, .T. ) ;
#298 = VERTEX_POINT ( 'NONE', #733 ) ;
#299 = DIRECTION ( 'NONE',  ( -1.000000000000000000, 0.000000000000000000, 0.000000000000000000 ) ) ;
#300 = CARTESIAN_POINT ( 'NONE',  ( -6.605000000000004867, -2.379999999999999893, -0.05999999999999997696 ) ) ;
#301 = CARTESIAN_POINT ( 'NONE',  ( -8.424999999999997158, -11.12999999999999901, -0.1199999999999998013 ) ) ;
#302 = ORIENTED_EDGE ( 'NONE', *, *, #216, .T. ) ;
#303 = ORIENTED_EDGE ( 'NONE', *, *, #971, .F. ) ;
#304 = EDGE_CURVE ( 'NONE', #132, #1241, #199, .T. ) ;
#305 = DIRECTION ( 'NONE',  ( 1.000000000000000000, 0.000000000000000000, 0.000000000000000000 ) ) ;
#306 = CIRCLE ( 'NONE', #1237, 0.4399999999999999467 ) ;
#307 = DIRECTION ( 'NONE',  ( 1.000000000000000000, 0.000000000000000000, 0.000000000000000000 ) ) ;
#308 = CIRCLE ( 'NONE', #686, 0.05999999999999772182 ) ;
#309 = CARTESIAN_POINT ( 'NONE',  ( -8.365000000000000213, -11.12999999999999901, -0.1199999999999999123 ) ) ;
#310 = ORIENTED_EDGE ( 'NONE', *, *, #557, .T. ) ;
#311 = AXIS2_PLACEMENT_3D ( 'NONE', #215, #1261, #1275 ) ;
#312 = ORIENTED_EDGE ( 'NONE', *, *, #1196, .T. ) ;
#313 = DIRECTION ( 'NONE',  ( -1.000000000000000000, -0.000000000000000000, -0.000000000000000000 ) ) ;
#314 = EDGE_CURVE ( 'NONE', #751, #258, #808, .T. ) ;
#315 = CARTESIAN_POINT ( 'NONE',  ( -7.985000000000003872, 0.000000000000000000, -0.6300000000000002265 ) ) ;
#316 = DIRECTION ( 'NONE',  ( -0.000000000000000000, -0.000000000000000000, 1.000000000000000000 ) ) ;
#317 = ORIENTED_EDGE ( 'NONE', *, *, #550, .F. ) ;
#318 = VERTEX_POINT ( 'NONE', #95 ) ;
#319 = PLANE ( 'NONE',  #353 ) ;
#320 = CARTESIAN_POINT ( 'NONE',  ( 8.484999999999994102, -11.12999999999999545, -0.1200000000000000372 ) ) ;
#321 = ADVANCED_FACE ( 'NONE', ( #1268 ), #516, .F. ) ;
#322 = CARTESIAN_POINT ( 'NONE',  ( 8.484999999999999432, 11.13000000000000078, -0.1200000000000000372 ) ) ;
#323 = ORIENTED_EDGE ( 'NONE', *, *, #1151, .T. ) ;
#324 = ORIENTED_EDGE ( 'NONE', *, *, #304, .F. ) ;
#325 = CARTESIAN_POINT ( 'NONE',  ( -8.364999999999996660, 0.000000000000000000, 0.000000000000000000 ) ) ;
#326 = CARTESIAN_POINT ( 'NONE',  ( 8.174999999999995381, -9.749999999999998224, -0.05999999999999997696 ) ) ;
#327 = AXIS2_PLACEMENT_3D ( 'NONE', #326, #960, #1372 ) ;
#328 = VECTOR ( 'NONE', #840, 39.37007874015748143 ) ;
#329 = DIRECTION ( 'NONE',  ( -0.000000000000000000, -0.000000000000000000, 1.000000000000000000 ) ) ;
#330 = ORIENTED_EDGE ( 'NONE', *, *, #121, .T. ) ;
#331 = CIRCLE ( 'NONE', #223, 0.1199999999999977335 ) ;
#332 = EDGE_CURVE ( 'NONE', #823, #590, #617, .T. ) ;
#333 = DIRECTION ( 'NONE',  ( -1.000000000000000000, 0.000000000000000000, -0.000000000000000000 ) ) ;
#334 = ORIENTED_EDGE ( 'NONE', *, *, #374, .T. ) ;
#335 = AXIS2_PLACEMENT_3D ( 'NONE', #597, #486, #939 ) ;
#336 = AXIS2_PLACEMENT_3D ( 'NONE', #1290, #451, #458 ) ;
#337 = DIRECTION ( 'NONE',  ( 0.000000000000000000, 1.000000000000000000, 3.841661241090305920E-15 ) ) ;
#338 = CYLINDRICAL_SURFACE ( 'NONE', #644, 0.1139999999999999347 ) ;
#339 = ORIENTED_EDGE ( 'NONE', *, *, #1300, .T. ) ;
#340 = DIRECTION ( 'NONE',  ( -1.000000000000000000, 0.000000000000000000, 0.000000000000000000 ) ) ;
#341 = ORIENTED_EDGE ( 'NONE', *, *, #1098, .F. ) ;
#342 = CARTESIAN_POINT ( 'NONE',  ( -8.365000000000000213, 11.13000000000000256, -0.1199999999999999123 ) ) ;
#343 = CYLINDRICAL_SURFACE ( 'NONE', #336, 0.4399999999999999467 ) ;
#344 = CARTESIAN_POINT ( 'NONE',  ( -8.365000000000000213, -11.12999999999999901, -0.1199999999999999123 ) ) ;
#345 = ORIENTED_EDGE ( 'NONE', *, *, #185, .T. ) ;
#346 = EDGE_CURVE ( 'NONE', #206, #656, #845, .T. ) ;
#347 = LINE ( 'NONE', #368, #851 ) ;
#348 = FACE_OUTER_BOUND ( 'NONE', #893, .T. ) ;
#349 = VECTOR ( 'NONE', #370, 39.37007874015748143 ) ;
#350 = CARTESIAN_POINT ( 'NONE',  ( -8.365000000000000213, -11.12999999999999901, -0.06000000000000219741 ) ) ;
#351 = ORIENTED_EDGE ( 'NONE', *, *, #609, .F. ) ;
#352 = AXIS2_PLACEMENT_3D ( 'NONE', #937, #1044, #626 ) ;
#353 = AXIS2_PLACEMENT_3D ( 'NONE', #726, #430, #213 ) ;
#354 = AXIS2_PLACEMENT_3D ( 'NONE', #500, #96, #1159 ) ;
#355 = CARTESIAN_POINT ( 'NONE',  ( -6.719000000000004746, 2.379999999999999893, 0.000000000000000000 ) ) ;
#356 = EDGE_CURVE ( 'NONE', #165, #206, #43, .T. ) ;
#357 = CARTESIAN_POINT ( 'NONE',  ( -8.365000000000000213, 11.25000000000000533, -0.6300000000000000044 ) ) ;
#358 = CARTESIAN_POINT ( 'NONE',  ( -8.365000000000000213, 11.19000000000000306, -0.6300000000000002265 ) ) ;
#359 = CARTESIAN_POINT ( 'NONE',  ( -8.365000000000000213, 11.25000000000000533, -0.6300000000000000044 ) ) ;
#360 = ORIENTED_EDGE ( 'NONE', *, *, #192, .F. ) ;
#361 = CARTESIAN_POINT ( 'NONE',  ( -8.425000000000002487, 11.13000000000000256, -2.640786393875455036E-14 ) ) ;
#362 = EDGE_CURVE ( 'NONE', #232, #785, #810, .T. ) ;
#363 = DIRECTION ( 'NONE',  ( 0.000000000000000000, 3.491481338843134539E-15, -1.000000000000000000 ) ) ;
#365 = EDGE_CURVE ( 'NONE', #1027, #501, #1286, .T. ) ;
#364 = DIRECTION ( 'NONE',  ( 0.000000000000000000, 0.000000000000000000, 1.000000000000000000 ) ) ;
#366 = ORIENTED_EDGE ( 'NONE', *, *, #660, .F. ) ;
#367 = ORIENTED_EDGE ( 'NONE', *, *, #1196, .F. ) ;
#368 = CARTESIAN_POINT ( 'NONE',  ( -8.365000000000000213, 11.25000000000000178, -0.1199999999999996070 ) ) ;
#369 =( NAMED_UNIT ( * ) PLANE_ANGLE_UNIT ( ) SI_UNIT ( $, .RADIAN. ) );
#370 = DIRECTION ( 'NONE',  ( 0.000000000000000000, -1.000000000000000000, -3.491481338843133750E-15 ) ) ;
#371 =( CONVERSION_BASED_UNIT ( 'INCH', #1221 ) LENGTH_UNIT ( ) NAMED_UNIT ( #976 ) );
#372 = ORIENTED_EDGE ( 'NONE', *, *, #892, .F. ) ;
#373 = AXIS2_PLACEMENT_3D ( 'NONE', #682, #255, #577 ) ;
#374 = EDGE_CURVE ( 'NONE', #109, #1322, #1279, .T. ) ;
#375 = CIRCLE ( 'NONE', #684, 0.4399999999999999467 ) ;
#376 = CIRCLE ( 'NONE', #1195, 0.06000000000000098310 ) ;
#377 = FACE_OUTER_BOUND ( 'NONE', #126, .T. ) ;
#378 = CARTESIAN_POINT ( 'NONE',  ( 8.484999999999999432, -11.12999999999999545, -0.05999999999999999778 ) ) ;
#379 = LINE ( 'NONE', #70, #705 ) ;
#380 = EDGE_LOOP ( 'NONE', ( #809, #1178, #1321, #1035 ) ) ;
#381 = PRODUCT ( 'PP15536-02-(16gacr ANSI-61) - K48 - V0-R0', 'PP15536-02-(16gacr ANSI-61) - K48 - V0-R0', '', ( #1230 ) ) ;
#382 = EDGE_CURVE ( 'NONE', #780, #608, #228, .T. ) ;
#383 = CARTESIAN_POINT ( 'NONE',  ( 0.000000000000000000, -11.18999999999999773, 4.313444200522518438E-14 ) ) ;
#384 = DIRECTION ( 'NONE',  ( 1.000000000000000000, 0.000000000000000000, 0.000000000000000000 ) ) ;
#385 = PLANE ( 'NONE',  #1172 ) ;
#386 = VERTEX_POINT ( 'NONE', #560 ) ;
#387 = ORIENTED_EDGE ( 'NONE', *, *, #981, .T. ) ;
#388 = LINE ( 'NONE', #1235, #265 ) ;
#389 = EDGE_CURVE ( 'NONE', #386, #712, #129, .T. ) ;
#390 = CYLINDRICAL_SURFACE ( 'NONE', #746, 0.1200000000000019940 ) ;
#391 = CARTESIAN_POINT ( 'NONE',  ( -8.484999999999997655, -11.12999999999999901, -0.1199999999999996764 ) ) ;
#392 = ORIENTED_EDGE ( 'NONE', *, *, #407, .F. ) ;
#393 = ORIENTED_EDGE ( 'NONE', *, *, #209, .T. ) ;
#394 = AXIS2_PLACEMENT_3D ( 'NONE', #248, #671, #163 ) ;
#395 = PLANE ( 'NONE',  #1192 ) ;
#396 = VECTOR ( 'NONE', #867, 39.37007874015748143 ) ;
#397 = AXIS2_PLACEMENT_3D ( 'NONE', #985, #1177, #1070 ) ;
#398 = DIRECTION ( 'NONE',  ( 0.000000000000000000, 0.000000000000000000, 1.000000000000000000 ) ) ;
#399 = ADVANCED_FACE ( 'NONE', ( #681 ), #144, .T. ) ;
#400 = DIRECTION ( 'NONE',  ( 1.000000000000000000, 0.000000000000000000, 0.000000000000000000 ) ) ;
#401 = ORIENTED_EDGE ( 'NONE', *, *, #492, .T. ) ;
#402 = EDGE_LOOP ( 'NONE', ( #1126, #514 ) ) ;
#403 = FACE_BOUND ( 'NONE', #934, .T. ) ;
#404 = DIRECTION ( 'NONE',  ( 1.000000000000000000, 0.000000000000000000, 0.000000000000000000 ) ) ;
#405 = CARTESIAN_POINT ( 'NONE',  ( -8.365000000000000213, 11.25000000000000533, -0.6300000000000000044 ) ) ;
#406 = ORIENTED_EDGE ( 'NONE', *, *, #628, .T. ) ;
#407 = EDGE_CURVE ( 'NONE', #1048, #10, #375, .T. ) ;
#408 = EDGE_LOOP ( 'NONE', ( #2, #549, #631, #650 ) ) ;
#409 = LINE ( 'NONE', #6, #158 ) ;
#410 = DIRECTION ( 'NONE',  ( 0.000000000000000000, 0.000000000000000000, 1.000000000000000000 ) ) ;
#411 = CARTESIAN_POINT ( 'NONE',  ( -8.364999999999996660, -11.24999999999999822, -0.1199999999999996070 ) ) ;
#412 = ORIENTED_EDGE ( 'NONE', *, *, #518, .F. ) ;
#413 = ORIENTED_EDGE ( 'NONE', *, *, #1362, .T. ) ;
#414 = EDGE_CURVE ( 'NONE', #571, #495, #347, .T. ) ;
#415 = CARTESIAN_POINT ( 'NONE',  ( 8.484999999999995879, 11.13000000000000078, 9.561467977824920278E-16 ) ) ;
#416 = AXIS2_PLACEMENT_3D ( 'NONE', #568, #241, #60 ) ;
#417 = CARTESIAN_POINT ( 'NONE',  ( 8.174999999999995381, 0.000000000000000000, -0.05999999999999997696 ) ) ;
#418 = CIRCLE ( 'NONE', #1147, 0.09499999999999994560 ) ;
#419 = AXIS2_PLACEMENT_3D ( 'NONE', #973, #340, #678 ) ;
#420 = DIRECTION ( 'NONE',  ( 1.000000000000000000, 0.000000000000000000, 0.000000000000000000 ) ) ;
#421 = ORIENTED_EDGE ( 'NONE', *, *, #1274, .F. ) ;
#422 = VECTOR ( 'NONE', #1009, 39.37007874015748143 ) ;
#423 = EDGE_LOOP ( 'NONE', ( #324, #412 ) ) ;
#424 = FACE_OUTER_BOUND ( 'NONE', #688, .T. ) ;
#425 = ADVANCED_FACE ( 'NONE', ( #38 ), #982, .F. ) ;
#426 = LINE ( 'NONE', #522, #155 ) ;
#427 = DIRECTION ( 'NONE',  ( 0.000000000000000000, 0.000000000000000000, 1.000000000000000000 ) ) ;
#428 = ORIENTED_EDGE ( 'NONE', *, *, #332, .T. ) ;
#429 = ORIENTED_EDGE ( 'NONE', *, *, #1005, .F. ) ;
#430 = DIRECTION ( 'NONE',  ( 0.000000000000000000, 0.000000000000000000, -1.000000000000000000 ) ) ;
#431 = DIRECTION ( 'NONE',  ( 1.000000000000000000, 0.000000000000000000, 0.000000000000000000 ) ) ;
#432 = EDGE_CURVE ( 'NONE', #165, #754, #575, .T. ) ;
#433 = LINE ( 'NONE', #669, #268 ) ;
#434 = ORIENTED_EDGE ( 'NONE', *, *, #439, .F. ) ;
#435 = EDGE_LOOP ( 'NONE', ( #360, #1016, #334, #9 ) ) ;
#436 = CARTESIAN_POINT ( 'NONE',  ( -7.985000000000003872, 0.000000000000000000, 0.000000000000000000 ) ) ;
#437 = AXIS2_PLACEMENT_3D ( 'NONE', #13, #1259, #431 ) ;
#439 = EDGE_CURVE ( 'NONE', #1322, #915, #331, .T. ) ;
#438 = CARTESIAN_POINT ( 'NONE',  ( -1.915000000000006031, 5.388445916248354506E-17, -0.6300000000000002265 ) ) ;
#440 = ORIENTED_EDGE ( 'NONE', *, *, #1204, .T. ) ;
#441 = CARTESIAN_POINT ( 'NONE',  ( -8.364999999999996660, -11.12999999999999545, -0.1200000000000000372 ) ) ;
#442 = VERTEX_POINT ( 'NONE', #996 ) ;
#443 = AXIS2_PLACEMENT_3D ( 'NONE', #27, #750, #983 ) ;
#444 = CARTESIAN_POINT ( 'NONE',  ( -8.485000000000002984, 11.12999999999999901, -0.6300000000000000044 ) ) ;
#445 = DIRECTION ( 'NONE',  ( 1.000000000000000000, -0.000000000000000000, -0.000000000000000000 ) ) ;
#446 = ORIENTED_EDGE ( 'NONE', *, *, #1334, .T. ) ;
#447 = CYLINDRICAL_SURFACE ( 'NONE', #1102, 0.09499999999999994560 ) ;
#448 = VERTEX_POINT ( 'NONE', #444 ) ;
#449 = ADVANCED_FACE ( 'NONE', ( #968 ), #150, .F. ) ;
#450 = LINE ( 'NONE', #361, #396 ) ;
#451 = DIRECTION ( 'NONE',  ( -0.000000000000000000, -0.000000000000000000, 1.000000000000000000 ) ) ;
#452 = CARTESIAN_POINT ( 'NONE',  ( 1.084999999999994191, 5.388445916248355739E-17, -0.05999999999999997696 ) ) ;
#453 = DIRECTION ( 'NONE',  ( 1.000000000000000000, 0.000000000000000000, 0.000000000000000000 ) ) ;
#454 = ORIENTED_EDGE ( 'NONE', *, *, #778, .F. ) ;
#455 = DIRECTION ( 'NONE',  ( -1.917086311343342194E-15, 0.000000000000000000, -1.000000000000000000 ) ) ;
#456 = EDGE_CURVE ( 'NONE', #754, #1007, #3, .T. ) ;
#457 = DIRECTION ( 'NONE',  ( 1.000000000000000000, 0.000000000000000000, 0.000000000000000000 ) ) ;
#458 = DIRECTION ( 'NONE',  ( 1.000000000000000000, 0.000000000000000000, 0.000000000000000000 ) ) ;
#459 = ORIENTED_EDGE ( 'NONE', *, *, #518, .T. ) ;
#460 = CARTESIAN_POINT ( 'NONE',  ( -1.475000000000006084, 0.000000000000000000, -0.6300000000000002265 ) ) ;
#461 = ORIENTED_EDGE ( 'NONE', *, *, #944, .T. ) ;
#462 = VECTOR ( 'NONE', #1186, 39.37007874015748143 ) ;
#463 = AXIS2_PLACEMENT_3D ( 'NONE', #1345, #1131, #806 ) ;
#464 = LINE ( 'NONE', #767, #1101 ) ;
#465 = ADVANCED_FACE ( 'NONE', ( #861 ), #975, .F. ) ;
#466 =( LENGTH_UNIT ( ) NAMED_UNIT ( * ) SI_UNIT ( $, .METRE. ) );
#467 = DIRECTION ( 'NONE',  ( -1.000000000000000000, 0.000000000000000000, 0.000000000000000000 ) ) ;
#468 = CYLINDRICAL_SURFACE ( 'NONE', #1287, 0.4399999999999999467 ) ;
#469 = VERTEX_POINT ( 'NONE', #762 ) ;
#470 = DIRECTION ( 'NONE',  ( 0.000000000000000000, 1.000000000000000000, -3.834172622686683600E-15 ) ) ;
#471 = DIRECTION ( 'NONE',  ( 1.000000000000000000, -0.000000000000000000, -0.000000000000000000 ) ) ;
#472 = EDGE_CURVE ( 'NONE', #495, #957, #675, .T. ) ;
#473 = DIRECTION ( 'NONE',  ( -0.000000000000000000, -0.000000000000000000, 1.000000000000000000 ) ) ;
#474 = VERTEX_POINT ( 'NONE', #355 ) ;
#475 = DIRECTION ( 'NONE',  ( 1.472694336207284052E-16, -1.000000000000000000, 3.834172622686683600E-15 ) ) ;
#476 = DIRECTION ( 'NONE',  ( 0.000000000000000000, 0.000000000000000000, 1.000000000000000000 ) ) ;
#477 = DIRECTION ( 'NONE',  ( 1.000000000000000000, 0.000000000000000000, 0.000000000000000000 ) ) ;
#478 = ADVANCED_FACE ( 'NONE', ( #883 ), #659, .F. ) ;
#479 = PLANE ( 'NONE',  #463 ) ;
#480 = ORIENTED_EDGE ( 'NONE', *, *, #797, .F. ) ;
#481 = ORIENTED_EDGE ( 'NONE', *, *, #304, .T. ) ;
#482 = VECTOR ( 'NONE', #313, 39.37007874015748143 ) ;
#483 = AXIS2_PLACEMENT_3D ( 'NONE', #134, #41, #153 ) ;
#484 = CARTESIAN_POINT ( 'NONE',  ( 8.484999999999999432, -11.18999999999999950, -0.6300000000000002265 ) ) ;
#485 = VECTOR ( 'NONE', #662, 39.37007874015748143 ) ;
#486 = DIRECTION ( 'NONE',  ( -1.000000000000000000, -0.000000000000000000, -0.000000000000000000 ) ) ;
#487 = CARTESIAN_POINT ( 'NONE',  ( -8.424999999999998934, -11.13000000000000078, -0.1199999999999998151 ) ) ;
#488 = FACE_OUTER_BOUND ( 'NONE', #552, .T. ) ;
#489 =( LENGTH_UNIT ( ) NAMED_UNIT ( * ) SI_UNIT ( $, .METRE. ) );
#490 = EDGE_LOOP ( 'NONE', ( #51, #1318, #317, #532 ) ) ;
#491 = ORIENTED_EDGE ( 'NONE', *, *, #1204, .F. ) ;
#492 = EDGE_CURVE ( 'NONE', #796, #442, #450, .T. ) ;
#493 = CARTESIAN_POINT ( 'NONE',  ( 8.484999999999999432, -11.24999999999999822, -0.1199999999999995792 ) ) ;
#494 = FACE_OUTER_BOUND ( 'NONE', #520, .T. ) ;
#495 = VERTEX_POINT ( 'NONE', #775 ) ;
#496 = VERTEX_POINT ( 'NONE', #888 ) ;
#497 = EDGE_CURVE ( 'NONE', #1181, #915, #464, .T. ) ;
#498 = DIRECTION ( 'NONE',  ( 0.000000000000000000, -3.834172622686683600E-15, 1.000000000000000000 ) ) ;
#499 = DIRECTION ( 'NONE',  ( -0.000000000000000000, -0.000000000000000000, 1.000000000000000000 ) ) ;
#500 = CARTESIAN_POINT ( 'NONE',  ( -8.364999999999996660, 11.13000000000000078, -0.1200000000000000372 ) ) ;
#501 = VERTEX_POINT ( 'NONE', #668 ) ;
#502 = ORIENTED_EDGE ( 'NONE', *, *, #314, .T. ) ;
#503 = VECTOR ( 'NONE', #1061, 39.37007874015748143 ) ;
#504 = AXIS2_PLACEMENT_3D ( 'NONE', #383, #1335, #1359 ) ;
#505 = DIRECTION ( 'NONE',  ( 0.000000000000000000, 0.000000000000000000, 1.000000000000000000 ) ) ;
#506 = AXIS2_PLACEMENT_3D ( 'NONE', #99, #838, #1272 ) ;
#507 = EDGE_CURVE ( 'NONE', #318, #1333, #418, .T. ) ;
#508 = AXIS2_PLACEMENT_3D ( 'NONE', #127, #333, #257 ) ;
#509 = DIRECTION ( 'NONE',  ( -1.000000000000000000, -0.000000000000000000, -0.000000000000000000 ) ) ;
#510 = ADVANCED_FACE ( 'NONE', ( #693 ), #395, .T. ) ;
#511 = AXIS2_PLACEMENT_3D ( 'NONE', #700, #364, #784 ) ;
#512 = CARTESIAN_POINT ( 'NONE',  ( 8.484999999999999432, -11.24999999999999822, -0.05999999999999999778 ) ) ;
#513 = ORIENTED_EDGE ( 'NONE', *, *, #1125, .T. ) ;
#514 = ORIENTED_EDGE ( 'NONE', *, *, #362, .F. ) ;
#515 = FACE_BOUND ( 'NONE', #423, .T. ) ;
#516 = CYLINDRICAL_SURFACE ( 'NONE', #897, 0.1560000000000001941 ) ;
#518 = EDGE_CURVE ( 'NONE', #1241, #132, #528, .T. ) ;
#517 = DIRECTION ( 'NONE',  ( 0.000000000000000000, 0.000000000000000000, 1.000000000000000000 ) ) ;
#519 = ORIENTED_EDGE ( 'NONE', *, *, #346, .T. ) ;
#520 = EDGE_LOOP ( 'NONE', ( #524, #341, #204, #480 ) ) ;
#521 = DIRECTION ( 'NONE',  ( -1.000000000000000000, -0.000000000000000000, -0.000000000000000000 ) ) ;
#522 = CARTESIAN_POINT ( 'NONE',  ( -6.491000000000004988, 2.379999999999999893, -0.6300000000000002265 ) ) ;
#523 = CARTESIAN_POINT ( 'NONE',  ( 8.484999999999999432, 11.25000000000000178, -0.05999999999999978961 ) ) ;
#524 = ORIENTED_EDGE ( 'NONE', *, *, #646, .F. ) ;
#525 = ORIENTED_EDGE ( 'NONE', *, *, #839, .F. ) ;
#526 = FACE_OUTER_BOUND ( 'NONE', #211, .T. ) ;
#527 = CARTESIAN_POINT ( 'NONE',  ( 1.524999999999994360, 0.000000000000000000, -0.6300000000000002265 ) ) ;
#528 = CIRCLE ( 'NONE', #1034, 0.09499999999999994560 ) ;
#529 = AXIS2_PLACEMENT_3D ( 'NONE', #606, #578, #1025 ) ;
#530 = CARTESIAN_POINT ( 'NONE',  ( -6.491000000000004988, 2.379999999999999893, 0.000000000000000000 ) ) ;
#531 = ORIENTED_EDGE ( 'NONE', *, *, #653, .T. ) ;
#532 = ORIENTED_EDGE ( 'NONE', *, *, #653, .F. ) ;
#533 = ADVANCED_FACE ( 'NONE', ( #586 ), #64, .T. ) ;
#534 = FACE_BOUND ( 'NONE', #601, .T. ) ;
#535 = DIRECTION ( 'NONE',  ( -1.000000000000000000, 0.000000000000000000, 0.000000000000000000 ) ) ;
#536 = CARTESIAN_POINT ( 'NONE',  ( 8.484999999999999432, -11.25000000000000000, -0.6300000000000000044 ) ) ;
#537 = CARTESIAN_POINT ( 'NONE',  ( -1.035000000000006137, 0.000000000000000000, 0.000000000000000000 ) ) ;
#538 = ORIENTED_EDGE ( 'NONE', *, *, #29, .T. ) ;
#539 = ORIENTED_EDGE ( 'NONE', *, *, #1133, .T. ) ;
#540 = FACE_BOUND ( 'NONE', #1074, .T. ) ;
#541 = DIRECTION ( 'NONE',  ( 1.000000000000000000, -0.000000000000000000, -0.000000000000000000 ) ) ;
#542 = DIRECTION ( 'NONE',  ( 0.000000000000000000, -1.000000000000000000, -3.491481338843133750E-15 ) ) ;
#543 = ORIENTED_EDGE ( 'NONE', *, *, #1250, .F. ) ;
#544 = FACE_OUTER_BOUND ( 'NONE', #435, .T. ) ;
#545 = ORIENTED_EDGE ( 'NONE', *, *, #589, .F. ) ;
#546 = CARTESIAN_POINT ( 'NONE',  ( 8.484999999999994102, -11.12999999999999545, -0.05999999999999904715 ) ) ;
#547 = AXIS2_PLACEMENT_3D ( 'NONE', #1129, #611, #187 ) ;
#548 = DIRECTION ( 'NONE',  ( -0.000000000000000000, 3.834172622686683600E-15, -1.000000000000000000 ) ) ;
#549 = ORIENTED_EDGE ( 'NONE', *, *, #389, .T. ) ;
#550 = EDGE_CURVE ( 'NONE', #1326, #109, #74, .T. ) ;
#551 = CARTESIAN_POINT ( 'NONE',  ( 1.084999999999994191, 5.388445916248355739E-17, 0.000000000000000000 ) ) ;
#552 = EDGE_LOOP ( 'NONE', ( #1093, #789, #1006, #513 ) ) ;
#553 = AXIS2_PLACEMENT_3D ( 'NONE', #1224, #1117, #162 ) ;
#554 = DIRECTION ( 'NONE',  ( -0.000000000000000000, -0.000000000000000000, 1.000000000000000000 ) ) ;
#555 = LINE ( 'NONE', #14, #1265 ) ;
#556 = LINE ( 'NONE', #49, #768 ) ;
#557 = EDGE_CURVE ( 'NONE', #232, #474, #388, .T. ) ;
#558 = FILL_AREA_STYLE_COLOUR ( '', #1036 ) ;
#559 = ORIENTED_EDGE ( 'NONE', *, *, #185, .F. ) ;
#560 = CARTESIAN_POINT ( 'NONE',  ( -6.719000000000004746, -2.379999999999999893, -0.05999999999999997696 ) ) ;
#561 = FACE_OUTER_BOUND ( 'NONE', #643, .T. ) ;
#562 = CARTESIAN_POINT ( 'NONE',  ( -8.364999999999996660, -11.25000000000000000, -0.6300000000000000044 ) ) ;
#563 = DIRECTION ( 'NONE',  ( 0.000000000000000000, 1.000000000000000000, 3.835990623682900600E-15 ) ) ;
#564 = ORIENTED_EDGE ( 'NONE', *, *, #382, .T. ) ;
#565 = EDGE_CURVE ( 'NONE', #625, #448, #1017, .T. ) ;
#566 = DIRECTION ( 'NONE',  ( 0.000000000000000000, 0.000000000000000000, 1.000000000000000000 ) ) ;
#567 = CARTESIAN_POINT ( 'NONE',  ( 8.079999999999994742, 9.750000000000003553, -0.05999999999999997696 ) ) ;
#568 = CARTESIAN_POINT ( 'NONE',  ( 8.484999999999999432, -11.24999999999999822, -0.05999999999999978961 ) ) ;
#569 = AXIS2_PLACEMENT_3D ( 'NONE', #698, #181, #75 ) ;
#570 = PLANE ( 'NONE',  #508 ) ;
#571 = VERTEX_POINT ( 'NONE', #793 ) ;
#572 = VECTOR ( 'NONE', #1174, 39.37007874015748143 ) ;
#573 = AXIS2_PLACEMENT_3D ( 'NONE', #1354, #1145, #826 ) ;
#574 = EDGE_CURVE ( 'NONE', #1222, #469, #1252, .T. ) ;
#575 = LINE ( 'NONE', #546, #1353 ) ;
#576 = APPLICATION_PROTOCOL_DEFINITION ( 'draft international standard', 'automotive_design', 1998, #1087 ) ;
#577 = DIRECTION ( 'NONE',  ( -1.000000000000000000, 0.000000000000000000, 3.491481338843134539E-15 ) ) ;
#578 = DIRECTION ( 'NONE',  ( 0.000000000000000000, 0.000000000000000000, -1.000000000000000000 ) ) ;
#579 = ORIENTED_EDGE ( 'NONE', *, *, #256, .T. ) ;
#580 = DIRECTION ( 'NONE',  ( -1.000000000000000000, 0.000000000000000000, -0.000000000000000000 ) ) ;
#581 = CARTESIAN_POINT ( 'NONE',  ( 0.000000000000000000, 0.000000000000000000, 0.000000000000000000 ) ) ;
#582 = LINE ( 'NONE', #771, #1144 ) ;
#583 = DIRECTION ( 'NONE',  ( -1.917086311343342194E-15, 0.000000000000000000, -1.000000000000000000 ) ) ;
#584 = ORIENTED_EDGE ( 'NONE', *, *, #1185, .F. ) ;
#585 = ORIENTED_EDGE ( 'NONE', *, *, #1116, .T. ) ;
#586 = FACE_OUTER_BOUND ( 'NONE', #963, .T. ) ;
#587 = CARTESIAN_POINT ( 'NONE',  ( 8.174999999999995381, 0.000000000000000000, -0.6300000000000002265 ) ) ;
#589 = EDGE_CURVE ( 'NONE', #1241, #1333, #1245, .T. ) ;
#588 = LINE ( 'NONE', #1232, #286 ) ;
#590 = VERTEX_POINT ( 'NONE', #172 ) ;
#591 = CIRCLE ( 'NONE', #63, 0.06000000000000099698 ) ;
#592 = ORIENTED_EDGE ( 'NONE', *, *, #1065, .F. ) ;
#593 = VECTOR ( 'NONE', #1008, 39.37007874015748143 ) ;
#594 = CIRCLE ( 'NONE', #1329, 0.4399999999999999467 ) ;
#595 = CARTESIAN_POINT ( 'NONE',  ( -8.484999999999999432, -11.13000000000000078, -0.6300000000000000044 ) ) ;
#596 = VECTOR ( 'NONE', #316, 39.37007874015748143 ) ;
#597 = CARTESIAN_POINT ( 'NONE',  ( -8.364999999999996660, 11.13000000000000078, -0.1200000000000000372 ) ) ;
#598 = SHAPE_DEFINITION_REPRESENTATION ( #1339, #1349 ) ;
#599 = CARTESIAN_POINT ( 'NONE',  ( -6.491000000000004988, -2.379999999999999893, -0.05999999999999997696 ) ) ;
#600 = CARTESIAN_POINT ( 'NONE',  ( -6.605000000000004867, -2.379999999999999893, -0.6300000000000002265 ) ) ;
#601 = EDGE_LOOP ( 'NONE', ( #366, #730 ) ) ;
#602 = EDGE_CURVE ( 'NONE', #206, #1007, #689, .T. ) ;
#603 = ORIENTED_EDGE ( 'NONE', *, *, #1281, .T. ) ;
#604 = FACE_BOUND ( 'NONE', #774, .T. ) ;
#605 = CARTESIAN_POINT ( 'NONE',  ( -7.985000000000003872, 0.000000000000000000, -0.6300000000000002265 ) ) ;
#606 = CARTESIAN_POINT ( 'NONE',  ( 8.174999999999995381, 9.750000000000003553, -0.05999999999999997696 ) ) ;
#607 = ORIENTED_EDGE ( 'NONE', *, *, #987, .F. ) ;
#608 = VERTEX_POINT ( 'NONE', #484 ) ;
#609 = EDGE_CURVE ( 'NONE', #36, #1314, #769, .T. ) ;
#610 = ADVANCED_FACE ( 'NONE', ( #377 ), #903, .T. ) ;
#611 = DIRECTION ( 'NONE',  ( 0.000000000000000000, 0.000000000000000000, -1.000000000000000000 ) ) ;
#612 = DIRECTION ( 'NONE',  ( -0.000000000000000000, -0.000000000000000000, 1.000000000000000000 ) ) ;
#613 = LINE ( 'NONE', #735, #752 ) ;
#614 = VERTEX_POINT ( 'NONE', #713 ) ;
#615 = ORIENTED_EDGE ( 'NONE', *, *, #216, .F. ) ;
#616 = AXIS2_PLACEMENT_3D ( 'NONE', #714, #1253, #477 ) ;
#617 = CIRCLE ( 'NONE', #830, 0.1560000000000001941 ) ;
#618 = CARTESIAN_POINT ( 'NONE',  ( -8.364999999999996660, -11.18999999999999773, -0.1199999999999998151 ) ) ;
#619 = CIRCLE ( 'NONE', #46, 0.4399999999999999467 ) ;
#620 = ADVANCED_FACE ( 'NONE', ( #1135, #403, #604, #798, #1029, #1228, #894, #166, #277 ), #697, .F. ) ;
#621 = CIRCLE ( 'NONE', #687, 0.05999999999999772182 ) ;
#622 = CARTESIAN_POINT ( 'NONE',  ( -8.484999999999997655, -11.12999999999999901, -0.1199999999999997041 ) ) ;
#623 = CARTESIAN_POINT ( 'NONE',  ( 8.484999999999990550, -11.24999999999999822, -0.1199999999999995792 ) ) ;
#624 = ORIENTED_EDGE ( 'NONE', *, *, #157, .T. ) ;
#625 = VERTEX_POINT ( 'NONE', #595 ) ;
#626 = DIRECTION ( 'NONE',  ( -1.000000000000000000, 0.000000000000000000, 0.000000000000000000 ) ) ;
#627 = CARTESIAN_POINT ( 'NONE',  ( -7.985000000000003872, 0.000000000000000000, 0.000000000000000000 ) ) ;
#628 = EDGE_CURVE ( 'NONE', #1181, #817, #1078, .T. ) ;
#629 = PLANE ( 'NONE',  #1243 ) ;
#630 = ORIENTED_EDGE ( 'NONE', *, *, #831, .F. ) ;
#631 = ORIENTED_EDGE ( 'NONE', *, *, #226, .T. ) ;
#632 = LINE ( 'NONE', #618, #704 ) ;
#633 = CARTESIAN_POINT ( 'NONE',  ( 0.000000000000000000, 11.19000000000000128, 4.313444200522519700E-14 ) ) ;
#634 = CARTESIAN_POINT ( 'NONE',  ( 8.079999999999994742, 9.750000000000003553, 0.000000000000000000 ) ) ;
#635 = ORIENTED_EDGE ( 'NONE', *, *, #797, .T. ) ;
#636 = EDGE_CURVE ( 'NONE', #496, #77, #819, .T. ) ;
#637 = EDGE_LOOP ( 'NONE', ( #958, #143, #1106, #543 ) ) ;
#638 = LINE ( 'NONE', #1267, #110 ) ;
#639 = VECTOR ( 'NONE', #541, 39.37007874015748143 ) ;
#640 = CARTESIAN_POINT ( 'NONE',  ( 8.484999999999999432, -11.24999999999999822, -0.05999999999999978961 ) ) ;
#641 = CIRCLE ( 'NONE', #483, 0.4399999999999999467 ) ;
#642 = CARTESIAN_POINT ( 'NONE',  ( -8.425000000000002487, 11.12999999999999545, -0.1199999999999998151 ) ) ;
#643 = EDGE_LOOP ( 'NONE', ( #1262, #440, #722, #802 ) ) ;
#644 = AXIS2_PLACEMENT_3D ( 'NONE', #247, #846, #770 ) ;
#645 = ORIENTED_EDGE ( 'NONE', *, *, #432, .T. ) ;
#646 = EDGE_CURVE ( 'NONE', #77, #817, #1342, .T. ) ;
#647 = DIRECTION ( 'NONE',  ( 0.000000000000000000, 1.000000000000000000, 0.000000000000000000 ) ) ;
#648 = CARTESIAN_POINT ( 'NONE',  ( 8.484999999999999432, -11.25000000000000000, -0.6300000000000000044 ) ) ;
#649 = CARTESIAN_POINT ( 'NONE',  ( 8.174999999999995381, -9.749999999999998224, 0.000000000000000000 ) ) ;
#650 = ORIENTED_EDGE ( 'NONE', *, *, #44, .F. ) ;
#651 = DIRECTION ( 'NONE',  ( -0.000000000000000000, 1.000000000000000000, -0.000000000000000000 ) ) ;
#652 = ORIENTED_EDGE ( 'NONE', *, *, #699, .F. ) ;
#653 = EDGE_CURVE ( 'NONE', #496, #1326, #745, .T. ) ;
#654 = CARTESIAN_POINT ( 'NONE',  ( 0.000000000000000000, 11.19000000000000306, -0.6300000000000002265 ) ) ;
#655 = DIRECTION ( 'NONE',  ( 0.000000000000000000, -3.834172622686683600E-15, -1.000000000000000000 ) ) ;
#656 = VERTEX_POINT ( 'NONE', #1278 ) ;
#657 = LINE ( 'NONE', #350, #66 ) ;
#658 = ORIENTED_EDGE ( 'NONE', *, *, #414, .T. ) ;
#659 = PLANE ( 'NONE',  #1263 ) ;
#660 = EDGE_CURVE ( 'NONE', #298, #743, #661, .T. ) ;
#661 = CIRCLE ( 'NONE', #65, 0.4399999999999999467 ) ;
#662 = DIRECTION ( 'NONE',  ( -1.917086311343341800E-15, -3.834172622686683600E-15, -1.000000000000000000 ) ) ;
#663 = PLANE ( 'NONE',  #1191 ) ;
#664 = AXIS2_PLACEMENT_3D ( 'NONE', #600, #473, #1226 ) ;
#665 = DIRECTION ( 'NONE',  ( 0.000000000000000000, 0.000000000000000000, -1.000000000000000000 ) ) ;
#666 = EDGE_LOOP ( 'NONE', ( #1176, #84, #1244, #428 ) ) ;
#667 = AXIS2_PLACEMENT_3D ( 'NONE', #322, #1248, #1361 ) ;
#668 = CARTESIAN_POINT ( 'NONE',  ( 8.269999999999994245, 9.750000000000003553, 0.000000000000000000 ) ) ;
#670 = EDGE_CURVE ( 'NONE', #1338, #1027, #409, .T. ) ;
#669 = CARTESIAN_POINT ( 'NONE',  ( -8.365000000000000213, 11.19000000000000128, 4.313444200522519700E-14 ) ) ;
#671 = DIRECTION ( 'NONE',  ( 1.000000000000000000, 0.000000000000000000, -0.000000000000000000 ) ) ;
#673 = EDGE_CURVE ( 'NONE', #298, #1168, #638, .T. ) ;
#672 = CARTESIAN_POINT ( 'NONE',  ( -8.425000000000002487, 11.12999999999999901, -0.6300000000000002265 ) ) ;
#674 = ORIENTED_EDGE ( 'NONE', *, *, #699, .T. ) ;
#675 = LINE ( 'NONE', #32, #462 ) ;
#676 = CARTESIAN_POINT ( 'NONE',  ( -6.605000000000004867, 2.379999999999999893, -0.05999999999999997696 ) ) ;
#677 = DIRECTION ( 'NONE',  ( 0.000000000000000000, -0.000000000000000000, -1.000000000000000000 ) ) ;
#678 = DIRECTION ( 'NONE',  ( 0.000000000000000000, -1.000000000000000000, 3.699377491420295379E-15 ) ) ;
#679 = ORIENTED_EDGE ( 'NONE', *, *, #192, .T. ) ;
#680 = EDGE_CURVE ( 'NONE', #743, #298, #923, .T. ) ;
#681 = FACE_OUTER_BOUND ( 'NONE', #1214, .T. ) ;
#682 = CARTESIAN_POINT ( 'NONE',  ( -8.484999999999999432, -11.13000000000000078, -0.6300000000000000044 ) ) ;
#683 = AXIS2_PLACEMENT_3D ( 'NONE', #417, #834, #535 ) ;
#684 = AXIS2_PLACEMENT_3D ( 'NONE', #1100, #239, #246 ) ;
#685 = EDGE_LOOP ( 'NONE', ( #62, #171, #645, #1357 ) ) ;
#686 = AXIS2_PLACEMENT_3D ( 'NONE', #242, #651, #759 ) ;
#687 = AXIS2_PLACEMENT_3D ( 'NONE', #309, #715, #101 ) ;
#688 = EDGE_LOOP ( 'NONE', ( #843, #674, #828, #1155 ) ) ;
#689 = LINE ( 'NONE', #493, #1170 ) ;
#690 = ORIENTED_EDGE ( 'NONE', *, *, #574, .F. ) ;
#691 = VERTEX_POINT ( 'NONE', #732 ) ;
#692 = ORIENTED_EDGE ( 'NONE', *, *, #507, .F. ) ;
#693 = FACE_OUTER_BOUND ( 'NONE', #56, .T. ) ;
#694 = EDGE_CURVE ( 'NONE', #36, #823, #105, .T. ) ;
#695 = CYLINDRICAL_SURFACE ( 'NONE', #1031, 0.1560000000000001941 ) ;
#696 = VERTEX_POINT ( 'NONE', #1156 ) ;
#697 = PLANE ( 'NONE',  #1328 ) ;
#698 = CARTESIAN_POINT ( 'NONE',  ( 8.174999999999995381, 9.750000000000003553, -0.05999999999999997696 ) ) ;
#699 = EDGE_CURVE ( 'NONE', #656, #1132, #632, .T. ) ;
#700 = CARTESIAN_POINT ( 'NONE',  ( -6.605000000000004867, -2.379999999999999893, 0.000000000000000000 ) ) ;
#701 = ORIENTED_EDGE ( 'NONE', *, *, #574, .T. ) ;
#702 = CIRCLE ( 'NONE', #569, 0.09499999999999994560 ) ;
#703 = ORIENTED_EDGE ( 'NONE', *, *, #209, .F. ) ;
#704 = VECTOR ( 'NONE', #1058, 39.37007874015748143 ) ;
#705 = VECTOR ( 'NONE', #795, 39.37007874015748143 ) ;
#706 = DIRECTION ( 'NONE',  ( 0.000000000000000000, -1.000000000000000000, 3.835990623682900600E-15 ) ) ;
#707 = VECTOR ( 'NONE', #542, 39.37007874015748143 ) ;
#708 = CARTESIAN_POINT ( 'NONE',  ( -6.605000000000004867, -2.379999999999999893, 0.000000000000000000 ) ) ;
#709 = FACE_OUTER_BOUND ( 'NONE', #408, .T. ) ;
#710 = ORIENTED_EDGE ( 'NONE', *, *, #670, .F. ) ;
#711 = EDGE_CURVE ( 'NONE', #1322, #817, #94, .T. ) ;
#712 = VERTEX_POINT ( 'NONE', #719 ) ;
#713 = CARTESIAN_POINT ( 'NONE',  ( -8.365000000000000213, 11.25000000000000533, -0.6300000000000000044 ) ) ;
#714 = CARTESIAN_POINT ( 'NONE',  ( 8.174999999999995381, 9.750000000000003553, 0.000000000000000000 ) ) ;
#715 = DIRECTION ( 'NONE',  ( 0.000000000000000000, -1.000000000000000000, 0.000000000000000000 ) ) ;
#716 = ORIENTED_EDGE ( 'NONE', *, *, #365, .F. ) ;
#717 = ORIENTED_EDGE ( 'NONE', *, *, #1266, .F. ) ;
#718 = ADVANCED_FACE ( 'NONE', ( #526 ), #1371, .F. ) ;
#719 = CARTESIAN_POINT ( 'NONE',  ( -6.719000000000004746, -2.379999999999999893, 0.000000000000000000 ) ) ;
#720 = FACE_OUTER_BOUND ( 'NONE', #1154, .T. ) ;
#721 = FACE_OUTER_BOUND ( 'NONE', #212, .T. ) ;
#722 = ORIENTED_EDGE ( 'NONE', *, *, #44, .T. ) ;
#723 = EDGE_LOOP ( 'NONE', ( #692, #1138 ) ) ;
#724 = VECTOR ( 'NONE', #1111, 39.37007874015748143 ) ;
#725 = ADVANCED_FACE ( 'NONE', ( #1066, #122, #931, #198, #534, #540, #832, #515, #946 ), #319, .T. ) ;
#726 = CARTESIAN_POINT ( 'NONE',  ( 0.000000000000000000, 0.000000000000000000, -0.05999999999999999778 ) ) ;
#727 = CIRCLE ( 'NONE', #1127, 0.09499999999999994560 ) ;
#728 = DIRECTION ( 'NONE',  ( -1.000000000000000000, 0.000000000000000000, 0.000000000000000000 ) ) ;
#729 = FACE_OUTER_BOUND ( 'NONE', #758, .T. ) ;
#730 = ORIENTED_EDGE ( 'NONE', *, *, #680, .F. ) ;
#731 = ORIENTED_EDGE ( 'NONE', *, *, #550, .T. ) ;
#732 = CARTESIAN_POINT ( 'NONE',  ( -8.364999999999996660, -11.18999999999999950, -0.6300000000000002265 ) ) ;
#733 = CARTESIAN_POINT ( 'NONE',  ( -1.035000000000006137, 0.000000000000000000, -0.05999999999999997696 ) ) ;
#734 = EDGE_CURVE ( 'NONE', #625, #696, #872, .T. ) ;
#735 = CARTESIAN_POINT ( 'NONE',  ( -8.425000000000000711, -1.240744978254523972E-15, -0.6300000000000002265 ) ) ;
#736 = EDGE_LOOP ( 'NONE', ( #837, #972, #98, #434 ) ) ;
#737 = ORIENTED_EDGE ( 'NONE', *, *, #1300, .F. ) ;
#738 = CARTESIAN_POINT ( 'NONE',  ( -1.915000000000006031, 5.388445916248355739E-17, -0.05999999999999997696 ) ) ;
#739 = DIRECTION ( 'NONE',  ( 1.000000000000000000, -0.000000000000000000, -0.000000000000000000 ) ) ;
#741 = ADVANCED_FACE ( 'NONE', ( #424 ), #207, .F. ) ;
#740 = DIRECTION ( 'NONE',  ( -1.000000000000000000, -1.472694336207213548E-16, 1.837589179357618433E-15 ) ) ;
#742 = EDGE_LOOP ( 'NONE', ( #545, #459, #154, #1346 ) ) ;
#743 = VERTEX_POINT ( 'NONE', #738 ) ;
#744 = CIRCLE ( 'NONE', #829, 0.1139999999999999347 ) ;
#745 = LINE ( 'NONE', #1171, #1239 ) ;
#746 = AXIS2_PLACEMENT_3D ( 'NONE', #1152, #220, #337 ) ;
#747 = CARTESIAN_POINT ( 'NONE',  ( -8.365000000000000213, -11.12999999999999901, -0.06000000000000219741 ) ) ;
#748 = AXIS2_PLACEMENT_3D ( 'NONE', #1202, #1209, #1301 ) ;
#749 = AXIS2_PLACEMENT_3D ( 'NONE', #1050, #959, #305 ) ;
#750 = DIRECTION ( 'NONE',  ( 0.000000000000000000, 0.000000000000000000, 1.000000000000000000 ) ) ;
#751 = VERTEX_POINT ( 'NONE', #1163 ) ;
#752 = VECTOR ( 'NONE', #1254, 39.37007874015748143 ) ;
#753 = DIRECTION ( 'NONE',  ( -0.000000000000000000, -0.000000000000000000, 1.000000000000000000 ) ) ;
#754 = VERTEX_POINT ( 'NONE', #37 ) ;
#755 = ADVANCED_FACE ( 'NONE', ( #844 ), #115, .T. ) ;
#756 = DIRECTION ( 'NONE',  ( 0.000000000000000000, 0.000000000000000000, 1.000000000000000000 ) ) ;
#757 = LINE ( 'NONE', #438, #205 ) ;
#758 = EDGE_LOOP ( 'NONE', ( #856, #310, #539, #251 ) ) ;
#759 = DIRECTION ( 'NONE',  ( 0.000000000000000000, 0.000000000000000000, 1.000000000000000000 ) ) ;
#760 = ORIENTED_EDGE ( 'NONE', *, *, #778, .T. ) ;
#761 = EDGE_CURVE ( 'NONE', #448, #796, #790, .T. ) ;
#762 = CARTESIAN_POINT ( 'NONE',  ( 8.484999999999999432, 11.19000000000000128, -0.1199999999999998151 ) ) ;
#763 = DIRECTION ( 'NONE',  ( -1.000000000000000000, 0.000000000000000000, 0.000000000000000000 ) ) ;
#764 = CARTESIAN_POINT ( 'NONE',  ( -8.485000000000002984, 11.13000000000000078, -0.6300000000000000044 ) ) ;
#765 = CARTESIAN_POINT ( 'NONE',  ( 8.269999999999994245, 9.750000000000003553, -0.05999999999999997696 ) ) ;
#766 = ORIENTED_EDGE ( 'NONE', *, *, #1167, .F. ) ;
#767 = CARTESIAN_POINT ( 'NONE',  ( -8.484999999999999432, -11.13000000000000078, -0.1199999999999997041 ) ) ;
#768 = VECTOR ( 'NONE', #467, 39.37007874015748143 ) ;
#769 = CIRCLE ( 'NONE', #547, 0.1560000000000001941 ) ;
#770 = DIRECTION ( 'NONE',  ( 1.000000000000000000, 0.000000000000000000, 0.000000000000000000 ) ) ;
#771 = CARTESIAN_POINT ( 'NONE',  ( -6.491000000000004988, -2.379999999999999893, -0.6300000000000002265 ) ) ;
#772 =( GEOMETRIC_REPRESENTATION_CONTEXT ( 3 ) GLOBAL_UNCERTAINTY_ASSIGNED_CONTEXT ( ( #1315 ) ) GLOBAL_UNIT_ASSIGNED_CONTEXT ( ( #371, #1211, #913 ) ) REPRESENTATION_CONTEXT ( 'NONE', 'WORKASPACE' ) );
#773 = DIRECTION ( 'NONE',  ( 0.000000000000000000, 0.000000000000000000, 1.000000000000000000 ) ) ;
#774 = EDGE_LOOP ( 'NONE', ( #429, #1251 ) ) ;
#775 = CARTESIAN_POINT ( 'NONE',  ( -8.364999999999993108, 11.25000000000000178, -0.1199999999999995792 ) ) ;
#776 = CARTESIAN_POINT ( 'NONE',  ( -8.485000000000001208, 11.12999999999999901, -0.1199999999999997041 ) ) ;
#777 = PLANE ( 'NONE',  #373 ) ;
#778 = EDGE_CURVE ( 'NONE', #1326, #571, #1080, .T. ) ;
#779 = DIRECTION ( 'NONE',  ( 0.000000000000000000, 3.834172622686683600E-15, -1.000000000000000000 ) ) ;
#780 = VERTEX_POINT ( 'NONE', #536 ) ;
#781 = DIRECTION ( 'NONE',  ( 0.000000000000000000, 3.834172622686683600E-15, 1.000000000000000000 ) ) ;
#782 = LENGTH_MEASURE_WITH_UNIT ( LENGTH_MEASURE( 0.02539999999999999897 ), #466 );
#783 = PLANE ( 'NONE',  #850 ) ;
#784 = DIRECTION ( 'NONE',  ( 1.000000000000000000, 0.000000000000000000, 0.000000000000000000 ) ) ;
#785 = VERTEX_POINT ( 'NONE', #1313 ) ;
#786 = DIRECTION ( 'NONE',  ( 7.284927983104581378E-14, 0.000000000000000000, 1.000000000000000000 ) ) ;
#787 = CARTESIAN_POINT ( 'NONE',  ( 8.269999999999994245, 0.000000000000000000, 0.000000000000000000 ) ) ;
#788 = AXIS2_PLACEMENT_3D ( 'NONE', #708, #1118, #384 ) ;
#789 = ORIENTED_EDGE ( 'NONE', *, *, #362, .T. ) ;
#790 = LINE ( 'NONE', #58, #1242 ) ;
#791 = VECTOR ( 'NONE', #1180, 39.37007874015748143 ) ;
#792 = EDGE_CURVE ( 'NONE', #109, #165, #657, .T. ) ;
#793 = CARTESIAN_POINT ( 'NONE',  ( -8.364999999999996660, 11.19000000000000128, -0.1199999999999998151 ) ) ;
#794 =( NAMED_UNIT ( * ) SI_UNIT ( $, .STERADIAN. ) SOLID_ANGLE_UNIT ( ) );
#795 = DIRECTION ( 'NONE',  ( -0.000000000000000000, -0.000000000000000000, 1.000000000000000000 ) ) ;
#796 = VERTEX_POINT ( 'NONE', #672 ) ;
#797 = EDGE_CURVE ( 'NONE', #817, #495, #1104, .T. ) ;
#798 = FACE_BOUND ( 'NONE', #282, .T. ) ;
#799 = CARTESIAN_POINT ( 'NONE',  ( -6.605000000000004867, 2.379999999999999893, -0.6300000000000002265 ) ) ;
#800 = DIRECTION ( 'NONE',  ( 0.000000000000000000, 1.000000000000000000, -3.491481338843134539E-15 ) ) ;
#801 = ORIENTED_EDGE ( 'NONE', *, *, #1309, .F. ) ;
#802 = ORIENTED_EDGE ( 'NONE', *, *, #1005, .T. ) ;
#803 = DIRECTION ( 'NONE',  ( 0.000000000000000000, 0.000000000000000000, -1.000000000000000000 ) ) ;
#804 = DIRECTION ( 'NONE',  ( 1.000000000000000000, 0.000000000000000000, 0.000000000000000000 ) ) ;
#805 = EDGE_CURVE ( 'NONE', #1168, #1095, #619, .T. ) ;
#806 = DIRECTION ( 'NONE',  ( 0.000000000000000000, 3.834172622686683600E-15, 1.000000000000000000 ) ) ;
#807 = VERTEX_POINT ( 'NONE', #551 ) ;
#808 = CIRCLE ( 'NONE', #683, 0.09499999999999994560 ) ;
#809 = ORIENTED_EDGE ( 'NONE', *, *, #908, .F. ) ;
#810 = CIRCLE ( 'NONE', #88, 0.1139999999999999347 ) ;
#811 = DIRECTION ( 'NONE',  ( -1.000000000000000000, 0.000000000000000000, 0.000000000000000000 ) ) ;
#812 = VECTOR ( 'NONE', #33, 39.37007874015748143 ) ;
#813 = AXIS2_PLACEMENT_3D ( 'NONE', #581, #67, #904 ) ;
#814 = CARTESIAN_POINT ( 'NONE',  ( 8.484999999999999432, -11.25000000000000000, -0.6300000000000000044 ) ) ;
#816 = ADVANCED_FACE ( 'NONE', ( #880 ), #468, .F. ) ;
#815 = FACE_OUTER_BOUND ( 'NONE', #184, .T. ) ;
#817 = VERTEX_POINT ( 'NONE', #142 ) ;
#818 = ORIENTED_EDGE ( 'NONE', *, *, #21, .F. ) ;
#819 = LINE ( 'NONE', #1002, #1057 ) ;
#820 = DIRECTION ( 'NONE',  ( -0.000000000000000000, -0.000000000000000000, 1.000000000000000000 ) ) ;
#821 = LINE ( 'NONE', #642, #1197 ) ;
#822 = VERTEX_POINT ( 'NONE', #1092 ) ;
#823 = VERTEX_POINT ( 'NONE', #147 ) ;
#824 = CARTESIAN_POINT ( 'NONE',  ( -1.475000000000006084, 0.000000000000000000, -0.05999999999999997696 ) ) ;
#825 = DIRECTION ( 'NONE',  ( 0.000000000000000000, 0.000000000000000000, -1.000000000000000000 ) ) ;
#826 = DIRECTION ( 'NONE',  ( 0.000000000000000000, 0.000000000000000000, -1.000000000000000000 ) ) ;
#827 = EDGE_LOOP ( 'NONE', ( #731, #585, #899, #119 ) ) ;
#828 = ORIENTED_EDGE ( 'NONE', *, *, #839, .T. ) ;
#829 = AXIS2_PLACEMENT_3D ( 'NONE', #300, #1337, #918 ) ;
#830 = AXIS2_PLACEMENT_3D ( 'NONE', #436, #410, #307 ) ;
#831 = EDGE_CURVE ( 'NONE', #469, #957, #864, .T. ) ;
#832 = FACE_BOUND ( 'NONE', #860, .T. ) ;
#833 = CIRCLE ( 'NONE', #900, 0.1200000000000010086 ) ;
#834 = DIRECTION ( 'NONE',  ( 0.000000000000000000, 0.000000000000000000, -1.000000000000000000 ) ) ;
#835 = LINE ( 'NONE', #1269, #596 ) ;
#836 = EDGE_LOOP ( 'NONE', ( #865, #942, #519, #1042 ) ) ;
#837 = ORIENTED_EDGE ( 'NONE', *, *, #711, .T. ) ;
#838 = DIRECTION ( 'NONE',  ( 1.000000000000000000, 0.000000000000000000, -0.000000000000000000 ) ) ;
#839 = EDGE_CURVE ( 'NONE', #1132, #1322, #833, .T. ) ;
#840 = DIRECTION ( 'NONE',  ( -1.000000000000000000, 0.000000000000000000, 0.000000000000000000 ) ) ;
#841 = CARTESIAN_POINT ( 'NONE',  ( -1.915000000000006031, 5.388445916248355739E-17, 0.000000000000000000 ) ) ;
#842 = EDGE_LOOP ( 'NONE', ( #28, #387, #413, #1291 ) ) ;
#843 = ORIENTED_EDGE ( 'NONE', *, *, #167, .F. ) ;
#844 = FACE_OUTER_BOUND ( 'NONE', #1305, .T. ) ;
#845 = LINE ( 'NONE', #1157, #328 ) ;
#846 = DIRECTION ( 'NONE',  ( -0.000000000000000000, -0.000000000000000000, 1.000000000000000000 ) ) ;
#847 = ORIENTED_EDGE ( 'NONE', *, *, #805, .T. ) ;
#848 = EDGE_CURVE ( 'NONE', #1314, #36, #1014, .T. ) ;
#849 = EDGE_LOOP ( 'NONE', ( #339, #525, #929, #78 ) ) ;
#850 = AXIS2_PLACEMENT_3D ( 'NONE', #1312, #363, #999 ) ;
#851 = VECTOR ( 'NONE', #267, 39.37007874015748143 ) ;
#852 = DIRECTION ( 'NONE',  ( 0.000000000000000000, 0.000000000000000000, 1.000000000000000000 ) ) ;
#853 = MECHANICAL_DESIGN_GEOMETRIC_PRESENTATION_REPRESENTATION (  '', ( #89 ), #772 ) ;
#854 = CIRCLE ( 'NONE', #667, 0.1200000000000010225 ) ;
#855 = CARTESIAN_POINT ( 'NONE',  ( -8.364999999999998437, -11.25000000000000000, -0.6300000000000000044 ) ) ;
#856 = ORIENTED_EDGE ( 'NONE', *, *, #1161, .T. ) ;
#857 = PRODUCT_DEFINITION_FORMATION_WITH_SPECIFIED_SOURCE ( 'ANY', '', #381, .NOT_KNOWN. ) ;
#858 = EDGE_CURVE ( 'NONE', #10, #1048, #641, .T. ) ;
#859 = DIRECTION ( 'NONE',  ( -1.000000000000000000, -0.000000000000000000, -0.000000000000000000 ) ) ;
#860 = EDGE_LOOP ( 'NONE', ( #881, #303 ) ) ;
#861 = FACE_OUTER_BOUND ( 'NONE', #827, .T. ) ;
#862 = CARTESIAN_POINT ( 'NONE',  ( 8.484999999999999432, 11.19000000000000306, -0.6300000000000002265 ) ) ;
#863 = CARTESIAN_POINT ( 'NONE',  ( -8.365000000000000213, 11.12999999999999901, -0.1199999999999999123 ) ) ;
#864 = LINE ( 'NONE', #1075, #202 ) ;
#865 = ORIENTED_EDGE ( 'NONE', *, *, #792, .T. ) ;
#866 = ADVANCED_FACE ( 'NONE', ( #1298 ), #570, .F. ) ;
#867 = DIRECTION ( 'NONE',  ( 1.917086311343341800E-15, 3.834172622686683600E-15, 1.000000000000000000 ) ) ;
#868 = CARTESIAN_POINT ( 'NONE',  ( -8.141000000000003567, 1.910449006669872628E-17, -0.05999999999999997696 ) ) ;
#869 = CARTESIAN_POINT ( 'NONE',  ( 8.174999999999995381, 0.000000000000000000, -0.05999999999999997696 ) ) ;
#870 = CYLINDRICAL_SURFACE ( 'NONE', #664, 0.1139999999999999347 ) ;
#871 = EDGE_LOOP ( 'NONE', ( #801, #502, #323, #176 ) ) ;
#872 = LINE ( 'NONE', #1365, #160 ) ;
#873 = ADVANCED_FACE ( 'NONE', ( #35 ), #447, .F. ) ;
#874 = DIRECTION ( 'NONE',  ( -1.000000000000000000, 0.000000000000000000, 1.991972495380267488E-15 ) ) ;
#875 = CLOSED_SHELL ( 'NONE', ( #130, #1141, #910, #123, #1294, #140, #449, #873, #725, #620, #1040, #1109, #866, #249, #1319, #1047, #1028, #533, #266, #72, #901, #61, #271, #465, #510, #954, #935, #755, #113, #86, #741, #1352, #889, #5, #399, #478, #610, #917, #149, #718, #425, #816, #290, #1238, #174, #321 ) ) ;
#876 = AXIS2_PLACEMENT_3D ( 'NONE', #1094, #138, #259 ) ;
#877 = CARTESIAN_POINT ( 'NONE',  ( 0.000000000000000000, -11.12999999999999901, -0.000000000000000000 ) ) ;
#878 = CARTESIAN_POINT ( 'NONE',  ( -8.364999999999998437, -11.12999999999999901, -0.05999999999999999778 ) ) ;
#879 = VECTOR ( 'NONE', #275, 39.37007874015748143 ) ;
#880 = FACE_OUTER_BOUND ( 'NONE', #1097, .T. ) ;
#881 = ORIENTED_EDGE ( 'NONE', *, *, #233, .F. ) ;
#882 = VECTOR ( 'NONE', #8, 39.37007874015748143 ) ;
#883 = FACE_OUTER_BOUND ( 'NONE', #1054, .T. ) ;
#884 = EDGE_CURVE ( 'NONE', #495, #614, #22, .T. ) ;
#885 = LINE ( 'NONE', #764, #724 ) ;
#886 = CARTESIAN_POINT ( 'NONE',  ( -8.424999999999997158, -11.12999999999999901, 5.894081864225103371E-14 ) ) ;
#887 = EDGE_LOOP ( 'NONE', ( #392, #16 ) ) ;
#888 = CARTESIAN_POINT ( 'NONE',  ( 8.484999999999999432, 11.13000000000000078, -0.05999999999999999778 ) ) ;
#889 = ADVANCED_FACE ( 'NONE', ( #50 ), #1292, .F. ) ;
#890 = LINE ( 'NONE', #1130, #1351 ) ;
#892 = EDGE_CURVE ( 'NONE', #442, #1326, #308, .T. ) ;
#891 = CARTESIAN_POINT ( 'NONE',  ( 8.484999999999999432, -11.25000000000000000, -0.6300000000000000044 ) ) ;
#893 = EDGE_LOOP ( 'NONE', ( #531, #760, #197, #97 ) ) ;
#894 = FACE_BOUND ( 'NONE', #914, .T. ) ;
#895 = DIRECTION ( 'NONE',  ( 1.000000000000000000, 0.000000000000000000, 0.000000000000000000 ) ) ;
#896 = DIRECTION ( 'NONE',  ( 1.000000000000000000, 0.000000000000000000, 0.000000000000000000 ) ) ;
#897 = AXIS2_PLACEMENT_3D ( 'NONE', #315, #1273, #932 ) ;
#898 = CARTESIAN_POINT ( 'NONE',  ( 8.484999999999999432, 11.25000000000000533, -0.6300000000000000044 ) ) ;
#899 = ORIENTED_EDGE ( 'NONE', *, *, #1341, .T. ) ;
#900 = AXIS2_PLACEMENT_3D ( 'NONE', #441, #1200, #1284 ) ;
#901 = ADVANCED_FACE ( 'NONE', ( #544 ), #964, .T. ) ;
#902 = CIRCLE ( 'NONE', #443, 0.09499999999999994560 ) ;
#903 = PLANE ( 'NONE',  #504 ) ;
#904 = DIRECTION ( 'NONE',  ( 1.000000000000000000, 0.000000000000000000, 0.000000000000000000 ) ) ;
#905 = DIRECTION ( 'NONE',  ( 1.000000000000000000, 0.000000000000000000, 0.000000000000000000 ) ) ;
#906 = EDGE_LOOP ( 'NONE', ( #965, #454, #312, #635 ) ) ;
#907 = VERTEX_POINT ( 'NONE', #765 ) ;
#908 = EDGE_CURVE ( 'NONE', #469, #496, #376, .T. ) ;
#909 = MANIFOLD_SOLID_BREP ( 'Cortar-Extruir2', #875 ) ;
#910 = ADVANCED_FACE ( 'NONE', ( #709 ), #870, .F. ) ;
#911 = DIRECTION ( 'NONE',  ( -0.000000000000000000, 1.000000000000000000, -0.000000000000000000 ) ) ;
#912 = CARTESIAN_POINT ( 'NONE',  ( 1.524999999999994360, 0.000000000000000000, -0.6300000000000002265 ) ) ;
#913 =( NAMED_UNIT ( * ) SI_UNIT ( $, .STERADIAN. ) SOLID_ANGLE_UNIT ( ) );
#914 = EDGE_LOOP ( 'NONE', ( #703, #716 ) ) ;
#915 = VERTEX_POINT ( 'NONE', #391 ) ;
#916 = CARTESIAN_POINT ( 'NONE',  ( -8.365000000000000213, 11.12999999999999901, -0.1199999999999999123 ) ) ;
#917 = ADVANCED_FACE ( 'NONE', ( #262 ), #385, .T. ) ;
#918 = DIRECTION ( 'NONE',  ( -1.000000000000000000, 0.000000000000000000, 0.000000000000000000 ) ) ;
#919 = PLANE ( 'NONE',  #948 ) ;
#920 = ORIENTED_EDGE ( 'NONE', *, *, #103, .T. ) ;
#921 = VECTOR ( 'NONE', #647, 39.37007874015748143 ) ;
#922 = EDGE_LOOP ( 'NONE', ( #276, #491 ) ) ;
#923 = CIRCLE ( 'NONE', #352, 0.4399999999999999467 ) ;
#924 = AXIS2_PLACEMENT_3D ( 'NONE', #953, #11, #455 ) ;
#925 = CARTESIAN_POINT ( 'NONE',  ( 0.000000000000000000, 0.000000000000000000, 0.000000000000000000 ) ) ;
#926 = VECTOR ( 'NONE', #445, 39.37007874015748143 ) ;
#927 = CARTESIAN_POINT ( 'NONE',  ( -8.364999999999996660, -11.12999999999999545, -0.1200000000000000372 ) ) ;
#928 = DIRECTION ( 'NONE',  ( 1.000000000000000000, 0.000000000000000000, 0.000000000000000000 ) ) ;
#929 = ORIENTED_EDGE ( 'NONE', *, *, #79, .T. ) ;
#930 = EDGE_LOOP ( 'NONE', ( #481, #281, #270, #421 ) ) ;
#931 = FACE_BOUND ( 'NONE', #922, .T. ) ;
#932 = DIRECTION ( 'NONE',  ( 1.000000000000000000, 0.000000000000000000, 0.000000000000000000 ) ) ;
#933 = CARTESIAN_POINT ( 'NONE',  ( 8.174999999999995381, 0.000000000000000000, 0.000000000000000000 ) ) ;
#934 = EDGE_LOOP ( 'NONE', ( #1369, #196 ) ) ;
#935 = ADVANCED_FACE ( 'NONE', ( #1325 ), #1105, .F. ) ;
#936 = ORIENTED_EDGE ( 'NONE', *, *, #256, .F. ) ;
#937 = CARTESIAN_POINT ( 'NONE',  ( -1.475000000000006084, 0.000000000000000000, -0.05999999999999997696 ) ) ;
#938 = DIRECTION ( 'NONE',  ( -0.000000000000000000, -0.000000000000000000, 1.000000000000000000 ) ) ;
#939 = DIRECTION ( 'NONE',  ( 0.000000000000000000, 0.000000000000000000, -1.000000000000000000 ) ) ;
#940 = CARTESIAN_POINT ( 'NONE',  ( -6.605000000000004867, 2.379999999999999893, -0.6300000000000002265 ) ) ;
#941 = ORIENTED_EDGE ( 'NONE', *, *, #492, .F. ) ;
#942 = ORIENTED_EDGE ( 'NONE', *, *, #356, .T. ) ;
#943 = AXIS2_PLACEMENT_3D ( 'NONE', #799, #287, #404 ) ;
#944 = EDGE_CURVE ( 'NONE', #1134, #807, #594, .T. ) ;
#945 = VECTOR ( 'NONE', #1115, 39.37007874015748143 ) ;
#946 = FACE_OUTER_BOUND ( 'NONE', #490, .T. ) ;
#947 = CIRCLE ( 'NONE', #529, 0.09499999999999994560 ) ;
#948 = AXIS2_PLACEMENT_3D ( 'NONE', #405, #108, #1032 ) ;
#949 = DIRECTION ( 'NONE',  ( -0.000000000000000000, -0.000000000000000000, 1.000000000000000000 ) ) ;
#950 = PLANE ( 'NONE',  #573 ) ;
#951 = ORIENTED_EDGE ( 'NONE', *, *, #805, .F. ) ;
#952 = EDGE_LOOP ( 'NONE', ( #1114, #1148, #302, #1220 ) ) ;
#953 = CARTESIAN_POINT ( 'NONE',  ( -8.425000000000000711, -1.240744978254523775E-15, 1.626647735174825903E-14 ) ) ;
#954 = ADVANCED_FACE ( 'NONE', ( #1332 ), #479, .T. ) ;
#955 = CARTESIAN_POINT ( 'NONE',  ( -6.605000000000004867, 2.379999999999999893, -0.05999999999999997696 ) ) ;
#956 = LINE ( 'NONE', #1198, #926 ) ;
#957 = VERTEX_POINT ( 'NONE', #289 ) ;
#958 = ORIENTED_EDGE ( 'NONE', *, *, #497, .F. ) ;
#959 = DIRECTION ( 'NONE',  ( -0.000000000000000000, -0.000000000000000000, 1.000000000000000000 ) ) ;
#960 = DIRECTION ( 'NONE',  ( 0.000000000000000000, 0.000000000000000000, -1.000000000000000000 ) ) ;
#961 = EDGE_CURVE ( 'NONE', #1048, #1134, #1320, .T. ) ;
#962 = DIRECTION ( 'NONE',  ( -0.000000000000000000, -0.000000000000000000, 1.000000000000000000 ) ) ;
#963 = EDGE_LOOP ( 'NONE', ( #236, #1227, #1363, #83 ) ) ;
#964 = PLANE ( 'NONE',  #225 ) ;
#965 = ORIENTED_EDGE ( 'NONE', *, *, #414, .F. ) ;
#966 = CIRCLE ( 'NONE', #133, 0.09499999999999994560 ) ;
#967 = VECTOR ( 'NONE', #1079, 39.37007874015748143 ) ;
#968 = FACE_OUTER_BOUND ( 'NONE', #238, .T. ) ;
#969 = VECTOR ( 'NONE', #779, 39.37007874015748143 ) ;
#971 = EDGE_CURVE ( 'NONE', #1338, #907, #947, .T. ) ;
#970 = DIRECTION ( 'NONE',  ( 1.000000000000000000, 0.000000000000000000, 0.000000000000000000 ) ) ;
#972 = ORIENTED_EDGE ( 'NONE', *, *, #628, .F. ) ;
#973 = CARTESIAN_POINT ( 'NONE',  ( -8.364999999999994884, -11.12999999999999545, -0.1200000000000000372 ) ) ;
#974 = VERTEX_POINT ( 'NONE', #898 ) ;
#975 = CYLINDRICAL_SURFACE ( 'NONE', #201, 0.05999999999999772182 ) ;
#976 = DIMENSIONAL_EXPONENTS ( 1.000000000000000000, 0.000000000000000000, 0.000000000000000000, 0.000000000000000000, 0.000000000000000000, 0.000000000000000000, 0.000000000000000000 ) ;
#977 = CARTESIAN_POINT ( 'NONE',  ( 8.079999999999994742, 1.163414459189983279E-17, -0.6300000000000002265 ) ) ;
#978 = PLANE ( 'NONE',  #416 ) ;
#979 = DIRECTION ( 'NONE',  ( 0.000000000000000000, 0.000000000000000000, -1.000000000000000000 ) ) ;
#980 = ORIENTED_EDGE ( 'NONE', *, *, #884, .T. ) ;
#981 = EDGE_CURVE ( 'NONE', #10, #807, #379, .T. ) ;
#982 = CYLINDRICAL_SURFACE ( 'NONE', #1011, 0.09499999999999994560 ) ;
#983 = DIRECTION ( 'NONE',  ( 1.000000000000000000, 0.000000000000000000, 0.000000000000000000 ) ) ;
#984 = DIRECTION ( 'NONE',  ( 0.000000000000000000, 1.000000000000000000, -3.491481338843133750E-15 ) ) ;
#985 = CARTESIAN_POINT ( 'NONE',  ( -7.985000000000003872, 0.000000000000000000, -0.05999999999999997696 ) ) ;
#986 = EDGE_LOOP ( 'NONE', ( #717, #243 ) ) ;
#987 = EDGE_CURVE ( 'NONE', #1033, #696, #82, .T. ) ;
#988 = DIRECTION ( 'NONE',  ( -0.000000000000000000, 1.000000000000000000, -0.000000000000000000 ) ) ;
#989 = VECTOR ( 'NONE', #1236, 39.37007874015748143 ) ;
#990 = AXIS2_PLACEMENT_3D ( 'NONE', #1023, #80, #498 ) ;
#991 =( CONVERSION_BASED_UNIT ( 'INCH', #782 ) LENGTH_UNIT ( ) NAMED_UNIT ( #1193 ) );
#992 = ORIENTED_EDGE ( 'NONE', *, *, #1084, .T. ) ;
#993 = CARTESIAN_POINT ( 'NONE',  ( 8.174999999999995381, -9.749999999999998224, -0.6300000000000002265 ) ) ;
#994 = ORIENTED_EDGE ( 'NONE', *, *, #636, .T. ) ;
#995 = CIRCLE ( 'NONE', #1356, 0.4399999999999999467 ) ;
#996 = CARTESIAN_POINT ( 'NONE',  ( -8.424999999999997158, 11.12999999999999901, -0.1199999999999998013 ) ) ;
#997 = EDGE_CURVE ( 'NONE', #907, #501, #588, .T. ) ;
#998 = APPLICATION_PROTOCOL_DEFINITION ( 'draft international standard', 'automotive_design', 1998, #1184 ) ;
#999 = DIRECTION ( 'NONE',  ( 0.000000000000000000, 1.000000000000000000, 3.491481338843134539E-15 ) ) ;
#1000 = FILL_AREA_STYLE ('',( #558 ) ) ;
#1001 = ORIENTED_EDGE ( 'NONE', *, *, #314, .F. ) ;
#1002 = CARTESIAN_POINT ( 'NONE',  ( 8.484999999999999432, 11.13000000000000078, -0.05999999999999904715 ) ) ;
#1003 = DIRECTION ( 'NONE',  ( -1.000000000000000000, 0.000000000000000000, 0.000000000000000000 ) ) ;
#1004 = FACE_OUTER_BOUND ( 'NONE', #224, .T. ) ;
#1005 = EDGE_CURVE ( 'NONE', #1071, #712, #1059, .T. ) ;
#1006 = ORIENTED_EDGE ( 'NONE', *, *, #297, .T. ) ;
#1007 = VERTEX_POINT ( 'NONE', #623 ) ;
#1008 = DIRECTION ( 'NONE',  ( -0.000000000000000000, -3.834172622686683600E-15, 1.000000000000000000 ) ) ;
#1009 = DIRECTION ( 'NONE',  ( -1.472694336207149946E-16, 1.000000000000000000, 0.000000000000000000 ) ) ;
#1010 = VECTOR ( 'NONE', #1246, 39.37007874015748143 ) ;
#1011 = AXIS2_PLACEMENT_3D ( 'NONE', #1308, #554, #1072 ) ;
#1012 = CARTESIAN_POINT ( 'NONE',  ( 1.524999999999994360, 0.000000000000000000, 0.000000000000000000 ) ) ;
#1013 = ORIENTED_EDGE ( 'NONE', *, *, #1362, .F. ) ;
#1014 = CIRCLE ( 'NONE', #397, 0.1560000000000001941 ) ;
#1015 = VECTOR ( 'NONE', #962, 39.37007874015748143 ) ;
#1016 = ORIENTED_EDGE ( 'NONE', *, *, #1116, .F. ) ;
#1017 = LINE ( 'NONE', #193, #1217 ) ;
#1018 = FACE_OUTER_BOUND ( 'NONE', #842, .T. ) ;
#1019 = DIRECTION ( 'NONE',  ( 1.000000000000000000, 0.000000000000000000, 0.000000000000000000 ) ) ;
#1020 = ORIENTED_EDGE ( 'NONE', *, *, #987, .T. ) ;
#1021 = EDGE_LOOP ( 'NONE', ( #222, #1166, #1183, #701 ) ) ;
#1022 = EDGE_CURVE ( 'NONE', #696, #796, #613, .T. ) ;
#1023 = CARTESIAN_POINT ( 'NONE',  ( 0.000000000000000000, 11.25000000000000178, 4.334393088555578374E-14 ) ) ;
#1024 = CARTESIAN_POINT ( 'NONE',  ( 8.269999999999994245, -9.749999999999998224, -0.05999999999999997696 ) ) ;
#1025 = DIRECTION ( 'NONE',  ( -1.000000000000000000, 0.000000000000000000, 0.000000000000000000 ) ) ;
#1026 = ORIENTED_EDGE ( 'NONE', *, *, #711, .F. ) ;
#1027 = VERTEX_POINT ( 'NONE', #634 ) ;
#1028 = ADVANCED_FACE ( 'NONE', ( #721 ), #919, .T. ) ;
#1029 = FACE_BOUND ( 'NONE', #71, .T. ) ;
#1030 = DIRECTION ( 'NONE',  ( 1.000000000000000000, 0.000000000000000000, 0.000000000000000000 ) ) ;
#1031 = AXIS2_PLACEMENT_3D ( 'NONE', #605, #499, #905 ) ;
#1032 = DIRECTION ( 'NONE',  ( 0.000000000000000000, 0.000000000000000000, 1.000000000000000000 ) ) ;
#1033 = VERTEX_POINT ( 'NONE', #301 ) ;
#1034 = AXIS2_PLACEMENT_3D ( 'NONE', #1121, #803, #811 ) ;
#1035 = ORIENTED_EDGE ( 'NONE', *, *, #636, .F. ) ;
#1036 = COLOUR_RGB ( '',0.7921568627450980005, 0.8196078431372548767, 0.9333333333333333481 ) ;
#1037 = CIRCLE ( 'NONE', #1310, 0.1139999999999999347 ) ;
#1038 = DIRECTION ( 'NONE',  ( -0.000000000000000000, -0.000000000000000000, 1.000000000000000000 ) ) ;
#1039 = CARTESIAN_POINT ( 'NONE',  ( 8.484999999999994102, -11.18999999999999773, -0.1199999999999998151 ) ) ;
#1040 = ADVANCED_FACE ( 'NONE', ( #221 ), #950, .T. ) ;
#1041 = LINE ( 'NONE', #295, #1081 ) ;
#1042 = ORIENTED_EDGE ( 'NONE', *, *, #167, .T. ) ;
#1043 = ORIENTED_EDGE ( 'NONE', *, *, #602, .T. ) ;
#1044 = DIRECTION ( 'NONE',  ( 0.000000000000000000, 0.000000000000000000, -1.000000000000000000 ) ) ;
#1045 = CARTESIAN_POINT ( 'NONE',  ( -8.365000000000000213, 11.13000000000000256, -0.1199999999999999123 ) ) ;
#1047 = ADVANCED_FACE ( 'NONE', ( #815 ), #629, .T. ) ;
#1046 = DIRECTION ( 'NONE',  ( 0.000000000000000000, -3.834172622686683600E-15, 1.000000000000000000 ) ) ;
#1048 = VERTEX_POINT ( 'NONE', #90 ) ;
#1049 = ORIENTED_EDGE ( 'NONE', *, *, #1250, .T. ) ;
#1050 = CARTESIAN_POINT ( 'NONE',  ( 8.174999999999995381, 9.750000000000003553, -0.6300000000000002265 ) ) ;
#1051 = DIRECTION ( 'NONE',  ( -0.000000000000000000, 1.000000000000000000, 3.834172622686683600E-15 ) ) ;
#1052 = DIRECTION ( 'NONE',  ( 0.000000000000000000, 0.000000000000000000, -1.000000000000000000 ) ) ;
#1053 = VERTEX_POINT ( 'NONE', #530 ) ;
#1054 = EDGE_LOOP ( 'NONE', ( #42, #1063, #559, #936 ) ) ;
#1055 = AXIS2_PLACEMENT_3D ( 'NONE', #1045, #106, #124 ) ;
#1056 = EDGE_CURVE ( 'NONE', #165, #496, #203, .T. ) ;
#1057 = VECTOR ( 'NONE', #57, 39.37007874015748143 ) ;
#1058 = DIRECTION ( 'NONE',  ( 0.000000000000000000, -1.000000000000000000, 3.835990623682900600E-15 ) ) ;
#1059 = CIRCLE ( 'NONE', #511, 0.1139999999999999347 ) ;
#1060 = AXIS2_PLACEMENT_3D ( 'NONE', #254, #19, #1068 ) ;
#1061 = DIRECTION ( 'NONE',  ( 0.000000000000000000, -3.834172622686683600E-15, -1.000000000000000000 ) ) ;
#1062 = PLANE ( 'NONE',  #354 ) ;
#1063 = ORIENTED_EDGE ( 'NONE', *, *, #1281, .F. ) ;
#1064 = ORIENTED_EDGE ( 'NONE', *, *, #1341, .F. ) ;
#1065 = EDGE_CURVE ( 'NONE', #442, #1181, #821, .T. ) ;
#1066 = FACE_BOUND ( 'NONE', #218, .T. ) ;
#1067 = CYLINDRICAL_SURFACE ( 'NONE', #1055, 0.1199999999999976225 ) ;
#1068 = DIRECTION ( 'NONE',  ( -1.000000000000000000, 0.000000000000000000, 0.000000000000000000 ) ) ;
#1069 = ORIENTED_EDGE ( 'NONE', *, *, #382, .F. ) ;
#1070 = DIRECTION ( 'NONE',  ( -1.000000000000000000, 0.000000000000000000, 0.000000000000000000 ) ) ;
#1071 = VERTEX_POINT ( 'NONE', #195 ) ;
#1072 = DIRECTION ( 'NONE',  ( 1.000000000000000000, 0.000000000000000000, 0.000000000000000000 ) ) ;
#1073 = LINE ( 'NONE', #1280, #485 ) ;
#1074 = EDGE_LOOP ( 'NONE', ( #818, #1001 ) ) ;
#1075 = CARTESIAN_POINT ( 'NONE',  ( 8.484999999999999432, 11.19000000000000128, -0.1199999999999998151 ) ) ;
#1076 = ORIENTED_EDGE ( 'NONE', *, *, #1022, .F. ) ;
#1077 = AXIS2_PLACEMENT_3D ( 'NONE', #912, #820, #896 ) ;
#1078 = CIRCLE ( 'NONE', #136, 0.1199999999999977335 ) ;
#1079 = DIRECTION ( 'NONE',  ( -0.000000000000000000, -0.000000000000000000, 1.000000000000000000 ) ) ;
#1080 = CIRCLE ( 'NONE', #335, 0.06000000000000098310 ) ;
#1081 = VECTOR ( 'NONE', #1046, 39.37007874015748143 ) ;
#1082 = CARTESIAN_POINT ( 'NONE',  ( 8.484999999999999432, -11.18999999999999773, 4.313444200522518438E-14 ) ) ;
#1083 = PLANE ( 'NONE',  #394 ) ;
#1084 = EDGE_CURVE ( 'NONE', #974, #957, #1041, .T. ) ;
#1085 = DIRECTION ( 'NONE',  ( 1.000000000000000000, 0.000000000000000000, 0.000000000000000000 ) ) ;
#1086 = ORIENTED_EDGE ( 'NONE', *, *, #734, .T. ) ;
#1087 = APPLICATION_CONTEXT ( 'automotive_design' ) ;
#1088 = CARTESIAN_POINT ( 'NONE',  ( 8.174999999999995381, -9.749999999999998224, 0.000000000000000000 ) ) ;
#1089 = LINE ( 'NONE', #1082, #114 ) ;
#1090 = LINE ( 'NONE', #562, #1169 ) ;
#1091 = EDGE_CURVE ( 'NONE', #186, #23, #161, .T. ) ;
#1092 = CARTESIAN_POINT ( 'NONE',  ( -8.364999999999996660, -11.25000000000000000, -0.6300000000000000044 ) ) ;
#1093 = ORIENTED_EDGE ( 'NONE', *, *, #557, .F. ) ;
#1094 = CARTESIAN_POINT ( 'NONE',  ( 8.484999999999990550, -11.12999999999999545, -0.1200000000000000372 ) ) ;
#1095 = VERTEX_POINT ( 'NONE', #841 ) ;
#1096 = DIRECTION ( 'NONE',  ( 1.000000000000000000, 0.000000000000000000, 0.000000000000000000 ) ) ;
#1097 = EDGE_LOOP ( 'NONE', ( #102, #1324, #120, #847 ) ) ;
#1098 = EDGE_CURVE ( 'NONE', #957, #77, #854, .T. ) ;
#1099 = VECTOR ( 'NONE', #471, 39.37007874015748143 ) ;
#1100 = CARTESIAN_POINT ( 'NONE',  ( 1.524999999999994360, 0.000000000000000000, -0.05999999999999997696 ) ) ;
#1101 = VECTOR ( 'NONE', #1194, 39.37007874015748143 ) ;
#1102 = AXIS2_PLACEMENT_3D ( 'NONE', #993, #250, #453 ) ;
#1103 = ORIENTED_EDGE ( 'NONE', *, *, #1213, .T. ) ;
#1104 = CIRCLE ( 'NONE', #112, 0.1200000000000010225 ) ;
#1105 = PLANE ( 'NONE',  #1218 ) ;
#1106 = ORIENTED_EDGE ( 'NONE', *, *, #565, .F. ) ;
#1107 = VECTOR ( 'NONE', #1336, 39.37007874015748143 ) ;
#1108 = EDGE_LOOP ( 'NONE', ( #104, #1069, #345, #920 ) ) ;
#1109 = ADVANCED_FACE ( 'NONE', ( #1165 ), #1062, .T. ) ;
#1110 = DIRECTION ( 'NONE',  ( -1.472694336207149946E-16, 1.000000000000000000, -8.758115402030108638E-47 ) ) ;
#1111 = DIRECTION ( 'NONE',  ( 1.917086311343341800E-15, 3.834172622686683600E-15, 1.000000000000000000 ) ) ;
#1112 = DIRECTION ( 'NONE',  ( 0.000000000000000000, -3.491481338843134539E-15, -1.000000000000000000 ) ) ;
#1113 = EDGE_LOOP ( 'NONE', ( #291, #1249 ) ) ;
#1114 = ORIENTED_EDGE ( 'NONE', *, *, #660, .T. ) ;
#1115 = DIRECTION ( 'NONE',  ( 0.000000000000000000, -1.000000000000000000, 0.000000000000000000 ) ) ;
#1116 = EDGE_CURVE ( 'NONE', #109, #1033, #621, .T. ) ;
#1117 = DIRECTION ( 'NONE',  ( 1.000000000000000000, 0.000000000000000000, 0.000000000000000000 ) ) ;
#1118 = DIRECTION ( 'NONE',  ( 0.000000000000000000, 0.000000000000000000, 1.000000000000000000 ) ) ;
#1119 = DIRECTION ( 'NONE',  ( 0.000000000000000000, 0.000000000000000000, 1.000000000000000000 ) ) ;
#1120 = ORIENTED_EDGE ( 'NONE', *, *, #1229, .F. ) ;
#1121 = CARTESIAN_POINT ( 'NONE',  ( 8.174999999999995381, -9.749999999999998224, -0.05999999999999997696 ) ) ;
#1122 = CARTESIAN_POINT ( 'NONE',  ( -8.364999999999996660, -11.12999999999999545, 9.561467977824920278E-16 ) ) ;
#1123 = CYLINDRICAL_SURFACE ( 'NONE', #1215, 0.09499999999999994560 ) ;
#1124 = VECTOR ( 'NONE', #509, 39.37007874015748143 ) ;
#1125 = EDGE_CURVE ( 'NONE', #1053, #474, #69, .T. ) ;
#1126 = ORIENTED_EDGE ( 'NONE', *, *, #1161, .F. ) ;
#1127 = AXIS2_PLACEMENT_3D ( 'NONE', #649, #139, #970 ) ;
#1128 = ORIENTED_EDGE ( 'NONE', *, *, #981, .F. ) ;
#1129 = CARTESIAN_POINT ( 'NONE',  ( -7.985000000000003872, 0.000000000000000000, -0.05999999999999997696 ) ) ;
#1130 = CARTESIAN_POINT ( 'NONE',  ( 8.484999999999999432, -11.24999999999999822, 0.000000000000000000 ) ) ;
#1131 = DIRECTION ( 'NONE',  ( -1.472694336207284052E-16, 1.000000000000000000, -3.834172622686683600E-15 ) ) ;
#1132 = VERTEX_POINT ( 'NONE', #411 ) ;
#1133 = EDGE_CURVE ( 'NONE', #474, #1053, #245, .T. ) ;
#1134 = VERTEX_POINT ( 'NONE', #1 ) ;
#1135 = FACE_BOUND ( 'NONE', #1113, .T. ) ;
#1136 = CYLINDRICAL_SURFACE ( 'NONE', #1077, 0.4399999999999999467 ) ;
#1137 = CARTESIAN_POINT ( 'NONE',  ( -6.605000000000004867, 2.379999999999999893, 0.000000000000000000 ) ) ;
#1138 = ORIENTED_EDGE ( 'NONE', *, *, #1158, .F. ) ;
#1139 = ORIENTED_EDGE ( 'NONE', *, *, #103, .F. ) ;
#1140 = PRODUCT_DEFINITION ( 'UNKNOWN', '', #857, #1366 ) ;
#1141 = ADVANCED_FACE ( 'NONE', ( #729 ), #1153, .F. ) ;
#1142 = DIRECTION ( 'NONE',  ( -0.000000000000000000, -0.000000000000000000, 1.000000000000000000 ) ) ;
#1143 = LINE ( 'NONE', #622, #1010 ) ;
#1144 = VECTOR ( 'NONE', #141, 39.37007874015748143 ) ;
#1145 = DIRECTION ( 'NONE',  ( 1.000000000000000000, 0.000000000000000000, 0.000000000000000000 ) ) ;
#1146 = ORIENTED_EDGE ( 'NONE', *, *, #18, .T. ) ;
#1147 = AXIS2_PLACEMENT_3D ( 'NONE', #1088, #566, #45 ) ;
#1148 = ORIENTED_EDGE ( 'NONE', *, *, #1257, .T. ) ;
#1149 = PRESENTATION_LAYER_ASSIGNMENT (  '', '', ( #89 ) ) ;
#1150 = DIRECTION ( 'NONE',  ( 1.000000000000000000, 1.472694336207150192E-16, -3.491481338843133750E-15 ) ) ;
#1151 = EDGE_CURVE ( 'NONE', #258, #23, #835, .T. ) ;
#1152 = CARTESIAN_POINT ( 'NONE',  ( 8.484999999999995879, 11.13000000000000078, -0.1200000000000000372 ) ) ;
#1153 = CYLINDRICAL_SURFACE ( 'NONE', #288, 0.1139999999999999347 ) ;
#1154 = EDGE_LOOP ( 'NONE', ( #1255, #1103, #1299, #1212 ) ) ;
#1155 = ORIENTED_EDGE ( 'NONE', *, *, #374, .F. ) ;
#1156 = CARTESIAN_POINT ( 'NONE',  ( -8.425000000000000711, -11.13000000000000078, -0.6300000000000002265 ) ) ;
#1157 = CARTESIAN_POINT ( 'NONE',  ( 8.484999999999999432, -11.18999999999999773, -0.1199999999999998151 ) ) ;
#1158 = EDGE_CURVE ( 'NONE', #1333, #318, #727, .T. ) ;
#1159 = DIRECTION ( 'NONE',  ( -0.000000000000000000, 0.000000000000000000, 1.000000000000000000 ) ) ;
#1160 = EDGE_LOOP ( 'NONE', ( #584, #1043, #579, #564 ) ) ;
#1161 = EDGE_CURVE ( 'NONE', #785, #232, #1037, .T. ) ;
#1162 = EDGE_LOOP ( 'NONE', ( #20, #592, #941, #1276 ) ) ;
#1163 = CARTESIAN_POINT ( 'NONE',  ( 8.079999999999994742, 1.163414459189982046E-17, -0.05999999999999997696 ) ) ;
#1164 = LINE ( 'NONE', #640, #503 ) ;
#1165 = FACE_OUTER_BOUND ( 'NONE', #906, .T. ) ;
#1166 = ORIENTED_EDGE ( 'NONE', *, *, #1229, .T. ) ;
#1167 = EDGE_CURVE ( 'NONE', #614, #4, #1311, .T. ) ;
#1168 = VERTEX_POINT ( 'NONE', #537 ) ;
#1169 = VECTOR ( 'NONE', #984, 39.37007874015748143 ) ;
#1170 = VECTOR ( 'NONE', #706, 39.37007874015748143 ) ;
#1171 = CARTESIAN_POINT ( 'NONE',  ( 8.484999999999995879, 11.13000000000000078, -0.05999999999999904715 ) ) ;
#1172 = AXIS2_PLACEMENT_3D ( 'NONE', #891, #1112, #800 ) ;
#1173 = AXIS2_PLACEMENT_3D ( 'NONE', #53, #1003, #1343 ) ;
#1174 = DIRECTION ( 'NONE',  ( 0.000000000000000000, 0.000000000000000000, 1.000000000000000000 ) ) ;
#1175 = LINE ( 'NONE', #229, #1015 ) ;
#1176 = ORIENTED_EDGE ( 'NONE', *, *, #1213, .F. ) ;
#1177 = DIRECTION ( 'NONE',  ( 0.000000000000000000, 0.000000000000000000, -1.000000000000000000 ) ) ;
#1178 = ORIENTED_EDGE ( 'NONE', *, *, #831, .T. ) ;
#1179 = DIRECTION ( 'NONE',  ( 0.000000000000000000, -3.834172622686683600E-15, 1.000000000000000000 ) ) ;
#1180 = DIRECTION ( 'NONE',  ( -0.000000000000000000, 3.834172622686683600E-15, 1.000000000000000000 ) ) ;
#1181 = VERTEX_POINT ( 'NONE', #776 ) ;
#1182 = DIRECTION ( 'NONE',  ( 0.000000000000000000, -1.000000000000000000, 0.000000000000000000 ) ) ;
#1183 = ORIENTED_EDGE ( 'NONE', *, *, #278, .T. ) ;
#1184 = APPLICATION_CONTEXT ( 'automotive_design' ) ;
#1185 = EDGE_CURVE ( 'NONE', #206, #608, #1089, .T. ) ;
#1186 = DIRECTION ( 'NONE',  ( 1.000000000000000000, 0.000000000000000000, 0.000000000000000000 ) ) ;
#1187 = LINE ( 'NONE', #977, #812 ) ;
#1188 = LINE ( 'NONE', #152, #1099 ) ;
#1189 = DIRECTION ( 'NONE',  ( 1.000000000000000000, 0.000000000000000000, 0.000000000000000000 ) ) ;
#1190 = ORIENTED_EDGE ( 'NONE', *, *, #121, .F. ) ;
#1191 = AXIS2_PLACEMENT_3D ( 'NONE', #863, #1199, #677 ) ;
#1192 = AXIS2_PLACEMENT_3D ( 'NONE', #272, #475, #293 ) ;
#1193 = DIMENSIONAL_EXPONENTS ( 1.000000000000000000, 0.000000000000000000, 0.000000000000000000, 0.000000000000000000, 0.000000000000000000, 0.000000000000000000, 0.000000000000000000 ) ;
#1194 = DIRECTION ( 'NONE',  ( 1.472694336207149946E-16, -1.000000000000000000, -0.000000000000000000 ) ) ;
#1195 = AXIS2_PLACEMENT_3D ( 'NONE', #30, #1189, #665 ) ;
#1196 = EDGE_CURVE ( 'NONE', #1326, #817, #240, .T. ) ;
#1197 = VECTOR ( 'NONE', #740, 39.37007874015748143 ) ;
#1198 = CARTESIAN_POINT ( 'NONE',  ( -8.365000000000000213, 11.19000000000000128, -0.1199999999999998151 ) ) ;
#1199 = DIRECTION ( 'NONE',  ( 0.000000000000000000, -1.000000000000000000, 0.000000000000000000 ) ) ;
#1200 = DIRECTION ( 'NONE',  ( -1.000000000000000000, 0.000000000000000000, 0.000000000000000000 ) ) ;
#1201 = ORIENTED_EDGE ( 'NONE', *, *, #848, .F. ) ;
#1202 = CARTESIAN_POINT ( 'NONE',  ( -8.364999999999998437, -11.25000000000000000, -0.6300000000000000044 ) ) ;
#1204 = EDGE_CURVE ( 'NONE', #386, #217, #1288, .T. ) ;
#1203 = CARTESIAN_POINT ( 'NONE',  ( -8.364999999999996660, 11.13000000000000078, -0.05999999999999904715 ) ) ;
#1205 = CARTESIAN_POINT ( 'NONE',  ( -7.829000000000003290, 0.000000000000000000, -0.05999999999999997696 ) ) ;
#1207 = EDGE_CURVE ( 'NONE', #571, #469, #956, .T. ) ;
#1206 = DIRECTION ( 'NONE',  ( 1.000000000000000000, 0.000000000000000000, 0.000000000000000000 ) ) ;
#1208 = ORIENTED_EDGE ( 'NONE', *, *, #233, .T. ) ;
#1209 = DIRECTION ( 'NONE',  ( -1.000000000000000000, 0.000000000000000000, 0.000000000000000000 ) ) ;
#1210 = FACE_OUTER_BOUND ( 'NONE', #685, .T. ) ;
#1211 =( NAMED_UNIT ( * ) PLANE_ANGLE_UNIT ( ) SI_UNIT ( $, .RADIAN. ) );
#1212 = ORIENTED_EDGE ( 'NONE', *, *, #694, .F. ) ;
#1213 = EDGE_CURVE ( 'NONE', #1314, #590, #555, .T. ) ;
#1214 = EDGE_LOOP ( 'NONE', ( #603, #652, #1347, #1139 ) ) ;
#1215 = AXIS2_PLACEMENT_3D ( 'NONE', #68, #1360, #804 ) ;
#1216 = DIRECTION ( 'NONE',  ( 0.000000000000000000, -1.000000000000000000, 0.000000000000000000 ) ) ;
#1217 = VECTOR ( 'NONE', #1110, 39.37007874015748143 ) ;
#1218 = AXIS2_PLACEMENT_3D ( 'NONE', #169, #164, #583 ) ;
#1219 = CARTESIAN_POINT ( 'NONE',  ( -8.365000000000000213, 11.13000000000000256, -0.05999999999999999778 ) ) ;
#1220 = ORIENTED_EDGE ( 'NONE', *, *, #673, .F. ) ;
#1221 = LENGTH_MEASURE_WITH_UNIT ( LENGTH_MEASURE( 0.02539999999999999897 ), #489 );
#1222 = VERTEX_POINT ( 'NONE', #862 ) ;
#1223 = CARTESIAN_POINT ( 'NONE',  ( -8.364999999999996660, 11.13000000000000078, -0.05999999999999904715 ) ) ;
#1224 = CARTESIAN_POINT ( 'NONE',  ( 8.484999999999995879, 11.13000000000000078, -0.1200000000000000372 ) ) ;
#1225 = DIRECTION ( 'NONE',  ( 0.000000000000000000, 0.000000000000000000, 1.000000000000000000 ) ) ;
#1226 = DIRECTION ( 'NONE',  ( 1.000000000000000000, 0.000000000000000000, 0.000000000000000000 ) ) ;
#1227 = ORIENTED_EDGE ( 'NONE', *, *, #472, .T. ) ;
#1228 = FACE_BOUND ( 'NONE', #986, .T. ) ;
#1229 = EDGE_CURVE ( 'NONE', #571, #4, #433, .T. ) ;
#1230 = PRODUCT_CONTEXT ( 'NONE', #1087, 'mechanical' ) ;
#1231 = CYLINDRICAL_SURFACE ( 'NONE', #943, 0.1139999999999999347 ) ;
#1232 = CARTESIAN_POINT ( 'NONE',  ( 8.269999999999994245, 9.750000000000003553, -0.6300000000000002265 ) ) ;
#1233 = ORIENTED_EDGE ( 'NONE', *, *, #21, .T. ) ;
#1234 = ORIENTED_EDGE ( 'NONE', *, *, #1091, .T. ) ;
#1235 = CARTESIAN_POINT ( 'NONE',  ( -6.719000000000004746, 2.379999999999999893, -0.6300000000000002265 ) ) ;
#1236 = DIRECTION ( 'NONE',  ( 0.000000000000000000, 3.834172622686683600E-15, 1.000000000000000000 ) ) ;
#1237 = AXIS2_PLACEMENT_3D ( 'NONE', #294, #1225, #274 ) ;
#1238 = ADVANCED_FACE ( 'NONE', ( #561 ), #338, .F. ) ;
#1239 = VECTOR ( 'NONE', #521, 39.37007874015748143 ) ;
#1240 = SURFACE_SIDE_STYLE ('',( #183 ) ) ;
#1241 = VERTEX_POINT ( 'NONE', #145 ) ;
#1242 = VECTOR ( 'NONE', #253, 39.37007874015748143 ) ;
#1243 = AXIS2_PLACEMENT_3D ( 'NONE', #523, #928, #1052 ) ;
#1244 = ORIENTED_EDGE ( 'NONE', *, *, #694, .T. ) ;
#1245 = LINE ( 'NONE', #1348, #285 ) ;
#1246 = DIRECTION ( 'NONE',  ( -1.000000000000000000, -1.472694336207213548E-16, 1.837589179357618433E-15 ) ) ;
#1247 = PRODUCT_RELATED_PRODUCT_CATEGORY ( 'part', '', ( #381 ) ) ;
#1248 = DIRECTION ( 'NONE',  ( 1.000000000000000000, 0.000000000000000000, 0.000000000000000000 ) ) ;
#1249 = ORIENTED_EDGE ( 'NONE', *, *, #264, .F. ) ;
#1250 = EDGE_CURVE ( 'NONE', #915, #625, #1073, .T. ) ;
#1251 = ORIENTED_EDGE ( 'NONE', *, *, #226, .F. ) ;
#1252 = LINE ( 'NONE', #1327, #593 ) ;
#1253 = DIRECTION ( 'NONE',  ( 0.000000000000000000, 0.000000000000000000, 1.000000000000000000 ) ) ;
#1254 = DIRECTION ( 'NONE',  ( -1.472694336207149946E-16, 1.000000000000000000, -8.758115402030108638E-47 ) ) ;
#1255 = ORIENTED_EDGE ( 'NONE', *, *, #609, .T. ) ;
#1256 = ORIENTED_EDGE ( 'NONE', *, *, #365, .T. ) ;
#1257 = EDGE_CURVE ( 'NONE', #743, #1095, #757, .T. ) ;
#1258 = CARTESIAN_POINT ( 'NONE',  ( -7.829000000000003290, 0.000000000000000000, -0.6300000000000002265 ) ) ;
#1259 = DIRECTION ( 'NONE',  ( 0.000000000000000000, 0.000000000000000000, 1.000000000000000000 ) ) ;
#1260 = CIRCLE ( 'NONE', #107, 0.1560000000000001941 ) ;
#1261 = DIRECTION ( 'NONE',  ( 0.000000000000000000, 0.000000000000000000, 1.000000000000000000 ) ) ;
#1262 = ORIENTED_EDGE ( 'NONE', *, *, #389, .F. ) ;
#1263 = AXIS2_PLACEMENT_3D ( 'NONE', #52, #470, #781 ) ;
#1264 = ORIENTED_EDGE ( 'NONE', *, *, #346, .F. ) ;
#1265 = VECTOR ( 'NONE', #118, 39.37007874015748143 ) ;
#1266 = EDGE_CURVE ( 'NONE', #23, #186, #902, .T. ) ;
#1267 = CARTESIAN_POINT ( 'NONE',  ( -1.035000000000006137, 0.000000000000000000, -0.6300000000000002265 ) ) ;
#1268 = FACE_OUTER_BOUND ( 'NONE', #666, .T. ) ;
#1269 = CARTESIAN_POINT ( 'NONE',  ( 8.269999999999994245, 0.000000000000000000, -0.6300000000000002265 ) ) ;
#1270 = ORIENTED_EDGE ( 'NONE', *, *, #1056, .T. ) ;
#1271 = ORIENTED_EDGE ( 'NONE', *, *, #961, .T. ) ;
#1272 = DIRECTION ( 'NONE',  ( -0.000000000000000000, 0.000000000000000000, -1.000000000000000000 ) ) ;
#1273 = DIRECTION ( 'NONE',  ( -0.000000000000000000, -0.000000000000000000, 1.000000000000000000 ) ) ;
#1274 = EDGE_CURVE ( 'NONE', #132, #318, #1175, .T. ) ;
#1275 = DIRECTION ( 'NONE',  ( 1.000000000000000000, 0.000000000000000000, 0.000000000000000000 ) ) ;
#1276 = ORIENTED_EDGE ( 'NONE', *, *, #761, .F. ) ;
#1277 = ORIENTED_EDGE ( 'NONE', *, *, #670, .T. ) ;
#1278 = CARTESIAN_POINT ( 'NONE',  ( -8.364999999999996660, -11.18999999999999773, -0.1199999999999998151 ) ) ;
#1279 = LINE ( 'NONE', #747, #572 ) ;
#1281 = EDGE_CURVE ( 'NONE', #822, #1132, #1302, .T. ) ;
#1280 = CARTESIAN_POINT ( 'NONE',  ( -8.484999999999999432, -11.12999999999999901, -0.05999999999999978961 ) ) ;
#1282 = EDGE_LOOP ( 'NONE', ( #737, #330, #1370, #1026 ) ) ;
#1283 = AXIS2_PLACEMENT_3D ( 'NONE', #527, #949, #7 ) ;
#1284 = DIRECTION ( 'NONE',  ( 0.000000000000000000, 0.000000000000000000, 1.000000000000000000 ) ) ;
#1285 = EDGE_LOOP ( 'NONE', ( #1233, #148, #1234, #31 ) ) ;
#1286 = CIRCLE ( 'NONE', #437, 0.09499999999999994560 ) ;
#1287 = AXIS2_PLACEMENT_3D ( 'NONE', #460, #753, #1206 ) ;
#1288 = CIRCLE ( 'NONE', #1060, 0.1139999999999999347 ) ;
#1289 = DIRECTION ( 'NONE',  ( 1.000000000000000000, 0.000000000000000000, 0.000000000000000000 ) ) ;
#1290 = CARTESIAN_POINT ( 'NONE',  ( -1.475000000000006084, 0.000000000000000000, -0.6300000000000002265 ) ) ;
#1291 = ORIENTED_EDGE ( 'NONE', *, *, #961, .F. ) ;
#1292 = CYLINDRICAL_SURFACE ( 'NONE', #419, 0.06000000000000099698 ) ;
#1293 = ORIENTED_EDGE ( 'NONE', *, *, #29, .F. ) ;
#1294 = ADVANCED_FACE ( 'NONE', ( #39 ), #343, .F. ) ;
#1295 = CARTESIAN_POINT ( 'NONE',  ( -6.719000000000004746, -2.379999999999999893, -0.6300000000000002265 ) ) ;
#1296 = DIRECTION ( 'NONE',  ( -1.000000000000000000, 0.000000000000000000, 0.000000000000000000 ) ) ;
#1297 = CARTESIAN_POINT ( 'NONE',  ( 8.484999999999999432, 11.13000000000000078, 9.561467977824920278E-16 ) ) ;
#1298 = FACE_OUTER_BOUND ( 'NONE', #380, .T. ) ;
#1299 = ORIENTED_EDGE ( 'NONE', *, *, #264, .T. ) ;
#1300 = EDGE_CURVE ( 'NONE', #754, #1322, #131, .T. ) ;
#1301 = DIRECTION ( 'NONE',  ( 0.000000000000000000, 0.000000000000000000, 1.000000000000000000 ) ) ;
#1302 = LINE ( 'NONE', #855, #791 ) ;
#1303 = CARTESIAN_POINT ( 'NONE',  ( 8.484999999999999432, 11.25000000000000533, -0.6300000000000000044 ) ) ;
#1304 = CARTESIAN_POINT ( 'NONE',  ( -8.364999999999993108, 11.13000000000000078, -0.1200000000000000372 ) ) ;
#1305 = EDGE_LOOP ( 'NONE', ( #401, #1064, #1020, #1340 ) ) ;
#1306 = CIRCLE ( 'NONE', #788, 0.1139999999999999347 ) ;
#1307 = VECTOR ( 'NONE', #227, 39.37007874015748143 ) ;
#1308 = CARTESIAN_POINT ( 'NONE',  ( 8.174999999999995381, 0.000000000000000000, -0.6300000000000002265 ) ) ;
#1309 = EDGE_CURVE ( 'NONE', #751, #186, #1187, .T. ) ;
#1310 = AXIS2_PLACEMENT_3D ( 'NONE', #676, #125, #1296 ) ;
#1311 = LINE ( 'NONE', #357, #707 ) ;
#1312 = CARTESIAN_POINT ( 'NONE',  ( 8.484999999999999432, 11.25000000000000533, -0.6300000000000000044 ) ) ;
#1313 = CARTESIAN_POINT ( 'NONE',  ( -6.491000000000004988, 2.379999999999999893, -0.05999999999999997696 ) ) ;
#1314 = VERTEX_POINT ( 'NONE', #868 ) ;
#1315 = UNCERTAINTY_MEASURE_WITH_UNIT (LENGTH_MEASURE( 1.000000000000000082E-05 ), #371, 'distance_accuracy_value', 'NONE');
#1316 = CARTESIAN_POINT ( 'NONE',  ( -8.365000000000000213, -11.12999999999999901, -0.1199999999999999123 ) ) ;
#1317 = CYLINDRICAL_SURFACE ( 'NONE', #553, 0.06000000000000099698 ) ;
#1318 = ORIENTED_EDGE ( 'NONE', *, *, #792, .F. ) ;
#1319 = ADVANCED_FACE ( 'NONE', ( #348 ), #1317, .F. ) ;
#1320 = LINE ( 'NONE', #175, #179 ) ;
#1321 = ORIENTED_EDGE ( 'NONE', *, *, #1098, .T. ) ;
#1322 = VERTEX_POINT ( 'NONE', #1122 ) ;
#1323 = DIRECTION ( 'NONE',  ( 0.000000000000000000, 1.000000000000000000, -3.491481338843133750E-15 ) ) ;
#1324 = ORIENTED_EDGE ( 'NONE', *, *, #680, .T. ) ;
#1325 = FACE_OUTER_BOUND ( 'NONE', #637, .T. ) ;
#1326 = VERTEX_POINT ( 'NONE', #1219 ) ;
#1327 = CARTESIAN_POINT ( 'NONE',  ( 8.484999999999999432, 11.19000000000000128, 4.313444200522519700E-14 ) ) ;
#1328 = AXIS2_PLACEMENT_3D ( 'NONE', #925, #177, #580 ) ;
#1329 = AXIS2_PLACEMENT_3D ( 'NONE', #1012, #1119, #1019 ) ;
#1330 = CARTESIAN_POINT ( 'NONE',  ( 8.079999999999994742, -9.749999999999998224, 0.000000000000000000 ) ) ;
#1331 = LINE ( 'NONE', #87, #989 ) ;
#1332 = FACE_OUTER_BOUND ( 'NONE', #1162, .T. ) ;
#1333 = VERTEX_POINT ( 'NONE', #1330 ) ;
#1334 = EDGE_CURVE ( 'NONE', #614, #974, #59, .T. ) ;
#1335 = DIRECTION ( 'NONE',  ( 0.000000000000000000, 1.000000000000000000, -3.834172622686683600E-15 ) ) ;
#1336 = DIRECTION ( 'NONE',  ( 1.000000000000000000, 0.000000000000000000, 0.000000000000000000 ) ) ;
#1337 = DIRECTION ( 'NONE',  ( 0.000000000000000000, 0.000000000000000000, -1.000000000000000000 ) ) ;
#1338 = VERTEX_POINT ( 'NONE', #567 ) ;
#1339 = PRODUCT_DEFINITION_SHAPE ( 'NONE', 'NONE',  #1140 ) ;
#1340 = ORIENTED_EDGE ( 'NONE', *, *, #1022, .T. ) ;
#1341 = EDGE_CURVE ( 'NONE', #1033, #442, #180, .T. ) ;
#1342 = LINE ( 'NONE', #415, #482 ) ;
#1343 = DIRECTION ( 'NONE',  ( 0.000000000000000000, -1.000000000000000000, 3.841661241090305920E-15 ) ) ;
#1344 = CARTESIAN_POINT ( 'NONE',  ( 8.079999999999994742, 1.163414459189982046E-17, 0.000000000000000000 ) ) ;
#1345 = CARTESIAN_POINT ( 'NONE',  ( -8.485000000000001208, 11.13000000000000078, -0.6300000000000000044 ) ) ;
#1346 = ORIENTED_EDGE ( 'NONE', *, *, #507, .T. ) ;
#1347 = ORIENTED_EDGE ( 'NONE', *, *, #157, .F. ) ;
#1348 = CARTESIAN_POINT ( 'NONE',  ( 8.079999999999994742, -9.749999999999998224, -0.6300000000000002265 ) ) ;
#1349 = ADVANCED_BREP_SHAPE_REPRESENTATION ( 'PP15536-02-(16gacr ANSI-61) - K48 - V0-R0', ( #909, #813 ), #1358 ) ;
#1350 = LINE ( 'NONE', #814, #1124 ) ;
#1351 = VECTOR ( 'NONE', #188, 39.37007874015748143 ) ;
#1352 = ADVANCED_FACE ( 'NONE', ( #260 ), #151, .T. ) ;
#1353 = VECTOR ( 'NONE', #786, 39.37007874015748143 ) ;
#1354 = CARTESIAN_POINT ( 'NONE',  ( 8.484999999999999432, -11.24999999999999822, -0.05999999999999999778 ) ) ;
#1355 = ORIENTED_EDGE ( 'NONE', *, *, #761, .T. ) ;
#1356 = AXIS2_PLACEMENT_3D ( 'NONE', #48, #476, #895 ) ;
#1357 = ORIENTED_EDGE ( 'NONE', *, *, #456, .T. ) ;
#1358 =( GEOMETRIC_REPRESENTATION_CONTEXT ( 3 ) GLOBAL_UNCERTAINTY_ASSIGNED_CONTEXT ( ( #116 ) ) GLOBAL_UNIT_ASSIGNED_CONTEXT ( ( #991, #369, #794 ) ) REPRESENTATION_CONTEXT ( 'NONE', 'WORKASPACE' ) );
#1359 = DIRECTION ( 'NONE',  ( 0.000000000000000000, 3.834172622686683600E-15, 1.000000000000000000 ) ) ;
#1360 = DIRECTION ( 'NONE',  ( -0.000000000000000000, -0.000000000000000000, 1.000000000000000000 ) ) ;
#1362 = EDGE_CURVE ( 'NONE', #807, #1134, #995, .T. ) ;
#1361 = DIRECTION ( 'NONE',  ( 0.000000000000000000, 0.000000000000000000, -1.000000000000000000 ) ) ;
#1363 = ORIENTED_EDGE ( 'NONE', *, *, #1084, .F. ) ;
#1364 = ORIENTED_EDGE ( 'NONE', *, *, #1167, .T. ) ;
#1365 = CARTESIAN_POINT ( 'NONE',  ( -8.484999999999999432, -11.13000000000000078, -0.6300000000000000044 ) ) ;
#1366 = PRODUCT_DEFINITION_CONTEXT ( 'detailed design', #1184, 'design' ) ;
#1367 = CYLINDRICAL_SURFACE ( 'NONE', #1283, 0.4399999999999999467 ) ;
#1368 = DIRECTION ( 'NONE',  ( 1.000000000000000000, 0.000000000000000000, 0.000000000000000000 ) ) ;
#1369 = ORIENTED_EDGE ( 'NONE', *, *, #1125, .F. ) ;
#1370 = ORIENTED_EDGE ( 'NONE', *, *, #646, .T. ) ;
#1371 = CYLINDRICAL_SURFACE ( 'NONE', #749, 0.09499999999999994560 ) ;
#1372 = DIRECTION ( 'NONE',  ( -1.000000000000000000, 0.000000000000000000, 0.000000000000000000 ) ) ;
#1373 = CIRCLE ( 'NONE', #616, 0.09499999999999994560 ) ;
ENDSEC;
END-ISO-10303-21;
