ISO-10303-21;
HEADER;
FILE_DESCRIPTION (( 'STEP AP214' ),
    '1' );
FILE_NAME ('17-D-6047-01-(16gacr ANSI-61) - K0 - V1-R0.STEP',
    '2026-08-03T19:07:31',
    ( '' ),
    ( '' ),
    'SwSTEP 2.0',
    'SolidWorks 2024',
    '' );
FILE_SCHEMA (( 'AUTOMOTIVE_DESIGN' ));
ENDSEC;

DATA;
#1 = PLANE ( 'NONE',  #320 ) ;
#2 = DIRECTION ( 'NONE',  ( 1.000000000000000000, 0.000000000000000000, 0.000000000000000000 ) ) ;
#3 = DIRECTION ( 'NONE',  ( -1.000000000000000000, 0.000000000000000000, -0.000000000000000000 ) ) ;
#4 =( NAMED_UNIT ( * ) PLANE_ANGLE_UNIT ( ) SI_UNIT ( $, .RADIAN. ) );
#5 = CARTESIAN_POINT ( 'NONE',  ( 0.3009999999999999898, 5.628999999999999559, 0.05999999999999999778 ) ) ;
#6 = CARTESIAN_POINT ( 'NONE',  ( 0.3009999999999999898, 5.628999999999999559, 0.000000000000000000 ) ) ;
#7 = DIRECTION ( 'NONE',  ( -0.000000000000000000, -0.000000000000000000, 1.000000000000000000 ) ) ;
#8 = ADVANCED_FACE ( 'NONE', ( #314 ), #316, .F. ) ;
#9 = DIRECTION ( 'NONE',  ( 0.000000000000000000, 0.000000000000000000, -1.000000000000000000 ) ) ;
#10 = ORIENTED_EDGE ( 'NONE', *, *, #329, .T. ) ;
#11 = LINE ( 'NONE', #196, #295 ) ;
#12 = ORIENTED_EDGE ( 'NONE', *, *, #193, .F. ) ;
#13 = VECTOR ( 'NONE', #387, 39.37007874015748143 ) ;
#14 = CARTESIAN_POINT ( 'NONE',  ( 5.400000000000000355, 0.000000000000000000, 0.000000000000000000 ) ) ;
#15 = ORIENTED_EDGE ( 'NONE', *, *, #209, .T. ) ;
#16 = DIRECTION ( 'NONE',  ( -1.000000000000000000, 0.000000000000000000, 0.000000000000000000 ) ) ;
#17 = ORIENTED_EDGE ( 'NONE', *, *, #424, .F. ) ;
#18 = CARTESIAN_POINT ( 'NONE',  ( 0.5190000000000002389, 0.000000000000000000, 0.05999999999999999778 ) ) ;
#19 = ORIENTED_EDGE ( 'NONE', *, *, #201, .T. ) ;
#20 = DIRECTION ( 'NONE',  ( -0.000000000000000000, -0.000000000000000000, 1.000000000000000000 ) ) ;
#21 = VECTOR ( 'NONE', #428, 39.37007874015748143 ) ;
#22 = ORIENTED_EDGE ( 'NONE', *, *, #290, .T. ) ;
#23 = EDGE_CURVE ( 'NONE', #35, #441, #422, .T. ) ;
#24 = SURFACE_SIDE_STYLE ('',( #275 ) ) ;
#25 = CARTESIAN_POINT ( 'NONE',  ( 0.000000000000000000, 5.899999999999999467, 0.05999999999999999778 ) ) ;
#26 = EDGE_CURVE ( 'NONE', #445, #370, #352, .T. ) ;
#27 = PLANE ( 'NONE',  #159 ) ;
#28 = ORIENTED_EDGE ( 'NONE', *, *, #75, .T. ) ;
#29 = PRESENTATION_STYLE_ASSIGNMENT (( #133 ) ) ;
#30 = VECTOR ( 'NONE', #437, 39.37007874015748143 ) ;
#31 = ORIENTED_EDGE ( 'NONE', *, *, #60, .F. ) ;
#32 = EDGE_CURVE ( 'NONE', #195, #370, #106, .T. ) ;
#33 = AXIS2_PLACEMENT_3D ( 'NONE', #339, #9, #341 ) ;
#34 = CARTESIAN_POINT ( 'NONE',  ( 0.3009999999999999898, 5.628999999999999559, 0.05999999999999999778 ) ) ;
#35 = VERTEX_POINT ( 'NONE', #179 ) ;
#36 = PLANE ( 'NONE',  #128 ) ;
#37 = CARTESIAN_POINT ( 'NONE',  ( 0.000000000000000000, 0.000000000000000000, 0.000000000000000000 ) ) ;
#38 = DIRECTION ( 'NONE',  ( -1.000000000000000000, 0.000000000000000000, -0.000000000000000000 ) ) ;
#39 = VECTOR ( 'NONE', #278, 39.37007874015748143 ) ;
#40 = EDGE_CURVE ( 'NONE', #441, #121, #455, .T. ) ;
#41 = PLANE ( 'NONE',  #330 ) ;
#42 = CARTESIAN_POINT ( 'NONE',  ( 4.881000000000000227, 0.2710000000000000187, 0.05999999999999999778 ) ) ;
#43 = CARTESIAN_POINT ( 'NONE',  ( 0.000000000000000000, 0.2710000000000000187, 0.000000000000000000 ) ) ;
#44 = EDGE_CURVE ( 'NONE', #171, #35, #98, .T. ) ;
#45 = VECTOR ( 'NONE', #194, 39.37007874015748143 ) ;
#46 = PLANE ( 'NONE',  #167 ) ;
#47 = ORIENTED_EDGE ( 'NONE', *, *, #40, .F. ) ;
#48 = DIRECTION ( 'NONE',  ( 0.000000000000000000, 1.000000000000000000, 0.000000000000000000 ) ) ;
#49 = VERTEX_POINT ( 'NONE', #211 ) ;
#50 = DIRECTION ( 'NONE',  ( -0.000000000000000000, -0.000000000000000000, 1.000000000000000000 ) ) ;
#51 = ORIENTED_EDGE ( 'NONE', *, *, #26, .T. ) ;
#52 = VECTOR ( 'NONE', #64, 39.37007874015748143 ) ;
#53 = CARTESIAN_POINT ( 'NONE',  ( 4.881000000000000227, 0.000000000000000000, 0.05999999999999999778 ) ) ;
#54 = ORIENTED_EDGE ( 'NONE', *, *, #261, .T. ) ;
#55 = APPLICATION_CONTEXT ( 'automotive_design' ) ;
#56 = CARTESIAN_POINT ( 'NONE',  ( 0.000000000000000000, 0.000000000000000000, 0.05999999999999999778 ) ) ;
#57 = VERTEX_POINT ( 'NONE', #440 ) ;
#58 = FACE_OUTER_BOUND ( 'NONE', #217, .T. ) ;
#59 = VERTEX_POINT ( 'NONE', #112 ) ;
#60 = EDGE_CURVE ( 'NONE', #204, #49, #331, .T. ) ;
#61 = PRESENTATION_LAYER_ASSIGNMENT (  '', '', ( #460 ) ) ;
#62 = CARTESIAN_POINT ( 'NONE',  ( 0.5190000000000002389, 0.000000000000000000, 0.05999999999999999778 ) ) ;
#63 = ORIENTED_EDGE ( 'NONE', *, *, #26, .F. ) ;
#64 = DIRECTION ( 'NONE',  ( -0.000000000000000000, -1.000000000000000000, -0.000000000000000000 ) ) ;
#65 = ADVANCED_FACE ( 'NONE', ( #224 ), #259, .F. ) ;
#66 = LINE ( 'NONE', #129, #174 ) ;
#67 = ORIENTED_EDGE ( 'NONE', *, *, #357, .F. ) ;
#68 = PLANE ( 'NONE',  #78 ) ;
#69 = VECTOR ( 'NONE', #354, 39.37007874015748143 ) ;
#70 = ORIENTED_EDGE ( 'NONE', *, *, #135, .T. ) ;
#71 = VECTOR ( 'NONE', #253, 39.37007874015748143 ) ;
#72 = DIRECTION ( 'NONE',  ( -1.000000000000000000, 0.000000000000000000, -0.000000000000000000 ) ) ;
#73 = DIRECTION ( 'NONE',  ( -0.000000000000000000, -0.000000000000000000, 1.000000000000000000 ) ) ;
#74 = ORIENTED_EDGE ( 'NONE', *, *, #32, .F. ) ;
#75 = EDGE_CURVE ( 'NONE', #335, #355, #363, .T. ) ;
#76 = LENGTH_MEASURE_WITH_UNIT ( LENGTH_MEASURE( 0.02539999999999999897 ), #176 );
#77 = DIRECTION ( 'NONE',  ( 0.000000000000000000, -1.000000000000000000, -0.000000000000000000 ) ) ;
#78 = AXIS2_PLACEMENT_3D ( 'NONE', #382, #425, #216 ) ;
#79 = CARTESIAN_POINT ( 'NONE',  ( 5.099000000000000199, 0.000000000000000000, 0.000000000000000000 ) ) ;
#80 =( NAMED_UNIT ( * ) SI_UNIT ( $, .STERADIAN. ) SOLID_ANGLE_UNIT ( ) );
#81 = EDGE_CURVE ( 'NONE', #138, #445, #152, .T. ) ;
#82 = CARTESIAN_POINT ( 'NONE',  ( 5.099000000000000199, 0.4890000000000003233, 0.05999999999999999778 ) ) ;
#83 = CARTESIAN_POINT ( 'NONE',  ( 0.000000000000000000, 0.000000000000000000, 0.05999999999999999778 ) ) ;
#84 = AXIS2_PLACEMENT_3D ( 'NONE', #364, #188, #72 ) ;
#85 = CARTESIAN_POINT ( 'NONE',  ( 5.099000000000000199, 0.2710000000000000187, 0.000000000000000000 ) ) ;
#86 = PRODUCT_DEFINITION_CONTEXT ( 'detailed design', #104, 'design' ) ;
#87 = ORIENTED_EDGE ( 'NONE', *, *, #436, .T. ) ;
#88 = FACE_BOUND ( 'NONE', #126, .T. ) ;
#89 = ORIENTED_EDGE ( 'NONE', *, *, #124, .T. ) ;
#90 = LINE ( 'NONE', #368, #238 ) ;
#91 = UNCERTAINTY_MEASURE_WITH_UNIT (LENGTH_MEASURE( 1.000000000000000082E-05 ), #147, 'distance_accuracy_value', 'NONE');
#92 = ORIENTED_EDGE ( 'NONE', *, *, #75, .F. ) ;
#93 = VECTOR ( 'NONE', #426, 39.37007874015748143 ) ;
#94 = CARTESIAN_POINT ( 'NONE',  ( 5.400000000000000355, 5.899999999999999467, 0.000000000000000000 ) ) ;
#95 = ORIENTED_EDGE ( 'NONE', *, *, #312, .T. ) ;
#96 = DIRECTION ( 'NONE',  ( -1.000000000000000000, 0.000000000000000000, -0.000000000000000000 ) ) ;
#97 = ORIENTED_EDGE ( 'NONE', *, *, #267, .T. ) ;
#98 = LINE ( 'NONE', #245, #52 ) ;
#99 = CARTESIAN_POINT ( 'NONE',  ( 0.000000000000000000, 0.000000000000000000, 0.05999999999999999778 ) ) ;
#100 = DIRECTION ( 'NONE',  ( 1.000000000000000000, -0.000000000000000000, 0.000000000000000000 ) ) ;
#101 = EDGE_CURVE ( 'NONE', #345, #264, #393, .T. ) ;
#102 = CARTESIAN_POINT ( 'NONE',  ( 0.000000000000000000, 0.4890000000000003233, 0.000000000000000000 ) ) ;
#103 = ORIENTED_EDGE ( 'NONE', *, *, #457, .F. ) ;
#104 = APPLICATION_CONTEXT ( 'automotive_design' ) ;
#105 = FACE_BOUND ( 'NONE', #390, .T. ) ;
#106 = LINE ( 'NONE', #386, #93 ) ;
#107 = EDGE_LOOP ( 'NONE', ( #74, #161, #284, #51 ) ) ;
#108 = VECTOR ( 'NONE', #309, 39.37007874015748143 ) ;
#109 = PLANE ( 'NONE',  #175 ) ;
#110 = ADVANCED_FACE ( 'NONE', ( #325 ), #109, .F. ) ;
#111 = CARTESIAN_POINT ( 'NONE',  ( 0.5190000000000002389, 5.410999999999999588, 0.05999999999999999778 ) ) ;
#112 = CARTESIAN_POINT ( 'NONE',  ( 5.099000000000000199, 0.2710000000000000187, 0.05999999999999999778 ) ) ;
#113 = VECTOR ( 'NONE', #303, 39.37007874015748143 ) ;
#114 = CARTESIAN_POINT ( 'NONE',  ( 0.000000000000000000, 5.410999999999999588, 0.05999999999999999778 ) ) ;
#115 = FACE_OUTER_BOUND ( 'NONE', #240, .T. ) ;
#116 = PRODUCT ( '17-D-6047-01-(16gacr ANSI-61) - K0 - V1-R0', '17-D-6047-01-(16gacr ANSI-61) - K0 - V1-R0', '', ( #392 ) ) ;
#117 = CARTESIAN_POINT ( 'NONE',  ( 5.400000000000000355, 0.000000000000000000, 0.000000000000000000 ) ) ;
#118 = ORIENTED_EDGE ( 'NONE', *, *, #297, .T. ) ;
#119 = AXIS2_PLACEMENT_3D ( 'NONE', #37, #225, #2 ) ;
#120 = FACE_OUTER_BOUND ( 'NONE', #237, .T. ) ;
#121 = VERTEX_POINT ( 'NONE', #292 ) ;
#122 = DIRECTION ( 'NONE',  ( -0.000000000000000000, -1.000000000000000000, -0.000000000000000000 ) ) ;
#123 = ORIENTED_EDGE ( 'NONE', *, *, #40, .T. ) ;
#124 = EDGE_CURVE ( 'NONE', #121, #171, #186, .T. ) ;
#125 = LINE ( 'NONE', #56, #113 ) ;
#126 = EDGE_LOOP ( 'NONE', ( #17, #197, #103, #417 ) ) ;
#127 = ADVANCED_FACE ( 'NONE', ( #438 ), #36, .F. ) ;
#128 = AXIS2_PLACEMENT_3D ( 'NONE', #146, #296, #181 ) ;
#129 = CARTESIAN_POINT ( 'NONE',  ( 5.099000000000000199, 0.2710000000000000187, 0.05999999999999999778 ) ) ;
#130 = ORIENTED_EDGE ( 'NONE', *, *, #357, .T. ) ;
#131 = FILL_AREA_STYLE ('',( #456 ) ) ;
#132 = EDGE_LOOP ( 'NONE', ( #208, #350, #67, #450 ) ) ;
#133 = SURFACE_STYLE_USAGE ( .BOTH. , #24 ) ;
#134 = ORIENTED_EDGE ( 'NONE', *, *, #343, .F. ) ;
#135 = EDGE_CURVE ( 'NONE', #121, #266, #400, .T. ) ;
#136 = AXIS2_PLACEMENT_3D ( 'NONE', #346, #212, #344 ) ;
#137 = LINE ( 'NONE', #418, #69 ) ;
#138 = VERTEX_POINT ( 'NONE', #435 ) ;
#139 = CARTESIAN_POINT ( 'NONE',  ( 0.000000000000000000, 5.628999999999999559, 0.05999999999999999778 ) ) ;
#140 = VERTEX_POINT ( 'NONE', #327 ) ;
#141 = SHAPE_DEFINITION_REPRESENTATION ( #361, #408 ) ;
#142 = ORIENTED_EDGE ( 'NONE', *, *, #436, .F. ) ;
#143 = EDGE_CURVE ( 'NONE', #171, #410, #288, .T. ) ;
#144 = LINE ( 'NONE', #79, #190 ) ;
#145 = PRODUCT_RELATED_PRODUCT_CATEGORY ( 'part', '', ( #116 ) ) ;
#146 = CARTESIAN_POINT ( 'NONE',  ( 5.400000000000000355, 0.000000000000000000, 0.05999999999999999778 ) ) ;
#147 =( CONVERSION_BASED_UNIT ( 'INCH', #187 ) LENGTH_UNIT ( ) NAMED_UNIT ( #244 ) );
#148 = CARTESIAN_POINT ( 'NONE',  ( 0.000000000000000000, 0.4890000000000003233, 0.05999999999999999778 ) ) ;
#149 = ADVANCED_FACE ( 'NONE', ( #324 ), #1, .T. ) ;
#150 = DIRECTION ( 'NONE',  ( 1.000000000000000000, -0.000000000000000000, 0.000000000000000000 ) ) ;
#151 = VECTOR ( 'NONE', #3, 39.37007874015748143 ) ;
#152 = LINE ( 'NONE', #226, #391 ) ;
#153 = ORIENTED_EDGE ( 'NONE', *, *, #371, .T. ) ;
#154 = DIRECTION ( 'NONE',  ( 0.000000000000000000, 1.000000000000000000, 0.000000000000000000 ) ) ;
#155 = ORIENTED_EDGE ( 'NONE', *, *, #411, .F. ) ;
#156 = EDGE_CURVE ( 'NONE', #264, #204, #144, .T. ) ;
#157 = FACE_OUTER_BOUND ( 'NONE', #299, .T. ) ;
#158 = VERTEX_POINT ( 'NONE', #42 ) ;
#159 = AXIS2_PLACEMENT_3D ( 'NONE', #62, #250, #170 ) ;
#160 = DIRECTION ( 'NONE',  ( -1.000000000000000000, 0.000000000000000000, 0.000000000000000000 ) ) ;
#161 = ORIENTED_EDGE ( 'NONE', *, *, #164, .F. ) ;
#162 = CARTESIAN_POINT ( 'NONE',  ( 0.3009999999999999898, 5.410999999999999588, 0.05999999999999999778 ) ) ;
#163 = ORIENTED_EDGE ( 'NONE', *, *, #156, .F. ) ;
#164 = EDGE_CURVE ( 'NONE', #138, #195, #254, .T. ) ;
#165 = DIRECTION ( 'NONE',  ( 0.000000000000000000, 1.000000000000000000, 0.000000000000000000 ) ) ;
#166 = VERTEX_POINT ( 'NONE', #328 ) ;
#167 = AXIS2_PLACEMENT_3D ( 'NONE', #449, #16, #369 ) ;
#168 = CARTESIAN_POINT ( 'NONE',  ( 0.5190000000000002389, 5.410999999999999588, 0.000000000000000000 ) ) ;
#169 = VERTEX_POINT ( 'NONE', #111 ) ;
#170 = DIRECTION ( 'NONE',  ( 0.000000000000000000, 1.000000000000000000, 0.000000000000000000 ) ) ;
#171 = VERTEX_POINT ( 'NONE', #6 ) ;
#172 = DIRECTION ( 'NONE',  ( -0.000000000000000000, -0.000000000000000000, 1.000000000000000000 ) ) ;
#173 = ORIENTED_EDGE ( 'NONE', *, *, #343, .T. ) ;
#174 = VECTOR ( 'NONE', #172, 39.37007874015748143 ) ;
#175 = AXIS2_PLACEMENT_3D ( 'NONE', #114, #219, #260 ) ;
#176 =( LENGTH_UNIT ( ) NAMED_UNIT ( * ) SI_UNIT ( $, .METRE. ) );
#177 = EDGE_LOOP ( 'NONE', ( #155, #234, #242, #130 ) ) ;
#178 = FACE_OUTER_BOUND ( 'NONE', #302, .T. ) ;
#179 = CARTESIAN_POINT ( 'NONE',  ( 0.3009999999999999898, 5.410999999999999588, 0.000000000000000000 ) ) ;
#180 = ADVANCED_FACE ( 'NONE', ( #184 ), #256, .T. ) ;
#181 = DIRECTION ( 'NONE',  ( 0.000000000000000000, 1.000000000000000000, 0.000000000000000000 ) ) ;
#182 = ADVANCED_FACE ( 'NONE', ( #360 ), #41, .F. ) ;
#183 = VECTOR ( 'NONE', #459, 39.37007874015748143 ) ;
#184 = FACE_OUTER_BOUND ( 'NONE', #383, .T. ) ;
#185 =( NAMED_UNIT ( * ) PLANE_ANGLE_UNIT ( ) SI_UNIT ( $, .RADIAN. ) );
#186 = LINE ( 'NONE', #356, #151 ) ;
#187 = LENGTH_MEASURE_WITH_UNIT ( LENGTH_MEASURE( 0.02539999999999999897 ), #326 );
#188 = DIRECTION ( 'NONE',  ( 0.000000000000000000, -1.000000000000000000, -0.000000000000000000 ) ) ;
#189 = DIRECTION ( 'NONE',  ( -0.000000000000000000, -0.000000000000000000, 1.000000000000000000 ) ) ;
#190 = VECTOR ( 'NONE', #432, 39.37007874015748143 ) ;
#191 = DIRECTION ( 'NONE',  ( -1.000000000000000000, 0.000000000000000000, 0.000000000000000000 ) ) ;
#192 = EDGE_LOOP ( 'NONE', ( #461, #405, #87, #415 ) ) ;
#193 = EDGE_CURVE ( 'NONE', #335, #140, #265, .T. ) ;
#194 = DIRECTION ( 'NONE',  ( -1.000000000000000000, 0.000000000000000000, -0.000000000000000000 ) ) ;
#195 = VERTEX_POINT ( 'NONE', #94 ) ;
#196 = CARTESIAN_POINT ( 'NONE',  ( 0.5190000000000002389, 5.410999999999999588, 0.05999999999999999778 ) ) ;
#197 = ORIENTED_EDGE ( 'NONE', *, *, #290, .F. ) ;
#198 = AXIS2_PLACEMENT_3D ( 'NONE', #83, #191, #154 ) ;
#199 = VECTOR ( 'NONE', #73, 39.37007874015748143 ) ;
#200 = DIRECTION ( 'NONE',  ( 0.000000000000000000, 1.000000000000000000, 0.000000000000000000 ) ) ;
#201 = EDGE_CURVE ( 'NONE', #140, #138, #305, .T. ) ;
#202 = ORIENTED_EDGE ( 'NONE', *, *, #60, .T. ) ;
#203 = DIRECTION ( 'NONE',  ( -1.000000000000000000, 0.000000000000000000, -0.000000000000000000 ) ) ;
#204 = VERTEX_POINT ( 'NONE', #406 ) ;
#205 = PLANE ( 'NONE',  #136 ) ;
#206 = ORIENTED_EDGE ( 'NONE', *, *, #44, .F. ) ;
#207 = LINE ( 'NONE', #315, #222 ) ;
#208 = ORIENTED_EDGE ( 'NONE', *, *, #267, .F. ) ;
#209 = EDGE_CURVE ( 'NONE', #410, #333, #263, .T. ) ;
#210 = LINE ( 'NONE', #99, #374 ) ;
#211 = CARTESIAN_POINT ( 'NONE',  ( 5.099000000000000199, 0.4890000000000003233, 0.05999999999999999778 ) ) ;
#212 = DIRECTION ( 'NONE',  ( 0.000000000000000000, -1.000000000000000000, -0.000000000000000000 ) ) ;
#213 = ORIENTED_EDGE ( 'NONE', *, *, #201, .F. ) ;
#214 = PRODUCT_DEFINITION_FORMATION_WITH_SPECIFIED_SOURCE ( 'ANY', '', #116, .NOT_KNOWN. ) ;
#215 = CLOSED_SHELL ( 'NONE', ( #110, #182, #429, #65, #319, #180, #8, #276, #149, #229, #127, #348, #257, #336 ) ) ;
#216 = DIRECTION ( 'NONE',  ( -1.000000000000000000, 0.000000000000000000, -0.000000000000000000 ) ) ;
#217 = EDGE_LOOP ( 'NONE', ( #340, #388, #70, #465 ) ) ;
#218 = EDGE_CURVE ( 'NONE', #345, #158, #404, .T. ) ;
#219 = DIRECTION ( 'NONE',  ( 0.000000000000000000, -1.000000000000000000, -0.000000000000000000 ) ) ;
#220 = CARTESIAN_POINT ( 'NONE',  ( 0.000000000000000000, 5.899999999999999467, 0.000000000000000000 ) ) ;
#221 = ORIENTED_EDGE ( 'NONE', *, *, #143, .T. ) ;
#222 = VECTOR ( 'NONE', #248, 39.37007874015748143 ) ;
#223 = DIRECTION ( 'NONE',  ( -1.000000000000000000, 0.000000000000000000, -0.000000000000000000 ) ) ;
#224 = FACE_OUTER_BOUND ( 'NONE', #107, .T. ) ;
#225 = DIRECTION ( 'NONE',  ( 0.000000000000000000, 0.000000000000000000, 1.000000000000000000 ) ) ;
#226 = CARTESIAN_POINT ( 'NONE',  ( 0.000000000000000000, 5.899999999999999467, 0.05999999999999999778 ) ) ;
#227 = CARTESIAN_POINT ( 'NONE',  ( 5.400000000000000355, 0.000000000000000000, 0.05999999999999999778 ) ) ;
#228 = COLOUR_RGB ( '',0.7921568627450980005, 0.8196078431372548767, 0.9333333333333333481 ) ;
#229 = ADVANCED_FACE ( 'NONE', ( #444 ), #46, .T. ) ;
#230 = AXIS2_PLACEMENT_3D ( 'NONE', #53, #270, #337 ) ;
#231 = CARTESIAN_POINT ( 'NONE',  ( 0.3009999999999999898, 0.000000000000000000, 0.05999999999999999778 ) ) ;
#232 = ORIENTED_EDGE ( 'NONE', *, *, #44, .T. ) ;
#233 = PLANE ( 'NONE',  #33 ) ;
#234 = ORIENTED_EDGE ( 'NONE', *, *, #101, .F. ) ;
#235 = EDGE_CURVE ( 'NONE', #140, #379, #125, .T. ) ;
#236 = CARTESIAN_POINT ( 'NONE',  ( 0.000000000000000000, 0.000000000000000000, 0.000000000000000000 ) ) ;
#237 = EDGE_LOOP ( 'NONE', ( #458, #443, #63, #407 ) ) ;
#238 = VECTOR ( 'NONE', #200, 39.37007874015748143 ) ;
#239 = CARTESIAN_POINT ( 'NONE',  ( 0.000000000000000000, 0.000000000000000000, 0.000000000000000000 ) ) ;
#240 = EDGE_LOOP ( 'NONE', ( #338, #213, #310, #304 ) ) ;
#241 = DIRECTION ( 'NONE',  ( -1.000000000000000000, 0.000000000000000000, -0.000000000000000000 ) ) ;
#242 = ORIENTED_EDGE ( 'NONE', *, *, #218, .T. ) ;
#243 = DIRECTION ( 'NONE',  ( 0.000000000000000000, 1.000000000000000000, 0.000000000000000000 ) ) ;
#244 = DIMENSIONAL_EXPONENTS ( 1.000000000000000000, 0.000000000000000000, 0.000000000000000000, 0.000000000000000000, 0.000000000000000000, 0.000000000000000000, 0.000000000000000000 ) ;
#245 = CARTESIAN_POINT ( 'NONE',  ( 0.3009999999999999898, 0.000000000000000000, 0.000000000000000000 ) ) ;
#246 = LINE ( 'NONE', #321, #183 ) ;
#247 = CARTESIAN_POINT ( 'NONE',  ( 0.000000000000000000, 5.410999999999999588, 0.000000000000000000 ) ) ;
#248 = DIRECTION ( 'NONE',  ( 1.000000000000000000, -0.000000000000000000, 0.000000000000000000 ) ) ;
#249 = ORIENTED_EDGE ( 'NONE', *, *, #235, .F. ) ;
#250 = DIRECTION ( 'NONE',  ( -1.000000000000000000, 0.000000000000000000, 0.000000000000000000 ) ) ;
#251 = EDGE_LOOP ( 'NONE', ( #163, #373, #118, #31 ) ) ;
#252 = VECTOR ( 'NONE', #7, 39.37007874015748143 ) ;
#253 = DIRECTION ( 'NONE',  ( -0.000000000000000000, -0.000000000000000000, 1.000000000000000000 ) ) ;
#254 = LINE ( 'NONE', #220, #414 ) ;
#255 = ORIENTED_EDGE ( 'NONE', *, *, #384, .T. ) ;
#256 = PLANE ( 'NONE',  #452 ) ;
#257 = ADVANCED_FACE ( 'NONE', ( #268, #120, #88 ), #233, .F. ) ;
#258 = VECTOR ( 'NONE', #277, 39.37007874015748143 ) ;
#259 = PLANE ( 'NONE',  #84 ) ;
#260 = DIRECTION ( 'NONE',  ( -1.000000000000000000, 0.000000000000000000, -0.000000000000000000 ) ) ;
#261 = EDGE_CURVE ( 'NONE', #370, #355, #447, .T. ) ;
#262 = CARTESIAN_POINT ( 'NONE',  ( 4.881000000000000227, 0.2710000000000000187, 0.05999999999999999778 ) ) ;
#263 = LINE ( 'NONE', #231, #108 ) ;
#264 = VERTEX_POINT ( 'NONE', #85 ) ;
#265 = LINE ( 'NONE', #236, #45 ) ;
#266 = VERTEX_POINT ( 'NONE', #409 ) ;
#267 = EDGE_CURVE ( 'NONE', #49, #166, #372, .T. ) ;
#268 = FACE_BOUND ( 'NONE', #132, .T. ) ;
#269 = ORIENTED_EDGE ( 'NONE', *, *, #329, .F. ) ;
#270 = DIRECTION ( 'NONE',  ( -1.000000000000000000, 0.000000000000000000, 0.000000000000000000 ) ) ;
#271 = ORIENTED_EDGE ( 'NONE', *, *, #218, .F. ) ;
#272 = AXIS2_PLACEMENT_3D ( 'NONE', #464, #419, #282 ) ;
#273 = CARTESIAN_POINT ( 'NONE',  ( 5.400000000000000355, 5.899999999999999467, 0.05999999999999999778 ) ) ;
#274 = ORIENTED_EDGE ( 'NONE', *, *, #32, .T. ) ;
#275 = SURFACE_STYLE_FILL_AREA ( #131 ) ;
#276 = ADVANCED_FACE ( 'NONE', ( #157 ), #413, .F. ) ;
#277 = DIRECTION ( 'NONE',  ( 0.000000000000000000, 1.000000000000000000, 0.000000000000000000 ) ) ;
#278 = DIRECTION ( 'NONE',  ( -0.000000000000000000, -0.000000000000000000, 1.000000000000000000 ) ) ;
#279 = ORIENTED_EDGE ( 'NONE', *, *, #156, .T. ) ;
#280 = VECTOR ( 'NONE', #20, 39.37007874015748143 ) ;
#281 = CARTESIAN_POINT ( 'NONE',  ( 5.400000000000000355, 0.000000000000000000, 0.05999999999999999778 ) ) ;
#282 = DIRECTION ( 'NONE',  ( -1.000000000000000000, 0.000000000000000000, -0.000000000000000000 ) ) ;
#283 = CARTESIAN_POINT ( 'NONE',  ( 4.881000000000000227, 0.2710000000000000187, 0.000000000000000000 ) ) ;
#284 = ORIENTED_EDGE ( 'NONE', *, *, #81, .T. ) ;
#285 = ORIENTED_EDGE ( 'NONE', *, *, #384, .F. ) ;
#286 = VECTOR ( 'NONE', #96, 39.37007874015748143 ) ;
#287 = VECTOR ( 'NONE', #100, 39.37007874015748143 ) ;
#288 = LINE ( 'NONE', #5, #462 ) ;
#289 = CARTESIAN_POINT ( 'NONE',  ( 0.5190000000000002389, 5.628999999999999559, 0.05999999999999999778 ) ) ;
#290 = EDGE_CURVE ( 'NONE', #169, #266, #332, .T. ) ;
#291 = CARTESIAN_POINT ( 'NONE',  ( 0.000000000000000000, 5.410999999999999588, 0.05999999999999999778 ) ) ;
#292 = CARTESIAN_POINT ( 'NONE',  ( 0.5190000000000002389, 5.628999999999999559, 0.000000000000000000 ) ) ;
#293 =( CONVERSION_BASED_UNIT ( 'INCH', #76 ) LENGTH_UNIT ( ) NAMED_UNIT ( #420 ) );
#294 =( GEOMETRIC_REPRESENTATION_CONTEXT ( 3 ) GLOBAL_UNCERTAINTY_ASSIGNED_CONTEXT ( ( #91 ) ) GLOBAL_UNIT_ASSIGNED_CONTEXT ( ( #147, #185, #80 ) ) REPRESENTATION_CONTEXT ( 'NONE', 'WORKASPACE' ) );
#295 = VECTOR ( 'NONE', #307, 39.37007874015748143 ) ;
#296 = DIRECTION ( 'NONE',  ( -1.000000000000000000, 0.000000000000000000, 0.000000000000000000 ) ) ;
#297 = EDGE_CURVE ( 'NONE', #59, #49, #90, .T. ) ;
#298 = CARTESIAN_POINT ( 'NONE',  ( 5.400000000000000355, 0.000000000000000000, 0.05999999999999999778 ) ) ;
#299 = EDGE_LOOP ( 'NONE', ( #271, #381, #173, #153 ) ) ;
#300 = PRODUCT_DEFINITION ( 'UNKNOWN', '', #214, #86 ) ;
#301 = LINE ( 'NONE', #14, #397 ) ;
#302 = EDGE_LOOP ( 'NONE', ( #365, #19, #306, #10 ) ) ;
#303 = DIRECTION ( 'NONE',  ( -0.000000000000000000, -0.000000000000000000, 1.000000000000000000 ) ) ;
#304 = ORIENTED_EDGE ( 'NONE', *, *, #398, .T. ) ;
#305 = LINE ( 'NONE', #239, #311 ) ;
#306 = ORIENTED_EDGE ( 'NONE', *, *, #164, .T. ) ;
#307 = DIRECTION ( 'NONE',  ( -0.000000000000000000, -0.000000000000000000, 1.000000000000000000 ) ) ;
#308 = EDGE_LOOP ( 'NONE', ( #142, #206, #221, #15 ) ) ;
#309 = DIRECTION ( 'NONE',  ( -0.000000000000000000, -1.000000000000000000, -0.000000000000000000 ) ) ;
#310 = ORIENTED_EDGE ( 'NONE', *, *, #235, .T. ) ;
#311 = VECTOR ( 'NONE', #378, 39.37007874015748143 ) ;
#312 = EDGE_CURVE ( 'NONE', #441, #169, #11, .T. ) ;
#313 = CARTESIAN_POINT ( 'NONE',  ( 0.000000000000000000, 5.899999999999999467, 0.05999999999999999778 ) ) ;
#314 = FACE_OUTER_BOUND ( 'NONE', #177, .T. ) ;
#315 = CARTESIAN_POINT ( 'NONE',  ( 0.000000000000000000, 0.2710000000000000187, 0.05999999999999999778 ) ) ;
#316 = PLANE ( 'NONE',  #272 ) ;
#317 = LINE ( 'NONE', #380, #39 ) ;
#318 = EDGE_LOOP ( 'NONE', ( #47, #95, #22, #448 ) ) ;
#319 = ADVANCED_FACE ( 'NONE', ( #115 ), #402, .T. ) ;
#320 = AXIS2_PLACEMENT_3D ( 'NONE', #148, #395, #38 ) ;
#321 = CARTESIAN_POINT ( 'NONE',  ( 4.881000000000000227, 0.000000000000000000, 0.05999999999999999778 ) ) ;
#322 = EDGE_LOOP ( 'NONE', ( #89, #232, #430, #123 ) ) ;
#323 = CARTESIAN_POINT ( 'NONE',  ( 0.5190000000000002389, 0.000000000000000000, 0.000000000000000000 ) ) ;
#324 = FACE_OUTER_BOUND ( 'NONE', #377, .T. ) ;
#325 = FACE_OUTER_BOUND ( 'NONE', #192, .T. ) ;
#326 =( LENGTH_UNIT ( ) NAMED_UNIT ( * ) SI_UNIT ( $, .METRE. ) );
#327 = CARTESIAN_POINT ( 'NONE',  ( 0.000000000000000000, 0.000000000000000000, 0.000000000000000000 ) ) ;
#328 = CARTESIAN_POINT ( 'NONE',  ( 4.881000000000000227, 0.4890000000000003233, 0.05999999999999999778 ) ) ;
#329 = EDGE_CURVE ( 'NONE', #195, #335, #301, .T. ) ;
#330 = AXIS2_PLACEMENT_3D ( 'NONE', #375, #160, #48 ) ;
#331 = LINE ( 'NONE', #82, #252 ) ;
#332 = LINE ( 'NONE', #18, #439 ) ;
#333 = VERTEX_POINT ( 'NONE', #162 ) ;
#334 = CARTESIAN_POINT ( 'NONE',  ( 0.000000000000000000, 0.4890000000000003233, 0.05999999999999999778 ) ) ;
#335 = VERTEX_POINT ( 'NONE', #117 ) ;
#336 = ADVANCED_FACE ( 'NONE', ( #105, #178, #389 ), #68, .T. ) ;
#337 = DIRECTION ( 'NONE',  ( 0.000000000000000000, 1.000000000000000000, 0.000000000000000000 ) ) ;
#338 = ORIENTED_EDGE ( 'NONE', *, *, #81, .F. ) ;
#339 = CARTESIAN_POINT ( 'NONE',  ( 0.000000000000000000, 0.000000000000000000, 0.05999999999999999778 ) ) ;
#340 = ORIENTED_EDGE ( 'NONE', *, *, #143, .F. ) ;
#341 = DIRECTION ( 'NONE',  ( -1.000000000000000000, 0.000000000000000000, -0.000000000000000000 ) ) ;
#342 = ORIENTED_EDGE ( 'NONE', *, *, #394, .T. ) ;
#343 = EDGE_CURVE ( 'NONE', #57, #166, #317, .T. ) ;
#344 = DIRECTION ( 'NONE',  ( -1.000000000000000000, 0.000000000000000000, -0.000000000000000000 ) ) ;
#345 = VERTEX_POINT ( 'NONE', #283 ) ;
#346 = CARTESIAN_POINT ( 'NONE',  ( 0.000000000000000000, 5.628999999999999559, 0.05999999999999999778 ) ) ;
#347 = EDGE_LOOP ( 'NONE', ( #269, #274, #54, #92 ) ) ;
#348 = ADVANCED_FACE ( 'NONE', ( #421 ), #27, .T. ) ;
#349 = LINE ( 'NONE', #451, #412 ) ;
#350 = ORIENTED_EDGE ( 'NONE', *, *, #297, .F. ) ;
#351 = CARTESIAN_POINT ( 'NONE',  ( 0.3009999999999999898, 5.410999999999999588, 0.05999999999999999778 ) ) ;
#352 = LINE ( 'NONE', #25, #287 ) ;
#353 = VECTOR ( 'NONE', #150, 39.37007874015748143 ) ;
#354 = DIRECTION ( 'NONE',  ( -0.000000000000000000, -1.000000000000000000, -0.000000000000000000 ) ) ;
#355 = VERTEX_POINT ( 'NONE', #281 ) ;
#356 = CARTESIAN_POINT ( 'NONE',  ( 0.000000000000000000, 5.628999999999999559, 0.000000000000000000 ) ) ;
#357 = EDGE_CURVE ( 'NONE', #158, #59, #207, .T. ) ;
#358 = DIRECTION ( 'NONE',  ( 1.000000000000000000, -0.000000000000000000, 0.000000000000000000 ) ) ;
#359 =( NAMED_UNIT ( * ) SI_UNIT ( $, .STERADIAN. ) SOLID_ANGLE_UNIT ( ) );
#360 = FACE_OUTER_BOUND ( 'NONE', #308, .T. ) ;
#361 = PRODUCT_DEFINITION_SHAPE ( 'NONE', 'NONE',  #300 ) ;
#362 = EDGE_CURVE ( 'NONE', #355, #379, #210, .T. ) ;
#363 = LINE ( 'NONE', #298, #71 ) ;
#364 = CARTESIAN_POINT ( 'NONE',  ( 0.000000000000000000, 5.899999999999999467, 0.05999999999999999778 ) ) ;
#365 = ORIENTED_EDGE ( 'NONE', *, *, #193, .T. ) ;
#366 =( GEOMETRIC_REPRESENTATION_CONTEXT ( 3 ) GLOBAL_UNCERTAINTY_ASSIGNED_CONTEXT ( ( #403 ) ) GLOBAL_UNIT_ASSIGNED_CONTEXT ( ( #293, #4, #359 ) ) REPRESENTATION_CONTEXT ( 'NONE', 'WORKASPACE' ) );
#367 = VECTOR ( 'NONE', #50, 39.37007874015748143 ) ;
#368 = CARTESIAN_POINT ( 'NONE',  ( 5.099000000000000199, 0.000000000000000000, 0.05999999999999999778 ) ) ;
#369 = DIRECTION ( 'NONE',  ( 0.000000000000000000, 1.000000000000000000, 0.000000000000000000 ) ) ;
#370 = VERTEX_POINT ( 'NONE', #273 ) ;
#371 = EDGE_CURVE ( 'NONE', #166, #158, #246, .T. ) ;
#372 = LINE ( 'NONE', #334, #431 ) ;
#373 = ORIENTED_EDGE ( 'NONE', *, *, #411, .T. ) ;
#374 = VECTOR ( 'NONE', #241, 39.37007874015748143 ) ;
#375 = CARTESIAN_POINT ( 'NONE',  ( 0.3009999999999999898, 0.000000000000000000, 0.05999999999999999778 ) ) ;
#376 = VECTOR ( 'NONE', #122, 39.37007874015748143 ) ;
#377 = EDGE_LOOP ( 'NONE', ( #134, #285, #202, #97 ) ) ;
#378 = DIRECTION ( 'NONE',  ( 0.000000000000000000, 1.000000000000000000, 0.000000000000000000 ) ) ;
#379 = VERTEX_POINT ( 'NONE', #385 ) ;
#380 = CARTESIAN_POINT ( 'NONE',  ( 4.881000000000000227, 0.4890000000000003233, 0.05999999999999999778 ) ) ;
#381 = ORIENTED_EDGE ( 'NONE', *, *, #394, .F. ) ;
#382 = CARTESIAN_POINT ( 'NONE',  ( 0.000000000000000000, 0.000000000000000000, 0.000000000000000000 ) ) ;
#383 = EDGE_LOOP ( 'NONE', ( #249, #12, #28, #453 ) ) ;
#384 = EDGE_CURVE ( 'NONE', #204, #57, #463, .T. ) ;
#385 = CARTESIAN_POINT ( 'NONE',  ( 0.000000000000000000, 0.000000000000000000, 0.05999999999999999778 ) ) ;
#386 = CARTESIAN_POINT ( 'NONE',  ( 5.400000000000000355, 5.899999999999999467, 0.05999999999999999778 ) ) ;
#387 = DIRECTION ( 'NONE',  ( -1.000000000000000000, 0.000000000000000000, -0.000000000000000000 ) ) ;
#388 = ORIENTED_EDGE ( 'NONE', *, *, #124, .F. ) ;
#389 = FACE_BOUND ( 'NONE', #322, .T. ) ;
#390 = EDGE_LOOP ( 'NONE', ( #255, #342, #433, #279 ) ) ;
#391 = VECTOR ( 'NONE', #189, 39.37007874015748143 ) ;
#392 = PRODUCT_CONTEXT ( 'NONE', #55, 'mechanical' ) ;
#393 = LINE ( 'NONE', #43, #353 ) ;
#394 = EDGE_CURVE ( 'NONE', #57, #345, #137, .T. ) ;
#395 = DIRECTION ( 'NONE',  ( 0.000000000000000000, -1.000000000000000000, -0.000000000000000000 ) ) ;
#396 = CARTESIAN_POINT ( 'NONE',  ( 0.000000000000000000, 0.000000000000000000, 0.05999999999999999778 ) ) ;
#397 = VECTOR ( 'NONE', #442, 39.37007874015748143 ) ;
#398 = EDGE_CURVE ( 'NONE', #379, #445, #349, .T. ) ;
#399 = APPLICATION_PROTOCOL_DEFINITION ( 'draft international standard', 'automotive_design', 1998, #55 ) ;
#400 = LINE ( 'NONE', #289, #199 ) ;
#401 = DIRECTION ( 'NONE',  ( -0.000000000000000000, -0.000000000000000000, 1.000000000000000000 ) ) ;
#402 = PLANE ( 'NONE',  #198 ) ;
#403 = UNCERTAINTY_MEASURE_WITH_UNIT (LENGTH_MEASURE( 1.000000000000000082E-05 ), #293, 'distance_accuracy_value', 'NONE');
#404 = LINE ( 'NONE', #262, #367 ) ;
#405 = ORIENTED_EDGE ( 'NONE', *, *, #23, .F. ) ;
#406 = CARTESIAN_POINT ( 'NONE',  ( 5.099000000000000199, 0.4890000000000003233, 0.000000000000000000 ) ) ;
#407 = ORIENTED_EDGE ( 'NONE', *, *, #398, .F. ) ;
#408 = ADVANCED_BREP_SHAPE_REPRESENTATION ( '17-D-6047-01-(16gacr ANSI-61) - K0 - V1-R0', ( #446, #119 ), #294 ) ;
#409 = CARTESIAN_POINT ( 'NONE',  ( 0.5190000000000002389, 5.628999999999999559, 0.05999999999999999778 ) ) ;
#410 = VERTEX_POINT ( 'NONE', #34 ) ;
#411 = EDGE_CURVE ( 'NONE', #264, #59, #66, .T. ) ;
#412 = VECTOR ( 'NONE', #243, 39.37007874015748143 ) ;
#413 = PLANE ( 'NONE',  #230 ) ;
#414 = VECTOR ( 'NONE', #358, 39.37007874015748143 ) ;
#415 = ORIENTED_EDGE ( 'NONE', *, *, #457, .T. ) ;
#416 = LINE ( 'NONE', #139, #286 ) ;
#417 = ORIENTED_EDGE ( 'NONE', *, *, #209, .F. ) ;
#418 = CARTESIAN_POINT ( 'NONE',  ( 4.881000000000000227, 0.000000000000000000, 0.000000000000000000 ) ) ;
#419 = DIRECTION ( 'NONE',  ( 0.000000000000000000, -1.000000000000000000, -0.000000000000000000 ) ) ;
#420 = DIMENSIONAL_EXPONENTS ( 1.000000000000000000, 0.000000000000000000, 0.000000000000000000, 0.000000000000000000, 0.000000000000000000, 0.000000000000000000, 0.000000000000000000 ) ;
#421 = FACE_OUTER_BOUND ( 'NONE', #318, .T. ) ;
#422 = LINE ( 'NONE', #247, #21 ) ;
#423 = MECHANICAL_DESIGN_GEOMETRIC_PRESENTATION_REPRESENTATION (  '', ( #460 ), #366 ) ;
#424 = EDGE_CURVE ( 'NONE', #266, #410, #416, .T. ) ;
#425 = DIRECTION ( 'NONE',  ( 0.000000000000000000, 0.000000000000000000, -1.000000000000000000 ) ) ;
#426 = DIRECTION ( 'NONE',  ( -0.000000000000000000, -0.000000000000000000, 1.000000000000000000 ) ) ;
#427 = LINE ( 'NONE', #351, #280 ) ;
#428 = DIRECTION ( 'NONE',  ( 1.000000000000000000, -0.000000000000000000, 0.000000000000000000 ) ) ;
#429 = ADVANCED_FACE ( 'NONE', ( #58 ), #205, .T. ) ;
#430 = ORIENTED_EDGE ( 'NONE', *, *, #23, .T. ) ;
#431 = VECTOR ( 'NONE', #203, 39.37007874015748143 ) ;
#432 = DIRECTION ( 'NONE',  ( 0.000000000000000000, 1.000000000000000000, 0.000000000000000000 ) ) ;
#433 = ORIENTED_EDGE ( 'NONE', *, *, #101, .T. ) ;
#434 = APPLICATION_PROTOCOL_DEFINITION ( 'draft international standard', 'automotive_design', 1998, #104 ) ;
#435 = CARTESIAN_POINT ( 'NONE',  ( 0.000000000000000000, 5.899999999999999467, 0.000000000000000000 ) ) ;
#436 = EDGE_CURVE ( 'NONE', #35, #333, #427, .T. ) ;
#437 = DIRECTION ( 'NONE',  ( 1.000000000000000000, -0.000000000000000000, 0.000000000000000000 ) ) ;
#438 = FACE_OUTER_BOUND ( 'NONE', #347, .T. ) ;
#439 = VECTOR ( 'NONE', #165, 39.37007874015748143 ) ;
#440 = CARTESIAN_POINT ( 'NONE',  ( 4.881000000000000227, 0.4890000000000003233, 0.000000000000000000 ) ) ;
#441 = VERTEX_POINT ( 'NONE', #168 ) ;
#442 = DIRECTION ( 'NONE',  ( -0.000000000000000000, -1.000000000000000000, -0.000000000000000000 ) ) ;
#443 = ORIENTED_EDGE ( 'NONE', *, *, #261, .F. ) ;
#444 = FACE_OUTER_BOUND ( 'NONE', #251, .T. ) ;
#445 = VERTEX_POINT ( 'NONE', #313 ) ;
#446 = MANIFOLD_SOLID_BREP ( 'Convertir-S\X2\00f3\X0\lido1', #215 ) ;
#447 = LINE ( 'NONE', #227, #376 ) ;
#448 = ORIENTED_EDGE ( 'NONE', *, *, #135, .F. ) ;
#449 = CARTESIAN_POINT ( 'NONE',  ( 5.099000000000000199, 0.000000000000000000, 0.05999999999999999778 ) ) ;
#450 = ORIENTED_EDGE ( 'NONE', *, *, #371, .F. ) ;
#451 = CARTESIAN_POINT ( 'NONE',  ( 0.000000000000000000, 0.000000000000000000, 0.05999999999999999778 ) ) ;
#452 = AXIS2_PLACEMENT_3D ( 'NONE', #396, #77, #223 ) ;
#453 = ORIENTED_EDGE ( 'NONE', *, *, #362, .T. ) ;
#454 = LINE ( 'NONE', #291, #30 ) ;
#455 = LINE ( 'NONE', #323, #258 ) ;
#456 = FILL_AREA_STYLE_COLOUR ( '', #228 ) ;
#457 = EDGE_CURVE ( 'NONE', #333, #169, #454, .T. ) ;
#458 = ORIENTED_EDGE ( 'NONE', *, *, #362, .F. ) ;
#459 = DIRECTION ( 'NONE',  ( -0.000000000000000000, -1.000000000000000000, -0.000000000000000000 ) ) ;
#460 = STYLED_ITEM ( 'NONE', ( #29 ), #446 ) ;
#461 = ORIENTED_EDGE ( 'NONE', *, *, #312, .F. ) ;
#462 = VECTOR ( 'NONE', #401, 39.37007874015748143 ) ;
#463 = LINE ( 'NONE', #102, #13 ) ;
#464 = CARTESIAN_POINT ( 'NONE',  ( 0.000000000000000000, 0.2710000000000000187, 0.05999999999999999778 ) ) ;
#465 = ORIENTED_EDGE ( 'NONE', *, *, #424, .T. ) ;
ENDSEC;
END-ISO-10303-21;
