ISO-10303-21;
HEADER;
FILE_DESCRIPTION (( 'STEP AP214' ),
    '1' );
FILE_NAME ('12-D-6080-06-(16gacr ANSI-61) - K48 - V4-R0.STEP',
    '2026-07-09T23:36:28',
    ( '' ),
    ( '' ),
    'SwSTEP 2.0',
    'SolidWorks 2024',
    '' );
FILE_SCHEMA (( 'AUTOMOTIVE_DESIGN' ));
ENDSEC;

DATA;
#1 = ORIENTED_EDGE ( 'NONE', *, *, #1370, .F. ) ;
#2 = EDGE_CURVE ( 'NONE', #28, #1238, #1243, .T. ) ;
#3 = VECTOR ( 'NONE', #68, 39.37007874015748143 ) ;
#4 = DIRECTION ( 'NONE',  ( 0.000000000000000000, -3.167359992654216647E-15, 1.000000000000000000 ) ) ;
#5 = CARTESIAN_POINT ( 'NONE',  ( 17.27700000000000813, 2.220000000000000195, -0.1280000000000006133 ) ) ;
#6 = AXIS2_PLACEMENT_3D ( 'NONE', #966, #955, #976 ) ;
#7 = VECTOR ( 'NONE', #580, 39.37007874015748143 ) ;
#8 = CYLINDRICAL_SURFACE ( 'NONE', #1022, 0.1279999999999998361 ) ;
#9 = DIRECTION ( 'NONE',  ( 1.000000000000000000, 0.000000000000000000, 0.000000000000000000 ) ) ;
#10 = VECTOR ( 'NONE', #695, 39.37007874015748143 ) ;
#11 = ORIENTED_EDGE ( 'NONE', *, *, #47, .T. ) ;
#12 = ORIENTED_EDGE ( 'NONE', *, *, #23, .T. ) ;
#13 = CARTESIAN_POINT ( 'NONE',  ( 17.34500000000000952, 2.220000000000000195, -0.7500000000000003331 ) ) ;
#14 = DIRECTION ( 'NONE',  ( 1.707404996040170359E-14, -1.000000000000000000, 0.000000000000000000 ) ) ;
#15 = LINE ( 'NONE', #441, #713 ) ;
#16 = ADVANCED_FACE ( 'NONE', ( #916 ), #737, .F. ) ;
#17 = DIRECTION ( 'NONE',  ( 3.642463991552422744E-15, -1.000000000000000000, 0.000000000000000000 ) ) ;
#18 = ORIENTED_EDGE ( 'NONE', *, *, #288, .F. ) ;
#19 = SURFACE_STYLE_FILL_AREA ( #988 ) ;
#20 = CARTESIAN_POINT ( 'NONE',  ( -17.34499999999999176, 2.220000000000000639, 5.512790067214662481E-14 ) ) ;
#21 = FACE_OUTER_BOUND ( 'NONE', #484, .T. ) ;
#22 = ORIENTED_EDGE ( 'NONE', *, *, #1096, .F. ) ;
#23 = EDGE_CURVE ( 'NONE', #1217, #714, #374, .T. ) ;
#24 = VERTEX_POINT ( 'NONE', #809 ) ;
#25 = DIRECTION ( 'NONE',  ( -1.000000000000000000, 0.000000000000000000, 0.000000000000000000 ) ) ;
#26 = DIRECTION ( 'NONE',  ( 0.000000000000000000, 0.000000000000000000, 1.000000000000000000 ) ) ;
#27 = DIRECTION ( 'NONE',  ( -1.000000000000000000, 0.000000000000000000, 0.000000000000000000 ) ) ;
#28 = VERTEX_POINT ( 'NONE', #1385 ) ;
#29 = AXIS2_PLACEMENT_3D ( 'NONE', #873, #664, #994 ) ;
#30 = AXIS2_PLACEMENT_3D ( 'NONE', #1057, #870, #1297 ) ;
#31 = EDGE_CURVE ( 'NONE', #1338, #1027, #951, .T. ) ;
#32 = ORIENTED_EDGE ( 'NONE', *, *, #247, .T. ) ;
#33 = VECTOR ( 'NONE', #113, 39.37007874015748143 ) ;
#34 = DIRECTION ( 'NONE',  ( 1.000000000000000000, 0.000000000000000000, 0.000000000000000000 ) ) ;
#35 = DIRECTION ( 'NONE',  ( 0.000000000000000000, -1.000000000000000000, -0.000000000000000000 ) ) ;
#36 = VERTEX_POINT ( 'NONE', #546 ) ;
#37 = CARTESIAN_POINT ( 'NONE',  ( -17.25499999999999190, 2.410000000000001030, -0.1279999999999979210 ) ) ;
#38 = EDGE_LOOP ( 'NONE', ( #613, #1250, #789, #311 ) ) ;
#39 = EDGE_CURVE ( 'NONE', #87, #558, #424, .T. ) ;
#40 = CARTESIAN_POINT ( 'NONE',  ( 17.40500000000000824, -2.219999999999998863, -0.7500000000000003331 ) ) ;
#41 = ADVANCED_FACE ( 'NONE', ( #1054 ), #532, .F. ) ;
#42 = CARTESIAN_POINT ( 'NONE',  ( 17.25500000000000966, -2.469999999999999751, -0.7500000000000003331 ) ) ;
#43 = ORIENTED_EDGE ( 'NONE', *, *, #646, .T. ) ;
#44 = ORIENTED_EDGE ( 'NONE', *, *, #991, .T. ) ;
#45 = FACE_OUTER_BOUND ( 'NONE', #1012, .T. ) ;
#46 = CARTESIAN_POINT ( 'NONE',  ( -17.06500000000000128, 0.000000000000000000, 0.000000000000000000 ) ) ;
#47 = EDGE_CURVE ( 'NONE', #803, #351, #1380, .T. ) ;
#48 = ORIENTED_EDGE ( 'NONE', *, *, #1116, .T. ) ;
#49 = LINE ( 'NONE', #709, #755 ) ;
#50 = AXIS2_PLACEMENT_3D ( 'NONE', #771, #787, #677 ) ;
#51 = CARTESIAN_POINT ( 'NONE',  ( 17.06500000000000483, 0.000000000000000000, -0.05999999999999999778 ) ) ;
#52 = ORIENTED_EDGE ( 'NONE', *, *, #1354, .F. ) ;
#53 = ORIENTED_EDGE ( 'NONE', *, *, #1031, .T. ) ;
#54 = FACE_OUTER_BOUND ( 'NONE', #619, .T. ) ;
#55 = VECTOR ( 'NONE', #701, 39.37007874015748143 ) ;
#56 = EDGE_LOOP ( 'NONE', ( #1136, #698, #1242, #749 ) ) ;
#57 = CARTESIAN_POINT ( 'NONE',  ( -17.40499999999999048, -2.219999999999999751, -0.7500000000000003331 ) ) ;
#58 = DIRECTION ( 'NONE',  ( -0.000000000000000000, -0.000000000000000000, 1.000000000000000000 ) ) ;
#59 = EDGE_LOOP ( 'NONE', ( #1365, #380, #315, #539 ) ) ;
#60 = EDGE_LOOP ( 'NONE', ( #368, #775, #222, #1372 ) ) ;
#61 = CARTESIAN_POINT ( 'NONE',  ( 17.40500000000001180, 0.000000000000000000, -0.7500000000000001110 ) ) ;
#62 = ORIENTED_EDGE ( 'NONE', *, *, #39, .T. ) ;
#63 = CARTESIAN_POINT ( 'NONE',  ( 17.25500000000000966, -2.410000000000000142, -0.1279999999999990035 ) ) ;
#64 = EDGE_CURVE ( 'NONE', #803, #268, #411, .T. ) ;
#65 = ORIENTED_EDGE ( 'NONE', *, *, #355, .F. ) ;
#66 = ORIENTED_EDGE ( 'NONE', *, *, #190, .F. ) ;
#67 = CYLINDRICAL_SURFACE ( 'NONE', #1086, 0.06799999999999938038 ) ;
#68 = DIRECTION ( 'NONE',  ( 0.000000000000000000, 1.000000000000000000, 0.000000000000000000 ) ) ;
#69 = LINE ( 'NONE', #375, #954 ) ;
#70 = CARTESIAN_POINT ( 'NONE',  ( 17.25500000000000966, 2.410000000000001030, -0.1279999999999979210 ) ) ;
#71 = AXIS2_PLACEMENT_3D ( 'NONE', #559, #1119, #786 ) ;
#72 = ADVANCED_FACE ( 'NONE', ( #432 ), #981, .F. ) ;
#73 = VECTOR ( 'NONE', #857, 39.37007874015748143 ) ;
#74 = ORIENTED_EDGE ( 'NONE', *, *, #1096, .T. ) ;
#75 = VECTOR ( 'NONE', #606, 39.37007874015748143 ) ;
#76 = ORIENTED_EDGE ( 'NONE', *, *, #979, .T. ) ;
#77 = DIRECTION ( 'NONE',  ( -1.000000000000000000, -0.000000000000000000, 1.255444850029539102E-16 ) ) ;
#78 = VECTOR ( 'NONE', #1164, 39.37007874015748143 ) ;
#79 = DIRECTION ( 'NONE',  ( 3.491481338843134539E-15, -0.000000000000000000, 1.000000000000000000 ) ) ;
#80 = ORIENTED_EDGE ( 'NONE', *, *, #800, .T. ) ;
#81 = EDGE_CURVE ( 'NONE', #950, #899, #100, .T. ) ;
#82 = ORIENTED_EDGE ( 'NONE', *, *, #1160, .T. ) ;
#83 = DIRECTION ( 'NONE',  ( 1.000000000000000000, 0.000000000000000000, 0.000000000000000000 ) ) ;
#84 = CARTESIAN_POINT ( 'NONE',  ( 17.40500000000000824, -2.219999999999998863, -0.7500000000000003331 ) ) ;
#85 = PLANE ( 'NONE',  #977 ) ;
#86 = DIRECTION ( 'NONE',  ( 1.000000000000000000, -0.000000000000000000, 0.000000000000000000 ) ) ;
#87 = VERTEX_POINT ( 'NONE', #13 ) ;
#88 = CARTESIAN_POINT ( 'NONE',  ( 17.25500000000000966, 2.470000000000000639, -0.7500000000000003331 ) ) ;
#89 = DIRECTION ( 'NONE',  ( 0.000000000000000000, 0.000000000000000000, 1.000000000000000000 ) ) ;
#90 = ADVANCED_FACE ( 'NONE', ( #219 ), #1284, .F. ) ;
#91 = CARTESIAN_POINT ( 'NONE',  ( -17.25499999999999190, -2.469999999999999751, -0.7500000000000003331 ) ) ;
#92 = VECTOR ( 'NONE', #1092, 39.37007874015748143 ) ;
#93 = AXIS2_PLACEMENT_3D ( 'NONE', #1078, #26, #447 ) ;
#94 = CIRCLE ( 'NONE', #298, 0.06799999999999936651 ) ;
#95 = CARTESIAN_POINT ( 'NONE',  ( -17.40499999999999048, 2.470000000000002860, -0.7500000000000001110 ) ) ;
#96 = CARTESIAN_POINT ( 'NONE',  ( 17.25500000000000966, 2.470000000000000639, -0.1279999999999977822 ) ) ;
#97 = FACE_BOUND ( 'NONE', #237, .T. ) ;
#98 = CARTESIAN_POINT ( 'NONE',  ( 17.25500000000001322, 2.220000000000000195, -0.06000000000000004635 ) ) ;
#99 = ORIENTED_EDGE ( 'NONE', *, *, #800, .F. ) ;
#100 = LINE ( 'NONE', #1280, #636 ) ;
#101 = DIRECTION ( 'NONE',  ( 0.000000000000000000, 0.000000000000000000, 1.000000000000000000 ) ) ;
#102 = DIRECTION ( 'NONE',  ( -1.000000000000000000, 0.000000000000000000, 0.000000000000000000 ) ) ;
#103 = CYLINDRICAL_SURFACE ( 'NONE', #567, 0.06799999999999965794 ) ;
#104 = EDGE_CURVE ( 'NONE', #1098, #508, #865, .T. ) ;
#105 = LINE ( 'NONE', #1386, #73 ) ;
#106 = DIRECTION ( 'NONE',  ( 0.000000000000000000, 1.000000000000000000, -6.829619984160700053E-15 ) ) ;
#107 = CARTESIAN_POINT ( 'NONE',  ( 0.000000000000000000, -2.470000000000001972, -0.7500000000000001110 ) ) ;
#108 = VERTEX_POINT ( 'NONE', #331 ) ;
#109 = EDGE_CURVE ( 'NONE', #402, #396, #313, .T. ) ;
#110 = VECTOR ( 'NONE', #627, 39.37007874015748143 ) ;
#111 = DIRECTION ( 'NONE',  ( 1.000000000000000000, 0.000000000000000000, 3.491481338843134539E-15 ) ) ;
#112 = FACE_BOUND ( 'NONE', #1132, .T. ) ;
#113 = DIRECTION ( 'NONE',  ( -1.000000000000000000, -0.000000000000000000, 1.255444850029539102E-16 ) ) ;
#114 = VECTOR ( 'NONE', #1216, 39.37007874015748143 ) ;
#115 = DIRECTION ( 'NONE',  ( 8.741913579725621789E-15, -1.000000000000000000, 0.000000000000000000 ) ) ;
#116 = AXIS2_PLACEMENT_3D ( 'NONE', #5, #852, #309 ) ;
#117 = EDGE_LOOP ( 'NONE', ( #716, #1388, #469, #401, #1318, #394, #693, #1040, #799, #1342, #281, #1220 ) ) ;
#118 = UNCERTAINTY_MEASURE_WITH_UNIT (LENGTH_MEASURE( 1.000000000000000082E-05 ), #938, 'distance_accuracy_value', 'NONE');
#119 = LINE ( 'NONE', #132, #359 ) ;
#120 = PLANE ( 'NONE',  #638 ) ;
#121 = CARTESIAN_POINT ( 'NONE',  ( 0.000000000000000000, 2.470000000000002860, -0.7500000000000001110 ) ) ;
#122 = EDGE_CURVE ( 'NONE', #396, #351, #521, .T. ) ;
#123 = DIRECTION ( 'NONE',  ( 1.000000000000000000, 0.000000000000000000, 0.000000000000000000 ) ) ;
#124 = ORIENTED_EDGE ( 'NONE', *, *, #378, .F. ) ;
#125 = PLANE ( 'NONE',  #71 ) ;
#126 = CARTESIAN_POINT ( 'NONE',  ( 17.25500000000000966, -2.469999999999999751, -0.7500000000000003331 ) ) ;
#127 = ORIENTED_EDGE ( 'NONE', *, *, #1272, .T. ) ;
#128 = ADVANCED_FACE ( 'NONE', ( #632 ), #1173, .T. ) ;
#129 = DIRECTION ( 'NONE',  ( 0.000000000000000000, 0.000000000000000000, 1.000000000000000000 ) ) ;
#130 = EDGE_LOOP ( 'NONE', ( #816, #497, #937, #654 ) ) ;
#131 = VERTEX_POINT ( 'NONE', #750 ) ;
#132 = CARTESIAN_POINT ( 'NONE',  ( 17.40500000000001180, 2.220000000000000639, -0.7500000000000001110 ) ) ;
#133 = DIRECTION ( 'NONE',  ( 0.000000000000000000, 0.000000000000000000, -1.000000000000000000 ) ) ;
#134 = CARTESIAN_POINT ( 'NONE',  ( 17.33792893218814157, 2.342000000000001414, -2.834292293426673064E-15 ) ) ;
#135 = EDGE_LOOP ( 'NONE', ( #483, #943, #218, #1021 ) ) ;
#136 = CARTESIAN_POINT ( 'NONE',  ( 17.27700000000000813, -2.402928932188133526, -0.1280000000000006133 ) ) ;
#137 = VECTOR ( 'NONE', #540, 39.37007874015748143 ) ;
#138 = AXIS2_PLACEMENT_3D ( 'NONE', #748, #329, #1074 ) ;
#139 = EDGE_CURVE ( 'NONE', #410, #1313, #1168, .T. ) ;
#140 = ORIENTED_EDGE ( 'NONE', *, *, #1076, .T. ) ;
#141 = DIRECTION ( 'NONE',  ( 1.000000000000000000, 3.642463991552422744E-15, 3.491481338843134539E-15 ) ) ;
#142 = DIRECTION ( 'NONE',  ( -1.000000000000000000, 4.971413985145003163E-32, 1.569576554820030418E-17 ) ) ;
#143 = DIRECTION ( 'NONE',  ( -0.000000000000000000, 1.000000000000000000, 0.000000000000000000 ) ) ;
#144 = ORIENTED_EDGE ( 'NONE', *, *, #928, .F. ) ;
#145 = ADVANCED_FACE ( 'NONE', ( #757 ), #1059, .T. ) ;
#146 = DIRECTION ( 'NONE',  ( 0.000000000000000000, -0.000000000000000000, -1.000000000000000000 ) ) ;
#147 = LINE ( 'NONE', #830, #1046 ) ;
#148 = VERTEX_POINT ( 'NONE', #1299 ) ;
#149 = DIRECTION ( 'NONE',  ( 1.000000000000000000, 0.000000000000000000, 3.264156610076814929E-15 ) ) ;
#150 = CYLINDRICAL_SURFACE ( 'NONE', #1153, 0.1559999999999991116 ) ;
#151 = EDGE_LOOP ( 'NONE', ( #1194, #837, #700, #324 ) ) ;
#152 = EDGE_CURVE ( 'NONE', #148, #1117, #1188, .T. ) ;
#153 = ORIENTED_EDGE ( 'NONE', *, *, #1095, .F. ) ;
#154 = CARTESIAN_POINT ( 'NONE',  ( -17.25499999999999190, 2.220000000000000639, -0.06000000000000004635 ) ) ;
#155 = VECTOR ( 'NONE', #472, 39.37007874015748143 ) ;
#156 = LINE ( 'NONE', #834, #480 ) ;
#157 = VECTOR ( 'NONE', #1345, 39.37007874015748143 ) ;
#158 = ORIENTED_EDGE ( 'NONE', *, *, #1104, .T. ) ;
#159 = ORIENTED_EDGE ( 'NONE', *, *, #378, .T. ) ;
#160 = APPLICATION_PROTOCOL_DEFINITION ( 'draft international standard', 'automotive_design', 1998, #692 ) ;
#161 = ORIENTED_EDGE ( 'NONE', *, *, #199, .F. ) ;
#162 = CARTESIAN_POINT ( 'NONE',  ( 17.27700000000000813, 2.220000000000000195, -0.1280000000000006133 ) ) ;
#163 = EDGE_CURVE ( 'NONE', #1238, #605, #778, .T. ) ;
#164 = CARTESIAN_POINT ( 'NONE',  ( -17.40499999999999403, -2.469999999999999751, -0.7500000000000001110 ) ) ;
#165 = ORIENTED_EDGE ( 'NONE', *, *, #563, .F. ) ;
#166 = CARTESIAN_POINT ( 'NONE',  ( 17.25500000000001322, 2.220000000000000195, 0.000000000000000000 ) ) ;
#167 = ORIENTED_EDGE ( 'NONE', *, *, #661, .F. ) ;
#168 = CARTESIAN_POINT ( 'NONE',  ( 17.25500000000000966, 2.470000000000000639, 0.000000000000000000 ) ) ;
#169 = VERTEX_POINT ( 'NONE', #663 ) ;
#170 = DIRECTION ( 'NONE',  ( 0.000000000000000000, 0.000000000000000000, -1.000000000000000000 ) ) ;
#171 = EDGE_CURVE ( 'NONE', #714, #266, #463, .T. ) ;
#172 = DIRECTION ( 'NONE',  ( 1.000000000000000000, 3.642463991552422744E-15, 0.000000000000000000 ) ) ;
#173 = ORIENTED_EDGE ( 'NONE', *, *, #1232, .F. ) ;
#174 = ORIENTED_EDGE ( 'NONE', *, *, #635, .F. ) ;
#175 = DIRECTION ( 'NONE',  ( 1.000000000000000000, 0.000000000000000000, 0.000000000000000000 ) ) ;
#176 = VERTEX_POINT ( 'NONE', #900 ) ;
#177 =( CONVERSION_BASED_UNIT ( 'INCH', #1146 ) LENGTH_UNIT ( ) NAMED_UNIT ( #302 ) );
#178 = CARTESIAN_POINT ( 'NONE',  ( -17.27699999999999037, -2.219999999999999751, -0.1280000000000006133 ) ) ;
#179 = PLANE ( 'NONE',  #1082 ) ;
#180 = VECTOR ( 'NONE', #455, 39.37007874015748143 ) ;
#181 = AXIS2_PLACEMENT_3D ( 'NONE', #1383, #1064, #9 ) ;
#182 = ADVANCED_FACE ( 'NONE', ( #1237 ), #125, .F. ) ;
#183 = ORIENTED_EDGE ( 'NONE', *, *, #1340, .T. ) ;
#184 = AXIS2_PLACEMENT_3D ( 'NONE', #162, #1244, #941 ) ;
#185 = ORIENTED_EDGE ( 'NONE', *, *, #328, .T. ) ;
#186 = CARTESIAN_POINT ( 'NONE',  ( 17.34500000000000952, -2.219999999999998863, 5.512790067214666267E-14 ) ) ;
#187 = AXIS2_PLACEMENT_3D ( 'NONE', #84, #1294, #419 ) ;
#188 = DIRECTION ( 'NONE',  ( 0.000000000000000000, 0.000000000000000000, 1.000000000000000000 ) ) ;
#189 = ORIENTED_EDGE ( 'NONE', *, *, #163, .T. ) ;
#190 = EDGE_CURVE ( 'NONE', #831, #899, #1304, .T. ) ;
#191 = CARTESIAN_POINT ( 'NONE',  ( -17.27699999999999037, 2.402928932188135303, -0.06000000000000123290 ) ) ;
#192 = CARTESIAN_POINT ( 'NONE',  ( 0.000000000000000000, -2.469999999999999751, 8.032868062186502598E-15 ) ) ;
#193 = LINE ( 'NONE', #1073, #890 ) ;
#194 = DIRECTION ( 'NONE',  ( 1.000000000000000000, 0.000000000000000000, 0.000000000000000000 ) ) ;
#195 = VERTEX_POINT ( 'NONE', #577 ) ;
#196 = DIRECTION ( 'NONE',  ( 0.000000000000000000, 0.000000000000000000, 1.000000000000000000 ) ) ;
#197 = DIRECTION ( 'NONE',  ( -1.000000000000000000, 0.000000000000000000, -0.000000000000000000 ) ) ;
#198 = DIRECTION ( 'NONE',  ( -1.000000000000000000, -0.000000000000000000, -0.000000000000000000 ) ) ;
#199 = EDGE_CURVE ( 'NONE', #108, #998, #1330, .T. ) ;
#200 = DIRECTION ( 'NONE',  ( 1.000000000000000000, 0.000000000000000000, -1.255444850029539102E-16 ) ) ;
#201 = CARTESIAN_POINT ( 'NONE',  ( -17.27699999999999037, 2.220000000000000639, -0.06000000000000121902 ) ) ;
#202 = ORIENTED_EDGE ( 'NONE', *, *, #991, .F. ) ;
#203 = VECTOR ( 'NONE', #194, 39.37007874015748143 ) ;
#204 = VECTOR ( 'NONE', #371, 39.37007874015748143 ) ;
#205 = CARTESIAN_POINT ( 'NONE',  ( 17.25500000000001322, 2.342000000000000082, -0.06000000000000282885 ) ) ;
#206 = CARTESIAN_POINT ( 'NONE',  ( 17.22100000000000364, 0.000000000000000000, -0.05999999999999999778 ) ) ;
#207 = CARTESIAN_POINT ( 'NONE',  ( 0.000000000000000000, 2.220000000000000639, -0.05999999999999999778 ) ) ;
#208 = CARTESIAN_POINT ( 'NONE',  ( 17.33792893218814157, 2.342000000000001414, -0.1280000000000025007 ) ) ;
#209 = EDGE_CURVE ( 'NONE', #366, #28, #814, .T. ) ;
#210 = AXIS2_PLACEMENT_3D ( 'NONE', #612, #370, #263 ) ;
#211 = DIRECTION ( 'NONE',  ( 0.000000000000000000, 0.000000000000000000, 1.000000000000000000 ) ) ;
#212 = EDGE_LOOP ( 'NONE', ( #756, #1114 ) ) ;
#213 = DIRECTION ( 'NONE',  ( 0.000000000000000000, -1.000000000000000000, -3.167359992654216647E-15 ) ) ;
#214 = DIRECTION ( 'NONE',  ( 0.000000000000000000, -3.167359992654216647E-15, -1.000000000000000000 ) ) ;
#215 = CARTESIAN_POINT ( 'NONE',  ( -17.34499999999999176, -2.219999999999999751, -0.7500000000000003331 ) ) ;
#216 = EDGE_CURVE ( 'NONE', #274, #1180, #1218, .T. ) ;
#217 = PLANE ( 'NONE',  #384 ) ;
#218 = ORIENTED_EDGE ( 'NONE', *, *, #247, .F. ) ;
#219 = FACE_OUTER_BOUND ( 'NONE', #1328, .T. ) ;
#220 = CARTESIAN_POINT ( 'NONE',  ( -17.40499999999999048, -2.219999999999999751, -0.7500000000000003331 ) ) ;
#221 = CARTESIAN_POINT ( 'NONE',  ( -17.25499999999999190, -2.341999999999999638, -0.05999999999999957451 ) ) ;
#222 = ORIENTED_EDGE ( 'NONE', *, *, #1056, .T. ) ;
#223 = FACE_OUTER_BOUND ( 'NONE', #130, .T. ) ;
#224 = ADVANCED_FACE ( 'NONE', ( #694 ), #1210, .F. ) ;
#225 = ORIENTED_EDGE ( 'NONE', *, *, #335, .T. ) ;
#226 = EDGE_CURVE ( 'NONE', #605, #556, #1335, .T. ) ;
#227 = AXIS2_PLACEMENT_3D ( 'NONE', #1182, #764, #770 ) ;
#228 = VECTOR ( 'NONE', #982, 39.37007874015748143 ) ;
#229 = CARTESIAN_POINT ( 'NONE',  ( -17.22100000000000009, 1.910449006669871395E-17, -0.05999999999999999778 ) ) ;
#230 = DIRECTION ( 'NONE',  ( 1.000000000000000000, 8.741913579725621789E-15, 0.000000000000000000 ) ) ;
#231 = CARTESIAN_POINT ( 'NONE',  ( 17.40500000000000824, -2.219999999999998863, -0.1280000000000002525 ) ) ;
#232 = AXIS2_PLACEMENT_3D ( 'NONE', #500, #188, #624 ) ;
#233 = CARTESIAN_POINT ( 'NONE',  ( -16.90899999999999892, 0.000000000000000000, 0.000000000000000000 ) ) ;
#234 = ORIENTED_EDGE ( 'NONE', *, *, #199, .T. ) ;
#235 = CARTESIAN_POINT ( 'NONE',  ( -17.25499999999999190, -2.410000000000002363, -0.7500000000000003331 ) ) ;
#236 = VECTOR ( 'NONE', #1198, 39.37007874015748143 ) ;
#237 = EDGE_LOOP ( 'NONE', ( #884, #1254 ) ) ;
#238 = EDGE_CURVE ( 'NONE', #831, #410, #930, .T. ) ;
#239 = LINE ( 'NONE', #1315, #615 ) ;
#240 = FACE_OUTER_BOUND ( 'NONE', #1187, .T. ) ;
#241 = DIRECTION ( 'NONE',  ( -0.000000000000000000, -0.000000000000000000, 1.000000000000000000 ) ) ;
#242 = ORIENTED_EDGE ( 'NONE', *, *, #443, .T. ) ;
#243 = ORIENTED_EDGE ( 'NONE', *, *, #1085, .T. ) ;
#244 = DIRECTION ( 'NONE',  ( -1.000000000000000000, 0.000000000000000000, -0.000000000000000000 ) ) ;
#245 = LINE ( 'NONE', #440, #953 ) ;
#246 = DIRECTION ( 'NONE',  ( -1.000000000000000000, 0.000000000000000000, 0.000000000000000000 ) ) ;
#247 = EDGE_CURVE ( 'NONE', #1075, #1238, #357, .T. ) ;
#248 = CARTESIAN_POINT ( 'NONE',  ( 17.34500000000000952, 0.000000000000000000, 5.512790067214668160E-14 ) ) ;
#249 = ORIENTED_EDGE ( 'NONE', *, *, #704, .F. ) ;
#250 = DIRECTION ( 'NONE',  ( 1.000000000000000000, 0.000000000000000000, 0.000000000000000000 ) ) ;
#251 = DIRECTION ( 'NONE',  ( 0.000000000000000000, -1.000000000000000000, 6.829619984160700053E-15 ) ) ;
#252 = DIRECTION ( 'NONE',  ( -3.167359992654216647E-15, 0.000000000000000000, -1.000000000000000000 ) ) ;
#253 = VECTOR ( 'NONE', #744, 39.37007874015748143 ) ;
#254 = ORIENTED_EDGE ( 'NONE', *, *, #1006, .T. ) ;
#255 = EDGE_CURVE ( 'NONE', #631, #674, #239, .T. ) ;
#256 = ORIENTED_EDGE ( 'NONE', *, *, #785, .F. ) ;
#257 = CIRCLE ( 'NONE', #821, 0.1279999999999994198 ) ;
#258 = VERTEX_POINT ( 'NONE', #471 ) ;
#259 = LINE ( 'NONE', #715, #10 ) ;
#260 = PLANE ( 'NONE',  #501 ) ;
#261 = ADVANCED_FACE ( 'NONE', ( #45 ), #476, .F. ) ;
#262 = VERTEX_POINT ( 'NONE', #1007 ) ;
#263 = DIRECTION ( 'NONE',  ( 0.000000000000000000, 0.000000000000000000, 1.000000000000000000 ) ) ;
#264 = DIRECTION ( 'NONE',  ( -1.821231995776184945E-15, 1.000000000000000000, 0.000000000000000000 ) ) ;
#265 = DIRECTION ( 'NONE',  ( 1.000000000000000000, 0.000000000000000000, 0.000000000000000000 ) ) ;
#266 = VERTEX_POINT ( 'NONE', #685 ) ;
#267 = EDGE_CURVE ( 'NONE', #87, #1098, #119, .T. ) ;
#268 = VERTEX_POINT ( 'NONE', #369 ) ;
#269 = CARTESIAN_POINT ( 'NONE',  ( -17.25499999999999190, 2.220000000000000639, 0.000000000000000000 ) ) ;
#270 = VECTOR ( 'NONE', #792, 39.37007874015748143 ) ;
#271 = AXIS2_PLACEMENT_3D ( 'NONE', #192, #1285, #397 ) ;
#272 = LINE ( 'NONE', #617, #1226 ) ;
#273 = VECTOR ( 'NONE', #1192, 39.37007874015748143 ) ;
#274 = VERTEX_POINT ( 'NONE', #40 ) ;
#275 = CARTESIAN_POINT ( 'NONE',  ( -17.25499999999999190, -2.469999999999999751, -0.7500000000000003331 ) ) ;
#276 = MANIFOLD_SOLID_BREP ( 'Cortar-Extruir1', #1045 ) ;
#277 = ORIENTED_EDGE ( 'NONE', *, *, #122, .T. ) ;
#278 = DIRECTION ( 'NONE',  ( 0.000000000000000000, 0.000000000000000000, 1.000000000000000000 ) ) ;
#279 = ADVANCED_FACE ( 'NONE', ( #1275 ), #633, .F. ) ;
#280 = VECTOR ( 'NONE', #759, 39.37007874015748143 ) ;
#281 = ORIENTED_EDGE ( 'NONE', *, *, #2, .F. ) ;
#282 = DIRECTION ( 'NONE',  ( -0.000000000000000000, 1.000000000000000000, 0.000000000000000000 ) ) ;
#283 = LINE ( 'NONE', #1008, #155 ) ;
#284 = ORIENTED_EDGE ( 'NONE', *, *, #1076, .F. ) ;
#285 = DIRECTION ( 'NONE',  ( -1.000000000000000000, 0.000000000000000000, 3.264156610076814929E-15 ) ) ;
#286 = ORIENTED_EDGE ( 'NONE', *, *, #64, .F. ) ;
#287 = FACE_OUTER_BOUND ( 'NONE', #673, .T. ) ;
#288 = EDGE_CURVE ( 'NONE', #262, #674, #519, .T. ) ;
#289 = ORIENTED_EDGE ( 'NONE', *, *, #1085, .F. ) ;
#290 = ORIENTED_EDGE ( 'NONE', *, *, #355, .T. ) ;
#291 = DIRECTION ( 'NONE',  ( 1.000000000000000000, 3.642463991552422744E-15, 0.000000000000000000 ) ) ;
#292 = CARTESIAN_POINT ( 'NONE',  ( 17.40500000000000824, -2.219999999999998863, -0.7500000000000003331 ) ) ;
#293 = DIRECTION ( 'NONE',  ( 1.000000000000000000, 0.000000000000000000, 0.000000000000000000 ) ) ;
#294 = AXIS2_PLACEMENT_3D ( 'NONE', #525, #197, #1274 ) ;
#295 = ADVANCED_FACE ( 'NONE', ( #751 ), #1367, .F. ) ;
#296 = AXIS2_PLACEMENT_3D ( 'NONE', #1163, #1261, #1155 ) ;
#297 = FACE_OUTER_BOUND ( 'NONE', #517, .T. ) ;
#298 = AXIS2_PLACEMENT_3D ( 'NONE', #468, #1341, #898 ) ;
#299 = ORIENTED_EDGE ( 'NONE', *, *, #510, .T. ) ;
#300 = ORIENTED_EDGE ( 'NONE', *, *, #1312, .T. ) ;
#301 = DIRECTION ( 'NONE',  ( 8.741913579725621789E-15, -1.000000000000000000, 0.000000000000000000 ) ) ;
#302 = DIMENSIONAL_EXPONENTS ( 1.000000000000000000, 0.000000000000000000, 0.000000000000000000, 0.000000000000000000, 0.000000000000000000, 0.000000000000000000, 0.000000000000000000 ) ;
#303 = CIRCLE ( 'NONE', #596, 0.1559999999999991116 ) ;
#304 = LINE ( 'NONE', #495, #1373 ) ;
#305 = ADVANCED_FACE ( 'NONE', ( #1060 ), #512, .F. ) ;
#306 = EDGE_LOOP ( 'NONE', ( #458, #153, #65, #926 ) ) ;
#307 = ADVANCED_FACE ( 'NONE', ( #959 ), #1381, .F. ) ;
#308 = DIRECTION ( 'NONE',  ( 0.000000000000000000, 1.000000000000000000, -3.167359992654216647E-15 ) ) ;
#309 = DIRECTION ( 'NONE',  ( 1.000000000000000000, 4.268512490100398287E-15, -8.937198026147708717E-15 ) ) ;
#310 = FACE_OUTER_BOUND ( 'NONE', #1109, .T. ) ;
#311 = ORIENTED_EDGE ( 'NONE', *, *, #681, .T. ) ;
#312 = EDGE_CURVE ( 'NONE', #148, #258, #522, .T. ) ;
#313 = LINE ( 'NONE', #1375, #1128 ) ;
#314 = DIRECTION ( 'NONE',  ( 0.000000000000000000, -1.000000000000000000, 0.000000000000000000 ) ) ;
#315 = ORIENTED_EDGE ( 'NONE', *, *, #39, .F. ) ;
#316 = DIRECTION ( 'NONE',  ( 0.000000000000000000, 2.276539994720112182E-14, 1.000000000000000000 ) ) ;
#317 = CARTESIAN_POINT ( 'NONE',  ( -17.25499999999999190, 2.410000000000001030, -0.1279999999999979210 ) ) ;
#318 = CARTESIAN_POINT ( 'NONE',  ( 17.40500000000000824, -2.219999999999998863, -0.1280000000000002525 ) ) ;
#319 = EDGE_CURVE ( 'NONE', #1027, #356, #1174, .T. ) ;
#320 = ORIENTED_EDGE ( 'NONE', *, *, #226, .T. ) ;
#321 = AXIS2_PLACEMENT_3D ( 'NONE', #780, #1079, #1219 ) ;
#322 = AXIS2_PLACEMENT_3D ( 'NONE', #881, #772, #995 ) ;
#323 = FACE_OUTER_BOUND ( 'NONE', #611, .T. ) ;
#324 = ORIENTED_EDGE ( 'NONE', *, *, #1024, .T. ) ;
#325 = CARTESIAN_POINT ( 'NONE',  ( 0.000000000000000000, -2.409999999999999698, 7.823379181855914281E-15 ) ) ;
#326 = CARTESIAN_POINT ( 'NONE',  ( -17.25499999999999190, -2.469999999999999751, -0.7500000000000003331 ) ) ;
#327 = EDGE_CURVE ( 'NONE', #843, #604, #650, .T. ) ;
#328 = EDGE_CURVE ( 'NONE', #176, #474, #642, .T. ) ;
#329 = DIRECTION ( 'NONE',  ( 1.821231995776184945E-15, -1.000000000000000000, -0.000000000000000000 ) ) ;
#330 = ORIENTED_EDGE ( 'NONE', *, *, #1013, .T. ) ;
#331 = CARTESIAN_POINT ( 'NONE',  ( -17.25499999999999190, -2.410000000000000142, -0.1279999999999990035 ) ) ;
#332 = CARTESIAN_POINT ( 'NONE',  ( 17.25500000000001322, 2.342000000000000082, -0.06000000000000282885 ) ) ;
#333 = DIRECTION ( 'NONE',  ( 0.000000000000000000, 0.000000000000000000, 1.000000000000000000 ) ) ;
#334 = CARTESIAN_POINT ( 'NONE',  ( -17.25499999999999190, -2.469999999999999751, -0.7500000000000003331 ) ) ;
#335 = EDGE_CURVE ( 'NONE', #956, #1003, #105, .T. ) ;
#336 = ORIENTED_EDGE ( 'NONE', *, *, #1069, .T. ) ;
#337 = CIRCLE ( 'NONE', #840, 0.06799999999999938038 ) ;
#338 = CARTESIAN_POINT ( 'NONE',  ( 17.25500000000001322, 2.342000000000001414, -0.1280000000000024729 ) ) ;
#339 = PLANE ( 'NONE',  #50 ) ;
#340 = CARTESIAN_POINT ( 'NONE',  ( 17.40500000000000824, -2.410000000000000142, -0.1279999999999992810 ) ) ;
#341 = CIRCLE ( 'NONE', #184, 0.06799999999999938038 ) ;
#342 = CIRCLE ( 'NONE', #666, 0.06799999999999965794 ) ;
#343 = ORIENTED_EDGE ( 'NONE', *, *, #109, .F. ) ;
#344 = PRODUCT_DEFINITION ( 'UNKNOWN', '', #574, #543 ) ;
#345 = DIRECTION ( 'NONE',  ( -1.000000000000000000, -1.821231995776184945E-15, 0.000000000000000000 ) ) ;
#346 = DIRECTION ( 'NONE',  ( 0.000000000000000000, -1.000000000000000000, -3.167359992654216647E-15 ) ) ;
#347 = DIRECTION ( 'NONE',  ( 1.000000000000000000, 0.000000000000000000, -3.167359992654216647E-15 ) ) ;
#348 = ORIENTED_EDGE ( 'NONE', *, *, #1329, .T. ) ;
#349 = DIRECTION ( 'NONE',  ( -1.000000000000000000, 0.000000000000000000, -0.000000000000000000 ) ) ;
#350 = DIRECTION ( 'NONE',  ( -1.000000000000000000, 0.000000000000000000, 0.000000000000000000 ) ) ;
#351 = VERTEX_POINT ( 'NONE', #317 ) ;
#352 = DIRECTION ( 'NONE',  ( -0.000000000000000000, -0.000000000000000000, 1.000000000000000000 ) ) ;
#353 = CARTESIAN_POINT ( 'NONE',  ( -17.40499999999999048, 2.220000000000000639, -0.7500000000000003331 ) ) ;
#354 = LINE ( 'NONE', #134, #33 ) ;
#355 = EDGE_CURVE ( 'NONE', #108, #711, #758, .T. ) ;
#356 = VERTEX_POINT ( 'NONE', #537 ) ;
#357 = LINE ( 'NONE', #1326, #683 ) ;
#358 = DIRECTION ( 'NONE',  ( 1.000000000000000000, 1.491424195543501168E-31, -4.708729664460091253E-17 ) ) ;
#359 = VECTOR ( 'NONE', #141, 39.37007874015748143 ) ;
#360 = CARTESIAN_POINT ( 'NONE',  ( -17.06500000000000128, 0.000000000000000000, 0.000000000000000000 ) ) ;
#361 = MECHANICAL_DESIGN_GEOMETRIC_PRESENTATION_REPRESENTATION (  '', ( #906 ), #430 ) ;
#362 = ORIENTED_EDGE ( 'NONE', *, *, #1340, .F. ) ;
#363 = EDGE_CURVE ( 'NONE', #195, #843, #454, .T. ) ;
#364 = CIRCLE ( 'NONE', #30, 0.1559999999999991116 ) ;
#365 = AXIS2_PLACEMENT_3D ( 'NONE', #1356, #264, #917 ) ;
#366 = VERTEX_POINT ( 'NONE', #628 ) ;
#367 = AXIS2_PLACEMENT_3D ( 'NONE', #965, #651, #301 ) ;
#368 = ORIENTED_EDGE ( 'NONE', *, *, #216, .T. ) ;
#369 = CARTESIAN_POINT ( 'NONE',  ( -17.25499999999999190, 2.470000000000000639, -0.7500000000000003331 ) ) ;
#370 = DIRECTION ( 'NONE',  ( 1.000000000000000000, -0.000000000000000000, -0.000000000000000000 ) ) ;
#371 = DIRECTION ( 'NONE',  ( 1.000000000000000000, -0.000000000000000000, -0.000000000000000000 ) ) ;
#372 = DIRECTION ( 'NONE',  ( 0.000000000000000000, 0.000000000000000000, 1.000000000000000000 ) ) ;
#373 = EDGE_CURVE ( 'NONE', #482, #940, #622, .T. ) ;
#374 = LINE ( 'NONE', #191, #110 ) ;
#375 = CARTESIAN_POINT ( 'NONE',  ( 17.33792893218814157, 2.342000000000001414, -0.06000000000000284273 ) ) ;
#376 = CARTESIAN_POINT ( 'NONE',  ( 17.40500000000000824, 2.220000000000000639, -0.7500000000000003331 ) ) ;
#377 = ORIENTED_EDGE ( 'NONE', *, *, #1312, .F. ) ;
#378 = EDGE_CURVE ( 'NONE', #940, #747, #245, .T. ) ;
#379 = ORIENTED_EDGE ( 'NONE', *, *, #451, .T. ) ;
#380 = ORIENTED_EDGE ( 'NONE', *, *, #1241, .F. ) ;
#381 = LINE ( 'NONE', #1030, #204 ) ;
#382 = AXIS2_PLACEMENT_3D ( 'NONE', #275, #712, #927 ) ;
#383 = LINE ( 'NONE', #1044, #1130 ) ;
#384 = AXIS2_PLACEMENT_3D ( 'NONE', #652, #17, #1378 ) ;
#385 = EDGE_LOOP ( 'NONE', ( #82, #1137, #330, #225 ) ) ;
#386 = EDGE_CURVE ( 'NONE', #131, #1379, #1111, .T. ) ;
#387 = EDGE_LOOP ( 'NONE', ( #124, #377, #165, #781 ) ) ;
#388 = ADVANCED_FACE ( 'NONE', ( #560 ), #120, .T. ) ;
#389 = ORIENTED_EDGE ( 'NONE', *, *, #443, .F. ) ;
#390 = CARTESIAN_POINT ( 'NONE',  ( 17.25500000000000966, 2.470000000000000639, -0.7500000000000003331 ) ) ;
#391 = FACE_OUTER_BOUND ( 'NONE', #452, .T. ) ;
#392 = EDGE_LOOP ( 'NONE', ( #1291, #1323, #735, #475, #202, #52, #1016, #562, #640, #185, #1145, #462 ) ) ;
#393 = CARTESIAN_POINT ( 'NONE',  ( 17.34500000000000952, 2.220000000000000195, -0.1280000000000003912 ) ) ;
#394 = ORIENTED_EDGE ( 'NONE', *, *, #1104, .F. ) ;
#395 =( NAMED_UNIT ( * ) PLANE_ANGLE_UNIT ( ) SI_UNIT ( $, .RADIAN. ) );
#396 = VERTEX_POINT ( 'NONE', #1305 ) ;
#397 = DIRECTION ( 'NONE',  ( 0.000000000000000000, 3.167359992654216647E-15, 1.000000000000000000 ) ) ;
#398 = LINE ( 'NONE', #805, #157 ) ;
#399 = EDGE_CURVE ( 'NONE', #496, #1313, #974, .T. ) ;
#400 = DIRECTION ( 'NONE',  ( -0.000000000000000000, -0.000000000000000000, 1.000000000000000000 ) ) ;
#401 = ORIENTED_EDGE ( 'NONE', *, *, #171, .F. ) ;
#402 = VERTEX_POINT ( 'NONE', #1293 ) ;
#403 = LINE ( 'NONE', #1170, #459 ) ;
#404 = PRODUCT_RELATED_PRODUCT_CATEGORY ( 'part', '', ( #970 ) ) ;
#405 = DIRECTION ( 'NONE',  ( 1.000000000000000000, 0.000000000000000000, -3.491481338843134539E-15 ) ) ;
#406 = VECTOR ( 'NONE', #34, 39.37007874015748143 ) ;
#407 = CIRCLE ( 'NONE', #93, 0.1559999999999991116 ) ;
#408 = EDGE_CURVE ( 'NONE', #1379, #1125, #1088, .T. ) ;
#409 = AXIS2_PLACEMENT_3D ( 'NONE', #985, #1221, #349 ) ;
#410 = VERTEX_POINT ( 'NONE', #332 ) ;
#411 = LINE ( 'NONE', #417, #836 ) ;
#412 = LINE ( 'NONE', #538, #936 ) ;
#413 = VECTOR ( 'NONE', #102, 39.37007874015748143 ) ;
#414 = DIRECTION ( 'NONE',  ( 1.000000000000000000, 0.000000000000000000, 0.000000000000000000 ) ) ;
#415 = EDGE_CURVE ( 'NONE', #843, #195, #1081, .T. ) ;
#416 = ORIENTED_EDGE ( 'NONE', *, *, #1063, .T. ) ;
#417 = CARTESIAN_POINT ( 'NONE',  ( -17.25499999999999190, 2.470000000000000639, -0.7500000000000003331 ) ) ;
#418 =( NAMED_UNIT ( * ) PLANE_ANGLE_UNIT ( ) SI_UNIT ( $, .RADIAN. ) );
#419 = DIRECTION ( 'NONE',  ( -1.000000000000000000, -1.821231995776184945E-15, 0.000000000000000000 ) ) ;
#420 = FACE_OUTER_BOUND ( 'NONE', #1014, .T. ) ;
#421 = ORIENTED_EDGE ( 'NONE', *, *, #1296, .T. ) ;
#422 = ADVANCED_FACE ( 'NONE', ( #240 ), #339, .F. ) ;
#423 = SHAPE_DEFINITION_REPRESENTATION ( #427, #1349 ) ;
#424 = LINE ( 'NONE', #958, #1371 ) ;
#425 = DIRECTION ( 'NONE',  ( -0.000000000000000000, -0.000000000000000000, 1.000000000000000000 ) ) ;
#426 = CARTESIAN_POINT ( 'NONE',  ( 17.40500000000001180, 2.220000000000000195, -0.7500000000000001110 ) ) ;
#427 = PRODUCT_DEFINITION_SHAPE ( 'NONE', 'NONE',  #344 ) ;
#428 = DIRECTION ( 'NONE',  ( 0.000000000000000000, -4.553079989440346006E-15, -1.000000000000000000 ) ) ;
#429 = ORIENTED_EDGE ( 'NONE', *, *, #785, .T. ) ;
#430 =( GEOMETRIC_REPRESENTATION_CONTEXT ( 3 ) GLOBAL_UNCERTAINTY_ASSIGNED_CONTEXT ( ( #969 ) ) GLOBAL_UNIT_ASSIGNED_CONTEXT ( ( #177, #418, #1072 ) ) REPRESENTATION_CONTEXT ( 'NONE', 'WORKASPACE' ) );
#431 = AXIS2_PLACEMENT_3D ( 'NONE', #1148, #1051, #1264 ) ;
#432 = FACE_OUTER_BOUND ( 'NONE', #1308, .T. ) ;
#433 = DIRECTION ( 'NONE',  ( 0.000000000000000000, -1.000000000000000000, -2.276539994720233351E-15 ) ) ;
#434 = EDGE_CURVE ( 'NONE', #714, #491, #337, .T. ) ;
#435 = VECTOR ( 'NONE', #1147, 39.37007874015748143 ) ;
#436 = DIMENSIONAL_EXPONENTS ( 1.000000000000000000, 0.000000000000000000, 0.000000000000000000, 0.000000000000000000, 0.000000000000000000, 0.000000000000000000, 0.000000000000000000 ) ;
#437 = CARTESIAN_POINT ( 'NONE',  ( 17.06500000000000483, 0.000000000000000000, 0.000000000000000000 ) ) ;
#438 = ORIENTED_EDGE ( 'NONE', *, *, #813, .T. ) ;
#439 = DIRECTION ( 'NONE',  ( -1.000000000000000000, -0.000000000000000000, -0.000000000000000000 ) ) ;
#440 = CARTESIAN_POINT ( 'NONE',  ( 17.25500000000000966, -2.410000000000000142, -0.1279999999999990035 ) ) ;
#441 = CARTESIAN_POINT ( 'NONE',  ( 17.25500000000000966, 0.000000000000000000, -0.05999999999999999778 ) ) ;
#442 = DIRECTION ( 'NONE',  ( -1.000000000000000000, 0.000000000000000000, 0.000000000000000000 ) ) ;
#443 = EDGE_CURVE ( 'NONE', #1125, #1298, #554, .T. ) ;
#444 = FACE_OUTER_BOUND ( 'NONE', #907, .T. ) ;
#445 = ORIENTED_EDGE ( 'NONE', *, *, #1370, .T. ) ;
#446 = SURFACE_SIDE_STYLE ('',( #19 ) ) ;
#447 = DIRECTION ( 'NONE',  ( 1.000000000000000000, 0.000000000000000000, 0.000000000000000000 ) ) ;
#448 = LINE ( 'NONE', #1306, #1230 ) ;
#449 = ORIENTED_EDGE ( 'NONE', *, *, #1213, .F. ) ;
#450 = FACE_OUTER_BOUND ( 'NONE', #727, .T. ) ;
#451 = EDGE_CURVE ( 'NONE', #28, #631, #989, .T. ) ;
#452 = EDGE_LOOP ( 'NONE', ( #660, #807, #1154, #720 ) ) ;
#453 = VECTOR ( 'NONE', #316, 39.37007874015748143 ) ;
#454 = CIRCLE ( 'NONE', #296, 0.1559999999999991116 ) ;
#455 = DIRECTION ( 'NONE',  ( -0.000000000000000000, -0.000000000000000000, 1.000000000000000000 ) ) ;
#456 = DIRECTION ( 'NONE',  ( 1.000000000000000000, -0.000000000000000000, -0.000000000000000000 ) ) ;
#457 = CARTESIAN_POINT ( 'NONE',  ( 17.40500000000000824, 2.470000000000000639, -0.1280000000000001970 ) ) ;
#458 = ORIENTED_EDGE ( 'NONE', *, *, #373, .F. ) ;
#459 = VECTOR ( 'NONE', #198, 39.37007874015748143 ) ;
#460 = ORIENTED_EDGE ( 'NONE', *, *, #1346, .T. ) ;
#461 = EDGE_CURVE ( 'NONE', #258, #148, #407, .T. ) ;
#462 = ORIENTED_EDGE ( 'NONE', *, *, #319, .F. ) ;
#463 = LINE ( 'NONE', #1000, #406 ) ;
#464 = CARTESIAN_POINT ( 'NONE',  ( 17.25500000000000966, -2.410000000000002363, -0.7500000000000003331 ) ) ;
#465 = LINE ( 'NONE', #457, #236 ) ;
#466 = ORIENTED_EDGE ( 'NONE', *, *, #1288, .T. ) ;
#467 = CYLINDRICAL_SURFACE ( 'NONE', #687, 0.1279999999999998361 ) ;
#468 = CARTESIAN_POINT ( 'NONE',  ( -17.27699999999999037, 2.220000000000000639, -0.1280000000000006133 ) ) ;
#469 = ORIENTED_EDGE ( 'NONE', *, *, #1319, .F. ) ;
#470 = EDGE_CURVE ( 'NONE', #998, #169, #779, .T. ) ;
#471 = CARTESIAN_POINT ( 'NONE',  ( -16.90899999999999892, 0.000000000000000000, -0.05999999999999999778 ) ) ;
#472 = DIRECTION ( 'NONE',  ( 1.000000000000000000, 0.000000000000000000, -2.276539994720181681E-15 ) ) ;
#473 = CARTESIAN_POINT ( 'NONE',  ( -17.40499999999999048, -2.219999999999999751, -0.7500000000000003331 ) ) ;
#474 = VERTEX_POINT ( 'NONE', #670 ) ;
#475 = ORIENTED_EDGE ( 'NONE', *, *, #968, .T. ) ;
#476 = PLANE ( 'NONE',  #795 ) ;
#477 = VECTOR ( 'NONE', #214, 39.37007874015748143 ) ;
#478 = ORIENTED_EDGE ( 'NONE', *, *, #31, .F. ) ;
#479 = LINE ( 'NONE', #1133, #912 ) ;
#480 = VECTOR ( 'NONE', #293, 39.37007874015748143 ) ;
#481 = ADVANCED_FACE ( 'NONE', ( #1211, #112, #1093 ), #547, .F. ) ;
#482 = VERTEX_POINT ( 'NONE', #464 ) ;
#483 = ORIENTED_EDGE ( 'NONE', *, *, #510, .F. ) ;
#484 = EDGE_LOOP ( 'NONE', ( #1265, #637, #445, #1325 ) ) ;
#485 = CARTESIAN_POINT ( 'NONE',  ( -17.25499999999999190, -2.341999999999999638, -0.05999999999999957451 ) ) ;
#486 = EDGE_CURVE ( 'NONE', #1362, #1379, #1321, .T. ) ;
#487 = LINE ( 'NONE', #1140, #885 ) ;
#488 = ORIENTED_EDGE ( 'NONE', *, *, #767, .T. ) ;
#489 = ORIENTED_EDGE ( 'NONE', *, *, #849, .F. ) ;
#490 = CARTESIAN_POINT ( 'NONE',  ( 17.25500000000001322, 2.342000000000001414, 0.000000000000000000 ) ) ;
#491 = VERTEX_POINT ( 'NONE', #1052 ) ;
#492 = PLANE ( 'NONE',  #365 ) ;
#493 = DIRECTION ( 'NONE',  ( -1.000000000000000000, -0.000000000000000000, -0.000000000000000000 ) ) ;
#494 = ORIENTED_EDGE ( 'NONE', *, *, #681, .F. ) ;
#495 = CARTESIAN_POINT ( 'NONE',  ( -16.90899999999999892, 0.000000000000000000, -0.05999999999999999778 ) ) ;
#496 = VERTEX_POINT ( 'NONE', #507 ) ;
#497 = ORIENTED_EDGE ( 'NONE', *, *, #529, .T. ) ;
#498 = CARTESIAN_POINT ( 'NONE',  ( 17.27700000000000813, -2.402928932188133526, -1.229331597148918547E-15 ) ) ;
#499 = VECTOR ( 'NONE', #425, 39.37007874015748143 ) ;
#500 = CARTESIAN_POINT ( 'NONE',  ( 17.06500000000000483, 0.000000000000000000, -0.05999999999999999778 ) ) ;
#501 = AXIS2_PLACEMENT_3D ( 'NONE', #248, #680, #1004 ) ;
#502 = CARTESIAN_POINT ( 'NONE',  ( -17.25499999999999190, -2.469999999999999751, -0.7500000000000003331 ) ) ;
#503 = ADVANCED_FACE ( 'NONE', ( #297 ), #1359, .F. ) ;
#504 = VECTOR ( 'NONE', #241, 39.37007874015748143 ) ;
#505 = CARTESIAN_POINT ( 'NONE',  ( 17.27700000000000813, -2.402928932188133526, -0.1280000000000006133 ) ) ;
#506 = LINE ( 'NONE', #1364, #1249 ) ;
#507 = CARTESIAN_POINT ( 'NONE',  ( 17.25500000000000966, 2.470000000000000639, -0.1279999999999977822 ) ) ;
#508 = VERTEX_POINT ( 'NONE', #797 ) ;
#509 = CARTESIAN_POINT ( 'NONE',  ( 0.000000000000000000, 0.000000000000000000, 0.000000000000000000 ) ) ;
#510 = EDGE_CURVE ( 'NONE', #558, #508, #610, .T. ) ;
#511 = EDGE_LOOP ( 'NONE', ( #682, #892, #449, #552 ) ) ;
#512 = PLANE ( 'NONE',  #1331 ) ;
#513 = CARTESIAN_POINT ( 'NONE',  ( -17.25499999999999190, 2.470000000000000639, 0.000000000000000000 ) ) ;
#514 = EDGE_CURVE ( 'NONE', #258, #920, #304, .T. ) ;
#515 = CARTESIAN_POINT ( 'NONE',  ( -17.25499999999999190, 2.470000000000000639, -0.7500000000000003331 ) ) ;
#516 = DIRECTION ( 'NONE',  ( 1.000000000000000000, 4.553079989440363361E-15, 2.276539994720181681E-15 ) ) ;
#517 = EDGE_LOOP ( 'NONE', ( #1019, #1102, #1005, #1191 ) ) ;
#518 = DIRECTION ( 'NONE',  ( 0.000000000000000000, 3.167359992654216647E-15, 1.000000000000000000 ) ) ;
#519 = LINE ( 'NONE', #946, #499 ) ;
#520 = EDGE_CURVE ( 'NONE', #351, #831, #741, .T. ) ;
#521 = CIRCLE ( 'NONE', #1080, 0.06799999999999965794 ) ;
#522 = CIRCLE ( 'NONE', #1310, 0.1559999999999991116 ) ;
#523 = LINE ( 'NONE', #201, #1177 ) ;
#524 = VECTOR ( 'NONE', #58, 39.37007874015748143 ) ;
#525 = CARTESIAN_POINT ( 'NONE',  ( -17.25499999999999190, -2.342000000000000526, -0.1279999999999992255 ) ) ;
#526 = LINE ( 'NONE', #973, #980 ) ;
#527 = AXIS2_PLACEMENT_3D ( 'NONE', #505, #934, #1156 ) ;
#528 = FACE_BOUND ( 'NONE', #212, .T. ) ;
#529 = EDGE_CURVE ( 'NONE', #763, #131, #283, .T. ) ;
#530 = CARTESIAN_POINT ( 'NONE',  ( -17.40499999999999048, 2.220000000000000639, -0.7500000000000003331 ) ) ;
#531 = ORIENTED_EDGE ( 'NONE', *, *, #984, .T. ) ;
#532 = PLANE ( 'NONE',  #1283 ) ;
#533 = DIRECTION ( 'NONE',  ( 0.000000000000000000, -1.000000000000000000, 0.000000000000000000 ) ) ;
#534 = DIRECTION ( 'NONE',  ( 0.000000000000000000, 0.000000000000000000, -1.000000000000000000 ) ) ;
#535 = LINE ( 'NONE', #1186, #776 ) ;
#536 = EDGE_LOOP ( 'NONE', ( #1273, #421, #1042, #489 ) ) ;
#537 = CARTESIAN_POINT ( 'NONE',  ( -17.25499999999999190, -2.219999999999999751, 0.000000000000000000 ) ) ;
#538 = CARTESIAN_POINT ( 'NONE',  ( -17.25499999999999190, -2.469999999999999751, -0.1279999999999986149 ) ) ;
#539 = ORIENTED_EDGE ( 'NONE', *, *, #813, .F. ) ;
#540 = DIRECTION ( 'NONE',  ( 1.000000000000000000, -0.000000000000000000, 0.000000000000000000 ) ) ;
#541 = ORIENTED_EDGE ( 'NONE', *, *, #913, .T. ) ;
#542 = VECTOR ( 'NONE', #493, 39.37007874015748143 ) ;
#543 = PRODUCT_DEFINITION_CONTEXT ( 'detailed design', #1376, 'design' ) ;
#544 = AXIS2_PLACEMENT_3D ( 'NONE', #810, #1138, #170 ) ;
#545 = ADVANCED_FACE ( 'NONE', ( #901 ), #1245, .F. ) ;
#546 = CARTESIAN_POINT ( 'NONE',  ( 16.90900000000000603, 1.910449006669883105E-17, 0.000000000000000000 ) ) ;
#547 = PLANE ( 'NONE',  #815 ) ;
#548 = DIRECTION ( 'NONE',  ( 0.000000000000000000, -1.000000000000000000, 0.000000000000000000 ) ) ;
#549 = PLANE ( 'NONE',  #409 ) ;
#550 = DIRECTION ( 'NONE',  ( -1.000000000000000000, -8.741913579725621789E-15, 0.000000000000000000 ) ) ;
#551 = ORIENTED_EDGE ( 'NONE', *, *, #661, .T. ) ;
#552 = ORIENTED_EDGE ( 'NONE', *, *, #81, .T. ) ;
#553 = CARTESIAN_POINT ( 'NONE',  ( -17.25499999999999190, -2.342000000000000526, -0.1279999999999992255 ) ) ;
#554 = LINE ( 'NONE', #220, #1020 ) ;
#555 = LINE ( 'NONE', #895, #504 ) ;
#556 = VERTEX_POINT ( 'NONE', #166 ) ;
#557 = LINE ( 'NONE', #827, #542 ) ;
#558 = VERTEX_POINT ( 'NONE', #639 ) ;
#559 = CARTESIAN_POINT ( 'NONE',  ( 17.25500000000000966, -2.469999999999999751, -0.7500000000000003331 ) ) ;
#560 = FACE_OUTER_BOUND ( 'NONE', #889, .T. ) ;
#561 = PLANE ( 'NONE',  #322 ) ;
#562 = ORIENTED_EDGE ( 'NONE', *, *, #1160, .F. ) ;
#563 = EDGE_CURVE ( 'NONE', #24, #169, #774, .T. ) ;
#564 = ORIENTED_EDGE ( 'NONE', *, *, #520, .T. ) ;
#565 = AXIS2_PLACEMENT_3D ( 'NONE', #964, #213, #655 ) ;
#566 = EDGE_LOOP ( 'NONE', ( #44, #32, #189, #320 ) ) ;
#567 = AXIS2_PLACEMENT_3D ( 'NONE', #630, #754, #1171 ) ;
#568 = DIRECTION ( 'NONE',  ( 0.000000000000000000, 0.000000000000000000, -1.000000000000000000 ) ) ;
#569 = DIRECTION ( 'NONE',  ( 0.000000000000000000, 0.000000000000000000, 1.000000000000000000 ) ) ;
#570 = CARTESIAN_POINT ( 'NONE',  ( 17.40500000000000824, 0.000000000000000000, 5.533738955247726203E-14 ) ) ;
#571 = VECTOR ( 'NONE', #614, 39.37007874015748143 ) ;
#572 = DIRECTION ( 'NONE',  ( -0.000000000000000000, -1.000000000000000000, -0.000000000000000000 ) ) ;
#573 = ADVANCED_FACE ( 'NONE', ( #323 ), #103, .F. ) ;
#574 = PRODUCT_DEFINITION_FORMATION_WITH_SPECIFIED_SOURCE ( 'ANY', '', #970, .NOT_KNOWN. ) ;
#575 = ORIENTED_EDGE ( 'NONE', *, *, #399, .T. ) ;
#576 = EDGE_LOOP ( 'NONE', ( #336, #379, #1065, #18 ) ) ;
#577 = CARTESIAN_POINT ( 'NONE',  ( 16.90900000000000603, 1.910449006669883105E-17, -0.05999999999999999778 ) ) ;
#578 = DIRECTION ( 'NONE',  ( 0.000000000000000000, 3.167359992654216647E-15, -1.000000000000000000 ) ) ;
#579 = DIRECTION ( 'NONE',  ( 0.000000000000000000, 1.000000000000000000, 0.000000000000000000 ) ) ;
#580 = DIRECTION ( 'NONE',  ( 1.000000000000000000, -4.971413985145003163E-32, -1.569576554820030418E-17 ) ) ;
#581 = ORIENTED_EDGE ( 'NONE', *, *, #152, .F. ) ;
#582 = CARTESIAN_POINT ( 'NONE',  ( 17.25500000000001322, 2.220000000000000195, -0.7500000000000003331 ) ) ;
#583 = EDGE_CURVE ( 'NONE', #1217, #176, #523, .T. ) ;
#584 = CARTESIAN_POINT ( 'NONE',  ( -17.25499999999999190, -2.469999999999999751, -0.1279999999999986149 ) ) ;
#585 = DIRECTION ( 'NONE',  ( 0.000000000000000000, 1.000000000000000000, 2.276539994720233351E-15 ) ) ;
#586 = CARTESIAN_POINT ( 'NONE',  ( 17.25500000000000966, -2.469999999999999751, -0.7500000000000003331 ) ) ;
#587 = ORIENTED_EDGE ( 'NONE', *, *, #122, .F. ) ;
#588 = AXIS2_PLACEMENT_3D ( 'NONE', #553, #244, #568 ) ;
#589 = LENGTH_MEASURE_WITH_UNIT ( LENGTH_MEASURE( 0.02539999999999999897 ), #598 );
#590 = ADVANCED_FACE ( 'NONE', ( #420 ), #659, .F. ) ;
#591 = VECTOR ( 'NONE', #456, 39.37007874015748143 ) ;
#592 = DIRECTION ( 'NONE',  ( 0.000000000000000000, -1.000000000000000000, -0.000000000000000000 ) ) ;
#593 = AXIS2_PLACEMENT_3D ( 'NONE', #1115, #143, #1324 ) ;
#594 = CARTESIAN_POINT ( 'NONE',  ( 17.25500000000003098, 1.508417188181658864E-13, -0.05999999999999999778 ) ) ;
#595 = ORIENTED_EDGE ( 'NONE', *, *, #688, .F. ) ;
#596 = AXIS2_PLACEMENT_3D ( 'NONE', #46, #278, #175 ) ;
#597 = EDGE_LOOP ( 'NONE', ( #923, #161, #289, #1071 ) ) ;
#598 =( LENGTH_UNIT ( ) NAMED_UNIT ( * ) SI_UNIT ( $, .METRE. ) );
#599 = ORIENTED_EDGE ( 'NONE', *, *, #1354, .T. ) ;
#600 = LINE ( 'NONE', #292, #571 ) ;
#601 = ADVANCED_FACE ( 'NONE', ( #310 ), #1083, .F. ) ;
#602 = FACE_OUTER_BOUND ( 'NONE', #967, .T. ) ;
#603 = ORIENTED_EDGE ( 'NONE', *, *, #824, .F. ) ;
#604 = VERTEX_POINT ( 'NONE', #853 ) ;
#605 = VERTEX_POINT ( 'NONE', #98 ) ;
#606 = DIRECTION ( 'NONE',  ( 0.000000000000000000, 1.000000000000000000, 0.000000000000000000 ) ) ;
#607 = DIRECTION ( 'NONE',  ( -0.000000000000000000, 1.000000000000000000, -0.000000000000000000 ) ) ;
#608 = EDGE_CURVE ( 'NONE', #609, #1129, #961, .T. ) ;
#609 = VERTEX_POINT ( 'NONE', #334 ) ;
#610 = LINE ( 'NONE', #393, #616 ) ;
#611 = EDGE_LOOP ( 'NONE', ( #847, #300, #1142, #234 ) ) ;
#612 = CARTESIAN_POINT ( 'NONE',  ( 17.25500000000000966, -2.342000000000000526, -0.1279999999999992255 ) ) ;
#613 = ORIENTED_EDGE ( 'NONE', *, *, #451, .F. ) ;
#614 = DIRECTION ( 'NONE',  ( -1.000000000000000000, -1.821231995776184945E-15, 0.000000000000000000 ) ) ;
#615 = VECTOR ( 'NONE', #345, 39.37007874015748143 ) ;
#616 = VECTOR ( 'NONE', #516, 39.37007874015748143 ) ;
#617 = CARTESIAN_POINT ( 'NONE',  ( -17.40499999999999048, -2.219999999999999751, -0.7500000000000003331 ) ) ;
#618 = ADVANCED_FACE ( 'NONE', ( #444 ), #1277, .T. ) ;
#619 = EDGE_LOOP ( 'NONE', ( #127, #721, #12, #784 ) ) ;
#620 = VECTOR ( 'NONE', #142, 39.37007874015748143 ) ;
#621 = ORIENTED_EDGE ( 'NONE', *, *, #653, .T. ) ;
#622 = LINE ( 'NONE', #1055, #228 ) ;
#623 = DIRECTION ( 'NONE',  ( -1.000000000000000000, -1.491424195543501168E-31, 4.708729664460091253E-17 ) ) ;
#624 = DIRECTION ( 'NONE',  ( 1.000000000000000000, 0.000000000000000000, 0.000000000000000000 ) ) ;
#625 = EDGE_LOOP ( 'NONE', ( #1384, #1360, #1235, #575 ) ) ;
#626 = ADVANCED_FACE ( 'NONE', ( #986 ), #762, .F. ) ;
#627 = DIRECTION ( 'NONE',  ( 0.000000000000000000, -1.000000000000000000, 0.000000000000000000 ) ) ;
#628 = CARTESIAN_POINT ( 'NONE',  ( 17.34500000000000952, -2.219999999999998863, -0.1280000000000003912 ) ) ;
#629 = LINE ( 'NONE', #513, #1113 ) ;
#630 = CARTESIAN_POINT ( 'NONE',  ( -17.33792893218812736, -2.342000000000000526, -0.1279999999999992255 ) ) ;
#631 = VERTEX_POINT ( 'NONE', #1070 ) ;
#632 = FACE_OUTER_BOUND ( 'NONE', #306, .T. ) ;
#633 = PLANE ( 'NONE',  #883 ) ;
#634 = PLANE ( 'NONE',  #367 ) ;
#635 = EDGE_CURVE ( 'NONE', #604, #36, #975, .T. ) ;
#636 = VECTOR ( 'NONE', #649, 39.37007874015748143 ) ;
#637 = ORIENTED_EDGE ( 'NONE', *, *, #216, .F. ) ;
#638 = AXIS2_PLACEMENT_3D ( 'NONE', #1197, #346, #578 ) ;
#639 = CARTESIAN_POINT ( 'NONE',  ( 17.34500000000000952, 2.220000000000000195, -0.1280000000000003912 ) ) ;
#640 = ORIENTED_EDGE ( 'NONE', *, *, #743, .F. ) ;
#641 = CARTESIAN_POINT ( 'NONE',  ( -17.25499999999999190, 2.410000000000000586, 7.823379181855917436E-15 ) ) ;
#642 = LINE ( 'NONE', #1068, #1224 ) ;
#643 = CARTESIAN_POINT ( 'NONE',  ( 17.25500000000000966, -2.470000000000001972, -0.7500000000000001110 ) ) ;
#644 = CIRCLE ( 'NONE', #116, 0.1280000000000003912 ) ;
#645 = ORIENTED_EDGE ( 'NONE', *, *, #386, .F. ) ;
#646 = EDGE_CURVE ( 'NONE', #36, #604, #364, .T. ) ;
#647 = DIRECTION ( 'NONE',  ( 0.000000000000000000, 1.000000000000000000, 0.000000000000000000 ) ) ;
#648 = ORIENTED_EDGE ( 'NONE', *, *, #267, .T. ) ;
#649 = DIRECTION ( 'NONE',  ( 8.741913579725621789E-15, -1.000000000000000000, 0.000000000000000000 ) ) ;
#650 = LINE ( 'NONE', #206, #684 ) ;
#651 = DIRECTION ( 'NONE',  ( -1.000000000000000000, -8.741913579725621789E-15, 0.000000000000000000 ) ) ;
#652 = CARTESIAN_POINT ( 'NONE',  ( 17.40500000000000824, 2.220000000000000639, -0.7500000000000003331 ) ) ;
#653 = EDGE_CURVE ( 'NONE', #609, #711, #1281, .T. ) ;
#654 = ORIENTED_EDGE ( 'NONE', *, *, #486, .F. ) ;
#655 = DIRECTION ( 'NONE',  ( 0.000000000000000000, 3.167359992654216647E-15, -1.000000000000000000 ) ) ;
#656 = DIRECTION ( 'NONE',  ( -1.000000000000000000, -0.000000000000000000, -0.000000000000000000 ) ) ;
#657 = CARTESIAN_POINT ( 'NONE',  ( -17.40499999999999048, -2.219999999999999751, -0.1280000000000002525 ) ) ;
#658 = AXIS2_PLACEMENT_3D ( 'NONE', #88, #952, #850 ) ;
#659 = PLANE ( 'NONE',  #1352 ) ;
#660 = ORIENTED_EDGE ( 'NONE', *, *, #718, .F. ) ;
#661 = EDGE_CURVE ( 'NONE', #474, #714, #535, .T. ) ;
#662 = AXIS2_PLACEMENT_3D ( 'NONE', #586, #350, #129 ) ;
#663 = CARTESIAN_POINT ( 'NONE',  ( 17.25500000000000966, -2.342000000000000526, -0.05999999999999958145 ) ) ;
#664 = DIRECTION ( 'NONE',  ( 0.000000000000000000, 0.000000000000000000, 1.000000000000000000 ) ) ;
#665 = DIRECTION ( 'NONE',  ( 0.000000000000000000, 0.000000000000000000, 1.000000000000000000 ) ) ;
#666 = AXIS2_PLACEMENT_3D ( 'NONE', #902, #874, #333 ) ;
#667 = FACE_OUTER_BOUND ( 'NONE', #769, .T. ) ;
#668 = EDGE_LOOP ( 'NONE', ( #705, #551, #1053, #820 ) ) ;
#669 = DIRECTION ( 'NONE',  ( 0.000000000000000000, -1.000000000000000000, 0.000000000000000000 ) ) ;
#670 = CARTESIAN_POINT ( 'NONE',  ( -17.27699999999999037, -2.219999999999999751, 0.000000000000000000 ) ) ;
#671 = CARTESIAN_POINT ( 'NONE',  ( -17.40499999999999048, 0.000000000000000000, 5.533738955247721155E-14 ) ) ;
#672 = ADVANCED_FACE ( 'NONE', ( #1389 ), #217, .F. ) ;
#673 = EDGE_LOOP ( 'NONE', ( #494, #1276, #1150, #1311 ) ) ;
#674 = VERTEX_POINT ( 'NONE', #846 ) ;
#675 = ORIENTED_EDGE ( 'NONE', *, *, #563, .T. ) ;
#676 = DIRECTION ( 'NONE',  ( 0.000000000000000000, 0.000000000000000000, -1.000000000000000000 ) ) ;
#677 = DIRECTION ( 'NONE',  ( 0.000000000000000000, -1.000000000000000000, 3.491481338843134539E-15 ) ) ;
#678 = CARTESIAN_POINT ( 'NONE',  ( 17.34500000000000952, 2.470000000000000639, -0.1280000000000003912 ) ) ;
#679 = EDGE_LOOP ( 'NONE', ( #174, #1010 ) ) ;
#680 = DIRECTION ( 'NONE',  ( -1.000000000000000000, 0.000000000000000000, -3.167359992654216647E-15 ) ) ;
#681 = EDGE_CURVE ( 'NONE', #1180, #631, #1108, .T. ) ;
#682 = ORIENTED_EDGE ( 'NONE', *, *, #733, .T. ) ;
#683 = VECTOR ( 'NONE', #886, 39.37007874015748143 ) ;
#684 = VECTOR ( 'NONE', #89, 39.37007874015748143 ) ;
#685 = CARTESIAN_POINT ( 'NONE',  ( -17.25499999999999190, -2.219999999999999751, -0.06000000000000004635 ) ) ;
#686 = DIRECTION ( 'NONE',  ( -3.167359992654216647E-15, 0.000000000000000000, 1.000000000000000000 ) ) ;
#687 = AXIS2_PLACEMENT_3D ( 'NONE', #996, #442, #773 ) ;
#688 = EDGE_CURVE ( 'NONE', #950, #496, #861, .T. ) ;
#689 =( GEOMETRIC_REPRESENTATION_CONTEXT ( 3 ) GLOBAL_UNCERTAINTY_ASSIGNED_CONTEXT ( ( #118 ) ) GLOBAL_UNIT_ASSIGNED_CONTEXT ( ( #938, #395, #808 ) ) REPRESENTATION_CONTEXT ( 'NONE', 'WORKASPACE' ) );
#690 = LINE ( 'NONE', #697, #114 ) ;
#691 = ADVANCED_FACE ( 'NONE', ( #223 ), #1106, .F. ) ;
#692 = APPLICATION_CONTEXT ( 'automotive_design' ) ;
#693 = ORIENTED_EDGE ( 'NONE', *, *, #1013, .F. ) ;
#694 = FACE_OUTER_BOUND ( 'NONE', #1172, .T. ) ;
#695 = DIRECTION ( 'NONE',  ( 0.000000000000000000, -1.000000000000000000, 0.000000000000000000 ) ) ;
#696 = PRESENTATION_STYLE_ASSIGNMENT (( #879 ) ) ;
#697 = CARTESIAN_POINT ( 'NONE',  ( 16.90900000000000603, 1.910449006669871395E-17, -0.05999999999999999778 ) ) ;
#698 = ORIENTED_EDGE ( 'NONE', *, *, #209, .T. ) ;
#699 = ADVANCED_FACE ( 'NONE', ( #1097 ), #1233, .F. ) ;
#700 = ORIENTED_EDGE ( 'NONE', *, *, #399, .F. ) ;
#701 = DIRECTION ( 'NONE',  ( 0.000000000000000000, -1.000000000000000000, 0.000000000000000000 ) ) ;
#702 = CARTESIAN_POINT ( 'NONE',  ( -17.27699999999999037, 2.220000000000000639, -0.1280000000000006133 ) ) ;
#703 = LINE ( 'NONE', #1127, #524 ) ;
#704 = EDGE_CURVE ( 'NONE', #131, #1217, #94, .T. ) ;
#705 = ORIENTED_EDGE ( 'NONE', *, *, #1167, .T. ) ;
#706 = AXIS2_PLACEMENT_3D ( 'NONE', #325, #308, #518 ) ;
#707 = AXIS2_PLACEMENT_3D ( 'NONE', #1300, #230, #14 ) ;
#708 = ORIENTED_EDGE ( 'NONE', *, *, #226, .F. ) ;
#709 = CARTESIAN_POINT ( 'NONE',  ( -17.40499999999999048, 2.470000000000001084, -0.1279999999999991145 ) ) ;
#710 = DIRECTION ( 'NONE',  ( -0.000000000000000000, -0.000000000000000000, 1.000000000000000000 ) ) ;
#711 = VERTEX_POINT ( 'NONE', #235 ) ;
#712 = DIRECTION ( 'NONE',  ( 1.000000000000000000, -0.000000000000000000, 0.000000000000000000 ) ) ;
#713 = VECTOR ( 'NONE', #579, 39.37007874015748143 ) ;
#714 = VERTEX_POINT ( 'NONE', #790 ) ;
#715 = CARTESIAN_POINT ( 'NONE',  ( -17.40499999999999403, 0.000000000000000000, -0.7500000000000001110 ) ) ;
#716 = ORIENTED_EDGE ( 'NONE', *, *, #1288, .F. ) ;
#717 = LINE ( 'NONE', #498, #75 ) ;
#718 = EDGE_CURVE ( 'NONE', #195, #36, #690, .T. ) ;
#719 = PLANE ( 'NONE',  #431 ) ;
#720 = ORIENTED_EDGE ( 'NONE', *, *, #635, .T. ) ;
#721 = ORIENTED_EDGE ( 'NONE', *, *, #704, .T. ) ;
#722 = LINE ( 'NONE', #61, #783 ) ;
#723 = ORIENTED_EDGE ( 'NONE', *, *, #1258, .T. ) ;
#724 = LINE ( 'NONE', #186, #435 ) ;
#725 = ADVANCED_FACE ( 'NONE', ( #667 ), #150, .F. ) ;
#726 = FACE_OUTER_BOUND ( 'NONE', #794, .T. ) ;
#727 = EDGE_LOOP ( 'NONE', ( #1161, #80, #256, #389 ) ) ;
#728 = DIRECTION ( 'NONE',  ( 0.000000000000000000, -1.000000000000000000, -3.491481338843134539E-15 ) ) ;
#729 = LINE ( 'NONE', #1239, #862 ) ;
#730 = VECTOR ( 'NONE', #887, 39.37007874015748143 ) ;
#731 = VECTOR ( 'NONE', #647, 39.37007874015748143 ) ;
#732 = LINE ( 'NONE', #594, #908 ) ;
#733 = EDGE_CURVE ( 'NONE', #899, #803, #557, .T. ) ;
#734 = ADVANCED_FACE ( 'NONE', ( #726 ), #942, .F. ) ;
#735 = ORIENTED_EDGE ( 'NONE', *, *, #255, .F. ) ;
#736 = CIRCLE ( 'NONE', #210, 0.1279999999999996696 ) ;
#737 = CYLINDRICAL_SURFACE ( 'NONE', #859, 0.06799999999999965794 ) ;
#738 = DIRECTION ( 'NONE',  ( 0.000000000000000000, -3.491481338843134539E-15, 1.000000000000000000 ) ) ;
#739 = LINE ( 'NONE', #96, #1270 ) ;
#740 = FACE_OUTER_BOUND ( 'NONE', #117, .T. ) ;
#741 = LINE ( 'NONE', #1165, #997 ) ;
#742 = ORIENTED_EDGE ( 'NONE', *, *, #688, .T. ) ;
#743 = EDGE_CURVE ( 'NONE', #176, #1003, #156, .T. ) ;
#744 = DIRECTION ( 'NONE',  ( -0.000000000000000000, -0.000000000000000000, 1.000000000000000000 ) ) ;
#745 = DIRECTION ( 'NONE',  ( 3.642463991552422744E-15, -1.000000000000000000, 0.000000000000000000 ) ) ;
#746 = DIRECTION ( 'NONE',  ( -0.000000000000000000, 1.000000000000000000, -0.000000000000000000 ) ) ;
#747 = VERTEX_POINT ( 'NONE', #1240 ) ;
#748 = CARTESIAN_POINT ( 'NONE',  ( 17.27700000000000813, -2.219999999999998863, -0.1280000000000006133 ) ) ;
#749 = ORIENTED_EDGE ( 'NONE', *, *, #939, .T. ) ;
#750 = CARTESIAN_POINT ( 'NONE',  ( -17.34499999999999176, 2.220000000000000639, -0.1280000000000003912 ) ) ;
#751 = FACE_OUTER_BOUND ( 'NONE', #38, .T. ) ;
#752 = VECTOR ( 'NONE', #352, 39.37007874015748143 ) ;
#753 = AXIS2_PLACEMENT_3D ( 'NONE', #1289, #550, #115 ) ;
#754 = DIRECTION ( 'NONE',  ( -1.000000000000000000, 0.000000000000000000, 0.000000000000000000 ) ) ;
#755 = VECTOR ( 'NONE', #623, 39.37007874015748143 ) ;
#756 = ORIENTED_EDGE ( 'NONE', *, *, #461, .T. ) ;
#757 = FACE_OUTER_BOUND ( 'NONE', #812, .T. ) ;
#758 = LINE ( 'NONE', #1183, #477 ) ;
#759 = DIRECTION ( 'NONE',  ( -1.000000000000000000, 0.000000000000000000, -2.276539994720181681E-15 ) ) ;
#760 = VECTOR ( 'NONE', #839, 39.37007874015748143 ) ;
#761 = ADVANCED_FACE ( 'NONE', ( #1038 ), #719, .F. ) ;
#762 = CYLINDRICAL_SURFACE ( 'NONE', #181, 0.1559999999999991116 ) ;
#763 = VERTEX_POINT ( 'NONE', #1369 ) ;
#764 = DIRECTION ( 'NONE',  ( 1.000000000000000000, 0.000000000000000000, -3.167359992654216647E-15 ) ) ;
#765 = CARTESIAN_POINT ( 'NONE',  ( -17.27699999999999037, -2.219999999999999751, -0.1280000000000006133 ) ) ;
#766 = DIRECTION ( 'NONE',  ( 1.000000000000000000, -0.000000000000000000, 0.000000000000000000 ) ) ;
#767 = EDGE_CURVE ( 'NONE', #605, #410, #732, .T. ) ;
#768 = CARTESIAN_POINT ( 'NONE',  ( 17.25500000000000966, 2.470000000000000639, -0.7500000000000003331 ) ) ;
#769 = EDGE_LOOP ( 'NONE', ( #963, #1366, #43, #1202 ) ) ;
#770 = DIRECTION ( 'NONE',  ( -3.167359992654216647E-15, 0.000000000000000000, -1.000000000000000000 ) ) ;
#771 = CARTESIAN_POINT ( 'NONE',  ( 17.40500000000000824, -2.470000000000001972, -0.7500000000000001110 ) ) ;
#772 = DIRECTION ( 'NONE',  ( -0.000000000000000000, 1.000000000000000000, 0.000000000000000000 ) ) ;
#773 = DIRECTION ( 'NONE',  ( 0.000000000000000000, -1.000000000000000000, 3.201384367575312521E-15 ) ) ;
#774 = LINE ( 'NONE', #877, #1151 ) ;
#775 = ORIENTED_EDGE ( 'NONE', *, *, #1118, .T. ) ;
#776 = VECTOR ( 'NONE', #428, 39.37007874015748143 ) ;
#777 = ADVANCED_FACE ( 'NONE', ( #1025 ), #179, .F. ) ;
#778 = LINE ( 'NONE', #1015, #1018 ) ;
#779 = LINE ( 'NONE', #1205, #591 ) ;
#780 = CARTESIAN_POINT ( 'NONE',  ( -17.06500000000000128, 0.000000000000000000, -0.05999999999999999778 ) ) ;
#781 = ORIENTED_EDGE ( 'NONE', *, *, #1377, .T. ) ;
#782 = FACE_OUTER_BOUND ( 'NONE', #56, .T. ) ;
#783 = VECTOR ( 'NONE', #1144, 39.37007874015748143 ) ;
#784 = ORIENTED_EDGE ( 'NONE', *, *, #434, .T. ) ;
#785 = EDGE_CURVE ( 'NONE', #1298, #1236, #272, .T. ) ;
#786 = DIRECTION ( 'NONE',  ( 0.000000000000000000, 0.000000000000000000, 1.000000000000000000 ) ) ;
#787 = DIRECTION ( 'NONE',  ( 0.000000000000000000, 3.491481338843134539E-15, 1.000000000000000000 ) ) ;
#788 = FACE_OUTER_BOUND ( 'NONE', #1166, .T. ) ;
#789 = ORIENTED_EDGE ( 'NONE', *, *, #1118, .F. ) ;
#790 = CARTESIAN_POINT ( 'NONE',  ( -17.27699999999999037, -2.219999999999999751, -0.06000000000000121902 ) ) ;
#791 = ORIENTED_EDGE ( 'NONE', *, *, #743, .T. ) ;
#792 = DIRECTION ( 'NONE',  ( -2.768878733166354631E-29, 3.167359992654216647E-15, -1.000000000000000000 ) ) ;
#793 = DIRECTION ( 'NONE',  ( 0.000000000000000000, 0.000000000000000000, 1.000000000000000000 ) ) ;
#794 = EDGE_LOOP ( 'NONE', ( #362, #802, #1033, #242 ) ) ;
#795 = AXIS2_PLACEMENT_3D ( 'NONE', #909, #250, #676 ) ;
#796 = AXIS2_PLACEMENT_3D ( 'NONE', #437, #211, #414 ) ;
#797 = CARTESIAN_POINT ( 'NONE',  ( 17.40500000000000824, 2.220000000000000639, -0.1280000000000002525 ) ) ;
#798 = DIRECTION ( 'NONE',  ( -1.000000000000000000, 0.000000000000000000, -3.167359992654216647E-15 ) ) ;
#799 = ORIENTED_EDGE ( 'NONE', *, *, #767, .F. ) ;
#800 = EDGE_CURVE ( 'NONE', #491, #1236, #487, .T. ) ;
#801 = CIRCLE ( 'NONE', #1066, 0.1279999999999993920 ) ;
#802 = ORIENTED_EDGE ( 'NONE', *, *, #486, .T. ) ;
#803 = VERTEX_POINT ( 'NONE', #1350 ) ;
#804 = FILL_AREA_STYLE_COLOUR ( '', #1041 ) ;
#805 = CARTESIAN_POINT ( 'NONE',  ( -17.25499999999999190, 2.470000000000000639, -0.7500000000000003331 ) ) ;
#806 = ADVANCED_FACE ( 'NONE', ( #391 ), #1158, .F. ) ;
#807 = ORIENTED_EDGE ( 'NONE', *, *, #415, .F. ) ;
#808 =( NAMED_UNIT ( * ) SI_UNIT ( $, .STERADIAN. ) SOLID_ANGLE_UNIT ( ) );
#809 = CARTESIAN_POINT ( 'NONE',  ( 17.25500000000000966, -2.342000000000000526, 0.000000000000000000 ) ) ;
#810 = CARTESIAN_POINT ( 'NONE',  ( -17.25499999999999190, 2.342000000000001414, -0.1279999999999981708 ) ) ;
#811 = FACE_OUTER_BOUND ( 'NONE', #151, .T. ) ;
#812 = EDGE_LOOP ( 'NONE', ( #645, #1248, #603, #1090 ) ) ;
#813 = EDGE_CURVE ( 'NONE', #992, #87, #383, .T. ) ;
#814 = CIRCLE ( 'NONE', #1351, 0.06799999999999938038 ) ;
#815 = AXIS2_PLACEMENT_3D ( 'NONE', #1100, #133, #1001 ) ;
#816 = ORIENTED_EDGE ( 'NONE', *, *, #1232, .T. ) ;
#817 = CARTESIAN_POINT ( 'NONE',  ( 17.40500000000000824, 2.220000000000000639, 0.000000000000000000 ) ) ;
#818 = VECTOR ( 'NONE', #585, 39.37007874015748143 ) ;
#819 = LINE ( 'NONE', #1253, #841 ) ;
#820 = ORIENTED_EDGE ( 'NONE', *, *, #835, .T. ) ;
#821 = AXIS2_PLACEMENT_3D ( 'NONE', #702, #1126, #534 ) ;
#822 = ORIENTED_EDGE ( 'NONE', *, *, #583, .T. ) ;
#823 = LINE ( 'NONE', #1028, #55 ) ;
#824 = EDGE_CURVE ( 'NONE', #1125, #491, #819, .T. ) ;
#825 = EDGE_LOOP ( 'NONE', ( #1317, #159, #1107, #22 ) ) ;
#826 = DIRECTION ( 'NONE',  ( 1.000000000000000000, 3.642463991552423533E-15, -0.000000000000000000 ) ) ;
#827 = CARTESIAN_POINT ( 'NONE',  ( -17.40499999999999048, 2.410000000000003251, -0.7500000000000003331 ) ) ;
#828 = DIRECTION ( 'NONE',  ( 0.000000000000000000, 0.000000000000000000, 1.000000000000000000 ) ) ;
#829 = ORIENTED_EDGE ( 'NONE', *, *, #903, .T. ) ;
#830 = CARTESIAN_POINT ( 'NONE',  ( 17.25500000000000966, -2.469999999999999751, 0.000000000000000000 ) ) ;
#831 = VERTEX_POINT ( 'NONE', #70 ) ;
#832 = DIRECTION ( 'NONE',  ( -1.000000000000000000, -1.821231995776184945E-15, 0.000000000000000000 ) ) ;
#833 = CYLINDRICAL_SURFACE ( 'NONE', #527, 0.1280000000000003912 ) ;
#834 = CARTESIAN_POINT ( 'NONE',  ( -17.40499999999999048, 2.220000000000000639, 0.000000000000000000 ) ) ;
#835 = EDGE_CURVE ( 'NONE', #266, #356, #506, .T. ) ;
#836 = VECTOR ( 'NONE', #1067, 39.37007874015748143 ) ;
#837 = ORIENTED_EDGE ( 'NONE', *, *, #1247, .F. ) ;
#838 = CARTESIAN_POINT ( 'NONE',  ( 17.40500000000000824, -2.219999999999998863, -0.7500000000000003331 ) ) ;
#839 = DIRECTION ( 'NONE',  ( 0.000000000000000000, -1.000000000000000000, 3.491481338843134539E-15 ) ) ;
#840 = AXIS2_PLACEMENT_3D ( 'NONE', #765, #35, #880 ) ;
#841 = VECTOR ( 'NONE', #935, 39.37007874015748143 ) ;
#842 = ADVANCED_FACE ( 'NONE', ( #602 ), #85, .F. ) ;
#843 = VERTEX_POINT ( 'NONE', #949 ) ;
#844 = AXIS2_PLACEMENT_3D ( 'NONE', #671, #347, #252 ) ;
#845 = DIRECTION ( 'NONE',  ( 0.000000000000000000, -2.276539994720275949E-14, -1.000000000000000000 ) ) ;
#846 = CARTESIAN_POINT ( 'NONE',  ( 17.25500000000000966, -2.219999999999998863, 0.000000000000000000 ) ) ;
#847 = ORIENTED_EDGE ( 'NONE', *, *, #470, .T. ) ;
#848 = PRODUCT_CONTEXT ( 'NONE', #692, 'mechanical' ) ;
#849 = EDGE_CURVE ( 'NONE', #609, #1338, #703, .T. ) ;
#850 = DIRECTION ( 'NONE',  ( 8.741913579725621789E-15, -1.000000000000000000, 0.000000000000000000 ) ) ;
#851 = CARTESIAN_POINT ( 'NONE',  ( -17.06500000000000128, 0.000000000000000000, -0.05999999999999999778 ) ) ;
#852 = DIRECTION ( 'NONE',  ( -3.642463991552422744E-15, 1.000000000000000000, -0.000000000000000000 ) ) ;
#853 = CARTESIAN_POINT ( 'NONE',  ( 17.22100000000000364, 0.000000000000000000, 0.000000000000000000 ) ) ;
#854 = ORIENTED_EDGE ( 'NONE', *, *, #653, .F. ) ;
#855 = ADVANCED_FACE ( 'NONE', ( #811 ), #8, .T. ) ;
#856 = DIRECTION ( 'NONE',  ( 0.000000000000000000, 0.000000000000000000, -1.000000000000000000 ) ) ;
#857 = DIRECTION ( 'NONE',  ( -0.000000000000000000, -0.000000000000000000, 1.000000000000000000 ) ) ;
#858 = LINE ( 'NONE', #207, #413 ) ;
#859 = AXIS2_PLACEMENT_3D ( 'NONE', #1267, #933, #1162 ) ;
#860 = VECTOR ( 'NONE', #569, 39.37007874015748143 ) ;
#861 = LINE ( 'NONE', #768, #273 ) ;
#862 = VECTOR ( 'NONE', #1257, 39.37007874015748143 ) ;
#863 = ORIENTED_EDGE ( 'NONE', *, *, #520, .F. ) ;
#864 = CIRCLE ( 'NONE', #1203, 0.1559999999999991116 ) ;
#865 = LINE ( 'NONE', #1292, #253 ) ;
#866 = DIRECTION ( 'NONE',  ( -0.000000000000000000, -1.000000000000000000, -0.000000000000000000 ) ) ;
#867 = DIRECTION ( 'NONE',  ( -0.000000000000000000, -1.000000000000000000, -0.000000000000000000 ) ) ;
#868 = ADVANCED_FACE ( 'NONE', ( #740, #97, #528 ), #549, .T. ) ;
#869 = ORIENTED_EDGE ( 'NONE', *, *, #312, .F. ) ;
#870 = DIRECTION ( 'NONE',  ( 0.000000000000000000, 0.000000000000000000, 1.000000000000000000 ) ) ;
#871 = EDGE_LOOP ( 'NONE', ( #581, #905, #1135, #723 ) ) ;
#872 = DIRECTION ( 'NONE',  ( -3.491481338843134539E-15, 0.000000000000000000, 1.000000000000000000 ) ) ;
#873 = CARTESIAN_POINT ( 'NONE',  ( 17.06500000000000483, 0.000000000000000000, -0.05999999999999999778 ) ) ;
#874 = DIRECTION ( 'NONE',  ( 1.000000000000000000, -0.000000000000000000, -0.000000000000000000 ) ) ;
#875 = LINE ( 'NONE', #37, #818 ) ;
#876 = ADVANCED_FACE ( 'NONE', ( #1215 ), #260, .T. ) ;
#877 = CARTESIAN_POINT ( 'NONE',  ( 17.25500000000000966, -2.342000000000000526, 0.000000000000000000 ) ) ;
#878 = ORIENTED_EDGE ( 'NONE', *, *, #514, .F. ) ;
#879 = SURFACE_STYLE_USAGE ( .BOTH. , #446 ) ;
#880 = DIRECTION ( 'NONE',  ( 0.000000000000000000, 0.000000000000000000, 1.000000000000000000 ) ) ;
#881 = CARTESIAN_POINT ( 'NONE',  ( -17.40499999999999048, -2.219999999999999751, -0.7500000000000003331 ) ) ;
#882 = ADVANCED_FACE ( 'NONE', ( #450 ), #897, .F. ) ;
#883 = AXIS2_PLACEMENT_3D ( 'NONE', #1049, #745, #291 ) ;
#884 = ORIENTED_EDGE ( 'NONE', *, *, #415, .T. ) ;
#885 = VECTOR ( 'NONE', #1358, 39.37007874015748143 ) ;
#886 = DIRECTION ( 'NONE',  ( 0.000000000000000000, 4.553079989440346006E-15, -1.000000000000000000 ) ) ;
#887 = DIRECTION ( 'NONE',  ( -3.167359992654216647E-15, 0.000000000000000000, -1.000000000000000000 ) ) ;
#888 = FACE_OUTER_BOUND ( 'NONE', #668, .T. ) ;
#889 = EDGE_LOOP ( 'NONE', ( #945, #1029, #66, #863 ) ) ;
#890 = VECTOR ( 'NONE', #1387, 39.37007874015748143 ) ;
#891 = DIRECTION ( 'NONE',  ( 0.000000000000000000, -0.000000000000000000, -1.000000000000000000 ) ) ;
#892 = ORIENTED_EDGE ( 'NONE', *, *, #64, .T. ) ;
#893 = DIRECTION ( 'NONE',  ( 1.821231995776184945E-15, -1.000000000000000000, -0.000000000000000000 ) ) ;
#894 = CARTESIAN_POINT ( 'NONE',  ( 17.27700000000000813, -2.219999999999998863, -0.06000000000000121902 ) ) ;
#895 = CARTESIAN_POINT ( 'NONE',  ( -17.40499999999999048, 2.220000000000000639, -0.7500000000000003331 ) ) ;
#896 = ORIENTED_EDGE ( 'NONE', *, *, #81, .F. ) ;
#897 = PLANE ( 'NONE',  #593 ) ;
#898 = DIRECTION ( 'NONE',  ( 0.000000000000000000, 0.000000000000000000, -1.000000000000000000 ) ) ;
#899 = VERTEX_POINT ( 'NONE', #1309 ) ;
#900 = CARTESIAN_POINT ( 'NONE',  ( -17.27699999999999037, 2.220000000000000639, 0.000000000000000000 ) ) ;
#901 = FACE_OUTER_BOUND ( 'NONE', #929, .T. ) ;
#902 = CARTESIAN_POINT ( 'NONE',  ( 17.25500000000000966, -2.342000000000000526, -0.1279999999999992255 ) ) ;
#903 = EDGE_CURVE ( 'NONE', #1338, #747, #1103, .T. ) ;
#904 = CARTESIAN_POINT ( 'NONE',  ( 17.40500000000000824, -2.470000000000000195, -0.1279999999999991145 ) ) ;
#905 = ORIENTED_EDGE ( 'NONE', *, *, #461, .F. ) ;
#906 = STYLED_ITEM ( 'NONE', ( #696 ), #276 ) ;
#907 = EDGE_LOOP ( 'NONE', ( #284, #48, #1347, #1058 ) ) ;
#908 = VECTOR ( 'NONE', #1134, 39.37007874015748143 ) ;
#909 = CARTESIAN_POINT ( 'NONE',  ( -17.25499999999999190, 2.470000000000000639, -0.7500000000000003331 ) ) ;
#910 = DIRECTION ( 'NONE',  ( 1.000000000000000000, 1.821231995776184945E-15, 0.000000000000000000 ) ) ;
#911 = ADVANCED_FACE ( 'NONE', ( #782 ), #1121, .F. ) ;
#912 = VECTOR ( 'NONE', #910, 39.37007874015748143 ) ;
#913 = EDGE_CURVE ( 'NONE', #351, #1343, #875, .T. ) ;
#914 = ORIENTED_EDGE ( 'NONE', *, *, #849, .T. ) ;
#915 = DIRECTION ( 'NONE',  ( 8.741913579725621789E-15, -1.000000000000000000, 0.000000000000000000 ) ) ;
#916 = FACE_OUTER_BOUND ( 'NONE', #1032, .T. ) ;
#917 = DIRECTION ( 'NONE',  ( -1.000000000000000000, -1.821231995776184945E-15, 0.000000000000000000 ) ) ;
#918 = DIRECTION ( 'NONE',  ( 0.000000000000000000, 0.000000000000000000, -1.000000000000000000 ) ) ;
#919 = ADVANCED_FACE ( 'NONE', ( #1017 ), #467, .T. ) ;
#920 = VERTEX_POINT ( 'NONE', #233 ) ;
#921 = EDGE_LOOP ( 'NONE', ( #1227, #144, #478, #829 ) ) ;
#922 = CARTESIAN_POINT ( 'NONE',  ( -17.34499999999999176, 2.220000000000001084, -0.7500000000000003331 ) ) ;
#923 = ORIENTED_EDGE ( 'NONE', *, *, #1149, .F. ) ;
#924 = PLANE ( 'NONE',  #1178 ) ;
#925 = DIRECTION ( 'NONE',  ( 3.642463991552422744E-15, -1.000000000000000000, 0.000000000000000000 ) ) ;
#926 = ORIENTED_EDGE ( 'NONE', *, *, #1279, .F. ) ;
#927 = DIRECTION ( 'NONE',  ( 0.000000000000000000, 0.000000000000000000, -1.000000000000000000 ) ) ;
#928 = EDGE_CURVE ( 'NONE', #1027, #24, #381, .T. ) ;
#929 = EDGE_LOOP ( 'NONE', ( #914, #243, #290, #854 ) ) ;
#930 = CIRCLE ( 'NONE', #1105, 0.06799999999999965794 ) ;
#931 = CARTESIAN_POINT ( 'NONE',  ( -17.27699999999999037, 2.402928932188135303, -0.1280000000000006133 ) ) ;
#932 = AXIS2_PLACEMENT_3D ( 'NONE', #838, #1169, #832 ) ;
#933 = DIRECTION ( 'NONE',  ( 1.000000000000000000, 0.000000000000000000, -1.255444850029539102E-16 ) ) ;
#934 = DIRECTION ( 'NONE',  ( -0.000000000000000000, -1.000000000000000000, -0.000000000000000000 ) ) ;
#935 = DIRECTION ( 'NONE',  ( 3.167359992654216647E-15, 0.000000000000000000, 1.000000000000000000 ) ) ;
#936 = VECTOR ( 'NONE', #106, 39.37007874015748143 ) ;
#937 = ORIENTED_EDGE ( 'NONE', *, *, #386, .T. ) ;
#938 =( CONVERSION_BASED_UNIT ( 'INCH', #589 ) LENGTH_UNIT ( ) NAMED_UNIT ( #436 ) );
#939 = EDGE_CURVE ( 'NONE', #1238, #558, #341, .T. ) ;
#940 = VERTEX_POINT ( 'NONE', #63 ) ;
#941 = DIRECTION ( 'NONE',  ( 1.000000000000000000, 4.017423520094541693E-15, -9.792469830230445575E-15 ) ) ;
#942 = PLANE ( 'NONE',  #1332 ) ;
#943 = ORIENTED_EDGE ( 'NONE', *, *, #939, .F. ) ;
#944 = APPLICATION_PROTOCOL_DEFINITION ( 'draft international standard', 'automotive_design', 1998, #1376 ) ;
#945 = ORIENTED_EDGE ( 'NONE', *, *, #47, .F. ) ;
#946 = CARTESIAN_POINT ( 'NONE',  ( 17.25500000000000966, -2.219999999999998863, -0.7500000000000003331 ) ) ;
#947 = CARTESIAN_POINT ( 'NONE',  ( 17.25500000000000966, -2.470000000000001972, -0.7500000000000001110 ) ) ;
#948 = ADVANCED_FACE ( 'NONE', ( #1043 ), #492, .F. ) ;
#949 = CARTESIAN_POINT ( 'NONE',  ( 17.22100000000000364, 0.000000000000000000, -0.05999999999999999778 ) ) ;
#950 = VERTEX_POINT ( 'NONE', #390 ) ;
#951 = CIRCLE ( 'NONE', #294, 0.1279999999999996696 ) ;
#952 = DIRECTION ( 'NONE',  ( -1.000000000000000000, -8.741913579725621789E-15, 0.000000000000000000 ) ) ;
#953 = VECTOR ( 'NONE', #251, 39.37007874015748143 ) ;
#954 = VECTOR ( 'NONE', #77, 39.37007874015748143 ) ;
#955 = DIRECTION ( 'NONE',  ( -0.000000000000000000, 1.000000000000000000, -0.000000000000000000 ) ) ;
#956 = VERTEX_POINT ( 'NONE', #154 ) ;
#957 = AXIS2_PLACEMENT_3D ( 'NONE', #509, #196, #1152 ) ;
#958 = CARTESIAN_POINT ( 'NONE',  ( 17.34500000000000952, 2.220000000000000195, 5.512790067214670054E-14 ) ) ;
#959 = FACE_OUTER_BOUND ( 'NONE', #536, .T. ) ;
#960 = PLANE ( 'NONE',  #1357 ) ;
#961 = LINE ( 'NONE', #107, #137 ) ;
#962 = ADVANCED_FACE ( 'NONE', ( #1363 ), #924, .F. ) ;
#963 = ORIENTED_EDGE ( 'NONE', *, *, #363, .F. ) ;
#964 = CARTESIAN_POINT ( 'NONE',  ( 0.000000000000000000, 2.470000000000000639, 8.032868062186505753E-15 ) ) ;
#965 = CARTESIAN_POINT ( 'NONE',  ( 17.25500000000000966, 2.470000000000000639, -0.7500000000000003331 ) ) ;
#966 = CARTESIAN_POINT ( 'NONE',  ( -17.27699999999999037, 2.402928932188135303, -0.1280000000000006133 ) ) ;
#967 = EDGE_LOOP ( 'NONE', ( #11, #541, #1091, #286 ) ) ;
#968 = EDGE_CURVE ( 'NONE', #631, #1075, #717, .T. ) ;
#969 = UNCERTAINTY_MEASURE_WITH_UNIT (LENGTH_MEASURE( 1.000000000000000082E-05 ), #177, 'distance_accuracy_value', 'NONE');
#970 = PRODUCT ( '12-D-6080-06-(16gacr ANSI-61) - K48 - V4-R0', '12-D-6080-06-(16gacr ANSI-61) - K48 - V4-R0', '', ( #848 ) ) ;
#971 = CARTESIAN_POINT ( 'NONE',  ( 17.40500000000001180, 2.470000000000000639, -0.7500000000000001110 ) ) ;
#972 = CARTESIAN_POINT ( 'NONE',  ( -17.25499999999999190, -2.469999999999999751, 0.000000000000000000 ) ) ;
#973 = CARTESIAN_POINT ( 'NONE',  ( -17.40499999999999048, -2.469999999999999751, -0.1280000000000001970 ) ) ;
#974 = CIRCLE ( 'NONE', #707, 0.1279999999999995586 ) ;
#975 = CIRCLE ( 'NONE', #796, 0.1559999999999991116 ) ;
#976 = DIRECTION ( 'NONE',  ( -1.000000000000000000, 0.000000000000000000, 3.201384367575298715E-15 ) ) ;
#977 = AXIS2_PLACEMENT_3D ( 'NONE', #515, #265, #918 ) ;
#978 = ORIENTED_EDGE ( 'NONE', *, *, #139, .T. ) ;
#979 = EDGE_CURVE ( 'NONE', #274, #992, #600, .T. ) ;
#980 = VECTOR ( 'NONE', #867, 39.37007874015748143 ) ;
#981 = PLANE ( 'NONE',  #658 ) ;
#982 = DIRECTION ( 'NONE',  ( 0.000000000000000000, 3.167359992654216647E-15, 1.000000000000000000 ) ) ;
#983 = PLANE ( 'NONE',  #844 ) ;
#984 = EDGE_CURVE ( 'NONE', #268, #1343, #398, .T. ) ;
#985 = CARTESIAN_POINT ( 'NONE',  ( 0.000000000000000000, 0.000000000000000000, -0.05999999999999999778 ) ) ;
#986 = FACE_OUTER_BOUND ( 'NONE', #1334, .T. ) ;
#987 = EDGE_LOOP ( 'NONE', ( #99, #1259, #167, #416 ) ) ;
#988 = FILL_AREA_STYLE ('',( #804 ) ) ;
#989 = LINE ( 'NONE', #894, #860 ) ;
#990 = DIRECTION ( 'NONE',  ( 1.000000000000000000, 0.000000000000000000, 0.000000000000000000 ) ) ;
#991 = EDGE_CURVE ( 'NONE', #556, #1075, #1348, .T. ) ;
#992 = VERTEX_POINT ( 'NONE', #1037 ) ;
#993 = DIRECTION ( 'NONE',  ( -1.000000000000000000, -3.642463991552422744E-15, 0.000000000000000000 ) ) ;
#994 = DIRECTION ( 'NONE',  ( 1.000000000000000000, 0.000000000000000000, 0.000000000000000000 ) ) ;
#995 = DIRECTION ( 'NONE',  ( 0.000000000000000000, -0.000000000000000000, 1.000000000000000000 ) ) ;
#996 = CARTESIAN_POINT ( 'NONE',  ( -17.33792893218812736, -2.342000000000000526, -0.1279999999999992255 ) ) ;
#997 = VECTOR ( 'NONE', #358, 39.37007874015748143 ) ;
#998 = VERTEX_POINT ( 'NONE', #485 ) ;
#999 = AXIS2_PLACEMENT_3D ( 'NONE', #1011, #1208, #891 ) ;
#1000 = CARTESIAN_POINT ( 'NONE',  ( 0.000000000000000000, -2.219999999999999751, -0.05999999999999999778 ) ) ;
#1001 = DIRECTION ( 'NONE',  ( -1.000000000000000000, 0.000000000000000000, -0.000000000000000000 ) ) ;
#1002 = DIRECTION ( 'NONE',  ( 0.000000000000000000, 1.000000000000000000, 0.000000000000000000 ) ) ;
#1003 = VERTEX_POINT ( 'NONE', #269 ) ;
#1004 = DIRECTION ( 'NONE',  ( -3.167359992654216647E-15, 0.000000000000000000, 1.000000000000000000 ) ) ;
#1005 = ORIENTED_EDGE ( 'NONE', *, *, #319, .T. ) ;
#1006 = EDGE_CURVE ( 'NONE', #410, #396, #69, .T. ) ;
#1007 = CARTESIAN_POINT ( 'NONE',  ( 17.25500000000000966, -2.219999999999998863, -0.06000000000000004635 ) ) ;
#1008 = CARTESIAN_POINT ( 'NONE',  ( -17.40499999999999048, 2.220000000000000639, -0.1280000000000002525 ) ) ;
#1009 = LINE ( 'NONE', #42, #1252 ) ;
#1010 = ORIENTED_EDGE ( 'NONE', *, *, #646, .F. ) ;
#1011 = CARTESIAN_POINT ( 'NONE',  ( -17.40499999999999048, 2.220000000000000639, -0.7500000000000003331 ) ) ;
#1012 = EDGE_LOOP ( 'NONE', ( #1199, #587, #343, #53 ) ) ;
#1013 = EDGE_CURVE ( 'NONE', #396, #956, #729, .T. ) ;
#1014 = EDGE_LOOP ( 'NONE', ( #1084, #249, #1278, #140 ) ) ;
#1015 = CARTESIAN_POINT ( 'NONE',  ( -8.086270061246148918E-15, 2.219999999999937135, -0.05999999999999999778 ) ) ;
#1016 = ORIENTED_EDGE ( 'NONE', *, *, #1247, .T. ) ;
#1017 = FACE_OUTER_BOUND ( 'NONE', #921, .T. ) ;
#1018 = VECTOR ( 'NONE', #993, 39.37007874015748143 ) ;
#1019 = ORIENTED_EDGE ( 'NONE', *, *, #1319, .T. ) ;
#1020 = VECTOR ( 'NONE', #656, 39.37007874015748143 ) ;
#1021 = ORIENTED_EDGE ( 'NONE', *, *, #1139, .T. ) ;
#1022 = AXIS2_PLACEMENT_3D ( 'NONE', #208, #200, #1295 ) ;
#1023 = DIRECTION ( 'NONE',  ( 0.000000000000000000, 0.000000000000000000, 1.000000000000000000 ) ) ;
#1024 = EDGE_CURVE ( 'NONE', #496, #1343, #49, .T. ) ;
#1025 = FACE_OUTER_BOUND ( 'NONE', #566, .T. ) ;
#1026 = ORIENTED_EDGE ( 'NONE', *, *, #1258, .F. ) ;
#1027 = VERTEX_POINT ( 'NONE', #1262 ) ;
#1028 = CARTESIAN_POINT ( 'NONE',  ( -17.25499999999999190, 0.000000000000000000, -0.05999999999999999778 ) ) ;
#1029 = ORIENTED_EDGE ( 'NONE', *, *, #733, .F. ) ;
#1030 = CARTESIAN_POINT ( 'NONE',  ( -17.33792893218812736, -2.342000000000000526, 4.268512490100411402E-16 ) ) ;
#1031 = EDGE_CURVE ( 'NONE', #402, #1343, #1157, .T. ) ;
#1032 = EDGE_LOOP ( 'NONE', ( #254, #277, #564, #1282 ) ) ;
#1033 = ORIENTED_EDGE ( 'NONE', *, *, #408, .T. ) ;
#1034 = LINE ( 'NONE', #168, #1290 ) ;
#1035 = EDGE_LOOP ( 'NONE', ( #62, #299, #1256, #1122 ) ) ;
#1036 =( LENGTH_UNIT ( ) NAMED_UNIT ( * ) SI_UNIT ( $, .METRE. ) );
#1037 = CARTESIAN_POINT ( 'NONE',  ( 17.34500000000000952, -2.219999999999998863, -0.7500000000000003331 ) ) ;
#1038 = FACE_OUTER_BOUND ( 'NONE', #385, .T. ) ;
#1039 = ORIENTED_EDGE ( 'NONE', *, *, #288, .T. ) ;
#1040 = ORIENTED_EDGE ( 'NONE', *, *, #1006, .F. ) ;
#1041 = COLOUR_RGB ( '',0.7921568627450980005, 0.8196078431372548767, 0.9333333333333333481 ) ;
#1042 = ORIENTED_EDGE ( 'NONE', *, *, #903, .F. ) ;
#1043 = FACE_OUTER_BOUND ( 'NONE', #576, .T. ) ;
#1044 = CARTESIAN_POINT ( 'NONE',  ( 17.34500000000000952, 2.470000000000000639, -0.7500000000000003331 ) ) ;
#1045 = CLOSED_SHELL ( 'NONE', ( #725, #626, #72, #601, #279, #777, #224, #691, #842, #761, #948, #1123, #699, #182, #503, #545, #882, #1193, #868, #481, #1185, #806, #855, #16, #90, #388, #305, #1047, #911, #1263, #876, #41, #618, #1361, #1234, #145, #734, #919, #573, #307, #128, #422, #962, #1176, #1206, #295, #261, #590, #672, #1131 ) ) ;
#1046 = VECTOR ( 'NONE', #1336, 39.37007874015748143 ) ;
#1047 = ADVANCED_FACE ( 'NONE', ( #287 ), #833, .T. ) ;
#1048 = ORIENTED_EDGE ( 'NONE', *, *, #1024, .F. ) ;
#1049 = CARTESIAN_POINT ( 'NONE',  ( 17.40500000000000824, 2.220000000000000639, -0.7500000000000003331 ) ) ;
#1050 = FACE_OUTER_BOUND ( 'NONE', #60, .T. ) ;
#1051 = DIRECTION ( 'NONE',  ( 1.000000000000000000, 0.000000000000000000, 0.000000000000000000 ) ) ;
#1052 = CARTESIAN_POINT ( 'NONE',  ( -17.34499999999999176, -2.219999999999999751, -0.1280000000000003912 ) ) ;
#1053 = ORIENTED_EDGE ( 'NONE', *, *, #171, .T. ) ;
#1054 = FACE_OUTER_BOUND ( 'NONE', #1225, .T. ) ;
#1055 = CARTESIAN_POINT ( 'NONE',  ( 17.25500000000000966, -2.409999999999999698, 7.823379181855914281E-15 ) ) ;
#1056 = EDGE_CURVE ( 'NONE', #366, #992, #724, .T. ) ;
#1057 = CARTESIAN_POINT ( 'NONE',  ( 17.06500000000000483, 0.000000000000000000, 0.000000000000000000 ) ) ;
#1058 = ORIENTED_EDGE ( 'NONE', *, *, #328, .F. ) ;
#1059 = PLANE ( 'NONE',  #227 ) ;
#1060 = FACE_OUTER_BOUND ( 'NONE', #511, .T. ) ;
#1061 = FACE_OUTER_BOUND ( 'NONE', #597, .T. ) ;
#1062 = VECTOR ( 'NONE', #1268, 39.37007874015748143 ) ;
#1063 = EDGE_CURVE ( 'NONE', #474, #1236, #801, .T. ) ;
#1064 = DIRECTION ( 'NONE',  ( 0.000000000000000000, 0.000000000000000000, 1.000000000000000000 ) ) ;
#1065 = ORIENTED_EDGE ( 'NONE', *, *, #255, .T. ) ;
#1066 = AXIS2_PLACEMENT_3D ( 'NONE', #178, #592, #1023 ) ;
#1067 = DIRECTION ( 'NONE',  ( -0.000000000000000000, 1.000000000000000000, -0.000000000000000000 ) ) ;
#1068 = CARTESIAN_POINT ( 'NONE',  ( -17.27699999999999037, 2.402928932188135303, -1.229331597148918547E-15 ) ) ;
#1069 = EDGE_CURVE ( 'NONE', #262, #28, #479, .T. ) ;
#1070 = CARTESIAN_POINT ( 'NONE',  ( 17.27700000000000813, -2.219999999999998863, 0.000000000000000000 ) ) ;
#1071 = ORIENTED_EDGE ( 'NONE', *, *, #31, .T. ) ;
#1072 =( NAMED_UNIT ( * ) SI_UNIT ( $, .STERADIAN. ) SOLID_ANGLE_UNIT ( ) );
#1073 = CARTESIAN_POINT ( 'NONE',  ( 17.40500000000000824, -2.410000000000002363, -0.7500000000000003331 ) ) ;
#1074 = DIRECTION ( 'NONE',  ( -1.000000000000000000, -2.134256245050199144E-15, 0.000000000000000000 ) ) ;
#1075 = VERTEX_POINT ( 'NONE', #1339 ) ;
#1076 = EDGE_CURVE ( 'NONE', #763, #176, #257, .T. ) ;
#1077 = DIRECTION ( 'NONE',  ( -3.167359992654216647E-15, -1.153699472152673173E-29, 1.000000000000000000 ) ) ;
#1078 = CARTESIAN_POINT ( 'NONE',  ( -17.06500000000000128, 0.000000000000000000, -0.05999999999999999778 ) ) ;
#1079 = DIRECTION ( 'NONE',  ( 0.000000000000000000, 0.000000000000000000, 1.000000000000000000 ) ) ;
#1080 = AXIS2_PLACEMENT_3D ( 'NONE', #1196, #439, #856 ) ;
#1081 = CIRCLE ( 'NONE', #29, 0.1559999999999991116 ) ;
#1082 = AXIS2_PLACEMENT_3D ( 'NONE', #376, #925, #172 ) ;
#1083 = PLANE ( 'NONE',  #753 ) ;
#1084 = ORIENTED_EDGE ( 'NONE', *, *, #583, .F. ) ;
#1085 = EDGE_CURVE ( 'NONE', #1338, #108, #412, .T. ) ;
#1086 = AXIS2_PLACEMENT_3D ( 'NONE', #931, #1255, #285 ) ;
#1087 = CARTESIAN_POINT ( 'NONE',  ( -17.40499999999999048, 2.220000000000000639, -0.7500000000000003331 ) ) ;
#1088 = LINE ( 'NONE', #1189, #1266 ) ;
#1089 = CYLINDRICAL_SURFACE ( 'NONE', #321, 0.1559999999999991116 ) ;
#1090 = ORIENTED_EDGE ( 'NONE', *, *, #408, .F. ) ;
#1091 = ORIENTED_EDGE ( 'NONE', *, *, #984, .F. ) ;
#1092 = DIRECTION ( 'NONE',  ( 0.000000000000000000, 0.000000000000000000, 1.000000000000000000 ) ) ;
#1093 = FACE_OUTER_BOUND ( 'NONE', #392, .T. ) ;
#1094 = PLANE ( 'NONE',  #1159 ) ;
#1095 = EDGE_CURVE ( 'NONE', #711, #482, #193, .T. ) ;
#1096 = EDGE_CURVE ( 'NONE', #482, #1129, #1286, .T. ) ;
#1097 = FACE_OUTER_BOUND ( 'NONE', #825, .T. ) ;
#1098 = VERTEX_POINT ( 'NONE', #426 ) ;
#1099 = CARTESIAN_POINT ( 'NONE',  ( 17.25500000000000966, 2.410000000000000586, 7.823379181855440964E-15 ) ) ;
#1100 = CARTESIAN_POINT ( 'NONE',  ( 0.000000000000000000, 0.000000000000000000, 0.000000000000000000 ) ) ;
#1101 = FACE_OUTER_BOUND ( 'NONE', #871, .T. ) ;
#1102 = ORIENTED_EDGE ( 'NONE', *, *, #1149, .T. ) ;
#1103 = LINE ( 'NONE', #904, #7 ) ;
#1104 = EDGE_CURVE ( 'NONE', #956, #1217, #858, .T. ) ;
#1105 = AXIS2_PLACEMENT_3D ( 'NONE', #338, #1110, #669 ) ;
#1106 = PLANE ( 'NONE',  #999 ) ;
#1107 = ORIENTED_EDGE ( 'NONE', *, *, #1296, .F. ) ;
#1108 = CIRCLE ( 'NONE', #138, 0.1280000000000003912 ) ;
#1109 = EDGE_LOOP ( 'NONE', ( #742, #1143, #1303, #896 ) ) ;
#1110 = DIRECTION ( 'NONE',  ( 1.000000000000000000, 8.741913579725621789E-15, 0.000000000000000000 ) ) ;
#1111 = LINE ( 'NONE', #20, #730 ) ;
#1112 = LINE ( 'NONE', #340, #620 ) ;
#1113 = VECTOR ( 'NONE', #746, 39.37007874015748143 ) ;
#1114 = ORIENTED_EDGE ( 'NONE', *, *, #312, .T. ) ;
#1115 = CARTESIAN_POINT ( 'NONE',  ( -17.40499999999999048, -2.219999999999999751, -0.7500000000000003331 ) ) ;
#1116 = EDGE_CURVE ( 'NONE', #763, #1236, #526, .T. ) ;
#1117 = VERTEX_POINT ( 'NONE', #1175 ) ;
#1118 = EDGE_CURVE ( 'NONE', #1180, #366, #1382, .T. ) ;
#1119 = DIRECTION ( 'NONE',  ( -1.000000000000000000, 0.000000000000000000, 0.000000000000000000 ) ) ;
#1120 = CARTESIAN_POINT ( 'NONE',  ( -17.25499999999999190, 2.470000000000000639, -0.1279999999999977822 ) ) ;
#1121 = CYLINDRICAL_SURFACE ( 'NONE', #1374, 0.06799999999999938038 ) ;
#1122 = ORIENTED_EDGE ( 'NONE', *, *, #267, .F. ) ;
#1123 = ADVANCED_FACE ( 'NONE', ( #1050 ), #1184, .F. ) ;
#1124 = CARTESIAN_POINT ( 'NONE',  ( -17.40499999999999048, 2.220000000000000639, -0.7500000000000003331 ) ) ;
#1125 = VERTEX_POINT ( 'NONE', #215 ) ;
#1126 = DIRECTION ( 'NONE',  ( -0.000000000000000000, 1.000000000000000000, -0.000000000000000000 ) ) ;
#1127 = CARTESIAN_POINT ( 'NONE',  ( -17.25499999999999190, -2.469999999999999751, -0.7500000000000003331 ) ) ;
#1128 = VECTOR ( 'NONE', #845, 39.37007874015748143 ) ;
#1129 = VERTEX_POINT ( 'NONE', #643 ) ;
#1130 = VECTOR ( 'NONE', #607, 39.37007874015748143 ) ;
#1131 = ADVANCED_FACE ( 'NONE', ( #1269 ), #634, .F. ) ;
#1132 = EDGE_LOOP ( 'NONE', ( #1026, #1209 ) ) ;
#1133 = CARTESIAN_POINT ( 'NONE',  ( 4.043135030623185688E-15, -2.220000000000030393, -0.05999999999999999778 ) ) ;
#1134 = DIRECTION ( 'NONE',  ( -8.741913579725621789E-15, 1.000000000000000000, 0.000000000000000000 ) ) ;
#1135 = ORIENTED_EDGE ( 'NONE', *, *, #514, .T. ) ;
#1136 = ORIENTED_EDGE ( 'NONE', *, *, #1241, .T. ) ;
#1137 = ORIENTED_EDGE ( 'NONE', *, *, #109, .T. ) ;
#1138 = DIRECTION ( 'NONE',  ( -1.000000000000000000, -0.000000000000000000, -0.000000000000000000 ) ) ;
#1139 = EDGE_CURVE ( 'NONE', #1075, #508, #644, .T. ) ;
#1140 = CARTESIAN_POINT ( 'NONE',  ( -17.34499999999999176, -2.219999999999999751, -0.1280000000000003912 ) ) ;
#1141 = EDGE_CURVE ( 'NONE', #496, #831, #739, .T. ) ;
#1142 = ORIENTED_EDGE ( 'NONE', *, *, #1279, .T. ) ;
#1143 = ORIENTED_EDGE ( 'NONE', *, *, #1141, .T. ) ;
#1144 = DIRECTION ( 'NONE',  ( 0.000000000000000000, 1.000000000000000000, 0.000000000000000000 ) ) ;
#1145 = ORIENTED_EDGE ( 'NONE', *, *, #1167, .F. ) ;
#1146 = LENGTH_MEASURE_WITH_UNIT ( LENGTH_MEASURE( 0.02539999999999999897 ), #1036 );
#1147 = DIRECTION ( 'NONE',  ( 3.167359992654216647E-15, 5.768497360763283189E-30, -1.000000000000000000 ) ) ;
#1148 = CARTESIAN_POINT ( 'NONE',  ( -17.25499999999999190, 2.470000000000000639, -0.7500000000000003331 ) ) ;
#1149 = EDGE_CURVE ( 'NONE', #998, #1027, #1368, .T. ) ;
#1150 = ORIENTED_EDGE ( 'NONE', *, *, #1139, .F. ) ;
#1151 = VECTOR ( 'NONE', #1179, 39.37007874015748143 ) ;
#1152 = DIRECTION ( 'NONE',  ( 1.000000000000000000, 0.000000000000000000, 0.000000000000000000 ) ) ;
#1153 = AXIS2_PLACEMENT_3D ( 'NONE', #51, #372, #123 ) ;
#1154 = ORIENTED_EDGE ( 'NONE', *, *, #327, .T. ) ;
#1155 = DIRECTION ( 'NONE',  ( 1.000000000000000000, 0.000000000000000000, 0.000000000000000000 ) ) ;
#1156 = DIRECTION ( 'NONE',  ( 1.000000000000000000, 0.000000000000000000, 3.201384367575298715E-15 ) ) ;
#1157 = CIRCLE ( 'NONE', #544, 0.1279999999999996696 ) ;
#1158 = CYLINDRICAL_SURFACE ( 'NONE', #232, 0.1559999999999991116 ) ;
#1159 = AXIS2_PLACEMENT_3D ( 'NONE', #126, #246, #665 ) ;
#1160 = EDGE_CURVE ( 'NONE', #1003, #402, #629, .T. ) ;
#1161 = ORIENTED_EDGE ( 'NONE', *, *, #824, .T. ) ;
#1162 = DIRECTION ( 'NONE',  ( 0.000000000000000000, 1.000000000000000000, 3.264156610076801518E-15 ) ) ;
#1163 = CARTESIAN_POINT ( 'NONE',  ( 17.06500000000000483, 0.000000000000000000, -0.05999999999999999778 ) ) ;
#1164 = DIRECTION ( 'NONE',  ( 0.000000000000000000, -9.106159978880942870E-15, 1.000000000000000000 ) ) ;
#1165 = CARTESIAN_POINT ( 'NONE',  ( -17.40499999999999048, 2.410000000000001030, -0.1279999999999992810 ) ) ;
#1166 = EDGE_LOOP ( 'NONE', ( #1344, #173, #183, #429 ) ) ;
#1167 = EDGE_CURVE ( 'NONE', #356, #474, #403, .T. ) ;
#1168 = LINE ( 'NONE', #205, #453 ) ;
#1169 = DIRECTION ( 'NONE',  ( -1.821231995776184945E-15, 1.000000000000000000, 0.000000000000000000 ) ) ;
#1170 = CARTESIAN_POINT ( 'NONE',  ( -17.40499999999999048, -2.219999999999999751, 0.000000000000000000 ) ) ;
#1171 = DIRECTION ( 'NONE',  ( 0.000000000000000000, -1.000000000000000000, 3.264156610076801518E-15 ) ) ;
#1172 = EDGE_LOOP ( 'NONE', ( #158, #822, #791, #1214 ) ) ;
#1173 = PLANE ( 'NONE',  #706 ) ;
#1174 = LINE ( 'NONE', #972, #1062 ) ;
#1175 = CARTESIAN_POINT ( 'NONE',  ( -17.22100000000000009, 1.910449006669883105E-17, 0.000000000000000000 ) ) ;
#1176 = ADVANCED_FACE ( 'NONE', ( #1061 ), #960, .F. ) ;
#1177 = VECTOR ( 'NONE', #1302, 39.37007874015748143 ) ;
#1178 = AXIS2_PLACEMENT_3D ( 'NONE', #57, #282, #1251 ) ;
#1179 = DIRECTION ( 'NONE',  ( 0.000000000000000000, 0.000000000000000000, -1.000000000000000000 ) ) ;
#1180 = VERTEX_POINT ( 'NONE', #231 ) ;
#1181 = AXIS2_PLACEMENT_3D ( 'NONE', #570, #798, #686 ) ;
#1182 = CARTESIAN_POINT ( 'NONE',  ( -17.34499999999999176, 0.000000000000000000, 5.512790067214662481E-14 ) ) ;
#1183 = CARTESIAN_POINT ( 'NONE',  ( -17.25499999999999190, -2.409999999999999698, 7.823379181855914281E-15 ) ) ;
#1184 = PLANE ( 'NONE',  #187 ) ;
#1185 = ADVANCED_FACE ( 'NONE', ( #1101 ), #1089, .F. ) ;
#1186 = CARTESIAN_POINT ( 'NONE',  ( -17.27699999999999037, -2.219999999999999751, 0.000000000000000000 ) ) ;
#1187 = EDGE_LOOP ( 'NONE', ( #1195, #74, #1231, #621 ) ) ;
#1188 = LINE ( 'NONE', #229, #92 ) ;
#1189 = CARTESIAN_POINT ( 'NONE',  ( -17.34499999999999176, -2.469999999999999751, -0.7500000000000003331 ) ) ;
#1190 = DIRECTION ( 'NONE',  ( 0.000000000000000000, 0.000000000000000000, -1.000000000000000000 ) ) ;
#1191 = ORIENTED_EDGE ( 'NONE', *, *, #835, .F. ) ;
#1192 = DIRECTION ( 'NONE',  ( -0.000000000000000000, -0.000000000000000000, 1.000000000000000000 ) ) ;
#1193 = ADVANCED_FACE ( 'NONE', ( #888 ), #561, .F. ) ;
#1194 = ORIENTED_EDGE ( 'NONE', *, *, #1031, .F. ) ;
#1195 = ORIENTED_EDGE ( 'NONE', *, *, #1095, .T. ) ;
#1196 = CARTESIAN_POINT ( 'NONE',  ( -17.25499999999999190, 2.342000000000001414, -0.1279999999999981708 ) ) ;
#1197 = CARTESIAN_POINT ( 'NONE',  ( 0.000000000000000000, 2.410000000000000586, 7.823379181855917436E-15 ) ) ;
#1198 = DIRECTION ( 'NONE',  ( -0.000000000000000000, 1.000000000000000000, -0.000000000000000000 ) ) ;
#1199 = ORIENTED_EDGE ( 'NONE', *, *, #913, .F. ) ;
#1200 = DIRECTION ( 'NONE',  ( 0.000000000000000000, -0.000000000000000000, -1.000000000000000000 ) ) ;
#1201 = ORIENTED_EDGE ( 'NONE', *, *, #152, .T. ) ;
#1202 = ORIENTED_EDGE ( 'NONE', *, *, #327, .F. ) ;
#1203 = AXIS2_PLACEMENT_3D ( 'NONE', #360, #793, #990 ) ;
#1204 = CARTESIAN_POINT ( 'NONE',  ( 17.27700000000000813, -2.219999999999998863, -0.1280000000000006133 ) ) ;
#1205 = CARTESIAN_POINT ( 'NONE',  ( -17.33792893218812736, -2.342000000000000526, -0.05999999999999958145 ) ) ;
#1206 = ADVANCED_FACE ( 'NONE', ( #1207 ), #1094, .F. ) ;
#1207 = FACE_OUTER_BOUND ( 'NONE', #387, .T. ) ;
#1208 = DIRECTION ( 'NONE',  ( 0.000000000000000000, -1.000000000000000000, 0.000000000000000000 ) ) ;
#1209 = ORIENTED_EDGE ( 'NONE', *, *, #1346, .F. ) ;
#1210 = PLANE ( 'NONE',  #1223 ) ;
#1211 = FACE_BOUND ( 'NONE', #679, .T. ) ;
#1212 = LINE ( 'NONE', #678, #1314 ) ;
#1213 = EDGE_CURVE ( 'NONE', #950, #268, #1316, .T. ) ;
#1214 = ORIENTED_EDGE ( 'NONE', *, *, #335, .F. ) ;
#1215 = FACE_OUTER_BOUND ( 'NONE', #59, .T. ) ;
#1216 = DIRECTION ( 'NONE',  ( 0.000000000000000000, 0.000000000000000000, 1.000000000000000000 ) ) ;
#1217 = VERTEX_POINT ( 'NONE', #1327 ) ;
#1218 = LINE ( 'NONE', #1320, #752 ) ;
#1219 = DIRECTION ( 'NONE',  ( 1.000000000000000000, 0.000000000000000000, 0.000000000000000000 ) ) ;
#1220 = ORIENTED_EDGE ( 'NONE', *, *, #1069, .F. ) ;
#1221 = DIRECTION ( 'NONE',  ( 0.000000000000000000, 0.000000000000000000, -1.000000000000000000 ) ) ;
#1222 = EDGE_CURVE ( 'NONE', #1180, #508, #465, .T. ) ;
#1223 = AXIS2_PLACEMENT_3D ( 'NONE', #1087, #1228, #146 ) ;
#1224 = VECTOR ( 'NONE', #533, 39.37007874015748143 ) ;
#1225 = EDGE_LOOP ( 'NONE', ( #1, #76, #438, #648 ) ) ;
#1226 = VECTOR ( 'NONE', #710, 39.37007874015748143 ) ;
#1227 = ORIENTED_EDGE ( 'NONE', *, *, #1377, .F. ) ;
#1228 = DIRECTION ( 'NONE',  ( 0.000000000000000000, -1.000000000000000000, 0.000000000000000000 ) ) ;
#1229 = PLANE ( 'NONE',  #1181 ) ;
#1230 = VECTOR ( 'NONE', #1002, 39.37007874015748143 ) ;
#1231 = ORIENTED_EDGE ( 'NONE', *, *, #608, .F. ) ;
#1232 = EDGE_CURVE ( 'NONE', #1362, #763, #555, .T. ) ;
#1233 = PLANE ( 'NONE',  #662 ) ;
#1234 = ADVANCED_FACE ( 'NONE', ( #788 ), #983, .F. ) ;
#1235 = ORIENTED_EDGE ( 'NONE', *, *, #1141, .F. ) ;
#1236 = VERTEX_POINT ( 'NONE', #657 ) ;
#1237 = FACE_OUTER_BOUND ( 'NONE', #1260, .T. ) ;
#1238 = VERTEX_POINT ( 'NONE', #1322 ) ;
#1239 = CARTESIAN_POINT ( 'NONE',  ( -17.25499999999999190, 0.000000000000000000, -0.05999999999999999778 ) ) ;
#1240 = CARTESIAN_POINT ( 'NONE',  ( 17.25500000000000966, -2.469999999999999751, -0.1279999999999986149 ) ) ;
#1241 = EDGE_CURVE ( 'NONE', #558, #366, #1212, .T. ) ;
#1242 = ORIENTED_EDGE ( 'NONE', *, *, #2, .T. ) ;
#1243 = LINE ( 'NONE', #1355, #3 ) ;
#1244 = DIRECTION ( 'NONE',  ( -3.642463991552422744E-15, 1.000000000000000000, -0.000000000000000000 ) ) ;
#1245 = PLANE ( 'NONE',  #382 ) ;
#1246 = PRESENTATION_LAYER_ASSIGNMENT (  '', '', ( #906 ) ) ;
#1247 = EDGE_CURVE ( 'NONE', #1313, #402, #354, .T. ) ;
#1248 = ORIENTED_EDGE ( 'NONE', *, *, #1272, .F. ) ;
#1249 = VECTOR ( 'NONE', #400, 39.37007874015748143 ) ;
#1250 = ORIENTED_EDGE ( 'NONE', *, *, #209, .F. ) ;
#1251 = DIRECTION ( 'NONE',  ( 0.000000000000000000, -0.000000000000000000, 1.000000000000000000 ) ) ;
#1252 = VECTOR ( 'NONE', #1301, 39.37007874015748143 ) ;
#1253 = CARTESIAN_POINT ( 'NONE',  ( -17.34499999999999176, -2.219999999999999751, 5.512790067214662481E-14 ) ) ;
#1254 = ORIENTED_EDGE ( 'NONE', *, *, #363, .T. ) ;
#1255 = DIRECTION ( 'NONE',  ( -0.000000000000000000, 1.000000000000000000, -0.000000000000000000 ) ) ;
#1256 = ORIENTED_EDGE ( 'NONE', *, *, #104, .F. ) ;
#1257 = DIRECTION ( 'NONE',  ( 0.000000000000000000, -1.000000000000000000, 0.000000000000000000 ) ) ;
#1258 = EDGE_CURVE ( 'NONE', #920, #1117, #864, .T. ) ;
#1259 = ORIENTED_EDGE ( 'NONE', *, *, #434, .F. ) ;
#1260 = EDGE_LOOP ( 'NONE', ( #348, #675, #466, #1039 ) ) ;
#1261 = DIRECTION ( 'NONE',  ( 0.000000000000000000, 0.000000000000000000, 1.000000000000000000 ) ) ;
#1262 = CARTESIAN_POINT ( 'NONE',  ( -17.25499999999999190, -2.342000000000000526, 0.000000000000000000 ) ) ;
#1263 = ADVANCED_FACE ( 'NONE', ( #21 ), #1229, .F. ) ;
#1264 = DIRECTION ( 'NONE',  ( 0.000000000000000000, 0.000000000000000000, -1.000000000000000000 ) ) ;
#1265 = ORIENTED_EDGE ( 'NONE', *, *, #1222, .F. ) ;
#1266 = VECTOR ( 'NONE', #866, 39.37007874015748143 ) ;
#1267 = CARTESIAN_POINT ( 'NONE',  ( 17.33792893218814157, 2.342000000000001414, -0.1280000000000025007 ) ) ;
#1268 = DIRECTION ( 'NONE',  ( 0.000000000000000000, 1.000000000000000000, 0.000000000000000000 ) ) ;
#1269 = FACE_OUTER_BOUND ( 'NONE', #625, .T. ) ;
#1270 = VECTOR ( 'NONE', #433, 39.37007874015748143 ) ;
#1271 = DIRECTION ( 'NONE',  ( 0.000000000000000000, 0.000000000000000000, -1.000000000000000000 ) ) ;
#1272 = EDGE_CURVE ( 'NONE', #491, #131, #448, .T. ) ;
#1273 = ORIENTED_EDGE ( 'NONE', *, *, #608, .T. ) ;
#1274 = DIRECTION ( 'NONE',  ( 0.000000000000000000, 0.000000000000000000, -1.000000000000000000 ) ) ;
#1275 = FACE_OUTER_BOUND ( 'NONE', #1035, .T. ) ;
#1276 = ORIENTED_EDGE ( 'NONE', *, *, #1222, .T. ) ;
#1277 = CYLINDRICAL_SURFACE ( 'NONE', #6, 0.1280000000000003912 ) ;
#1278 = ORIENTED_EDGE ( 'NONE', *, *, #529, .F. ) ;
#1279 = EDGE_CURVE ( 'NONE', #940, #108, #1112, .T. ) ;
#1280 = CARTESIAN_POINT ( 'NONE',  ( 17.25500000000000966, 2.470000000000000639, -0.7500000000000003331 ) ) ;
#1281 = LINE ( 'NONE', #91, #731 ) ;
#1282 = ORIENTED_EDGE ( 'NONE', *, *, #238, .T. ) ;
#1283 = AXIS2_PLACEMENT_3D ( 'NONE', #971, #872, #111 ) ;
#1284 = PLANE ( 'NONE',  #565 ) ;
#1285 = DIRECTION ( 'NONE',  ( 0.000000000000000000, 1.000000000000000000, -3.167359992654216647E-15 ) ) ;
#1286 = LINE ( 'NONE', #947, #760 ) ;
#1287 = AXIS2_PLACEMENT_3D ( 'NONE', #502, #86, #1271 ) ;
#1288 = EDGE_CURVE ( 'NONE', #169, #262, #15, .T. ) ;
#1289 = CARTESIAN_POINT ( 'NONE',  ( 17.25500000000000966, 2.470000000000000639, -0.7500000000000003331 ) ) ;
#1290 = VECTOR ( 'NONE', #915, 39.37007874015748143 ) ;
#1291 = ORIENTED_EDGE ( 'NONE', *, *, #928, .T. ) ;
#1292 = CARTESIAN_POINT ( 'NONE',  ( 17.40500000000000824, 2.220000000000000639, -0.7500000000000003331 ) ) ;
#1293 = CARTESIAN_POINT ( 'NONE',  ( -17.25499999999999190, 2.342000000000001414, 0.000000000000000000 ) ) ;
#1294 = DIRECTION ( 'NONE',  ( -1.821231995776184945E-15, 1.000000000000000000, 0.000000000000000000 ) ) ;
#1295 = DIRECTION ( 'NONE',  ( 0.000000000000000000, 1.000000000000000000, 3.201384367575312521E-15 ) ) ;
#1296 = EDGE_CURVE ( 'NONE', #1129, #747, #1009, .T. ) ;
#1297 = DIRECTION ( 'NONE',  ( 1.000000000000000000, 0.000000000000000000, 0.000000000000000000 ) ) ;
#1298 = VERTEX_POINT ( 'NONE', #473 ) ;
#1299 = CARTESIAN_POINT ( 'NONE',  ( -17.22100000000000009, 1.910449006669883105E-17, -0.05999999999999999778 ) ) ;
#1300 = CARTESIAN_POINT ( 'NONE',  ( 17.25500000000001322, 2.342000000000001414, -0.1280000000000024729 ) ) ;
#1301 = DIRECTION ( 'NONE',  ( -0.000000000000000000, -0.000000000000000000, 1.000000000000000000 ) ) ;
#1302 = DIRECTION ( 'NONE',  ( 0.000000000000000000, 0.000000000000000000, 1.000000000000000000 ) ) ;
#1303 = ORIENTED_EDGE ( 'NONE', *, *, #190, .T. ) ;
#1304 = LINE ( 'NONE', #1099, #270 ) ;
#1305 = CARTESIAN_POINT ( 'NONE',  ( -17.25499999999999190, 2.342000000000000082, -0.05999999999999850592 ) ) ;
#1306 = CARTESIAN_POINT ( 'NONE',  ( -17.34499999999999176, -2.469999999999999751, -0.1280000000000003912 ) ) ;
#1307 = VECTOR ( 'NONE', #4, 39.37007874015748143 ) ;
#1308 = EDGE_LOOP ( 'NONE', ( #488, #978, #599, #708 ) ) ;
#1309 = CARTESIAN_POINT ( 'NONE',  ( 17.25500000000000966, 2.410000000000003251, -0.7500000000000003331 ) ) ;
#1310 = AXIS2_PLACEMENT_3D ( 'NONE', #851, #101, #83 ) ;
#1311 = ORIENTED_EDGE ( 'NONE', *, *, #968, .F. ) ;
#1312 = EDGE_CURVE ( 'NONE', #169, #940, #342, .T. ) ;
#1313 = VERTEX_POINT ( 'NONE', #490 ) ;
#1314 = VECTOR ( 'NONE', #548, 39.37007874015748143 ) ;
#1315 = CARTESIAN_POINT ( 'NONE',  ( 17.40500000000000824, -2.219999999999998863, 0.000000000000000000 ) ) ;
#1316 = LINE ( 'NONE', #121, #1337 ) ;
#1317 = ORIENTED_EDGE ( 'NONE', *, *, #373, .T. ) ;
#1318 = ORIENTED_EDGE ( 'NONE', *, *, #23, .F. ) ;
#1319 = EDGE_CURVE ( 'NONE', #266, #998, #823, .T. ) ;
#1320 = CARTESIAN_POINT ( 'NONE',  ( 17.40500000000000824, -2.219999999999998863, -0.7500000000000003331 ) ) ;
#1321 = LINE ( 'NONE', #353, #203 ) ;
#1322 = CARTESIAN_POINT ( 'NONE',  ( 17.27700000000000813, 2.220000000000000195, -0.06000000000000121902 ) ) ;
#1323 = ORIENTED_EDGE ( 'NONE', *, *, #1329, .F. ) ;
#1324 = DIRECTION ( 'NONE',  ( 0.000000000000000000, -0.000000000000000000, 1.000000000000000000 ) ) ;
#1325 = ORIENTED_EDGE ( 'NONE', *, *, #104, .T. ) ;
#1326 = CARTESIAN_POINT ( 'NONE',  ( 17.27700000000000813, 2.220000000000000195, 0.000000000000000000 ) ) ;
#1327 = CARTESIAN_POINT ( 'NONE',  ( -17.27699999999999037, 2.220000000000000639, -0.06000000000000121902 ) ) ;
#1328 = EDGE_LOOP ( 'NONE', ( #1333, #531, #1048, #595 ) ) ;
#1329 = EDGE_CURVE ( 'NONE', #674, #24, #147, .T. ) ;
#1330 = CIRCLE ( 'NONE', #588, 0.06799999999999964406 ) ;
#1331 = AXIS2_PLACEMENT_3D ( 'NONE', #95, #738, #728 ) ;
#1332 = AXIS2_PLACEMENT_3D ( 'NONE', #164, #79, #405 ) ;
#1333 = ORIENTED_EDGE ( 'NONE', *, *, #1213, .T. ) ;
#1334 = EDGE_LOOP ( 'NONE', ( #869, #1201, #460, #878 ) ) ;
#1335 = LINE ( 'NONE', #582, #180 ) ;
#1336 = DIRECTION ( 'NONE',  ( -0.000000000000000000, -1.000000000000000000, -0.000000000000000000 ) ) ;
#1337 = VECTOR ( 'NONE', #27, 39.37007874015748143 ) ;
#1338 = VERTEX_POINT ( 'NONE', #584 ) ;
#1339 = CARTESIAN_POINT ( 'NONE',  ( 17.27700000000000813, 2.220000000000000195, 0.000000000000000000 ) ) ;
#1340 = EDGE_CURVE ( 'NONE', #1362, #1298, #259, .T. ) ;
#1341 = DIRECTION ( 'NONE',  ( -0.000000000000000000, 1.000000000000000000, -0.000000000000000000 ) ) ;
#1342 = ORIENTED_EDGE ( 'NONE', *, *, #163, .F. ) ;
#1343 = VERTEX_POINT ( 'NONE', #1120 ) ;
#1344 = ORIENTED_EDGE ( 'NONE', *, *, #1116, .F. ) ;
#1345 = DIRECTION ( 'NONE',  ( -0.000000000000000000, -0.000000000000000000, 1.000000000000000000 ) ) ;
#1346 = EDGE_CURVE ( 'NONE', #1117, #920, #303, .T. ) ;
#1347 = ORIENTED_EDGE ( 'NONE', *, *, #1063, .F. ) ;
#1348 = LINE ( 'NONE', #817, #1353 ) ;
#1349 = ADVANCED_BREP_SHAPE_REPRESENTATION ( '12-D-6080-06-(16gacr ANSI-61) - K48 - V4-R0', ( #276, #957 ), #689 ) ;
#1350 = CARTESIAN_POINT ( 'NONE',  ( -17.25499999999999190, 2.410000000000003251, -0.7500000000000003331 ) ) ;
#1351 = AXIS2_PLACEMENT_3D ( 'NONE', #1204, #893, #25 ) ;
#1352 = AXIS2_PLACEMENT_3D ( 'NONE', #530, #314, #1200 ) ;
#1353 = VECTOR ( 'NONE', #826, 39.37007874015748143 ) ;
#1354 = EDGE_CURVE ( 'NONE', #1313, #556, #1034, .T. ) ;
#1355 = CARTESIAN_POINT ( 'NONE',  ( 17.27700000000000813, -2.402928932188133526, -0.06000000000000123290 ) ) ;
#1356 = CARTESIAN_POINT ( 'NONE',  ( 17.40500000000000824, -2.219999999999998863, -0.7500000000000003331 ) ) ;
#1357 = AXIS2_PLACEMENT_3D ( 'NONE', #326, #766, #1190 ) ;
#1358 = DIRECTION ( 'NONE',  ( -1.000000000000000000, 0.000000000000000000, 2.276539994720181681E-15 ) ) ;
#1359 = PLANE ( 'NONE',  #1287 ) ;
#1360 = ORIENTED_EDGE ( 'NONE', *, *, #238, .F. ) ;
#1361 = ADVANCED_FACE ( 'NONE', ( #54 ), #67, .F. ) ;
#1362 = VERTEX_POINT ( 'NONE', #1124 ) ;
#1363 = FACE_OUTER_BOUND ( 'NONE', #987, .T. ) ;
#1364 = CARTESIAN_POINT ( 'NONE',  ( -17.25499999999999190, -2.219999999999999751, -0.7500000000000003331 ) ) ;
#1365 = ORIENTED_EDGE ( 'NONE', *, *, #1056, .F. ) ;
#1366 = ORIENTED_EDGE ( 'NONE', *, *, #718, .T. ) ;
#1367 = PLANE ( 'NONE',  #932 ) ;
#1368 = LINE ( 'NONE', #221, #78 ) ;
#1369 = CARTESIAN_POINT ( 'NONE',  ( -17.40499999999999048, 2.220000000000000639, -0.1280000000000002525 ) ) ;
#1370 = EDGE_CURVE ( 'NONE', #274, #1098, #722, .T. ) ;
#1371 = VECTOR ( 'NONE', #1077, 39.37007874015748143 ) ;
#1372 = ORIENTED_EDGE ( 'NONE', *, *, #979, .F. ) ;
#1373 = VECTOR ( 'NONE', #828, 39.37007874015748143 ) ;
#1374 = AXIS2_PLACEMENT_3D ( 'NONE', #136, #572, #149 ) ;
#1375 = CARTESIAN_POINT ( 'NONE',  ( -17.25499999999999190, 2.342000000000001414, 0.000000000000000000 ) ) ;
#1376 = APPLICATION_CONTEXT ( 'automotive_design' ) ;
#1377 = EDGE_CURVE ( 'NONE', #24, #747, #736, .T. ) ;
#1378 = DIRECTION ( 'NONE',  ( 1.000000000000000000, 3.642463991552422744E-15, 0.000000000000000000 ) ) ;
#1379 = VERTEX_POINT ( 'NONE', #922 ) ;
#1380 = LINE ( 'NONE', #641, #1307 ) ;
#1381 = PLANE ( 'NONE',  #271 ) ;
#1382 = LINE ( 'NONE', #318, #280 ) ;
#1383 = CARTESIAN_POINT ( 'NONE',  ( -17.06500000000000128, 0.000000000000000000, -0.05999999999999999778 ) ) ;
#1384 = ORIENTED_EDGE ( 'NONE', *, *, #139, .F. ) ;
#1385 = CARTESIAN_POINT ( 'NONE',  ( 17.27700000000000813, -2.219999999999998863, -0.06000000000000121902 ) ) ;
#1386 = CARTESIAN_POINT ( 'NONE',  ( -17.25499999999999190, 2.220000000000000639, -0.7500000000000003331 ) ) ;
#1387 = DIRECTION ( 'NONE',  ( 1.000000000000000000, -0.000000000000000000, -0.000000000000000000 ) ) ;
#1388 = ORIENTED_EDGE ( 'NONE', *, *, #470, .F. ) ;
#1389 = FACE_OUTER_BOUND ( 'NONE', #135, .T. ) ;
ENDSEC;
END-ISO-10303-21;
